<svg version="1.1" xmlns="http://www.w3.org/2000/svg" xmlns:xlink="http://www.w3.org/1999/xlink" width="607.3249" height="458.95119" viewBox="0,0,607.3249,458.95119"><defs><radialGradient cx="240" cy="207" r="239.79295" gradientUnits="userSpaceOnUse" id="color-1"><stop offset="0" stop-color="#af4040" stop-opacity="0"/><stop offset="1" stop-color="#af4040"/></radialGradient></defs><g transform="translate(41.00347,34.80404)"><g data-paper-data="{&quot;isPaintingLayer&quot;:true}" fill-rule="nonzero" stroke-linecap="butt" stroke-linejoin="miter" stroke-miterlimit="10" stroke-dasharray="" stroke-dashoffset="0" style="mix-blend-mode: normal"><path d="M0.20705,355.33722v-296.67444h479.5859v296.67444z" fill="url(#color-1)" stroke="#404040" stroke-width="0.5"/><path d="M562.50001,382.85715v-7.14286h3.57143v7.14286z" fill="#ce0000" stroke="#404040" stroke-width="0.5"/><path d="M-38.21427,66.07143c-2.5,0 -2.5,-2.5 -2.5,-2.5c0,-4.48199 -0.67979,-9.64427 0.04511,-14.04419c0.22049,-1.33831 1.1227,-2.4818 1.48095,-3.78999c1.68364,-6.14798 2.49871,-13.07219 2.76182,-19.41257c0.28865,-6.95584 -0.36867,-15.64286 2.30889,-22.22616c2.48588,-6.11202 8.58992,-9.87565 13.52108,-13.81796c2.94285,-2.94743 6.16344,-6.88034 9.4509,-9.41199c6.32189,-4.86843 15.63262,-5.69416 23.1787,-6.99442c19.69187,-3.39312 40.55406,-2.08842 60.46684,-2.08842c34.28572,0 68.57142,0 102.85714,0c19.20262,0 38.48753,-0.58776 57.64001,-2.08615c14.62541,-1.14422 29.04058,-2.92905 43.71483,-3.59429c9.23134,-0.0121 18.6091,0.4623 27.82549,-0.03162c7.68797,-0.41201 15.39894,-1.22816 23.11787,-0.71168c16.6497,1.11404 32.92641,3.52971 49.6743,3.55461c14.35335,0.02143 28.67299,0.6756 43.02064,0.71838c4.99768,0.0149 9.99559,0.00335 14.9933,0.00721c3.34026,0.00258 7.38605,-0.20978 10.64951,0.71606c1.15878,0.32874 6.50039,3.09137 8.16403,3.75495c7.00504,2.79412 14.31521,4.98483 21.48307,7.31439c4.75517,1.54543 9.51085,3.0893 14.26551,4.63629c2.37706,0.77341 8.2049,2.46355 10.12561,4.00761c1.46789,1.18004 2.26762,3.00785 3.38659,4.5228c4.70024,6.36356 5.20204,13.70332 6.00153,21.38878c0.65225,6.27008 2.18904,12.54487 2.71238,18.78233c0.76088,9.06847 -0.00973,18.72704 -1.61911,27.64669c-3.11223,4.25489 -5.14673,8.80222 -8.02427,13.16783c-2.6349,3.99749 -5.13051,7.43176 -6.53826,12.17004c-1.34857,4.53911 -0.47767,4.70525 -0.95974,9.48704c-0.43994,4.36399 -1.58281,8.72955 -2.15494,13.0912c-0.84802,6.46501 -1.61357,13.92935 -4.45161,19.90752c-0.71089,1.49746 -1.15871,3.55933 -2.6964,4.17844c-2.80611,1.1298 -4.03564,0.6213 -4.9405,-0.42287c-0.07069,0.16663 -0.1403,0.33373 -0.20863,0.50137c-1.5931,3.90869 -1.97697,8.32777 -3.60207,12.2167c-0.54222,1.29756 -1.58105,2.34169 -2.16501,3.62102c-1.68471,3.69077 -2.41079,7.66802 -4.24404,11.33273c-2.19916,6.751 -5.61606,12.44369 -9.51855,18.29509c-1.5455,2.31733 -3.26909,5.74911 -5.35492,7.56543c-5.90236,5.13975 -14.25298,7.70229 -21.87829,4.82111c-2.22343,-0.84011 -4.10369,-2.468 -5.8406,-4.09053c-3.6779,-3.43571 -7.42955,-6.70004 -10.97459,-10.28421c-3.47679,-5.75645 -8.79843,-10.12354 -12.30122,-15.94136c-0.82383,-1.36832 -1.32331,-2.91482 -2.14285,-4.28572c-1.22989,-2.05731 -3.08103,-3.69796 -4.31061,-5.75545c-1.36081,-2.27706 -2.35359,-4.8177 -4.07655,-6.83469c-0.23635,-0.27668 -6.17291,-6.09292 -6.51432,-6.54812c-0.56118,-0.74824 -0.50312,-1.89357 -1.16824,-2.55115c-0.75088,-0.74236 -2.08742,-0.66528 -2.83715,-1.4088c-0.82265,-0.81584 -0.84392,-2.23215 -1.66173,-3.05284c-1.08594,-1.08975 -2.66968,-1.55067 -3.87649,-2.50483c-2.41145,-1.9066 -4.36253,-4.34508 -6.73368,-6.30156c-3.5513,-2.93023 -7.51919,-5.44554 -11.29011,-8.07699c-3.90508,-2.5577 -8.40862,-4.85246 -12.70971,-6.65291c-2.09188,-0.87566 -5.7595,-0.55815 -7.69479,-0.55555c-6.41363,0.00863 -13.38353,-0.73328 -19.75461,-0.01207c-2.66195,0.30133 -5.36975,0.50527 -7.93433,1.2797c-0.83646,0.25259 -1.35454,1.19026 -2.19311,1.43575c-1.82997,0.53571 -3.75523,0.69877 -5.65502,0.86176c-8.4941,0.72873 -17.35712,0.00629 -25.8915,0.00629c-6.93987,-0.0245 -15.41667,-0.50302 -22.15304,-2.25012c-0.98161,-0.25459 -1.71729,-1.16748 -2.70706,-1.38818c-1.07456,-0.23961 -2.20853,0.17196 -3.3025,0.04815c-5.36662,-0.60738 -10.2645,-3.45715 -15.21657,-5.22266c-3.17659,-1.13251 -6.5835,-1.56782 -9.7204,-2.80606c-9.11264,-3.59705 -17.78412,-8.69227 -27.3658,-10.8198c-5.58577,-5.29094 -13.10424,-8.78121 -19.95365,-12.11867c-2.54917,-1.24211 -5.45306,-1.65916 -7.9826,-2.94079c-1.45858,-0.73901 -2.61494,-1.99426 -4.07427,-2.73181c-5.42305,-2.74083 -12.17902,-2.16057 -17.82121,-4.26949c-0.7115,-0.26594 -1.11085,-1.1745 -1.85593,-1.32212c-2.33248,-0.46214 -4.75485,0.10727 -7.13268,0.10727c-5.4663,0 -10.93259,0.00005 -16.39889,-0.00017c-7.80398,0.18016 -16.12188,0.47797 -23.77909,2.08483c-2.41089,0.50592 -4.51726,1.98186 -6.8499,2.7738c-1.14532,0.38884 -2.45117,0.24058 -3.55195,0.74184c-1.45385,0.66204 -2.56805,1.91893 -3.9706,2.68369c-2.94983,1.60841 -5.91479,2.5666 -8.38665,5.04712c-3.2733,3.28478 -5.7182,7.42404 -8.80795,10.87266c-1.07479,1.19964 -2.41925,2.14999 -3.42733,3.40619c-1.73784,2.16557 -2.62178,4.92001 -4.28572,7.14285c-2.42081,3.23395 -4.28026,5.07881 -6.16301,8.86522c-3.39923,6.77536 -6.03286,13.9473 -8.44191,21.11923c-1.58138,4.70788 -3.91923,9.13213 -5.56717,13.84381c-2.91356,8.33022 -6.229,16.68918 -12.00791,23.36104c-1.29981,1.50065 -2.59788,4.78847 -3.34251,6.09841c-2.78659,4.90218 -6.84802,6.21371 -12.16227,6.24519c-1.19387,-0.03575 -2.44378,0.25601 -3.5816,-0.10727c-2.84453,-0.9082 -3.43991,-2.38771 -4.92709,-4.57741c-2.633,-3.87679 -4.43457,-7.71565 -5.38389,-12.39264c-0.20581,-1.01393 0.12135,-2.08521 -0.06356,-3.10315c-0.81835,-4.50495 -2.13549,-8.87672 -2.80541,-13.40135c-0.47027,-3.17621 -0.025,-6.42164 -0.02416,-9.63246c0.00114,-4.37601 -0.48171,-8.38294 -0.71172,-12.74386c-0.31929,-6.05353 -0.26761,-10.80481 -2.72889,-16.45802c-1.60062,-6.34808 -4.22597,-11.76185 -6.42857,-17.85714c-0.71764,-1.98592 -1.69062,-3.89047 -2.2068,-5.93802c-0.2206,-0.87507 0.27402,-1.83537 0.04039,-2.70706c-0.17335,-0.6468 -0.85895,-1.03512 -1.19811,-1.61251c-1.90579,-3.24441 -3.63997,-8.39537 -6.63509,-10.80919c-0.76657,-0.6178 -1.8688,-0.69473 -2.66441,-1.27466c-0.66783,-0.48679 -0.89052,-1.50836 -1.63779,-1.86127c-0.57568,-0.27187 -1.2643,0.16486 -1.90043,0.1903c-1.77232,0.07089 -3.54728,0.00975 -5.3212,0.001c-0.36946,0.40246 -0.94015,0.71328 -1.82166,0.71328z" fill="#820000" stroke="none" stroke-width="0.5"/><path d="M540.65882,364.09525c-0.11388,0.53143 -2.11604,9.93185 -2.22554,10.19983c-0.12058,0.29508 -5.2364,8.32916 -5.54351,8.82259c-1.02739,1.65069 -4.68358,8.02267 -6.20753,9.00228c-1.54572,0.99361 -3.57997,0.86836 -5.40458,1.08581c-3.92494,0.46778 -8.41469,0.00852 -12.34906,0.00852c-12.31917,0 -24.5902,0.73342 -36.89651,0.70212c-12.3245,2.50896 -24.47148,7.18312 -36.92431,8.92993c-4.15824,0.5833 -8.69799,0.04818 -12.80439,1.02806c-1.46299,0.3491 -2.8071,1.12513 -4.28048,1.42746c-5.03095,1.03233 -10.26696,0.45533 -15.35117,0.75042c-10.00885,0.58092 -19.89549,2.05262 -29.92345,2.476c-33.5706,1.41737 -67.3618,0.4003 -100.96255,0.4003c-14.52381,0 -29.04762,0 -43.57143,0c-7.92946,0 -16.1929,-0.67739 -24.09016,-0.00766c-4.52947,0.38412 -8.98007,1.69508 -13.50597,2.13686c-6.65305,0.64941 -13.42571,0.71 -20.10197,1.06138c-9.54693,0.48759 -19.55468,2.95263 -28.8319,5.30457c-8.19265,2.07698 -16.08964,5.72447 -24.58647,6.31967c-2.86487,0.20069 -5.7989,0.71127 -8.61446,0.14523c-4.16566,-0.83747 -8.19868,-3.30819 -12.32585,-4.32597c-3.17834,-0.78379 -6.51715,-0.68961 -9.73652,-1.2827c-4.90042,-0.90279 -9.73523,-2.43533 -14.54582,-3.71643c-6.39839,-1.60088 -12.6403,-4.28013 -19.06832,-5.65426c-6.38532,-1.365 -13.21027,-1.61467 -19.68097,-2.61409c-2.27069,-0.35071 -6.50323,-0.86276 -8.80777,-1.87846c-3.48726,-1.53697 -7.25863,-5.82979 -9.05838,-9.02143c-0.68822,-1.22048 0.0679,-3.56305 -1.26,-4.01018c-3.75451,-1.2642 -8.78156,-0.88923 -12.64892,-1.62383c-4.98099,-0.94612 -9.98992,-2.69234 -14.88227,-4.02466c-3.92915,-1.92769 -8.27775,-4.56153 -9.86431,-9.1018c-1.48574,-4.25176 -1.2801,-10.77118 -0.10099,-15.09828c0.33742,-1.23827 0.37704,-2.62786 1.0961,-3.69092c0.6501,-0.9611 1.86643,-1.37905 2.79965,-2.06858l1.09775,-0.73183c0.40064,-1.83089 2.43185,-1.83089 2.43185,-1.83089c3.63453,0.01168 6.89284,-1.05608 10.46795,-1.4164c1.14579,-0.11548 2.31876,0.20326 3.45474,0.01433c3.21005,-0.53388 5.92204,-2.83331 9.09923,-3.53679c3.53907,-0.7836 9.73409,-0.06114 13.40666,-0.06114c6.90476,0 13.80952,0 20.71429,0c6.18632,0 12.04147,0.29637 18.09638,-1.05918c12.00822,-0.82013 24.15391,-0.36939 36.18933,-0.36939c19.24417,0 38.48845,-0.01875 57.73261,0.00311c5.43546,-0.54506 10.94462,-0.16258 16.3469,-0.70887c25.61182,-2.58998 51.57727,-2.15138 77.34906,-2.15138c30.71428,0 61.42857,0 92.14285,0c18.80953,0 37.61905,0 56.42858,0c13.14882,0 26.34463,-0.43582 39.38314,1.4233c5.69295,0.01846 10.98329,1.70214 16.57749,2.16029c7.72807,0.63292 15.14476,1.9333 22.82947,3.07822c8.74142,1.30236 17.99904,0.95177 26.65925,2.66461c9.31268,1.84189 18.17165,4.55133 27.65201,5.68553c1.64427,0.1263 3.28854,0.25259 4.9328,0.37889l4.30044,0.3308c0,0 2.07371,0.15951 2.29276,2.079c0.98736,0.90507 0.67429,2.36603 0.67429,2.36603z" fill="#820000" stroke="none" stroke-width="0.5"/><text transform="translate(111.07143,55.04) scale(1.01076,1.01076)" font-size="40" xml:space="preserve" fill="#ff0000" fill-rule="nonzero" stroke="#000000" stroke-width="1" stroke-linecap="butt" stroke-linejoin="miter" stroke-miterlimit="10" stroke-dasharray="" stroke-dashoffset="0" font-family="Pixel" font-weight="normal" text-anchor="start" style="mix-blend-mode: normal"><tspan x="0" dy="0">Game over</tspan></text><text transform="translate(4.64286,21.64714) scale(0.5,0.5)" font-size="40" xml:space="preserve" fill="#ff0000" fill-rule="nonzero" stroke="#000000" stroke-width="1" stroke-linecap="butt" stroke-linejoin="miter" stroke-miterlimit="10" stroke-dasharray="" stroke-dashoffset="0" font-family="Pixel" font-weight="normal" text-anchor="start" style="mix-blend-mode: normal"><tspan x="0" dy="0">You died...</tspan></text></g></g></svg>