<svg version="1.1" xmlns="http://www.w3.org/2000/svg" xmlns:xlink="http://www.w3.org/1999/xlink" width="122.46291" height="105.18197" viewBox="0,0,122.46291,105.18197"><defs><linearGradient x1="247.31882" y1="214.22845" x2="247.31882" y2="218.75946" gradientUnits="userSpaceOnUse" id="color-1"><stop offset="0" stop-color="#ffbc00"/><stop offset="1" stop-color="#ff0076"/></linearGradient><linearGradient x1="240.70778" y1="134.04031" x2="240.70778" y2="196.46397" gradientUnits="userSpaceOnUse" id="color-2"><stop offset="0" stop-color="#c2c2c2"/><stop offset="1" stop-color="#c20000"/></linearGradient><linearGradient x1="240.70778" y1="134.04031" x2="240.70778" y2="196.46397" gradientUnits="userSpaceOnUse" id="color-3"><stop offset="0" stop-color="#c2c2c2"/><stop offset="1" stop-color="#c20000"/></linearGradient><linearGradient x1="240.70778" y1="134.04031" x2="240.70778" y2="196.46397" gradientUnits="userSpaceOnUse" id="color-4"><stop offset="0" stop-color="#c2c2c2"/><stop offset="1" stop-color="#c20000"/></linearGradient><linearGradient x1="240.70778" y1="134.04031" x2="240.70778" y2="196.46397" gradientUnits="userSpaceOnUse" id="color-5"><stop offset="0" stop-color="#c2c2c2"/><stop offset="1" stop-color="#c20000"/></linearGradient><linearGradient x1="240.70778" y1="134.04031" x2="240.70778" y2="196.46397" gradientUnits="userSpaceOnUse" id="color-6"><stop offset="0" stop-color="#c2c2c2"/><stop offset="1" stop-color="#c20000"/></linearGradient><linearGradient x1="240.70778" y1="134.04031" x2="240.70778" y2="196.46397" gradientUnits="userSpaceOnUse" id="color-7"><stop offset="0" stop-color="#c2c2c2"/><stop offset="1" stop-color="#c20000"/></linearGradient><radialGradient cx="239.8784" cy="139.27109" r="18.24325" gradientUnits="userSpaceOnUse" id="color-8"><stop offset="0" stop-color="#3bd9e4"/><stop offset="1" stop-color="#ffffff"/></radialGradient><linearGradient x1="188.43245" y1="134.64947" x2="188.43245" y2="173.81163" gradientUnits="userSpaceOnUse" id="color-9"><stop offset="0" stop-color="#c2c2c2"/><stop offset="1" stop-color="#c20000"/></linearGradient><linearGradient x1="301.90542" y1="134.16298" x2="301.90542" y2="164.81163" gradientUnits="userSpaceOnUse" id="color-10"><stop offset="0" stop-color="#c2c2c2"/><stop offset="1" stop-color="#c20000"/></linearGradient><linearGradient x1="241.00661" y1="159.94677" x2="241.00661" y2="195.94677" gradientUnits="userSpaceOnUse" id="color-11"><stop offset="0" stop-color="#c20000"/><stop offset="1" stop-color="#c2c2c2"/></linearGradient><linearGradient x1="241.00661" y1="159.94677" x2="241.00661" y2="195.94677" gradientUnits="userSpaceOnUse" id="color-12"><stop offset="0" stop-color="#c20000"/><stop offset="1" stop-color="#c2c2c2"/></linearGradient><linearGradient x1="240.7938" y1="209.73765" x2="240.7938" y2="225.9597" gradientUnits="userSpaceOnUse" id="color-13"><stop offset="0" stop-color="#ffbc00"/><stop offset="1" stop-color="#ff0076"/></linearGradient><linearGradient x1="240.90935" y1="207.39938" x2="240.90935" y2="224.05378" gradientUnits="userSpaceOnUse" id="color-14"><stop offset="0" stop-color="#ffbc00"/><stop offset="1" stop-color="#ff0076"/></linearGradient></defs><g transform="translate(-178.7172,-120.77772)"><g data-paper-data="{&quot;isPaintingLayer&quot;:true}" fill-rule="nonzero" stroke-linejoin="miter" stroke-miterlimit="10" stroke-dasharray="" stroke-dashoffset="0" style="mix-blend-mode: normal"><path d="" fill="#9966ff" stroke="#000000" stroke-width="2" stroke-linecap="butt"/><path d="" fill="#ff6666" stroke="#000000" stroke-width="2" stroke-linecap="butt"/><path d="" fill="#ffbc00" stroke="none" stroke-width="0.5" stroke-linecap="butt"/><path d="M271.40623,219.34754c0,0.13807 -0.11193,0.25 -0.25,0.25c-0.04424,0 -0.08579,-0.01149 -0.12184,-0.03165c0.07801,-0.15143 0.144,-0.30376 0.19928,-0.45613c0.10017,0.0326 0.17256,0.12673 0.17256,0.23778z" fill="#ffbc00" stroke="none" stroke-width="0.5" stroke-linecap="butt"/><path d="" fill="#ffbc00" stroke="none" stroke-width="0.5" stroke-linecap="butt"/><path d="" data-paper-data="{&quot;noHover&quot;:false,&quot;origItem&quot;:[&quot;Path&quot;,{&quot;applyMatrix&quot;:true,&quot;segments&quot;:[[[487.05805,431.4142],[-1.40526,-2.70442],[0.06638,-1.62183]],[[488.5493,426.96115],[-0.73111,0.99723],[-0.56147,-0.82214]],[[486.77676,424.26943],[0.61221,0.98893],[-0.95298,-0.44453]],[[484.33183,422.54174],[0.68232,0.69441],[-0.53529,2.7505]]],&quot;closed&quot;:true}]}" fill="url(#color-1)" stroke="none" stroke-width="0.5" stroke-linecap="butt"/><path d="" fill="#ffbc00" stroke="none" stroke-width="0.5" stroke-linecap="butt"/><path d="" fill="#ffbc00" stroke="none" stroke-width="0.5" stroke-linecap="butt"/><g stroke-width="0.5" stroke-linecap="butt"><path d="M203.85643,134.04031h73.7027v45.44551c-0.19234,0.05115 -0.3543,0.17682 -0.45309,0.34421c-0.73233,0.41848 -1.8011,4.31605 -2.55048,5.25636c-0.81302,1.02017 -2.06961,2.15088 -3.17098,2.8439c-0.5754,0.36205 -2.67959,1.31723 -3.34934,2.18858c-1.04409,0.39406 -4.38759,1.39454 -5.1576,2.29416c-1.24943,0.27682 -2.50434,0.51808 -3.57289,0.84983c-1.83815,0.57068 -4.58985,1.44633 -6.89557,1.84297c-0.17287,0.02327 -0.34954,0.05163 -0.52608,0.08303c-0.53057,0.07568 -1.02992,0.12078 -1.47968,0.12472c-0.53017,0.00465 -1.87383,-0.23871 -2.70692,0.04514c-0.88418,-0.16773 -4.00932,0.22725 -4.33282,0.2407c-1.27079,0.05286 -4.69025,-0.68527 -5.43374,0.05822c-0.01112,0.01112 -0.02231,0.02242 -0.03352,0.03391c-2.66368,-0.23096 -6.26397,-0.23345 -7.28459,-0.28062c-1.51382,-0.06996 -5.27908,-1.78564 -7.51422,-1.90505c-0.51451,-0.95193 -3.51979,-1.27351 -4.01119,-1.39631c-1.26623,-0.31643 -2.8899,-0.844 -4.54086,-1.54144c-0.70773,-0.47949 -1.4496,-0.93204 -2.31164,-1.27391c-0.71789,-0.2847 -2.934,-2.26699 -4.6842,-3.49704c-0.01208,-0.01725 -0.02403,-0.03452 -0.03587,-0.05182c-0.00895,-0.05383 -0.02007,-0.11084 -0.03347,-0.17114c-0.27239,-1.22575 -2.30508,-1.95863 -2.6171,-3.36274l-0.00405,-0.0081c-0.22033,-0.51409 -0.54278,-1.84467 -1.0028,-2.78734z" fill="url(#color-2)" stroke="#000000"/><path d="" fill="url(#color-3)" stroke="#000000"/><path d="" fill="url(#color-4)" stroke="#000000"/><path d="" fill="url(#color-5)" stroke="#000000"/><path d="" fill="url(#color-6)" stroke="#000000"/><path d="" fill="url(#color-7)" stroke="#000000"/><path d="M259.0946,137.81163c0,4.29887 -9.5692,12.40541 -18.97297,12.40541c-9.40376,0 -17.51352,-7.37681 -17.51352,-11.67568c0,-4.29887 8.10975,-3.8919 17.51352,-3.8919c9.40377,0 18.97297,-1.1367 18.97297,3.16217z" fill="url(#color-8)" stroke="#ffffff"/><path d="M179.31083,194.24407l10.45946,-26.02703c0,0 4.88399,-7.96467 6.52327,-10.20005c2.47,-3.36818 8.07131,-23.36752 8.07131,-23.36752v39.16216z" fill="url(#color-9)" stroke="#000000"/><path d="M277.82433,171.86569v-37.70271c0,0 4.61831,16.93849 8.45051,21.74829c4.09615,5.14109 6.87381,11.08955 6.87381,11.08955l7.54054,25.78378z" fill="url(#color-10)" stroke="#000000"/><path d="M277.82433,177.94677c0,0.51059 -0.04348,1.01621 -0.12874,1.51603c-0.25135,0.01882 -0.46816,0.16152 -0.58956,0.36723c-0.73233,0.41848 -1.8011,4.31605 -2.55048,5.25636c-0.81302,1.02017 -2.06961,2.15088 -3.17098,2.8439c-0.5754,0.36205 -2.67959,1.31723 -3.34934,2.18858c-1.04409,0.39406 -4.38759,1.39454 -5.1576,2.29416c-1.24943,0.27682 -2.50434,0.51808 -3.57289,0.84983c-1.51061,0.46899 -3.63821,1.14395 -5.62821,1.58975c-0.93063,0.16675 -1.87886,0.31566 -2.84296,0.44588c-0.14775,0.00875 -0.29132,0.01388 -0.43016,0.0151c-0.53017,0.00465 -1.87383,-0.23871 -2.70692,0.04514c-0.88418,-0.16773 -4.00932,0.22725 -4.33282,0.2407c-1.27079,0.05286 -4.69025,-0.68527 -5.43374,0.05822c-0.01112,0.01112 -0.02231,0.02242 -0.03352,0.03391c-1.7545,-0.15213 -3.91536,-0.20514 -5.47772,-0.23708c-1.42584,-0.16656 -2.81948,-0.37367 -4.17552,-0.6187c-1.68598,-0.53319 -3.72486,-1.25401 -5.14557,-1.32989c-0.51451,-0.95193 -3.51979,-1.27351 -4.01119,-1.39631c-0.93688,-0.23412 -2.06944,-0.58384 -3.26395,-1.03243c-0.77962,-0.35755 -1.52738,-0.7315 -2.24098,-1.12074c-0.13869,-0.08076 -0.27981,-0.15936 -0.4239,-0.23529c-2.33997,-1.3217 -4.29288,-2.81167 -5.77259,-4.42782c-0.17473,-0.38235 -0.51225,-0.72077 -0.88636,-1.05743c-1.49343,-1.95777 -2.30976,-4.07683 -2.30976,-6.28911c0,-9.94112 16.48386,-18 36.81774,-18c20.33388,0 36.81773,8.05888 36.81773,18z" fill="url(#color-11)" stroke="url(#color-12)"/></g><path d="M201.77366,196.67254l9.05277,-14.18865c0,0 1.51052,-0.50873 3.51938,-0.33799c1.76921,0.15038 3.99574,0.93325 4.92602,1.57779c1.01934,0.70625 2.95791,2.23036 3.84367,4.02417c1.06533,2.15746 0.98688,4.56601 0.98688,4.56601l-9.21797,13.31194c0,0 -0.25674,-2.42245 -1.7357,-4.52614c-0.76034,-1.08151 -1.8931,-2.91732 -2.63748,-3.42566c-0.81298,-0.55517 -2.63526,-1.15779 -3.98157,-1.43229c-2.26025,-0.46085 -4.756,0.43082 -4.756,0.43082z" fill="#9086a5" stroke="none" stroke-width="0.5" stroke-linecap="butt"/><path d="M210.75263,196.94764l8.41962,-12.32932" fill="none" stroke="#000000" stroke-width="1.5" stroke-linecap="round"/><path d="M202.86847,195.25579l8.28196,-13.05992" fill="none" stroke="#000000" stroke-width="1.5" stroke-linecap="round"/><path d="M224.07907,191.78868l-8.83045,12.55803" fill="none" stroke="#000000" stroke-width="1.5" stroke-linecap="round"/><path d="M233.07425,210.81342l-0.5257,-16.82244c0,0 0.96051,-1.27196 2.71574,-2.26385c1.54584,-0.87355 3.82604,-1.48268 4.95775,-1.47503c1.24007,0.00838 3.70048,0.17377 5.44356,1.1556c2.09645,1.18087 3.38996,3.21412 3.38996,3.21412l-0.10514,16.1916c0,0 -1.57814,-1.85571 -3.98585,-2.7589c-1.23781,-0.46434 -3.20855,-1.34157 -4.10995,-1.34157c-0.98445,0 -2.82916,0.53002 -4.09576,1.06258c-2.12643,0.89408 -3.68461,3.03789 -3.68461,3.03789z" fill="#9086a5" stroke="none" stroke-width="0.5" stroke-linecap="butt"/><path d="M240.64434,205.97697v-14.92991" fill="none" stroke="#000000" stroke-width="1.5" stroke-linecap="round"/><path d="M232.65369,193.57043l0.5257,15.45561" fill="none" stroke="#000000" stroke-width="1.5" stroke-linecap="round"/><path d="M248.52985,209.55174l0.21028,-15.35047" fill="none" stroke="#000000" stroke-width="1.5" stroke-linecap="round"/><path d="M244.01057,217.54346c0.0277,-0.11081 0.09337,-0.15834 0.15653,-0.17728c0.33816,-0.48421 0.71229,-0.99294 1.10843,-1.55666c0.54702,-0.28787 0.99414,-0.65056 1.35458,-1.0692c-0.00499,-0.00972 -0.01005,-0.01942 -0.01521,-0.02909c0,0 -0.1118,-0.2236 0.1118,-0.33541c0.0803,-0.04015 0.14618,-0.03705 0.19765,-0.01657c0.71475,-1.03401 0.99179,-2.33467 0.99179,-3.67287c0,0 0,-0.25 0.25,-0.25c0.25,0 0.25,0.25 0.25,0.25c0,1.45296 -0.32839,3.02365 -1.20324,4.18719c0.63118,2.04464 -1.13895,4.46704 -1.81196,6.15747l-0.06553,0.26215c-0.02527,0.11133 -0.12483,0.19444 -0.24381,0.19444c-0.13807,0 -0.25,-0.11193 -0.25,-0.25v-0.48913h0.08018c-0.09913,-0.96911 0.05053,-1.93971 -0.48562,-2.80134c-1.07783,1.59349 -1.78157,2.84884 -1.31505,5.4147c0.09303,0.51306 0.18407,1.74325 0.66353,2.04289l0.24451,0.06113c0.11133,0.02527 0.19444,0.12483 0.19444,0.24381c0,0.13807 -0.11193,0.25 -0.25,0.25h-0.2795v-0.06218l-0.06063,-0.01515l0.01046,-0.04187c-0.01015,-0.00032 -0.02033,-0.00073 -0.03053,-0.00124l-0.02044,0.0292c-0.01575,-0.01097 -0.03121,-0.02225 -0.04637,-0.03382c-1.6737,-0.14817 -3.84207,-2.73046 -3.94378,-4.07731c-0.05326,-0.21305 -0.16928,-1.65754 -0.20061,-2.41821c-0.08313,0.19707 -0.19439,0.4012 -0.21711,0.49178c-0.16506,0.65816 -0.19987,1.23678 -0.20404,1.92643c-0.1266,0.50637 -0.3973,1.84611 -0.21893,2.28995l0.21751,0.10876c0.08456,0.04008 0.14304,0.12623 0.14304,0.22603c0,0.13807 -0.11193,0.25 -0.25,0.25c-0.04199,0 -0.08156,-0.01036 -0.1163,-0.02865l-0.27501,-0.1375l0.01095,-0.0219l-0.07592,-0.02493c-0.0454,-0.08779 -0.0804,-0.18961 -0.10653,-0.30186c-0.96765,-0.67584 -2.47619,-4.39672 -2.48222,-5.39511c0,-2.33272 -0.09915,-3.44046 -1.3243,-5.34341c-1.41269,-0.89374 -1.33099,-1.69488 -1.33099,-3.32118v-0.06987c0,0 0,-0.25 0.25,-0.25c0.25,0 0.25,0.25 0.25,0.25v0.06987c0,1.60343 -0.09893,2.08177 1.18454,2.96764c1.36628,1.9921 1.47074,3.2528 1.47074,5.69696c-0.01273,1.69057 1.06484,3.11526 1.92403,4.50689c0.02536,-0.55033 0.13325,-1.1333 0.23312,-1.53277c-0.00452,-0.59944 0.31834,-3.90003 1.22111,-3.04825c0.49272,0.46489 0.23115,2.40024 0.39315,3.04825c-0.1792,1.24229 1.67485,2.25548 2.80091,3.07955c-0.13378,-0.44165 -0.19742,-0.92209 -0.27077,-1.32447c-0.48228,-2.65252 0.19476,-4.12181 1.37189,-5.84492c0.00084,-0.01948 0.00386,-0.04042 0.00949,-0.06293zM245.46577,219.75677c0.70263,-1.35221 1.63075,-3.06098 1.36311,-4.43623c-0.34116,0.3472 -0.74597,0.64158 -1.22246,0.86384c-0.30611,0.49447 -0.60554,0.93479 -0.88627,1.34586c0.36556,0.49862 0.71244,1.41562 0.74563,2.22653z" data-paper-data="{&quot;index&quot;:null}" fill="url(#color-13)" stroke="none" stroke-width="0.5" stroke-linecap="butt"/><path d="M245.45837,219.80622c-0.03319,-0.81091 -0.42266,-1.77775 -0.78822,-2.27637c0.28073,-0.41107 0.62315,-0.90051 0.92926,-1.39498c0.47649,-0.22226 0.90938,-0.51248 1.25054,-0.85968c0.26764,1.37525 -0.68896,3.17881 -1.39159,4.53102z" data-paper-data="{&quot;noHover&quot;:false,&quot;origItem&quot;:[&quot;Path&quot;,{&quot;applyMatrix&quot;:true,&quot;segments&quot;:[[[245.46576,219.75677],[0,0],[0.70263,-1.35221]],[[246.82887,215.32054],[0.26764,1.37525],[-0.34116,0.3472]],[[245.60641,216.18438],[0.47649,-0.22226],[-0.30611,0.49447]],[[244.72014,217.53024],[0.28073,-0.41107],[0.36556,0.49862]],[[245.46577,219.75677],[-0.03319,-0.81091],[0,0]]],&quot;closed&quot;:true,&quot;fillColor&quot;:[0,0,0,1]}]}" fill="#ffa80d" stroke="none" stroke-width="0.5" stroke-linecap="butt"/><path d="M241.94453,206.77579c0.58209,0 0.88237,0.0042 1.23889,0.51471l0.08445,0.16544c1.70515,0.24813 3.46527,1.17271 4.94573,2.04472c0,0 0.21437,0.12863 0.08574,0.343c-0.12862,0.21437 -0.34299,0.08575 -0.34299,0.08575c-1.42142,-0.86531 -3.15953,-1.7514 -4.80898,-1.98681c-0.84966,-0.24139 -1.63222,-0.74183 -2.49317,-0.84861l-0.00858,0.00015l-0.14482,0.13431c-0.89922,0.11154 -2.37674,0.21255 -3.15798,0.69677c-1.67697,0.55899 -2.61897,2.50079 -3.93519,2.97142c0,0 -0.24039,0.06868 -0.30907,-0.1717c-0.06868,-0.24038 0.17171,-0.30906 0.17171,-0.30906c0.35751,-0.05091 0.63776,-0.87498 0.91528,-1.18355c0.67873,-0.75464 1.98832,-1.44136 2.94833,-1.76137c0.83234,-0.48571 2.16253,-0.5744 3.13925,-0.71405c0.04494,-0.14096 0.194,-0.15806 0.22949,-0.16013c0.03048,-0.00746 0.06482,-0.00872 0.10243,0.00082l0.11984,0.0014c0.34972,0.05479 0.68115,0.16037 1.00783,0.28354c0.07002,-0.10677 0.21179,-0.10677 0.21179,-0.10677z" fill="#ffbc00" stroke="none" stroke-width="0.5" stroke-linecap="butt"/><path d="M245.70576,216.9209c-0.13607,-0.29395 -0.24595,-0.59176 -0.41285,-0.88187c-0.09204,0.07029 -0.18326,0.14164 -0.27253,0.21504c0.16313,0.14309 0.03134,0.32758 0.03134,0.32758l-0.16178,0.20859c-0.64562,0.50006 -1.69916,1.90459 -1.67038,2.75495c0,0 0,0.25 -0.25,0.25c-0.07366,0 -0.12562,-0.02171 -0.16227,-0.05233c-0.1353,0.58277 -0.1913,1.20237 -0.18225,1.87579c0,0.79471 0.7324,1.86645 0.53684,2.57509c-0.03358,0.12171 -0.08375,0.21081 -0.14721,0.27205c0.04272,0.09274 0.10293,0.17883 0.17641,0.24805l0.02449,-0.0021c0,0 0.22361,0.11181 0.1118,0.33541c-0.11181,0.22361 -0.33541,0.11181 -0.33541,0.11181l-0.15444,-0.09157c-0.14119,-0.14675 -0.25339,-0.32626 -0.32656,-0.51629c0,0 -0.00168,-0.00458 -0.00391,-0.01272c-0.63181,-0.18776 -1.51591,-1.071 -1.88844,-1.55929c-0.07088,-0.03234 -0.1128,-0.09222 -0.1128,-0.09222c-0.2618,-0.37529 -0.44849,-0.58604 -0.49164,-1.06197l-0.07245,-0.15157c0,0 -0.07312,-0.18282 0.07265,-0.28886c-0.28358,-1.06599 -0.50869,-2.3686 -0.26863,-2.79646c-0.28086,-0.17228 -0.53864,0.22798 -0.74978,0.78833c-0.16033,0.64131 -0.02718,3.41703 -0.44931,3.75829c-0.62679,0.50671 -1.43162,-1.02494 -1.54275,-1.48168c-0.82904,-1.29233 -1.17289,-3.85087 -1.1941,-5.42921c0,-2.10756 -2.38011,-3.22998 -2.38011,-4.9189c0,-2.8114 1.77573,-2.33833 3.84451,-3.37622c1.99563,-0.50988 3.53183,-1.29461 5.62877,-0.82623c0.52099,0.25662 1.02144,0.55838 1.51107,0.87757c0.00139,-0.03788 0.01317,-0.08019 0.04096,-0.12651c0.12863,-0.21437 0.343,-0.08575 0.343,-0.08575c0.33623,0.20378 0.67577,0.42769 0.98659,0.66564l0.16922,0.09063c0,0 0.21854,0.12141 0.09713,0.33995c-0.04304,0.07746 -0.09828,0.11221 -0.15166,0.1248c0.67451,0.45996 1.34737,0.89786 2.04596,1.23567c1.11156,0.6401 -0.2755,3.69078 -1.25141,4.58413c-0.03184,0.04266 -0.06491,0.08428 -0.09911,0.12499c0.00209,0.01641 0.00208,0.0267 0.00208,0.0267c0,0.76075 -0.00526,1.35057 -0.26636,2.06697l-0.01047,0.01081l0.00442,0.00221l-0.10941,0.21882c-0.04008,0.08456 -0.12622,0.14304 -0.22602,0.14304c-0.11446,0 -0.21096,-0.07692 -0.24061,-0.18188l-0.0878,-0.28535l0.04522,-0.01391zM246.09504,215.42194c-0.12898,0.10801 -0.26353,0.21181 -0.39991,0.31468c0.08432,0.14077 0.22682,0.36972 0.31662,0.59449c0.06118,-0.30192 0.07848,-0.59352 0.08329,-0.90917zM246.25058,214.51008c0,-0.25 0.25,-0.25 0.25,-0.25l0.01005,0.01252c0.7023,-0.87353 1.80243,-3.39387 1.21101,-3.60097c-1.69825,-0.87039 -3.20902,-2.19309 -4.98594,-3.09803c-1.97732,-0.43605 -3.40246,0.36533 -5.28802,0.82398c-1.90388,0.94879 -3.51798,0.41291 -3.51798,2.90728c0,1.5269 2.38011,2.82881 2.38011,4.9189c-0.02899,1.51208 0.38849,3.98336 1.15428,5.23369c0.79538,3.1054 0.80067,-1.21448 1.05449,-2.22974c0.37394,-1.0015 1.06911,-1.45313 1.63018,-0.92487c0.26963,-0.02203 0.44211,0.31478 0.3879,0.58521c0.02939,0.06587 0.05779,0.13607 0.08509,0.21071l-0.01823,0.04257l0.00019,0.00204h0.02205v0.25387c0,0.13807 -0.11193,0.25 -0.25,0.25c-0.13131,0 -0.23898,-0.10124 -0.24921,-0.22991l-0.02068,-0.2275c-0.44203,-0.48009 0.47626,2.75402 0.83354,3.37954c0.29054,0.47645 0.80389,0.9569 1.29246,1.20526c0.07772,0.03951 0.19772,0.13446 0.30442,0.23009c-0.27664,-0.59347 -0.41124,-2.02563 -0.41124,-2.38604c0.04094,-2.13609 0.5633,-3.77458 2.16772,-5.38129c0.54485,-0.54214 1.28434,-0.93353 1.79395,-1.47758c-0.00218,-0.14025 0.13547,-0.21533 0.13547,-0.21533c0.00939,-0.00483 0.019,-0.01036 0.02883,-0.01658c-0.00029,-0.0058 -0.00044,-0.01174 -0.00044,-0.01783z" data-paper-data="{&quot;index&quot;:null}" fill="#ffbc00" stroke="none" stroke-width="0.5" stroke-linecap="butt"/><path d="M246.54894,214.2474c0,0 -0.24961,0.00158 -0.24961,0.25158c0,0.00609 0.00018,0.01219 0.00047,0.01799c-0.00983,0.00622 -0.01942,0.01183 -0.02881,0.01666c0,0 -0.1373,0.07676 -0.13512,0.21701c-0.50962,0.54404 -1.24882,0.95208 -1.79367,1.49422c-1.60442,1.60671 -2.16612,3.2867 -2.20706,5.42279c0,0.36041 0.13415,1.79265 0.41078,2.38613c-0.1067,-0.09563 -0.22824,-0.19031 -0.30596,-0.22981c-0.48857,-0.24836 -1.0098,-0.72815 -1.30034,-1.2046c-0.35728,-0.62552 -1.2871,-3.86093 -0.84507,-3.38083l0.04237,0.12988c0.01024,0.12868 0.11428,0.22928 0.24558,0.22928c0.13807,0 0.24711,-0.11224 0.24711,-0.25031l-0.008,-0.1542l-0.02236,-0.00002l0.00874,-0.10164l0.0095,0.05704c-0.0273,-0.07464 -0.05731,-0.14499 -0.08669,-0.21087c0.05421,-0.27043 -0.12657,-0.60894 -0.3962,-0.58691c-0.56107,-0.52826 -1.21388,-0.16587 -1.58782,0.83563c-0.25381,1.01526 -0.31307,5.41927 -1.10844,2.31387c-0.76579,-1.25033 -1.20722,-3.75908 -1.17823,-5.27116c0,-2.09009 -2.37264,-3.42414 -2.37264,-4.95103c0,-2.49438 1.63498,-1.97695 3.53886,-2.92574c1.88555,-0.45865 3.34297,-1.26361 5.32029,-0.82756c1.77691,0.90494 3.31692,2.24663 5.01517,3.11702c0.59142,0.2071 -0.50046,2.74467 -1.20276,3.6182l-0.01008,-0.01263z" data-paper-data="{&quot;noHover&quot;:false,&quot;origItem&quot;:[&quot;Path&quot;,{&quot;applyMatrix&quot;:true,&quot;segments&quot;:[[[485.48845,420.9208],[0,-0.5],[0,0.01218]],[[485.48758,420.95646],[0.00058,-0.01159],[0.01965,0.01244]],[[485.54523,420.98961],[-0.01877,-0.00965],[0,0]],[[485.81616,421.42027],[0.00436,-0.2805],[1.01922,1.0881]],[[489.40407,424.37543],[-1.0897,-1.08427],[3.20885,3.21341]],[[493.73951,435.13801],[-0.08189,-4.27218],[0,0.72083]],[[492.91704,439.9101],[0.55326,-1.18695],[0.2134,-0.19125]],[[493.52588,439.44992],[-0.15543,0.07901],[0.97714,-0.49672]],[[496.11079,437.0394],[-0.58108,0.95291],[0.71456,-1.25104]],[[497.77787,430.28033],[0.88405,-0.9602],[0,0]],[[497.73651,430.73532],[0,0],[-0.02047,0.25735]],[[497.2381,431.19513],[0.26261,0],[-0.27614,0]],[[496.7381,430.69513],[0,0.27614],[0,0]],[496.7381,430.18738],[496.7822,430.18738],[496.78257,430.18331],[[496.74612,430.09816],[0,0],[0.0546,-0.14928]],[[496.9163,429.67674],[-0.05877,0.13175],[-0.10842,-0.54086]],[[497.69209,428.50633],[-0.53926,-0.04407],[1.12213,-1.05652]],[[500.95244,430.35607],[-0.74788,-2.00299],[0.50763,2.03052]],[[503.06142,434.81554],[-1.59075,6.2108],[1.53157,-2.50066]],[[505.36998,424.34817],[0.05797,3.02416],[0,-4.18019]],[[510.1302,414.51037],[0,3.05379],[0,-4.98874]],[[503.09425,408.69581],[3.80776,1.89758],[-3.77112,-0.91731]],[[492.51822,407.04784],[3.95463,-0.87209],[-3.55383,1.80989]],[[482.54633,413.2439],[3.39651,-1.74078],[-1.18283,0.41419]],[[484.96835,420.44583],[-1.4046,-1.74705],[0,0]],[484.98845,420.4208]],&quot;closed&quot;:true}],&quot;index&quot;:null}" fill="url(#color-14)" stroke="none" stroke-width="0.5" stroke-linecap="butt"/><path d="M245.81003,210.88568c0.25,0 0.25,0.25 0.25,0.25l-0.02815,0.03938c0.00397,0.01783 0.00493,0.02931 0.00493,0.02931c0.11123,1.38454 -2.01474,3.51981 -3.07046,4.31393c-0.2698,0.35157 -0.375,0.71372 -0.46703,1.14458l-0.04343,0.23888c-0.01932,0.11884 -0.12245,0.20956 -0.24675,0.20956c-0.13807,0 -0.25,-0.11193 -0.25,-0.25v-0.35785h0.04178c-0.18111,-0.66983 -0.39137,-1.48902 -0.88921,-1.76773c-0.95381,-0.53397 -1.79845,1.00515 -2.37198,1.3609c-0.09368,0.09368 -0.45552,0.45781 -0.47211,0.45548c-0.48465,-0.06792 -0.57347,-1.49074 -0.66351,-1.87157c-0.41967,-1.77506 -1.09192,-3.05003 1.29376,-3.50302c2.20078,-0.00678 4.59594,0.27373 6.74617,-0.23635c0.03682,-0.03229 0.08979,-0.05551 0.16599,-0.05551zM238.94486,211.67531c-0.35798,0.06845 -1.21414,0.21613 -1.38014,0.60635c-0.44526,1.04667 0.80171,3.48647 0.86731,3.42087c0.9127,-0.52572 1.24791,-1.62521 2.57191,-1.50548c0.45003,0.04069 1.05033,0.79833 1.29761,1.46639c0.08273,-0.16901 0.1843,-0.3333 0.31341,-0.50086c0.83994,-0.62807 2.76502,-2.4773 2.91756,-3.68429c-2.11371,0.44542 -4.44129,0.20463 -6.58766,0.19702z" data-paper-data="{&quot;index&quot;:null}" fill="#ffbc00" stroke="none" stroke-width="0.5" stroke-linecap="butt"/><path d="M267.63056,206.28652l-8.84398,-14.31973c0,0 0.19833,-1.5815 1.2252,-3.3165c0.90437,-1.52802 2.57713,-3.19301 3.56193,-3.7507c1.07908,-0.61108 3.29426,-1.69458 5.29475,-1.71268c2.40605,-0.02177 4.54113,1.09568 4.54113,1.09568l7.98261,14.08747c0,0 -2.29328,-0.82163 -4.83067,-0.40395c-1.30448,0.21473 -3.45016,0.43702 -4.2315,0.88649c-0.85334,0.49089 -2.18805,1.87016 -3.02041,2.96336c-1.39739,1.83532 -1.67905,4.47056 -1.67905,4.47056z" fill="#9086a5" stroke="none" stroke-width="0.5" stroke-linecap="butt"/><path d="M264.33614,185.3781l7.44462,12.9414" fill="none" stroke="#000000" stroke-width="1.5" stroke-linecap="round"/><path d="M266.83044,204.68477l-8.16243,-13.13495" fill="none" stroke="#000000" stroke-width="1.5" stroke-linecap="round"/><path d="M280.39851,197.48612l-7.47205,-13.4108" fill="none" stroke="#000000" stroke-width="1.5" stroke-linecap="round"/><path d="M273.30609,198.3636c0.50456,-0.29025 0.76695,-0.43634 1.33054,-0.1716l0.15569,0.10129c1.60177,-0.63517 3.58849,-0.7114 5.30658,-0.69374c0,0 0.24996,0.0046 0.24536,0.25456c-0.0046,0.24996 -0.25455,0.24536 -0.25455,0.24536c-1.66358,-0.04128 -3.61203,0.05733 -5.15917,0.67575c-0.85685,0.21444 -1.78473,0.17086 -2.58426,0.50761l-0.00736,0.00441l-0.05856,0.18864c-0.72384,0.54506 -1.9542,1.36938 -2.38993,2.17866c-1.17489,1.32074 -1.02316,3.47363 -1.9294,4.53789c0,0 -0.17412,0.1794 -0.35352,0.00528c-0.1794,-0.17412 -0.00527,-0.35352 -0.00527,-0.35352c0.28451,-0.22239 0.11651,-1.07645 0.20321,-1.4823c0.21204,-0.99257 1.00478,-2.24084 1.67736,-2.99693c0.47929,-0.83606 1.58808,-1.57622 2.36509,-2.1843c-0.03134,-0.1446 0.08935,-0.23374 0.11908,-0.25323c0.0227,-0.02167 0.05184,-0.03988 0.08919,-0.05036l0.10458,-0.05855c0.33045,-0.12689 0.67039,-0.20063 1.01498,-0.25677c0.00745,-0.12746 0.13035,-0.19816 0.13035,-0.19816z" fill="#ffbc00" stroke="none" stroke-width="0.5" stroke-linecap="butt"/><path d="M214.91929,205.01587c-1.18299,2.32586 -5.37087,2.56907 -9.35392,0.54321c-3.98305,-2.02586 -6.25295,-5.55363 -5.06996,-7.87949c1.18299,-2.32586 5.37087,-2.56907 9.35392,-0.54321c3.98305,2.02586 6.25295,5.55363 5.06996,7.87949z" fill="#3a3a3a" stroke="none" stroke-width="0" stroke-linecap="butt"/><path d="M281.86353,198.79012c1.29453,2.26568 -0.80138,5.89951 -4.68135,8.11639c-3.87997,2.21688 -8.07473,2.17733 -9.36926,-0.08834c-1.29453,-2.26568 0.80138,-5.89951 4.68135,-8.11639c3.87997,-2.21688 8.07473,-2.17733 9.36926,0.08834z" fill="#3a3a3a" stroke="none" stroke-width="0" stroke-linecap="butt"/><path d="M232.59549,137.3423l2.08888,-13.29283c0,0 0.74739,1.07822 2.0377,1.66736c0.94117,0.42973 2.34891,0.42151 3.08953,0.42151c0.74465,0 1.98868,0.28243 3.02037,-0.07903c1.75038,-0.61327 3.24625,-2.00984 3.24625,-2.00984l0.94948,12.72313c0,0 -1.31329,1.24096 -3.30629,1.88431c-1.11536,0.36005 -2.83488,0.27208 -3.70839,0.30656c-1.06343,0.04198 -2.85165,0.1011 -4.29261,-0.26586c-1.77706,-0.45255 -3.12491,-1.35531 -3.12491,-1.35531z" fill="#50dee8" stroke="none" stroke-width="0" stroke-linecap="butt"/><path d="M246.03345,123.82749c0,1.68435 -2.47254,3.04979 -5.52258,3.04979c-3.05004,0 -5.52258,-1.36544 -5.52258,-3.04978c0,-1.68435 2.47254,-3.04978 5.52258,-3.04978c3.05004,0 5.52258,1.36544 5.52258,3.04979z" fill="#41b6bf" stroke="none" stroke-width="0" stroke-linecap="butt"/></g></g></svg>