<svg version="1.1" xmlns="http://www.w3.org/2000/svg" xmlns:xlink="http://www.w3.org/1999/xlink" width="122.46291" height="98.81982" viewBox="0,0,122.46291,98.81982"><defs><linearGradient x1="240.70778" y1="134.04031" x2="240.70778" y2="196.46397" gradientUnits="userSpaceOnUse" id="color-1"><stop offset="0" stop-color="#c2c2c2"/><stop offset="1" stop-color="#c20000"/></linearGradient><linearGradient x1="240.70778" y1="134.04031" x2="240.70778" y2="196.46397" gradientUnits="userSpaceOnUse" id="color-2"><stop offset="0" stop-color="#c2c2c2"/><stop offset="1" stop-color="#c20000"/></linearGradient><linearGradient x1="240.70778" y1="134.04031" x2="240.70778" y2="196.46397" gradientUnits="userSpaceOnUse" id="color-3"><stop offset="0" stop-color="#c2c2c2"/><stop offset="1" stop-color="#c20000"/></linearGradient><linearGradient x1="240.70778" y1="134.04031" x2="240.70778" y2="196.46397" gradientUnits="userSpaceOnUse" id="color-4"><stop offset="0" stop-color="#c2c2c2"/><stop offset="1" stop-color="#c20000"/></linearGradient><linearGradient x1="240.70778" y1="134.04031" x2="240.70778" y2="196.46397" gradientUnits="userSpaceOnUse" id="color-5"><stop offset="0" stop-color="#c2c2c2"/><stop offset="1" stop-color="#c20000"/></linearGradient><linearGradient x1="240.70778" y1="134.04031" x2="240.70778" y2="196.46397" gradientUnits="userSpaceOnUse" id="color-6"><stop offset="0" stop-color="#c2c2c2"/><stop offset="1" stop-color="#c20000"/></linearGradient><radialGradient cx="239.8784" cy="139.27109" r="18.24325" gradientUnits="userSpaceOnUse" id="color-7"><stop offset="0" stop-color="#3bd9e4"/><stop offset="1" stop-color="#ffffff"/></radialGradient><linearGradient x1="188.43245" y1="134.64947" x2="188.43245" y2="173.81163" gradientUnits="userSpaceOnUse" id="color-8"><stop offset="0" stop-color="#c2c2c2"/><stop offset="1" stop-color="#c20000"/></linearGradient><linearGradient x1="301.90542" y1="134.16298" x2="301.90542" y2="164.81163" gradientUnits="userSpaceOnUse" id="color-9"><stop offset="0" stop-color="#c2c2c2"/><stop offset="1" stop-color="#c20000"/></linearGradient><linearGradient x1="241.00661" y1="159.94677" x2="241.00661" y2="195.94677" gradientUnits="userSpaceOnUse" id="color-10"><stop offset="0" stop-color="#c20000"/><stop offset="1" stop-color="#c2c2c2"/></linearGradient><linearGradient x1="241.00661" y1="159.94677" x2="241.00661" y2="195.94677" gradientUnits="userSpaceOnUse" id="color-11"><stop offset="0" stop-color="#c20000"/><stop offset="1" stop-color="#c2c2c2"/></linearGradient></defs><g transform="translate(-178.7172,-120.77772)"><g data-paper-data="{&quot;isPaintingLayer&quot;:true}" fill-rule="nonzero" stroke-linejoin="miter" stroke-miterlimit="10" stroke-dasharray="" stroke-dashoffset="0" style="mix-blend-mode: normal"><path d="M271.40623,219.34754c0,0.13807 -0.11193,0.25 -0.25,0.25c-0.04424,0 -0.08579,-0.01149 -0.12184,-0.03165c0.07801,-0.15143 0.144,-0.30376 0.19928,-0.45613c0.10017,0.0326 0.17256,0.12673 0.17256,0.23778z" fill="#ffbc00" stroke="none" stroke-width="0.5" stroke-linecap="butt"/><g stroke-width="0.5" stroke-linecap="butt"><path d="M203.85643,134.04031h73.7027v45.44551c-0.19234,0.05115 -0.3543,0.17682 -0.45309,0.34421c-0.73233,0.41848 -1.8011,4.31605 -2.55048,5.25636c-0.81302,1.02017 -2.06961,2.15088 -3.17098,2.8439c-0.5754,0.36205 -2.67959,1.31723 -3.34934,2.18858c-1.04409,0.39406 -4.38759,1.39454 -5.1576,2.29416c-1.24943,0.27682 -2.50434,0.51808 -3.57289,0.84983c-1.83815,0.57068 -4.58985,1.44633 -6.89557,1.84297c-0.17287,0.02327 -0.34954,0.05163 -0.52608,0.08303c-0.53057,0.07568 -1.02992,0.12078 -1.47968,0.12472c-0.53017,0.00465 -1.87383,-0.23871 -2.70692,0.04514c-0.88418,-0.16773 -4.00932,0.22725 -4.33282,0.2407c-1.27079,0.05286 -4.69025,-0.68527 -5.43374,0.05822c-0.01112,0.01112 -0.02231,0.02242 -0.03352,0.03391c-2.66368,-0.23096 -6.26397,-0.23345 -7.28459,-0.28062c-1.51382,-0.06996 -5.27908,-1.78564 -7.51422,-1.90505c-0.51451,-0.95193 -3.51979,-1.27351 -4.01119,-1.39631c-1.26623,-0.31643 -2.8899,-0.844 -4.54086,-1.54144c-0.70773,-0.47949 -1.4496,-0.93204 -2.31164,-1.27391c-0.71789,-0.2847 -2.934,-2.26699 -4.6842,-3.49704c-0.01208,-0.01725 -0.02403,-0.03452 -0.03587,-0.05182c-0.00895,-0.05383 -0.02007,-0.11084 -0.03347,-0.17114c-0.27239,-1.22575 -2.30508,-1.95863 -2.6171,-3.36274l-0.00405,-0.0081c-0.22033,-0.51409 -0.54278,-1.84467 -1.0028,-2.78734z" fill="url(#color-1)" stroke="#000000"/><path d="" fill="url(#color-2)" stroke="#000000"/><path d="" fill="url(#color-3)" stroke="#000000"/><path d="" fill="url(#color-4)" stroke="#000000"/><path d="" fill="url(#color-5)" stroke="#000000"/><path d="" fill="url(#color-6)" stroke="#000000"/><path d="M259.0946,137.81163c0,4.29887 -9.5692,12.40541 -18.97297,12.40541c-9.40376,0 -17.51352,-7.37681 -17.51352,-11.67568c0,-4.29887 8.10975,-3.8919 17.51352,-3.8919c9.40377,0 18.97297,-1.1367 18.97297,3.16217z" fill="url(#color-7)" stroke="#ffffff"/><path d="M179.31083,194.24407l10.45946,-26.02703c0,0 4.88399,-7.96467 6.52327,-10.20005c2.47,-3.36818 8.07131,-23.36752 8.07131,-23.36752v39.16216z" fill="url(#color-8)" stroke="#000000"/><path d="M277.82433,171.86569v-37.70271c0,0 4.61831,16.93849 8.45051,21.74829c4.09615,5.14109 6.87381,11.08955 6.87381,11.08955l7.54054,25.78378z" fill="url(#color-9)" stroke="#000000"/><path d="M277.82433,177.94677c0,0.51059 -0.04348,1.01621 -0.12874,1.51603c-0.25135,0.01882 -0.46816,0.16152 -0.58956,0.36723c-0.73233,0.41848 -1.8011,4.31605 -2.55048,5.25636c-0.81302,1.02017 -2.06961,2.15088 -3.17098,2.8439c-0.5754,0.36205 -2.67959,1.31723 -3.34934,2.18858c-1.04409,0.39406 -4.38759,1.39454 -5.1576,2.29416c-1.24943,0.27682 -2.50434,0.51808 -3.57289,0.84983c-1.51061,0.46899 -3.63821,1.14395 -5.62821,1.58975c-0.93063,0.16675 -1.87886,0.31566 -2.84296,0.44588c-0.14775,0.00875 -0.29132,0.01388 -0.43016,0.0151c-0.53017,0.00465 -1.87383,-0.23871 -2.70692,0.04514c-0.88418,-0.16773 -4.00932,0.22725 -4.33282,0.2407c-1.27079,0.05286 -4.69025,-0.68527 -5.43374,0.05822c-0.01112,0.01112 -0.02231,0.02242 -0.03352,0.03391c-1.7545,-0.15213 -3.91536,-0.20514 -5.47772,-0.23708c-1.42584,-0.16656 -2.81948,-0.37367 -4.17552,-0.6187c-1.68598,-0.53319 -3.72486,-1.25401 -5.14557,-1.32989c-0.51451,-0.95193 -3.51979,-1.27351 -4.01119,-1.39631c-0.93688,-0.23412 -2.06944,-0.58384 -3.26395,-1.03243c-0.77962,-0.35755 -1.52738,-0.7315 -2.24098,-1.12074c-0.13869,-0.08076 -0.27981,-0.15936 -0.4239,-0.23529c-2.33997,-1.3217 -4.29288,-2.81167 -5.77259,-4.42782c-0.17473,-0.38235 -0.51225,-0.72077 -0.88636,-1.05743c-1.49343,-1.95777 -2.30976,-4.07683 -2.30976,-6.28911c0,-9.94112 16.48386,-18 36.81774,-18c20.33388,0 36.81773,8.05888 36.81773,18z" fill="url(#color-10)" stroke="url(#color-11)"/></g><path d="M201.77366,196.67254l9.05277,-14.18865c0,0 1.51052,-0.50873 3.51938,-0.33799c1.76921,0.15038 3.99574,0.93325 4.92602,1.57779c1.01934,0.70625 2.95791,2.23036 3.84367,4.02417c1.06533,2.15746 0.98688,4.56601 0.98688,4.56601l-9.21797,13.31194c0,0 -0.25674,-2.42245 -1.7357,-4.52614c-0.76034,-1.08151 -1.8931,-2.91732 -2.63748,-3.42566c-0.81298,-0.55517 -2.63526,-1.15779 -3.98157,-1.43229c-2.26025,-0.46085 -4.756,0.43082 -4.756,0.43082z" fill="#9086a5" stroke="none" stroke-width="0.5" stroke-linecap="butt"/><path d="M210.75263,196.94764l8.41962,-12.32932" fill="none" stroke="#000000" stroke-width="1.5" stroke-linecap="round"/><path d="M202.86847,195.25579l8.28196,-13.05992" fill="none" stroke="#000000" stroke-width="1.5" stroke-linecap="round"/><path d="M215.24862,204.34671l8.83045,-12.55803" fill="none" stroke="#000000" stroke-width="1.5" stroke-linecap="round"/><path d="M233.07425,210.81342l-0.5257,-16.82244c0,0 0.96051,-1.27196 2.71574,-2.26385c1.54584,-0.87355 3.82604,-1.48268 4.95775,-1.47503c1.24007,0.00838 3.70048,0.17377 5.44356,1.1556c2.09645,1.18087 3.38996,3.21412 3.38996,3.21412l-0.10514,16.1916c0,0 -1.57814,-1.85571 -3.98585,-2.7589c-1.23781,-0.46434 -3.20855,-1.34157 -4.10995,-1.34157c-0.98445,0 -2.82916,0.53002 -4.09576,1.06258c-2.12643,0.89408 -3.68461,3.03789 -3.68461,3.03789z" fill="#9086a5" stroke="none" stroke-width="0.5" stroke-linecap="butt"/><path d="M240.64434,191.04706v14.92991" fill="none" stroke="#000000" stroke-width="1.5" stroke-linecap="round"/><path d="M233.17939,209.02604l-0.5257,-15.45561" fill="none" stroke="#000000" stroke-width="1.5" stroke-linecap="round"/><path d="M248.52985,209.55174l0.21028,-15.35047" fill="none" stroke="#000000" stroke-width="1.5" stroke-linecap="round"/><path d="M241.94453,206.77579c0.58209,0 0.88237,0.0042 1.23889,0.51471l0.08445,0.16544c1.70515,0.24813 3.46527,1.17271 4.94573,2.04472c0,0 0.21437,0.12863 0.08574,0.343c-0.12862,0.21437 -0.34299,0.08575 -0.34299,0.08575c-1.42142,-0.86531 -3.15953,-1.7514 -4.80898,-1.98681c-0.84966,-0.24139 -1.63222,-0.74183 -2.49317,-0.84861l-0.00858,0.00015l-0.14482,0.13431c-0.89922,0.11154 -2.37674,0.21255 -3.15798,0.69677c-1.67697,0.55899 -2.61897,2.50079 -3.93519,2.97142c0,0 -0.24039,0.06868 -0.30907,-0.1717c-0.06868,-0.24038 0.17171,-0.30906 0.17171,-0.30906c0.35751,-0.05091 0.63776,-0.87498 0.91528,-1.18355c0.67873,-0.75464 1.98832,-1.44136 2.94833,-1.76137c0.83234,-0.48571 2.16253,-0.5744 3.13925,-0.71405c0.04494,-0.14096 0.194,-0.15806 0.22949,-0.16013c0.03048,-0.00746 0.06482,-0.00872 0.10243,0.00082l0.11984,0.0014c0.34972,0.05479 0.68115,0.16037 1.00783,0.28354c0.07002,-0.10677 0.21179,-0.10677 0.21179,-0.10677z" fill="#ffbc00" stroke="none" stroke-width="0.5" stroke-linecap="butt"/><path d="M267.63056,206.28652l-8.84398,-14.31973c0,0 0.19833,-1.5815 1.2252,-3.3165c0.90437,-1.52802 2.57713,-3.19301 3.56193,-3.7507c1.07908,-0.61108 3.29426,-1.69458 5.29475,-1.71268c2.40605,-0.02177 4.54113,1.09568 4.54113,1.09568l7.98261,14.08747c0,0 -2.29328,-0.82163 -4.83067,-0.40395c-1.30448,0.21473 -3.45016,0.43702 -4.2315,0.88649c-0.85334,0.49089 -2.18805,1.87016 -3.02041,2.96336c-1.39739,1.83532 -1.67905,4.47056 -1.67905,4.47056z" fill="#9086a5" stroke="none" stroke-width="0.5" stroke-linecap="butt"/><path d="M264.33614,185.3781l7.44462,12.9414" fill="none" stroke="#000000" stroke-width="1.5" stroke-linecap="round"/><path d="M266.83044,204.68477l-8.16243,-13.13495" fill="none" stroke="#000000" stroke-width="1.5" stroke-linecap="round"/><path d="M280.39851,197.48612l-7.47205,-13.4108" fill="none" stroke="#000000" stroke-width="1.5" stroke-linecap="round"/><path d="M273.30609,198.3636c0.50456,-0.29025 0.76695,-0.43634 1.33054,-0.1716l0.15569,0.10129c1.60177,-0.63517 3.58849,-0.7114 5.30658,-0.69374c0,0 0.24996,0.0046 0.24536,0.25456c-0.0046,0.24996 -0.25455,0.24536 -0.25455,0.24536c-1.66358,-0.04128 -3.61203,0.05733 -5.15917,0.67575c-0.85685,0.21444 -1.78473,0.17086 -2.58426,0.50761l-0.00736,0.00441l-0.05856,0.18864c-0.72384,0.54506 -1.9542,1.36938 -2.38993,2.17866c-1.17489,1.32074 -1.02316,3.47363 -1.9294,4.53789c0,0 -0.17412,0.1794 -0.35352,0.00528c-0.1794,-0.17412 -0.00527,-0.35352 -0.00527,-0.35352c0.28451,-0.22239 0.11651,-1.07645 0.20321,-1.4823c0.21204,-0.99257 1.00478,-2.24084 1.67736,-2.99693c0.47929,-0.83606 1.58808,-1.57622 2.36509,-2.1843c-0.03134,-0.1446 0.08935,-0.23374 0.11908,-0.25323c0.0227,-0.02167 0.05184,-0.03988 0.08919,-0.05036l0.10458,-0.05855c0.33045,-0.12689 0.67039,-0.20063 1.01498,-0.25677c0.00745,-0.12746 0.13035,-0.19816 0.13035,-0.19816z" fill="#ffbc00" stroke="none" stroke-width="0.5" stroke-linecap="butt"/><path d="M214.91929,205.01587c-1.18299,2.32586 -5.37087,2.56907 -9.35392,0.54321c-3.98305,-2.02586 -6.25295,-5.55363 -5.06996,-7.87949c1.18299,-2.32586 5.37087,-2.56907 9.35392,-0.54321c3.98305,2.02586 6.25295,5.55363 5.06996,7.87949z" fill="#3a3a3a" stroke="none" stroke-width="0" stroke-linecap="butt"/><path d="M281.86353,198.79012c1.29453,2.26568 -0.80138,5.89951 -4.68135,8.11639c-3.87997,2.21688 -8.07473,2.17733 -9.36926,-0.08834c-1.29453,-2.26568 0.80138,-5.89951 4.68135,-8.11639c3.87997,-2.21688 8.07473,-2.17733 9.36926,0.08834z" fill="#3a3a3a" stroke="none" stroke-width="0" stroke-linecap="butt"/><path d="M232.59549,137.3423l2.08888,-13.29283c0,0 0.74739,1.07822 2.0377,1.66736c0.94117,0.42973 2.34891,0.42151 3.08953,0.42151c0.74465,0 1.98868,0.28243 3.02037,-0.07903c1.75038,-0.61327 3.24625,-2.00984 3.24625,-2.00984l0.94948,12.72313c0,0 -1.31329,1.24096 -3.30629,1.88431c-1.11536,0.36005 -2.83488,0.27208 -3.70839,0.30656c-1.06343,0.04198 -2.85165,0.1011 -4.29261,-0.26586c-1.77706,-0.45255 -3.12491,-1.35531 -3.12491,-1.35531z" fill="#50dee8" stroke="none" stroke-width="0" stroke-linecap="butt"/><path d="M246.03345,123.82749c0,1.68435 -2.47254,3.04979 -5.52258,3.04979c-3.05004,0 -5.52258,-1.36544 -5.52258,-3.04978c0,-1.68435 2.47254,-3.04978 5.52258,-3.04978c3.05004,0 5.52258,1.36544 5.52258,3.04979z" fill="#41b6bf" stroke="none" stroke-width="0" stroke-linecap="butt"/><path d="M249.03177,211.42116c-0.05532,2.60884 -3.72188,4.64693 -8.18953,4.5522c-4.46764,-0.09472 -8.04454,-2.2864 -7.98922,-4.89523c0.05532,-2.60884 3.72188,-4.64693 8.18953,-4.5522c4.46764,0.09472 8.04454,2.2864 7.98922,4.89523z" fill="#3a3a3a" stroke="none" stroke-width="0" stroke-linecap="butt"/></g></g></svg>