<svg version="1.1" xmlns="http://www.w3.org/2000/svg" xmlns:xlink="http://www.w3.org/1999/xlink" width="122.46291" height="105.34684" viewBox="0,0,122.46291,105.34684"><defs><linearGradient x1="240.70777" y1="134.04031" x2="240.70777" y2="196.46397" gradientUnits="userSpaceOnUse" id="color-1"><stop offset="0" stop-color="#c2c2c2"/><stop offset="1" stop-color="#c20000"/></linearGradient><linearGradient x1="240.70777" y1="134.04031" x2="240.70777" y2="196.46397" gradientUnits="userSpaceOnUse" id="color-2"><stop offset="0" stop-color="#c2c2c2"/><stop offset="1" stop-color="#c20000"/></linearGradient><linearGradient x1="240.70777" y1="134.04031" x2="240.70777" y2="196.46397" gradientUnits="userSpaceOnUse" id="color-3"><stop offset="0" stop-color="#c2c2c2"/><stop offset="1" stop-color="#c20000"/></linearGradient><linearGradient x1="240.70777" y1="134.04031" x2="240.70777" y2="196.46397" gradientUnits="userSpaceOnUse" id="color-4"><stop offset="0" stop-color="#c2c2c2"/><stop offset="1" stop-color="#c20000"/></linearGradient><linearGradient x1="240.70777" y1="134.04031" x2="240.70777" y2="196.46397" gradientUnits="userSpaceOnUse" id="color-5"><stop offset="0" stop-color="#c2c2c2"/><stop offset="1" stop-color="#c20000"/></linearGradient><linearGradient x1="240.70777" y1="134.04031" x2="240.70777" y2="196.46397" gradientUnits="userSpaceOnUse" id="color-6"><stop offset="0" stop-color="#c2c2c2"/><stop offset="1" stop-color="#c20000"/></linearGradient><radialGradient cx="239.87839" cy="139.27109" r="18.24325" gradientUnits="userSpaceOnUse" id="color-7"><stop offset="0" stop-color="#3bd9e4"/><stop offset="1" stop-color="#ffffff"/></radialGradient><linearGradient x1="188.43244" y1="134.64947" x2="188.43244" y2="173.81163" gradientUnits="userSpaceOnUse" id="color-8"><stop offset="0" stop-color="#c2c2c2"/><stop offset="1" stop-color="#c20000"/></linearGradient><linearGradient x1="301.90541" y1="134.16298" x2="301.90541" y2="164.81163" gradientUnits="userSpaceOnUse" id="color-9"><stop offset="0" stop-color="#c2c2c2"/><stop offset="1" stop-color="#c20000"/></linearGradient><linearGradient x1="241.0066" y1="159.94677" x2="241.0066" y2="195.94677" gradientUnits="userSpaceOnUse" id="color-10"><stop offset="0" stop-color="#c20000"/><stop offset="1" stop-color="#c2c2c2"/></linearGradient><linearGradient x1="241.0066" y1="159.94677" x2="241.0066" y2="195.94677" gradientUnits="userSpaceOnUse" id="color-11"><stop offset="0" stop-color="#c20000"/><stop offset="1" stop-color="#c2c2c2"/></linearGradient><linearGradient x1="208.75523" y1="200.13754" x2="199.60691" y2="213.53393" gradientUnits="userSpaceOnUse" id="color-12"><stop offset="0" stop-color="#ffbc00"/><stop offset="1" stop-color="#ff0076"/></linearGradient><linearGradient x1="201.51215" y1="201.89685" x2="198.95691" y2="205.63862" gradientUnits="userSpaceOnUse" id="color-13"><stop offset="0" stop-color="#ffbc00"/><stop offset="1" stop-color="#ff0076"/></linearGradient><linearGradient x1="209.97846" y1="198.14141" x2="200.58631" y2="211.89483" gradientUnits="userSpaceOnUse" id="color-14"><stop offset="0" stop-color="#ffbc00"/><stop offset="1" stop-color="#ff0076"/></linearGradient><linearGradient x1="240.79379" y1="209.73765" x2="240.79379" y2="225.9597" gradientUnits="userSpaceOnUse" id="color-15"><stop offset="0" stop-color="#ffbc00"/><stop offset="1" stop-color="#ff0076"/></linearGradient><linearGradient x1="235.80451" y1="215.2752" x2="235.80451" y2="219.80621" gradientUnits="userSpaceOnUse" id="color-16"><stop offset="0" stop-color="#ffbc00"/><stop offset="1" stop-color="#ff0076"/></linearGradient><linearGradient x1="240.67824" y1="207.39938" x2="240.67824" y2="224.05378" gradientUnits="userSpaceOnUse" id="color-17"><stop offset="0" stop-color="#ffbc00"/><stop offset="1" stop-color="#ff0076"/></linearGradient></defs><g transform="translate(-178.71719,-120.61285)"><g data-paper-data="{&quot;isPaintingLayer&quot;:true}" fill-rule="nonzero" stroke-linejoin="miter" stroke-miterlimit="10" stroke-dasharray="" stroke-dashoffset="0" style="mix-blend-mode: normal"><g stroke-width="0.5" stroke-linecap="butt"><path d="M203.85642,134.04031h73.7027v45.44551c-0.19234,0.05115 -0.3543,0.17682 -0.45309,0.34421c-0.73233,0.41848 -1.8011,4.31605 -2.55048,5.25636c-0.81302,1.02017 -2.06961,2.15088 -3.17098,2.8439c-0.5754,0.36205 -2.67959,1.31723 -3.34934,2.18858c-1.04409,0.39406 -4.38759,1.39454 -5.1576,2.29416c-1.24943,0.27682 -2.50434,0.51808 -3.57289,0.84983c-1.83815,0.57068 -4.58985,1.44633 -6.89557,1.84297c-0.17287,0.02327 -0.34954,0.05163 -0.52608,0.08303c-0.53057,0.07568 -1.02992,0.12078 -1.47968,0.12472c-0.53017,0.00465 -1.87383,-0.23871 -2.70692,0.04514c-0.88418,-0.16773 -4.00932,0.22725 -4.33282,0.2407c-1.27079,0.05286 -4.69025,-0.68527 -5.43374,0.05822c-0.01112,0.01112 -0.02231,0.02242 -0.03352,0.03391c-2.66368,-0.23096 -6.26397,-0.23345 -7.28459,-0.28062c-1.51382,-0.06996 -5.27908,-1.78564 -7.51422,-1.90505c-0.51451,-0.95193 -3.51979,-1.27351 -4.01119,-1.39631c-1.26623,-0.31643 -2.8899,-0.844 -4.54086,-1.54144c-0.70773,-0.47949 -1.4496,-0.93204 -2.31164,-1.27391c-0.71789,-0.2847 -2.934,-2.26699 -4.6842,-3.49704c-0.01208,-0.01725 -0.02403,-0.03452 -0.03587,-0.05182c-0.00895,-0.05383 -0.02007,-0.11084 -0.03347,-0.17114c-0.27239,-1.22575 -2.30508,-1.95863 -2.6171,-3.36274l-0.00405,-0.0081c-0.22033,-0.51409 -0.54278,-1.84467 -1.0028,-2.78734z" fill="url(#color-1)" stroke="#000000"/><path d="" fill="url(#color-2)" stroke="#000000"/><path d="" fill="url(#color-3)" stroke="#000000"/><path d="" fill="url(#color-4)" stroke="#000000"/><path d="" fill="url(#color-5)" stroke="#000000"/><path d="" fill="url(#color-6)" stroke="#000000"/><path d="M259.09459,137.81163c0,4.29887 -9.5692,12.40541 -18.97297,12.40541c-9.40376,0 -17.51352,-7.37681 -17.51352,-11.67568c0,-4.29887 8.10975,-3.8919 17.51352,-3.8919c9.40377,0 18.97297,-1.1367 18.97297,3.16217z" fill="url(#color-7)" stroke="#ffffff"/><path d="M179.31082,194.24407l10.45946,-26.02703c0,0 4.88399,-7.96467 6.52327,-10.20005c2.47,-3.36818 8.07131,-23.36752 8.07131,-23.36752v39.16216z" fill="url(#color-8)" stroke="#000000"/><path d="M277.82432,171.86569v-37.70271c0,0 4.61831,16.93849 8.45051,21.74829c4.09615,5.14109 6.87381,11.08955 6.87381,11.08955l7.54054,25.78378z" fill="url(#color-9)" stroke="#000000"/><path d="M277.82432,177.94677c0,0.51059 -0.04348,1.01621 -0.12874,1.51603c-0.25135,0.01882 -0.46816,0.16152 -0.58956,0.36723c-0.73233,0.41848 -1.8011,4.31605 -2.55048,5.25636c-0.81302,1.02017 -2.06961,2.15088 -3.17098,2.8439c-0.5754,0.36205 -2.67959,1.31723 -3.34934,2.18858c-1.04409,0.39406 -4.38759,1.39454 -5.1576,2.29416c-1.24943,0.27682 -2.50434,0.51808 -3.57289,0.84983c-1.51061,0.46899 -3.63821,1.14395 -5.62821,1.58975c-0.93063,0.16675 -1.87886,0.31566 -2.84296,0.44588c-0.14775,0.00875 -0.29132,0.01388 -0.43016,0.0151c-0.53017,0.00465 -1.87383,-0.23871 -2.70692,0.04514c-0.88418,-0.16773 -4.00932,0.22725 -4.33282,0.2407c-1.27079,0.05286 -4.69025,-0.68527 -5.43374,0.05822c-0.01112,0.01112 -0.02231,0.02242 -0.03352,0.03391c-1.7545,-0.15213 -3.91536,-0.20514 -5.47772,-0.23708c-1.42584,-0.16656 -2.81948,-0.37367 -4.17552,-0.6187c-1.68598,-0.53319 -3.72486,-1.25401 -5.14557,-1.32989c-0.51451,-0.95193 -3.51979,-1.27351 -4.01119,-1.39631c-0.93688,-0.23412 -2.06944,-0.58384 -3.26395,-1.03243c-0.77962,-0.35755 -1.52738,-0.7315 -2.24098,-1.12074c-0.13869,-0.08076 -0.27981,-0.15936 -0.4239,-0.23529c-2.33997,-1.3217 -4.29288,-2.81167 -5.77259,-4.42782c-0.17473,-0.38235 -0.51225,-0.72077 -0.88636,-1.05743c-1.49343,-1.95777 -2.30976,-4.07683 -2.30976,-6.28911c0,-9.94112 16.48386,-18 36.81774,-18c20.33388,0 36.81773,8.05888 36.81773,18z" fill="url(#color-10)" stroke="url(#color-11)"/></g><path d="M235.66693,218.3015c0,-0.13807 0.11193,-0.25 0.25,-0.25c0.13807,0 0.25,0.11193 0.25,0.25c0,0.13807 -0.11193,0.25 -0.25,0.25c-0.13807,0 -0.25,-0.11193 -0.25,-0.25z" fill="#ffbc00" stroke="none" stroke-width="0.5" stroke-linecap="butt"/><path d="M241.946,221.44104c0,-0.13807 0.11193,-0.25 0.25,-0.25c0.13807,0 0.25,0.11193 0.25,0.25c0,0.13807 -0.11193,0.25 -0.25,0.25c-0.13807,0 -0.25,-0.11193 -0.25,-0.25z" fill="#ffbc00" stroke="none" stroke-width="0.5" stroke-linecap="butt"/><path d="M236.71344,223.32476c0,-0.13807 0.11193,-0.25 0.25,-0.25c0.13807,0 0.25,0.11193 0.25,0.25c0,0.13807 -0.11193,0.25 -0.25,0.25c-0.13807,0 -0.25,-0.11193 -0.25,-0.25z" fill="#ffbc00" stroke="none" stroke-width="0.5" stroke-linecap="butt"/><path d="M201.77365,196.67254l9.05277,-14.18865c0,0 1.51052,-0.50873 3.51938,-0.33799c1.76921,0.15038 3.99574,0.93325 4.92602,1.57779c1.01934,0.70625 2.95791,2.23036 3.84367,4.02417c1.06533,2.15746 0.98688,4.56601 0.98688,4.56601l-9.21797,13.31194c0,0 -0.25674,-2.42245 -1.7357,-4.52614c-0.76034,-1.08151 -1.8931,-2.91732 -2.63748,-3.42566c-0.81298,-0.55517 -2.63526,-1.15779 -3.98157,-1.43229c-2.26025,-0.46085 -4.756,0.43082 -4.756,0.43082z" fill="#9086a5" stroke="none" stroke-width="0.5" stroke-linecap="butt"/><path d="M210.75262,196.94764l8.41962,-12.32932" fill="none" stroke="#000000" stroke-width="1.5" stroke-linecap="round"/><path d="M202.86846,195.25579l8.28196,-13.05992" fill="none" stroke="#000000" stroke-width="1.5" stroke-linecap="round"/><path d="M224.07906,191.78868l-8.83045,12.55803" fill="none" stroke="#000000" stroke-width="1.5" stroke-linecap="round"/><path d="M201.69675,204.76963c-0.00804,0.02176 -0.01736,0.04076 -0.02765,0.05731c0.00036,2.08681 -0.26913,3.68197 -2.16328,5.60049c-0.28749,0.29092 -0.61099,0.65179 -0.97053,0.94106c1.39465,-0.0455 3.49712,0.16338 4.04972,-0.96358c0.49923,-0.44378 1.37464,-2.18952 2.04371,-2.29557c1.22587,-0.1943 -0.36886,2.71345 -0.71063,3.20592c-0.14281,0.38621 -0.38247,0.92847 -0.67189,1.39724c1.49433,-0.66469 3.18764,-1.23353 4.13052,-2.6368c1.37837,-2.01842 2.1756,-3.00061 4.42732,-3.87521c1.55949,-0.00776 1.74755,-0.45857 2.65179,-1.7827l0.0394,-0.0577c0,0 0.14098,-0.20646 0.34744,-0.06547c0.20646,0.14099 0.06547,0.34744 0.06547,0.34744l-0.0394,0.0577c-0.91714,1.34302 -1.30147,2.05069 -2.97211,1.99208c-2.0849,0.88056 -2.79148,1.73944 -4.107,3.66583c-0.56802,0.82108 -3.91216,3.0431 -5.09239,3.05552c-0.08488,0.07796 -0.1712,0.14231 -0.2582,0.1892l-0.07676,-0.02222l-0.00331,0.02425l-0.30464,-0.04154c-0.039,-0.00449 -0.07752,-0.01825 -0.1122,-0.04193c-0.11402,-0.07787 -0.14333,-0.23342 -0.06547,-0.34744c0.05628,-0.08242 0.15315,-0.12058 0.24559,-0.10599l0.24096,0.03286c0.3976,-0.26594 0.92959,-1.52497 1.11061,-2.01453c0.38549,-0.57188 0.68304,-1.06934 0.9179,-1.70594c0.03232,-0.08761 0.05555,-0.31894 0.09804,-0.52856c-0.45485,0.6105 -1.36527,1.73796 -1.5294,1.88386c-0.84354,1.05489 -4.09048,1.96454 -5.5562,1.14302c-0.01905,0.00101 -0.03817,0.0016 -0.05736,0.00178l-0.00041,-0.03563c-0.00871,-0.00533 -0.01735,-0.01074 -0.02591,-0.0162l-0.01497,0.04048l-0.05862,-0.02168l-0.03507,0.05135l-0.23082,-0.15762c-0.11402,-0.07787 -0.14333,-0.23342 -0.06547,-0.34744c0.06709,-0.09825 0.19188,-0.1336 0.29806,-0.09168l0.23639,0.0874c0.56492,0.02294 1.33387,-0.94162 1.70002,-1.31285c1.83226,-1.85583 1.95905,-3.28939 1.9676,-5.21314c-0.92867,0.40918 -1.35245,1.29512 -1.98083,2.03952l0.06621,0.04522l-0.27584,0.40393c-0.07787,0.11402 -0.23342,0.14333 -0.34744,0.06547c-0.09825,-0.06709 -0.1336,-0.19188 -0.09168,-0.29807l0.09371,-0.25345c0.39753,-1.77551 0.30183,-4.77421 1.97612,-6.10676c-0.06629,-1.45423 0.5483,-2.93652 1.36769,-4.13639c0,0 0.14098,-0.20646 0.34744,-0.06547c0.20646,0.14099 0.06547,0.34744 0.06547,0.34744c-0.75467,1.1051 -1.25938,2.33544 -1.25226,3.59242c0.05405,0.01212 0.11021,0.04671 0.15388,0.12515c0.12161,0.21843 -0.09682,0.34003 -0.09682,0.34003c-0.00971,0.00508 -0.01936,0.01023 -0.02897,0.01544c0.06156,0.54899 0.22627,1.10065 0.51565,1.64687c0.00923,0.68893 0.03131,1.32003 0.0375,1.9106c0.04148,0.05126 0.06891,0.12755 0.02929,0.23468zM199.24683,205.77673c0.48472,-0.65095 1.28831,-1.21259 1.87138,-1.4182c-0.00002,-0.49779 0.00103,-1.03027 0.0271,-1.61124c-0.26815,-0.45227 -0.43644,-0.92365 -0.52237,-1.40277c-0.99659,0.98476 -1.19378,2.9193 -1.37611,4.43222z" fill="url(#color-12)" stroke="none" stroke-width="0.5" stroke-linecap="butt"/><path d="M200.6311,201.29519c0.08593,0.47912 0.27976,0.96291 0.54791,1.41517c-0.02607,0.58096 -0.01932,1.17825 -0.0193,1.67603c-0.58307,0.20561 -1.44993,0.7844 -1.93465,1.43534c0.18233,-1.51292 0.40945,-3.54179 1.40604,-4.52655z" data-paper-data="{&quot;noHover&quot;:false,&quot;origItem&quot;:[&quot;Path&quot;,{&quot;applyMatrix&quot;:true,&quot;segments&quot;:[[[487.05805,431.4142],[-1.40526,-2.70442],[0.06638,-1.62183]],[[488.5493,426.96115],[-0.73111,0.99723],[-0.56147,-0.82214]],[[486.77676,424.26943],[0.61221,0.98893],[-0.95298,-0.44453]],[[484.33183,422.54174],[0.68232,0.69441],[-0.53529,2.7505]]],&quot;closed&quot;:true}]}" fill="url(#color-13)" stroke="none" stroke-width="0.5" stroke-linecap="butt"/><path d="M211.37585,198.34055c0.48069,0.32826 0.72631,0.50109 0.73282,1.12372l-0.02356,0.18424c1.2682,1.16652 2.20033,2.92266 2.93114,4.47767c0,0 0.10449,0.22711 -0.12263,0.33161c-0.22711,0.1045 -0.33161,-0.12262 -0.33161,-0.12262c-0.68585,-1.51618 -1.62149,-3.22812 -2.85087,-4.35272c-0.56553,-0.6785 -0.92957,-1.53309 -1.58033,-2.1068l-0.00716,-0.00471l-0.19534,0.02925c-0.80549,-0.415 -2.08261,-1.16483 -3.00084,-1.20552c-1.70011,-0.4841 -3.57309,0.58823 -4.92544,0.23461c0,0 -0.23725,-0.07885 -0.1584,-0.31609c0.07884,-0.23724 0.31609,-0.1584 0.31609,-0.1584c0.32394,0.15958 1.0201,-0.36291 1.4233,-0.46122c0.98608,-0.24042 2.45484,-0.069 3.42809,0.20813c0.96127,0.06828 2.10978,0.74519 2.99512,1.18069c0.11661,-0.09107 0.24934,-0.02112 0.27982,-0.00282c0.02938,0.01103 0.05845,0.02935 0.08411,0.05844l0.09818,0.06874c0.2579,0.24246 0.47205,0.51657 0.67237,0.80251c0.11803,-0.04868 0.23512,0.03127 0.23512,0.03127z" fill="#ffbc00" stroke="none" stroke-width="0.5" stroke-linecap="butt"/><path d="M200.6479,203.29951l0.02949,0.03699l-0.23342,0.18613c-0.08368,0.06996 -0.20675,0.07907 -0.30127,0.01452c-0.08242,-0.05628 -0.12057,-0.15316 -0.10599,-0.2456l0.03305,-0.2424l0.0049,0.00067l-0.00255,-0.01483c0.18839,-0.73886 0.51666,-1.22891 0.94568,-1.85715c0,0 0.0058,-0.0085 0.01678,-0.02087c-0.00528,-0.0529 -0.00912,-0.10593 -0.01136,-0.15911c-0.30212,-1.28809 0.27284,-4.58961 1.55176,-4.49136c0.76741,0.115 1.57002,0.13282 2.38643,0.13338c-0.03699,-0.0405 -0.063,-0.10035 -0.05486,-0.18859c0.02298,-0.24894 0.27192,-0.22596 0.27192,-0.22596l0.19085,0.02059c0.39087,-0.02121 0.79754,-0.01466 1.19013,0.00668c0,0 0.24957,0.01468 0.2349,0.26424c-0.00317,0.05392 -0.01731,0.09551 -0.03753,0.12757c0.58434,0.01254 1.1678,0.04556 1.74276,0.12744c1.99582,0.79577 2.82189,2.31014 4.18237,3.85662c1.12311,2.02379 2.85631,2.63452 1.27084,4.95621c-0.95245,1.39473 -3.55097,0.9794 -4.73951,2.71984c-0.90761,1.29145 -2.63444,3.21042 -4.04787,3.81012c-0.34934,0.31451 -1.87775,1.12548 -2.10961,0.35357c-0.15615,-0.51988 1.51916,-2.73702 1.74842,-3.35703c0.14165,-0.58181 0.15448,-1.05773 -0.1746,-1.07385c-0.04305,0.48872 -0.96355,1.43748 -1.79888,2.15787c0.06058,0.16978 -0.1029,0.27951 -0.1029,0.27951l-0.14531,0.08432c-0.30403,0.36869 -0.57706,0.43744 -1.0049,0.59973c0,0 -0.06839,0.02581 -0.14516,0.01254c-0.58301,0.19315 -1.81122,0.42396 -2.43885,0.2227c-0.00643,0.00546 -0.0104,0.00831 -0.0104,0.00831c-0.16759,0.11567 -0.36149,0.20063 -0.56084,0.2422l-0.17917,-0.01148c0,0 -0.24771,-0.03377 -0.21394,-0.28148c0.03377,-0.24771 0.28148,-0.21394 0.28148,-0.21394l0.01904,0.01555c0.09972,-0.01572 0.19798,-0.05286 0.28556,-0.10535c-0.01787,-0.08636 -0.00905,-0.18824 0.03185,-0.30769c0.23814,-0.69549 1.44736,-1.16751 1.89554,-1.82379c0.38724,-0.55101 0.69043,-1.09427 0.90734,-1.65184c-0.04753,0.00462 -0.10269,-0.00675 -0.16352,-0.0483c-0.20646,-0.14099 -0.06547,-0.34744 -0.06547,-0.34744c0.50333,-0.686 0.42537,-2.44003 0.17421,-3.21708l-0.01597,-0.26349c0,0 -0.00478,-0.22668 0.21063,-0.25285c-0.03233,-0.11096 -0.06743,-0.22132 -0.10379,-0.33127c-0.30143,0.14546 -0.56012,0.32942 -0.83826,0.49544zM200.72783,202.63988c0.20091,-0.13498 0.44771,-0.24369 0.59673,-0.31238c-0.05461,-0.16186 -0.10718,-0.32345 -0.15279,-0.48539c-0.17404,0.26339 -0.3242,0.51394 -0.44394,0.79778zM201.55757,201.00135c-0.00344,0.00503 -0.0069,0.00985 -0.01041,0.01447c0.00461,0.01068 0.00943,0.02067 0.01445,0.02995c0,0 0.07133,0.13963 -0.00957,0.25422c0.11403,0.73668 0.50399,1.47693 0.6482,2.23189c0.41887,2.23164 -0.07379,3.87931 -1.24461,5.66641c-0.20325,0.29763 -1.12207,1.40441 -1.6852,1.73851c0.14204,-0.0188 0.29469,-0.02953 0.38115,-0.01833c0.54353,0.07043 1.2384,-0.03684 1.74703,-0.26645c0.6478,-0.31508 3.22999,-2.46799 2.59422,-2.3208l-0.14537,0.17621c-0.08102,0.10049 -0.22702,0.12337 -0.33545,0.04932c-0.11402,-0.07787 -0.14333,-0.23342 -0.06547,-0.34744l0.14317,-0.20965l0.01821,0.01243l0.0013,-0.00157l0.00896,-0.04543c0.06463,-0.04624 0.12768,-0.0882 0.18909,-0.12602c0.10774,-0.2539 0.44012,-0.43478 0.65035,-0.26452c0.76124,-0.11984 1.08063,0.64517 0.82465,1.6831c-0.36295,0.98155 -2.79474,4.55195 -0.38663,2.43602c1.33751,-0.60068 3.07593,-2.40606 3.90472,-3.6711c1.17869,-1.72603 3.87843,-1.45892 4.73951,-2.71984c1.40668,-2.05988 -0.22846,-2.52761 -1.26565,-4.38481c-1.29847,-1.44211 -2.02343,-2.90759 -3.90223,-3.6626c-1.97774,-0.25476 -3.97128,-0.01445 -5.86458,-0.2534c-0.60519,-0.1625 -1.11802,2.53923 -1.03067,3.65666l0.01535,-0.00467c0,0 0.20646,0.14098 0.06547,0.34744z" fill="#ffbc00" stroke="none" stroke-width="0.5" stroke-linecap="butt"/><path d="M201.45932,200.61617l-0.01545,0.00475c-0.08735,-1.11743 0.44201,-3.82875 1.0472,-3.66625c1.89329,0.23894 3.92168,-0.00057 5.89942,0.25419c1.8788,0.755 2.62841,2.24165 3.92687,3.68376c1.03719,1.8572 2.67917,2.35194 1.27249,4.41183c-0.86108,1.26093 -3.57277,1.02456 -4.75146,2.75059c-0.82879,1.26504 -2.60812,3.08786 -3.94563,3.68854c-2.40811,2.11593 0.02658,-1.55438 0.38952,-2.53593c0.25598,-1.03793 -0.07875,-1.70535 -0.83999,-1.58551c-0.21024,-0.17025 -0.55043,0.00735 -0.65817,0.26124c-0.06142,0.03783 -0.12588,0.07902 -0.19051,0.12526l0.04001,-0.04176l-0.05009,0.08886l-0.01849,-0.01259l-0.09357,0.12283c-0.07787,0.11402 -0.05112,0.2682 0.0629,0.34606c0.10843,0.07405 0.25108,0.04964 0.33209,-0.05085l0.10823,-0.08336c0.63578,-0.14719 -1.95666,2.00029 -2.60446,2.31537c-0.50863,0.22961 -1.20964,0.33188 -1.75316,0.26145c-0.08646,-0.0112 -0.24022,-0.00155 -0.38227,0.01724c0.56313,-0.3341 1.48161,-1.44121 1.68487,-1.73885c1.17082,-1.7871 1.6544,-3.49123 1.23553,-5.72287c-0.14421,-0.75497 -0.52454,-1.5088 -0.63858,-2.24548c0.08089,-0.11459 0.0108,-0.25541 0.0108,-0.25541c-0.00503,-0.00928 -0.00978,-0.01933 -0.01439,-0.03001c0.00351,-0.00462 0.00709,-0.00956 0.01053,-0.01459c0.14099,-0.20646 -0.06425,-0.34853 -0.06425,-0.34853z" data-paper-data="{&quot;noHover&quot;:false,&quot;origItem&quot;:[&quot;Path&quot;,{&quot;applyMatrix&quot;:true,&quot;segments&quot;:[[[485.48845,420.9208],[0,-0.5],[0,0.01218]],[[485.48758,420.95646],[0.00058,-0.01159],[0.01965,0.01244]],[[485.54523,420.98961],[-0.01877,-0.00965],[0,0]],[[485.81616,421.42027],[0.00436,-0.2805],[1.01922,1.0881]],[[489.40407,424.37543],[-1.0897,-1.08427],[3.20885,3.21341]],[[493.73951,435.13801],[-0.08189,-4.27218],[0,0.72083]],[[492.91704,439.9101],[0.55326,-1.18695],[0.2134,-0.19125]],[[493.52588,439.44992],[-0.15543,0.07901],[0.97714,-0.49672]],[[496.11079,437.0394],[-0.58108,0.95291],[0.71456,-1.25104]],[[497.77787,430.28033],[0.88405,-0.9602],[0,0]],[[497.73651,430.73532],[0,0],[-0.02047,0.25735]],[[497.2381,431.19513],[0.26261,0],[-0.27614,0]],[[496.7381,430.69513],[0,0.27614],[0,0]],[496.7381,430.18738],[496.7822,430.18738],[496.78257,430.18331],[[496.74612,430.09816],[0,0],[0.0546,-0.14928]],[[496.9163,429.67674],[-0.05877,0.13175],[-0.10842,-0.54086]],[[497.69209,428.50633],[-0.53926,-0.04407],[1.12213,-1.05652]],[[500.95244,430.35607],[-0.74788,-2.00299],[0.50763,2.03052]],[[503.06142,434.81554],[-1.59075,6.2108],[1.53157,-2.50066]],[[505.36998,424.34817],[0.05797,3.02416],[0,-4.18019]],[[510.1302,414.51037],[0,3.05379],[0,-4.98874]],[[503.09425,408.69581],[3.80776,1.89758],[-3.77112,-0.91731]],[[492.51822,407.04784],[3.95463,-0.87209],[-3.55383,1.80989]],[[482.54633,413.2439],[3.39651,-1.74078],[-1.18283,0.41419]],[[484.96835,420.44583],[-1.4046,-1.74705],[0,0]],[484.98845,420.4208]],&quot;closed&quot;:true}]}" fill="url(#color-14)" stroke="none" stroke-width="0.5" stroke-linecap="butt"/><path d="M203.96534,198.25672c0.06292,0.04297 0.09357,0.09202 0.10577,0.13945c1.48803,1.63384 3.62417,2.75292 5.43779,3.99964c1.71467,1.71948 0.4405,2.39325 -0.90711,3.62244c-0.28912,0.26371 -1.16485,1.38861 -1.60339,1.17139c-0.01501,-0.00744 -0.10848,-0.51219 -0.13301,-0.64238c-0.273,-0.61723 -0.10254,-2.36457 -1.19134,-2.46151c-0.5683,-0.05059 -1.2039,0.50733 -1.73121,0.95834l0.0345,0.02356l-0.20181,0.29552c-0.07787,0.11402 -0.23342,0.14333 -0.34744,0.06547c-0.10265,-0.0701 -0.13665,-0.20318 -0.08558,-0.31222l0.09884,-0.22176c0.16699,-0.40771 0.28435,-0.76611 0.2598,-1.20859c-0.42399,-1.25116 -0.97547,-4.21342 -0.10282,-5.29406c0,0 0.00727,-0.00894 0.0206,-0.02143l-0.00104,-0.0484c0,0 0.14098,-0.20646 0.34744,-0.06547zM203.86031,198.90262c-0.5547,1.08276 -0.00781,3.69553 0.33163,4.68788c0.01212,0.21118 0.00335,0.40415 -0.02364,0.59037c0.58095,-0.41224 1.50395,-0.69938 1.89854,-0.4792c1.1609,0.64779 0.81767,1.7448 1.27491,2.69366c0.01718,0.09117 2.42285,-1.22043 2.64541,-2.33589c0.08298,-0.41586 -0.54077,-1.02065 -0.79779,-1.27905c-1.77679,-1.20415 -3.83473,-2.31792 -5.32906,-3.87777z" fill="#ffbc00" stroke="none" stroke-width="0.5" stroke-linecap="butt"/><path d="M205.39484,201.14476c0.13,-0.08972 0.27518,0.00942 0.27518,0.00942c0.14776,0.1009 0.31399,0.21442 0.46175,0.31532c0.35027,0.2392 2.29654,1.23997 1.61,1.77287c-0.49274,0.38246 -2.59677,-1.59412 -2.56081,-1.90764c0,0 0.04603,-0.17998 0.21388,-0.18996z" fill="#ffbc00" stroke="none" stroke-width="0.5" stroke-linecap="butt"/><path d="M199.48996,204.52296c0.07787,-0.11402 0.23342,-0.14333 0.34744,-0.06547c0.11402,0.07787 0.14333,0.23342 0.06547,0.34744c-0.07787,0.11402 -0.23342,0.14333 -0.34744,0.06547c-0.11402,-0.07787 -0.14333,-0.23342 -0.06547,-0.34744z" fill="#ffbc00" stroke="none" stroke-width="0.5" stroke-linecap="butt"/><path d="M233.07424,210.81342l-0.5257,-16.82244c0,0 0.96051,-1.27196 2.71574,-2.26385c1.54584,-0.87355 3.82604,-1.48268 4.95775,-1.47503c1.24007,0.00838 3.70048,0.17377 5.44356,1.1556c2.09645,1.18087 3.38996,3.21412 3.38996,3.21412l-0.10514,16.1916c0,0 -1.57814,-1.85571 -3.98585,-2.7589c-1.23781,-0.46434 -3.20855,-1.34157 -4.10995,-1.34157c-0.98445,0 -2.82916,0.53002 -4.09576,1.06258c-2.12643,0.89408 -3.68461,3.03789 -3.68461,3.03789z" fill="#9086a5" stroke="none" stroke-width="0.5" stroke-linecap="butt"/><path d="M240.64433,191.04706v14.92991" fill="none" stroke="#000000" stroke-width="1.5" stroke-linecap="round"/><path d="M232.65368,193.57043l0.5257,15.45561" fill="none" stroke="#000000" stroke-width="1.5" stroke-linecap="round"/><path d="M248.74012,194.20127l-0.21028,15.35047" fill="none" stroke="#000000" stroke-width="1.5" stroke-linecap="round"/><path d="M237.57704,217.54347c0.00563,0.02251 0.00865,0.04345 0.00949,0.06293c1.17713,1.72311 1.85417,3.1924 1.37189,5.84492c-0.07335,0.40238 -0.13699,0.88282 -0.27077,1.32447c1.12606,-0.82407 2.98011,-1.83726 2.80091,-3.07955c0.162,-0.64801 -0.09957,-2.58336 0.39315,-3.04825c0.90277,-0.85178 1.22563,2.44881 1.22111,3.04825c0.09987,0.39947 0.20776,0.98244 0.23312,1.53277c0.85919,-1.39163 1.93676,-2.81632 1.92403,-4.50689c0,-2.44416 0.10446,-3.70486 1.47074,-5.69696c1.28347,-0.88587 1.18454,-1.36421 1.18454,-2.96764v-0.06987c0,0 0,-0.25 0.25,-0.25c0.25,0 0.25,0.25 0.25,0.25v0.06987c0,1.6263 0.0817,2.42744 -1.33099,3.32118c-1.22515,1.90295 -1.3243,3.01069 -1.3243,5.34341c-0.00603,0.99839 -1.51457,4.71927 -2.48222,5.39511c-0.02613,0.11225 -0.06113,0.21407 -0.10653,0.30186l-0.07592,0.02493l0.01095,0.0219l-0.27501,0.1375c-0.03474,0.01829 -0.07431,0.02865 -0.1163,0.02865c-0.13807,0 -0.25,-0.11193 -0.25,-0.25c0,-0.0998 0.05848,-0.18595 0.14304,-0.22603l0.21751,-0.10876c0.17837,-0.44384 -0.09233,-1.78358 -0.21893,-2.28995c-0.00417,-0.68965 -0.03898,-1.26827 -0.20404,-1.92643c-0.02272,-0.09058 -0.13398,-0.29471 -0.21711,-0.49178c-0.03133,0.76067 -0.14735,2.20516 -0.20061,2.41821c-0.10171,1.34685 -2.27008,3.92914 -3.94378,4.07731c-0.01516,0.01157 -0.03062,0.02285 -0.04637,0.03382l-0.02044,-0.0292c-0.0102,0.00051 -0.02038,0.00092 -0.03053,0.00124l0.01046,0.04187l-0.06063,0.01515v0.06218h-0.2795c-0.13807,0 -0.25,-0.11193 -0.25,-0.25c0,-0.11898 0.08311,-0.21854 0.19444,-0.24381l0.24451,-0.06113c0.47946,-0.29964 0.5705,-1.52983 0.66353,-2.04289c0.46652,-2.56586 -0.23722,-3.82121 -1.31505,-5.4147c-0.53615,0.86163 -0.38649,1.83223 -0.48562,2.80134h0.08018v0.48913c0,0.13807 -0.11193,0.25 -0.25,0.25c-0.11898,0 -0.21854,-0.08311 -0.24381,-0.19444l-0.06553,-0.26215c-0.67301,-1.69043 -2.44314,-4.11283 -1.81196,-6.15747c-0.87485,-1.16354 -1.20324,-2.73423 -1.20324,-4.18719c0,0 0,-0.25 0.25,-0.25c0.25,0 0.25,0.25 0.25,0.25c0,1.3382 0.27704,2.63886 0.99179,3.67287c0.05147,-0.02048 0.11735,-0.02358 0.19765,0.01657c0.2236,0.11181 0.1118,0.33541 0.1118,0.33541c-0.00516,0.00967 -0.01022,0.01937 -0.01521,0.02909c0.36044,0.41864 0.80756,0.78133 1.35458,1.0692c0.39614,0.56372 0.77027,1.07245 1.10843,1.55666c0.06316,0.01894 0.12883,0.06647 0.15653,0.17728zM236.12181,219.75677c0.03319,-0.81091 0.38007,-1.72791 0.74563,-2.22653c-0.28073,-0.41107 -0.58016,-0.85139 -0.88627,-1.34586c-0.47649,-0.22226 -0.8813,-0.51664 -1.22246,-0.86384c-0.26764,1.37525 0.66048,3.08402 1.36311,4.43623z" fill="url(#color-15)" stroke="none" stroke-width="0.5" stroke-linecap="butt"/><path d="M234.73762,215.2752c0.34116,0.34721 0.77406,0.63742 1.25055,0.85968c0.30611,0.49446 0.64852,0.98391 0.92926,1.39498c-0.36556,0.49862 -0.75502,1.46544 -0.78821,2.27636c-0.70263,-1.35221 -1.65924,-3.15577 -1.3916,-4.53101z" data-paper-data="{&quot;noHover&quot;:false,&quot;origItem&quot;:[&quot;Path&quot;,{&quot;applyMatrix&quot;:true,&quot;segments&quot;:[[[487.05805,431.4142],[-1.40526,-2.70442],[0.06638,-1.62183]],[[488.5493,426.96115],[-0.73111,0.99723],[-0.56147,-0.82214]],[[486.77676,424.26943],[0.61221,0.98893],[-0.95298,-0.44453]],[[484.33183,422.54174],[0.68232,0.69441],[-0.53529,2.7505]]],&quot;closed&quot;:true}]}" fill="url(#color-16)" stroke="none" stroke-width="0.5" stroke-linecap="butt"/><path d="M241.94452,206.77579c0.58209,0 0.88237,0.0042 1.23889,0.51471l0.08445,0.16544c1.70515,0.24813 3.46527,1.17271 4.94573,2.04472c0,0 0.21437,0.12863 0.08574,0.343c-0.12862,0.21437 -0.34299,0.08575 -0.34299,0.08575c-1.42142,-0.86531 -3.15953,-1.7514 -4.80898,-1.98681c-0.84966,-0.24139 -1.63222,-0.74183 -2.49317,-0.84861l-0.00858,0.00015l-0.14482,0.13431c-0.89922,0.11154 -2.37674,0.21255 -3.15798,0.69677c-1.67697,0.55899 -2.61897,2.50079 -3.93519,2.97142c0,0 -0.24039,0.06868 -0.30907,-0.1717c-0.06868,-0.24038 0.17171,-0.30906 0.17171,-0.30906c0.35751,-0.05091 0.63776,-0.87498 0.91528,-1.18355c0.67873,-0.75464 1.98832,-1.44136 2.94833,-1.76137c0.83234,-0.48571 2.16253,-0.5744 3.13925,-0.71405c0.04494,-0.14096 0.194,-0.15806 0.22949,-0.16013c0.03048,-0.00746 0.06482,-0.00872 0.10243,0.00082l0.11984,0.0014c0.34972,0.05479 0.68115,0.16037 1.00783,0.28354c0.07002,-0.10677 0.21179,-0.10677 0.21179,-0.10677z" fill="#ffbc00" stroke="none" stroke-width="0.5" stroke-linecap="butt"/><path d="M235.88182,216.92092l0.04522,0.01391l-0.0878,0.28535c-0.02965,0.10496 -0.12615,0.18188 -0.24061,0.18188c-0.0998,0 -0.18594,-0.05848 -0.22602,-0.14304l-0.10941,-0.21882l0.00442,-0.00221l-0.01047,-0.01081c-0.2611,-0.7164 -0.26636,-1.30622 -0.26636,-2.06697c0,0 -0.00001,-0.01029 0.00208,-0.0267c-0.0342,-0.04071 -0.06727,-0.08233 -0.09911,-0.12499c-0.97591,-0.89335 -2.36297,-3.94403 -1.25141,-4.58413c0.69859,-0.33781 1.37145,-0.77571 2.04596,-1.23567c-0.05338,-0.01259 -0.10862,-0.04734 -0.15166,-0.1248c-0.12141,-0.21854 0.09713,-0.33995 0.09713,-0.33995l0.16922,-0.09063c0.31082,-0.23795 0.65036,-0.46186 0.98659,-0.66564c0,0 0.21437,-0.12862 0.343,0.08575c0.02779,0.04632 0.03957,0.08863 0.04096,0.12651c0.48963,-0.31919 0.99008,-0.62095 1.51107,-0.87757c2.09694,-0.46838 3.63314,0.31635 5.62877,0.82623c2.06878,1.03789 3.84451,0.56482 3.84451,3.37622c0,1.68892 -2.38011,2.81134 -2.38011,4.9189c-0.02121,1.57834 -0.36506,4.13688 -1.1941,5.42921c-0.11113,0.45674 -0.91596,1.98839 -1.54275,1.48168c-0.42213,-0.34126 -0.28898,-3.11698 -0.44931,-3.75829c-0.21114,-0.56035 -0.46892,-0.96061 -0.74978,-0.78833c0.24006,0.42786 0.01495,1.73047 -0.26863,2.79646c0.14577,0.10604 0.07265,0.28886 0.07265,0.28886l-0.07245,0.15157c-0.04315,0.47593 -0.22984,0.68668 -0.49164,1.06197c0,0 -0.04192,0.05988 -0.1128,0.09222c-0.37253,0.48829 -1.25663,1.37153 -1.88844,1.55929c-0.00223,0.00814 -0.00391,0.01272 -0.00391,0.01272c-0.07317,0.19003 -0.18537,0.36954 -0.32656,0.51629l-0.15444,0.09157c0,0 -0.2236,0.1118 -0.33541,-0.11181c-0.11181,-0.2236 0.1118,-0.33541 0.1118,-0.33541l0.02449,0.0021c0.07348,-0.06922 0.13369,-0.15531 0.17641,-0.24805c-0.06346,-0.06124 -0.11363,-0.15034 -0.14721,-0.27205c-0.19556,-0.70864 0.53684,-1.78038 0.53684,-2.57509c0.00905,-0.67342 -0.04695,-1.29302 -0.18225,-1.87579c-0.03665,0.03062 -0.08861,0.05233 -0.16227,0.05233c-0.25,0 -0.25,-0.25 -0.25,-0.25c0.02878,-0.85036 -1.02476,-2.25489 -1.67038,-2.75495l-0.16178,-0.20859c0,0 -0.13179,-0.18449 0.03134,-0.32758c-0.08927,-0.0734 -0.18049,-0.14475 -0.27253,-0.21504c-0.1669,0.29011 -0.27678,0.58792 -0.41285,0.88187zM235.57584,216.33111c0.0898,-0.22477 0.2323,-0.45372 0.31662,-0.59449c-0.13638,-0.10287 -0.27093,-0.20667 -0.39991,-0.31468c0.00481,0.31565 0.02211,0.60725 0.08329,0.90917zM235.33701,214.51007c0,0.00609 -0.00015,0.01203 -0.00044,0.01783c0.00983,0.00622 0.01944,0.01175 0.02883,0.01658c0,0 0.13765,0.07508 0.13547,0.21533c0.50961,0.54405 1.2491,0.93544 1.79395,1.47758c1.60442,1.60671 2.12678,3.2452 2.16772,5.38129c0,0.36041 -0.1346,1.79257 -0.41124,2.38604c0.1067,-0.09563 0.2267,-0.19058 0.30442,-0.23009c0.48857,-0.24836 1.00192,-0.72881 1.29246,-1.20526c0.35728,-0.62552 1.27557,-3.85963 0.83354,-3.37954l-0.02068,0.2275c-0.01023,0.12867 -0.1179,0.22991 -0.24921,0.22991c-0.13807,0 -0.25,-0.11193 -0.25,-0.25v-0.25387h0.02205l0.00019,-0.00204l-0.01823,-0.04257c0.0273,-0.07464 0.0557,-0.14484 0.08509,-0.21071c-0.05421,-0.27043 0.11827,-0.60724 0.3879,-0.58521c0.56107,-0.52826 1.25624,-0.07663 1.63018,0.92487c0.25382,1.01526 0.25911,5.33514 1.05449,2.22974c0.76579,-1.25033 1.18327,-3.72161 1.15428,-5.23369c0,-2.09009 2.38011,-3.392 2.38011,-4.9189c0,-2.49437 -1.6141,-1.95849 -3.51798,-2.90728c-1.88556,-0.45865 -3.3107,-1.26003 -5.28802,-0.82398c-1.77692,0.90494 -3.28769,2.22764 -4.98594,3.09803c-0.59142,0.2071 0.50871,2.72744 1.21101,3.60097l0.01005,-0.01252c0,0 0.25,0 0.25,0.25z" fill="#ffbc00" stroke="none" stroke-width="0.5" stroke-linecap="butt"/><path d="M235.03864,214.24739l-0.01008,0.01263c-0.7023,-0.87353 -1.79418,-3.4111 -1.20276,-3.6182c1.69825,-0.87039 3.23826,-2.21208 5.01517,-3.11702c1.97732,-0.43605 3.43474,0.36891 5.32029,0.82756c1.90388,0.94879 3.53886,0.43136 3.53886,2.92574c0,1.52689 -2.37264,2.86094 -2.37264,4.95103c0.02899,1.51208 -0.41244,4.02083 -1.17823,5.27116c-0.79537,3.1054 -0.85463,-1.29861 -1.10844,-2.31387c-0.37394,-1.0015 -1.02675,-1.36389 -1.58782,-0.83563c-0.26963,-0.02203 -0.45041,0.31648 -0.3962,0.58691c-0.02938,0.06588 -0.05939,0.13623 -0.08669,0.21087l0.0095,-0.05704l0.00874,0.10164l-0.02236,0.00002l-0.008,0.1542c0,0.13807 0.10904,0.25031 0.24711,0.25031c0.1313,0 0.23534,-0.1006 0.24558,-0.22928l0.04237,-0.12988c0.44203,-0.4801 -0.48779,2.75531 -0.84507,3.38083c-0.29054,0.47645 -0.81177,0.95624 -1.30034,1.2046c-0.07772,0.0395 -0.19926,0.13418 -0.30596,0.22981c0.27663,-0.59348 0.41078,-2.02572 0.41078,-2.38613c-0.04094,-2.13609 -0.60264,-3.81608 -2.20706,-5.42279c-0.54485,-0.54214 -1.28405,-0.95018 -1.79367,-1.49422c0.00218,-0.14025 -0.13512,-0.21701 -0.13512,-0.21701c-0.00939,-0.00483 -0.01898,-0.01044 -0.02881,-0.01666c0.00029,-0.0058 0.00047,-0.0119 0.00047,-0.01799c0,-0.25 -0.24961,-0.25158 -0.24961,-0.25158z" data-paper-data="{&quot;noHover&quot;:false,&quot;origItem&quot;:[&quot;Path&quot;,{&quot;applyMatrix&quot;:true,&quot;segments&quot;:[[[485.48845,420.9208],[0,-0.5],[0,0.01218]],[[485.48758,420.95646],[0.00058,-0.01159],[0.01965,0.01244]],[[485.54523,420.98961],[-0.01877,-0.00965],[0,0]],[[485.81616,421.42027],[0.00436,-0.2805],[1.01922,1.0881]],[[489.40407,424.37543],[-1.0897,-1.08427],[3.20885,3.21341]],[[493.73951,435.13801],[-0.08189,-4.27218],[0,0.72083]],[[492.91704,439.9101],[0.55326,-1.18695],[0.2134,-0.19125]],[[493.52588,439.44992],[-0.15543,0.07901],[0.97714,-0.49672]],[[496.11079,437.0394],[-0.58108,0.95291],[0.71456,-1.25104]],[[497.77787,430.28033],[0.88405,-0.9602],[0,0]],[[497.73651,430.73532],[0,0],[-0.02047,0.25735]],[[497.2381,431.19513],[0.26261,0],[-0.27614,0]],[[496.7381,430.69513],[0,0.27614],[0,0]],[496.7381,430.18738],[496.7822,430.18738],[496.78257,430.18331],[[496.74612,430.09816],[0,0],[0.0546,-0.14928]],[[496.9163,429.67674],[-0.05877,0.13175],[-0.10842,-0.54086]],[[497.69209,428.50633],[-0.53926,-0.04407],[1.12213,-1.05652]],[[500.95244,430.35607],[-0.74788,-2.00299],[0.50763,2.03052]],[[503.06142,434.81554],[-1.59075,6.2108],[1.53157,-2.50066]],[[505.36998,424.34817],[0.05797,3.02416],[0,-4.18019]],[[510.1302,414.51037],[0,3.05379],[0,-4.98874]],[[503.09425,408.69581],[3.80776,1.89758],[-3.77112,-0.91731]],[[492.51822,407.04784],[3.95463,-0.87209],[-3.55383,1.80989]],[[482.54633,413.2439],[3.39651,-1.74078],[-1.18283,0.41419]],[[484.96835,420.44583],[-1.4046,-1.74705],[0,0]],[484.98845,420.4208]],&quot;closed&quot;:true}]}" fill="url(#color-17)" stroke="none" stroke-width="0.5" stroke-linecap="butt"/><path d="M235.77756,210.88567c0.0762,0 0.12917,0.02322 0.16599,0.05551c2.15023,0.51008 4.54539,0.22957 6.74617,0.23635c2.38568,0.45299 1.71343,1.72796 1.29376,3.50302c-0.09004,0.38083 -0.17886,1.80365 -0.66351,1.87157c-0.01659,0.00233 -0.37843,-0.3618 -0.47211,-0.45548c-0.57353,-0.35575 -1.41817,-1.89487 -2.37198,-1.3609c-0.49784,0.27871 -0.7081,1.0979 -0.88921,1.76773h0.04178v0.35785c0,0.13807 -0.11193,0.25 -0.25,0.25c-0.1243,0 -0.22743,-0.09072 -0.24675,-0.20956l-0.04343,-0.23888c-0.09203,-0.43086 -0.19723,-0.79301 -0.46703,-1.14458c-1.05572,-0.79412 -3.18169,-2.92939 -3.07046,-4.31393c0,0 0.00096,-0.01148 0.00493,-0.02931l-0.02815,-0.03938c0,0 0,-0.25 0.25,-0.25zM236.05507,211.47829c0.15254,1.20699 2.07762,3.05622 2.91756,3.68429c0.12911,0.16756 0.23068,0.33185 0.31341,0.50086c0.24728,-0.66806 0.84758,-1.4257 1.29761,-1.46639c1.324,-0.11973 1.65921,0.97976 2.57191,1.50548c0.0656,0.0656 1.31257,-2.3742 0.86731,-3.42087c-0.166,-0.39022 -1.02216,-0.5379 -1.38014,-0.60635c-2.14637,0.00761 -4.47395,0.2484 -6.58766,-0.19702z" fill="#ffbc00" stroke="none" stroke-width="0.5" stroke-linecap="butt"/><path d="M238.58675,212.46449c0.05677,-0.14741 0.23255,-0.14741 0.23255,-0.14741c0.17892,0 0.38023,0 0.55915,0c0.42416,0 2.59578,-0.27114 2.32935,0.5561c-0.19122,0.59372 -3.04344,0.148 -3.19054,-0.1312c0,0 -0.06348,-0.17459 0.06949,-0.27749z" fill="#ffbc00" stroke="none" stroke-width="0.5" stroke-linecap="butt"/><path d="M235.61554,218.58428c0,-0.13807 0.11193,-0.25 0.25,-0.25c0.13807,0 0.25,0.11193 0.25,0.25c0,0.13807 -0.11193,0.25 -0.25,0.25c-0.13807,0 -0.25,-0.11193 -0.25,-0.25z" fill="#ffbc00" stroke="none" stroke-width="0.5" stroke-linecap="butt"/><path d="M267.63055,206.28652l-8.84398,-14.31973c0,0 0.19833,-1.5815 1.2252,-3.3165c0.90437,-1.52802 2.57713,-3.19301 3.56193,-3.7507c1.07908,-0.61108 3.29426,-1.69458 5.29475,-1.71268c2.40605,-0.02177 4.54113,1.09568 4.54113,1.09568l7.98261,14.08747c0,0 -2.29328,-0.82163 -4.83067,-0.40395c-1.30448,0.21473 -3.45016,0.43702 -4.2315,0.88649c-0.85334,0.49089 -2.18805,1.87016 -3.02041,2.96336c-1.39739,1.83532 -1.67905,4.47056 -1.67905,4.47056z" fill="#9086a5" stroke="none" stroke-width="0.5" stroke-linecap="butt"/><path d="M271.78075,198.3195l-7.44462,-12.9414" fill="none" stroke="#000000" stroke-width="1.5" stroke-linecap="round"/><path d="M266.83042,204.68477l-8.16243,-13.13495" fill="none" stroke="#000000" stroke-width="1.5" stroke-linecap="round"/><path d="M272.92644,184.07532l7.47205,13.4108" fill="none" stroke="#000000" stroke-width="1.5" stroke-linecap="round"/><path d="M273.30608,198.3636c0.50456,-0.29025 0.76695,-0.43634 1.33054,-0.1716l0.15569,0.10129c1.60177,-0.63517 3.58849,-0.7114 5.30658,-0.69374c0,0 0.24996,0.0046 0.24536,0.25456c-0.0046,0.24996 -0.25455,0.24536 -0.25455,0.24536c-1.66358,-0.04128 -3.61203,0.05733 -5.15917,0.67575c-0.85685,0.21444 -1.78473,0.17086 -2.58426,0.50761l-0.00736,0.00441l-0.05856,0.18864c-0.72384,0.54506 -1.9542,1.36938 -2.38993,2.17866c-1.17489,1.32074 -1.02316,3.47363 -1.9294,4.53789c0,0 -0.17412,0.1794 -0.35352,0.00528c-0.1794,-0.17412 -0.00527,-0.35352 -0.00527,-0.35352c0.28451,-0.22239 0.11651,-1.07645 0.20321,-1.4823c0.21204,-0.99257 1.00478,-2.24084 1.67736,-2.99693c0.47929,-0.83606 1.58808,-1.57622 2.36509,-2.1843c-0.03134,-0.1446 0.08935,-0.23374 0.11908,-0.25323c0.0227,-0.02167 0.05184,-0.03988 0.08919,-0.05036l0.10458,-0.05855c0.33045,-0.12689 0.67039,-0.20063 1.01498,-0.25677c0.00745,-0.12746 0.13035,-0.19816 0.13035,-0.19816z" fill="#ffbc00" stroke="none" stroke-width="0.5" stroke-linecap="butt"/><path d="M282.14048,199.31494c1.16895,2.53553 -1.2113,6.12522 -5.31644,8.0178c-4.10514,1.89258 -8.38063,1.37138 -9.54958,-1.16415c-1.16895,-2.53553 1.2113,-6.12522 5.31644,-8.0178c4.10514,-1.89258 8.38063,-1.37138 9.54958,1.16415z" fill="#3c3c3c" stroke="none" stroke-width="0" stroke-linecap="butt"/><path d="M232.92519,137.17744l2.08888,-13.29283c0,0 0.74739,1.07822 2.0377,1.66736c0.94117,0.42973 2.34891,0.42151 3.08953,0.42151c0.74465,0 1.98868,0.28243 3.02037,-0.07903c1.75038,-0.61327 3.24625,-2.00984 3.24625,-2.00984l0.94948,12.72313c0,0 -1.31329,1.24096 -3.30629,1.88431c-1.11536,0.36005 -2.83488,0.27208 -3.70839,0.30656c-1.06343,0.04198 -2.85165,0.1011 -4.29261,-0.26586c-1.77706,-0.45255 -3.12491,-1.35531 -3.12491,-1.35531z" fill="#50dee8" stroke="none" stroke-width="0" stroke-linecap="butt"/><path d="M246.36314,123.66263c0,1.68435 -2.47254,3.04979 -5.52258,3.04979c-3.05004,0 -5.52258,-1.36544 -5.52258,-3.04978c0,-1.68435 2.47254,-3.04978 5.52258,-3.04978c3.05004,0 5.52258,1.36544 5.52258,3.04979z" fill="#41b6bf" stroke="none" stroke-width="0" stroke-linecap="butt"/></g></g></svg>