<svg version="1.1" xmlns="http://www.w3.org/2000/svg" xmlns:xlink="http://www.w3.org/1999/xlink" width="290.21573" height="203.20782" viewBox="0,0,290.21573,203.20782"><defs><linearGradient x1="259.04253" y1="113.99678" x2="303.97983" y2="157.32521" gradientUnits="userSpaceOnUse" id="color-1"><stop offset="0" stop-color="#c2c2c2"/><stop offset="1" stop-color="#c20000"/></linearGradient><linearGradient x1="222.81346" y1="276.14229" x2="222.81346" y2="338.56595" gradientUnits="userSpaceOnUse" id="color-2"><stop offset="0" stop-color="#c2c2c2"/><stop offset="1" stop-color="#c20000"/></linearGradient><linearGradient x1="222.81346" y1="276.14229" x2="222.81346" y2="338.56595" gradientUnits="userSpaceOnUse" id="color-3"><stop offset="0" stop-color="#c2c2c2"/><stop offset="1" stop-color="#c20000"/></linearGradient><linearGradient x1="222.81346" y1="276.14229" x2="222.81346" y2="338.56595" gradientUnits="userSpaceOnUse" id="color-4"><stop offset="0" stop-color="#c2c2c2"/><stop offset="1" stop-color="#c20000"/></linearGradient><linearGradient x1="222.81346" y1="276.14229" x2="222.81346" y2="338.56595" gradientUnits="userSpaceOnUse" id="color-5"><stop offset="0" stop-color="#c2c2c2"/><stop offset="1" stop-color="#c20000"/></linearGradient><linearGradient x1="222.81346" y1="276.14229" x2="222.81346" y2="338.56595" gradientUnits="userSpaceOnUse" id="color-6"><stop offset="0" stop-color="#c2c2c2"/><stop offset="1" stop-color="#c20000"/></linearGradient><radialGradient cx="269.16256" cy="223.47054" r="18.24325" gradientUnits="userSpaceOnUse" id="color-7"><stop offset="0" stop-color="#3bd9e4"/><stop offset="1" stop-color="#ffffff"/></radialGradient><linearGradient x1="156.87215" y1="121.76621" x2="132.25043" y2="152.22021" gradientUnits="userSpaceOnUse" id="color-8"><stop offset="0" stop-color="#c2c2c2"/><stop offset="1" stop-color="#c20000"/></linearGradient><linearGradient x1="250.85397" y1="116.79496" x2="250.85397" y2="147.44361" gradientUnits="userSpaceOnUse" id="color-9"><stop offset="0" stop-color="#c2c2c2"/><stop offset="1" stop-color="#c20000"/></linearGradient><linearGradient x1="168.64135" y1="177.98661" x2="186.13037" y2="209.453" gradientUnits="userSpaceOnUse" id="color-10"><stop offset="0" stop-color="#c20000"/><stop offset="1" stop-color="#c2c2c2"/></linearGradient><linearGradient x1="168.64135" y1="177.98661" x2="186.13037" y2="209.453" gradientUnits="userSpaceOnUse" id="color-11"><stop offset="0" stop-color="#c20000"/><stop offset="1" stop-color="#c2c2c2"/></linearGradient></defs><g transform="translate(-64.4916,-52.20654)"><g data-paper-data="{&quot;isPaintingLayer&quot;:true}" fill-rule="nonzero" stroke-linejoin="miter" stroke-miterlimit="10" stroke-dasharray="" stroke-dashoffset="0" style="mix-blend-mode: normal"><path d="M271.40623,219.34754c0,0.13807 -0.11193,0.25 -0.25,0.25c-0.04424,0 -0.08579,-0.01149 -0.12184,-0.03165c0.07801,-0.15143 0.144,-0.30376 0.19928,-0.45613c0.10017,0.0326 0.17256,0.12673 0.17256,0.23778z" fill="#ffbc00" stroke="none" stroke-width="0.5" stroke-linecap="butt"/><path d="M233.46391,140.52518l51.15724,-53.05681l32.71513,31.54385c-0.09668,0.17396 -0.11863,0.37778 -0.0667,0.56509c-0.20706,0.81765 1.85687,4.29235 2.01363,5.48448c0.17008,1.29338 0.11185,2.98279 -0.15373,4.25667c-0.13876,0.66552 -0.91167,2.84327 -0.74928,3.93021c-0.44103,1.02513 -2.04154,4.12647 -1.92839,5.30522c-0.66796,1.09158 -1.36532,2.16242 -1.86818,3.16191c-0.86505,1.71935 -2.14465,4.30802 -3.45952,6.24317c-0.10324,0.1406 -0.20545,0.28746 -0.30538,0.43634c-0.31379,0.43447 -0.62792,0.82525 -0.93727,1.15175c-0.36464,0.38488 -1.47247,1.18324 -1.84639,1.97998c-0.73446,0.52008 -2.61929,3.04395 -2.83415,3.28616c-0.84401,0.9515 -3.74882,2.90075 -3.72966,3.95203c0.00029,0.01572 0.00065,0.03162 0.00114,0.04767c-2.01513,1.75721 -4.51589,4.34724 -5.25827,5.04922c-1.10111,1.0412 -4.94966,2.56087 -6.58704,4.08701c-1.04239,-0.29035 -3.35986,1.64987 -3.78935,1.91838c-1.10668,0.69189 -2.61346,1.49455 -4.26147,2.19894c-0.83641,0.17666 -1.67712,0.3966 -2.52157,0.77987c-0.70324,0.31918 -3.66845,0.53859 -5.76875,0.94474c-0.0208,-0.00328 -0.04153,-0.00666 -0.0622,-0.01015c-0.04496,-0.03092 -0.09372,-0.06249 -0.14643,-0.09469c-1.07145,-0.65471 -3.00993,0.29988 -4.23729,-0.4501l-0.00864,-0.00271c-0.52301,-0.19822 -1.70468,-0.88966 -2.70259,-1.21281z" fill="url(#color-1)" stroke="#000000" stroke-width="0.5" stroke-linecap="butt"/><path d="" fill="url(#color-2)" stroke="#000000" stroke-width="0.5" stroke-linecap="butt"/><path d="" fill="url(#color-3)" stroke="#000000" stroke-width="0.5" stroke-linecap="butt"/><path d="" fill="url(#color-4)" stroke="#000000" stroke-width="0.5" stroke-linecap="butt"/><path d="" fill="url(#color-5)" stroke="#000000" stroke-width="0.5" stroke-linecap="butt"/><path d="" fill="url(#color-6)" stroke="#000000" stroke-width="0.5" stroke-linecap="butt"/><path d="M285.8485,233.11273c-2.42657,3.54853 -14.9014,4.83862 -22.66379,-0.4695c-7.76239,-5.30811 -10.29267,-15.97503 -7.86609,-19.52356c2.42657,-3.54853 8.89109,1.3651 16.65348,6.67322c7.76239,5.30812 16.30297,9.77132 13.8764,13.31985z" fill="url(#color-7)" stroke="#ffffff" stroke-width="0.5" stroke-linecap="butt"/><path d="M112.31099,162.37439l24.49718,-13.66363c0,0 8.80546,-3.12301 11.48564,-3.83069c4.03838,-1.06631 20.968,-13.09695 20.968,-13.09695l-24.62172,30.454z" fill="url(#color-8)" stroke="#000000" stroke-width="0.5" stroke-linecap="butt"/><path d="M226.77288,154.49767v-37.70271c0,0 4.61831,16.93849 8.45051,21.74829c4.09615,5.14109 6.87381,11.08955 6.87381,11.08955l7.54054,25.78378z" fill="url(#color-9)" stroke="#000000" stroke-width="0.5" stroke-linecap="butt"/><path d="M209.567,175.83353c0.24805,0.44629 0.45568,0.90936 0.62397,1.38765c-0.21055,0.13856 -0.33074,0.36861 -0.33691,0.6074c-0.43681,0.72155 0.52248,4.6475 0.32428,5.83345c-0.21503,1.28667 -0.76407,2.88544 -1.39006,4.02624c-0.32705,0.59599 -1.70222,2.45311 -1.86432,3.54009c-0.72117,0.85166 -3.15757,3.35044 -3.39357,4.51084c-0.9576,0.84894 -1.93727,1.66946 -2.71009,2.47854c-1.09254,1.14379 -2.6243,2.76735 -4.14712,4.12377c-0.73242,0.59786 -1.4889,1.18867 -2.26833,1.77086c-0.12489,0.07943 -0.24789,0.15366 -0.36865,0.22217c-0.46114,0.26162 -1.75382,0.70167 -2.3441,1.35449c-0.85432,0.28293 -3.39401,2.14638 -3.67024,2.3153c-1.08508,0.66356 -4.4325,1.67958 -4.72117,2.69063c-0.00432,0.01512 -0.00861,0.03043 -0.01283,0.04592c-1.60746,0.71938 -3.52194,1.7228 -4.90307,2.45389c-1.32719,0.5471 -2.64594,1.04311 -3.95025,1.48771c-1.73269,0.35302 -3.86498,0.71347 -5.14364,1.33734c-0.91217,-0.5821 -3.69521,0.5968 -4.18438,0.72819c-0.93263,0.25051 -2.09246,0.49503 -3.35447,0.68323c-0.85514,0.06622 -1.6904,0.10263 -2.50323,0.10908c-0.16046,-0.00321 -0.32199,-0.00336 -0.48482,0.00027c-2.68738,-0.01848 -5.11819,-0.37208 -7.19669,-1.06585c-0.33847,-0.24931 -0.7979,-0.38115 -1.28844,-0.49367c-2.25645,-0.9857 -3.99943,-2.44133 -5.07417,-4.37501c-4.82946,-8.6892 5.66348,-23.74116 23.43665,-33.61948c17.77317,-9.87832 36.0962,-10.84228 40.92566,-2.15308z" fill="url(#color-10)" stroke="url(#color-11)" stroke-width="0.5" stroke-linecap="butt"/><path d="M183.35303,151.41043l9.05277,-14.18865c0,0 1.51052,-0.50873 3.51938,-0.33799c1.76921,0.15038 3.99574,0.93325 4.92602,1.57779c1.01934,0.70625 2.95791,2.23036 3.84367,4.02417c1.06533,2.15746 0.98688,4.56601 0.98688,4.56601l-9.21797,13.31194c0,0 -0.25674,-2.42245 -1.7357,-4.52614c-0.76034,-1.08151 -1.8931,-2.91732 -2.63748,-3.42566c-0.81298,-0.55517 -2.63526,-1.15779 -3.98157,-1.43229c-2.26025,-0.46085 -4.756,0.43082 -4.756,0.43082z" fill="#9086a5" stroke="none" stroke-width="0.5" stroke-linecap="butt"/><path d="M293.50873,182.48995l11.32459,-9.72912" fill="none" stroke="#000000" stroke-width="1.5" stroke-linecap="round"/><path d="M294.9716,183.67711l8.28196,-13.05992" fill="none" stroke="#000000" stroke-width="1.5" stroke-linecap="round"/><path d="M215.24862,204.34671l8.83045,-12.55803" fill="none" stroke="#000000" stroke-width="1.5" stroke-linecap="round"/><path d="M222.54818,213.44494l-0.5257,-16.82244c0,0 0.96051,-1.27196 2.71574,-2.26385c1.54584,-0.87355 3.82604,-1.48268 4.95775,-1.47503c1.24007,0.00838 3.70048,0.17377 5.44356,1.1556c2.09645,1.18087 3.38996,3.21412 3.38996,3.21412l-0.10514,16.1916c0,0 -1.57814,-1.85571 -3.98585,-2.7589c-1.23781,-0.46434 -3.20855,-1.34157 -4.10995,-1.34157c-0.98445,0 -2.82916,0.53002 -4.09576,1.06258c-2.12643,0.89408 -3.68461,3.03789 -3.68461,3.03789z" fill="#9086a5" stroke="none" stroke-width="0.5" stroke-linecap="butt"/><path d="M240.64434,191.04706v14.92991" fill="none" stroke="#000000" stroke-width="1.5" stroke-linecap="round"/><path d="M233.17939,209.02604l-0.5257,-15.45561" fill="none" stroke="#000000" stroke-width="1.5" stroke-linecap="round"/><path d="M248.52985,209.55174l0.21028,-15.35047" fill="none" stroke="#000000" stroke-width="1.5" stroke-linecap="round"/><path d="M241.94453,206.77579c0.58209,0 0.88237,0.0042 1.23889,0.51471l0.08445,0.16544c1.70515,0.24813 3.46527,1.17271 4.94573,2.04472c0,0 0.21437,0.12863 0.08574,0.343c-0.12862,0.21437 -0.34299,0.08575 -0.34299,0.08575c-1.42142,-0.86531 -3.15953,-1.7514 -4.80898,-1.98681c-0.84966,-0.24139 -1.63222,-0.74183 -2.49317,-0.84861l-0.00858,0.00015l-0.14482,0.13431c-0.89922,0.11154 -2.37674,0.21255 -3.15798,0.69677c-1.67697,0.55899 -2.61897,2.50079 -3.93519,2.97142c0,0 -0.24039,0.06868 -0.30907,-0.1717c-0.06868,-0.24038 0.17171,-0.30906 0.17171,-0.30906c0.35751,-0.05091 0.63776,-0.87498 0.91528,-1.18355c0.67873,-0.75464 1.98832,-1.44136 2.94833,-1.76137c0.83234,-0.48571 2.16253,-0.5744 3.13925,-0.71405c0.04494,-0.14096 0.194,-0.15806 0.22949,-0.16013c0.03048,-0.00746 0.06482,-0.00872 0.10243,0.00082l0.11984,0.0014c0.34972,0.05479 0.68115,0.16037 1.00783,0.28354c0.07002,-0.10677 0.21179,-0.10677 0.21179,-0.10677z" fill="#ffbc00" stroke="none" stroke-width="0.5" stroke-linecap="butt"/><path d="M189.73762,126.81467l-8.84398,-14.31973c0,0 0.19833,-1.5815 1.2252,-3.3165c0.90437,-1.52802 2.57713,-3.19301 3.56193,-3.7507c1.07908,-0.61108 3.29426,-1.69458 5.29475,-1.71268c2.40605,-0.02177 4.54113,1.09568 4.54113,1.09568l7.98261,14.08747c0,0 -2.29328,-0.82163 -4.83067,-0.40395c-1.30448,0.21473 -3.45016,0.43702 -4.2315,0.88649c-0.85334,0.49089 -2.18805,1.87016 -3.02041,2.96336c-1.39739,1.83532 -1.67905,4.47056 -1.67905,4.47056z" fill="#9086a5" stroke="none" stroke-width="0.5" stroke-linecap="butt"/><path d="M282.75677,166.95747l7.44462,12.9414" fill="none" stroke="#000000" stroke-width="1.5" stroke-linecap="round"/><path d="M266.83044,204.68477l-8.16243,-13.13495" fill="none" stroke="#000000" stroke-width="1.5" stroke-linecap="round"/><path d="M280.39851,197.48612l-7.47205,-13.4108" fill="none" stroke="#000000" stroke-width="1.5" stroke-linecap="round"/><path d="M273.30609,198.3636c0.50456,-0.29025 0.76695,-0.43634 1.33054,-0.1716l0.15569,0.10129c1.60177,-0.63517 3.58849,-0.7114 5.30658,-0.69374c0,0 0.24996,0.0046 0.24536,0.25456c-0.0046,0.24996 -0.25455,0.24536 -0.25455,0.24536c-1.66358,-0.04128 -3.61203,0.05733 -5.15917,0.67575c-0.85685,0.21444 -1.78473,0.17086 -2.58426,0.50761l-0.00736,0.00441l-0.05856,0.18864c-0.72384,0.54506 -1.9542,1.36938 -2.38993,2.17866c-1.17489,1.32074 -1.02316,3.47363 -1.9294,4.53789c0,0 -0.17412,0.1794 -0.35352,0.00528c-0.1794,-0.17412 -0.00527,-0.35352 -0.00527,-0.35352c0.28451,-0.22239 0.11651,-1.07645 0.20321,-1.4823c0.21204,-0.99257 1.00478,-2.24084 1.67736,-2.99693c0.47929,-0.83606 1.58808,-1.57622 2.36509,-2.1843c-0.03134,-0.1446 0.08935,-0.23374 0.11908,-0.25323c0.0227,-0.02167 0.05184,-0.03988 0.08919,-0.05036l0.10458,-0.05855c0.33045,-0.12689 0.67039,-0.20063 1.01498,-0.25677c0.00745,-0.12746 0.13035,-0.19816 0.13035,-0.19816z" fill="#ffbc00" stroke="none" stroke-width="0.5" stroke-linecap="butt"/><path d="M205.97213,215.54194c-1.18299,2.32586 -5.37087,2.56907 -9.35392,0.54321c-3.98305,-2.02586 -6.25295,-5.55363 -5.06996,-7.87949c1.18299,-2.32586 5.37087,-2.56907 9.35392,-0.54321c3.98305,2.02586 6.25295,5.55363 5.06996,7.87949z" fill="#3a3a3a" stroke="none" stroke-width="0" stroke-linecap="butt"/><path d="M300.81046,214.05293c1.29453,2.26568 -0.80138,5.89951 -4.68135,8.11639c-3.87997,2.21688 -8.07473,2.17733 -9.36926,-0.08834c-1.29453,-2.26568 0.80138,-5.89951 4.68135,-8.11639c3.87997,-2.21688 8.07473,-2.17733 9.36926,0.08834z" fill="#3a3a3a" stroke="none" stroke-width="0" stroke-linecap="butt"/><path d="M232.59549,137.3423l2.08888,-13.29283c0,0 0.74739,1.07822 2.0377,1.66736c0.94117,0.42973 2.34891,0.42151 3.08953,0.42151c0.74465,0 1.98868,0.28243 3.02037,-0.07903c1.75038,-0.61327 3.24625,-2.00984 3.24625,-2.00984l0.94948,12.72313c0,0 -1.31329,1.24096 -3.30629,1.88431c-1.11536,0.36005 -2.83488,0.27208 -3.70839,0.30656c-1.06343,0.04198 -2.85165,0.1011 -4.29261,-0.26586c-1.77706,-0.45255 -3.12491,-1.35531 -3.12491,-1.35531z" fill="#50dee8" stroke="none" stroke-width="0" stroke-linecap="butt"/><path d="M255.50692,110.1436c0,1.68435 -2.47254,3.04979 -5.52258,3.04979c-3.05004,0 -5.52258,-1.36544 -5.52258,-3.04978c0,-1.68435 2.47254,-3.04978 5.52258,-3.04978c3.05004,0 5.52258,1.36544 5.52258,3.04979z" fill="#41b6bf" stroke="none" stroke-width="0" stroke-linecap="butt"/><path d="M250.08438,215.63159c-0.05532,2.60884 -3.72188,4.64693 -8.18953,4.5522c-4.46764,-0.09472 -8.04454,-2.2864 -7.98922,-4.89523c0.05532,-2.60884 3.72188,-4.64693 8.18953,-4.5522c4.46764,0.09472 8.04454,2.2864 7.98922,4.89523z" fill="#3a3a3a" stroke="none" stroke-width="0" stroke-linecap="butt"/><path d="M201.39193,86.1512c1.25,0 1.25,1.25 1.25,1.25l-0.10023,1.05574c-0.81933,1.82304 -0.5706,3.96821 -0.77751,5.95886c-0.14713,1.39977 -0.57267,2.79834 -0.43954,4.19951c0.06171,0.64949 1.31536,-0.12937 1.9572,-0.01239c0.68523,0.1249 5.131,1.67079 5.33874,1.95596c0.8059,1.10636 0.20995,5.22124 0.46035,6.7951c0.44221,2.77947 1.00323,5.61062 1.53005,8.45916c0.00834,-0.88972 0.09813,-1.70107 0.35149,-2.28256c1.77028,-4.06297 7.34125,-7.59003 10.46815,-10.62609l1.68937,-1.68941c0,0 0.88388,-0.88388 1.76777,0c0.88388,0.88388 0,1.76777 0,1.76777l-1.70243,1.70238c-2.86182,2.77887 -8.16949,6.08326 -9.8826,9.72467c-0.60094,1.27736 0.07987,4.91578 0.07987,6.34393c0,10.28996 0.51274,19.96418 2.53696,30.08527c0.58959,2.94795 0.80259,6.55157 1.90225,9.45149c0.3389,-0.06563 0.68731,-0.09669 1.04641,-0.08432c1.5529,0.0535 2.95595,1.1994 4.05685,2.29594c2.36025,2.35091 5.31302,3.68339 7.53063,6.20965c1.20706,1.37506 3.16408,2.29956 3.70931,4.04613c0.30878,0.98912 -0.30395,2.04999 -0.45592,3.07498c0,0 -0.24515,1.22573 -1.47087,0.98058c-1.22573,-0.24515 -0.98058,-1.47087 -0.98058,-1.47087c0.77797,-2.71043 -0.87623,-2.90412 -2.68493,-4.98633c-2.16663,-2.49426 -5.15818,-3.82289 -7.49001,-6.16427c-0.60891,-0.6114 -1.25729,-1.54107 -2.11853,-1.48765c-0.26216,0.01626 -0.51101,0.05373 -0.74887,0.1087c-0.10414,0.11919 -0.24579,0.23046 -0.43598,0.32555c-0.30614,0.15307 -0.57036,0.1804 -0.79268,0.13937c-1.08537,0.56825 -1.98285,1.43412 -3.03532,2.04734c-2.38181,1.38776 -4.50907,1.33463 -7.14521,1.33705h-0.89179c0,0 -1.25,0 -1.25,-1.25c0,-1.25 1.25,-1.25 1.25,-1.25h0.89179c2.00281,0.00195 3.97088,0.18031 5.76898,-0.92415c0.93627,-0.57509 1.90463,-1.36934 2.95534,-2.00104c-1.14254,-3.09282 -1.42849,-6.73872 -2.06232,-9.90786c-1.37018,-6.85088 -2.06245,-13.50958 -2.3718,-20.28323c-0.03061,0.00162 -0.06204,0.00245 -0.0943,0.00245c-1.25,0 -1.25,-1.25 -1.25,-1.25c0.01214,-7.28139 -2.00969,-14.85843 -3.14041,-22.05424c-0.28423,-1.80884 -0.37016,-1.87259 -0.25139,-3.94951c0.03388,-0.59244 0.58902,-1.28438 0.23964,-1.76402c-0.34939,-0.47965 -1.178,-0.16434 -1.75251,-0.31288c-1.20522,-0.31162 -5.01223,-0.46437 -5.64932,-1.78832c-0.54034,-1.1229 -0.05255,-4.49882 0.07969,-5.77346c0.24406,-2.32664 0.07346,-4.50907 0.96445,-6.68012l-0.10023,-0.07486c0,0 0,-1.25 1.25,-1.25z" fill="#72eeff" stroke="none" stroke-width="0.5" stroke-linecap="butt"/><path d="M166.09668,96.12739c0.88388,0.88388 0,1.76777 0,1.76777l-0.33115,0.24043c-2.1291,4.14338 -5.15079,7.94769 -7.58748,12.04519c2.04907,0.84518 4.08123,1.7417 6.1059,2.66193c3.77845,1.71733 7.68657,3.27829 11.38066,5.16876c0.97579,0.49937 2.37216,0.62596 2.87214,1.60144c0.76203,1.48676 -1.09063,6.41012 -1.34554,8.09927c-1.05428,6.98597 -0.55302,14.26745 -0.55302,21.3066c0,0 0,1.25 -1.25,1.25c-1.25,0 -1.25,-1.25 -1.25,-1.25c0,-7.16002 -0.4904,-14.55 0.57758,-21.65612c0.25124,-1.67168 0.55556,-3.3403 0.99258,-4.97329c0.15028,-0.56155 0.86877,-1.11883 0.60362,-1.63615c-0.26515,-0.51732 -1.13709,-0.25943 -1.68072,-0.46532c-0.77931,-0.29515 -1.51762,-0.68892 -2.27643,-1.03338c-3.03542,-1.37792 -6.07051,-2.75654 -9.10529,-4.13586c-2.09052,-0.95016 -4.18643,-1.87178 -6.29992,-2.73541c-0.07736,0.14952 -0.15367,0.29955 -0.22884,0.45012c0,0 -0.55902,1.11803 -1.67705,0.55902c-1.11803,-0.55902 -0.55902,-1.67705 -0.55902,-1.67705c0.04312,-0.08613 0.08667,-0.1721 0.13064,-0.25792c-4.59789,-1.7655 -9.29873,-3.20989 -14.22548,-4.03619l-2.15895,-0.75062c0,0 -1.17985,-0.41287 -0.76698,-1.59271c0.41287,-1.17985 1.59271,-0.76698 1.59271,-0.76698l1.95386,0.68858c5.13556,0.85038 10.04192,2.38173 14.83761,4.24692c2.48156,-4.14498 5.65529,-8.01817 7.68137,-12.22885l0.79945,-0.89017c0,0 0.88388,-0.88388 1.76777,0z" fill="#72eeff" stroke="none" stroke-width="0.5" stroke-linecap="butt"/><path d="M108.99341,204.51122c-1.22376,-0.2548 -0.96896,-1.47855 -0.96896,-1.47855l0.34026,-1.2554c4.10868,-6.57389 8.42535,-13.02427 12.83808,-19.39821c1.07036,-1.54608 2.61751,-4.98507 4.52756,-5.68553c2.79842,-1.02624 7.40768,0.16698 10.28103,0.48824c4.96581,0.55522 9.83562,0.54784 14.83014,0.54784c1.36943,0 2.77781,0.52795 4.10403,0.18669c0.60266,-0.15508 0.39313,-1.18454 0.6638,-1.74489c0.31854,-0.65945 0.62675,-1.32383 0.94014,-1.98574c2.43748,-5.14812 4.07881,-10.15714 7.02613,-15.06934c0,0 0.64312,-1.07187 1.71499,-0.42875c1.07187,0.64312 0.42875,1.71499 0.42875,1.71499c-2.9059,4.84317 -4.50284,9.76854 -6.91035,14.85296c-0.32678,0.69012 -1.70907,4.39946 -2.54913,4.7874c-0.51946,0.23989 -4.70536,0.18669 -5.41836,0.18669c-5.08699,0 -10.0493,0.00228 -15.10793,-0.56332c-2.54357,-0.28439 -6.54956,-1.37697 -9.04959,-0.6618c-1.51036,0.43206 -3.95467,5.56165 -4.84876,6.85307c-3.91511,5.65501 -7.70554,11.4127 -11.35054,17.2447l-0.01274,0.44c0,0 -0.2548,1.22376 -1.47855,0.96896z" fill="#72eeff" stroke="none" stroke-width="0.5" stroke-linecap="butt"/><path d="M179.22587,240.59719c0,-0.72413 0.41949,-1.02877 0.77245,-1.15693c0.3766,-1.9317 1.02424,-5.25763 1.96948,-6.04661c1.11019,-0.92668 5.41376,-0.2647 6.89938,-0.26424c5.89069,0.00187 11.69292,0.21625 17.56669,0.63436c1.77627,0.12644 5.26324,1.03406 6.95498,0.57561c0.44279,-0.11999 0.5182,-0.79958 0.91706,-1.02623c2.3757,-1.34995 5.23269,-2.26642 8.16005,-2.70551c-2.85746,-1.36118 -5.82805,-4.65567 -7.82544,-6.65083c0,0 -0.88388,-0.88388 0,-1.76777c0.88388,-0.88388 1.76777,0 1.76777,0c1.93326,1.93556 5.24773,5.77124 7.96138,6.47219c2.09298,0.54062 4.85804,-1.03776 6.71004,0.85112c0.37741,0.38493 0.71651,0.9478 1.02434,1.60382c0.28938,0.1977 0.5939,0.55774 0.48884,1.1745c0.61992,1.65387 1.10101,3.53981 1.52393,4.68672c1.9993,5.42188 2.93402,10.76645 5.17338,16.14091l0.09615,1.04607c0,0 0,1.25 -1.25,1.25c-1.25,0 -1.25,-1.25 -1.25,-1.25l0.09615,-0.08453c-2.2521,-5.40504 -3.20523,-10.79648 -5.21132,-16.23757c-0.44072,-1.19535 -0.86857,-3.1182 -1.4607,-4.68054c-4.62401,-0.93848 -10.63055,-0.05952 -14.69819,2.28293c-0.52727,0.30364 -0.75566,1.08037 -1.34413,1.23497c-2.13821,0.56172 -5.78855,-0.26392 -8.0118,-0.42218c-5.81532,-0.41394 -11.55777,-0.62624 -17.38997,-0.62805c-1.36898,-0.00043 -2.74135,0.09583 -4.10694,-0.0005c-0.42587,-0.03004 -0.94831,-0.56366 -1.25313,-0.26474c-0.38816,0.38065 -0.01197,1.09573 -0.13441,1.62542c-0.30219,1.30733 -0.82877,2.55744 -1.10854,3.86974l-1.7875,0.98787c0,0 -1.25,0 -1.25,-1.25z" fill="#72eeff" stroke="none" stroke-width="0.5" stroke-linecap="butt"/><path d="M325.57214,199.01792c-0.81815,0.94506 -1.76321,0.12691 -1.76321,0.12691l0.16516,-0.26036c-8.07339,0 -16.14677,0 -24.22016,0c0,0 -1.25,0 -1.25,-1.25c0,-1.25 1.25,-1.25 1.25,-1.25c8.07339,0 16.14677,0 24.22016,0l1.47114,0.87024c0,0 0.94506,0.81815 0.12691,1.76321z" fill="#72eeff" stroke="none" stroke-width="0.5" stroke-linecap="butt"/><path d="M353.45733,142.68108c1.25,0 1.25,1.25 1.25,1.25l-0.13197,1.68961c-1.22058,2.44116 -2.44934,4.76575 -4.07353,6.97244c-0.80162,1.08911 -2.10937,1.83112 -2.65275,3.06946c-0.19872,0.45288 0.14288,0.99565 0.05651,1.48261c-0.25524,1.43905 -1.32532,2.61283 -1.82911,3.98477c-0.88609,2.41306 0.19439,3.23979 -2.53573,4.86956c-3.73256,2.22818 -9.07065,-0.87733 -12.70166,1.09625c0,0 -1.11803,0.55902 -1.67705,-0.55902c-0.55902,-1.11803 0.55902,-1.67705 0.55902,-1.67705c3.79459,-1.79614 8.92928,0.9 12.552,-1.01493c1.46293,-0.77329 0.99545,-2.31592 1.45613,-3.57516c0.40047,-1.09466 1.50495,-2.28812 1.7127,-3.5489c0.10352,-0.6282 -0.20246,-1.32756 0.05651,-1.90918c0.28739,-0.64545 2.39696,-2.89375 3.00024,-3.71413c1.53516,-2.0876 2.6865,-4.28642 3.84065,-6.59474l-0.13197,-0.57158c0,0 0,-1.25 1.25,-1.25z" fill="#72eeff" stroke="none" stroke-width="0.5" stroke-linecap="butt"/><path d="M326.4412,78.86741c0.04369,1.00477 -0.75619,1.23628 -1.07049,1.28839c-1.66339,2.82209 -3.36619,3.38949 -6.96192,3.4077c0,0 -1.25,0 -1.25,-1.25c0,-1.25 1.25,-1.25 1.25,-1.25c2.854,0.01732 3.91277,-0.13519 5.08769,-2.67568l1.64159,-0.71493c0,0 1.24882,-0.0543 1.30312,1.19452z" fill="#72eeff" stroke="none" stroke-width="0.5" stroke-linecap="butt"/><path d="M82.43245,138.03138c-0.88388,0.88388 -1.76777,0 -1.76777,0l-0.22768,-0.32486c-5.15451,-2.53274 -9.86175,-7.01229 -13.51132,-11.40541c-0.65143,-0.78415 -2.75907,-2.81828 -2.39134,-4.24667c0.26406,-1.02569 1.90715,-1.12758 2.4276,-2.05002c0.83361,-1.47749 1.25778,-3.20015 2.29539,-4.54225c0.45247,-0.58525 1.22684,-0.90182 1.5942,-1.54391c0.78867,-1.37849 0.9585,-3.04168 1.66482,-4.46413c0,0 0.55902,-1.11803 1.67705,-0.55902c1.11803,0.55902 0.55902,1.67705 0.55902,1.67705c-0.73426,1.45727 -0.9189,3.16299 -1.72698,4.58065c-0.79198,1.38944 -2.23969,2.35046 -2.95165,3.78255c-0.73007,1.46851 -1.05234,3.73661 -2.98135,3.90052c0.09614,0.0046 0.19736,0.02024 0.23919,0.06025c0.56752,0.54279 1.01086,1.20207 1.51461,1.80451c0.91888,1.09891 1.90424,2.14271 2.91741,3.15535c2.84033,2.83885 6.12997,5.85901 9.76589,7.60188l0.90292,0.80574c0,0 0.88388,0.88388 0,1.76777z" fill="#72eeff" stroke="none" stroke-width="0.5" stroke-linecap="butt"/><path d="M242.97733,52.59938c0.88388,0.88388 0,1.76777 0,1.76777l-0.46249,0.44884c-1.80401,2.31945 -5.59407,5.50473 -4.34857,8.9435c0.50471,1.39347 2.83057,3.14758 4.05526,3.94678c0,0 1.04006,0.69338 0.34669,1.73344c-0.69338,1.04006 -1.73344,0.34669 -1.73344,0.34669c-3.42505,-2.32304 -5.99451,-5.43273 -5.04558,-9.80674c0.52813,-2.43437 3.25917,-4.77884 4.75226,-6.69852l0.66811,-0.68176c0,0 0.88388,-0.88388 1.76777,0z" fill="#72eeff" stroke="none" stroke-width="0.5" stroke-linecap="butt"/><path d="M116.68763,253.72714c-0.69338,-1.04006 0.34669,-1.73344 0.34669,-1.73344l1.48074,-0.98716c0.16967,-0.16201 0.37473,-0.24974 0.54706,-0.29725c0.24116,-0.07964 0.5823,-0.12837 0.91511,0.04338l0.43113,0.07749c-0.00566,-0.23749 0.07072,-0.4493 0.15756,-0.6116c0.00028,-0.00167 0.00056,-0.00334 0.00083,-0.00501c0,0 0.03578,-0.07157 0.10735,-0.16944c0.07022,-0.09885 0.1268,-0.15543 0.1268,-0.15543l0.02667,-0.02534c0.02207,-0.02238 0.04553,-0.0448 0.0704,-0.0669l0.8541,-0.81163c0.14759,-0.47801 0.29517,-0.95601 0.44276,-1.43402c0,0 0.39528,-1.18585 1.58114,-0.79057c1.18585,0.39528 0.79057,1.58114 0.79057,1.58114c-0.22928,0.65259 -0.45856,1.30518 -0.68784,1.95778l-1.22354,1.26771c-0.29284,0.46655 -0.58567,0.93309 -0.87851,1.39964l-1.92347,0.1526l-1.43212,0.95474c0,0 -1.04006,0.69338 -1.73344,-0.34669z" fill="#72eeff" stroke="none" stroke-width="0.5" stroke-linecap="butt"/><path d="M107.88268,248.1164c0.96028,-0.80023 1.76051,0.16005 1.76051,0.16005l1.22603,1.47124c0.71557,0.89833 1.63042,1.77317 2.73137,2.10023c0,0 1.18585,0.39528 0.79057,1.58114c-0.39528,1.18585 -1.58114,0.79057 -1.58114,0.79057c-1.50995,-0.54118 -2.81396,-1.65665 -3.86135,-2.87148l-1.22603,-1.47124c0,0 -0.80023,-0.96028 0.16005,-1.76051z" fill="#72eeff" stroke="none" stroke-width="0.5" stroke-linecap="butt"/></g></g></svg>