<svg version="1.1" xmlns="http://www.w3.org/2000/svg" xmlns:xlink="http://www.w3.org/1999/xlink" width="352.31954" height="241.17761" viewBox="0,0,352.31954,241.17761"><defs><linearGradient x1="125.82023" y1="127.02925" x2="101.19851" y2="157.48325" gradientUnits="userSpaceOnUse" id="color-1"><stop offset="0" stop-color="#c2c2c2"/><stop offset="1" stop-color="#c20000"/></linearGradient><linearGradient x1="238.74898" y1="60.48048" x2="238.74898" y2="91.12913" gradientUnits="userSpaceOnUse" id="color-2"><stop offset="0" stop-color="#c2c2c2"/><stop offset="1" stop-color="#c20000"/></linearGradient><linearGradient x1="147.0629" y1="197.45985" x2="164.55192" y2="228.92624" gradientUnits="userSpaceOnUse" id="color-3"><stop offset="0" stop-color="#c20000"/><stop offset="1" stop-color="#c2c2c2"/></linearGradient><linearGradient x1="147.0629" y1="197.45985" x2="164.55192" y2="228.92624" gradientUnits="userSpaceOnUse" id="color-4"><stop offset="0" stop-color="#c20000"/><stop offset="1" stop-color="#c2c2c2"/></linearGradient></defs><g transform="translate(-68.99259,-42.03502)"><g data-paper-data="{&quot;isPaintingLayer&quot;:true}" fill-rule="nonzero" stroke-linejoin="miter" stroke-miterlimit="10" stroke-dasharray="" stroke-dashoffset="0" style="mix-blend-mode: normal"><path d="M292.45837,242.5049c0,0.13807 -0.11193,0.25 -0.25,0.25c-0.04424,0 -0.08579,-0.01149 -0.12184,-0.03165c0.07801,-0.15143 0.144,-0.30376 0.19928,-0.45613c0.10017,0.0326 0.17256,0.12673 0.17256,0.23778z" fill="#ffbc00" stroke="none" stroke-width="0.5" stroke-linecap="butt"/><path d="M81.25907,167.63743l24.49718,-13.66363c0,0 8.80546,-3.12301 11.48564,-3.83069c4.03838,-1.06631 20.968,-13.09695 20.968,-13.09695l-24.62172,30.454z" fill="url(#color-1)" stroke="#000000" stroke-width="0.5" stroke-linecap="butt"/><path d="M214.66789,98.18319v-37.70271c0,0 4.61831,16.93849 8.45051,21.74829c4.09615,5.14109 6.87381,11.08955 6.87381,11.08955l7.54054,25.78378z" fill="url(#color-2)" stroke="#000000" stroke-width="0.5" stroke-linecap="butt"/><path d="M187.98855,195.30677c0.24805,0.44629 0.45568,0.90936 0.62397,1.38765c-0.21055,0.13856 -0.33074,0.36861 -0.33691,0.6074c-0.43681,0.72155 0.52248,4.6475 0.32428,5.83345c-0.21503,1.28667 -0.76407,2.88544 -1.39006,4.02624c-0.32705,0.59599 -1.70222,2.45311 -1.86432,3.54009c-0.72117,0.85166 -3.15757,3.35044 -3.39357,4.51084c-0.9576,0.84894 -1.93727,1.66946 -2.71009,2.47854c-1.09254,1.14379 -2.6243,2.76735 -4.14712,4.12377c-0.73242,0.59786 -1.4889,1.18867 -2.26833,1.77086c-0.12489,0.07943 -0.24789,0.15366 -0.36865,0.22217c-0.46114,0.26162 -1.75382,0.70167 -2.3441,1.35449c-0.85432,0.28293 -3.39401,2.14638 -3.67024,2.3153c-1.08508,0.66356 -4.4325,1.67958 -4.72117,2.69063c-0.00432,0.01512 -0.00861,0.03043 -0.01283,0.04592c-1.60746,0.71938 -3.52194,1.7228 -4.90307,2.45389c-1.32719,0.5471 -2.64594,1.04311 -3.95025,1.48771c-1.73269,0.35302 -3.86498,0.71347 -5.14364,1.33734c-0.91217,-0.5821 -3.69521,0.5968 -4.18438,0.72819c-0.93263,0.25051 -2.09246,0.49503 -3.35447,0.68323c-0.85514,0.06622 -1.6904,0.10263 -2.50323,0.10908c-0.16046,-0.00321 -0.32199,-0.00336 -0.48482,0.00027c-2.68738,-0.01848 -5.11819,-0.37208 -7.19669,-1.06585c-0.33847,-0.24931 -0.7979,-0.38115 -1.28844,-0.49367c-2.25645,-0.9857 -3.99943,-2.44133 -5.07417,-4.37501c-4.82946,-8.6892 5.66348,-23.74116 23.43665,-33.61948c17.77317,-9.87832 36.0962,-10.84228 40.92566,-2.15308z" fill="url(#color-3)" stroke="url(#color-4)" stroke-width="0.5" stroke-linecap="butt"/><path d="M329.04328,188.02364l-11.32459,9.72912" fill="none" stroke="#000000" stroke-width="1.5" stroke-linecap="round"/><path d="M327.46352,185.88l-8.28196,13.05992" fill="none" stroke="#000000" stroke-width="1.5" stroke-linecap="round"/><path d="M236.30076,227.50407l8.83045,-12.55803" fill="none" stroke="#000000" stroke-width="1.5" stroke-linecap="round"/><path d="M269.58199,232.7091l0.21028,-15.35047" fill="none" stroke="#000000" stroke-width="1.5" stroke-linecap="round"/><path d="M262.99667,229.93315c0.58209,0 0.88237,0.0042 1.23889,0.51471l0.08445,0.16544c1.70515,0.24813 3.46527,1.17271 4.94573,2.04472c0,0 0.21437,0.12863 0.08574,0.343c-0.12862,0.21437 -0.34299,0.08575 -0.34299,0.08575c-1.42142,-0.86531 -3.15953,-1.7514 -4.80898,-1.98681c-0.84966,-0.24139 -1.63222,-0.74183 -2.49317,-0.84861l-0.00858,0.00015l-0.14482,0.13431c-0.89922,0.11154 -2.37674,0.21255 -3.15798,0.69677c-1.67697,0.55899 -2.61897,2.50079 -3.93519,2.97142c0,0 -0.24039,0.06868 -0.30907,-0.1717c-0.06868,-0.24038 0.17171,-0.30906 0.17171,-0.30906c0.35751,-0.05091 0.63776,-0.87498 0.91528,-1.18355c0.67873,-0.75464 1.98832,-1.44136 2.94833,-1.76137c0.83234,-0.48571 2.16253,-0.5744 3.13925,-0.71405c0.04494,-0.14096 0.194,-0.15806 0.22949,-0.16013c0.03048,-0.00746 0.06482,-0.00872 0.10243,0.00082l0.11984,0.0014c0.34972,0.05479 0.68115,0.16037 1.00783,0.28354c0.07002,-0.10677 0.21179,-0.10677 0.21179,-0.10677z" fill="#ffbc00" stroke="none" stroke-width="0.5" stroke-linecap="butt"/><path d="M181.84306,116.81491l-8.84398,-14.31973c0,0 0.19833,-1.5815 1.2252,-3.3165c0.90437,-1.52802 2.57713,-3.19301 3.56193,-3.7507c1.07908,-0.61108 3.29426,-1.69458 5.29475,-1.71268c2.40605,-0.02177 4.54113,1.09568 4.54113,1.09568l7.98261,14.08747c0,0 -2.29328,-0.82163 -4.83067,-0.40395c-1.30448,0.21473 -3.45016,0.43702 -4.2315,0.88649c-0.85334,0.49089 -2.18805,1.87016 -3.02041,2.96336c-1.39739,1.83532 -1.67905,4.47056 -1.67905,4.47056z" fill="#9086a5" stroke="none" stroke-width="0.5" stroke-linecap="butt"/><path d="M290.20138,179.89887l-7.44462,-12.9414" fill="none" stroke="#000000" stroke-width="1.5" stroke-linecap="round"/><path d="M287.88258,227.84213l-8.16243,-13.13495" fill="none" stroke="#000000" stroke-width="1.5" stroke-linecap="round"/><path d="M293.9786,207.23268l7.47205,13.4108" fill="none" stroke="#000000" stroke-width="1.5" stroke-linecap="round"/><path d="M294.35823,221.52096c0.50456,-0.29025 0.76695,-0.43634 1.33054,-0.1716l0.15569,0.10129c1.60177,-0.63517 3.58849,-0.7114 5.30658,-0.69374c0,0 0.24996,0.0046 0.24536,0.25456c-0.0046,0.24996 -0.25455,0.24536 -0.25455,0.24536c-1.66358,-0.04128 -3.61203,0.05733 -5.15917,0.67575c-0.85685,0.21444 -1.78473,0.17086 -2.58426,0.50761l-0.00736,0.00441l-0.05856,0.18864c-0.72384,0.54506 -1.9542,1.36938 -2.38993,2.17866c-1.17489,1.32074 -1.02316,3.47363 -1.9294,4.53789c0,0 -0.17412,0.1794 -0.35352,0.00528c-0.1794,-0.17412 -0.00527,-0.35352 -0.00527,-0.35352c0.28451,-0.22239 0.11651,-1.07645 0.20321,-1.4823c0.21204,-0.99257 1.00478,-2.24084 1.67736,-2.99693c0.47929,-0.83606 1.58808,-1.57622 2.36509,-2.1843c-0.03134,-0.1446 0.08935,-0.23374 0.11908,-0.25323c0.0227,-0.02167 0.05184,-0.03988 0.08919,-0.05036l0.10458,-0.05855c0.33045,-0.12689 0.67039,-0.20063 1.01498,-0.25677c0.00745,-0.12746 0.13035,-0.19816 0.13035,-0.19816z" fill="#ffbc00" stroke="none" stroke-width="0.5" stroke-linecap="butt"/><path d="M212.28777,235.54148c-1.18299,2.32586 -5.37087,2.56907 -9.35392,0.54321c-3.98305,-2.02586 -6.25295,-5.55363 -5.06996,-7.87949c1.18299,-2.32586 5.37087,-2.56907 9.35392,-0.54321c3.98305,2.02586 6.25295,5.55363 5.06996,7.87949z" fill="#3a3a3a" stroke="none" stroke-width="0" stroke-linecap="butt"/><path d="M347.12517,224.57901c1.29453,2.26568 -0.80138,5.89951 -4.68135,8.11639c-3.87997,2.21688 -8.07473,2.17733 -9.36926,-0.08834c-1.29453,-2.26568 0.80138,-5.89951 4.68135,-8.11639c3.87997,-2.21688 8.07473,-2.17733 9.36926,0.08834z" fill="#3a3a3a" stroke="none" stroke-width="0" stroke-linecap="butt"/><path d="M263.6474,83.13303l2.08888,-13.29283c0,0 0.74739,1.07822 2.0377,1.66736c0.94117,0.42973 2.34891,0.42151 3.08953,0.42151c0.74465,0 1.98868,0.28243 3.02037,-0.07903c1.75038,-0.61327 3.24625,-2.00984 3.24625,-2.00984l0.94948,12.72313c0,0 -1.31329,1.24096 -3.30629,1.88431c-1.11536,0.36005 -2.83488,0.27208 -3.70839,0.30656c-1.06343,0.04198 -2.85165,0.1011 -4.29261,-0.26586c-1.77706,-0.45255 -3.12491,-1.35531 -3.12491,-1.35531z" fill="#50dee8" stroke="none" stroke-width="0" stroke-linecap="butt"/><path d="M272.7336,179.99429c0.11592,1.24461 -1.1287,1.36053 -1.1287,1.36053l-0.63676,0.03983c-5.67129,1.56487 -10.58383,5.21092 -16.16264,6.71841c-1.41848,0.3833 -2.9386,0.03073 -4.40795,0.03073c-3.33333,0 -6.66667,0 -10,0c-0.8731,0 -4.76827,0.03789 -5.16332,-0.17682c-0.80051,-0.43508 -0.97321,-1.54062 -1.4488,-2.31774c-1.82047,-2.97467 -3.17057,-7.85612 -5.90849,-10.12389c-1.14859,-0.95136 -2.79793,-0.1811 -3.67962,0.49057c-0.43709,0.33297 -3.54886,1.97541 -3.95709,2.2612c-1.74665,1.22275 -2.81803,3.52774 -4.66526,4.61676c-0.18367,0.10828 -4.63869,1.20642 -4.8351,1.25553c0,0 -0.81402,0.20351 -1.27494,-0.38988c-1.08144,7.89799 -2.06858,15.84338 -3.87653,23.59493c-0.9478,4.0637 -1.87168,8.13338 -2.87967,12.18261c-0.70158,2.81834 -1.78025,5.71072 -1.76272,8.62357v0.5653c0,0 0,1.25 -1.25,1.25c-1.25,0 -1.25,-1.25 -1.25,-1.25v-0.5653c0.03476,-6.91473 3.13257,-14.62052 4.70773,-21.37403c2.06413,-8.84994 3.02225,-17.95221 4.3403,-26.94182c-0.00333,-2.46998 -0.00325,-4.93995 -0.00325,-7.40993c0,-1.42626 0.55626,-2.92727 0.09731,-4.27766c-0.40175,-1.18209 -1.90284,-1.61687 -2.85035,-2.42987c-1.89135,-1.62287 -3.8595,-2.84979 -5.96206,-4.18279c-4.90098,-3.10717 -9.98663,-7.53244 -14.09604,-11.64185c0,0 -0.88388,-0.88388 0,-1.76777c0.88388,-0.88388 1.76777,0 1.76777,0c4.65301,4.65301 10.21952,9.11204 15.7776,12.63363c2.09585,1.32793 6.73269,3.96629 7.66846,6.42158c0.12683,0.33279 0.09731,4.78282 0.09731,5.24473c0,2.53003 -0.00008,5.06004 -0.00325,7.59007c-0.09049,0.62857 -0.17946,1.25769 -0.26738,1.88722c0.21574,-0.13869 0.41335,-0.1881 0.41335,-0.1881c1.39964,-0.34991 2.97137,-0.2654 4.20969,-1.00567c1.70431,-1.01884 2.73975,-3.26398 4.37952,-4.42802c1.2388,-0.8794 2.72231,-1.37617 3.95709,-2.2612c0.54069,-0.38753 0.84504,-1.17713 1.49406,-1.32307c0.99576,-0.22391 2.0357,0.16388 3.04694,0.30197c0.65775,0.08982 1.41863,-0.01042 1.95477,0.38107c2.64724,1.93298 4.00084,6.14527 5.50938,8.89654c0.63801,1.16359 0.6484,2.93315 1.83111,3.53498c1.15431,0.58737 2.5863,-0.17682 3.88146,-0.17682c3.33333,0 6.66667,0 10,0c1.2857,0 2.62033,0.38246 3.85699,0.03073c5.53025,-1.57287 10.39275,-5.1292 16.04863,-6.68982l1.0699,-0.11912c0,0 1.24461,-0.11592 1.36053,1.1287z" fill="#72eeff" stroke="none" stroke-width="0.5" stroke-linecap="butt"/><path d="M273.08024,142.63557c0.05005,-0.33953 0.26987,-1.08508 1.23524,-1.08508c1.25,0 1.25,1.25 1.25,1.25l-0.69098,1.68333c-2.11709,1.01869 -3.45058,2.79038 -5.8892,3.48136c-5.20188,1.47393 -12.12863,0.62621 -17.49865,0.58874c-2.10747,-0.74177 -4.83235,-1.30987 -6.72359,-2.47197c-1.3235,-0.81324 -3.65879,-3.72598 -4.60712,-4.91071c-0.56493,-0.70576 -0.89111,-1.57318 -1.33287,-2.3619c-0.40576,-0.72442 -0.9034,-1.40573 -1.20968,-2.1775c-0.0638,-0.16075 0.29452,-0.58942 0.14819,-0.49724c-5.60008,3.52769 -11.10374,7.38715 -16.36861,11.59905c0,0 -0.97609,0.78087 -1.75695,-0.19522c-0.78087,-0.97609 0.19522,-1.75695 0.19522,-1.75695c4.88033,-3.90426 9.79397,-8.17957 15.54624,-10.68117c1.01257,-0.44036 1.90681,-1.4618 3.00842,-1.3865c1.4845,0.10148 2.92898,4.91535 3.71791,5.8903c0.83637,1.03357 2.99482,3.79722 4.10362,4.43728c1.65216,0.95372 3.9114,1.36754 5.71299,2.05043c5.02407,-0.04172 11.57188,0.85113 16.41929,-0.54186c1.91319,-0.54979 3.16308,-1.92037 4.74055,-2.91441z" fill="#72eeff" stroke="none" stroke-width="0.5" stroke-linecap="butt"/><path d="M91.54665,212.77246c-1.00551,-0.74259 -0.26292,-1.74811 -0.26292,-1.74811l1.16995,-1.58418c2.41595,-3.24452 6.09809,-6.3901 9.45145,-8.70962c1.28021,-0.88552 2.9914,-1.1264 4.11999,-2.19848c0.86896,-0.82545 0.27719,-3.3672 0.27719,-4.46477c0,-4.69307 0.96754,-10.89513 -0.02223,-15.7409c-3.29952,0.49579 -6.56081,1.08724 -9.7359,1.8672c-6.30629,1.54914 -12.56382,4.44262 -18.69325,6.60294c-2.17674,0.97845 -4.35389,1.95598 -6.53106,2.93349l-1.07729,0.10966c0,0 -1.25,0 -1.25,-1.25c0,-1.25 1.25,-1.25 1.25,-1.25l0.05331,0.10966c2.2086,-0.99162 4.41722,-1.98318 6.62623,-2.97387c6.23717,-2.20429 12.60599,-5.13289 19.02636,-6.70987c3.19921,-0.78579 6.48403,-1.38233 9.8068,-1.8828c0.0549,-0.34019 0.25676,-0.72232 0.83644,-0.91555c0.86165,-0.28722 1.30591,0.26034 1.48443,0.5812c6.59256,-0.91026 13.28998,-1.53019 19.72506,-2.57776c4.11811,-0.67039 8.23179,-1.41056 12.36046,-2.01195c1.31731,-0.19188 2.7536,0.17307 3.9784,-0.34846c0.48173,-0.20512 1.70516,-2.64385 2.04386,-3.23387c0.85172,-1.48368 2.1749,-2.64568 3.35901,-3.88044c0.88659,-0.92452 0.93229,-2.42897 1.72948,-3.43161c1.83954,-2.3136 4.2966,-1.78181 4.21089,-5.39263c0,0 0,-1.25 1.25,-1.25c1.25,0 1.25,1.25 1.25,1.25c-0.03587,2.12728 0.2402,2.78782 -1.42953,4.75762c-0.88389,1.04273 -2.57414,1.20037 -3.40436,2.28632c-0.75747,0.9908 -0.82391,2.42866 -1.66232,3.35198c-1.0556,1.16251 -2.35072,2.16023 -3.12098,3.52859c-0.46112,0.81917 -1.95358,3.6411 -2.78213,4.05487c-0.56844,0.28388 -4.09437,0.64052 -5.06638,0.78214c-4.11338,0.59931 -8.21184,1.33703 -12.31472,2.00494c-6.35214,1.03407 -12.96617,1.64551 -19.47836,2.53783c0.92822,5.06582 0.07777,11.16192 0.07777,16.09124c0,1.85042 0.52112,4.51389 -0.85341,6.06136c-0.4486,0.50505 -3.90991,2.16569 -4.62158,2.65795c-3.11376,2.15379 -6.64206,5.10365 -8.86261,8.13874l-1.16995,1.58418c0,0 -0.74259,1.00551 -1.74811,0.26292z" fill="#72eeff" stroke="none" stroke-width="0.5" stroke-linecap="butt"/><path d="M75.9115,64.22356c0.56568,-1.11468 1.68036,-0.54899 1.68036,-0.54899l0.80405,0.40804c3.68931,1.87236 7.27358,4.01432 11.01126,5.78357c2.65282,1.25572 5.66856,1.76546 8.30155,3.06415c3.70242,1.82617 7.19036,4.53312 10.68316,6.7391c3.04442,1.92279 6.6922,5.28584 10.03824,6.48932c0.84221,0.30292 1.19602,-1.36157 1.58391,-2.16818c1.21029,-2.51677 2.68562,-3.9695 4.7105,-5.8624c1.691,-1.58079 3.82736,-4.01763 5.83426,-5.15106c3.33569,-1.88389 8.37086,-0.95837 12.04207,-0.95837c0,0 0.25482,0 0.53435,0.11505c2.64817,-2.52463 5.62528,-4.97741 8.38885,-6.693c4.93453,-3.06328 10.76877,-4.66686 15.55902,-7.91682l0.82271,-0.55472c0,0 1.03642,-0.69881 1.73523,0.33761c0.69881,1.03642 -0.33761,1.73523 -0.33761,1.73523l-0.82271,0.55472c-4.82612,3.23585 -10.62297,4.88211 -15.58288,7.93271c-4.0099,2.4663 -8.58037,6.66545 -11.69387,10.18152c-0.97854,1.10086 -2.64294,1.78696 -3.04216,3.20473c-0.15392,0.54662 0.36967,1.07392 0.55108,1.61204c0.89203,2.64607 2.63081,5.16433 3.91306,7.66264c3.9745,7.74383 8.36674,16.53048 14.93053,22.2738c0,0 0.94072,0.82313 0.11759,1.76385c-0.82313,0.94072 -1.76385,0.11759 -1.76385,0.11759c-7.42815,-6.49963 -12.16781,-16.50201 -16.64997,-25.23786c-1.08789,-2.12033 -4.20893,-6.12447 -3.52628,-8.78834c0.09954,-0.38845 3.17209,-3.7863 3.60148,-4.26936c0.46816,-0.52486 0.96514,-1.06269 1.4854,-1.60669c-2.96782,-0.20173 -6.74588,-0.65186 -9.01089,0.69808c-1.86962,1.11428 -3.78552,3.3241 -5.37817,4.81294c-1.0788,1.00849 -2.31783,1.88865 -3.17073,3.09424c-1.44791,2.04665 -1.52035,5.99701 -5.10516,5.59498c-1.01038,-0.11332 -1.77234,-0.99736 -2.6441,-1.52058c-2.85524,-1.71366 -5.6393,-3.56166 -8.45489,-5.33993c-3.41757,-2.15847 -6.83221,-4.82429 -10.45406,-6.61072c-2.60189,-1.28335 -5.58848,-1.78621 -8.21509,-3.02354c-3.77799,-1.77972 -7.39748,-3.94625 -11.1232,-5.83692l-0.80405,-0.40804c0,0 -1.11468,-0.56568 -0.54899,-1.68036z" fill="#72eeff" stroke="none" stroke-width="0.5" stroke-linecap="butt"/><path d="M355.83792,137.15165c-0.00415,1.24999 -1.25414,1.24584 -1.25414,1.24584l-1.3657,-0.00453c-2.50398,-0.00832 -5.00709,-0.0392 -7.51089,-0.07011c-4.30858,-0.05319 -8.33481,-0.57413 -12.58736,-1.24664c-2.11857,-0.33504 -5.74457,-0.62778 -7.579,-1.78016c-0.69075,-0.43392 -0.8771,-1.86737 -1.37119,-2.51759c-3.82999,-5.04018 -6.69709,-10.34658 -9.69027,-15.95879c0,0 -0.04165,-0.07809 -0.082,-0.20379c-8.33777,1.74639 -17.95973,4.65155 -26.34469,1.93201c0,0 -1.18585,-0.39528 -0.79057,-1.58114c0.39528,-1.18585 1.58114,-0.79057 1.58114,-0.79057c2.1016,0.72436 4.08496,0.50115 6.30061,0.50115c3.55803,0 7.60279,0.42868 11.08147,-0.52568c2.99925,-0.82283 6.0702,-1.71958 9.13722,-2.28134c4.55576,-0.83444 10.01351,0.05121 14.53962,0.67599c4.93919,0.68181 9.61263,0.76292 14.56879,1.0018c9.17691,0.44232 18.15662,1.63687 27.36956,1.69286l1.40378,0.00167c0,0 1.25,0.00149 1.24851,1.25149c-0.00149,1.25 -1.25149,1.24851 -1.25149,1.24851l-1.40988,-0.00169c-9.24913,-0.05618 -18.26506,-1.25091 -27.47727,-1.69558c-5.02671,-0.24264 -9.78415,-0.33101 -14.79384,-1.02255c-3.85737,-0.53247 -8.5831,-1.35573 -12.60646,-0.87124c2.39694,4.57732 4.55685,9.74471 7.86613,13.70883c0.06604,0.0791 2.21789,3.45205 2.28517,3.48554c1.64573,0.81937 4.61402,0.97858 6.40459,1.26085c4.13716,0.65219 8.03833,1.16451 12.22832,1.21624c2.49627,0.03082 4.99186,0.06166 7.48832,0.06993l1.3657,0.00453c0,0 1.24999,0.00415 1.24584,1.25414z" fill="#72eeff" stroke="none" stroke-width="0.5" stroke-linecap="butt"/><path d="M299.06923,149.01877c0,-1.25 1.25,-1.25 1.25,-1.25h1.1306c3.1225,0.00691 6.12034,-0.70492 9.19209,-1.24241c0.97944,-0.17138 4.04992,-0.94908 5.09289,-0.17689c1.58602,1.17427 2.83714,5.39361 3.77453,7.16427c2.39635,4.52655 5.93579,8.77232 7.10658,13.73443c1.97711,-1.09785 3.93978,-2.23588 6.03907,-3.0013c5.60513,-2.0437 10.76264,-2.68838 15.78974,-6.03978l0.92744,-0.61829c0,0 1.04006,-0.69338 1.73344,0.34669c0.69338,1.04006 -0.34669,1.73344 -0.34669,1.73344l-0.92744,0.61829c-0.2031,0.1354 -4.21047,2.81254 -4.32896,2.868c-3.68151,1.723 -8.11997,2.03873 -11.94435,3.42281c-2.2642,0.81944 -4.41964,1.95784 -6.57709,3.1026c0.01693,0.27077 0.02596,0.54389 0.02662,0.81951c0,0 0,1.25 -1.25,1.25c-0.75359,0 -1.05286,-0.45431 -1.17171,-0.81516c-2.79051,1.42076 -5.65169,2.66193 -8.8178,3.06246c-3.35522,0.42445 -4.01919,-1.04046 -6.15744,-3.17871c0,0 -0.88388,-0.88388 0,-1.76777c0.88388,-0.88388 1.76777,0 1.76777,0c0.82972,0.82972 1.30145,2.20402 2.42097,2.55553c2.0429,0.64143 6.60145,-1.45889 8.48785,-2.21175c0.69379,-0.27689 1.37386,-0.59133 2.04587,-0.92789c-0.85839,-4.98733 -4.6847,-9.34992 -7.02492,-13.76765c-0.82284,-1.5533 -1.71687,-5.05632 -2.93368,-6.25214c-0.79461,-0.78091 -2.20135,0.34598 -3.2982,0.54128c-3.21942,0.5732 -6.35192,1.27387 -9.62655,1.28045h-1.1306c0,0 -1.25,0 -1.25,-1.25z" fill="#72eeff" stroke="none" stroke-width="0.5" stroke-linecap="butt"/><path d="M304.00088,236.16348c-1.21927,-0.27545 -0.94383,-1.49472 -0.94383,-1.49472l0.4687,-2.00307c1.6286,-2.72425 1.93108,-5.36545 2.97469,-8.34299c1.22479,-3.49447 3.58108,-6.35528 4.44472,-10.00459c0.26957,-1.13905 1.92295,-5.14008 1.40379,-6.28779c-0.12994,-0.28726 -0.63428,0.14668 -0.94244,0.08008c-0.83701,-0.18089 -1.62519,-0.54039 -2.43778,-0.81058c0,0 -1.18585,-0.39528 -0.79057,-1.58114c0.39528,-1.18585 1.58114,-0.79057 1.58114,-0.79057c1.51287,0.50561 3.71749,0.16036 4.53396,1.53069c0.96683,1.62269 0.04875,4.38127 -0.33629,6.00756c-1.11144,4.69431 -3.57702,8.28838 -5.12117,12.7486c-1.03004,2.97523 -1.34903,5.65695 -2.98959,8.38105l-0.35061,1.62365c0,0 -0.27545,1.21927 -1.49472,0.94383z" fill="#72eeff" stroke="none" stroke-width="0.5" stroke-linecap="butt"/><path d="M354.08614,104.72977c-0.36961,1.19411 -1.56371,0.8245 -1.56371,0.8245l-2.00759,-0.62833c-0.71551,-0.06563 -4.10314,-0.37369 -4.79177,-0.44776c-0.57962,-0.06234 -1.24073,-0.52537 -1.73538,-0.21689c-0.44621,0.27827 -0.12744,1.06824 -0.3743,1.53256c-1.59146,2.99335 -3.66352,4.59651 -3.60382,8.1764c0,0 0,1.25 -1.25,1.25c-1.25,0 -1.25,-1.25 -1.25,-1.25c0.05284,-4.03465 1.92116,-6.08659 3.91857,-9.39077c0.45593,-0.75421 0.38867,-1.93443 1.14809,-2.38163c1.78996,-1.05406 6.44673,0.08416 8.42846,0.27655l2.25696,0.69166c0,0 1.19411,0.36961 0.8245,1.56371z" fill="#72eeff" stroke="none" stroke-width="0.5" stroke-linecap="butt"/><path d="M263.69421,116.79674c0,1.25 -1.25,1.25 -1.25,1.25c-0.5653,0 -1.6959,0 -2.2612,0c0,0 -1.25,0 -1.25,-1.25c0,-1.25 1.25,-1.25 1.25,-1.25c0.5653,0 1.1306,0 1.6959,0h0.5653c0,0 1.25,0 1.25,1.25z" fill="#72eeff" stroke="none" stroke-width="0.5" stroke-linecap="butt"/><path d="M270.18807,42.50765c0.80023,0.96028 -0.16005,1.76051 -0.16005,1.76051l-1.47124,1.22603c-2.32932,1.93661 -4.89725,3.41261 -7.31967,5.22787c-0.93448,0.70026 -2.25607,1.1106 -2.75193,2.16783c-1.42085,3.02942 -0.90465,7.49366 -2.23501,10.6818c-1.05663,2.53216 -3.14156,2.46368 -3.92609,5.00462c0,0 -0.39528,1.18585 -1.58114,0.79057c-1.18585,-0.39528 -0.79057,-1.58114 -0.79057,-1.58114c0.87014,-2.47664 3.23788,-3.05013 3.9881,-5.17076c0.721,-2.03805 1.09438,-4.52711 1.64415,-6.63177c0.35527,-1.36007 0.01303,-2.91125 0.64323,-4.16778c1.80367,-3.59625 7.6932,-5.70612 10.72847,-8.24179l1.47124,-1.22603c0,0 0.96028,-0.80023 1.76051,0.16005z" fill="#72eeff" stroke="none" stroke-width="0.5" stroke-linecap="butt"/><path d="M106.66843,262.39713c-0.88388,-0.88388 0,-1.76777 0,-1.76777l0.75581,-0.72148c3.25228,-2.06476 6.78629,-1.20832 10.55113,-1.43085c3.32575,-0.19658 6.4399,-0.93861 9.68929,-1.58263c2.31963,-0.45974 5.65009,-0.13267 7.26872,-1.91803c0,0 0.88388,-0.88388 1.76777,0c0.88388,0.88388 0,1.76777 0,1.76777c-2.02275,1.9045 -4.05942,1.85506 -6.74095,2.3017c-3.97087,0.66139 -7.79511,1.6879 -11.83731,1.92683c-3.0138,0.17814 -6.80825,-0.77201 -9.31189,1.01534l-0.37479,0.40912c0,0 -0.88388,0.88388 -1.76777,0z" fill="#72eeff" stroke="none" stroke-width="0.5" stroke-linecap="butt"/><path d="M227.21672,283.21263c-1.25,0 -1.25,-1.25 -1.25,-1.25v-1.99615c0,-1.87991 0.66089,-4.8694 0.36612,-6.61612c-0.03791,-0.22463 -0.35123,0.33625 -0.57706,0.36612c-0.72417,0.09577 -1.46096,0.00523 -2.19142,0c-1.43289,-0.01026 -2.91877,-0.24402 -4.21138,-0.86244c0,0 -1.11803,-0.55902 -0.55902,-1.67705c0.55902,-1.11803 1.67705,-0.55902 1.67705,-0.55902c1.81239,0.96318 3.27328,0.43616 5.28477,0.59851c0.78852,0.06364 1.88137,-0.27498 2.34483,0.36612c1.05877,1.46458 0.36612,6.55715 0.36612,8.38388v1.99615c0,0 0,1.25 -1.25,1.25z" fill="#72eeff" stroke="none" stroke-width="0.5" stroke-linecap="butt"/><path d="M276.51488,267.82079c-1.1981,0.35646 -1.55456,-0.84163 -1.55456,-0.84163l-0.36046,-1.21153c-0.39354,-1.33241 -0.25243,-3.07209 -1.32887,-3.95042c-0.36224,-0.29558 -0.99753,0.21493 -1.40247,-0.01875c-0.50603,-0.29202 -3.27135,-3.21984 -3.84849,-3.74051c-3.49912,-3.15677 -6.66734,-5.93263 -9.63858,-9.64669c0,0 -0.78087,-0.97609 0.19522,-1.75695c0.97609,-0.78087 1.75695,0.19522 1.75695,0.19522c2.8871,3.60888 5.95312,6.27912 9.35372,9.34561c1.14724,1.03452 1.86782,2.58824 3.22258,3.33056c0.51631,0.2829 1.31717,-0.1808 1.75308,0.21491c1.29244,1.17325 1.85601,3.72136 2.33305,5.3141l0.36046,1.21153c0,0 0.35646,1.1981 -0.84163,1.55456z" fill="#72eeff" stroke="none" stroke-width="0.5" stroke-linecap="butt"/><path d="M420.06163,139.73132c1.25,0 1.25,1.25 1.25,1.25v0.42189c0,7.23241 0.0189,14.45745 -0.17562,21.6875c-0.11473,4.2644 -1.04745,8.24845 -5.16393,10.47827c-2.92532,1.58459 -7.32363,0.80315 -10.51992,0.80315c0,0 -1.25,0 -1.25,-1.25c0,-1.25 1.25,-1.25 1.25,-1.25c2.59412,0 6.95186,0.85129 9.30976,-0.49074c4.18982,-2.38469 3.8311,-6.67019 3.93992,-10.85483c0.16573,-6.3731 0.10978,-12.74827 0.10978,-19.12336v-0.42189c0,0 0,-1.25 1.25,-1.25z" fill="#72eeff" stroke="none" stroke-width="0.5" stroke-linecap="butt"/></g></g></svg>