<svg version="1.1" xmlns="http://www.w3.org/2000/svg" xmlns:xlink="http://www.w3.org/1999/xlink" width="122.46291" height="105.18199" viewBox="0,0,122.46291,105.18199"><defs><linearGradient x1="248.69083" y1="132.71536" x2="248.69083" y2="195.13902" gradientUnits="userSpaceOnUse" id="color-1"><stop offset="0" stop-color="#c2c2c2"/><stop offset="1" stop-color="#c20000"/></linearGradient><linearGradient x1="248.69083" y1="132.71536" x2="248.69083" y2="195.13902" gradientUnits="userSpaceOnUse" id="color-2"><stop offset="0" stop-color="#c2c2c2"/><stop offset="1" stop-color="#c20000"/></linearGradient><linearGradient x1="248.69083" y1="132.71536" x2="248.69083" y2="195.13902" gradientUnits="userSpaceOnUse" id="color-3"><stop offset="0" stop-color="#c2c2c2"/><stop offset="1" stop-color="#c20000"/></linearGradient><linearGradient x1="248.69083" y1="132.71536" x2="248.69083" y2="195.13902" gradientUnits="userSpaceOnUse" id="color-4"><stop offset="0" stop-color="#c2c2c2"/><stop offset="1" stop-color="#c20000"/></linearGradient><linearGradient x1="248.69083" y1="132.71536" x2="248.69083" y2="195.13902" gradientUnits="userSpaceOnUse" id="color-5"><stop offset="0" stop-color="#c2c2c2"/><stop offset="1" stop-color="#c20000"/></linearGradient><linearGradient x1="240.70777" y1="134.04031" x2="240.70777" y2="196.46397" gradientUnits="userSpaceOnUse" id="color-6"><stop offset="0" stop-color="#c2c2c2"/><stop offset="1" stop-color="#c20000"/></linearGradient><radialGradient cx="239.87839" cy="139.27109" r="18.24325" gradientUnits="userSpaceOnUse" id="color-7"><stop offset="0" stop-color="#3bd9e4"/><stop offset="1" stop-color="#ffffff"/></radialGradient><linearGradient x1="188.43244" y1="134.64947" x2="188.43244" y2="173.81163" gradientUnits="userSpaceOnUse" id="color-8"><stop offset="0" stop-color="#c2c2c2"/><stop offset="1" stop-color="#c20000"/></linearGradient><linearGradient x1="301.90541" y1="134.16298" x2="301.90541" y2="164.81163" gradientUnits="userSpaceOnUse" id="color-9"><stop offset="0" stop-color="#c2c2c2"/><stop offset="1" stop-color="#c20000"/></linearGradient><linearGradient x1="241.0066" y1="159.94677" x2="241.0066" y2="195.94677" gradientUnits="userSpaceOnUse" id="color-10"><stop offset="0" stop-color="#c20000"/><stop offset="1" stop-color="#c2c2c2"/></linearGradient><linearGradient x1="241.0066" y1="159.94677" x2="241.0066" y2="195.94677" gradientUnits="userSpaceOnUse" id="color-11"><stop offset="0" stop-color="#c20000"/><stop offset="1" stop-color="#c2c2c2"/></linearGradient><linearGradient x1="240.7938" y1="209.73765" x2="240.7938" y2="225.9597" gradientUnits="userSpaceOnUse" id="color-12"><stop offset="0" stop-color="#ffbc00"/><stop offset="1" stop-color="#ff0076"/></linearGradient><linearGradient x1="235.80452" y1="215.2752" x2="235.80452" y2="219.80621" gradientUnits="userSpaceOnUse" id="color-13"><stop offset="0" stop-color="#ffbc00"/><stop offset="1" stop-color="#ff0076"/></linearGradient><linearGradient x1="240.67825" y1="207.39938" x2="240.67825" y2="224.05378" gradientUnits="userSpaceOnUse" id="color-14"><stop offset="0" stop-color="#ffbc00"/><stop offset="1" stop-color="#ff0076"/></linearGradient><linearGradient x1="273.78553" y1="201.50476" x2="281.87444" y2="215.56621" gradientUnits="userSpaceOnUse" id="color-15"><stop offset="0" stop-color="#ffbc00"/><stop offset="1" stop-color="#ff0076"/></linearGradient><linearGradient x1="272.22199" y1="208.79262" x2="274.48133" y2="212.72015" gradientUnits="userSpaceOnUse" id="color-16"><stop offset="0" stop-color="#ffbc00"/><stop offset="1" stop-color="#ff0076"/></linearGradient><linearGradient x1="272.51941" y1="199.53555" x2="280.82392" y2="213.97175" gradientUnits="userSpaceOnUse" id="color-17"><stop offset="0" stop-color="#ffbc00"/><stop offset="1" stop-color="#ff0076"/></linearGradient></defs><g transform="translate(-178.71719,-120.7777)"><g data-paper-data="{&quot;isPaintingLayer&quot;:true}" fill-rule="nonzero" stroke-linejoin="miter" stroke-miterlimit="10" stroke-dasharray="" stroke-dashoffset="0" style="mix-blend-mode: normal"><path d="" fill="url(#color-1)" stroke="#000000" stroke-width="0.5" stroke-linecap="butt"/><path d="" fill="url(#color-2)" stroke="#000000" stroke-width="0.5" stroke-linecap="butt"/><path d="" fill="url(#color-3)" stroke="#000000" stroke-width="0.5" stroke-linecap="butt"/><path d="" fill="url(#color-4)" stroke="#000000" stroke-width="0.5" stroke-linecap="butt"/><path d="" fill="url(#color-5)" stroke="#000000" stroke-width="0.5" stroke-linecap="butt"/><g><path d="M203.85642,134.04031h73.7027v45.44551c-0.19234,0.05115 -0.3543,0.17682 -0.45309,0.34421c-0.73233,0.41848 -1.8011,4.31605 -2.55048,5.25636c-0.81302,1.02017 -2.06961,2.15088 -3.17098,2.8439c-0.5754,0.36205 -2.67959,1.31723 -3.34934,2.18858c-1.04409,0.39406 -4.38759,1.39454 -5.1576,2.29416c-1.24943,0.27682 -2.50434,0.51808 -3.57289,0.84983c-1.83815,0.57068 -4.58985,1.44633 -6.89557,1.84297c-0.17287,0.02327 -0.34954,0.05163 -0.52608,0.08303c-0.53057,0.07568 -1.02992,0.12078 -1.47968,0.12472c-0.53017,0.00465 -1.87383,-0.23871 -2.70692,0.04514c-0.88418,-0.16773 -4.00932,0.22725 -4.33282,0.2407c-1.27079,0.05286 -4.69025,-0.68527 -5.43374,0.05822c-0.01112,0.01112 -0.02231,0.02242 -0.03352,0.03391c-2.66368,-0.23096 -6.26397,-0.23345 -7.28459,-0.28062c-1.51382,-0.06996 -5.27908,-1.78564 -7.51422,-1.90505c-0.51451,-0.95193 -3.51979,-1.27351 -4.01119,-1.39631c-1.26623,-0.31643 -2.8899,-0.844 -4.54086,-1.54144c-0.70773,-0.47949 -1.4496,-0.93204 -2.31164,-1.27391c-0.71789,-0.2847 -2.934,-2.26699 -4.6842,-3.49704c-0.01208,-0.01725 -0.02403,-0.03452 -0.03587,-0.05182c-0.00895,-0.05383 -0.02007,-0.11084 -0.03347,-0.17114c-0.27239,-1.22575 -2.30508,-1.95863 -2.6171,-3.36274l-0.00405,-0.0081c-0.22033,-0.51409 -0.54278,-1.84467 -1.0028,-2.78734z" fill="url(#color-6)" stroke="#000000" stroke-width="0.5" stroke-linecap="butt"/><path d="M259.0946,137.81163c0,4.29887 -9.5692,12.40541 -18.97297,12.40541c-9.40376,0 -17.51352,-7.37681 -17.51352,-11.67568c0,-4.29887 8.10975,-3.8919 17.51352,-3.8919c9.40377,0 18.97297,-1.1367 18.97297,3.16217z" fill="url(#color-7)" stroke="#ffffff" stroke-width="0.5" stroke-linecap="butt"/><path d="M179.31082,194.24407l10.45946,-26.02703c0,0 4.88399,-7.96467 6.52327,-10.20005c2.47,-3.36818 8.07131,-23.36752 8.07131,-23.36752v39.16216z" fill="url(#color-8)" stroke="#000000" stroke-width="0.5" stroke-linecap="butt"/><path d="M277.82432,171.86569v-37.70271c0,0 4.61831,16.93849 8.45051,21.74829c4.09615,5.14109 6.87381,11.08955 6.87381,11.08955l7.54054,25.78378z" fill="url(#color-9)" stroke="#000000" stroke-width="0.5" stroke-linecap="butt"/><path d="M277.82432,177.94677c0,0.51059 -0.04348,1.01621 -0.12874,1.51603c-0.25135,0.01882 -0.46816,0.16152 -0.58956,0.36723c-0.73233,0.41848 -1.8011,4.31605 -2.55048,5.25636c-0.81302,1.02017 -2.06961,2.15088 -3.17098,2.8439c-0.5754,0.36205 -2.67959,1.31723 -3.34934,2.18858c-1.04409,0.39406 -4.38759,1.39454 -5.1576,2.29416c-1.24943,0.27682 -2.50434,0.51808 -3.57289,0.84983c-1.51061,0.46899 -3.63821,1.14395 -5.62821,1.58975c-0.93063,0.16675 -1.87886,0.31566 -2.84296,0.44588c-0.14775,0.00875 -0.29132,0.01388 -0.43016,0.0151c-0.53017,0.00465 -1.87383,-0.23871 -2.70692,0.04514c-0.88418,-0.16773 -4.00932,0.22725 -4.33282,0.2407c-1.27079,0.05286 -4.69025,-0.68527 -5.43374,0.05822c-0.01112,0.01112 -0.02231,0.02242 -0.03352,0.03391c-1.7545,-0.15213 -3.91536,-0.20514 -5.47772,-0.23708c-1.42584,-0.16656 -2.81948,-0.37367 -4.17552,-0.6187c-1.68598,-0.53319 -3.72486,-1.25401 -5.14557,-1.32989c-0.51451,-0.95193 -3.51979,-1.27351 -4.01119,-1.39631c-0.93688,-0.23412 -2.06944,-0.58384 -3.26395,-1.03243c-0.77962,-0.35755 -1.52738,-0.7315 -2.24098,-1.12074c-0.13869,-0.08076 -0.27981,-0.15936 -0.4239,-0.23529c-2.33997,-1.3217 -4.29288,-2.81167 -5.77259,-4.42782c-0.17473,-0.38235 -0.51225,-0.72077 -0.88636,-1.05743c-1.49343,-1.95777 -2.30976,-4.07683 -2.30976,-6.28911c0,-9.94112 16.48386,-18 36.81774,-18c20.33388,0 36.81773,8.05888 36.81773,18z" fill="url(#color-10)" stroke="url(#color-11)" stroke-width="0.5" stroke-linecap="butt"/><path d="M235.66694,218.3015c0,-0.13807 0.11193,-0.25 0.25,-0.25c0.13807,0 0.25,0.11193 0.25,0.25c0,0.13807 -0.11193,0.25 -0.25,0.25c-0.13807,0 -0.25,-0.11193 -0.25,-0.25z" fill="#ffbc00" stroke="none" stroke-width="0.5" stroke-linecap="butt"/><path d="M241.94601,221.44104c0,-0.13807 0.11193,-0.25 0.25,-0.25c0.13807,0 0.25,0.11193 0.25,0.25c0,0.13807 -0.11193,0.25 -0.25,0.25c-0.13807,0 -0.25,-0.11193 -0.25,-0.25z" fill="#ffbc00" stroke="none" stroke-width="0.5" stroke-linecap="butt"/><path d="M236.71345,223.32476c0,-0.13807 0.11193,-0.25 0.25,-0.25c0.13807,0 0.25,0.11193 0.25,0.25c0,0.13807 -0.11193,0.25 -0.25,0.25c-0.13807,0 -0.25,-0.11193 -0.25,-0.25z" fill="#ffbc00" stroke="none" stroke-width="0.5" stroke-linecap="butt"/><path d="M233.07425,210.81342l-0.5257,-16.82244c0,0 0.96051,-1.27196 2.71574,-2.26385c1.54584,-0.87355 3.82604,-1.48268 4.95775,-1.47503c1.24007,0.00838 3.70048,0.17377 5.44356,1.1556c2.09645,1.18087 3.38996,3.21412 3.38996,3.21412l-0.10514,16.1916c0,0 -1.57814,-1.85571 -3.98585,-2.7589c-1.23781,-0.46434 -3.20855,-1.34157 -4.10995,-1.34157c-0.98445,0 -2.82916,0.53002 -4.09576,1.06258c-2.12643,0.89408 -3.68461,3.03789 -3.68461,3.03789z" fill="#9086a5" stroke="none" stroke-width="0.5" stroke-linecap="butt"/><path d="M240.64434,191.04706v14.92991" fill="none" stroke="#000000" stroke-width="1.5" stroke-linecap="round"/><path d="M232.65369,193.57043l0.5257,15.45561" fill="none" stroke="#000000" stroke-width="1.5" stroke-linecap="round"/><path d="M248.52985,209.55174l0.21028,-15.35047" fill="none" stroke="#000000" stroke-width="1.5" stroke-linecap="round"/><path d="M237.57705,217.54347c0.00563,0.02251 0.00865,0.04345 0.00949,0.06293c1.17713,1.72311 1.85417,3.1924 1.37189,5.84492c-0.07335,0.40238 -0.13699,0.88282 -0.27077,1.32447c1.12606,-0.82407 2.98011,-1.83726 2.80091,-3.07955c0.162,-0.64801 -0.09957,-2.58336 0.39315,-3.04825c0.90277,-0.85178 1.22563,2.44881 1.22111,3.04825c0.09987,0.39947 0.20776,0.98244 0.23312,1.53277c0.85919,-1.39163 1.93676,-2.81632 1.92403,-4.50689c0,-2.44416 0.10446,-3.70486 1.47074,-5.69696c1.28347,-0.88587 1.18454,-1.36421 1.18454,-2.96764v-0.06987c0,0 0,-0.25 0.25,-0.25c0.25,0 0.25,0.25 0.25,0.25v0.06987c0,1.6263 0.0817,2.42744 -1.33099,3.32118c-1.22515,1.90295 -1.3243,3.01069 -1.3243,5.34341c-0.00603,0.99839 -1.51457,4.71927 -2.48222,5.39511c-0.02613,0.11225 -0.06113,0.21407 -0.10653,0.30186l-0.07592,0.02493l0.01095,0.0219l-0.27501,0.1375c-0.03474,0.01829 -0.07431,0.02865 -0.1163,0.02865c-0.13807,0 -0.25,-0.11193 -0.25,-0.25c0,-0.0998 0.05848,-0.18595 0.14304,-0.22603l0.21751,-0.10876c0.17837,-0.44384 -0.09233,-1.78358 -0.21893,-2.28995c-0.00417,-0.68965 -0.03898,-1.26827 -0.20404,-1.92643c-0.02272,-0.09058 -0.13398,-0.29471 -0.21711,-0.49178c-0.03133,0.76067 -0.14735,2.20516 -0.20061,2.41821c-0.10171,1.34685 -2.27008,3.92914 -3.94378,4.07731c-0.01516,0.01157 -0.03062,0.02285 -0.04637,0.03382l-0.02044,-0.0292c-0.0102,0.00051 -0.02038,0.00092 -0.03053,0.00124l0.01046,0.04187l-0.06063,0.01515v0.06218h-0.2795c-0.13807,0 -0.25,-0.11193 -0.25,-0.25c0,-0.11898 0.08311,-0.21854 0.19444,-0.24381l0.24451,-0.06113c0.47946,-0.29964 0.5705,-1.52983 0.66353,-2.04289c0.46652,-2.56586 -0.23722,-3.82121 -1.31505,-5.4147c-0.53615,0.86163 -0.38649,1.83223 -0.48562,2.80134h0.08018v0.48913c0,0.13807 -0.11193,0.25 -0.25,0.25c-0.11898,0 -0.21854,-0.08311 -0.24381,-0.19444l-0.06553,-0.26215c-0.67301,-1.69043 -2.44314,-4.11283 -1.81196,-6.15747c-0.87485,-1.16354 -1.20324,-2.73423 -1.20324,-4.18719c0,0 0,-0.25 0.25,-0.25c0.25,0 0.25,0.25 0.25,0.25c0,1.3382 0.27704,2.63886 0.99179,3.67287c0.05147,-0.02048 0.11735,-0.02358 0.19765,0.01657c0.2236,0.11181 0.1118,0.33541 0.1118,0.33541c-0.00516,0.00967 -0.01022,0.01937 -0.01521,0.02909c0.36044,0.41864 0.80756,0.78133 1.35458,1.0692c0.39614,0.56372 0.77027,1.07245 1.10843,1.55666c0.06316,0.01894 0.12883,0.06647 0.15653,0.17728zM236.12182,219.75677c0.03319,-0.81091 0.38007,-1.72791 0.74563,-2.22653c-0.28073,-0.41107 -0.58016,-0.85139 -0.88627,-1.34586c-0.47649,-0.22226 -0.8813,-0.51664 -1.22246,-0.86384c-0.26764,1.37525 0.66048,3.08402 1.36311,4.43623z" fill="url(#color-12)" stroke="none" stroke-width="0.5" stroke-linecap="butt"/><path d="M234.73763,215.2752c0.34116,0.34721 0.77406,0.63742 1.25055,0.85968c0.30611,0.49446 0.64852,0.98391 0.92926,1.39498c-0.36556,0.49862 -0.75502,1.46544 -0.78821,2.27636c-0.70263,-1.35221 -1.65924,-3.15577 -1.3916,-4.53101z" data-paper-data="{&quot;noHover&quot;:false,&quot;origItem&quot;:[&quot;Path&quot;,{&quot;applyMatrix&quot;:true,&quot;segments&quot;:[[[487.05805,431.4142],[-1.40526,-2.70442],[0.06638,-1.62183]],[[488.5493,426.96115],[-0.73111,0.99723],[-0.56147,-0.82214]],[[486.77676,424.26943],[0.61221,0.98893],[-0.95298,-0.44453]],[[484.33183,422.54174],[0.68232,0.69441],[-0.53529,2.7505]]],&quot;closed&quot;:true}]}" fill="url(#color-13)" stroke="none" stroke-width="0.5" stroke-linecap="butt"/><path d="M241.94453,206.77579c0.58209,0 0.88237,0.0042 1.23889,0.51471l0.08445,0.16544c1.70515,0.24813 3.46527,1.17271 4.94573,2.04472c0,0 0.21437,0.12863 0.08574,0.343c-0.12862,0.21437 -0.34299,0.08575 -0.34299,0.08575c-1.42142,-0.86531 -3.15953,-1.7514 -4.80898,-1.98681c-0.84966,-0.24139 -1.63222,-0.74183 -2.49317,-0.84861l-0.00858,0.00015l-0.14482,0.13431c-0.89922,0.11154 -2.37674,0.21255 -3.15798,0.69677c-1.67697,0.55899 -2.61897,2.50079 -3.93519,2.97142c0,0 -0.24039,0.06868 -0.30907,-0.1717c-0.06868,-0.24038 0.17171,-0.30906 0.17171,-0.30906c0.35751,-0.05091 0.63776,-0.87498 0.91528,-1.18355c0.67873,-0.75464 1.98832,-1.44136 2.94833,-1.76137c0.83234,-0.48571 2.16253,-0.5744 3.13925,-0.71405c0.04494,-0.14096 0.194,-0.15806 0.22949,-0.16013c0.03048,-0.00746 0.06482,-0.00872 0.10243,0.00082l0.11984,0.0014c0.34972,0.05479 0.68115,0.16037 1.00783,0.28354c0.07002,-0.10677 0.21179,-0.10677 0.21179,-0.10677z" fill="#ffbc00" stroke="none" stroke-width="0.5" stroke-linecap="butt"/><path d="M235.88183,216.92092l0.04522,0.01391l-0.0878,0.28535c-0.02965,0.10496 -0.12615,0.18188 -0.24061,0.18188c-0.0998,0 -0.18594,-0.05848 -0.22602,-0.14304l-0.10941,-0.21882l0.00442,-0.00221l-0.01047,-0.01081c-0.2611,-0.7164 -0.26636,-1.30622 -0.26636,-2.06697c0,0 -0.00001,-0.01029 0.00208,-0.0267c-0.0342,-0.04071 -0.06727,-0.08233 -0.09911,-0.12499c-0.97591,-0.89335 -2.36297,-3.94403 -1.25141,-4.58413c0.69859,-0.33781 1.37145,-0.77571 2.04596,-1.23567c-0.05338,-0.01259 -0.10862,-0.04734 -0.15166,-0.1248c-0.12141,-0.21854 0.09713,-0.33995 0.09713,-0.33995l0.16922,-0.09063c0.31082,-0.23795 0.65036,-0.46186 0.98659,-0.66564c0,0 0.21437,-0.12862 0.343,0.08575c0.02779,0.04632 0.03957,0.08863 0.04096,0.12651c0.48963,-0.31919 0.99008,-0.62095 1.51107,-0.87757c2.09694,-0.46838 3.63314,0.31635 5.62877,0.82623c2.06878,1.03789 3.84451,0.56482 3.84451,3.37622c0,1.68892 -2.38011,2.81134 -2.38011,4.9189c-0.02121,1.57834 -0.36506,4.13688 -1.1941,5.42921c-0.11113,0.45674 -0.91596,1.98839 -1.54275,1.48168c-0.42213,-0.34126 -0.28898,-3.11698 -0.44931,-3.75829c-0.21114,-0.56035 -0.46892,-0.96061 -0.74978,-0.78833c0.24006,0.42786 0.01495,1.73047 -0.26863,2.79646c0.14577,0.10604 0.07265,0.28886 0.07265,0.28886l-0.07245,0.15157c-0.04315,0.47593 -0.22984,0.68668 -0.49164,1.06197c0,0 -0.04192,0.05988 -0.1128,0.09222c-0.37253,0.48829 -1.25663,1.37153 -1.88844,1.55929c-0.00223,0.00814 -0.00391,0.01272 -0.00391,0.01272c-0.07317,0.19003 -0.18537,0.36954 -0.32656,0.51629l-0.15444,0.09157c0,0 -0.2236,0.1118 -0.33541,-0.11181c-0.11181,-0.2236 0.1118,-0.33541 0.1118,-0.33541l0.02449,0.0021c0.07348,-0.06922 0.13369,-0.15531 0.17641,-0.24805c-0.06346,-0.06124 -0.11363,-0.15034 -0.14721,-0.27205c-0.19556,-0.70864 0.53684,-1.78038 0.53684,-2.57509c0.00905,-0.67342 -0.04695,-1.29302 -0.18225,-1.87579c-0.03665,0.03062 -0.08861,0.05233 -0.16227,0.05233c-0.25,0 -0.25,-0.25 -0.25,-0.25c0.02878,-0.85036 -1.02476,-2.25489 -1.67038,-2.75495l-0.16178,-0.20859c0,0 -0.13179,-0.18449 0.03134,-0.32758c-0.08927,-0.0734 -0.18049,-0.14475 -0.27253,-0.21504c-0.1669,0.29011 -0.27678,0.58792 -0.41285,0.88187zM235.57585,216.33111c0.0898,-0.22477 0.2323,-0.45372 0.31662,-0.59449c-0.13638,-0.10287 -0.27093,-0.20667 -0.39991,-0.31468c0.00481,0.31565 0.02211,0.60725 0.08329,0.90917zM235.33702,214.51007c0,0.00609 -0.00015,0.01203 -0.00044,0.01783c0.00983,0.00622 0.01944,0.01175 0.02883,0.01658c0,0 0.13765,0.07508 0.13547,0.21533c0.50961,0.54405 1.2491,0.93544 1.79395,1.47758c1.60442,1.60671 2.12678,3.2452 2.16772,5.38129c0,0.36041 -0.1346,1.79257 -0.41124,2.38604c0.1067,-0.09563 0.2267,-0.19058 0.30442,-0.23009c0.48857,-0.24836 1.00192,-0.72881 1.29246,-1.20526c0.35728,-0.62552 1.27557,-3.85963 0.83354,-3.37954l-0.02068,0.2275c-0.01023,0.12867 -0.1179,0.22991 -0.24921,0.22991c-0.13807,0 -0.25,-0.11193 -0.25,-0.25v-0.25387h0.02205l0.00019,-0.00204l-0.01823,-0.04257c0.0273,-0.07464 0.0557,-0.14484 0.08509,-0.21071c-0.05421,-0.27043 0.11827,-0.60724 0.3879,-0.58521c0.56107,-0.52826 1.25624,-0.07663 1.63018,0.92487c0.25382,1.01526 0.25911,5.33514 1.05449,2.22974c0.76579,-1.25033 1.18327,-3.72161 1.15428,-5.23369c0,-2.09009 2.38011,-3.392 2.38011,-4.9189c0,-2.49437 -1.6141,-1.95849 -3.51798,-2.90728c-1.88556,-0.45865 -3.3107,-1.26003 -5.28802,-0.82398c-1.77692,0.90494 -3.28769,2.22764 -4.98594,3.09803c-0.59142,0.2071 0.50871,2.72744 1.21101,3.60097l0.01005,-0.01252c0,0 0.25,0 0.25,0.25z" fill="#ffbc00" stroke="none" stroke-width="0.5" stroke-linecap="butt"/><path d="M235.03865,214.24739l-0.01008,0.01263c-0.7023,-0.87353 -1.79418,-3.4111 -1.20276,-3.6182c1.69825,-0.87039 3.23826,-2.21208 5.01517,-3.11702c1.97732,-0.43605 3.43474,0.36891 5.32029,0.82756c1.90388,0.94879 3.53886,0.43136 3.53886,2.92574c0,1.52689 -2.37264,2.86094 -2.37264,4.95103c0.02899,1.51208 -0.41244,4.02083 -1.17823,5.27116c-0.79537,3.1054 -0.85463,-1.29861 -1.10844,-2.31387c-0.37394,-1.0015 -1.02675,-1.36389 -1.58782,-0.83563c-0.26963,-0.02203 -0.45041,0.31648 -0.3962,0.58691c-0.02938,0.06588 -0.05939,0.13623 -0.08669,0.21087l0.0095,-0.05704l0.00874,0.10164l-0.02236,0.00002l-0.008,0.1542c0,0.13807 0.10904,0.25031 0.24711,0.25031c0.1313,0 0.23534,-0.1006 0.24558,-0.22928l0.04237,-0.12988c0.44203,-0.4801 -0.48779,2.75531 -0.84507,3.38083c-0.29054,0.47645 -0.81177,0.95624 -1.30034,1.2046c-0.07772,0.0395 -0.19926,0.13418 -0.30596,0.22981c0.27663,-0.59348 0.41078,-2.02572 0.41078,-2.38613c-0.04094,-2.13609 -0.60264,-3.81608 -2.20706,-5.42279c-0.54485,-0.54214 -1.28405,-0.95018 -1.79367,-1.49422c0.00218,-0.14025 -0.13512,-0.21701 -0.13512,-0.21701c-0.00939,-0.00483 -0.01898,-0.01044 -0.02881,-0.01666c0.00029,-0.0058 0.00047,-0.0119 0.00047,-0.01799c0,-0.25 -0.24961,-0.25158 -0.24961,-0.25158z" data-paper-data="{&quot;noHover&quot;:false,&quot;origItem&quot;:[&quot;Path&quot;,{&quot;applyMatrix&quot;:true,&quot;segments&quot;:[[[485.48845,420.9208],[0,-0.5],[0,0.01218]],[[485.48758,420.95646],[0.00058,-0.01159],[0.01965,0.01244]],[[485.54523,420.98961],[-0.01877,-0.00965],[0,0]],[[485.81616,421.42027],[0.00436,-0.2805],[1.01922,1.0881]],[[489.40407,424.37543],[-1.0897,-1.08427],[3.20885,3.21341]],[[493.73951,435.13801],[-0.08189,-4.27218],[0,0.72083]],[[492.91704,439.9101],[0.55326,-1.18695],[0.2134,-0.19125]],[[493.52588,439.44992],[-0.15543,0.07901],[0.97714,-0.49672]],[[496.11079,437.0394],[-0.58108,0.95291],[0.71456,-1.25104]],[[497.77787,430.28033],[0.88405,-0.9602],[0,0]],[[497.73651,430.73532],[0,0],[-0.02047,0.25735]],[[497.2381,431.19513],[0.26261,0],[-0.27614,0]],[[496.7381,430.69513],[0,0.27614],[0,0]],[496.7381,430.18738],[496.7822,430.18738],[496.78257,430.18331],[[496.74612,430.09816],[0,0],[0.0546,-0.14928]],[[496.9163,429.67674],[-0.05877,0.13175],[-0.10842,-0.54086]],[[497.69209,428.50633],[-0.53926,-0.04407],[1.12213,-1.05652]],[[500.95244,430.35607],[-0.74788,-2.00299],[0.50763,2.03052]],[[503.06142,434.81554],[-1.59075,6.2108],[1.53157,-2.50066]],[[505.36998,424.34817],[0.05797,3.02416],[0,-4.18019]],[[510.1302,414.51037],[0,3.05379],[0,-4.98874]],[[503.09425,408.69581],[3.80776,1.89758],[-3.77112,-0.91731]],[[492.51822,407.04784],[3.95463,-0.87209],[-3.55383,1.80989]],[[482.54633,413.2439],[3.39651,-1.74078],[-1.18283,0.41419]],[[484.96835,420.44583],[-1.4046,-1.74705],[0,0]],[484.98845,420.4208]],&quot;closed&quot;:true}]}" fill="url(#color-14)" stroke="none" stroke-width="0.5" stroke-linecap="butt"/><path d="M235.77757,210.88567c0.0762,0 0.12917,0.02322 0.16599,0.05551c2.15023,0.51008 4.54539,0.22957 6.74617,0.23635c2.38568,0.45299 1.71343,1.72796 1.29376,3.50302c-0.09004,0.38083 -0.17886,1.80365 -0.66351,1.87157c-0.01659,0.00233 -0.37843,-0.3618 -0.47211,-0.45548c-0.57353,-0.35575 -1.41817,-1.89487 -2.37198,-1.3609c-0.49784,0.27871 -0.7081,1.0979 -0.88921,1.76773h0.04178v0.35785c0,0.13807 -0.11193,0.25 -0.25,0.25c-0.1243,0 -0.22743,-0.09072 -0.24675,-0.20956l-0.04343,-0.23888c-0.09203,-0.43086 -0.19723,-0.79301 -0.46703,-1.14458c-1.05572,-0.79412 -3.18169,-2.92939 -3.07046,-4.31393c0,0 0.00096,-0.01148 0.00493,-0.02931l-0.02815,-0.03938c0,0 0,-0.25 0.25,-0.25zM236.05508,211.47829c0.15254,1.20699 2.07762,3.05622 2.91756,3.68429c0.12911,0.16756 0.23068,0.33185 0.31341,0.50086c0.24728,-0.66806 0.84758,-1.4257 1.29761,-1.46639c1.324,-0.11973 1.65921,0.97976 2.57191,1.50548c0.0656,0.0656 1.31257,-2.3742 0.86731,-3.42087c-0.166,-0.39022 -1.02216,-0.5379 -1.38014,-0.60635c-2.14637,0.00761 -4.47395,0.2484 -6.58766,-0.19702z" fill="#ffbc00" stroke="none" stroke-width="0.5" stroke-linecap="butt"/><path d="M238.58676,212.46449c0.05677,-0.14741 0.23255,-0.14741 0.23255,-0.14741c0.17892,0 0.38023,0 0.55915,0c0.42416,0 2.59578,-0.27114 2.32935,0.5561c-0.19122,0.59372 -3.04344,0.148 -3.19054,-0.1312c0,0 -0.06348,-0.17459 0.06949,-0.27749z" fill="#ffbc00" stroke="none" stroke-width="0.5" stroke-linecap="butt"/><path d="M235.61555,218.58428c0,-0.13807 0.11193,-0.25 0.25,-0.25c0.13807,0 0.25,0.11193 0.25,0.25c0,0.13807 -0.11193,0.25 -0.25,0.25c-0.13807,0 -0.25,-0.11193 -0.25,-0.25z" fill="#ffbc00" stroke="none" stroke-width="0.5" stroke-linecap="butt"/><path d="M201.77366,196.67254l9.05277,-14.18865c0,0 1.51052,-0.50873 3.51938,-0.33799c1.76921,0.15038 3.99574,0.93325 4.92602,1.57779c1.01934,0.70625 2.95791,2.23036 3.84367,4.02417c1.06533,2.15746 0.98688,4.56601 0.98688,4.56601l-9.21797,13.31194c0,0 -0.25674,-2.42245 -1.7357,-4.52614c-0.76034,-1.08151 -1.8931,-2.91732 -2.63748,-3.42566c-0.81298,-0.55517 -2.63526,-1.15779 -3.98157,-1.43229c-2.26025,-0.46085 -4.756,0.43082 -4.756,0.43082z" fill="#9086a5" stroke="none" stroke-width="0.5" stroke-linecap="butt"/><path d="M210.75263,196.94764l8.41962,-12.32932" fill="none" stroke="#000000" stroke-width="1.5" stroke-linecap="round"/><path d="M202.86847,195.25579l8.28196,-13.05992" fill="none" stroke="#000000" stroke-width="1.5" stroke-linecap="round"/><path d="M224.07907,191.78868l-8.83045,12.55803" fill="none" stroke="#000000" stroke-width="1.5" stroke-linecap="round"/><path d="M267.63056,206.28652l-8.84398,-14.31973c0,0 0.19833,-1.5815 1.2252,-3.3165c0.90437,-1.52802 2.57713,-3.19301 3.56193,-3.7507c1.07908,-0.61108 3.29426,-1.69458 5.29475,-1.71268c2.40605,-0.02177 4.54113,1.09568 4.54113,1.09568l7.98261,14.08747c0,0 -2.29328,-0.82163 -4.83067,-0.40395c-1.30448,0.21473 -3.45016,0.43702 -4.2315,0.88649c-0.85334,0.49089 -2.18805,1.87016 -3.02041,2.96336c-1.39739,1.83532 -1.67905,4.47056 -1.67905,4.47056z" fill="#9086a5" stroke="none" stroke-width="0.5" stroke-linecap="butt"/><path d="M264.33614,185.3781l7.44462,12.9414" fill="none" stroke="#000000" stroke-width="1.5" stroke-linecap="round"/><path d="M258.668,191.54982l8.16243,13.13495" fill="none" stroke="#000000" stroke-width="1.5" stroke-linecap="round"/><path d="M272.92644,184.07532l7.47205,13.4108" fill="none" stroke="#000000" stroke-width="1.5" stroke-linecap="round"/><path d="M274.88947,209.87493c0.0161,0.0167 0.02916,0.03336 0.0396,0.04982c1.87956,0.90665 3.19906,1.84264 4.10367,4.38236c0.13706,0.38536 0.32146,0.83355 0.42572,1.28308c0.56517,-1.27581 1.66706,-3.07855 0.89227,-4.06603c-0.1827,-0.64249 -1.37447,-2.18963 -1.17919,-2.83829c0.3578,-1.18848 2.28346,1.51152 2.57845,2.03336c0.28576,0.29647 0.66997,0.74799 0.96636,1.21238c0.05084,-1.6347 0.27448,-3.40695 -0.57953,-4.86601c-1.21875,-2.11862 -1.75684,-3.2635 -1.56587,-5.67155c0.67079,-1.40787 0.34652,-1.77317 -0.453,-3.16303l-0.03484,-0.06057c0,0 -0.12466,-0.2167 0.09204,-0.34136c0.2167,-0.12466 0.34136,0.09204 0.34136,0.09204l0.03484,0.06057c0.81093,1.40969 1.28124,2.06339 0.50236,3.54252c-0.11309,2.2604 0.35333,3.27004 1.51651,5.29207c0.49261,0.86842 1.04036,4.84593 0.53859,5.91427c0.03332,0.11032 0.05376,0.21604 0.05818,0.31477l-0.05337,0.05947l0.0204,0.01352l-0.16981,0.25631c-0.02099,0.03318 -0.05013,0.06188 -0.08653,0.08282c-0.11968,0.06885 -0.27252,0.02764 -0.34136,-0.09204c-0.04976,-0.08651 -0.04203,-0.19034 0.01128,-0.26725l0.13431,-0.20273c-0.0667,-0.47367 -0.96939,-1.49998 -1.33162,-1.87579c-0.3475,-0.59572 -0.6662,-1.07992 -1.13745,-1.56811c-0.06485,-0.06718 -0.2631,-0.18865 -0.43342,-0.31802c0.35214,0.67498 0.97186,1.98493 1.03192,2.19617c0.58343,1.21818 -0.00851,4.53777 -1.38542,5.50077c-0.00737,0.0176 -0.01515,0.03507 -0.02333,0.05244l-0.03228,-0.01511c-0.00859,0.00552 -0.01721,0.01095 -0.02585,0.01629l0.02995,0.03108l-0.045,0.04337l0.03101,0.0539l-0.24227,0.13937c-0.11968,0.06885 -0.27252,0.02764 -0.34136,-0.09204c-0.05933,-0.10313 -0.03693,-0.23087 0.04697,-0.30829l0.18146,-0.17491c0.26618,-0.49881 -0.26831,-1.61054 -0.44351,-2.10165c-0.87505,-2.45674 -2.11103,-3.19398 -3.83987,-4.03779c-0.0351,1.01421 0.5786,1.78092 0.97591,2.67038l0.0695,-0.03998l0.2439,0.42398c0.06885,0.11968 0.02764,0.27252 -0.09204,0.34136c-0.10313,0.05933 -0.23087,0.03693 -0.30829,-0.04697l-0.18752,-0.19456c-1.42628,-1.12969 -4.16855,-2.3468 -4.64097,-4.43384c-1.33852,-0.57234 -2.40636,-1.77008 -3.13087,-3.02952c0,0 -0.12466,-0.2167 0.09204,-0.34136c0.2167,-0.12466 0.34136,0.09204 0.34136,0.09204c0.66728,1.15997 1.55598,2.14925 2.69113,2.68914c0.0344,-0.04341 0.08996,-0.07895 0.17959,-0.0842c0.24957,-0.01458 0.26416,0.23499 0.26416,0.23499c0.00035,0.01095 0.00079,0.02188 0.00131,0.0328c0.52119,0.18316 1.0896,0.27459 1.70731,0.25136c0.62447,0.2911 1.20244,0.54552 1.73701,0.79662c0.0642,-0.01508 0.14482,-0.00663 0.22408,0.07561zM274.73169,212.51907c-0.37558,-0.71946 -0.53215,-1.68729 -0.46391,-2.30177c-0.44832,-0.21633 -0.92743,-0.44871 -1.43932,-0.72468c-0.52386,0.04493 -1.02154,-0.00838 -1.49039,-0.13922c0.45375,1.32554 2.11032,2.34392 3.39363,3.16567z" fill="url(#color-15)" stroke="none" stroke-width="0.5" stroke-linecap="butt"/><path d="M271.29721,209.32461c0.46885,0.13085 0.9888,0.16654 1.51266,0.12161c0.51189,0.27597 1.05276,0.52948 1.50108,0.74582c-0.06824,0.61448 0.07627,1.64674 0.45185,2.3662c-1.28331,-0.82175 -3.01183,-1.90809 -3.46558,-3.23363z" data-paper-data="{&quot;noHover&quot;:false,&quot;origItem&quot;:[&quot;Path&quot;,{&quot;applyMatrix&quot;:true,&quot;segments&quot;:[[[487.05805,431.4142],[-1.40526,-2.70442],[0.06638,-1.62183]],[[488.5493,426.96115],[-0.73111,0.99723],[-0.56147,-0.82214]],[[486.77676,424.26943],[0.61221,0.98893],[-0.95298,-0.44453]],[[484.33183,422.54174],[0.68232,0.69441],[-0.53529,2.7505]]],&quot;closed&quot;:true}]}" fill="url(#color-16)" stroke="none" stroke-width="0.5" stroke-linecap="butt"/><path d="M273.30608,198.3636c0.50456,-0.29025 0.76695,-0.43634 1.33054,-0.1716l0.15569,0.10129c1.60177,-0.63517 3.58849,-0.7114 5.30658,-0.69374c0,0 0.24996,0.0046 0.24536,0.25456c-0.0046,0.24996 -0.25455,0.24536 -0.25455,0.24536c-1.66358,-0.04128 -3.61203,0.05733 -5.15917,0.67575c-0.85685,0.21444 -1.78473,0.17086 -2.58426,0.50761l-0.00736,0.00441l-0.05856,0.18864c-0.72384,0.54506 -1.9542,1.36938 -2.38993,2.17866c-1.17489,1.32074 -1.02316,3.47363 -1.9294,4.53789c0,0 -0.17412,0.1794 -0.35352,0.00528c-0.1794,-0.17412 -0.00527,-0.35352 -0.00527,-0.35352c0.28451,-0.22239 0.11651,-1.07645 0.20321,-1.4823c0.21204,-0.99257 1.00478,-2.24084 1.67736,-2.99693c0.47929,-0.83606 1.58808,-1.57622 2.36509,-2.1843c-0.03134,-0.1446 0.08935,-0.23374 0.11908,-0.25323c0.0227,-0.02167 0.05184,-0.03988 0.08919,-0.05036l0.10458,-0.05855c0.33045,-0.12689 0.67039,-0.20063 1.01498,-0.25677c0.00745,-0.12746 0.13035,-0.19816 0.13035,-0.19816z" fill="#ffbc00" stroke="none" stroke-width="0.5" stroke-linecap="butt"/><path d="M273.10962,210.1806l0.04614,-0.01049l0.06618,0.29112c0.02663,0.10577 -0.01865,0.22056 -0.11787,0.27764c-0.08651,0.04976 -0.19034,0.04203 -0.26725,-0.01128l-0.20395,-0.13512l0.00273,-0.00412l-0.01447,-0.00415c-0.58355,-0.49079 -0.88222,-0.99942 -1.26156,-1.65885c0,0 -0.00514,-0.00892 -0.01151,-0.02419c-0.04994,-0.01824 -0.09936,-0.03782 -0.14823,-0.05892c-1.29138,-0.28774 -4.01489,-2.24046 -3.37056,-3.34957c0.4371,-0.64115 0.80199,-1.35625 1.15731,-2.09128c-0.05255,0.01571 -0.11776,0.01313 -0.19369,-0.03256c-0.21421,-0.12889 -0.08532,-0.3431 -0.08532,-0.3431l0.10149,-0.16294c0.15078,-0.36125 0.33343,-0.72464 0.52327,-1.06893c0,0 0.12168,-0.21839 0.34007,-0.0967c0.04719,0.02629 0.07849,0.05709 0.09859,0.08924c0.26526,-0.52082 0.54858,-1.03194 0.87221,-1.51417c1.5841,-1.45161 3.30699,-1.5374 5.29107,-2.09053c2.31077,-0.13191 3.6141,-1.42742 5.01597,1.00953c0.84216,1.46397 -0.66126,3.62371 0.38965,5.45057c0.76863,1.3787 1.74637,3.76792 1.67215,5.30152c0.13142,0.45132 0.19752,2.18029 -0.59845,2.05361c-0.53608,-0.08532 -1.80474,-2.55773 -2.26349,-3.03368c-0.46243,-0.38043 -0.88547,-0.59884 -1.04301,-0.30946c0.42143,0.25117 0.87584,1.49253 1.16158,2.55795c0.17924,0.01923 0.20701,0.21416 0.20701,0.21416l0.01278,0.16751c0.19991,0.43406 0.14317,0.70983 0.10338,1.16568c0,0 -0.00647,0.07281 -0.05179,0.13618c-0.07943,0.60901 -0.40537,1.81547 -0.8594,2.29326c0.00212,0.00816 0.00296,0.01298 0.00296,0.01298c0.03133,0.20121 0.02358,0.41276 -0.02562,0.61036l-0.08821,0.15638c0,0 -0.13808,0.20841 -0.34649,0.07033c-0.20841,-0.13807 -0.07034,-0.34648 -0.07034,-0.34648l0.02228,-0.01039c0.02918,-0.09664 0.03844,-0.20129 0.02923,-0.30297c-0.08554,-0.02144 -0.17346,-0.07366 -0.26326,-0.16241c-0.52286,-0.51675 -0.42243,-1.81094 -0.8187,-2.4998c-0.32795,-0.58824 -0.68544,-1.09739 -1.09332,-1.53508c-0.0165,0.04482 -0.05071,0.08954 -0.11457,0.12628c-0.2167,0.12466 -0.34136,-0.09204 -0.34136,-0.09204c-0.39907,-0.75145 -2.01265,-1.44358 -2.82163,-1.5551l-0.24424,-0.10014c0,0 -0.20623,-0.0942 -0.13618,-0.29958c-0.11398,-0.01911 -0.22863,-0.03546 -0.34346,-0.05051c0,0.33469 0.05324,0.64763 0.08187,0.97028zM272.5503,209.82192c-0.03425,-0.23961 -0.02488,-0.50913 -0.02199,-0.67319c-0.16951,-0.02116 -0.33789,-0.04405 -0.50356,-0.07336c0.16157,0.27121 0.32197,0.51535 0.52554,0.74655zM271.43522,208.36251c0.00304,0.00528 0.00588,0.0105 0.00851,0.01567c0.01162,0.00049 0.02271,0.00049 0.03325,-0.00001c0,0 0.15675,-0.00355 0.22479,0.1191c0.71302,0.21748 1.54919,0.188 2.2918,0.38625c2.1919,0.59268 3.46169,1.75248 4.56232,3.58365c0.17972,0.31241 0.77717,1.62094 0.83331,2.27331c0.04481,-0.13609 0.10148,-0.27824 0.14914,-0.35124c0.29966,-0.4589 0.50506,-1.13133 0.51933,-1.6892c-0.00221,-0.72036 -0.81889,-3.98162 -0.96264,-3.34505l0.09551,0.20751c0.05529,0.11664 0.01244,0.25807 -0.10137,0.32355c-0.11968,0.06885 -0.27252,0.02764 -0.34136,-0.09204l-0.12659,-0.22006l0.01911,-0.01099l-0.00085,-0.00186l-0.03703,-0.02782c-0.01355,-0.07831 -0.02393,-0.15332 -0.03131,-0.22507c-0.18184,-0.20738 -0.20028,-0.58533 0.04443,-0.70068c0.22293,-0.73767 1.05071,-0.69283 1.87423,-0.01118c0.72626,0.75348 2.8849,4.49535 2.02587,1.40695c0.04033,-1.46565 -0.83007,-3.81595 -1.60917,-5.11218c-1.0422,-1.81172 0.37172,-4.12704 -0.38965,-5.45057c-1.24379,-2.16215 -2.37569,-0.89279 -4.4991,-0.76587c-1.86313,0.54264 -3.49805,0.55863 -4.99458,1.92257c-1.08901,1.67045 -1.73902,3.57031 -2.77707,5.17159c-0.40938,0.47441 1.80096,2.11051 2.84529,2.5175l0.00247,-0.01586c0,0 0.2167,-0.12466 0.34136,0.09204z" fill="#ffbc00" stroke="none" stroke-width="0.5" stroke-linecap="butt"/><path d="M271.04563,208.28359l-0.00244,0.01598c-1.04433,-0.40699 -3.25612,-2.06214 -2.84674,-2.53655c1.03806,-1.60128 1.70393,-3.53217 2.79294,-5.20262c1.49653,-1.36393 3.16122,-1.39291 5.02434,-1.93556c2.12341,-0.12693 3.28262,-1.3907 4.5264,0.77145c0.76137,1.32353 -0.63006,3.66298 0.41214,5.47469c0.7791,1.29623 1.64743,3.69096 1.6071,5.15661c0.85903,3.0884 -1.38834,-0.6995 -2.1146,-1.45298c-0.82352,-0.68165 -1.57008,-0.67026 -1.79301,0.06741c-0.24471,0.11535 -0.23261,0.49892 -0.05077,0.7063c0.00738,0.07175 0.01645,0.14771 0.03,0.22602l-0.02021,-0.05418l0.05826,0.08374l-0.01937,0.01117l0.06995,0.13765c0.06885,0.11968 0.21933,0.1626 0.33901,0.09375c0.11382,-0.06547 0.15383,-0.20455 0.09854,-0.32119l-0.02804,-0.13371c0.14376,-0.63657 0.95108,2.63156 0.9533,3.35192c-0.01426,0.55787 -0.22683,1.23366 -0.52649,1.69256c-0.04767,0.07299 -0.10581,0.21567 -0.15062,0.35176c-0.05614,-0.65237 -0.65404,-1.96074 -0.83375,-2.27315c-1.10063,-1.83117 -2.42521,-3.00733 -4.61711,-3.60001c-0.74261,-0.19825 -1.58683,-0.18334 -2.29984,-0.40082c-0.06804,-0.12266 -0.22534,-0.12073 -0.22534,-0.12073c-0.01054,0.0005 -0.02166,0.00041 -0.03328,-0.00008c-0.00264,-0.00517 -0.00552,-0.01055 -0.00856,-0.01583c-0.12466,-0.2167 -0.34182,-0.0936 -0.34182,-0.0936z" data-paper-data="{&quot;noHover&quot;:false,&quot;origItem&quot;:[&quot;Path&quot;,{&quot;applyMatrix&quot;:true,&quot;segments&quot;:[[[485.48845,420.9208],[0,-0.5],[0,0.01218]],[[485.48758,420.95646],[0.00058,-0.01159],[0.01965,0.01244]],[[485.54523,420.98961],[-0.01877,-0.00965],[0,0]],[[485.81616,421.42027],[0.00436,-0.2805],[1.01922,1.0881]],[[489.40407,424.37543],[-1.0897,-1.08427],[3.20885,3.21341]],[[493.73951,435.13801],[-0.08189,-4.27218],[0,0.72083]],[[492.91704,439.9101],[0.55326,-1.18695],[0.2134,-0.19125]],[[493.52588,439.44992],[-0.15543,0.07901],[0.97714,-0.49672]],[[496.11079,437.0394],[-0.58108,0.95291],[0.71456,-1.25104]],[[497.77787,430.28033],[0.88405,-0.9602],[0,0]],[[497.73651,430.73532],[0,0],[-0.02047,0.25735]],[[497.2381,431.19513],[0.26261,0],[-0.27614,0]],[[496.7381,430.69513],[0,0.27614],[0,0]],[496.7381,430.18738],[496.7822,430.18738],[496.78257,430.18331],[[496.74612,430.09816],[0,0],[0.0546,-0.14928]],[[496.9163,429.67674],[-0.05877,0.13175],[-0.10842,-0.54086]],[[497.69209,428.50633],[-0.53926,-0.04407],[1.12213,-1.05652]],[[500.95244,430.35607],[-0.74788,-2.00299],[0.50763,2.03052]],[[503.06142,434.81554],[-1.59075,6.2108],[1.53157,-2.50066]],[[505.36998,424.34817],[0.05797,3.02416],[0,-4.18019]],[[510.1302,414.51037],[0,3.05379],[0,-4.98874]],[[503.09425,408.69581],[3.80776,1.89758],[-3.77112,-0.91731]],[[492.51822,407.04784],[3.95463,-0.87209],[-3.55383,1.80989]],[[482.54633,413.2439],[3.39651,-1.74078],[-1.18283,0.41419]],[[484.96835,420.44583],[-1.4046,-1.74705],[0,0]],[484.98845,420.4208]],&quot;closed&quot;:true}]}" fill="url(#color-17)" stroke="none" stroke-width="0.5" stroke-linecap="butt"/><path d="M270.00984,205.00116c0.06605,-0.03799 0.12354,-0.04428 0.17156,-0.03465c2.11818,-0.63004 4.05446,-2.06751 5.9655,-3.15902c2.29381,-0.79694 2.34685,0.64343 2.86818,2.39134c0.11185,0.375 0.74433,1.6526 0.3581,1.95315c-0.01323,0.01029 -0.50843,-0.12491 -0.63635,-0.1594c-0.67453,-0.02239 -2.17413,-0.93534 -2.73465,0.00312c-0.29256,0.48983 -0.06633,1.30475 0.11068,1.97567l0.03622,-0.02083l0.17844,0.31019c0.06885,0.11968 0.02764,0.27252 -0.09204,0.34136c-0.10775,0.06198 -0.24237,0.03477 -0.31838,-0.05861l-0.15676,-0.1854c-0.29461,-0.32759 -0.56638,-0.58905 -0.97556,-0.75926c-1.31109,-0.16193 -4.21863,-0.95272 -4.81259,-2.20831c0,0 -0.00489,-0.01043 -0.01034,-0.02787l-0.04404,-0.0201c0,0 -0.12466,-0.2167 0.09204,-0.34136zM270.5459,205.37648c0.73407,0.97017 3.32485,1.61319 4.3661,1.73878c0.19546,0.08087 0.36544,0.17263 0.52142,0.27787c-0.11878,-0.70238 0.02378,-1.65845 0.39358,-1.91812c1.08796,-0.76399 1.92677,0.02192 2.98005,0.02251c0.08957,0.02415 -0.04612,-2.71248 -0.95399,-3.39772c-0.33847,-0.25547 -1.15424,0.04343 -1.49866,0.1626c-1.8567,1.07686 -3.7542,2.4462 -5.8085,3.11407z" fill="#ffbc00" stroke="none" stroke-width="0.5" stroke-linecap="butt"/><path d="M273.23214,204.96893c-0.0243,-0.15608 0.12807,-0.24373 0.12807,-0.24373c0.15509,-0.08922 0.32958,-0.18959 0.48468,-0.27881c0.36766,-0.2115 2.11485,-1.52938 2.2964,-0.67946c0.1303,0.60999 -2.56429,1.64586 -2.83102,1.4772c0,0 -0.14208,-0.11968 -0.07813,-0.27518z" fill="#ffbc00" stroke="none" stroke-width="0.5" stroke-linecap="butt"/><path d="M273.70823,211.75519c-0.06885,-0.11968 -0.02764,-0.27252 0.09204,-0.34136c0.11968,-0.06885 0.27252,-0.02764 0.34136,0.09204c0.06885,0.11968 0.02764,0.27252 -0.09204,0.34136c-0.11968,0.06885 -0.27252,0.02764 -0.34136,-0.09204z" fill="#ffbc00" stroke="none" stroke-width="0.5" stroke-linecap="butt"/><path d="M215.23643,205.36891c-1.2273,2.00516 -5.39029,1.69159 -9.29831,-0.70039c-3.90802,-2.39198 -6.08117,-5.95656 -4.85387,-7.96172c1.2273,-2.00516 5.39029,-1.69159 9.29831,0.70039c3.90802,2.39198 6.08117,5.95656 4.85387,7.96172z" fill="#3a3a3a" stroke="none" stroke-width="NaN" stroke-linecap="butt"/><path d="M198.90841,209.85542c0,-0.07197 0.13613,-0.13031 0.30405,-0.13031c0.16792,0 0.30405,0.05834 0.30405,0.13031c0,0.07197 -0.13613,0.13031 -0.30405,0.13031c-0.16792,0 -0.30405,-0.05834 -0.30405,-0.13031z" fill="#3a3a3a" stroke="none" stroke-width="0" stroke-linecap="butt"/></g><path d="M232.59548,137.3423l2.08888,-13.29283c0,0 0.74739,1.07822 2.0377,1.66736c0.94117,0.42973 2.34891,0.42151 3.08953,0.42151c0.74465,0 1.98868,0.28243 3.02037,-0.07903c1.75038,-0.61327 3.24625,-2.00984 3.24625,-2.00984l0.94948,12.72313c0,0 -1.31329,1.24096 -3.30629,1.88431c-1.11536,0.36005 -2.83488,0.27208 -3.70839,0.30656c-1.06343,0.04198 -2.85165,0.1011 -4.29261,-0.26586c-1.77706,-0.45255 -3.12491,-1.35531 -3.12491,-1.35531z" fill="#50dee8" stroke="none" stroke-width="0" stroke-linecap="butt"/><path d="M246.03344,123.82749c0,1.68435 -2.47254,3.04979 -5.52258,3.04979c-3.05004,0 -5.52258,-1.36544 -5.52258,-3.04978c0,-1.68435 2.47254,-3.04978 5.52258,-3.04978c3.05004,0 5.52258,1.36544 5.52258,3.04979z" fill="#41b6bf" stroke="none" stroke-width="0" stroke-linecap="butt"/></g></g></svg>