<svg version="1.1" xmlns="http://www.w3.org/2000/svg" xmlns:xlink="http://www.w3.org/1999/xlink" width="122.46291" height="105.18197" viewBox="0,0,122.46291,105.18197"><defs><linearGradient x1="240.70777" y1="134.04031" x2="240.70777" y2="196.46397" gradientUnits="userSpaceOnUse" id="color-1"><stop offset="0" stop-color="#c2c2c2"/><stop offset="1" stop-color="#c20000"/></linearGradient><radialGradient cx="239.87839" cy="139.27109" r="18.24325" gradientUnits="userSpaceOnUse" id="color-2"><stop offset="0" stop-color="#3bd9e4"/><stop offset="1" stop-color="#ffffff"/></radialGradient><linearGradient x1="188.43244" y1="134.64947" x2="188.43244" y2="173.81163" gradientUnits="userSpaceOnUse" id="color-3"><stop offset="0" stop-color="#c2c2c2"/><stop offset="1" stop-color="#c20000"/></linearGradient><linearGradient x1="301.90541" y1="134.16298" x2="301.90541" y2="164.81163" gradientUnits="userSpaceOnUse" id="color-4"><stop offset="0" stop-color="#c2c2c2"/><stop offset="1" stop-color="#c20000"/></linearGradient><linearGradient x1="241.0066" y1="159.94677" x2="241.0066" y2="195.94677" gradientUnits="userSpaceOnUse" id="color-5"><stop offset="0" stop-color="#c20000"/><stop offset="1" stop-color="#c2c2c2"/></linearGradient><linearGradient x1="241.0066" y1="159.94677" x2="241.0066" y2="195.94677" gradientUnits="userSpaceOnUse" id="color-6"><stop offset="0" stop-color="#c20000"/><stop offset="1" stop-color="#c2c2c2"/></linearGradient><linearGradient x1="240.7938" y1="209.73765" x2="240.7938" y2="225.9597" gradientUnits="userSpaceOnUse" id="color-7"><stop offset="0" stop-color="#ffbc00"/><stop offset="1" stop-color="#ff0076"/></linearGradient><linearGradient x1="245.78308" y1="215.2752" x2="245.78308" y2="219.80621" gradientUnits="userSpaceOnUse" id="color-8"><stop offset="0" stop-color="#ffbc00"/><stop offset="1" stop-color="#ff0076"/></linearGradient><linearGradient x1="240.90935" y1="207.39938" x2="240.90935" y2="224.05378" gradientUnits="userSpaceOnUse" id="color-9"><stop offset="0" stop-color="#ffbc00"/><stop offset="1" stop-color="#ff0076"/></linearGradient><linearGradient x1="272.2563" y1="200.15417" x2="280.60878" y2="214.06068" gradientUnits="userSpaceOnUse" id="color-10"><stop offset="0" stop-color="#ffbc00"/><stop offset="1" stop-color="#ff0076"/></linearGradient><linearGradient x1="278.20815" y1="205.27356" x2="280.54109" y2="209.15783" gradientUnits="userSpaceOnUse" id="color-11"><stop offset="0" stop-color="#ffbc00"/><stop offset="1" stop-color="#ff0076"/></linearGradient><linearGradient x1="272.03379" y1="199.26663" x2="280.60886" y2="213.54378" gradientUnits="userSpaceOnUse" id="color-12"><stop offset="0" stop-color="#ffbc00"/><stop offset="1" stop-color="#ff0076"/></linearGradient></defs><g transform="translate(-178.71719,-120.77772)"><g data-paper-data="{&quot;isPaintingLayer&quot;:true}" fill-rule="nonzero" stroke-linejoin="miter" stroke-miterlimit="10" stroke-dasharray="" stroke-dashoffset="0" style="mix-blend-mode: normal"><path d="M203.85642,134.04031h73.7027v45.44551c-0.19234,0.05115 -0.3543,0.17682 -0.45309,0.34421c-0.73233,0.41848 -1.8011,4.31605 -2.55048,5.25636c-0.81302,1.02017 -2.06961,2.15088 -3.17098,2.8439c-0.5754,0.36205 -2.67959,1.31723 -3.34934,2.18858c-1.04409,0.39406 -4.38759,1.39454 -5.1576,2.29416c-1.24943,0.27682 -2.50434,0.51808 -3.57289,0.84983c-1.83815,0.57068 -4.58985,1.44633 -6.89557,1.84297c-0.17287,0.02327 -0.34954,0.05163 -0.52608,0.08303c-0.53057,0.07568 -1.02992,0.12078 -1.47968,0.12472c-0.53017,0.00465 -1.87383,-0.23871 -2.70692,0.04514c-0.88418,-0.16773 -4.00932,0.22725 -4.33282,0.2407c-1.27079,0.05286 -4.69025,-0.68527 -5.43374,0.05822c-0.01112,0.01112 -0.02231,0.02242 -0.03352,0.03391c-2.66368,-0.23096 -6.26397,-0.23345 -7.28459,-0.28062c-1.51382,-0.06996 -5.27908,-1.78564 -7.51422,-1.90505c-0.51451,-0.95193 -3.51979,-1.27351 -4.01119,-1.39631c-1.26623,-0.31643 -2.8899,-0.844 -4.54086,-1.54144c-0.70773,-0.47949 -1.4496,-0.93204 -2.31164,-1.27391c-0.71789,-0.2847 -2.934,-2.26699 -4.6842,-3.49704c-0.01208,-0.01725 -0.02403,-0.03452 -0.03587,-0.05182c-0.00895,-0.05383 -0.02007,-0.11084 -0.03347,-0.17114c-0.27239,-1.22575 -2.30508,-1.95863 -2.6171,-3.36274l-0.00405,-0.0081c-0.22033,-0.51409 -0.54278,-1.84467 -1.0028,-2.78734z" fill="url(#color-1)" stroke="#000000" stroke-width="0.5" stroke-linecap="butt"/><path d="M259.0946,137.81163c0,4.29887 -9.5692,12.40541 -18.97297,12.40541c-9.40376,0 -17.51352,-7.37681 -17.51352,-11.67568c0,-4.29887 8.10975,-3.8919 17.51352,-3.8919c9.40377,0 18.97297,-1.1367 18.97297,3.16217z" fill="url(#color-2)" stroke="#ffffff" stroke-width="0.5" stroke-linecap="butt"/><path d="M179.31082,194.24407l10.45946,-26.02703c0,0 4.88399,-7.96467 6.52327,-10.20005c2.47,-3.36818 8.07131,-23.36752 8.07131,-23.36752v39.16216z" fill="url(#color-3)" stroke="#000000" stroke-width="0.5" stroke-linecap="butt"/><path d="M277.82432,171.86569v-37.70271c0,0 4.61831,16.93849 8.45051,21.74829c4.09615,5.14109 6.87381,11.08955 6.87381,11.08955l7.54054,25.78378z" fill="url(#color-4)" stroke="#000000" stroke-width="0.5" stroke-linecap="butt"/><path d="M277.82432,177.94677c0,0.51059 -0.04348,1.01621 -0.12874,1.51603c-0.25135,0.01882 -0.46816,0.16152 -0.58956,0.36723c-0.73233,0.41848 -1.8011,4.31605 -2.55048,5.25636c-0.81302,1.02017 -2.06961,2.15088 -3.17098,2.8439c-0.5754,0.36205 -2.67959,1.31723 -3.34934,2.18858c-1.04409,0.39406 -4.38759,1.39454 -5.1576,2.29416c-1.24943,0.27682 -2.50434,0.51808 -3.57289,0.84983c-1.51061,0.46899 -3.63821,1.14395 -5.62821,1.58975c-0.93063,0.16675 -1.87886,0.31566 -2.84296,0.44588c-0.14775,0.00875 -0.29132,0.01388 -0.43016,0.0151c-0.53017,0.00465 -1.87383,-0.23871 -2.70692,0.04514c-0.88418,-0.16773 -4.00932,0.22725 -4.33282,0.2407c-1.27079,0.05286 -4.69025,-0.68527 -5.43374,0.05822c-0.01112,0.01112 -0.02231,0.02242 -0.03352,0.03391c-1.7545,-0.15213 -3.91536,-0.20514 -5.47772,-0.23708c-1.42584,-0.16656 -2.81948,-0.37367 -4.17552,-0.6187c-1.68598,-0.53319 -3.72486,-1.25401 -5.14557,-1.32989c-0.51451,-0.95193 -3.51979,-1.27351 -4.01119,-1.39631c-0.93688,-0.23412 -2.06944,-0.58384 -3.26395,-1.03243c-0.77962,-0.35755 -1.52738,-0.7315 -2.24098,-1.12074c-0.13869,-0.08076 -0.27981,-0.15936 -0.4239,-0.23529c-2.33997,-1.3217 -4.29288,-2.81167 -5.77259,-4.42782c-0.17473,-0.38235 -0.51225,-0.72077 -0.88636,-1.05743c-1.49343,-1.95777 -2.30976,-4.07683 -2.30976,-6.28911c0,-9.94112 16.48386,-18 36.81774,-18c20.33388,0 36.81773,8.05888 36.81773,18z" fill="url(#color-5)" stroke="url(#color-6)" stroke-width="0.5" stroke-linecap="butt"/><path d="M245.67066,218.5515c-0.13807,0 -0.25,-0.11193 -0.25,-0.25c0,-0.13807 0.11193,-0.25 0.25,-0.25c0.13807,0 0.25,0.11193 0.25,0.25c0,0.13807 -0.11193,0.25 -0.25,0.25z" data-paper-data="{&quot;index&quot;:null}" fill="#ffbc00" stroke="none" stroke-width="0.5" stroke-linecap="butt"/><path d="M239.39159,221.69104c-0.13807,0 -0.25,-0.11193 -0.25,-0.25c0,-0.13807 0.11193,-0.25 0.25,-0.25c0.13807,0 0.25,0.11193 0.25,0.25c0,0.13807 -0.11193,0.25 -0.25,0.25z" data-paper-data="{&quot;index&quot;:null}" fill="#ffbc00" stroke="none" stroke-width="0.5" stroke-linecap="butt"/><path d="M244.62415,223.57476c-0.13807,0 -0.25,-0.11193 -0.25,-0.25c0,-0.13807 0.11193,-0.25 0.25,-0.25c0.13807,0 0.25,0.11193 0.25,0.25c0,0.13807 -0.11193,0.25 -0.25,0.25z" data-paper-data="{&quot;index&quot;:null}" fill="#ffbc00" stroke="none" stroke-width="0.5" stroke-linecap="butt"/><path d="M233.07425,210.81342l-0.5257,-16.82244c0,0 0.96051,-1.27196 2.71574,-2.26385c1.54584,-0.87355 3.82604,-1.48268 4.95775,-1.47503c1.24007,0.00838 3.70048,0.17377 5.44356,1.1556c2.09645,1.18087 3.38996,3.21412 3.38996,3.21412l-0.10514,16.1916c0,0 -1.57814,-1.85571 -3.98585,-2.7589c-1.23781,-0.46434 -3.20855,-1.34157 -4.10995,-1.34157c-0.98445,0 -2.82916,0.53002 -4.09576,1.06258c-2.12643,0.89408 -3.68461,3.03789 -3.68461,3.03789z" fill="#9086a5" stroke="none" stroke-width="0.5" stroke-linecap="butt"/><path d="M240.64434,191.04706v14.92991" fill="none" stroke="#000000" stroke-width="1.5" stroke-linecap="round"/><path d="M232.65369,193.57043l0.5257,15.45561" fill="none" stroke="#000000" stroke-width="1.5" stroke-linecap="round"/><path d="M248.74013,194.20127l-0.21028,15.35047" fill="none" stroke="#000000" stroke-width="1.5" stroke-linecap="round"/><path d="M244.01057,217.54346c0.0277,-0.11081 0.09337,-0.15834 0.15653,-0.17728c0.33816,-0.48421 0.71229,-0.99294 1.10843,-1.55666c0.54702,-0.28787 0.99414,-0.65056 1.35458,-1.0692c-0.00499,-0.00972 -0.01005,-0.01942 -0.01521,-0.02909c0,0 -0.1118,-0.2236 0.1118,-0.33541c0.0803,-0.04015 0.14618,-0.03705 0.19765,-0.01657c0.71475,-1.03401 0.99179,-2.33467 0.99179,-3.67287c0,0 0,-0.25 0.25,-0.25c0.25,0 0.25,0.25 0.25,0.25c0,1.45296 -0.32839,3.02365 -1.20324,4.18719c0.63118,2.04464 -1.13895,4.46704 -1.81196,6.15747l-0.06553,0.26215c-0.02527,0.11133 -0.12483,0.19444 -0.24381,0.19444c-0.13807,0 -0.25,-0.11193 -0.25,-0.25v-0.48913h0.08018c-0.09913,-0.96911 0.05053,-1.93971 -0.48562,-2.80134c-1.07783,1.59349 -1.78157,2.84884 -1.31505,5.4147c0.09303,0.51306 0.18407,1.74325 0.66353,2.04289l0.24451,0.06113c0.11133,0.02527 0.19444,0.12483 0.19444,0.24381c0,0.13807 -0.11193,0.25 -0.25,0.25h-0.2795v-0.06218l-0.06063,-0.01515l0.01046,-0.04187c-0.01015,-0.00032 -0.02033,-0.00073 -0.03053,-0.00124l-0.02044,0.0292c-0.01575,-0.01097 -0.03121,-0.02225 -0.04637,-0.03382c-1.6737,-0.14817 -3.84207,-2.73046 -3.94378,-4.07731c-0.05326,-0.21305 -0.16928,-1.65754 -0.20061,-2.41821c-0.08313,0.19707 -0.19439,0.4012 -0.21711,0.49178c-0.16506,0.65816 -0.19987,1.23678 -0.20404,1.92643c-0.1266,0.50637 -0.3973,1.84611 -0.21893,2.28995l0.21751,0.10876c0.08456,0.04008 0.14304,0.12623 0.14304,0.22603c0,0.13807 -0.11193,0.25 -0.25,0.25c-0.04199,0 -0.08156,-0.01036 -0.1163,-0.02865l-0.27501,-0.1375l0.01095,-0.0219l-0.07592,-0.02493c-0.0454,-0.08779 -0.0804,-0.18961 -0.10653,-0.30186c-0.96765,-0.67584 -2.47619,-4.39672 -2.48222,-5.39511c0,-2.33272 -0.09915,-3.44046 -1.3243,-5.34341c-1.41269,-0.89374 -1.33099,-1.69488 -1.33099,-3.32118v-0.06987c0,0 0,-0.25 0.25,-0.25c0.25,0 0.25,0.25 0.25,0.25v0.06987c0,1.60343 -0.09893,2.08177 1.18454,2.96764c1.36628,1.9921 1.47074,3.2528 1.47074,5.69696c-0.01273,1.69057 1.06484,3.11526 1.92403,4.50689c0.02536,-0.55033 0.13325,-1.1333 0.23312,-1.53277c-0.00452,-0.59944 0.31834,-3.90003 1.22111,-3.04825c0.49272,0.46489 0.23115,2.40024 0.39315,3.04825c-0.1792,1.24229 1.67485,2.25548 2.80091,3.07955c-0.13378,-0.44165 -0.19742,-0.92209 -0.27077,-1.32447c-0.48228,-2.65252 0.19476,-4.12181 1.37189,-5.84492c0.00084,-0.01948 0.00386,-0.04042 0.00949,-0.06293zM245.46577,219.75677c0.70263,-1.35221 1.63075,-3.06098 1.36311,-4.43623c-0.34116,0.3472 -0.74597,0.64158 -1.22246,0.86384c-0.30611,0.49447 -0.60554,0.93479 -0.88627,1.34586c0.36556,0.49862 0.71244,1.41562 0.74563,2.22653z" data-paper-data="{&quot;index&quot;:null}" fill="url(#color-7)" stroke="none" stroke-width="0.5" stroke-linecap="butt"/><path d="M246.84997,215.27521c0.26764,1.37524 -0.68897,3.1788 -1.3916,4.53101c-0.03319,-0.81092 -0.42265,-1.77774 -0.78821,-2.27636c0.28074,-0.41107 0.62315,-0.90052 0.92926,-1.39498c0.47649,-0.22226 0.90939,-0.51247 1.25055,-0.85968z" data-paper-data="{&quot;noHover&quot;:false,&quot;origItem&quot;:[&quot;Path&quot;,{&quot;applyMatrix&quot;:true,&quot;segments&quot;:[[[487.05805,431.4142],[-1.40526,-2.70442],[0.06638,-1.62183]],[[488.5493,426.96115],[-0.73111,0.99723],[-0.56147,-0.82214]],[[486.77676,424.26943],[0.61221,0.98893],[-0.95298,-0.44453]],[[484.33183,422.54174],[0.68232,0.69441],[-0.53529,2.7505]]],&quot;closed&quot;:true}],&quot;index&quot;:null}" fill="url(#color-8)" stroke="none" stroke-width="0.5" stroke-linecap="butt"/><path d="M241.94453,206.77579c0.58209,0 0.88237,0.0042 1.23889,0.51471l0.08445,0.16544c1.70515,0.24813 3.46527,1.17271 4.94573,2.04472c0,0 0.21437,0.12863 0.08574,0.343c-0.12862,0.21437 -0.34299,0.08575 -0.34299,0.08575c-1.42142,-0.86531 -3.15953,-1.7514 -4.80898,-1.98681c-0.84966,-0.24139 -1.63222,-0.74183 -2.49317,-0.84861l-0.00858,0.00015l-0.14482,0.13431c-0.89922,0.11154 -2.37674,0.21255 -3.15798,0.69677c-1.67697,0.55899 -2.61897,2.50079 -3.93519,2.97142c0,0 -0.24039,0.06868 -0.30907,-0.1717c-0.06868,-0.24038 0.17171,-0.30906 0.17171,-0.30906c0.35751,-0.05091 0.63776,-0.87498 0.91528,-1.18355c0.67873,-0.75464 1.98832,-1.44136 2.94833,-1.76137c0.83234,-0.48571 2.16253,-0.5744 3.13925,-0.71405c0.04494,-0.14096 0.194,-0.15806 0.22949,-0.16013c0.03048,-0.00746 0.06482,-0.00872 0.10243,0.00082l0.11984,0.0014c0.34972,0.05479 0.68115,0.16037 1.00783,0.28354c0.07002,-0.10677 0.21179,-0.10677 0.21179,-0.10677z" fill="#ffbc00" stroke="none" stroke-width="0.5" stroke-linecap="butt"/><path d="M245.70576,216.9209c-0.13607,-0.29395 -0.24595,-0.59176 -0.41285,-0.88187c-0.09204,0.07029 -0.18326,0.14164 -0.27253,0.21504c0.16313,0.14309 0.03134,0.32758 0.03134,0.32758l-0.16178,0.20859c-0.64562,0.50006 -1.69916,1.90459 -1.67038,2.75495c0,0 0,0.25 -0.25,0.25c-0.07366,0 -0.12562,-0.02171 -0.16227,-0.05233c-0.1353,0.58277 -0.1913,1.20237 -0.18225,1.87579c0,0.79471 0.7324,1.86645 0.53684,2.57509c-0.03358,0.12171 -0.08375,0.21081 -0.14721,0.27205c0.04272,0.09274 0.10293,0.17883 0.17641,0.24805l0.02449,-0.0021c0,0 0.22361,0.11181 0.1118,0.33541c-0.11181,0.22361 -0.33541,0.11181 -0.33541,0.11181l-0.15444,-0.09157c-0.14119,-0.14675 -0.25339,-0.32626 -0.32656,-0.51629c0,0 -0.00168,-0.00458 -0.00391,-0.01272c-0.63181,-0.18776 -1.51591,-1.071 -1.88844,-1.55929c-0.07088,-0.03234 -0.1128,-0.09222 -0.1128,-0.09222c-0.2618,-0.37529 -0.44849,-0.58604 -0.49164,-1.06197l-0.07245,-0.15157c0,0 -0.07312,-0.18282 0.07265,-0.28886c-0.28358,-1.06599 -0.50869,-2.3686 -0.26863,-2.79646c-0.28086,-0.17228 -0.53864,0.22798 -0.74978,0.78833c-0.16033,0.64131 -0.02718,3.41703 -0.44931,3.75829c-0.62679,0.50671 -1.43162,-1.02494 -1.54275,-1.48168c-0.82904,-1.29233 -1.17289,-3.85087 -1.1941,-5.42921c0,-2.10756 -2.38011,-3.22998 -2.38011,-4.9189c0,-2.8114 1.77573,-2.33833 3.84451,-3.37622c1.99563,-0.50988 3.53183,-1.29461 5.62877,-0.82623c0.52099,0.25662 1.02144,0.55838 1.51107,0.87757c0.00139,-0.03788 0.01317,-0.08019 0.04096,-0.12651c0.12863,-0.21437 0.343,-0.08575 0.343,-0.08575c0.33623,0.20378 0.67577,0.42769 0.98659,0.66564l0.16922,0.09063c0,0 0.21854,0.12141 0.09713,0.33995c-0.04304,0.07746 -0.09828,0.11221 -0.15166,0.1248c0.67451,0.45996 1.34737,0.89786 2.04596,1.23567c1.11156,0.6401 -0.2755,3.69078 -1.25141,4.58413c-0.03184,0.04266 -0.06491,0.08428 -0.09911,0.12499c0.00209,0.01641 0.00208,0.0267 0.00208,0.0267c0,0.76075 -0.00526,1.35057 -0.26636,2.06697l-0.01047,0.01081l0.00442,0.00221l-0.10941,0.21882c-0.04008,0.08456 -0.12622,0.14304 -0.22602,0.14304c-0.11446,0 -0.21096,-0.07692 -0.24061,-0.18188l-0.0878,-0.28535l0.04522,-0.01391zM246.09504,215.42194c-0.12898,0.10801 -0.26353,0.21181 -0.39991,0.31468c0.08432,0.14077 0.22682,0.36972 0.31662,0.59449c0.06118,-0.30192 0.07848,-0.59352 0.08329,-0.90917zM246.25058,214.51008c0,-0.25 0.25,-0.25 0.25,-0.25l0.01005,0.01252c0.7023,-0.87353 1.80243,-3.39387 1.21101,-3.60097c-1.69825,-0.87039 -3.20902,-2.19309 -4.98594,-3.09803c-1.97732,-0.43605 -3.40246,0.36533 -5.28802,0.82398c-1.90388,0.94879 -3.51798,0.41291 -3.51798,2.90728c0,1.5269 2.38011,2.82881 2.38011,4.9189c-0.02899,1.51208 0.38849,3.98336 1.15428,5.23369c0.79538,3.1054 0.80067,-1.21448 1.05449,-2.22974c0.37394,-1.0015 1.06911,-1.45313 1.63018,-0.92487c0.26963,-0.02203 0.44211,0.31478 0.3879,0.58521c0.02939,0.06587 0.05779,0.13607 0.08509,0.21071l-0.01823,0.04257l0.00019,0.00204h0.02205v0.25387c0,0.13807 -0.11193,0.25 -0.25,0.25c-0.13131,0 -0.23898,-0.10124 -0.24921,-0.22991l-0.02068,-0.2275c-0.44203,-0.48009 0.47626,2.75402 0.83354,3.37954c0.29054,0.47645 0.80389,0.9569 1.29246,1.20526c0.07772,0.03951 0.19772,0.13446 0.30442,0.23009c-0.27664,-0.59347 -0.41124,-2.02563 -0.41124,-2.38604c0.04094,-2.13609 0.5633,-3.77458 2.16772,-5.38129c0.54485,-0.54214 1.28434,-0.93353 1.79395,-1.47758c-0.00218,-0.14025 0.13547,-0.21533 0.13547,-0.21533c0.00939,-0.00483 0.019,-0.01036 0.02883,-0.01658c-0.00029,-0.0058 -0.00044,-0.01174 -0.00044,-0.01783z" data-paper-data="{&quot;index&quot;:null}" fill="#ffbc00" stroke="none" stroke-width="0.5" stroke-linecap="butt"/><path d="M246.54894,214.2474c0,0 -0.24961,0.00158 -0.24961,0.25158c0,0.00609 0.00018,0.01219 0.00047,0.01799c-0.00983,0.00622 -0.01942,0.01183 -0.02881,0.01666c0,0 -0.1373,0.07676 -0.13512,0.21701c-0.50962,0.54404 -1.24882,0.95208 -1.79367,1.49422c-1.60442,1.60671 -2.16612,3.2867 -2.20706,5.42279c0,0.36041 0.13415,1.79265 0.41078,2.38613c-0.1067,-0.09563 -0.22824,-0.19031 -0.30596,-0.22981c-0.48857,-0.24836 -1.0098,-0.72815 -1.30034,-1.2046c-0.35728,-0.62552 -1.2871,-3.86093 -0.84507,-3.38083l0.04237,0.12988c0.01024,0.12868 0.11428,0.22928 0.24558,0.22928c0.13807,0 0.24711,-0.11224 0.24711,-0.25031l-0.008,-0.1542l-0.02236,-0.00002l0.00874,-0.10164l0.0095,0.05704c-0.0273,-0.07464 -0.05731,-0.14499 -0.08669,-0.21087c0.05421,-0.27043 -0.12657,-0.60894 -0.3962,-0.58691c-0.56107,-0.52826 -1.21388,-0.16587 -1.58782,0.83563c-0.25381,1.01526 -0.31307,5.41927 -1.10844,2.31387c-0.76579,-1.25033 -1.20722,-3.75908 -1.17823,-5.27116c0,-2.09009 -2.37264,-3.42414 -2.37264,-4.95103c0,-2.49438 1.63498,-1.97695 3.53886,-2.92574c1.88555,-0.45865 3.34297,-1.26361 5.32029,-0.82756c1.77691,0.90494 3.31692,2.24663 5.01517,3.11702c0.59142,0.2071 -0.50046,2.74467 -1.20276,3.6182l-0.01008,-0.01263z" data-paper-data="{&quot;noHover&quot;:false,&quot;origItem&quot;:[&quot;Path&quot;,{&quot;applyMatrix&quot;:true,&quot;segments&quot;:[[[485.48845,420.9208],[0,-0.5],[0,0.01218]],[[485.48758,420.95646],[0.00058,-0.01159],[0.01965,0.01244]],[[485.54523,420.98961],[-0.01877,-0.00965],[0,0]],[[485.81616,421.42027],[0.00436,-0.2805],[1.01922,1.0881]],[[489.40407,424.37543],[-1.0897,-1.08427],[3.20885,3.21341]],[[493.73951,435.13801],[-0.08189,-4.27218],[0,0.72083]],[[492.91704,439.9101],[0.55326,-1.18695],[0.2134,-0.19125]],[[493.52588,439.44992],[-0.15543,0.07901],[0.97714,-0.49672]],[[496.11079,437.0394],[-0.58108,0.95291],[0.71456,-1.25104]],[[497.77787,430.28033],[0.88405,-0.9602],[0,0]],[[497.73651,430.73532],[0,0],[-0.02047,0.25735]],[[497.2381,431.19513],[0.26261,0],[-0.27614,0]],[[496.7381,430.69513],[0,0.27614],[0,0]],[496.7381,430.18738],[496.7822,430.18738],[496.78257,430.18331],[[496.74612,430.09816],[0,0],[0.0546,-0.14928]],[[496.9163,429.67674],[-0.05877,0.13175],[-0.10842,-0.54086]],[[497.69209,428.50633],[-0.53926,-0.04407],[1.12213,-1.05652]],[[500.95244,430.35607],[-0.74788,-2.00299],[0.50763,2.03052]],[[503.06142,434.81554],[-1.59075,6.2108],[1.53157,-2.50066]],[[505.36998,424.34817],[0.05797,3.02416],[0,-4.18019]],[[510.1302,414.51037],[0,3.05379],[0,-4.98874]],[[503.09425,408.69581],[3.80776,1.89758],[-3.77112,-0.91731]],[[492.51822,407.04784],[3.95463,-0.87209],[-3.55383,1.80989]],[[482.54633,413.2439],[3.39651,-1.74078],[-1.18283,0.41419]],[[484.96835,420.44583],[-1.4046,-1.74705],[0,0]],[484.98845,420.4208]],&quot;closed&quot;:true}],&quot;index&quot;:null}" fill="url(#color-9)" stroke="none" stroke-width="0.5" stroke-linecap="butt"/><path d="M235.77757,210.88567c0.0762,0 0.12917,0.02322 0.16599,0.05551c2.15023,0.51008 4.54539,0.22957 6.74617,0.23635c2.38568,0.45299 1.71343,1.72796 1.29376,3.50302c-0.09004,0.38083 -0.17886,1.80365 -0.66351,1.87157c-0.01659,0.00233 -0.37843,-0.3618 -0.47211,-0.45548c-0.57353,-0.35575 -1.41817,-1.89487 -2.37198,-1.3609c-0.49784,0.27871 -0.7081,1.0979 -0.88921,1.76773h0.04178v0.35785c0,0.13807 -0.11193,0.25 -0.25,0.25c-0.1243,0 -0.22743,-0.09072 -0.24675,-0.20956l-0.04343,-0.23888c-0.09203,-0.43086 -0.19723,-0.79301 -0.46703,-1.14458c-1.05572,-0.79412 -3.18169,-2.92939 -3.07046,-4.31393c0,0 0.00096,-0.01148 0.00493,-0.02931l-0.02815,-0.03938c0,0 0,-0.25 0.25,-0.25zM236.05508,211.47829c0.15254,1.20699 2.07762,3.05622 2.91756,3.68429c0.12911,0.16756 0.23068,0.33185 0.31341,0.50086c0.24728,-0.66806 0.84758,-1.4257 1.29761,-1.46639c1.324,-0.11973 1.65921,0.97976 2.57191,1.50548c0.0656,0.0656 1.31257,-2.3742 0.86731,-3.42087c-0.166,-0.39022 -1.02216,-0.5379 -1.38014,-0.60635c-2.14637,0.00761 -4.47395,0.2484 -6.58766,-0.19702z" fill="#ffbc00" stroke="none" stroke-width="0.5" stroke-linecap="butt"/><path d="M238.58676,212.46449c0.05677,-0.14741 0.23255,-0.14741 0.23255,-0.14741c0.17892,0 0.38023,0 0.55915,0c0.42416,0 2.59578,-0.27114 2.32935,0.5561c-0.19122,0.59372 -3.04344,0.148 -3.19054,-0.1312c0,0 -0.06348,-0.17459 0.06949,-0.27749z" fill="#ffbc00" stroke="none" stroke-width="0.5" stroke-linecap="butt"/><path d="M245.72205,218.83428c-0.13807,0 -0.25,-0.11193 -0.25,-0.25c0,-0.13807 0.11193,-0.25 0.25,-0.25c0.13807,0 0.25,0.11193 0.25,0.25c0,0.13807 -0.11193,0.25 -0.25,0.25z" data-paper-data="{&quot;index&quot;:null}" fill="#ffbc00" stroke="none" stroke-width="0.5" stroke-linecap="butt"/><path d="M201.77366,196.67254l9.05277,-14.18865c0,0 1.51052,-0.50873 3.51938,-0.33799c1.76921,0.15038 3.99574,0.93325 4.92602,1.57779c1.01934,0.70625 2.95791,2.23036 3.84367,4.02417c1.06533,2.15746 0.98688,4.56601 0.98688,4.56601l-9.21797,13.31194c0,0 -0.25674,-2.42245 -1.7357,-4.52614c-0.76034,-1.08151 -1.8931,-2.91732 -2.63748,-3.42566c-0.81298,-0.55517 -2.63526,-1.15779 -3.98157,-1.43229c-2.26025,-0.46085 -4.756,0.43082 -4.756,0.43082z" fill="#9086a5" stroke="none" stroke-width="0.5" stroke-linecap="butt"/><path d="M210.75263,196.94764l8.41962,-12.32932" fill="none" stroke="#000000" stroke-width="1.5" stroke-linecap="round"/><path d="M211.15043,182.19587l-8.28196,13.05992" fill="none" stroke="#000000" stroke-width="1.5" stroke-linecap="round"/><path d="M224.07907,191.78868l-8.83045,12.55803" fill="none" stroke="#000000" stroke-width="1.5" stroke-linecap="round"/><path d="M267.63056,206.28652l-8.84398,-14.31973c0,0 0.19833,-1.5815 1.2252,-3.3165c0.90437,-1.52802 2.57713,-3.19301 3.56193,-3.7507c1.07908,-0.61108 3.29426,-1.69458 5.29475,-1.71268c2.40605,-0.02177 4.54113,1.09568 4.54113,1.09568l7.98261,14.08747c0,0 -2.29328,-0.82163 -4.83067,-0.40395c-1.30448,0.21473 -3.45016,0.43702 -4.2315,0.88649c-0.85334,0.49089 -2.18805,1.87016 -3.02041,2.96336c-1.39739,1.83532 -1.67905,4.47056 -1.67905,4.47056z" fill="#9086a5" stroke="none" stroke-width="0.5" stroke-linecap="butt"/><path d="M271.78076,198.3195l-7.44462,-12.9414" fill="none" stroke="#000000" stroke-width="1.5" stroke-linecap="round"/><path d="M266.83043,204.68477l-8.16243,-13.13495" fill="none" stroke="#000000" stroke-width="1.5" stroke-linecap="round"/><path d="M272.92644,184.07532l7.47205,13.4108" fill="none" stroke="#000000" stroke-width="1.5" stroke-linecap="round"/><path d="M279.03304,205.18952c-0.03331,-0.10925 -0.00149,-0.1838 0.04291,-0.23257c0.04058,-0.58921 0.09937,-1.21796 0.14872,-1.90517c0.32072,-0.52844 0.51727,-1.06956 0.61071,-1.61404c-0.00929,-0.00577 -0.01862,-0.01147 -0.02802,-0.0171c0,0 -0.21097,-0.13412 -0.07685,-0.3451c0.04818,-0.07576 0.10625,-0.10702 0.16091,-0.11597c0.08033,-1.25443 -0.35186,-2.51208 -1.04088,-3.65927c0,0 -0.12872,-0.21431 0.0856,-0.34303c0.21431,-0.12872 0.34303,0.0856 0.34303,0.0856c0.7481,1.24557 1.27531,2.76113 1.12443,4.20904c1.59383,1.4278 1.32362,4.41584 1.61705,6.2115l0.0788,0.25847c0.03566,0.10845 -0.0069,0.23096 -0.10889,0.29222c-0.11836,0.07109 -0.27194,0.03277 -0.34303,-0.0856l-0.25184,-0.41931l0.06873,-0.04128c-0.58395,-0.77974 -0.95541,-1.68885 -1.85867,-2.15144c-0.10351,1.92099 -0.06044,3.3595 1.66061,5.3189c0.34391,0.39193 1.05536,1.39963 1.62066,1.40965l0.24108,-0.07349c0.10845,-0.03566 0.23096,0.0069 0.29222,0.10889c0.07109,0.11836 0.03277,0.27194 -0.0856,0.34303l-0.2396,0.14391l-0.03201,-0.05331l-0.05978,0.01823l-0.01259,-0.04128c-0.00887,0.00495 -0.0178,0.00984 -0.02681,0.01466l-0.0025,0.03555c-0.01916,-0.0013 -0.0382,-0.003 -0.05717,-0.00512c-1.51109,0.73475 -4.69953,-0.36248 -5.48019,-1.46472c-0.15537,-0.15521 -0.99856,-1.33379 -1.41708,-1.96975c0.03021,0.21174 0.03993,0.44404 0.06709,0.53338c0.19738,0.64919 0.46546,1.16315 0.81698,1.75651c0.1522,0.49928 0.60995,1.78716 0.99138,2.0758l0.24246,-0.01876c0.09313,-0.00918 0.18761,0.03457 0.239,0.12012c0.07109,0.11836 0.03277,0.27194 -0.0856,0.34303c-0.036,0.02162 -0.07525,0.03312 -0.11445,0.03533l-0.30654,0.02372l-0.00189,-0.0244l-0.07792,0.01771c-0.08412,-0.05188 -0.16655,-0.12115 -0.24674,-0.20392c-1.17751,-0.08115 -4.38654,-2.49418 -4.90577,-3.34696c-1.20108,-1.99975 -1.85644,-2.89832 -3.8865,-3.89883c-1.67122,-0.0388 -2.01367,-0.76767 -2.85102,-2.16182l-0.03598,-0.0599c0,0 -0.12872,-0.21431 0.0856,-0.34303c0.21431,-0.12872 0.34303,0.0856 0.34303,0.0856l0.03598,0.0599c0.82558,1.37454 0.98706,1.83554 2.54344,1.93413c2.19696,1.00427 2.93562,2.03124 4.19407,4.12652c0.85954,1.45581 2.51684,2.12232 3.96992,2.87292c-0.26162,-0.48483 -0.46929,-1.04013 -0.58936,-1.43401c-0.3125,-0.51155 -1.73515,-3.50725 -0.52268,-3.24188c0.66175,0.14484 1.43399,1.93861 1.90652,2.41072c0.48602,1.15724 2.59709,1.07119 3.98672,1.19784c-0.34208,-0.30972 -0.64401,-0.68882 -0.91407,-0.996c-1.77918,-2.02559 -1.95529,-3.63374 -1.83338,-5.71698c-0.0093,-0.01713 -0.01751,-0.03664 -0.02427,-0.05883zM281.4201,206.33762c-0.09389,-1.52097 -0.17806,-3.46371 -1.1156,-4.50485c-0.1137,0.4733 -0.30916,0.93408 -0.60319,1.36996c-0.00782,0.58149 -0.03778,1.11314 -0.0668,1.61007c0.5701,0.23922 1.33961,0.84672 1.7856,1.5248z" data-paper-data="{&quot;index&quot;:null}" fill="url(#color-10)" stroke="none" stroke-width="0.5" stroke-linecap="butt"/><path d="M281.43854,206.38408c-0.44599,-0.67808 -1.27268,-1.30047 -1.84278,-1.53969c0.02902,-0.49693 0.06357,-1.09667 0.07139,-1.67816c0.29403,-0.43588 0.51874,-0.90991 0.63244,-1.38321c0.93754,1.04114 1.04506,3.08012 1.13895,4.60109z" data-paper-data="{&quot;noHover&quot;:false,&quot;origItem&quot;:[&quot;Path&quot;,{&quot;applyMatrix&quot;:true,&quot;segments&quot;:[[[281.4201,206.33762],[0,0],[-0.09389,-1.52097]],[[280.3045,201.83277],[0.93754,1.04114],[-0.1137,0.4733]],[[279.70131,203.20273],[0.29403,-0.43588],[-0.00782,0.58149]],[[279.63451,204.8128],[0.02902,-0.49693],[0.5701,0.23922]],[[281.42011,206.3376],[-0.44599,-0.67808],[0,0]]],&quot;closed&quot;:true,&quot;fillColor&quot;:[0,0,0,1]}]}" fill="#ffae0a" stroke="none" stroke-width="0.5" stroke-linecap="butt"/><path d="M279.12274,204.72426c0.93754,1.04114 1.0461,3.0798 1.13999,4.60076c-0.44598,-0.67807 -1.27766,-1.30637 -1.84776,-1.54559c0.02901,-0.49694 0.07054,-1.09283 0.07836,-1.67432c0.29403,-0.43588 0.51572,-0.90755 0.62941,-1.38086z" data-paper-data="{&quot;noHover&quot;:false,&quot;origItem&quot;:[&quot;Path&quot;,{&quot;applyMatrix&quot;:true,&quot;segments&quot;:[[[487.05805,431.4142],[-1.40526,-2.70442],[0.06638,-1.62183]],[[488.5493,426.96115],[-0.73111,0.99723],[-0.56147,-0.82214]],[[486.77676,424.26943],[0.61221,0.98893],[-0.95298,-0.44453]],[[484.33183,422.54174],[0.68232,0.69441],[-0.53529,2.7505]]],&quot;closed&quot;:true}],&quot;index&quot;:null}" fill="url(#color-11)" stroke="none" stroke-width="0.5" stroke-linecap="butt"/><path d="M273.30608,198.3636c0.50456,-0.29025 0.76695,-0.43634 1.33054,-0.1716l0.15569,0.10129c1.60177,-0.63517 3.58849,-0.7114 5.30658,-0.69374c0,0 0.24996,0.0046 0.24536,0.25456c-0.0046,0.24996 -0.25455,0.24536 -0.25455,0.24536c-1.66358,-0.04128 -3.61203,0.05733 -5.15917,0.67575c-0.85685,0.21444 -1.78473,0.17086 -2.58426,0.50761l-0.00736,0.00441l-0.05856,0.18864c-0.72384,0.54506 -1.9542,1.36938 -2.38993,2.17866c-1.17489,1.32074 -1.02316,3.47363 -1.9294,4.53789c0,0 -0.17412,0.1794 -0.35352,0.00528c-0.1794,-0.17412 -0.00527,-0.35352 -0.00527,-0.35352c0.28451,-0.22239 0.11651,-1.07645 0.20321,-1.4823c0.21204,-0.99257 1.00478,-2.24084 1.67736,-2.99693c0.47929,-0.83606 1.58808,-1.57622 2.36509,-2.1843c-0.03134,-0.1446 0.08935,-0.23374 0.11908,-0.25323c0.0227,-0.02167 0.05184,-0.03988 0.08919,-0.05036l0.10458,-0.05855c0.33045,-0.12689 0.67039,-0.20063 1.01498,-0.25677c0.00745,-0.12746 0.13035,-0.19816 0.13035,-0.19816z" fill="#ffbc00" stroke="none" stroke-width="0.5" stroke-linecap="butt"/><path d="M281.34222,204.37125c-0.268,-0.18193 -0.51554,-0.38065 -0.80798,-0.54342c-0.0427,0.10765 -0.08417,0.21578 -0.1229,0.32467c0.21352,0.03868 0.19553,0.26469 0.19553,0.26469l-0.03128,0.26211c-0.296,0.7611 -0.47599,2.50761 -0.01348,3.22176c0,0 0.12872,0.21431 -0.0856,0.34303c-0.06316,0.03793 -0.11887,0.04607 -0.16606,0.03869c0.18407,0.56926 0.45509,1.12924 0.80958,1.70188c0.40918,0.68127 1.58885,1.22294 1.78608,1.93111c0.03387,0.12163 0.03674,0.22385 0.01387,0.30902c0.08437,0.0575 0.18031,0.1003 0.27894,0.12181l0.01991,-0.01441c0,0 0.24925,-0.01928 0.26853,0.22997c0.01929,0.24926 -0.22996,0.26855 -0.22996,0.26855l-0.17954,0.00102c-0.19658,-0.05311 -0.3852,-0.14923 -0.54577,-0.27446c0,0 -0.0038,-0.00308 -0.0099,-0.0089c-0.63829,0.16435 -1.85098,-0.13761 -2.42174,-0.36439c-0.07741,0.00878 -0.14418,-0.02098 -0.14418,-0.02098c-0.41766,-0.18693 -0.68621,-0.27147 -0.96826,-0.65725l-0.14015,-0.09263c0,0 -0.15682,-0.11907 -0.08645,-0.28503c-0.79196,-0.76783 -1.65563,-1.7686 -1.67013,-2.25899c-0.32947,-0.00308 -0.34437,0.47278 -0.23686,1.06185c0.19276,0.63232 1.73607,2.94327 1.5499,3.45317c-0.27642,0.7571 -1.755,-0.14152 -2.08543,-0.47585c-1.37611,-0.681 -2.98822,-2.6973 -3.81907,-4.03942c-1.08515,-1.80673 -3.70344,-1.54346 -4.57303,-2.9913c-1.44754,-2.4101 0.3183,-2.91885 1.55738,-4.87377c1.44825,-1.46462 2.36112,-2.9283 4.39991,-3.60646c0.57875,-0.04825 1.16314,-0.04723 1.74723,-0.02571c-0.01832,-0.0332 -0.03001,-0.07553 -0.03003,-0.12955c-0.00012,-0.25001 0.24988,-0.25011 0.24988,-0.25011c0.39316,0.00157 0.79951,0.0187 1.18849,0.06265l0.19173,-0.00943c0,0 0.24985,-0.00844 0.2583,0.24141c0.00299,0.08857 -0.02647,0.1468 -0.06575,0.18508c0.81505,0.04701 1.61735,0.07596 2.39014,0.00586c1.28247,-0.02359 1.66414,3.30582 1.28751,4.57413c-0.00533,0.05296 -0.01226,0.10567 -0.02061,0.15817c0.01024,0.01299 0.01554,0.02182 0.01554,0.02182c0.3917,0.65216 0.69087,1.1605 0.8359,1.90908l-0.00341,0.01466l0.00493,-0.00038l0.01887,0.24392c0.00918,0.09313 -0.03457,0.18761 -0.12012,0.239c-0.09813,0.05893 -0.22045,0.04267 -0.29992,-0.03204l-0.22219,-0.19941l0.03161,-0.03521zM281.3008,203.70807c-0.10301,-0.29032 -0.23832,-0.5492 -0.39672,-0.82228c-0.05496,0.15901 -0.11685,0.31727 -0.1808,0.47567c0.14476,0.07726 0.38481,0.20016 0.57752,0.34661zM280.56792,202.02399c-0.12872,-0.21431 0.0856,-0.34303 0.0856,-0.34303l0.01506,0.00556c0.15229,-1.11044 -0.20231,-3.83747 -0.81593,-3.71049c-1.904,0.12825 -3.88016,-0.22778 -5.86938,-0.08864c-1.91959,0.64428 -2.72869,2.06505 -4.10895,3.42908c-1.1436,1.79364 -2.80322,2.16532 -1.51891,4.30365c0.78617,1.30895 3.49688,1.19955 4.57303,2.9913c0.7537,1.31116 2.384,3.21474 3.68426,3.89231c2.28077,2.25261 0.06107,-1.45337 -0.24408,-2.4544c-0.19509,-1.05108 0.16831,-1.79618 0.92129,-1.63221c0.2198,-0.15772 0.54107,0.0422 0.63384,0.30195c0.0591,0.04134 0.1196,0.08689 0.18143,0.13682l0.0063,0.04589l0.00121,0.00165l0.0189,-0.01135l0.13072,0.21763c0.07109,0.11836 0.03277,0.27194 -0.0856,0.34303c-0.11256,0.0676 -0.25698,0.03626 -0.33201,-0.06878l-0.13487,-0.18437c-0.62613,-0.18399 1.82627,2.11569 2.45463,2.46796c0.49439,0.25885 1.18183,0.40641 1.72854,0.36775c0.08696,-0.00614 0.23873,0.01348 0.37944,0.04051c-0.54272,-0.36633 -1.3955,-1.52475 -1.58107,-1.83373c-1.06474,-1.85227 -1.46058,-3.52583 -0.91243,-5.72929c0.18794,-0.74529 0.62036,-1.46157 0.7771,-2.19035c-0.07408,-0.1191 0.00526,-0.25434 0.00526,-0.25434c0.00556,-0.00897 0.01096,-0.01866 0.01618,-0.02905c-0.00324,-0.00481 -0.00642,-0.00983 -0.00955,-0.01506z" data-paper-data="{&quot;index&quot;:null}" fill="#ffbc00" stroke="none" stroke-width="0.5" stroke-linecap="butt"/><path d="M280.61004,201.99703c0.00313,0.00523 0.00638,0.01037 0.00962,0.01518c-0.00522,0.01039 -0.01055,0.02018 -0.01611,0.02915c0,0 -0.07847,0.13667 -0.00439,0.25577c-0.15674,0.72878 -0.58343,1.45973 -0.77137,2.20502c-0.54815,2.20346 -0.16286,3.9198 0.90188,5.77207c0.18557,0.30898 1.03703,1.46891 1.57975,1.83524c-0.14071,-0.02703 -0.2933,-0.04577 -0.38026,-0.03963c-0.54671,0.03866 -1.23841,-0.10492 -1.7328,-0.36377c-0.62836,-0.35227 -3.08352,-2.64982 -2.45739,-2.46583l0.07655,0.10314c0.07503,0.10504 0.21761,0.13776 0.33017,0.07016c0.11837,-0.07109 0.15445,-0.22279 0.08336,-0.34115l-0.13111,-0.21728l0.04819,0.08551l-0.06812,-0.07597l0.06083,0.02823c-0.06183,-0.04993 -0.1227,-0.09515 -0.1818,-0.13649c-0.09277,-0.25975 -0.41692,-0.45728 -0.63672,-0.29956c-0.75298,-0.16397 -1.13309,0.58953 -0.938,1.64061c0.30515,1.00103 2.52187,4.70776 0.2411,2.45515c-1.30026,-0.67757 -2.96997,-2.58902 -3.72367,-3.90018c-1.07615,-1.79175 -3.80818,-1.72269 -4.59435,-3.03164c-1.28431,-2.13833 0.38646,-2.54211 1.53006,-4.33575c1.38026,-1.36403 2.2211,-2.80281 4.14069,-3.44709c1.98922,-0.13914 3.99917,0.2241 5.90317,0.09585c0.61362,-0.12698 0.98271,2.61396 0.83042,3.7244l-0.01512,-0.00564c0,0 -0.21333,0.13021 -0.08461,0.34452z" data-paper-data="{&quot;noHover&quot;:false,&quot;origItem&quot;:[&quot;Path&quot;,{&quot;applyMatrix&quot;:true,&quot;segments&quot;:[[[280.56792,202.02399],[0,0],[-0.12872,-0.21431]],[280.65352,201.68096],[[280.66858,201.68652],[0,0],[0.15229,-1.11044]],[[279.85265,197.97603],[0.61362,-0.12698],[-1.904,0.12825]],[[273.98327,197.88739],[1.98922,-0.13914],[-1.91959,0.64428]],[[269.87432,201.31647],[1.38026,-1.36403],[-1.1436,1.79364]],[[268.35541,205.62012],[-1.28431,-2.13833],[0.78617,1.30895]],[[272.92844,208.61142],[-1.07615,-1.79175],[0.7537,1.31116]],[[276.6127,212.50373],[-1.30026,-0.67757],[2.28077,2.25261]],[[276.36862,210.04933],[0.30515,1.00103],[-0.19509,-1.05108]],[[277.28991,208.41712],[-0.75298,-0.16397],[0.2198,-0.15772]],[[277.92375,208.71907],[-0.09277,-0.25975],[0.0591,0.04134]],[[278.10518,208.85589],[-0.06183,-0.04993],[0,0]],[278.11148,208.90178],[278.11269,208.90343],[278.13159,208.89208],[[278.26231,209.10971],[0,0],[0.07109,0.11836]],[[278.17671,209.45274],[0.11837,-0.07109],[-0.11256,0.0676]],[[277.8447,209.38396],[0.07503,0.10504],[0,0]],[[277.70983,209.19959],[0,0],[-0.62613,-0.18399]],[[280.16446,211.66755],[-0.62836,-0.35227],[0.49439,0.25885]],[[281.893,212.0353],[-0.54671,0.03866],[0.08696,-0.00614]],[[282.27244,212.07581],[-0.14071,-0.02703],[-0.54272,-0.36633]],[[280.69137,210.24208],[0.18557,0.30898],[-1.06474,-1.85227]],[[279.77894,204.51279],[-0.54815,2.20346],[0.18794,-0.74529]],[[280.55604,202.32244],[-0.15674,0.72878],[-0.07408,-0.1191]],[[280.5613,202.0681],[0,0],[0.00556,-0.00897]],[[280.57748,202.03905],[-0.00522,0.01039],[-0.00324,-0.00481]],[[280.56793,202.02399],[0.00313,0.00523],[0,0]]],&quot;closed&quot;:true,&quot;fillColor&quot;:[0,0,0,1]}]}" fill="#ffae0a" stroke="none" stroke-width="0.5" stroke-linecap="butt"/><path d="M280.39432,202.23342c0,0 -0.21317,0.12988 -0.08446,0.34419c0.00314,0.00522 0.00644,0.01036 0.00967,0.01518c-0.00522,0.01039 -0.01055,0.02015 -0.01612,0.02912c0,0 -0.07819,0.13651 -0.0041,0.25561c-0.15674,0.72878 -0.58035,1.45918 -0.76828,2.20446c-0.54815,2.20346 -0.16465,3.93285 0.90008,5.78512c0.18557,0.30896 1.038,1.4677 1.58072,1.83403c-0.1407,-0.02703 -0.29365,-0.04562 -0.38061,-0.03947c-0.54671,0.03865 -1.24058,-0.10428 -1.73496,-0.36313c-0.62835,-0.35228 -3.0913,-2.64712 -2.46517,-2.46314l0.10319,0.08953c0.07503,0.10504 0.21601,0.13772 0.32857,0.07011c0.11836,-0.07109 0.15405,-0.22345 0.08296,-0.34181l-0.08625,-0.12807l-0.01918,0.01149l-0.04484,-0.09163l0.03751,0.04401c-0.06183,-0.04992 -0.1238,-0.09479 -0.1829,-0.13614c-0.09277,-0.25974 -0.42203,-0.45686 -0.64183,-0.29914c-0.75297,-0.16397 -1.12601,0.48281 -0.93092,1.53389c0.30516,1.00103 2.52192,4.80693 0.24115,2.55432c-1.30025,-0.67757 -2.97039,-2.60094 -3.72408,-3.91211c-1.07615,-1.79175 -3.797,-1.71374 -4.58317,-3.02269c-1.28432,-2.13832 0.3837,-2.53658 1.52731,-4.33021c1.38026,-1.36402 2.21519,-2.80448 4.13478,-3.44877c1.98922,-0.13913 4.00021,0.21812 5.90421,0.08987c0.61362,-0.12698 0.98416,2.61058 0.83187,3.72102z" data-paper-data="{&quot;noHover&quot;:false,&quot;origItem&quot;:[&quot;Path&quot;,{&quot;applyMatrix&quot;:true,&quot;segments&quot;:[[[485.48845,420.9208],[0,-0.5],[0,0.01218]],[[485.48758,420.95646],[0.00058,-0.01159],[0.01965,0.01244]],[[485.54523,420.98961],[-0.01877,-0.00965],[0,0]],[[485.81616,421.42027],[0.00436,-0.2805],[1.01922,1.0881]],[[489.40407,424.37543],[-1.0897,-1.08427],[3.20885,3.21341]],[[493.73951,435.13801],[-0.08189,-4.27218],[0,0.72083]],[[492.91704,439.9101],[0.55326,-1.18695],[0.2134,-0.19125]],[[493.52588,439.44992],[-0.15543,0.07901],[0.97714,-0.49672]],[[496.11079,437.0394],[-0.58108,0.95291],[0.71456,-1.25104]],[[497.77787,430.28033],[0.88405,-0.9602],[0,0]],[[497.73651,430.73532],[0,0],[-0.02047,0.25735]],[[497.2381,431.19513],[0.26261,0],[-0.27614,0]],[[496.7381,430.69513],[0,0.27614],[0,0]],[496.7381,430.18738],[496.7822,430.18738],[496.78257,430.18331],[[496.74612,430.09816],[0,0],[0.0546,-0.14928]],[[496.9163,429.67674],[-0.05877,0.13175],[-0.10842,-0.54086]],[[497.69209,428.50633],[-0.53926,-0.04407],[1.12213,-1.05652]],[[500.95244,430.35607],[-0.74788,-2.00299],[0.50763,2.03052]],[[503.06142,434.81554],[-1.59075,6.2108],[1.53157,-2.50066]],[[505.36998,424.34817],[0.05797,3.02416],[0,-4.18019]],[[510.1302,414.51037],[0,3.05379],[0,-4.98874]],[[503.09425,408.69581],[3.80776,1.89758],[-3.77112,-0.91731]],[[492.51822,407.04784],[3.95463,-0.87209],[-3.55383,1.80989]],[[482.54633,413.2439],[3.39651,-1.74078],[-1.18283,0.41419]],[[484.96835,420.44583],[-1.4046,-1.74705],[0,0]],[484.98845,420.4208]],&quot;closed&quot;:true}],&quot;index&quot;:null}" fill="url(#color-12)" stroke="none" stroke-width="0.5" stroke-linecap="butt"/><path d="M275.97117,201.49673c0.21431,-0.12872 0.34303,0.0856 0.34303,0.0856l-0.00386,0.04826c0.01259,0.01324 0.01932,0.02259 0.01932,0.02259c0.80823,1.12963 0.08514,4.05474 -0.41101,5.27908c-0.05028,0.44031 0.04601,0.80493 0.18896,1.22167l0.08576,0.22714c0.04463,0.11183 0.00293,0.24269 -0.10363,0.30669c-0.11836,0.07109 -0.27194,0.03277 -0.34303,-0.0856l-0.18425,-0.30677l0.03582,-0.02152c-0.50014,-0.48096 -1.10217,-1.07496 -1.67245,-1.05756c-1.0926,0.03335 -1.02421,1.78766 -1.3327,2.38793c-0.03208,0.12855 -0.15478,0.62699 -0.1702,0.63355c-0.45045,0.19131 -1.25918,-0.98269 -1.53244,-1.26279c-1.27372,-1.3056 -2.50648,-2.05246 -0.69456,-3.66913c1.88315,-1.13896 4.08086,-2.13172 5.66152,-3.6761c0.01494,-0.04664 0.0484,-0.09382 0.11371,-0.13305zM276.03838,202.14763c-1.58266,1.47017 -3.70198,2.46218 -5.54589,3.56078c-0.27163,0.24299 -0.92955,0.81041 -0.87094,1.2304c0.15721,1.12653 2.4824,2.57603 2.50486,2.48602c0.51174,-0.92061 0.23298,-2.03576 1.42965,-2.61482c0.40674,-0.19683 1.31146,0.14358 1.86741,0.58896c-0.0161,-0.18747 -0.0136,-0.38062 0.01079,-0.59074c0.39667,-0.97089 1.09482,-3.54736 0.60413,-4.6606z" data-paper-data="{&quot;index&quot;:null}" fill="#ffbc00" stroke="none" stroke-width="0.5" stroke-linecap="butt"/><path d="M273.23214,204.96893c-0.0243,-0.15608 0.12807,-0.24373 0.12807,-0.24373c0.15509,-0.08922 0.32958,-0.18959 0.48468,-0.27881c0.36766,-0.2115 2.11485,-1.52938 2.2964,-0.67946c0.1303,0.60999 -2.56429,1.64586 -2.83102,1.4772c0,0 -0.14208,-0.11968 -0.07813,-0.27518z" fill="#ffbc00" stroke="none" stroke-width="0.5" stroke-linecap="butt"/><path d="M279.98834,208.35605c-0.11836,0.07109 -0.27194,0.03277 -0.34303,-0.0856c-0.07109,-0.11836 -0.03277,-0.27194 0.0856,-0.34303c0.11836,-0.07109 0.27194,-0.03277 0.34303,0.0856c0.07109,0.11836 0.03277,0.27194 -0.0856,0.34303z" data-paper-data="{&quot;index&quot;:null}" fill="#ffbc00" stroke="none" stroke-width="0.5" stroke-linecap="butt"/><path d="M215.23643,205.36891c-1.2273,2.00516 -5.39029,1.69159 -9.29831,-0.70039c-3.90802,-2.39198 -6.08117,-5.95656 -4.85387,-7.96172c1.2273,-2.00516 5.39029,-1.69159 9.29831,0.70039c3.90802,2.39198 6.08117,5.95656 4.85387,7.96172z" fill="#3a3a3a" stroke="none" stroke-width="NaN" stroke-linecap="butt"/><path d="M198.90841,209.85542c0,-0.07197 0.13613,-0.13031 0.30405,-0.13031c0.16792,0 0.30405,0.05834 0.30405,0.13031c0,0.07197 -0.13613,0.13031 -0.30405,0.13031c-0.16792,0 -0.30405,-0.05834 -0.30405,-0.13031z" fill="#3a3a3a" stroke="none" stroke-width="0" stroke-linecap="butt"/><path d="M232.59548,137.3423l2.08888,-13.29283c0,0 0.74739,1.07822 2.0377,1.66736c0.94117,0.42973 2.34891,0.42151 3.08953,0.42151c0.74465,0 1.98868,0.28243 3.02037,-0.07903c1.75038,-0.61327 3.24625,-2.00984 3.24625,-2.00984l0.94948,12.72313c0,0 -1.31329,1.24096 -3.30629,1.88431c-1.11536,0.36005 -2.83488,0.27208 -3.70839,0.30656c-1.06343,0.04198 -2.85165,0.1011 -4.29261,-0.26586c-1.77706,-0.45255 -3.12491,-1.35531 -3.12491,-1.35531z" fill="#50dee8" stroke="none" stroke-width="0" stroke-linecap="butt"/><path d="M246.03344,123.82749c0,1.68435 -2.47254,3.04979 -5.52258,3.04979c-3.05004,0 -5.52258,-1.36544 -5.52258,-3.04978c0,-1.68435 2.47254,-3.04978 5.52258,-3.04978c3.05004,0 5.52258,1.36544 5.52258,3.04979z" fill="#41b6bf" stroke="none" stroke-width="0" stroke-linecap="butt"/></g></g></svg>