<svg version="1.1" xmlns="http://www.w3.org/2000/svg" xmlns:xlink="http://www.w3.org/1999/xlink" width="257.45602" height="198.29136" viewBox="0,0,257.45602,198.29136"><g transform="translate(-113.45296,-72.52779)"><g data-paper-data="{&quot;isPaintingLayer&quot;:true}" fill="#72eeff" fill-rule="nonzero" stroke="none" stroke-width="0.5" stroke-linecap="butt" stroke-linejoin="miter" stroke-miterlimit="10" stroke-dasharray="" stroke-dashoffset="0" style="mix-blend-mode: normal"><path d="M113.9587,217.93897c-0.98845,-0.76516 -0.22329,-1.75361 -0.22329,-1.75361l1.53198,-1.86652c2.76314,-0.749 5.91307,-2.17745 8.09669,-4.1231c1.66734,-1.48563 2.32445,-4.09173 3.76315,-5.72161c1.12847,-1.27842 2.34617,-2.62948 3.91915,-3.28793c0.67382,-0.28206 1.49183,0.21015 2.19142,0c1.13822,-0.34191 2.70305,-2.8165 3.70634,-3.70634c-0.10991,-1.46569 -1.68512,-3.51893 -2.2103,-4.93548c-2.71795,-7.33109 -5.96407,-14.23663 -9.84892,-21.03512c-2.08904,-3.65582 -4.77903,-7.25299 -4.83681,-11.53565c0,0 0,-1.25 1.25,-1.25c1.25,0 1.25,1.25 1.25,1.25c-0.06455,3.67599 2.71516,7.15885 4.50742,10.2953c3.95225,6.91643 7.28285,13.94628 10.02578,21.41557c0.95645,2.60451 2.23251,3.91994 2.17254,6.75209c-1.22859,1.32405 -3.31734,4.39752 -5.05933,5.05933c-0.68285,0.25943 -1.50804,-0.25803 -2.19142,0c-1.2456,0.4703 -2.12014,1.63712 -3.00275,2.63397c-1.50716,1.70223 -2.17543,4.31287 -3.92442,5.88785c-2.22496,2.0036 -5.56185,3.74563 -8.44159,4.39431l-0.92204,1.30364c0,0 -0.76516,0.98845 -1.75361,0.22329z"/><path d="M252.86094,184.47419c1.06599,-0.65281 1.7188,0.41318 1.7188,0.41318l1.06989,1.76369c1.64434,1.80337 6.1296,2.05954 8.56179,1.27353c0.69677,-0.22517 1.1733,-0.89952 1.80784,-1.258c-0.06865,-0.15169 -0.13627,-0.30396 -0.20277,-0.45685c-1.65887,-3.8138 -2.3817,-8.03159 -3.96144,-11.87877c-0.90939,-2.21467 -2.25,-4.26299 -3.22799,-6.44895c-0.25215,-0.56359 -0.18183,-1.33774 -0.65716,-1.73177c-0.50831,-0.42137 -2.14649,0.63124 -2.43618,0.78519c0,0 -1.11803,0.55902 -1.67705,-0.55902c-0.55902,-1.11803 0.55902,-1.67705 0.55902,-1.67705c1.48213,-0.70909 3.04585,-1.79443 4.86855,-0.67575c1.45637,0.89384 3.02884,5.6377 3.81497,7.2125c2.22639,4.45995 3.03154,9.42833 5.00981,13.97645c0.16935,0.38933 0.34935,0.77377 0.53764,1.15427c1.26779,0.1588 2.57132,0.59855 3.52421,0.90939c0,0 1.18585,0.39528 0.79057,1.58114c-0.39528,1.18585 -1.58114,0.79057 -1.58114,0.79057c-0.28324,-0.09683 -0.6877,-0.24416 -1.14583,-0.38967c2.29023,3.89527 4.82739,7.62078 4.77464,12.31217c-3.13339,1.34756 -5.68371,2.01922 -9.07731,2.02064h-0.73047c0,0 -1.25,0 -1.25,-1.25c0,-1.25 1.25,-1.25 1.25,-1.25h0.73047c2.44304,0.00108 4.59654,-0.54847 6.9931,-0.90125c-1.46707,-4.02169 -3.84801,-7.54218 -5.81307,-11.29513c-0.02979,0.01027 -0.05891,0.02136 -0.08733,0.03328c-0.76579,0.32138 -1.2761,1.14574 -2.07164,1.38415c-1.40197,0.42015 -7.50964,0.82701 -8.99557,0.03528c-0.9198,-0.49009 -1.51411,-1.43259 -2.27117,-2.14889l-1.23836,-2.00551c0,0 -0.65281,-1.06599 0.41318,-1.7188z"/><path d="M282.00221,117.81712c1.25,0 1.25,1.25 1.25,1.25v1.46095c-0.07865,0.73061 0.26912,1.65808 -0.23595,2.19183c-1.91436,2.02309 -6.62007,1.24959 -9.04926,1.24959c0,0 -1.25,0 -1.25,-1.25c0,-1.25 1.25,-1.25 1.25,-1.25c1.12553,0 7.31357,0.69342 6.7852,-0.94142v-1.46095c0,0 0,-1.25 1.25,-1.25z"/><path d="M173.16171,99.86387c-0.94193,0 -1.17408,-0.70979 -1.23129,-1.05965c-0.74378,-0.19254 -1.51221,-0.35223 -1.97418,-0.92041c-0.51479,-0.63313 0.15041,-1.68168 -0.1408,-2.44395c-0.48219,-1.26219 -2.04903,-1.78452 -2.89098,-2.84129c-1.22568,-1.53842 -3.32745,-4.12855 -3.74499,-6.11555c-0.38213,-1.8185 -0.04921,-4.69836 -0.03344,-6.55287c0.02893,-3.40199 1.03735,-7.10041 4.90237,-7.40237c0,0 1.25,0 1.25,1.25c0,1.25 -1.25,1.25 -1.25,1.25c-2.89678,-0.55617 -2.40237,5.812 -2.40237,7.40237c0,3.71423 0.8305,5.58897 3.22952,8.60533c0.27147,0.34133 3.14055,3.18594 3.24959,3.44767c0.24921,0.59816 -0.49265,1.39474 -0.1408,1.93889c0.28898,0.44691 1.04843,0.18367 1.57265,0.27551l0.85472,1.91633c0,0 0,1.25 -1.25,1.25z"/><path d="M361.62378,264.22033c-1.25,0 -1.25,-1.25 -1.25,-1.25l0.38692,0.17374c-2.22268,-2.21022 -6.38945,-2.30679 -8.31194,-5.05496c-1.77858,-2.54244 -0.53539,-5.19582 -0.09405,-7.73705c0.14093,-0.81146 -0.2482,-1.71373 0.07901,-2.46955c0.1322,-0.30537 3.31634,-3.45344 3.61651,-3.75107c3.31884,-3.29078 8.95577,-5.74251 13.60875,-5.78625c0,0 1.25,0 1.25,1.25c0,1.25 -1.25,1.25 -1.25,1.25c-3.9455,-0.04544 -9.05673,2.24367 -11.84098,5.05402c-0.998,1.00735 -2.55031,1.62249 -3.07458,2.94002c-0.236,0.59308 0.17906,1.28288 0.07901,1.91329c-0.26156,1.648 -1.62356,4.16251 -0.34232,5.87934c1.77784,2.38226 5.83146,2.69051 8.00674,4.70379l0.38692,1.63469c0,0 0,1.25 -1.25,1.25z"/><path d="M228.84912,270.66262c-1.11803,-0.55902 -0.55902,-1.67705 -0.55902,-1.67705l1.0295,-1.84625c1.43815,-0.522 2.94149,-1.02129 4.47137,-1.03616c0,0 1.25,0 1.25,1.25c0,1.25 -1.25,1.25 -1.25,1.25c-0.95493,-0.01223 -1.91381,0.16697 -2.83336,0.42479l-0.43144,1.07565c0,0 -0.55902,1.11803 -1.67705,0.55902z"/></g></g></svg>