<svg version="1.1" xmlns="http://www.w3.org/2000/svg" xmlns:xlink="http://www.w3.org/1999/xlink" width="177.40627" height="178.87701" viewBox="0,0,177.40627,178.87701"><defs><linearGradient x1="233.86583" y1="131.9351" x2="233.86583" y2="194.35876" gradientUnits="userSpaceOnUse" id="color-1"><stop offset="0" stop-color="#c2c2c2"/><stop offset="1" stop-color="#c20000"/></linearGradient><linearGradient x1="240.70778" y1="134.04031" x2="240.70778" y2="196.46397" gradientUnits="userSpaceOnUse" id="color-2"><stop offset="0" stop-color="#c2c2c2"/><stop offset="1" stop-color="#c20000"/></linearGradient><linearGradient x1="240.70778" y1="134.04031" x2="240.70778" y2="196.46397" gradientUnits="userSpaceOnUse" id="color-3"><stop offset="0" stop-color="#c2c2c2"/><stop offset="1" stop-color="#c20000"/></linearGradient><linearGradient x1="240.70778" y1="134.04031" x2="240.70778" y2="196.46397" gradientUnits="userSpaceOnUse" id="color-4"><stop offset="0" stop-color="#c2c2c2"/><stop offset="1" stop-color="#c20000"/></linearGradient><linearGradient x1="240.70778" y1="134.04031" x2="240.70778" y2="196.46397" gradientUnits="userSpaceOnUse" id="color-5"><stop offset="0" stop-color="#c2c2c2"/><stop offset="1" stop-color="#c20000"/></linearGradient><linearGradient x1="240.70778" y1="134.04031" x2="240.70778" y2="196.46397" gradientUnits="userSpaceOnUse" id="color-6"><stop offset="0" stop-color="#c2c2c2"/><stop offset="1" stop-color="#c20000"/></linearGradient><radialGradient cx="234.08906" cy="136.63957" r="18.24325" gradientUnits="userSpaceOnUse" id="color-7"><stop offset="0" stop-color="#3bd9e4"/><stop offset="1" stop-color="#ffffff"/></radialGradient><linearGradient x1="171.5552" y1="143.59613" x2="162.72489" y2="181.74977" gradientUnits="userSpaceOnUse" id="color-8"><stop offset="0" stop-color="#c2c2c2"/><stop offset="1" stop-color="#c20000"/></linearGradient><linearGradient x1="307.36437" y1="137.1826" x2="301.40372" y2="167.24604" gradientUnits="userSpaceOnUse" id="color-9"><stop offset="0" stop-color="#c2c2c2"/><stop offset="1" stop-color="#c20000"/></linearGradient><linearGradient x1="244.69074" y1="168.89393" x2="244.69074" y2="204.89393" gradientUnits="userSpaceOnUse" id="color-10"><stop offset="0" stop-color="#c20000"/><stop offset="1" stop-color="#c2c2c2"/></linearGradient><linearGradient x1="244.69074" y1="168.89393" x2="244.69074" y2="204.89393" gradientUnits="userSpaceOnUse" id="color-11"><stop offset="0" stop-color="#c20000"/><stop offset="1" stop-color="#c2c2c2"/></linearGradient></defs><g transform="translate(-148.47081,-72.58402)"><g data-paper-data="{&quot;isPaintingLayer&quot;:true}" fill-rule="nonzero" stroke-linejoin="miter" stroke-miterlimit="10" stroke-dasharray="" stroke-dashoffset="0" style="mix-blend-mode: normal"><path d="M274.62578,212.57318c-0.12495,0.05875 -0.27387,0.00509 -0.33262,-0.11986c-0.01883,-0.04003 -0.02611,-0.08252 -0.0232,-0.12373c0.17023,0.00616 0.33616,0.00106 0.49757,-0.01376c0.01312,0.10452 -0.04126,0.21008 -0.14175,0.25734z" fill="#ffbc00" stroke="none" stroke-width="0.5" stroke-linecap="butt"/><path d="M197.01448,131.9351h73.7027v45.44551c-0.19234,0.05115 -0.3543,0.17682 -0.45309,0.34421c-0.73233,0.41848 -1.8011,4.31605 -2.55048,5.25636c-0.81302,1.02017 -2.06961,2.15088 -3.17098,2.8439c-0.5754,0.36205 -2.67959,1.31723 -3.34934,2.18858c-1.04409,0.39406 -4.38759,1.39454 -5.1576,2.29416c-1.24943,0.27682 -2.50434,0.51808 -3.57289,0.84983c-1.83815,0.57068 -4.58985,1.44633 -6.89557,1.84297c-0.17287,0.02327 -0.34954,0.05163 -0.52608,0.08303c-0.53057,0.07568 -1.02992,0.12078 -1.47968,0.12472c-0.53017,0.00465 -1.87383,-0.23871 -2.70692,0.04514c-0.88418,-0.16773 -4.00932,0.22725 -4.33282,0.2407c-1.27079,0.05286 -4.69025,-0.68527 -5.43374,0.05822c-0.01112,0.01112 -0.02231,0.02242 -0.03352,0.03391c-2.66368,-0.23096 -6.26397,-0.23345 -7.28459,-0.28062c-1.51382,-0.06996 -5.27908,-1.78564 -7.51422,-1.90505c-0.51451,-0.95193 -3.51979,-1.27351 -4.01119,-1.39631c-1.26623,-0.31643 -2.8899,-0.844 -4.54086,-1.54144c-0.70773,-0.47949 -1.4496,-0.93204 -2.31164,-1.27391c-0.71789,-0.2847 -2.934,-2.26699 -4.6842,-3.49704c-0.01208,-0.01725 -0.02403,-0.03452 -0.03587,-0.05182c-0.00895,-0.05383 -0.02007,-0.11084 -0.03347,-0.17114c-0.27239,-1.22575 -2.30508,-1.95863 -2.6171,-3.36274l-0.00405,-0.0081c-0.22033,-0.51409 -0.54278,-1.84467 -1.0028,-2.78734z" fill="url(#color-1)" stroke="#000000" stroke-width="0.5" stroke-linecap="butt"/><path d="" fill="url(#color-2)" stroke="#000000" stroke-width="0.5" stroke-linecap="butt"/><path d="" fill="url(#color-3)" stroke="#000000" stroke-width="0.5" stroke-linecap="butt"/><path d="" fill="url(#color-4)" stroke="#000000" stroke-width="0.5" stroke-linecap="butt"/><path d="" fill="url(#color-5)" stroke="#000000" stroke-width="0.5" stroke-linecap="butt"/><path d="" fill="url(#color-6)" stroke="#000000" stroke-width="0.5" stroke-linecap="butt"/><path d="M253.30526,135.18011c0,4.29887 -9.5692,12.40541 -18.97297,12.40541c-9.40376,0 -17.51352,-7.37681 -17.51352,-11.67568c0,-4.29887 8.10975,-3.8919 17.51352,-3.8919c9.40377,0 18.97297,-1.1367 18.97297,3.16217z" fill="url(#color-7)" stroke="#ffffff" stroke-width="0.5" stroke-linecap="butt"/><path d="M149.23105,199.59928l16.05869,-22.99837c0,0 6.55409,-6.65832 8.65519,-8.4665c3.16585,-2.7245 13.13238,-20.94583 13.13238,-20.94583l-8.83031,38.15364z" fill="url(#color-8)" stroke="#000000" stroke-width="0.5" stroke-linecap="butt"/><path d="M276.41054,169.48203l7.33255,-36.98281c0,0 1.23587,17.51325 4.05947,22.97651c3.01808,5.83956 4.58583,12.21465 4.58583,12.21465l2.38204,26.75797z" fill="url(#color-9)" stroke="#000000" stroke-width="0.5" stroke-linecap="butt"/><path d="M281.50846,186.89393c0,0.51059 -0.04348,1.01621 -0.12874,1.51603c-0.25135,0.01882 -0.46816,0.16152 -0.58956,0.36723c-0.73233,0.41848 -1.8011,4.31605 -2.55048,5.25636c-0.81302,1.02017 -2.06961,2.15088 -3.17098,2.8439c-0.5754,0.36205 -2.67959,1.31723 -3.34934,2.18858c-1.04409,0.39406 -4.38759,1.39454 -5.1576,2.29416c-1.24943,0.27682 -2.50434,0.51808 -3.57289,0.84983c-1.51061,0.46899 -3.63821,1.14395 -5.62821,1.58975c-0.93063,0.16675 -1.87886,0.31566 -2.84296,0.44588c-0.14775,0.00875 -0.29132,0.01388 -0.43016,0.0151c-0.53017,0.00465 -1.87383,-0.23871 -2.70692,0.04514c-0.88418,-0.16773 -4.00932,0.22725 -4.33282,0.2407c-1.27079,0.05286 -4.69025,-0.68527 -5.43374,0.05822c-0.01112,0.01112 -0.02231,0.02242 -0.03352,0.03391c-1.7545,-0.15213 -3.91536,-0.20514 -5.47772,-0.23708c-1.42584,-0.16656 -2.81948,-0.37367 -4.17552,-0.6187c-1.68598,-0.53319 -3.72486,-1.25401 -5.14557,-1.32989c-0.51451,-0.95193 -3.51979,-1.27351 -4.01119,-1.39631c-0.93688,-0.23412 -2.06944,-0.58384 -3.26395,-1.03243c-0.77962,-0.35755 -1.52738,-0.7315 -2.24098,-1.12074c-0.13869,-0.08076 -0.27981,-0.15936 -0.4239,-0.23529c-2.33997,-1.3217 -4.29288,-2.81167 -5.77259,-4.42782c-0.17473,-0.38235 -0.51225,-0.72077 -0.88636,-1.05743c-1.49343,-1.95777 -2.30976,-4.07683 -2.30976,-6.28911c0,-9.94112 16.48386,-18 36.81774,-18c20.33388,0 36.81773,8.05888 36.81773,18z" fill="url(#color-10)" stroke="url(#color-11)" stroke-width="0.5" stroke-linecap="butt"/><path d="M208.95267,206.11711l-15.04443,-3.58015" fill="none" stroke="#000000" stroke-width="1.5" stroke-linecap="round"/><path d="M206.0809,220.77885l-14.7484,-4.26213" fill="none" stroke="#000000" stroke-width="1.5" stroke-linecap="round"/><path d="M238.74792,227.95995l-5.30014,-15.97434c0,0 0.55799,-1.49302 1.95757,-2.94417c1.23262,-1.27803 3.24451,-2.51199 4.33143,-2.82732c1.19099,-0.34552 3.59643,-0.88849 5.5471,-0.44438c2.34611,0.53414 4.16564,2.1142 4.16564,2.1142l4.51562,15.54954c0,0 -2.04172,-1.32874 -4.60701,-1.50798c-1.31882,-0.09215 -3.45787,-0.3711 -4.32186,-0.1141c-0.94359,0.28068 -2.56062,1.31464 -3.62281,2.18622c-1.78326,1.46324 -2.66554,3.96232 -2.66554,3.96232z" fill="#9086a5" stroke="none" stroke-width="0.5" stroke-linecap="butt"/><path d="M244.62489,221.16592l-4.25668,-14.31024" fill="none" stroke="#000000" stroke-width="1.5" stroke-linecap="round"/><path d="M238.3391,226.21678l-4.91044,-14.66424" fill="none" stroke="#000000" stroke-width="1.5" stroke-linecap="round"/><path d="M253.20231,222.34408l-4.17503,-14.7733" fill="none" stroke="#000000" stroke-width="1.5" stroke-linecap="round"/><path d="M246.09887,221.56089c0.55793,-0.16596 0.84694,-0.24755 1.33422,0.14013l0.12811,0.1345c1.70512,-0.24833 3.65579,0.13605 5.32343,0.54977c0,0 0.24215,0.06217 0.17997,0.30432c-0.06216,0.24214 -0.30431,0.17998 -0.30431,0.17998c-1.60913,-0.42413 -3.52774,-0.77789 -5.17584,-0.53326c-0.88322,0.01088 -1.77598,-0.24568 -2.63164,-0.10256l-0.00818,0.00259l-0.10052,0.17003c-0.8301,0.36329 -2.21749,0.88136 -2.82825,1.56822c-1.44799,1.01391 -1.79727,3.14369 -2.92468,3.97005c0,0 -0.21083,0.13437 -0.3452,-0.07645c-0.13436,-0.21082 0.07647,-0.34519 0.07647,-0.34519c0.32816,-0.15073 0.36182,-1.0205 0.53985,-1.39538c0.4354,-0.91683 1.49485,-1.94843 2.32377,-2.52886c0.65931,-0.70286 1.90901,-1.16712 2.80537,-1.57945c0.00289,-0.14792 0.14088,-0.20681 0.17431,-0.21891c0.02709,-0.01584 0.05964,-0.02684 0.09841,-0.02842l0.11527,-0.03283c0.35083,-0.04719 0.6986,-0.04049 1.04684,-0.01557c0.03667,-0.1223 0.17256,-0.16272 0.17256,-0.16272z" fill="#ffbc00" stroke="none" stroke-width="0.5" stroke-linecap="butt"/><path d="M267.71809,220.37284l9.19527,-14.09673c0,0 1.51557,-0.49349 3.52261,-0.30251c1.76761,0.1682 3.98614,0.97346 4.90987,1.62734c1.01217,0.71648 2.93529,2.26005 3.80293,4.06268c1.04353,2.16808 0.94083,4.57572 0.94083,4.57572l-9.35162,13.2184c0,0 -0.23231,-2.42492 -1.69001,-4.54339c-0.74941,-1.08911 -1.86361,-2.93625 -2.60283,-3.45206c-0.80735,-0.56334 -2.62346,-1.18427 -3.96694,-1.47233c-2.25549,-0.48359 -4.7601,0.38288 -4.7601,0.38288z" fill="#9086a5" stroke="none" stroke-width="0.5" stroke-linecap="butt"/><path d="M276.69384,220.73839l8.54341,-12.24387" fill="none" stroke="#000000" stroke-width="1.5" stroke-linecap="round"/><path d="M268.82712,218.96719l8.41312,-12.97581" fill="none" stroke="#000000" stroke-width="1.5" stroke-linecap="round"/><path d="M281.11506,228.18237l8.95652,-12.46843" fill="none" stroke="#000000" stroke-width="1.5" stroke-linecap="round"/><path d="M277.30299,222.1375c0.47736,0.33309 0.72122,0.50838 0.72147,1.13105l-0.02541,0.18399c1.25639,1.17924 2.17077,2.94468 2.88588,4.50697c0,0 0.1022,0.22816 -0.12596,0.33036c-0.22816,0.1022 -0.33036,-0.12595 -0.33036,-0.12595c-0.67054,-1.52302 -1.58889,-3.2443 -2.80687,-4.38123c-0.55867,-0.68415 -0.91407,-1.54238 -1.55903,-2.12262l-0.00712,-0.00478l-0.19563,0.02728c-0.80126,-0.4231 -2.07078,-1.18574 -2.98855,-1.23569c-1.69514,-0.50121 -3.57883,0.55221 -4.92756,0.18498c0,0 -0.23644,-0.08123 -0.15521,-0.31767c0.08123,-0.23644 0.31767,-0.1552 0.31767,-0.1552c0.32232,0.16283 1.02371,-0.35262 1.42787,-0.44686c0.98845,-0.23048 2.4554,-0.04426 3.42582,0.24266c0.96054,0.07797 2.10216,0.76641 2.98308,1.21081c0.11752,-0.08989 0.24954,-0.01861 0.27983,0.00001c0.02927,0.01132 0.05815,0.02994 0.08353,0.05928l0.09749,0.06972c0.25544,0.24504 0.46683,0.52129 0.66426,0.80924c0.11851,-0.0475 0.23479,0.03364 0.23479,0.03364z" fill="#ffbc00" stroke="none" stroke-width="0.5" stroke-linecap="butt"/><path d="M280.55841,230.06302c-1.49947,2.13558 -5.67975,1.78518 -9.33693,-0.78265c-3.65718,-2.56783 -5.40636,-6.3807 -3.90691,-8.51627c1.49947,-2.13558 5.67975,-1.78518 9.33693,0.78265c3.65718,2.56783 5.40636,6.3807 3.90691,8.51627z" fill="#3a3a3a" stroke="none" stroke-width="0" stroke-linecap="butt"/><path d="M228.38506,136.816l2.08888,-13.29283c0,0 0.74739,1.07822 2.0377,1.66736c0.94117,0.42973 2.34891,0.42151 3.08953,0.42151c0.74465,0 1.98868,0.28243 3.02037,-0.07903c1.75038,-0.61327 3.24625,-2.00984 3.24625,-2.00984l0.94948,12.72313c0,0 -1.31329,1.24096 -3.30629,1.88431c-1.11536,0.36005 -2.83488,0.27208 -3.70839,0.30656c-1.06343,0.04198 -2.85165,0.1011 -4.29261,-0.26586c-1.77706,-0.45255 -3.12491,-1.35531 -3.12491,-1.35531z" fill="#50dee8" stroke="none" stroke-width="0" stroke-linecap="butt"/><path d="M241.81768,123.54413c-0.0741,1.68272 -2.60431,2.93807 -5.6514,2.8039c-3.04709,-0.13417 -5.45717,-1.60706 -5.38307,-3.28977c0.0741,-1.68272 2.60431,-2.93806 5.6514,-2.80389c3.04709,0.13417 5.45717,1.60706 5.38307,3.28978z" fill="#41b6bf" stroke="none" stroke-width="0" stroke-linecap="butt"/><path d="M254.21639,223.99281c0.69078,2.51633 -2.24251,5.5152 -6.55174,6.69818c-4.30921,1.18298 -8.36253,0.10208 -9.05331,-2.41424c-0.69078,-2.51633 2.24251,-5.5152 6.55174,-6.69818c4.30921,-1.18298 8.36253,-0.10208 9.05331,2.41424z" fill="#3a3a3a" stroke="none" stroke-width="0" stroke-linecap="butt"/><g><path d="M194.70052,201.10637l16.36259,3.9416c0,0 0.97268,1.26268 1.4651,3.21773c0.43366,1.72182 0.41813,4.08192 0.11148,5.17133c-0.33601,1.19371 -1.14615,3.52279 -2.55398,4.94418c-1.69323,1.70954 -3.99616,2.41932 -3.99616,2.41932l-15.58739,-4.38316c0,0 2.20697,-1.03123 3.71473,-3.11438c0.77514,-1.07095 2.14228,-2.73956 2.38066,-3.60887c0.26033,-0.94941 0.237,-2.86861 0.05835,-4.23095c-0.29993,-2.28717 -1.95537,-4.35679 -1.95537,-4.35679z" fill="#9086a5" stroke="none" stroke-width="0.5" stroke-linecap="butt"/><path d="M208.09026,212.67131l-14.39842,-3.94811" fill="none" stroke="#000000" stroke-width="1.5" stroke-linecap="round"/><path d="M190.42129,215.92548c-2.58426,-0.36154 -4.17732,-4.24221 -3.55821,-8.66776c0.61912,-4.42555 3.21596,-7.72009 5.80022,-7.35855c2.58426,0.36154 4.17732,4.24221 3.55821,8.66776c-0.61912,4.42555 -3.21596,7.72009 -5.80022,7.35855z" fill="#3a3a3a" stroke="none" stroke-width="0" stroke-linecap="butt"/></g><path d="M185.98349,172.87864c0,-0.05017 0.00296,-0.09965 0.0087,-0.14827c-1.82335,-1.50182 -7.20761,-2.92761 -4.92616,-6.36728c1.29951,-1.95923 5.03163,-1.71086 6.76044,-3.14964c1.71563,-1.42782 3.06463,-5.73811 4.15344,-7.73425c0,0 0.59857,-1.09737 1.69593,-0.4988c1.09737,0.59857 0.4988,1.69593 0.4988,1.69593c-1.25352,2.29812 -2.62647,6.62942 -4.61224,8.33616c-1.85366,1.59319 -4.39064,1.54799 -6.38808,2.69414c-0.90664,0.52024 1.60387,1.35333 2.49515,1.89946c2.55288,1.56426 3.11766,2.98681 4.7213,5.38978l0.66818,0.67139c0,0 0.86375,0.90357 -0.03982,1.76732c-0.90357,0.86375 -1.76732,-0.03982 -1.76732,-0.03982l-0.94116,-1.01214c-0.47254,-0.70951 -0.80854,-1.52077 -1.23158,-2.26342c-0.6175,-0.07608 -1.09558,-0.60249 -1.09558,-1.24056z" fill="#72eeff" stroke="none" stroke-width="0.5" stroke-linecap="butt"/><path d="M195.26869,193.12094c-1.25,0 -1.25,-1.25 -1.25,-1.25l0.51559,0.28919c-1.06691,-0.62075 -1.99064,-1.57015 -2.57504,-2.65206c0,0 -0.55902,-1.11803 0.55902,-1.67705c1.11803,-0.55902 1.67705,0.55902 1.67705,0.55902c0.30807,0.70517 0.92724,1.32433 1.6324,1.6324l0.69098,1.84851c0,0 0,1.25 -1.25,1.25z" fill="#72eeff" stroke="none" stroke-width="0.5" stroke-linecap="butt"/><path d="M226.58366,213.70956c0.88388,0.88388 0,1.76777 0,1.76777l-1.44918,0.93142c-1.45331,0 -2.90663,0 -4.35994,0c0.28881,0.21097 0.8082,0.73437 0.39028,1.57021c-0.55902,1.11803 -1.67705,0.55902 -1.67705,0.55902l-1.63489,-1.02617c-0.06792,-1.06168 -0.35025,-4.30068 -0.15325,-5.46675c0.34288,-2.02947 1.10843,-3.09888 1.09716,-5.3658c0,0 0,-1.25 1.25,-1.25c1.25,0 1.25,1.25 1.25,1.25c-0.01087,2.50511 -0.5557,4.85453 -0.97972,7.2688c0.17047,-0.03932 0.29502,-0.03932 0.29502,-0.03932c1.50746,0 3.01493,0 4.52239,0l-0.31858,-0.19918c0,0 0.88388,-0.88388 1.76777,0z" fill="#72eeff" stroke="none" stroke-width="0.5" stroke-linecap="butt"/><path d="M171.31169,218.55054c0,-1.25 1.25,-1.25 1.25,-1.25l0.00628,0.13197c0.90964,-0.45482 2.89992,-1.09856 3.52273,-1.9019c0.60692,-0.78287 0.65665,-1.87993 1.14149,-2.74374c1.55253,-2.76606 3.24366,-5.50421 3.70209,-8.72055c0.44421,-3.11659 -0.01251,-6.67033 -0.01251,-9.82362c0,0 0,-1.25 1.25,-1.25c1.25,0 1.25,1.25 1.25,1.25c0,3.27361 0.44886,6.93945 -0.01251,10.17638c-0.50326,3.53086 -2.28302,6.55873 -3.99875,9.59453c-0.54358,0.96181 -0.63438,2.17867 -1.33305,3.03448c-0.97398,1.19305 -3.0149,1.93221 -4.39146,2.62049l-1.12432,0.13197c0,0 -1.25,0 -1.25,-1.25z" fill="#72eeff" stroke="none" stroke-width="0.5" stroke-linecap="butt"/><path d="M299.59889,251.44762c-1.24035,-0.15504 -1.0853,-1.39539 -1.0853,-1.39539l0.25521,-2.0417c1.41815,-11.21527 6.2578,-21.79953 7.60757,-33.12614c-2.22359,-0.3356 -4.45824,-0.59346 -6.69558,-0.73899c-2.1582,-0.14038 -4.99558,0.57123 -7.05755,-0.04702c-2.54584,-0.76332 -6.5733,-4.5188 -7.61181,-6.99359c-0.10281,-0.245 -0.07466,-4.63579 -0.07466,-4.70912c0,-2.3408 0,-4.68159 0,-7.02239c0,0 0,-1.25 1.25,-1.25c1.25,0 1.25,1.25 1.25,1.25c0,2.3408 0,4.68159 0,7.02239c0,1.28626 -0.60383,2.68569 -0.07466,3.85805c0.79125,1.75299 4.12414,4.90878 5.95536,5.44298c1.85658,0.5416 4.55348,-0.17347 6.50962,-0.04702c4.93641,0.31909 9.86229,1.1698 14.68785,2.20385c2.08196,0.44635 4.16628,0.81948 6.26237,1.19042l2.15388,-0.00462c0,0 1.25,0 1.25,1.25c0,1.25 -1.25,1.25 -1.25,1.25l-2.36851,-0.00462c-2.20153,-0.37586 -4.38721,-0.76882 -6.57156,-1.23668c-1.70361,-0.36506 -3.41975,-0.70708 -5.14447,-1.00972c-0.75568,6.39833 -2.25533,12.62084 -3.928,18.84802c-1.26286,4.70147 -3.07196,9.34627 -3.66915,14.18428l-0.25521,2.0417c0,0 -0.15504,1.24035 -1.39539,1.0853z" fill="#72eeff" stroke="none" stroke-width="0.5" stroke-linecap="butt"/><path d="M323.3923,187.29109c0.05093,-0.34094 0.27233,-1.08199 1.23478,-1.08199c1.25,0 1.25,1.25 1.25,1.25l-0.69098,1.68333c-4.62644,2.23957 -6.77179,7.36517 -12.43029,7.48085c0,0 -1.25,0 -1.25,-1.25c0,-1.25 1.25,-1.25 1.25,-1.25c4.42062,0.12486 7.07896,-4.60732 10.63649,-6.83219z" fill="#72eeff" stroke="none" stroke-width="0.5" stroke-linecap="butt"/><path d="M279.40946,108.32982c1.11803,-0.55902 1.67705,0.55902 1.67705,0.55902l0.5653,1.1306c1.72937,3.47642 4.0006,6.66313 5.66555,10.20051c0.43464,0.92345 1.17139,1.7775 1.25,2.79508c0.14585,1.88803 -1.59927,2.27956 -2.65182,3.16006c-2.35707,1.97179 -4.44107,4.45059 -6.61534,6.62486c-1.36045,1.36045 -3.02536,2.59281 -3.86668,4.34127c0,0 -0.55902,1.11803 -1.67705,0.55902c-1.11803,-0.55902 -0.55902,-1.67705 -0.55902,-1.67705c1.93742,-3.77037 6.2751,-6.93931 9.27893,-9.93495c0.62064,-0.61895 1.18969,-1.2948 1.86414,-1.85462c0.54209,-0.44995 1.97335,-0.55862 1.72683,-1.21859c-1.56819,-4.19834 -4.65108,-7.89442 -6.65162,-11.87756l-0.5653,-1.1306c0,0 -0.55902,-1.11803 0.55902,-1.67705z" fill="#72eeff" stroke="none" stroke-width="0.5" stroke-linecap="butt"/><path d="M183.30237,116.11204c1.25,0 1.25,1.25 1.25,1.25l-0.20994,1.25867c-1.27538,1.89525 -1.89417,3.82521 -2.69615,5.96382c0,0 -0.26994,0.71983 -0.95094,0.81877c0.36362,0.30882 0.44694,0.79047 0.44694,0.79047l0.19706,1.13925c0.42748,2.48016 1.08462,4.86466 1.50012,7.3478c0,0 0.2055,1.23299 -1.02749,1.43849c-1.23299,0.2055 -1.43849,-1.02749 -1.43849,-1.02749c-0.32911,-1.98291 -0.81544,-3.90309 -1.21676,-5.85962c-1.75132,1.02536 -3.31756,0.53435 -5.59543,1.14122c-2.89808,0.77211 -6.3395,2.40694 -9.10989,3.61663c-1.09257,0.47707 -4.32658,3.00458 -5.65711,2.69543c-0.79993,-0.18586 -1.34937,-0.96002 -1.89705,-1.57197c-1.99936,-2.23402 -3.79252,-5.40328 -5.15291,-8.02951l-0.21018,-1.6673c0,0 -0.14046,-1.24208 1.10163,-1.38254c1.24208,-0.14046 1.38254,1.10163 1.38254,1.10163l0.11556,1.2133c0.99652,1.85831 2.22028,3.44849 3.38336,5.19843c0.58184,0.87543 0.68326,2.32911 1.67751,2.67024c0.742,0.25458 1.26997,-0.93028 1.96236,-1.29903c0.76437,-0.40708 1.50024,-0.87325 2.2939,-1.2198c2.8673,-1.252 6.46502,-2.94154 9.46669,-3.74125c2.08501,-0.55549 4.05669,0.37853 5.5437,-1.30413c0,0 0.07584,-0.07584 0.20529,-0.16087c-0.01557,-0.32029 0.04281,-1.14665 1.03083,-1.31756c0.01379,-0.00239 0.02746,-0.00459 0.041,-0.00662c-0.79052,-0.50855 -0.43306,-1.46177 -0.43306,-1.46177c0.87059,-2.32158 1.58666,-4.40064 2.95684,-6.47276l-0.20994,0.12808c0,0 0,-1.25 1.25,-1.25z" fill="#72eeff" stroke="none" stroke-width="0.5" stroke-linecap="butt"/><path d="M214.2744,104.92546c0,-0.69036 0.55964,-1.25 1.25,-1.25c0.69036,0 1.25,0.55964 1.25,1.25c0,0.69036 -0.55964,1.25 -1.25,1.25c-0.69036,0 -1.25,-0.55964 -1.25,-1.25z" fill="#72eeff" stroke="none" stroke-width="0.5" stroke-linecap="butt"/><path d="M211.56731,88.0859c-1.25,0 -1.25,-1.25 -1.25,-1.25l0.36612,-1.44918c0.78508,-0.76717 1.8853,-1.87206 2.47652,-2.70814c0.38802,-0.54873 -1.13112,-0.7885 -1.49332,-1.3546c-1.49498,-2.33653 -1.89631,-4.8015 -1.91461,-7.48995c0,0 0,-1.25 1.25,-1.25c1.25,0 1.25,1.25 1.25,1.25c-0.01731,2.14115 0.25516,4.21767 1.47718,6.07722c0.74348,1.13135 2.18052,1.31022 1.89847,3.16779c-0.12203,0.80368 -2.56233,3.45019 -3.17647,4.07545l0.36612,-0.31858c0,0 0,1.25 -1.25,1.25z" fill="#72eeff" stroke="none" stroke-width="0.5" stroke-linecap="butt"/></g></g></svg>