<svg version="1.1" xmlns="http://www.w3.org/2000/svg" xmlns:xlink="http://www.w3.org/1999/xlink" width="122.46291" height="105.34682" viewBox="0,0,122.46291,105.34682"><defs><linearGradient x1="240.70778" y1="134.0403" x2="240.70778" y2="196.46398" gradientUnits="userSpaceOnUse" id="color-1"><stop offset="0" stop-color="#c2c2c2"/><stop offset="1" stop-color="#c20000"/></linearGradient><linearGradient x1="240.70778" y1="134.0403" x2="240.70778" y2="196.46398" gradientUnits="userSpaceOnUse" id="color-2"><stop offset="0" stop-color="#c2c2c2"/><stop offset="1" stop-color="#c20000"/></linearGradient><linearGradient x1="240.70778" y1="134.0403" x2="240.70778" y2="196.46398" gradientUnits="userSpaceOnUse" id="color-3"><stop offset="0" stop-color="#c2c2c2"/><stop offset="1" stop-color="#c20000"/></linearGradient><linearGradient x1="240.70778" y1="134.0403" x2="240.70778" y2="196.46398" gradientUnits="userSpaceOnUse" id="color-4"><stop offset="0" stop-color="#c2c2c2"/><stop offset="1" stop-color="#c20000"/></linearGradient><linearGradient x1="240.70778" y1="134.0403" x2="240.70778" y2="196.46398" gradientUnits="userSpaceOnUse" id="color-5"><stop offset="0" stop-color="#c2c2c2"/><stop offset="1" stop-color="#c20000"/></linearGradient><linearGradient x1="240.70778" y1="134.0403" x2="240.70778" y2="196.46398" gradientUnits="userSpaceOnUse" id="color-6"><stop offset="0" stop-color="#c2c2c2"/><stop offset="1" stop-color="#c20000"/></linearGradient><radialGradient cx="239.8784" cy="139.2711" r="18.24325" gradientUnits="userSpaceOnUse" id="color-7"><stop offset="0" stop-color="#3bd9e4"/><stop offset="1" stop-color="#ffffff"/></radialGradient><linearGradient x1="188.43245" y1="134.64949" x2="188.43245" y2="173.81165" gradientUnits="userSpaceOnUse" id="color-8"><stop offset="0" stop-color="#c2c2c2"/><stop offset="1" stop-color="#c20000"/></linearGradient><linearGradient x1="301.90542" y1="134.16299" x2="301.90542" y2="164.81165" gradientUnits="userSpaceOnUse" id="color-9"><stop offset="0" stop-color="#c2c2c2"/><stop offset="1" stop-color="#c20000"/></linearGradient><linearGradient x1="241.00661" y1="159.94678" x2="241.00661" y2="195.94678" gradientUnits="userSpaceOnUse" id="color-10"><stop offset="0" stop-color="#c20000"/><stop offset="1" stop-color="#c2c2c2"/></linearGradient><linearGradient x1="241.00661" y1="159.94678" x2="241.00661" y2="195.94678" gradientUnits="userSpaceOnUse" id="color-11"><stop offset="0" stop-color="#c20000"/><stop offset="1" stop-color="#c2c2c2"/></linearGradient><linearGradient x1="208.52159" y1="200.00609" x2="201.81998" y2="214.77916" gradientUnits="userSpaceOnUse" id="color-12"><stop offset="0" stop-color="#ffbc00"/><stop offset="1" stop-color="#ff0076"/></linearGradient><linearGradient x1="201.51216" y1="201.89687" x2="198.95692" y2="205.63864" gradientUnits="userSpaceOnUse" id="color-13"><stop offset="0" stop-color="#ffbc00"/><stop offset="1" stop-color="#ff0076"/></linearGradient><linearGradient x1="209.59279" y1="197.92442" x2="202.71259" y2="213.09121" gradientUnits="userSpaceOnUse" id="color-14"><stop offset="0" stop-color="#ffbc00"/><stop offset="1" stop-color="#ff0076"/></linearGradient><linearGradient x1="240.79379" y1="209.73767" x2="240.79379" y2="225.95972" gradientUnits="userSpaceOnUse" id="color-15"><stop offset="0" stop-color="#ffbc00"/><stop offset="1" stop-color="#ff0076"/></linearGradient><linearGradient x1="245.78307" y1="215.27522" x2="245.78307" y2="219.80623" gradientUnits="userSpaceOnUse" id="color-16"><stop offset="0" stop-color="#ffbc00"/><stop offset="1" stop-color="#ff0076"/></linearGradient><linearGradient x1="240.90934" y1="207.3994" x2="240.90934" y2="224.05379" gradientUnits="userSpaceOnUse" id="color-17"><stop offset="0" stop-color="#ffbc00"/><stop offset="1" stop-color="#ff0076"/></linearGradient></defs><g transform="translate(-178.7172,-120.61287)"><g data-paper-data="{&quot;isPaintingLayer&quot;:true}" fill-rule="nonzero" stroke-linejoin="miter" stroke-miterlimit="10" stroke-dasharray="" stroke-dashoffset="0" style="mix-blend-mode: normal"><g stroke-width="0.5" stroke-linecap="butt"><path d="M203.85643,134.0403h73.7027v45.44551c-0.19234,0.05115 -0.3543,0.17682 -0.45309,0.34421c-0.73233,0.41848 -1.8011,4.31605 -2.55048,5.25636c-0.81302,1.02017 -2.06961,2.15088 -3.17098,2.8439c-0.5754,0.36205 -2.67959,1.31723 -3.34934,2.18858c-1.04409,0.39406 -4.38759,1.39454 -5.1576,2.29416c-1.24943,0.27682 -2.50434,0.51808 -3.57289,0.84983c-1.83815,0.57068 -4.58985,1.44633 -6.89557,1.84297c-0.17287,0.02327 -0.34954,0.05163 -0.52608,0.08303c-0.53057,0.07568 -1.02992,0.12078 -1.47968,0.12472c-0.53017,0.00465 -1.87383,-0.23871 -2.70692,0.04514c-0.88418,-0.16773 -4.00932,0.22725 -4.33282,0.2407c-1.27079,0.05286 -4.69025,-0.68527 -5.43374,0.05822c-0.01112,0.01112 -0.02231,0.02242 -0.03352,0.03391c-2.66368,-0.23096 -6.26397,-0.23345 -7.28459,-0.28062c-1.51382,-0.06996 -5.27908,-1.78564 -7.51422,-1.90505c-0.51451,-0.95193 -3.51979,-1.27351 -4.01119,-1.39631c-1.26623,-0.31643 -2.8899,-0.844 -4.54086,-1.54144c-0.70773,-0.47949 -1.4496,-0.93204 -2.31164,-1.27391c-0.71789,-0.2847 -2.934,-2.26699 -4.6842,-3.49704c-0.01208,-0.01725 -0.02403,-0.03452 -0.03587,-0.05182c-0.00895,-0.05383 -0.02007,-0.11084 -0.03347,-0.17114c-0.27239,-1.22575 -2.30508,-1.95863 -2.6171,-3.36274l-0.00405,-0.0081c-0.22033,-0.51409 -0.54278,-1.84467 -1.0028,-2.78734z" fill="url(#color-1)" stroke="#000000"/><path d="" fill="url(#color-2)" stroke="#000000"/><path d="" fill="url(#color-3)" stroke="#000000"/><path d="" fill="url(#color-4)" stroke="#000000"/><path d="" fill="url(#color-5)" stroke="#000000"/><path d="" fill="url(#color-6)" stroke="#000000"/><path d="M259.0946,137.81165c0,4.29887 -9.5692,12.40541 -18.97297,12.40541c-9.40376,0 -17.51352,-7.37681 -17.51352,-11.67568c0,-4.29887 8.10975,-3.8919 17.51352,-3.8919c9.40377,0 18.97297,-1.1367 18.97297,3.16217z" fill="url(#color-7)" stroke="#ffffff"/><path d="M179.31083,194.24409l10.45946,-26.02703c0,0 4.88399,-7.96467 6.52327,-10.20005c2.47,-3.36818 8.07131,-23.36752 8.07131,-23.36752v39.16216z" fill="url(#color-8)" stroke="#000000"/><path d="M277.82433,171.86571v-37.70271c0,0 4.61831,16.93849 8.45051,21.74829c4.09615,5.14109 6.87381,11.08955 6.87381,11.08955l7.54054,25.78378z" fill="url(#color-9)" stroke="#000000"/><path d="M277.82433,177.94678c0,0.51059 -0.04348,1.01621 -0.12874,1.51603c-0.25135,0.01882 -0.46816,0.16152 -0.58956,0.36723c-0.73233,0.41848 -1.8011,4.31605 -2.55048,5.25636c-0.81302,1.02017 -2.06961,2.15088 -3.17098,2.8439c-0.5754,0.36205 -2.67959,1.31723 -3.34934,2.18858c-1.04409,0.39406 -4.38759,1.39454 -5.1576,2.29416c-1.24943,0.27682 -2.50434,0.51808 -3.57289,0.84983c-1.51061,0.46899 -3.63821,1.14395 -5.62821,1.58975c-0.93063,0.16675 -1.87886,0.31566 -2.84296,0.44588c-0.14775,0.00875 -0.29132,0.01388 -0.43016,0.0151c-0.53017,0.00465 -1.87383,-0.23871 -2.70692,0.04514c-0.88418,-0.16773 -4.00932,0.22725 -4.33282,0.2407c-1.27079,0.05286 -4.69025,-0.68527 -5.43374,0.05822c-0.01112,0.01112 -0.02231,0.02242 -0.03352,0.03391c-1.7545,-0.15213 -3.91536,-0.20514 -5.47772,-0.23708c-1.42584,-0.16656 -2.81948,-0.37367 -4.17552,-0.6187c-1.68598,-0.53319 -3.72486,-1.25401 -5.14557,-1.32989c-0.51451,-0.95193 -3.51979,-1.27351 -4.01119,-1.39631c-0.93688,-0.23412 -2.06944,-0.58384 -3.26395,-1.03243c-0.77962,-0.35755 -1.52738,-0.7315 -2.24098,-1.12074c-0.13869,-0.08076 -0.27981,-0.15936 -0.4239,-0.23529c-2.33997,-1.3217 -4.29288,-2.81167 -5.77259,-4.42782c-0.17473,-0.38235 -0.51225,-0.72077 -0.88636,-1.05743c-1.49343,-1.95777 -2.30976,-4.07683 -2.30976,-6.28911c0,-9.94112 16.48386,-18 36.81774,-18c20.33388,0 36.81773,8.05888 36.81773,18z" fill="url(#color-10)" stroke="url(#color-11)"/></g><path d="M245.67065,218.55152c-0.13807,0 -0.25,-0.11193 -0.25,-0.25c0,-0.13807 0.11193,-0.25 0.25,-0.25c0.13807,0 0.25,0.11193 0.25,0.25c0,0.13807 -0.11193,0.25 -0.25,0.25z" data-paper-data="{&quot;index&quot;:null}" fill="#ffbc00" stroke="none" stroke-width="0.5" stroke-linecap="butt"/><path d="M201.77366,196.67256l9.05277,-14.18865c0,0 1.51052,-0.50873 3.51938,-0.33799c1.76921,0.15038 3.99574,0.93325 4.92602,1.57779c1.01934,0.70625 2.95791,2.23036 3.84367,4.02417c1.06533,2.15746 0.98688,4.56601 0.98688,4.56601l-9.21797,13.31194c0,0 -0.25674,-2.42245 -1.7357,-4.52614c-0.76034,-1.08151 -1.8931,-2.91732 -2.63748,-3.42566c-0.81298,-0.55517 -2.63526,-1.15779 -3.98157,-1.43229c-2.26025,-0.46085 -4.756,0.43082 -4.756,0.43082z" fill="#9086a5" stroke="none" stroke-width="0.5" stroke-linecap="butt"/><path d="M210.75263,196.94766l8.41962,-12.32932" fill="none" stroke="#000000" stroke-width="1.5" stroke-linecap="round"/><path d="M211.15043,182.19588l-8.28196,13.05992" fill="none" stroke="#000000" stroke-width="1.5" stroke-linecap="round"/><path d="M215.24862,204.34673l8.83045,-12.55803" fill="none" stroke="#000000" stroke-width="1.5" stroke-linecap="round"/><path d="M208.22631,208.4436c0.071,-0.08947 0.15045,-0.10563 0.21579,-0.09678c0.50799,-0.30126 1.05887,-0.60998 1.65251,-0.95969c0.61708,-0.03619 1.1741,-0.18176 1.67529,-0.41411c-0.00054,-0.01092 -0.00114,-0.02184 -0.00184,-0.03278c0,0 -0.00945,-0.24982 0.24038,-0.25926c0.08971,-0.00339 0.14843,0.02666 0.18684,0.06656c1.07807,-0.64638 1.8677,-1.71641 2.42053,-2.93508c0,0 0.10327,-0.22767 0.33095,-0.12439c0.22768,0.10328 0.12439,0.33095 0.12439,0.33095c-0.60024,1.32318 -1.54817,2.61791 -2.82556,3.3161c-0.26989,2.12276 -2.88263,3.59751 -4.19387,4.85892l-0.16799,0.21166c-0.069,0.09095 -0.19401,0.12551 -0.30236,0.07636c-0.12573,-0.05704 -0.18142,-0.20521 -0.12439,-0.33095l0.20207,-0.44544l0.07302,0.03312c0.31008,-0.92349 0.84735,-1.74558 0.71504,-2.75174c-1.63985,1.00588 -2.79934,1.85838 -3.43449,4.38778c-0.12724,0.50566 -0.55253,1.66358 -0.23969,2.13452l0.19741,0.15668c0.09095,0.069 0.12551,0.19401 0.07635,0.30235c-0.05704,0.12573 -0.20521,0.18142 -0.33095,0.12439l-0.25454,-0.11547l0.02569,-0.05663l-0.04896,-0.03885l0.02683,-0.03381c-0.00911,-0.00448 -0.01822,-0.00906 -0.0273,-0.01374l-0.03067,0.01814c-0.00981,-0.0165 -0.01923,-0.03314 -0.02825,-0.04995c-1.463,-0.82636 -2.3709,-4.07379 -1.90712,-5.34236c0.03951,-0.21602 0.5306,-1.57942 0.81631,-2.28509c-0.15711,0.14513 -0.34278,0.28506 -0.40089,0.35816c-0.42221,0.53119 -0.69295,1.04373 -0.98166,1.67007c-0.32448,0.40884 -1.12446,1.51708 -1.14539,1.99496l0.15316,0.1889c0.06045,0.07144 0.07812,0.17404 0.03689,0.26493c-0.05704,0.12573 -0.20521,0.18142 -0.33095,0.12439c-0.03824,-0.01735 -0.07,-0.04313 -0.09408,-0.07414l-0.19364,-0.23882l0.01901,-0.01542l-0.05884,-0.05408c-0.00508,-0.0987 0.00511,-0.20588 0.02769,-0.3189c-0.60201,-1.01522 -0.43865,-5.02695 -0.0317,-5.93866c0.96369,-2.12435 1.33103,-3.17411 1.00145,-5.41321c-0.91728,-1.39752 -0.51191,-2.09335 0.15994,-3.57439l0.02887,-0.06363c0,0 0.10327,-0.22767 0.33095,-0.12439c0.22768,0.10328 0.12439,0.33095 0.12439,0.33095l-0.02887,0.06363c-0.6624,1.4602 -0.95011,1.85495 -0.14724,3.19192c0.42127,2.37859 -0.00442,3.56984 -1.01414,5.79568c-0.70999,1.53431 -0.31724,3.2769 -0.1097,4.89917c0.25044,-0.4907 0.58952,-0.97702 0.8455,-1.29956c0.24352,-0.54775 1.90107,-3.42015 2.37132,-2.27151c0.25665,0.62692 -0.78108,2.28133 -0.90125,2.93839c-0.6764,1.0573 0.59347,2.74592 1.27851,3.96158c0.06062,-0.45746 0.20114,-0.92129 0.30057,-1.31802c0.65661,-2.61484 1.88015,-3.67319 3.66399,-4.75609c0.0088,-0.01739 0.02021,-0.03521 0.03463,-0.05338zM208.63718,211.06036c1.19849,-0.94116 2.74964,-2.11388 3.07404,-3.47686c-0.45412,0.17525 -0.94438,0.27609 -1.47014,0.28166c-0.48304,0.32385 -0.93762,0.60114 -1.36311,0.85952c0.12692,0.60509 0.06399,1.58348 -0.24079,2.33567z" data-paper-data="{&quot;index&quot;:null}" fill="url(#color-12)" stroke="none" stroke-width="0.5" stroke-linecap="butt"/><path d="M208.60406,211.0978c0.30478,-0.75219 0.35542,-1.78896 0.2285,-2.39405c0.42549,-0.25838 0.92777,-0.56469 1.41081,-0.88854c0.52576,-0.00557 1.04685,-0.09392 1.50097,-0.26917c-0.3244,1.36298 -1.94179,2.61062 -3.14028,3.55178z" data-paper-data="{&quot;noHover&quot;:false,&quot;origItem&quot;:[&quot;Path&quot;,{&quot;applyMatrix&quot;:true,&quot;segments&quot;:[[[208.63718,211.06036],[0,0],[1.19849,-0.94116]],[[211.71122,207.5835],[-0.3244,1.36298],[-0.45412,0.17525]],[[210.24108,207.86516],[0.52576,-0.00557],[-0.48304,0.32385]],[[208.87797,208.72468],[0.42549,-0.25838],[0.12692,0.60509]],[[208.63718,211.06035],[0.30478,-0.75219],[0,0]]],&quot;closed&quot;:true,&quot;fillColor&quot;:[0,0,0,1]}]}" fill="#ffae0a" stroke="none" stroke-width="0.5" stroke-linecap="butt"/><path d="M200.63111,201.29519c0.08593,0.47912 0.27976,0.96291 0.54791,1.41517c-0.02607,0.58096 -0.01932,1.17825 -0.0193,1.67603c-0.58307,0.20561 -1.44993,0.7844 -1.93465,1.43534c0.18233,-1.51292 0.40945,-3.54179 1.40604,-4.52655z" data-paper-data="{&quot;noHover&quot;:false,&quot;origItem&quot;:[&quot;Path&quot;,{&quot;applyMatrix&quot;:true,&quot;segments&quot;:[[[487.05805,431.4142],[-1.40526,-2.70442],[0.06638,-1.62183]],[[488.5493,426.96115],[-0.73111,0.99723],[-0.56147,-0.82214]],[[486.77676,424.26943],[0.61221,0.98893],[-0.95298,-0.44453]],[[484.33183,422.54174],[0.68232,0.69441],[-0.53529,2.7505]]],&quot;closed&quot;:true}]}" fill="url(#color-13)" stroke="none" stroke-width="0.5" stroke-linecap="butt"/><path d="M211.37586,198.34057c0.48069,0.32826 0.72631,0.50109 0.73282,1.12372l-0.02356,0.18424c1.2682,1.16652 2.20033,2.92266 2.93114,4.47767c0,0 0.10449,0.22711 -0.12263,0.33161c-0.22711,0.1045 -0.33161,-0.12262 -0.33161,-0.12262c-0.68585,-1.51618 -1.62149,-3.22812 -2.85087,-4.35272c-0.56553,-0.6785 -0.92957,-1.53309 -1.58033,-2.1068l-0.00716,-0.00471l-0.19534,0.02925c-0.80549,-0.415 -2.08261,-1.16483 -3.00084,-1.20552c-1.70011,-0.4841 -3.57309,0.58823 -4.92544,0.23461c0,0 -0.23725,-0.07885 -0.1584,-0.31609c0.07884,-0.23724 0.31609,-0.1584 0.31609,-0.1584c0.32394,0.15958 1.0201,-0.36291 1.4233,-0.46122c0.98608,-0.24042 2.45484,-0.069 3.42809,0.20813c0.96127,0.06828 2.10978,0.74519 2.99512,1.18069c0.11661,-0.09107 0.24934,-0.02112 0.27982,-0.00282c0.02938,0.01103 0.05845,0.02935 0.08411,0.05844l0.09818,0.06874c0.2579,0.24246 0.47205,0.51657 0.67237,0.80251c0.11803,-0.04868 0.23512,0.03127 0.23512,0.03127z" fill="#ffbc00" stroke="none" stroke-width="0.5" stroke-linecap="butt"/><path d="M210.02729,208.57695c-0.00247,-0.32391 0.02048,-0.64051 -0.01165,-0.97366c-0.11285,0.02599 -0.2254,0.05328 -0.33702,0.08324c0.08945,0.1977 -0.10679,0.31128 -0.10679,0.31128l-0.2335,0.12312c-0.79454,0.18867 -2.33422,1.03251 -2.6593,1.81881c0,0 -0.10327,0.22767 -0.33095,0.12439c-0.06709,-0.03043 -0.10544,-0.07167 -0.12616,-0.11469c-0.36398,0.47482 -0.67094,1.01596 -0.9409,1.63296c-0.3283,0.72373 -0.10407,2.0023 -0.57492,2.56686c-0.08087,0.09696 -0.16337,0.15738 -0.24646,0.18694c0.0006,0.1021 0.01986,0.20537 0.05818,0.29876l0.02317,0.0082c0,0 0.15744,0.1942 -0.03675,0.35164c-0.1942,0.15744 -0.35164,-0.03675 -0.35164,-0.03675l-0.10282,-0.14718c-0.06795,-0.19197 -0.09598,-0.4018 -0.0841,-0.60509c0,0 0.00038,-0.00487 0.0017,-0.0132c-0.49781,-0.43198 -0.93806,-1.60158 -1.0756,-2.20015c-0.05119,-0.05873 -0.06463,-0.13058 -0.06463,-0.13058c-0.08337,-0.44993 -0.16633,-0.71898 -0.00901,-1.17022l-0.00336,-0.16797c0,0 0.00893,-0.19669 0.18549,-0.23304c0.18214,-1.08792 0.51526,-2.36717 0.91064,-2.65765c-0.1846,-0.27291 -0.58472,-0.0149 -1.00848,0.40817c-0.41094,0.51779 -1.43638,3.10059 -1.96179,3.23698c-0.78013,0.2025 -0.88033,-1.52483 -0.79284,-1.98667c-0.2211,-1.51939 0.52275,-3.99145 1.15547,-5.43757c0.87066,-1.9193 -0.83316,-3.92474 -0.13544,-5.4628c1.16144,-2.56028 2.58311,-1.39588 4.89588,-1.48642c2.02801,0.3601 3.75118,0.28009 5.46733,1.57291c0.36843,0.44893 0.69952,0.93049 1.01355,1.42344c0.01691,-0.03392 0.04512,-0.0676 0.08956,-0.0983c0.20569,-0.14208 0.34778,0.06362 0.34778,0.06362c0.22202,0.32448 0.43871,0.66867 0.62348,1.01377l0.11666,0.15244c0,0 0.14886,0.20085 -0.05199,0.34971c-0.0712,0.05276 -0.13585,0.0616 -0.18967,0.051c0.42426,0.69752 0.8561,1.37428 1.35274,1.97052c0.74783,1.04213 -1.77562,3.2473 -3.03341,3.65769c-0.04662,0.02569 -0.09394,0.04993 -0.14189,0.07288c-0.00487,0.01581 -0.00913,0.02518 -0.00913,0.02518c-0.31428,0.6928 -0.56274,1.22775 -1.09648,1.7723l-0.014,0.00552l0.00312,0.00384l-0.19003,0.15407c-0.07144,0.06045 -0.17405,0.07813 -0.26494,0.03689c-0.10424,-0.04728 -0.16033,-0.1572 -0.14397,-0.26504l0.03793,-0.29613l0.04692,0.00601zM210.54959,208.16625c0.18045,-0.24968 0.31666,-0.50808 0.45145,-0.79356c-0.16209,0.04507 -0.32749,0.08402 -0.49419,0.12136c0.01864,0.16303 0.05383,0.4304 0.04275,0.67219zM211.5194,206.60652c0.10328,-0.22768 0.33095,-0.12439 0.33095,-0.12439l0.00398,0.01554c1.00044,-0.50537 3.04349,-2.3461 2.59046,-2.77903c-1.187,-1.49422 -2.0164,-3.3229 -3.26075,-4.88109c-1.62057,-1.21396 -3.24946,-1.07291 -5.15608,-1.43418c-2.12578,0.07751 -3.37432,-1.0773 -4.40479,1.19426c-0.63078,1.3905 0.9989,3.5594 0.13544,5.4628c-0.65106,1.36504 -1.2918,3.78805 -1.11095,5.24305c-0.55855,3.15661 1.23089,-0.77522 1.88145,-1.59494c0.75428,-0.75756 1.57394,-0.88166 1.86665,-0.1688c0.25465,0.09131 0.27258,0.4693 0.11149,0.69318c-0.00045,0.07212 -0.00359,0.14779 -0.00956,0.22703l-0.03418,0.03124l-0.00067,0.00193l0.02008,0.00911l-0.10488,0.2312c-0.05704,0.12573 -0.20521,0.18142 -0.33095,0.12439c-0.11958,-0.05424 -0.1758,-0.19091 -0.13197,-0.31232l0.07515,-0.21572c-0.20421,-0.61981 -0.70401,2.70478 -0.63706,3.42202c0.06776,0.55393 0.33677,1.20353 0.6791,1.63154c0.05445,0.06809 0.12452,0.20413 0.18218,0.33529c-0.00674,-0.65475 0.46232,-2.01459 0.61121,-2.34281c0.91974,-1.92837 2.07232,-3.20473 4.19719,-4.0051c0.72014,-0.26862 1.55527,-0.31956 2.24412,-0.60448c0.05595,-0.12863 0.21232,-0.14014 0.21232,-0.14014c0.01054,-0.00053 0.02158,-0.00159 0.0331,-0.0032c0.00213,-0.0054 0.00445,-0.01086 0.00696,-0.01641z" data-paper-data="{&quot;index&quot;:null}" fill="#ffbc00" stroke="none" stroke-width="0.5" stroke-linecap="butt"/><path d="M211.89964,206.49055c0,0 -0.22797,-0.10168 -0.33125,0.126c-0.00251,0.00555 -0.00488,0.01118 -0.007,0.01657c-0.01152,0.0016 -0.02258,0.00276 -0.03312,0.00328c0,0 -0.15674,0.01319 -0.2127,0.14181c-0.68886,0.28492 -1.5306,0.35114 -2.25075,0.61976c-2.12487,0.80037 -3.33042,2.09827 -4.25017,4.02664c-0.14889,0.32823 -0.61841,1.68795 -0.61167,2.3427c-0.05767,-0.13117 -0.12924,-0.2676 -0.18369,-0.33569c-0.34233,-0.428 -0.61879,-1.08026 -0.68655,-1.63419c-0.06695,-0.71724 0.42289,-4.04778 0.6271,-3.42796l-0.01507,0.13578c-0.04384,0.1214 0.00934,0.256 0.12892,0.31024c0.12573,0.05704 0.2714,-0.00013 0.32844,-0.12587l0.05642,-0.14373l-0.02036,-0.00927l0.04995,-0.08894l-0.01493,0.05587c0.00597,-0.07924 0.00772,-0.15572 0.00817,-0.22785c0.16108,-0.22388 0.1363,-0.60683 -0.11835,-0.69816c-0.29271,-0.71286 -1.03692,-0.65252 -1.7912,0.10504c-0.65057,0.81971 -2.5239,4.80588 -1.96534,1.64927c-0.18085,-1.45501 0.45356,-3.92203 1.10462,-5.28707c0.86346,-1.9034 -0.74615,-4.09846 -0.11536,-5.48897c1.03047,-2.27157 2.30565,-1.12493 4.43143,-1.20244c1.90661,0.36127 3.5664,0.2303 5.18696,1.44426c1.24435,1.55819 2.09252,3.41624 3.27951,4.91046c0.45303,0.43292 -1.58963,2.29276 -2.59007,2.79813l-0.00396,-0.01567z" data-paper-data="{&quot;noHover&quot;:false,&quot;origItem&quot;:[&quot;Path&quot;,{&quot;applyMatrix&quot;:true,&quot;segments&quot;:[[[485.48845,420.9208],[0,-0.5],[0,0.01218]],[[485.48758,420.95646],[0.00058,-0.01159],[0.01965,0.01244]],[[485.54523,420.98961],[-0.01877,-0.00965],[0,0]],[[485.81616,421.42027],[0.00436,-0.2805],[1.01922,1.0881]],[[489.40407,424.37543],[-1.0897,-1.08427],[3.20885,3.21341]],[[493.73951,435.13801],[-0.08189,-4.27218],[0,0.72083]],[[492.91704,439.9101],[0.55326,-1.18695],[0.2134,-0.19125]],[[493.52588,439.44992],[-0.15543,0.07901],[0.97714,-0.49672]],[[496.11079,437.0394],[-0.58108,0.95291],[0.71456,-1.25104]],[[497.77787,430.28033],[0.88405,-0.9602],[0,0]],[[497.73651,430.73532],[0,0],[-0.02047,0.25735]],[[497.2381,431.19513],[0.26261,0],[-0.27614,0]],[[496.7381,430.69513],[0,0.27614],[0,0]],[496.7381,430.18738],[496.7822,430.18738],[496.78257,430.18331],[[496.74612,430.09816],[0,0],[0.0546,-0.14928]],[[496.9163,429.67674],[-0.05877,0.13175],[-0.10842,-0.54086]],[[497.69209,428.50633],[-0.53926,-0.04407],[1.12213,-1.05652]],[[500.95244,430.35607],[-0.74788,-2.00299],[0.50763,2.03052]],[[503.06142,434.81554],[-1.59075,6.2108],[1.53157,-2.50066]],[[505.36998,424.34817],[0.05797,3.02416],[0,-4.18019]],[[510.1302,414.51037],[0,3.05379],[0,-4.98874]],[[503.09425,408.69581],[3.80776,1.89758],[-3.77112,-0.91731]],[[492.51822,407.04784],[3.95463,-0.87209],[-3.55383,1.80989]],[[482.54633,413.2439],[3.39651,-1.74078],[-1.18283,0.41419]],[[484.96835,420.44583],[-1.4046,-1.74705],[0,0]],[484.98845,420.4208]],&quot;closed&quot;:true}],&quot;index&quot;:null}" fill="url(#color-14)" stroke="none" stroke-width="0.5" stroke-linecap="butt"/><path d="M203.96535,198.25674c0.06292,0.04297 0.09357,0.09202 0.10577,0.13945c1.48803,1.63384 3.62417,2.75292 5.43779,3.99964c1.71467,1.71948 0.4405,2.39325 -0.90711,3.62244c-0.28912,0.26371 -1.16485,1.38861 -1.60339,1.17139c-0.01501,-0.00744 -0.10848,-0.51219 -0.13301,-0.64238c-0.273,-0.61723 -0.10254,-2.36457 -1.19134,-2.46151c-0.5683,-0.05059 -1.2039,0.50733 -1.73121,0.95834l0.0345,0.02356l-0.20181,0.29552c-0.07787,0.11402 -0.23342,0.14333 -0.34744,0.06547c-0.10265,-0.0701 -0.13665,-0.20318 -0.08558,-0.31222l0.09884,-0.22176c0.16699,-0.40771 0.28435,-0.76611 0.2598,-1.20859c-0.42399,-1.25116 -0.97547,-4.21342 -0.10282,-5.29406c0,0 0.00727,-0.00894 0.0206,-0.02143l-0.00104,-0.0484c0,0 0.14098,-0.20646 0.34744,-0.06547zM203.86032,198.90263c-0.5547,1.08276 -0.00781,3.69553 0.33163,4.68788c0.01212,0.21118 0.00335,0.40415 -0.02364,0.59037c0.58095,-0.41224 1.50395,-0.69938 1.89854,-0.4792c1.1609,0.64779 0.81767,1.7448 1.27491,2.69366c0.01718,0.09117 2.42285,-1.22043 2.64541,-2.33589c0.08298,-0.41586 -0.54077,-1.02065 -0.79779,-1.27905c-1.77679,-1.20415 -3.83473,-2.31792 -5.32906,-3.87777z" fill="#ffbc00" stroke="none" stroke-width="0.5" stroke-linecap="butt"/><path d="M205.39485,201.14478c0.13,-0.08972 0.27518,0.00942 0.27518,0.00942c0.14776,0.1009 0.31399,0.21442 0.46175,0.31532c0.35027,0.2392 2.29654,1.23997 1.61,1.77287c-0.49274,0.38246 -2.59677,-1.59412 -2.56081,-1.90764c0,0 0.04603,-0.17998 0.21388,-0.18996z" fill="#ffbc00" stroke="none" stroke-width="0.5" stroke-linecap="butt"/><path d="M199.48997,204.52297c0.07787,-0.11402 0.23342,-0.14333 0.34744,-0.06547c0.11402,0.07787 0.14333,0.23342 0.06547,0.34744c-0.07787,0.11402 -0.23342,0.14333 -0.34744,0.06547c-0.11402,-0.07787 -0.14333,-0.23342 -0.06547,-0.34744z" fill="#ffbc00" stroke="none" stroke-width="0.5" stroke-linecap="butt"/><path d="M233.07425,210.81344l-0.5257,-16.82244c0,0 0.96051,-1.27196 2.71574,-2.26385c1.54584,-0.87355 3.82604,-1.48268 4.95775,-1.47503c1.24007,0.00838 3.70048,0.17377 5.44356,1.1556c2.09645,1.18087 3.38996,3.21412 3.38996,3.21412l-0.10514,16.1916c0,0 -1.57814,-1.85571 -3.98585,-2.7589c-1.23781,-0.46434 -3.20855,-1.34157 -4.10995,-1.34157c-0.98445,0 -2.82916,0.53002 -4.09576,1.06258c-2.12643,0.89408 -3.68461,3.03789 -3.68461,3.03789z" fill="#9086a5" stroke="none" stroke-width="0.5" stroke-linecap="butt"/><path d="M240.64434,191.04706v14.92991" fill="none" stroke="#000000" stroke-width="1.5" stroke-linecap="round"/><path d="M232.65369,193.57043l0.5257,15.45561" fill="none" stroke="#000000" stroke-width="1.5" stroke-linecap="round"/><path d="M248.52985,209.55176l0.21028,-15.35047" fill="none" stroke="#000000" stroke-width="1.5" stroke-linecap="round"/><path d="M244.01056,217.54347c0.0277,-0.11081 0.09337,-0.15834 0.15653,-0.17728c0.33816,-0.48421 0.71229,-0.99294 1.10843,-1.55666c0.54702,-0.28787 0.99414,-0.65056 1.35458,-1.0692c-0.00499,-0.00972 -0.01005,-0.01942 -0.01521,-0.02909c0,0 -0.1118,-0.2236 0.1118,-0.33541c0.0803,-0.04015 0.14618,-0.03705 0.19765,-0.01657c0.71475,-1.03401 0.99179,-2.33467 0.99179,-3.67287c0,0 0,-0.25 0.25,-0.25c0.25,0 0.25,0.25 0.25,0.25c0,1.45296 -0.32839,3.02365 -1.20324,4.18719c0.63118,2.04464 -1.13895,4.46704 -1.81196,6.15747l-0.06553,0.26215c-0.02527,0.11133 -0.12483,0.19444 -0.24381,0.19444c-0.13807,0 -0.25,-0.11193 -0.25,-0.25v-0.48913h0.08018c-0.09913,-0.96911 0.05053,-1.93971 -0.48562,-2.80134c-1.07783,1.59349 -1.78157,2.84884 -1.31505,5.4147c0.09303,0.51306 0.18407,1.74325 0.66353,2.04289l0.24451,0.06113c0.11133,0.02527 0.19444,0.12483 0.19444,0.24381c0,0.13807 -0.11193,0.25 -0.25,0.25h-0.2795v-0.06218l-0.06063,-0.01515l0.01046,-0.04187c-0.01015,-0.00032 -0.02033,-0.00073 -0.03053,-0.00124l-0.02044,0.0292c-0.01575,-0.01097 -0.03121,-0.02225 -0.04637,-0.03382c-1.6737,-0.14817 -3.84207,-2.73046 -3.94378,-4.07731c-0.05326,-0.21305 -0.16928,-1.65754 -0.20061,-2.41821c-0.08313,0.19707 -0.19439,0.4012 -0.21711,0.49178c-0.16506,0.65816 -0.19987,1.23678 -0.20404,1.92643c-0.1266,0.50637 -0.3973,1.84611 -0.21893,2.28995l0.21751,0.10876c0.08456,0.04008 0.14304,0.12623 0.14304,0.22603c0,0.13807 -0.11193,0.25 -0.25,0.25c-0.04199,0 -0.08156,-0.01036 -0.1163,-0.02865l-0.27501,-0.1375l0.01095,-0.0219l-0.07592,-0.02493c-0.0454,-0.08779 -0.0804,-0.18961 -0.10653,-0.30186c-0.96765,-0.67584 -2.47619,-4.39672 -2.48222,-5.39511c0,-2.33272 -0.09915,-3.44046 -1.3243,-5.34341c-1.41269,-0.89374 -1.33099,-1.69488 -1.33099,-3.32118v-0.06987c0,0 0,-0.25 0.25,-0.25c0.25,0 0.25,0.25 0.25,0.25v0.06987c0,1.60343 -0.09893,2.08177 1.18454,2.96764c1.36628,1.9921 1.47074,3.2528 1.47074,5.69696c-0.01273,1.69057 1.06484,3.11526 1.92403,4.50689c0.02536,-0.55033 0.13325,-1.1333 0.23312,-1.53277c-0.00452,-0.59944 0.31834,-3.90003 1.22111,-3.04825c0.49272,0.46489 0.23115,2.40024 0.39315,3.04825c-0.1792,1.24229 1.67485,2.25548 2.80091,3.07955c-0.13378,-0.44165 -0.19742,-0.92209 -0.27077,-1.32447c-0.48228,-2.65252 0.19476,-4.12181 1.37189,-5.84492c0.00084,-0.01948 0.00386,-0.04042 0.00949,-0.06293zM245.46576,219.75678c0.70263,-1.35221 1.63075,-3.06098 1.36311,-4.43623c-0.34116,0.3472 -0.74597,0.64158 -1.22246,0.86384c-0.30611,0.49447 -0.60554,0.93479 -0.88627,1.34586c0.36556,0.49862 0.71244,1.41562 0.74563,2.22653z" data-paper-data="{&quot;index&quot;:null}" fill="url(#color-15)" stroke="none" stroke-width="0.5" stroke-linecap="butt"/><path d="M246.84996,215.27522c0.26764,1.37524 -0.68897,3.1788 -1.3916,4.53101c-0.03319,-0.81092 -0.42265,-1.77774 -0.78821,-2.27636c0.28074,-0.41107 0.62315,-0.90052 0.92926,-1.39498c0.47649,-0.22226 0.90939,-0.51247 1.25055,-0.85968z" data-paper-data="{&quot;noHover&quot;:false,&quot;origItem&quot;:[&quot;Path&quot;,{&quot;applyMatrix&quot;:true,&quot;segments&quot;:[[[487.05805,431.4142],[-1.40526,-2.70442],[0.06638,-1.62183]],[[488.5493,426.96115],[-0.73111,0.99723],[-0.56147,-0.82214]],[[486.77676,424.26943],[0.61221,0.98893],[-0.95298,-0.44453]],[[484.33183,422.54174],[0.68232,0.69441],[-0.53529,2.7505]]],&quot;closed&quot;:true}],&quot;index&quot;:null}" fill="url(#color-16)" stroke="none" stroke-width="0.5" stroke-linecap="butt"/><path d="M241.94453,206.77581c0.58209,0 0.88237,0.0042 1.23889,0.51471l0.08445,0.16544c1.70515,0.24813 3.46527,1.17271 4.94573,2.04472c0,0 0.21437,0.12863 0.08574,0.343c-0.12862,0.21437 -0.34299,0.08575 -0.34299,0.08575c-1.42142,-0.86531 -3.15953,-1.7514 -4.80898,-1.98681c-0.84966,-0.24139 -1.63222,-0.74183 -2.49317,-0.84861l-0.00858,0.00015l-0.14482,0.13431c-0.89922,0.11154 -2.37674,0.21255 -3.15798,0.69677c-1.67697,0.55899 -2.61897,2.50079 -3.93519,2.97142c0,0 -0.24039,0.06868 -0.30907,-0.1717c-0.06868,-0.24038 0.17171,-0.30906 0.17171,-0.30906c0.35751,-0.05091 0.63776,-0.87498 0.91528,-1.18355c0.67873,-0.75464 1.98832,-1.44136 2.94833,-1.76137c0.83234,-0.48571 2.16253,-0.5744 3.13925,-0.71405c0.04494,-0.14096 0.194,-0.15806 0.22949,-0.16013c0.03048,-0.00746 0.06482,-0.00872 0.10243,0.00082l0.11984,0.0014c0.34972,0.05479 0.68115,0.16037 1.00783,0.28354c0.07002,-0.10677 0.21179,-0.10677 0.21179,-0.10677z" fill="#ffbc00" stroke="none" stroke-width="0.5" stroke-linecap="butt"/><path d="M245.70575,216.92091c-0.13607,-0.29395 -0.24595,-0.59176 -0.41285,-0.88187c-0.09204,0.07029 -0.18326,0.14164 -0.27253,0.21504c0.16313,0.14309 0.03134,0.32758 0.03134,0.32758l-0.16178,0.20859c-0.64562,0.50006 -1.69916,1.90459 -1.67038,2.75495c0,0 0,0.25 -0.25,0.25c-0.07366,0 -0.12562,-0.02171 -0.16227,-0.05233c-0.1353,0.58277 -0.1913,1.20237 -0.18225,1.87579c0,0.79471 0.7324,1.86645 0.53684,2.57509c-0.03358,0.12171 -0.08375,0.21081 -0.14721,0.27205c0.04272,0.09274 0.10293,0.17883 0.17641,0.24805l0.02449,-0.0021c0,0 0.22361,0.11181 0.1118,0.33541c-0.11181,0.22361 -0.33541,0.11181 -0.33541,0.11181l-0.15444,-0.09157c-0.14119,-0.14675 -0.25339,-0.32626 -0.32656,-0.51629c0,0 -0.00168,-0.00458 -0.00391,-0.01272c-0.63181,-0.18776 -1.51591,-1.071 -1.88844,-1.55929c-0.07088,-0.03234 -0.1128,-0.09222 -0.1128,-0.09222c-0.2618,-0.37529 -0.44849,-0.58604 -0.49164,-1.06197l-0.07245,-0.15157c0,0 -0.07312,-0.18282 0.07265,-0.28886c-0.28358,-1.06599 -0.50869,-2.3686 -0.26863,-2.79646c-0.28086,-0.17228 -0.53864,0.22798 -0.74978,0.78833c-0.16033,0.64131 -0.02718,3.41703 -0.44931,3.75829c-0.62679,0.50671 -1.43162,-1.02494 -1.54275,-1.48168c-0.82904,-1.29233 -1.17289,-3.85087 -1.1941,-5.42921c0,-2.10756 -2.38011,-3.22998 -2.38011,-4.9189c0,-2.8114 1.77573,-2.33833 3.84451,-3.37622c1.99563,-0.50988 3.53183,-1.29461 5.62877,-0.82623c0.52099,0.25662 1.02144,0.55838 1.51107,0.87757c0.00139,-0.03788 0.01317,-0.08019 0.04096,-0.12651c0.12863,-0.21437 0.343,-0.08575 0.343,-0.08575c0.33623,0.20378 0.67577,0.42769 0.98659,0.66564l0.16922,0.09063c0,0 0.21854,0.12141 0.09713,0.33995c-0.04304,0.07746 -0.09828,0.11221 -0.15166,0.1248c0.67451,0.45996 1.34737,0.89786 2.04596,1.23567c1.11156,0.6401 -0.2755,3.69078 -1.25141,4.58413c-0.03184,0.04266 -0.06491,0.08428 -0.09911,0.12499c0.00209,0.01641 0.00208,0.0267 0.00208,0.0267c0,0.76075 -0.00526,1.35057 -0.26636,2.06697l-0.01047,0.01081l0.00442,0.00221l-0.10941,0.21882c-0.04008,0.08456 -0.12622,0.14304 -0.22602,0.14304c-0.11446,0 -0.21096,-0.07692 -0.24061,-0.18188l-0.0878,-0.28535l0.04522,-0.01391zM246.09503,215.42196c-0.12898,0.10801 -0.26353,0.21181 -0.39991,0.31468c0.08432,0.14077 0.22682,0.36972 0.31662,0.59449c0.06118,-0.30192 0.07848,-0.59352 0.08329,-0.90917zM246.25057,214.51009c0,-0.25 0.25,-0.25 0.25,-0.25l0.01005,0.01252c0.7023,-0.87353 1.80243,-3.39387 1.21101,-3.60097c-1.69825,-0.87039 -3.20902,-2.19309 -4.98594,-3.09803c-1.97732,-0.43605 -3.40246,0.36533 -5.28802,0.82398c-1.90388,0.94879 -3.51798,0.41291 -3.51798,2.90728c0,1.5269 2.38011,2.82881 2.38011,4.9189c-0.02899,1.51208 0.38849,3.98336 1.15428,5.23369c0.79538,3.1054 0.80067,-1.21448 1.05449,-2.22974c0.37394,-1.0015 1.06911,-1.45313 1.63018,-0.92487c0.26963,-0.02203 0.44211,0.31478 0.3879,0.58521c0.02939,0.06587 0.05779,0.13607 0.08509,0.21071l-0.01823,0.04257l0.00019,0.00204h0.02205v0.25387c0,0.13807 -0.11193,0.25 -0.25,0.25c-0.13131,0 -0.23898,-0.10124 -0.24921,-0.22991l-0.02068,-0.2275c-0.44203,-0.48009 0.47626,2.75402 0.83354,3.37954c0.29054,0.47645 0.80389,0.9569 1.29246,1.20526c0.07772,0.03951 0.19772,0.13446 0.30442,0.23009c-0.27664,-0.59347 -0.41124,-2.02563 -0.41124,-2.38604c0.04094,-2.13609 0.5633,-3.77458 2.16772,-5.38129c0.54485,-0.54214 1.28434,-0.93353 1.79395,-1.47758c-0.00218,-0.14025 0.13547,-0.21533 0.13547,-0.21533c0.00939,-0.00483 0.019,-0.01036 0.02883,-0.01658c-0.00029,-0.0058 -0.00044,-0.01174 -0.00044,-0.01783z" data-paper-data="{&quot;index&quot;:null}" fill="#ffbc00" stroke="none" stroke-width="0.5" stroke-linecap="butt"/><path d="M246.54893,214.24742c0,0 -0.24961,0.00158 -0.24961,0.25158c0,0.00609 0.00018,0.01219 0.00047,0.01799c-0.00983,0.00622 -0.01942,0.01183 -0.02881,0.01666c0,0 -0.1373,0.07676 -0.13512,0.21701c-0.50962,0.54404 -1.24882,0.95208 -1.79367,1.49422c-1.60442,1.60671 -2.16612,3.2867 -2.20706,5.42279c0,0.36041 0.13415,1.79265 0.41078,2.38613c-0.1067,-0.09563 -0.22824,-0.19031 -0.30596,-0.22981c-0.48857,-0.24836 -1.0098,-0.72815 -1.30034,-1.2046c-0.35728,-0.62552 -1.2871,-3.86093 -0.84507,-3.38083l0.04237,0.12988c0.01024,0.12868 0.11428,0.22928 0.24558,0.22928c0.13807,0 0.24711,-0.11224 0.24711,-0.25031l-0.008,-0.1542l-0.02236,-0.00002l0.00874,-0.10164l0.0095,0.05704c-0.0273,-0.07464 -0.05731,-0.14499 -0.08669,-0.21087c0.05421,-0.27043 -0.12657,-0.60894 -0.3962,-0.58691c-0.56107,-0.52826 -1.21388,-0.16587 -1.58782,0.83563c-0.25381,1.01526 -0.31307,5.41927 -1.10844,2.31387c-0.76579,-1.25033 -1.20722,-3.75908 -1.17823,-5.27116c0,-2.09009 -2.37264,-3.42414 -2.37264,-4.95103c0,-2.49438 1.63498,-1.97695 3.53886,-2.92574c1.88555,-0.45865 3.34297,-1.26361 5.32029,-0.82756c1.77691,0.90494 3.31692,2.24663 5.01517,3.11702c0.59142,0.2071 -0.50046,2.74467 -1.20276,3.6182l-0.01008,-0.01263z" data-paper-data="{&quot;noHover&quot;:false,&quot;origItem&quot;:[&quot;Path&quot;,{&quot;applyMatrix&quot;:true,&quot;segments&quot;:[[[485.48845,420.9208],[0,-0.5],[0,0.01218]],[[485.48758,420.95646],[0.00058,-0.01159],[0.01965,0.01244]],[[485.54523,420.98961],[-0.01877,-0.00965],[0,0]],[[485.81616,421.42027],[0.00436,-0.2805],[1.01922,1.0881]],[[489.40407,424.37543],[-1.0897,-1.08427],[3.20885,3.21341]],[[493.73951,435.13801],[-0.08189,-4.27218],[0,0.72083]],[[492.91704,439.9101],[0.55326,-1.18695],[0.2134,-0.19125]],[[493.52588,439.44992],[-0.15543,0.07901],[0.97714,-0.49672]],[[496.11079,437.0394],[-0.58108,0.95291],[0.71456,-1.25104]],[[497.77787,430.28033],[0.88405,-0.9602],[0,0]],[[497.73651,430.73532],[0,0],[-0.02047,0.25735]],[[497.2381,431.19513],[0.26261,0],[-0.27614,0]],[[496.7381,430.69513],[0,0.27614],[0,0]],[496.7381,430.18738],[496.7822,430.18738],[496.78257,430.18331],[[496.74612,430.09816],[0,0],[0.0546,-0.14928]],[[496.9163,429.67674],[-0.05877,0.13175],[-0.10842,-0.54086]],[[497.69209,428.50633],[-0.53926,-0.04407],[1.12213,-1.05652]],[[500.95244,430.35607],[-0.74788,-2.00299],[0.50763,2.03052]],[[503.06142,434.81554],[-1.59075,6.2108],[1.53157,-2.50066]],[[505.36998,424.34817],[0.05797,3.02416],[0,-4.18019]],[[510.1302,414.51037],[0,3.05379],[0,-4.98874]],[[503.09425,408.69581],[3.80776,1.89758],[-3.77112,-0.91731]],[[492.51822,407.04784],[3.95463,-0.87209],[-3.55383,1.80989]],[[482.54633,413.2439],[3.39651,-1.74078],[-1.18283,0.41419]],[[484.96835,420.44583],[-1.4046,-1.74705],[0,0]],[484.98845,420.4208]],&quot;closed&quot;:true}],&quot;index&quot;:null}" fill="url(#color-17)" stroke="none" stroke-width="0.5" stroke-linecap="butt"/><path d="M245.81002,210.8857c0.25,0 0.25,0.25 0.25,0.25l-0.02815,0.03938c0.00397,0.01783 0.00493,0.02931 0.00493,0.02931c0.11123,1.38454 -2.01474,3.51981 -3.07046,4.31393c-0.2698,0.35157 -0.375,0.71372 -0.46703,1.14458l-0.04343,0.23888c-0.01932,0.11884 -0.12245,0.20956 -0.24675,0.20956c-0.13807,0 -0.25,-0.11193 -0.25,-0.25v-0.35785h0.04178c-0.18111,-0.66983 -0.39137,-1.48902 -0.88921,-1.76773c-0.95381,-0.53397 -1.79845,1.00515 -2.37198,1.3609c-0.09368,0.09368 -0.45552,0.45781 -0.47211,0.45548c-0.48465,-0.06792 -0.57347,-1.49074 -0.66351,-1.87157c-0.41967,-1.77506 -1.09192,-3.05003 1.29376,-3.50302c2.20078,-0.00678 4.59594,0.27373 6.74617,-0.23635c0.03682,-0.03229 0.08979,-0.05551 0.16599,-0.05551zM238.94485,211.67533c-0.35798,0.06845 -1.21414,0.21613 -1.38014,0.60635c-0.44526,1.04667 0.80171,3.48647 0.86731,3.42087c0.9127,-0.52572 1.24791,-1.62521 2.57191,-1.50548c0.45003,0.04069 1.05033,0.79833 1.29761,1.46639c0.08273,-0.16901 0.1843,-0.3333 0.31341,-0.50086c0.83994,-0.62807 2.76502,-2.4773 2.91756,-3.68429c-2.11371,0.44542 -4.44129,0.20463 -6.58766,0.19702z" data-paper-data="{&quot;index&quot;:null}" fill="#ffbc00" stroke="none" stroke-width="0.5" stroke-linecap="butt"/><path d="M238.58676,212.4645c0.05677,-0.14741 0.23255,-0.14741 0.23255,-0.14741c0.17892,0 0.38023,0 0.55915,0c0.42416,0 2.59578,-0.27114 2.32935,0.5561c-0.19122,0.59372 -3.04344,0.148 -3.19054,-0.1312c0,0 -0.06348,-0.17459 0.06949,-0.27749z" fill="#ffbc00" stroke="none" stroke-width="0.5" stroke-linecap="butt"/><path d="M245.72204,218.8343c-0.13807,0 -0.25,-0.11193 -0.25,-0.25c0,-0.13807 0.11193,-0.25 0.25,-0.25c0.13807,0 0.25,0.11193 0.25,0.25c0,0.13807 -0.11193,0.25 -0.25,0.25z" data-paper-data="{&quot;index&quot;:null}" fill="#ffbc00" stroke="none" stroke-width="0.5" stroke-linecap="butt"/><path d="M267.63056,206.28654l-8.84398,-14.31973c0,0 0.19833,-1.5815 1.2252,-3.3165c0.90437,-1.52802 2.57713,-3.19301 3.56193,-3.7507c1.07908,-0.61108 3.29426,-1.69458 5.29475,-1.71268c2.40605,-0.02177 4.54113,1.09568 4.54113,1.09568l7.98261,14.08747c0,0 -2.29328,-0.82163 -4.83067,-0.40395c-1.30448,0.21473 -3.45016,0.43702 -4.2315,0.88649c-0.85334,0.49089 -2.18805,1.87016 -3.02041,2.96336c-1.39739,1.83532 -1.67905,4.47056 -1.67905,4.47056z" fill="#9086a5" stroke="none" stroke-width="0.5" stroke-linecap="butt"/><path d="M264.33614,185.37811l7.44462,12.9414" fill="none" stroke="#000000" stroke-width="1.5" stroke-linecap="round"/><path d="M266.83043,204.68478l-8.16243,-13.13495" fill="none" stroke="#000000" stroke-width="1.5" stroke-linecap="round"/><path d="M272.92645,184.07534l7.47205,13.4108" fill="none" stroke="#000000" stroke-width="1.5" stroke-linecap="round"/><path d="M273.30609,198.36362c0.50456,-0.29025 0.76695,-0.43634 1.33054,-0.1716l0.15569,0.10129c1.60177,-0.63517 3.58849,-0.7114 5.30658,-0.69374c0,0 0.24996,0.0046 0.24536,0.25456c-0.0046,0.24996 -0.25455,0.24536 -0.25455,0.24536c-1.66358,-0.04128 -3.61203,0.05733 -5.15917,0.67575c-0.85685,0.21444 -1.78473,0.17086 -2.58426,0.50761l-0.00736,0.00441l-0.05856,0.18864c-0.72384,0.54506 -1.9542,1.36938 -2.38993,2.17866c-1.17489,1.32074 -1.02316,3.47363 -1.9294,4.53789c0,0 -0.17412,0.1794 -0.35352,0.00528c-0.1794,-0.17412 -0.00527,-0.35352 -0.00527,-0.35352c0.28451,-0.22239 0.11651,-1.07645 0.20321,-1.4823c0.21204,-0.99257 1.00478,-2.24084 1.67736,-2.99693c0.47929,-0.83606 1.58808,-1.57622 2.36509,-2.1843c-0.03134,-0.1446 0.08935,-0.23374 0.11908,-0.25323c0.0227,-0.02167 0.05184,-0.03988 0.08919,-0.05036l0.10458,-0.05855c0.33045,-0.12689 0.67039,-0.20063 1.01498,-0.25677c0.00745,-0.12746 0.13035,-0.19816 0.13035,-0.19816z" fill="#ffbc00" stroke="none" stroke-width="0.5" stroke-linecap="butt"/><path d="M282.14049,199.31496c1.16895,2.53553 -1.2113,6.12522 -5.31644,8.0178c-4.10514,1.89258 -8.38063,1.37138 -9.54958,-1.16415c-1.16895,-2.53553 1.2113,-6.12522 5.31644,-8.0178c4.10514,-1.89258 8.38063,-1.37138 9.54958,1.16415z" fill="#3c3c3c" stroke="none" stroke-width="0" stroke-linecap="butt"/><path d="M232.9252,137.17744l2.08888,-13.29283c0,0 0.74739,1.07822 2.0377,1.66736c0.94117,0.42973 2.34891,0.42151 3.08953,0.42151c0.74465,0 1.98868,0.28243 3.02037,-0.07903c1.75038,-0.61327 3.24625,-2.00984 3.24625,-2.00984l0.94948,12.72313c0,0 -1.31329,1.24096 -3.30629,1.88431c-1.11536,0.36005 -2.83488,0.27208 -3.70839,0.30656c-1.06343,0.04198 -2.85165,0.1011 -4.29261,-0.26586c-1.77706,-0.45255 -3.12491,-1.35531 -3.12491,-1.35531z" fill="#50dee8" stroke="none" stroke-width="0" stroke-linecap="butt"/><path d="M246.36315,123.66265c0,1.68435 -2.47254,3.04979 -5.52258,3.04979c-3.05004,0 -5.52258,-1.36544 -5.52258,-3.04978c0,-1.68435 2.47254,-3.04978 5.52258,-3.04978c3.05004,0 5.52258,1.36544 5.52258,3.04979z" fill="#41b6bf" stroke="none" stroke-width="0" stroke-linecap="butt"/></g></g></svg>