<svg version="1.1" xmlns="http://www.w3.org/2000/svg" xmlns:xlink="http://www.w3.org/1999/xlink" width="394.05007" height="344.40564" viewBox="0,0,394.05007,344.40564"><defs><linearGradient x1="93.18941" y1="129.66076" x2="68.56769" y2="160.11476" gradientUnits="userSpaceOnUse" id="color-1"><stop offset="0" stop-color="#c2c2c2"/><stop offset="1" stop-color="#c20000"/></linearGradient><linearGradient x1="216.11792" y1="2.06077" x2="216.11792" y2="32.70942" gradientUnits="userSpaceOnUse" id="color-2"><stop offset="0" stop-color="#c2c2c2"/><stop offset="1" stop-color="#c20000"/></linearGradient></defs><g transform="translate(-34.58276,-0.19346)"><g data-paper-data="{&quot;isPaintingLayer&quot;:true}" fill-rule="nonzero" stroke-linejoin="miter" stroke-miterlimit="10" stroke-dasharray="" stroke-dashoffset="0" style="mix-blend-mode: normal"><path d="M48.62825,170.26894l24.49718,-13.66363c0,0 8.80546,-3.12301 11.48564,-3.83069c4.03838,-1.06631 20.968,-13.09695 20.968,-13.09695l-24.62172,30.454z" fill="url(#color-1)" stroke="#000000" stroke-width="0.5" stroke-linecap="butt"/><path d="M192.03683,39.76348v-37.70271c0,0 4.61831,16.93849 8.45051,21.74829c4.09615,5.14109 6.87381,11.08955 6.87381,11.08955l7.54054,25.78378z" fill="url(#color-2)" stroke="#000000" stroke-width="0.5" stroke-linecap="butt"/><path d="M374.30454,215.8793l-8.28196,13.05992" fill="none" stroke="#000000" stroke-width="1.5" stroke-linecap="round"/><path d="M234.19555,294.34463l8.83045,-12.55803" fill="none" stroke="#000000" stroke-width="1.5" stroke-linecap="round"/><path d="M152.89636,89.44712l-8.84398,-14.31973c0,0 0.19833,-1.5815 1.2252,-3.3165c0.90437,-1.52802 2.57713,-3.19301 3.56193,-3.7507c1.07908,-0.61108 3.29426,-1.69458 5.29475,-1.71268c2.40605,-0.02177 4.54113,1.09568 4.54113,1.09568l7.98261,14.08747c0,0 -2.29328,-0.82163 -4.83067,-0.40395c-1.30448,0.21473 -3.45016,0.43702 -4.2315,0.88649c-0.85334,0.49089 -2.18805,1.87016 -3.02041,2.96336c-1.39739,1.83532 -1.67905,4.47056 -1.67905,4.47056z" fill="#9086a5" stroke="none" stroke-width="0.5" stroke-linecap="butt"/><path d="M211.23516,250.80428c-1.18299,2.32586 -5.37087,2.56907 -9.35392,0.54321c-3.98305,-2.02586 -6.25295,-5.55363 -5.06996,-7.87949c1.18299,-2.32586 5.37087,-2.56907 9.35392,-0.54321c3.98305,2.02586 6.25295,5.55363 5.06996,7.87949z" fill="#3a3a3a" stroke="none" stroke-width="0" stroke-linecap="butt"/><path d="M386.59794,276.68306c1.29453,2.26568 -0.80138,5.89951 -4.68135,8.11639c-3.87997,2.21688 -8.07473,2.17733 -9.36926,-0.08834c-1.29453,-2.26568 0.80138,-5.89951 4.68135,-8.11639c3.87997,-2.21688 8.07473,-2.17733 9.36926,0.08834z" fill="#3a3a3a" stroke="none" stroke-width="0" stroke-linecap="butt"/><path d="M282.59433,68.39652l2.08888,-13.29283c0,0 0.74739,1.07822 2.0377,1.66736c0.94117,0.42973 2.34891,0.42151 3.08953,0.42151c0.74465,0 1.98868,0.28243 3.02037,-0.07903c1.75038,-0.61327 3.24625,-2.00984 3.24625,-2.00984l0.94948,12.72313c0,0 -1.31329,1.24096 -3.30629,1.88431c-1.11536,0.36005 -2.83488,0.27208 -3.70839,0.30656c-1.06343,0.04198 -2.85165,0.1011 -4.29261,-0.26586c-1.77706,-0.45255 -3.12491,-1.35531 -3.12491,-1.35531z" fill="#50dee8" stroke="none" stroke-width="0" stroke-linecap="butt"/><path d="M125.5961,160.9211c-0.94749,-0.81533 -0.13216,-1.76282 -0.13216,-1.76282l1.39509,-1.62014c1.76211,-2.3448 3.69655,-4.47515 6.05212,-6.25072c0.80571,-0.60732 1.46336,-1.54951 2.44441,-1.78519c0.54855,-0.13178 1.10658,-0.01615 1.66613,0.13939c-4.39005,-2.82648 -9.26059,-4.27186 -13.88212,-6.7224c-2.96973,-1.57468 -5.80158,-3.63937 -8.61178,-5.4817l-0.92196,-1.74098c0,0 -0.55902,-1.11803 0.55902,-1.67705c1.11803,-0.55902 1.67705,0.55902 1.67705,0.55902l0.53899,1.18091c2.6574,1.58928 5.19788,3.50248 7.92983,4.95108c4.98548,2.64352 10.23007,4.15374 14.90761,7.39203c3.18776,2.20691 6.29626,4.33186 9.69922,6.18802c0.65093,0.35505 4.58366,2.44728 4.86579,2.85355c1.48689,2.1411 -1.351,4.65036 -2.1197,6.24921c-0.85224,1.77263 -0.99712,4.41026 -1.38217,6.32335c-0.73918,3.67257 -2.24214,7.51446 -1.46059,11.19552c0,0 0.24515,1.22573 -0.98058,1.47087c-1.22573,0.24515 -1.47087,-0.98058 -1.47087,-0.98058c-1.01021,-5.31648 1.26682,-11.82931 2.53315,-17.1041c0.35348,-1.47237 1.12909,-2.82612 1.92304,-4.11548c0.33889,-0.55036 1.31184,-1.35783 0.80797,-1.76263c-1.57139,-1.26241 -4.30953,-2.15019 -6.10791,-3.1321c-2.15691,-1.17767 -4.16419,-2.6134 -6.1728,-4.03615c-0.0049,0.0639 -0.01411,0.13087 -0.02815,0.20106c-0.24515,1.22573 -1.47087,0.98058 -1.47087,0.98058c-0.63811,-0.16687 -1.273,-0.65467 -1.91432,-0.5006c-0.64132,0.15407 -0.97326,0.89099 -1.47801,1.31556c-2.14432,1.80369 -3.97362,3.61069 -5.65391,5.85573l-1.4487,1.68459c0,0 -0.81533,0.94749 -1.76282,0.13216z" fill="#72eeff" stroke="none" stroke-width="0.5" stroke-linecap="butt"/><path d="M231.59956,102.47719c1.25,0 1.25,1.25 1.25,1.25l-0.06415,1.12576c-0.28434,0.81777 -0.56868,1.63553 -0.85301,2.4533c-3.18116,3.25349 -7.87517,7.14522 -12.4423,7.16709c-1.88764,0.00904 -3.3359,0.34865 -4.83306,-1.08497c-1.14549,-1.09687 -2.02199,-4.91556 -3.45027,-5.57478c-1.24382,-0.57409 -2.68504,0.57676 -3.98076,1.02149c-2.85565,0.98014 -8.06099,2.68523 -8.77284,5.51402c0,0 -0.39528,1.18585 -1.58114,0.79057c-1.18585,-0.39528 -0.79057,-1.58114 -0.79057,-1.58114c0.34415,-0.89334 0.36562,-1.99311 1.03244,-2.68002c0.62022,-0.63889 1.71362,-0.52717 2.49517,-0.95381c3.02939,-1.65371 5.81103,-3.59045 9.37502,-4.17024c1.06573,-0.17337 2.23933,-0.65518 3.23116,-0.22843c2.14296,0.92202 2.79886,6.20528 5.06203,6.48075c4.87161,0.59297 9.10522,-2.7043 12.52848,-6.01486c0.20264,-0.64318 0.40529,-1.28636 0.60793,-1.92954l-0.06415,-0.33519c0,0 0,-1.25 1.25,-1.25z" fill="#72eeff" stroke="none" stroke-width="0.5" stroke-linecap="butt"/><path d="M106.69065,92.55914c-1.25,0.002 -1.25199,-1.248 -1.25199,-1.248l-0.00044,-0.27695c-0.00528,-3.31355 -0.72689,-6.60319 -0.72689,-9.86306c0,-0.48085 0.6156,-0.987 0.36297,-1.39615c-0.18632,-0.30176 -0.64589,0.33271 -0.99896,0.36612c-0.89609,0.08478 -1.81006,0.11712 -2.70023,-0.01614c-1.54909,-0.23191 -2.75932,-0.79447 -4.10706,-1.14533c-1.18146,4.92625 -3.49508,11.00816 -1.14894,15.42286c0,0 0.55902,1.11803 -0.55902,1.67705c-1.11803,0.55902 -1.67705,-0.55902 -1.67705,-0.55902c-2.34189,-4.895 -0.84536,-11.16815 0.50573,-16.99036c-0.31667,-0.15411 -0.6377,-0.46655 -0.6377,-1.10001c0,-1.05825 0.89591,-1.22058 1.17078,-1.24549c0.34902,-1.59747 0.64342,-3.13932 0.79389,-4.58455c0.27172,-2.60982 1.34477,-4.43455 1.64388,-7.01357c0.04837,-0.41709 0.36939,-0.88891 0.1552,-1.25005c-0.89114,-1.50256 -4.18717,-3.16523 -5.61923,-4.04601l-0.87105,-1.63554c-0.01683,-0.02919 -0.0322,-0.05824 -0.04622,-0.08679l-0.01717,-0.03224c0,0 -0.03578,-0.07157 -0.07114,-0.18755c-0.03695,-0.11548 -0.04826,-0.19469 -0.04826,-0.19469c-0.21753,-1.52268 0.08504,-3.19518 -0.59205,-4.57628c-0.67065,-1.36797 -2.12587,-2.18367 -3.2239,-3.23981c-2.16903,-2.08629 -4.49687,-4.03023 -6.7381,-6.0394l-0.77997,-0.77734c0,0 -0.88388,-0.88388 0,-1.76777c0.88388,-0.88388 1.76777,0 1.76777,0l0.68097,0.6836c3.11188,2.78968 8.67798,6.24624 10.53798,10.04022c0.10368,0.21149 0.66312,4.19482 0.79798,5.15208l0.43129,0.95623c1.78153,0.99759 5.11732,2.87242 6.06834,4.71967c1.19236,2.31603 -0.78756,5.40813 -1.39882,7.4375c-0.61507,2.04201 -0.37337,4.55662 -0.63603,6.7193c2.09892,0.37987 4.1026,1.02637 6.31812,1.17941c0.92807,0.06411 2.13193,-0.31393 2.76672,0.36612c0.68434,0.73312 0.23213,1.99238 0.36297,2.98669c0.44804,3.40473 0.72767,6.59697 0.73317,10.03629l0.00044,0.27695c0,0 0.002,1.25 -1.248,1.25199z" fill="#72eeff" stroke="none" stroke-width="0.5" stroke-linecap="butt"/><path d="M154.74647,243.09414c0.88388,-0.88388 1.76777,0 1.76777,0l0.24187,0.4285c3.22743,1.07581 5.82541,1.33483 8.99298,1.38581c0.01972,-1.09139 0.13239,-2.09945 0.42297,-2.89088c0.66628,-1.81468 3.74567,-3.80425 5.87488,-5.29418c-1.41463,-0.80737 -3.13339,-1.23712 -4.15122,-2.49005c-1.74055,-2.1426 -1.07541,-5.83864 -0.85414,-8.29664c0.50142,-5.57012 1.7654,-10.36803 4.27161,-15.38898l0.73047,-1.46095c0,0 0.55902,-1.11803 1.67705,-0.55902c1.11803,0.55902 0.55902,1.67705 0.55902,1.67705l-0.73047,1.46095c-2.37831,4.74801 -3.53997,9.23284 -4.01784,14.49603c-0.13506,1.48749 -0.91166,5.13588 0.27484,6.45916c1.0342,1.15343 2.75908,1.42361 4.04881,2.28182c0,0 0.12371,0.08248 0.25736,0.23321c2.97572,-2.4439 5.95145,-4.8878 8.92718,-7.3317c0.29049,-0.23857 3.94433,-3.25474 4.13194,-3.34163c2.07064,-0.95897 5.42273,-1.02667 7.68073,-1.43722c0,0 1.22984,-0.22361 1.45344,1.00623c0.22361,1.22984 -1.00623,1.45344 -1.00623,1.45344c-2.04095,0.37108 -5.20247,0.37777 -7.07732,1.24607c-1.41745,0.65646 -2.38874,2.01366 -3.59589,3.00507c-3.21993,2.64446 -6.43985,5.28892 -9.65979,7.93338c-1.85752,1.52554 -3.68782,3.085 -5.55057,4.60393c-0.31201,0.25442 -0.83327,0.35842 -0.95216,0.74305c-0.19077,0.61718 -0.2648,1.3857 -0.273,2.22369c0.21108,0.18401 0.37715,0.47356 0.37715,0.92917c0,0.41148 -0.13545,0.68751 -0.31718,0.87267c0.10684,1.64065 0.31718,3.32533 0.31718,4.54922c0,9.50921 -4.08084,17.37119 -6.14309,26.43393l-0.46258,2.02439c0,0 -0.27845,1.21859 -1.49704,0.94014c-1.21859,-0.27845 -0.94014,-1.49704 -0.94014,-1.49704l0.46258,-2.02439c2.03187,-8.85747 6.08027,-16.59423 6.08027,-25.87703c0,-1.15438 -0.14936,-2.65487 -0.24466,-4.18236c-3.46946,-0.05404 -6.35147,-0.34587 -9.85772,-1.51462l-1.21907,-1.03244c0,0 -0.88388,-0.88388 0,-1.76777z" fill="#72eeff" stroke="none" stroke-width="0.5" stroke-linecap="butt"/><path d="M321.60116,303.29976c-0.88388,0.88388 -1.76777,0 -1.76777,0l-1.46095,-1.46095c-1.73701,-1.76193 -1.89384,-2.77898 -4.10359,-3.88881c-2.10226,-1.29096 -4.2926,-2.55977 -6.43942,-3.73545c-0.62917,-0.34456 -3.8369,-1.28386 -4.24913,-2.10389c-1.21118,-2.40938 0.45519,-7.51777 0.88525,-10.06255c1.25611,-7.4328 1.52562,-14.99942 3.35147,-22.30284c0,0 0.30317,-1.21268 1.51585,-0.90951c1.21268,0.30317 0.90951,1.51585 0.90951,1.51585c-1.80898,7.23593 -2.06649,14.74636 -3.31179,22.11314c-0.33329,1.97162 -1.9196,6.49394 -1.21716,8.34215c0.41808,1.10005 2.28213,0.6503 3.31515,1.21401c2.1622,1.17991 4.36659,2.46634 6.48504,3.76101c2.52236,1.42214 2.70269,2.39822 4.6266,4.28913l1.46095,1.46095c0,0 0.88388,0.88388 0,1.76777z" fill="#72eeff" stroke="none" stroke-width="0.5" stroke-linecap="butt"/><path d="M362.74181,148.4575c0.55902,1.11803 -0.55902,1.67705 -0.55902,1.67705l-1.029,0.37433c-0.22496,2.85806 -1.53852,5.39836 -1.94536,8.1834c-0.60458,4.13875 0.08473,8.318 -0.74178,12.48357c0,0 -0.02904,0.14519 -0.1171,0.32564c7.22708,-1.92931 14.49659,-4.13836 21.44248,-6.5908c2.28061,-0.80464 4.64387,-1.89484 6.99268,-2.46708c1.09305,-0.2663 2.43537,-1.24703 3.32791,-0.56216c0.34193,0.26237 0.88825,6.48135 1.17373,7.4426c1.87631,6.31765 3.9563,11.99449 6.9057,17.89317l0.43978,1.68117c0,0 0.29415,1.2149 -0.92075,1.50905c-1.2149,0.29415 -1.50905,-0.92075 -1.50905,-0.92075l-0.24605,-1.15143c-3.01023,-6.02058 -5.18503,-11.84473 -7.06805,-18.30579c-0.55308,-1.89773 -1.03118,-2.70778 -0.75621,-4.63396c0.07415,-0.51941 0.87278,-1.09839 0.51911,-1.48595c-0.3114,-0.34124 -0.6437,0.68831 -1.05493,0.89878c-0.71016,0.36348 -1.50464,0.5309 -2.25697,0.79635c-1.57171,0.55454 -3.14342,1.10905 -4.71514,1.66358c-9.34647,3.29522 -19.26455,6.15901 -28.89443,8.49995c-4.88045,1.1864 -9.91122,2.96991 -14.94171,2.98675c0,0 -1.25,0 -1.25,-1.25c0,-1.25 1.25,-1.25 1.25,-1.25c4.80072,0.0181 9.69268,-1.78458 14.35143,-2.91607c1.78814,-0.43429 3.58656,-0.8868 5.38955,-1.35696c-0.68904,-0.41845 -0.51346,-1.29638 -0.51346,-1.29638c0.83005,-4.11488 0.12077,-8.25297 0.71917,-12.35251c0.44659,-3.05955 1.62753,-6.34852 2.43748,-9.34796l1.8929,-1.08661c0,0 1.11803,-0.55902 1.67705,0.55902z" fill="#72eeff" stroke="none" stroke-width="0.5" stroke-linecap="butt"/><path d="M375.29182,254.93512c0,1.25 -1.25,1.25 -1.25,1.25h-0.73047c-0.78161,-0.12204 -1.78545,0.19326 -2.34483,-0.36612c-0.55938,-0.55938 -0.24408,-1.56322 -0.36612,-2.34483c0,0 0,-1.25 1.25,-1.25c1.25,0 1.25,1.25 1.25,1.25c-0.12204,0.19235 -0.5272,0.41598 -0.36612,0.57706c0.16108,0.16108 0.38471,-0.24408 0.57706,-0.36612h0.73047c0,0 1.25,0 1.25,1.25z" fill="#72eeff" stroke="none" stroke-width="0.5" stroke-linecap="butt"/><path d="M282.57927,21.03031c0.88388,-0.88388 1.76777,0 1.76777,0l1.03244,1.21907c1.42469,4.42021 -0.26308,5.28544 -2.27005,9.01062c-0.40937,0.75984 -0.34214,1.76616 -0.89338,2.43029c-1.06976,1.28885 -2.72204,1.14656 -4.13681,1.38558c-4.66221,0.78765 -8.86921,1.23684 -13.60839,1.23684c0,0 -1.25,0 -1.25,-1.25c0,-1.25 1.25,-1.25 1.25,-1.25c4.61821,0 8.66599,-0.45857 13.20871,-1.20469c0.88992,-0.14616 2.16866,0.20827 2.64785,-0.55574c0.36014,-0.57419 0.25244,-1.35247 0.56757,-1.95255c1.66411,-3.16885 3.37489,-3.42411 2.11279,-7.05979l-0.4285,-0.24187c0,0 -0.88388,-0.88388 0,-1.76777z" fill="#72eeff" stroke="none" stroke-width="0.5" stroke-linecap="butt"/><path d="M283.61656,179.11933c-0.88388,0.88388 -1.76777,0 -1.76777,0l-0.8473,-0.8473c-2.8659,-2.8659 -5.90519,-5.26226 -8.8074,-8.08496c-1.73729,2.54581 -1.94962,5.42696 -4.57428,7.39093l-0.56998,1.21646c0,0 -0.55902,1.11803 -1.67705,0.55902c-1.11803,-0.55902 -0.55902,-1.67705 -0.55902,-1.67705l0.89096,-1.70543c2.72352,-2.00145 2.83499,-5.18567 4.89266,-7.83293c3.10754,-3.99797 6.85613,-6.68525 8.78328,-11.55059c0,0 0.46424,-1.1606 1.62483,-0.69636c1.1606,0.46424 0.69636,1.62483 0.69636,1.62483c-1.8134,4.49425 -4.96286,7.25773 -7.93691,10.71094c2.9613,2.90672 6.06562,5.33866 9.00432,8.27735l0.8473,0.8473c0,0 0.88388,0.88388 0,1.76777z" fill="#72eeff" stroke="none" stroke-width="0.5" stroke-linecap="butt"/><path d="M336.78769,73.56684c-1.25,0 -1.25,-1.25 -1.25,-1.25v-2.19142c0,0 0,-1.25 1.25,-1.25c1.25,0 1.25,1.25 1.25,1.25v2.19142c0,0 0,1.25 -1.25,1.25z" fill="#72eeff" stroke="none" stroke-width="0.5" stroke-linecap="butt"/><path d="M251.47574,344.20626c-0.88388,0.88388 -1.76777,0 -1.76777,0l-1.15413,-1.15413c-2.28277,-2.28874 -4.89384,-4.09662 -7.47767,-6.03449c0,0 -1,-0.75 -0.25,-1.75c0.75,-1 1.75,-0.25 1.75,-0.25c2.68151,2.01113 5.36985,3.8969 7.74544,6.26672l1.15413,1.15413c0,0 0.88388,0.88388 0,1.76777z" fill="#72eeff" stroke="none" stroke-width="0.5" stroke-linecap="butt"/><path d="M38.5437,261.50938c0,1.25 -1.25,1.25 -1.25,1.25h-1.46095c0,0 -1.25,0 -1.25,-1.25c0,-1.25 1.25,-1.25 1.25,-1.25h1.46095c0,0 1.25,0 1.25,1.25z" fill="#72eeff" stroke="none" stroke-width="0.5" stroke-linecap="butt"/><path d="M253.3423,209.30288c-1.11803,0.55902 -1.67705,-0.55902 -1.67705,-0.55902l-0.49632,-1.13608c-2.56293,-1.33986 -2.53937,-3.30617 -2.55754,-5.9972c0,0 0,-1.25 1.25,-1.25c1.25,0 1.25,1.25 1.25,1.25c-0.01825,2.25169 -0.28919,3.22452 1.8253,4.22943l0.96462,1.78581c0,0 0.55902,1.11803 -0.55902,1.67705z" fill="#72eeff" stroke="none" stroke-width="0.5" stroke-linecap="butt"/><path d="M216.83669,158.35926c0.88388,-0.88388 1.76777,0 1.76777,0l1.09659,1.61436c0,3.95051 0.72508,7.75523 0.73047,11.68757c0,0 0,1.25 -1.25,1.25c-1.25,0 -1.25,-1.25 -1.25,-1.25c0.0058,-3.92559 -0.73047,-7.73802 -0.73047,-11.68757l-0.36436,0.15341c0,0 -0.88388,-0.88388 0,-1.76777z" fill="#72eeff" stroke="none" stroke-width="0.5" stroke-linecap="butt"/><path d="M418.22744,102.12255c-0.58678,-1.10371 0.51693,-1.6905 0.51693,-1.6905l0.12472,-0.06631c2.85169,-1.51571 5.68791,-2.62837 7.45721,-5.36714c0,0 0.69338,-1.04006 1.73344,-0.34669c1.04006,0.69338 0.34669,1.73344 0.34669,1.73344c-2.13489,3.1238 -5.06552,4.4339 -8.36377,6.18782l-0.12472,0.06631c0,0 -1.10371,0.58678 -1.6905,-0.51693z" fill="#72eeff" stroke="none" stroke-width="0.5" stroke-linecap="butt"/></g></g></svg>