<svg version="1.1" xmlns="http://www.w3.org/2000/svg" xmlns:xlink="http://www.w3.org/1999/xlink" width="45.62639" height="47.16651" viewBox="0,0,45.62639,47.16651"><g transform="translate(-217.07176,-154.41604)"><g data-paper-data="{&quot;isPaintingLayer&quot;:true}" fill-rule="nonzero" stroke="none" stroke-linecap="butt" stroke-linejoin="miter" stroke-miterlimit="10" stroke-dasharray="" stroke-dashoffset="0" style="mix-blend-mode: normal"><path d="M259.55859,184.79882c0,5.41586 -2.04339,8.99673 -4.79513,11.95822c-2.33222,2.50999 -5.04804,4.82551 -8.76523,4.82551c-3.43489,0 -5.44264,-3.30889 -7.89663,-4.55382c-3.33508,-1.69191 -6.55293,-2.01942 -6.55293,-7.78388c0,-4.70855 -3.48527,-12.50045 -1.15285,-17.07733c2.62416,-5.14936 11.31242,-6.82002 15.60241,-6.82002c4.67804,0 12.47568,1.59198 14.84909,6.17859c1.73769,3.35808 -1.28873,9.04337 -1.28873,13.27275z" fill="#8b0000" stroke-width="0"/><path d="M237.87144,179.60525c-2.22301,-9.31112 0.17898,-9.3485 4.94571,-9.3485c4.76672,0 0.63445,-0.27699 10.641,9.16377c5.77983,5.45303 -1.11206,16.37286 -4.45033,15.97685c-2.16639,-0.25699 -2.52065,-4.27248 -4.39663,-4.27248c-4.76672,0 -10.51888,6.23892 -10.51888,-7.51822z" data-paper-data="{&quot;index&quot;:null}" fill="#4c0000" stroke-width="0"/><path d="M241.29963,158.46613c1.21268,0.30317 0.90951,1.51585 0.90951,1.51585l-0.24912,0.98132c-0.2223,0.6669 -0.4446,1.33381 -0.6669,2.00071c0,0 -0.39528,1.18585 -1.58114,0.79057c-1.18585,-0.39528 -0.79057,-1.58114 -0.79057,-1.58114c0.2223,-0.6669 0.4446,-1.33381 0.6669,-2.00071l0.19548,-0.79709c0,0 0.30317,-1.21268 1.51585,-0.90951z" fill="#8b0000" stroke-width="0.5"/><path d="M250.85205,162.2971c-0.39528,1.18585 -1.58114,0.79057 -1.58114,0.79057c-0.4446,-0.1482 -2.22301,-0.741 -2.66761,-0.8892c0,0 -1.18585,-0.39528 -0.79057,-1.58114c0.39528,-1.18585 1.58114,-0.79057 1.58114,-0.79057c0.4446,0.1482 0.8892,0.2964 1.33381,0.4446l1.33381,0.4446c0,0 1.18585,0.39528 0.79057,1.58114z" fill="#8b0000" stroke-width="0.5"/><path d="M254.80559,164.94259c-1.04006,0.69338 -1.73344,-0.34669 -1.73344,-0.34669l-0.8892,-1.33381c0,0 -0.69338,-1.04006 0.34669,-1.73344c1.04006,-0.69338 1.73344,0.34669 1.73344,0.34669l0.8892,1.33381c0,0 0.69338,1.04006 -0.34669,1.73344z" fill="#8b0000" stroke-width="0.5"/><path d="M261.44815,189.82794c-1.25,0 -1.25,-1.25 -1.25,-1.25l0.01701,-0.68371c-0.0741,-0.4446 -0.1482,-0.8892 -0.2223,-1.33381c0,0 -0.2055,-1.23299 1.02749,-1.43849c1.23299,-0.2055 1.43849,1.02749 1.43849,1.02749c0.0741,0.4446 0.1482,0.8892 0.2223,1.33381l0.01701,1.0947c0,0 0,1.25 -1.25,1.25z" fill="#8b0000" stroke-width="0.5"/><path d="M260.66683,194.14199c-1.11803,-0.55902 -0.55902,-1.67705 -0.55902,-1.67705l0.09033,0.11442c0,-0.4446 0,-0.8892 0,-1.33381c0,0 0,-1.25 1.25,-1.25c1.25,0 1.25,1.25 1.25,1.25c0,0.4446 0,0.8892 0,1.33381l-0.35427,1.00362c0,0 -0.55902,1.11803 -1.67705,0.55902z" fill="#8b0000" stroke-width="0.5"/><path d="M223.10158,189.16174c0.75,-1 1.75,-0.25 1.75,-0.25l0.86575,0.64974c0.91154,0.65401 1.80687,1.34318 2.60265,2.13399c0,0 0.88388,0.88388 0,1.76777c-0.88388,0.88388 -1.76777,0 -1.76777,0c-0.69353,-0.69867 -1.48556,-1.29712 -2.28798,-1.86743l-0.91266,-0.68407c0,0 -1,-0.75 -0.25,-1.75z" fill="#8b0000" stroke-width="0.5"/><path d="M217.07176,183.02041c0,-0.69036 0.55964,-1.25 1.25,-1.25c0.69036,0 1.25,0.55964 1.25,1.25c0,0.69036 -0.55964,1.25 -1.25,1.25c-0.69036,0 -1.25,-0.55964 -1.25,-1.25z" fill="#8b0000" stroke-width="0.5"/><path d="M234.32744,154.4647c1.21268,0.30317 0.90951,1.51585 0.90951,1.51585l-0.24912,0.98132c-0.2223,0.6669 -0.4446,1.33381 -0.6669,2.00071c0,0 -0.39528,1.18585 -1.58114,0.79057c-1.18585,-0.39528 -0.79057,-1.58114 -0.79057,-1.58114c0.2223,-0.6669 0.4446,-1.33381 0.6669,-2.00071l0.19548,-0.79709c0,0 0.30317,-1.21268 1.51585,-0.90951z" fill="#8b0000" stroke-width="0.5"/><path d="M252.30227,178.42643c-1.18585,-0.39528 -0.79057,-1.58114 -0.79057,-1.58114l0.2223,-0.6669c0.63701,-1.89254 0.94224,-3.68194 1.84623,-5.49896c0,0 0.55902,-1.11803 1.67705,-0.55902c1.11803,0.55902 0.55902,1.67705 0.55902,1.67705c-0.85541,1.70127 -1.11906,3.38172 -1.71059,5.17149l-0.2223,0.6669c0,0 -0.39528,1.18585 -1.58114,0.79057z" fill="#8b0000" stroke-width="0.5"/></g></g></svg>