<svg version="1.1" xmlns="http://www.w3.org/2000/svg" xmlns:xlink="http://www.w3.org/1999/xlink" width="39.8755" height="46.4996" viewBox="0,0,39.8755,46.4996"><g transform="translate(-219.9472,-156.7502)"><g data-paper-data="{&quot;isPaintingLayer&quot;:true}" fill-rule="nonzero" stroke="none" stroke-linecap="butt" stroke-linejoin="miter" stroke-miterlimit="10" stroke-dasharray="" stroke-dashoffset="0" style="mix-blend-mode: normal"><path d="M255.47121,187.16924c0,4.11296 -1.55181,6.83238 -3.64156,9.08142c-1.77116,1.90616 -3.83363,3.66463 -6.65657,3.66463c-2.60855,0 -4.13329,-2.51287 -5.99693,-3.4583c-2.53276,-1.28488 -4.97648,-1.5336 -4.97648,-5.9113c0,-3.57581 -2.64682,-9.49321 -0.87551,-12.96901c1.99286,-3.91058 8.59098,-5.17932 11.84893,-5.17932c3.55264,0 9.4744,1.209 11.27683,4.6922c1.31965,2.55022 -0.9787,6.86779 -0.9787,10.07971z" fill="#8b0000" stroke-width="0"/><path d="M239.17127,183.10571c-1.49605,-6.26622 0.12045,-6.29137 3.32837,-6.29137c3.20791,0 0.42697,-0.18641 7.1612,6.16705c3.88973,3.66979 -0.7484,11.01864 -2.99499,10.75213c-1.45794,-0.17295 -1.69636,-2.8753 -2.95885,-2.8753c-3.20791,0 -7.07902,4.19868 -7.07902,-5.05963z" data-paper-data="{&quot;index&quot;:null}" fill="#4c0000" stroke-width="0"/><path d="M236.77275,156.79886c1.21268,0.30317 0.90951,1.51585 0.90951,1.51585l-0.24912,0.98132c-0.2223,0.6669 -0.4446,1.33381 -0.6669,2.00071c0,0 -0.39528,1.18585 -1.58114,0.79057c-1.18585,-0.39528 -0.79057,-1.58114 -0.79057,-1.58114c0.2223,-0.6669 0.4446,-1.33381 0.6669,-2.00071l0.19548,-0.79709c0,0 0.30317,-1.21268 1.51585,-0.90951z" fill="#8b0000" stroke-width="0.5"/><path d="M256.92585,188.69576c0,4.69637 -1.77193,7.80153 -4.1581,10.36959c-2.02239,2.17654 -4.37742,4.18445 -7.60078,4.18445c-2.97857,0 -4.71959,-2.86931 -6.84758,-3.94885c-2.89202,-1.46714 -5.68238,-1.75114 -5.68238,-6.7498c0,-4.08303 -3.02226,-10.83979 -0.9997,-14.80863c2.27554,-4.46528 9.80958,-5.91399 13.52966,-5.91399c4.05657,0 10.81831,1.38049 12.87641,5.35777c1.50684,2.91196 -1.11752,7.84197 -1.11752,11.50949z" fill="#8b0000" stroke-width="0"/><path d="M239.2758,184.85403c-1.81041,-7.58293 0.14576,-7.61337 4.02776,-7.61337c3.88199,0 0.51669,-0.22558 8.66598,7.46293c4.70707,4.44092 -0.90566,13.33398 -3.62433,13.01147c-1.7643,-0.20929 -2.05281,-3.47949 -3.58059,-3.47949c-3.88199,0 -8.56653,5.08095 -8.56653,-6.1228z" data-paper-data="{&quot;index&quot;:null}" fill="#4c0000" stroke-width="0"/><path d="M235.89801,166.09818c1.25,0 1.25,1.25 1.25,1.25l-0.46913,1.64299c-1.59544,1.24571 -3.57618,2.22154 -5.49851,2.87738c0,0 -1.18585,0.39528 -1.58114,-0.79057c-0.39528,-1.18585 0.79057,-1.58114 0.79057,-1.58114c1.60658,-0.51965 3.43209,-1.38694 4.72734,-2.45784l-0.46913,0.30918c0,0 0,-1.25 1.25,-1.25z" fill="#8b0000" stroke-width="0.5"/><path d="M251.93015,166.60983c-1.04006,0.69338 -1.73344,-0.34669 -1.73344,-0.34669l-0.8892,-1.33381c0,0 -0.69338,-1.04006 0.34669,-1.73344c1.04006,-0.69338 1.73344,0.34669 1.73344,0.34669l0.8892,1.33381c0,0 0.69338,1.04006 -0.34669,1.73344z" fill="#8b0000" stroke-width="0.5"/><path d="M257.79139,195.80923c-1.11803,-0.55902 -0.55902,-1.67705 -0.55902,-1.67705l0.09033,0.11442c0,-0.4446 0,-0.8892 0,-1.33381c0,0 0,-1.25 1.25,-1.25c1.25,0 1.25,1.25 1.25,1.25c0,0.4446 0,0.8892 0,1.33381l-0.35427,1.00362c0,0 -0.55902,1.11803 -1.67705,0.55902z" fill="#8b0000" stroke-width="0.5"/><path d="M220.22614,190.82898c0.75,-1 1.75,-0.25 1.75,-0.25l0.86575,0.64974c0.91154,0.65401 1.80687,1.34318 2.60265,2.13399c0,0 0.88388,0.88388 0,1.76777c-0.88388,0.88388 -1.76777,0 -1.76777,0c-0.69353,-0.69867 -1.48556,-1.29712 -2.28798,-1.86743l-0.91266,-0.68407c0,0 -1,-0.75 -0.25,-1.75z" fill="#8b0000" stroke-width="0.5"/></g></g></svg>