<svg version="1.1" xmlns="http://www.w3.org/2000/svg" xmlns:xlink="http://www.w3.org/1999/xlink" width="103.51011" height="104.63248" viewBox="0,0,103.51011,104.63248"><g transform="translate(-177.98989,-132)"><g data-paper-data="{&quot;isPaintingLayer&quot;:true}" fill-rule="nonzero" stroke-linecap="butt" stroke-linejoin="miter" stroke-miterlimit="10" stroke-dasharray="" stroke-dashoffset="0" style="mix-blend-mode: normal"><path d="M229.5,158.5c0,14.08326 -11.19288,25.5 -25,25.5c-13.80712,0 -25,-11.41674 -25,-25.5c0,-14.08326 11.19288,-25.5 25,-25.5c13.80712,0 25,11.41674 25,25.5z" fill="#ff0000" stroke="#000000" stroke-width="2"/><path d="M280.5,159.5c0,14.08326 -11.19288,25.5 -25,25.5c-13.80712,0 -25,-11.41674 -25,-25.5c0,-14.08326 11.19288,-25.5 25,-25.5c13.80712,0 25,11.41674 25,25.5z" fill="#ff0000" stroke="#000000" stroke-width="2"/><path d="M182.5,166c0,-9.87924 27,0 27,0h45c0,0 25,-11.73666 25,-2c0,6.74516 -27.19523,46.29844 -41.868,67.14792c-0.60031,0.33417 -1.16263,0.72838 -1.67883,1.17451c-1.47519,0.6304 -2.76802,1.60525 -3.77744,2.82346c-0.71371,0.06039 -1.40607,0.19575 -2.06916,0.39816c-3.76262,-2.32237 -7.30022,-4.43736 -11.02898,-5.89103c-13.45828,-20.71691 -36.57758,-57.23889 -36.57758,-63.65302z" fill="#ff0000" stroke="#000000" stroke-width="2"/><path d="M181.37559,163.62867c0.97613,-1.70823 1.31136,-4.06171 2.67397,-5.38084c0.20781,-0.20118 0.43952,-0.3783 0.70103,-0.52541c0.41331,-0.23249 0.88728,-0.41158 1.40062,-0.55041c0.39644,-0.12107 0.80839,-0.20665 1.23212,-0.25299c1.89735,-0.28797 4.05947,-0.22993 5.6621,-0.33446c6.4312,-0.41945 13.1786,-0.45772 19.56762,0.6405c1.83138,0.3148 4.8339,2.54695 6.42532,2.59479c4.96089,0.14913 9.92654,0.05152 14.88941,0c3.48961,-0.03623 9.14806,0.87916 12.5489,0.02895c7.61325,-1.90331 14.78754,-5.47985 22.49718,-7.29985c3.16227,-0.74651 7.98112,-0.46776 9.81177,2.89459c2.24018,4.11455 -0.99331,9.69549 -5.28271,10.56543c-1.01306,0.20546 -3.36507,-1.04224 -4.2912,0.25206c-1.27535,1.78235 -4.46215,1.85294 -6.53915,2.46619c-5.05679,1.49308 -10.09011,3.7608 -15.34612,4.9288c-2.94711,0.65491 -9.43269,-0.36731 -12.73028,-0.33617c-4.64667,0.04387 -12.03461,0.04206 -16.68149,0.04206c-4.1082,0 -7.03565,-3.12161 -11.2083,-3.27735c-5.56499,-0.2077 -11.02194,-0.09279 -16.52198,0.29411c-1.24957,0.0879 -4.86942,0.14397 -5.48468,-0.93274z" fill="#ff0000" stroke="none" stroke-width="0.5"/><path d="M267.45704,160.084c-2.5,0 -2.5,-2.5 -2.5,-2.5l0.00864,-0.68804c-0.45315,-5.61146 -0.82378,-10.65553 -7.4817,-10.92146c-1.68693,-0.06738 -3.36304,0.30191 -5.04548,0.44211c0,0 -2.49136,0.20761 -2.69898,-2.28375c-0.20761,-2.49136 2.28375,-2.69898 2.28375,-2.69898c6.15425,-0.51285 13.71031,-0.90039 16.43632,6.10587c1.00971,2.5951 1.25247,6.17965 1.48881,8.94098l0.00864,1.10327c0,0 0,2.5 -2.5,2.5z" fill="#ffced8" stroke="none" stroke-width="0.5"/><path d="M215.51206,147.95724c1.11803,-2.23607 3.3541,-1.11803 3.3541,-1.11803l1.92135,1.39766c1.57416,2.63461 3.01587,4.4898 4.03451,7.437c0,0 0.79057,2.37171 -1.58114,3.16228c-2.37171,0.79057 -3.16228,-1.58114 -3.16228,-1.58114c-0.80963,-2.55509 -2.19575,-4.14955 -3.57856,-6.44566l0.13004,0.502c0,0 -2.23607,-1.11803 -1.11803,-3.3541z" fill="#ffced8" stroke="none" stroke-width="0.5"/><path d="M203.38068,142.58176c0,-1.38071 1.11929,-2.5 2.5,-2.5c1.38071,0 2.5,1.11929 2.5,2.5c0,1.38071 -1.11929,2.5 -2.5,2.5c-1.38071,0 -2.5,-1.11929 -2.5,-2.5z" fill="#ffced8" stroke="none" stroke-width="0.5"/><path d="M252.43125,199.03164c1.76777,1.76777 0,3.53553 0,3.53553l0.15205,-0.25761c-1.3275,2.20963 -2.79199,4.24016 -3.93812,6.54922c0,0 -1.11803,2.23607 -3.3541,1.11803c-2.23607,-1.11803 -1.11803,-3.3541 -1.11803,-3.3541c1.2194,-2.42355 2.73051,-4.56194 4.12279,-6.88563l0.59988,-0.70544c0,0 1.76777,-1.76777 3.53553,0z" fill="#ffced8" stroke="none" stroke-width="0.5"/><path d="M251.74611,192.51459c0,-1.38071 1.11929,-2.5 2.5,-2.5c1.38071,0 2.5,1.11929 2.5,2.5c0,1.38071 -1.11929,2.5 -2.5,2.5c-1.38071,0 -2.5,-1.11929 -2.5,-2.5z" fill="#ffced8" stroke="none" stroke-width="0.5"/><path d="M213.96716,185.82937c-0.3684,0 -0.55585,-0.18096 -0.65122,-0.36511c-3.76373,-0.94942 -7.18361,-2.37322 -10.59329,-4.03225c0,0 -0.05181,-0.02591 -0.11944,-0.07772c-0.88547,0.57599 -1.77786,1.07801 -2.66723,1.46344c-1.58517,0.68698 -4.21478,0.3698 -5.90697,0.50908c-0.27865,0.02294 -1.20315,-0.24805 -1.43649,0.26978c-0.23443,0.52025 0.07918,1.13942 0.07918,1.71004c0,0 0,0.75 -0.75,0.75c-0.75,0 -0.75,-0.75 -0.75,-0.75c0,-1.54703 -0.38348,-2.6948 1.42192,-3.43879c2.00902,-0.82789 4.79854,0.4678 6.76834,-0.43594c3.58663,-1.64554 7.1872,-5.09585 10.20662,-7.60631c0.34049,-0.27209 0.68098,-0.54418 1.02147,-0.81627l0.40184,-1.14708c0,0 0.26257,-0.70254 0.96511,-0.43997c0.70254,0.26257 0.43997,0.96511 0.43997,0.96511l-0.58392,1.49044c-0.42855,0.36711 -0.8571,0.73422 -1.28565,1.10133c-1.96857,1.6357 -4.20937,3.70627 -6.53592,5.41233c3.22033,1.59855 6.54392,2.87279 10.1499,3.73111l0.57579,0.95676c0,0 0,0.75 -0.75,0.75z" fill="#000000" stroke="none" stroke-width="0.5"/><path d="M197.0912,162.0863c-0.41603,0.62404 -1.04006,0.20801 -1.04006,0.20801l-0.61495,-0.41482c-3.22016,-1.28806 -5.82366,-3.6246 -8.76996,-5.39725c-0.11341,0.02894 -0.19906,0.02894 -0.19906,0.02894c-0.84037,0 -1.71399,0 -2.59543,0c-0.58242,1.04111 -3.04149,1.14703 -3.72969,0.78313l-0.19721,-0.50269c-0.55398,-0.01462 -1.0284,-0.05316 -1.20495,-0.05316c0,0 -0.75,0 -0.75,-0.75c0,-0.75 0.75,-0.75 0.75,-0.75c0.08852,0 0.21542,-0.00826 0.37139,-0.02222c0.22176,-0.20505 0.5377,-0.20505 0.5377,-0.20505c0.44819,0 0.89639,0 1.34458,0c1.11358,-0.11513 2.26357,-0.19393 2.58754,0c0.88626,0 1.77253,0 2.65879,0h0.22727c0,0 0.08366,0 0.1951,0.02794c0.32444,-0.11359 0.64532,0.07894 0.64532,0.07894c2.96527,1.7952 5.57639,4.13368 8.82693,5.4339l0.74868,0.49427c0,0 0.62404,0.41603 0.20801,1.04006z" fill="#000000" stroke="none" stroke-width="0.5"/><path d="M231.65591,205.02159c-0.62404,0.41603 -1.04006,-0.20801 -1.04006,-0.20801l-0.47919,-0.7214c-1.29285,-2.58824 -1.79684,-5.14713 -2.35948,-7.95663c0,0 -0.02101,-0.10506 -0.00744,-0.24371c-0.1327,-0.5882 0.46434,-0.82701 0.46434,-0.82701c1.32468,-0.52593 2.4052,-1.37228 3.70626,-1.94769c0.59113,-0.26144 1.7133,0.11097 1.86908,-0.51634c0.42948,-1.7295 -0.1377,-4.53892 -0.1377,-6.38506v-0.68182c0,0 0,-0.75 0.75,-0.75c0.75,0 0.75,0.75 0.75,0.75v0.68182c0,1.85317 0.69348,5.62294 -0.1377,7.2513c-0.13262,0.25982 -2.37925,0.97449 -2.48798,1.02238c-1.13596,0.50028 -2.11305,1.20332 -3.22206,1.73306c0.49614,2.49495 0.95058,4.80061 2.11007,7.11681l0.4299,0.64224c0,0 0.41603,0.62404 -0.20801,1.04006z" fill="#000000" stroke="none" stroke-width="0.5"/><path d="M231.61865,172.88242c-0.53033,-0.53033 0,-1.06066 0,-1.06066l0.01218,0.22032c0.04375,-0.38732 0.82548,-3.27735 0.39153,-3.34691c-3.90708,-0.62629 -4.38525,-3.76961 -3.40219,-7.02041c-0.21983,-0.58078 -0.4012,-1.17776 -0.54059,-1.78306c-0.31417,-0.08944 -0.54423,-0.37856 -0.54423,-0.72142c0,-0.41421 0.33579,-0.75 0.75,-0.75c0.209,0 0.39803,0.08549 0.53404,0.2234c0.16543,0.00844 0.29106,0.06864 0.38575,0.1481c0.02772,-0.11446 0.06796,-0.22333 0.12738,-0.32597c0.00773,-0.119 0.01322,-0.24019 0.0154,-0.3639l0.00563,-0.98084c0.00202,-0.41249 0.33703,-0.74624 0.74999,-0.74624c0.41421,0 0.75,0.33579 0.75,0.75v1.13636h-0.00897c-0.02985,1.14043 -0.14357,2.01148 -0.38473,2.90786l0.11941,0.01493l-0.18482,1.47855c-0.04037,0.36595 -0.34402,0.65259 -0.71737,0.66633c-0.09734,0.7248 -0.11769,1.47911 0.02658,2.2905c0.35738,2.01005 1.79493,1.07073 3.02652,1.7533c1.73096,0.95934 0.54196,3.45195 0.39153,4.83491l-0.44236,0.67486c0,0 -0.53033,0.53033 -1.06066,0z" fill="#000000" stroke="none" stroke-width="0.5"/><path d="M202.8418,154.73296c-0.33541,-0.67082 0.33541,-1.00623 0.33541,-1.00623l0.16592,0.02752c0.8553,-1.28295 0.78313,-1.59426 0.78313,-3.22034c0,0 0,-0.55554 0.47813,-0.71037c-0.20902,-0.66976 -0.48625,-1.2475 -0.87925,-1.65914c-0.48101,-0.50383 -1.40802,-0.09748 -2.06257,-0.33577c-0.99039,-0.36055 -1.84793,-0.88735 -2.50078,-1.59671l0.09062,0.54233c0,0 0.1233,0.7398 -0.6165,0.86309c-0.7398,0.1233 -0.86309,-0.6165 -0.86309,-0.6165l-0.22176,-1.33421c-0.0769,-0.31429 -0.13422,-0.6504 -0.17543,-1.00145c-1.1386,-0.13826 -0.86819,-1.25162 -0.973,-2.03192c-0.24451,-1.82027 -0.15073,-4.4312 -2.08906,-5.31217c0,0 -0.40051,-0.20025 -0.42786,-0.60076c-0.13239,-0.13525 -0.214,-0.32039 -0.214,-0.5246c0,-0.2994 0.17544,-0.55783 0.42912,-0.67809l0.89456,-0.44728l0.01542,0.03083l0.07659,-0.06942c0.03524,-0.00724 0.07296,-0.0156 0.11295,-0.02492l0.36872,-0.73744l0.10321,0.05161l0.05824,-0.2667c0.57719,-0.24789 1.0747,-0.40427 1.54075,-0.4894l0.0398,-0.39127c0.03414,-0.38257 0.35555,-0.68247 0.747,-0.68247c0.41421,0 0.75,0.33579 0.75,0.75l0,0.27966c0.62728,0.06941 1.29848,0.22976 2.1385,0.42854c-0.2159,2.33573 -0.65593,5.4908 -1.50327,7.73383c-0.13052,0.34552 -0.20083,0.9698 -0.35188,1.55819c0.29011,0.15585 0.37607,0.4997 0.37607,0.4997c0.68157,3.00849 3.57123,1.66169 5.19623,3.23323c2.06386,1.99597 1.41876,6.46599 2.70152,8.88598l0.22727,0.45455c0,0 0.33541,0.67082 -0.33541,1.00623c-0.67082,0.33541 -1.00623,-0.33541 -1.00623,-0.33541l-0.22727,-0.45455c-0.39027,-0.81462 -0.5813,-1.97465 -0.75713,-3.19346c-0.15212,0.37582 -0.36827,0.76809 -0.67529,1.22862l-0.74317,0.48207c0,0 -0.67082,0.33541 -1.00623,-0.33541zM196.84213,137.75517c0.0067,-0.12891 0.01139,-0.26305 0.01139,-0.40308v-0.26614c-0.11284,0.06796 -0.24504,0.10704 -0.38636,0.10704c-0.00846,0 -0.01688,-0.00014 -0.02527,-0.00042c0.14594,0.17779 0.27936,0.36575 0.40024,0.56259zM199.12397,134.89249c0.0174,0.01924 0.03405,0.03932 0.04991,0.06026c0.08145,0.10754 0.0813,0.22655 0.04015,0.35242c0.13854,-0.1913 0.30351,-0.35365 0.501,-0.47945c-0.20012,0.03317 -0.39681,0.05331 -0.59106,0.06678zM198.90595,135.87131c-0.02612,0.04698 -0.05024,0.094 -0.07068,0.14086c0.00405,0.00393 0.00808,0.00787 0.0121,0.01184c0.01862,-0.05185 0.03813,-0.10278 0.05858,-0.15271z" fill="#000000" stroke="none" stroke-width="0.5"/><path d="M271.39898,163.48846c0,-0.75 0.75,-0.75 0.75,-0.75l0.69375,0.16272c0.08664,0.06922 0.17423,0.13736 0.26273,0.20439c0.14335,-0.03513 0.28265,-0.07085 0.41709,-0.10766c0.28353,-0.07763 1.14208,-0.05211 1.84651,0.02625c0.86563,-1.26259 2.19867,-2.52474 2.96434,-3.8004l0.01498,-0.01146l-0.00526,-0.00351l0.44809,-0.67214c0.13354,-0.20678 0.36603,-0.34365 0.63049,-0.34365c0.41421,0 0.75,0.33579 0.75,0.75v1.5h-0.19953c0.12899,2.22405 -0.37838,4.26639 -1.2107,6.48748c-0.1931,0.5153 -0.32998,2.1055 -0.88751,2.25751c-0.42849,0.11683 -0.76243,0.09522 -1.01954,-0.02883c-0.05797,0.11884 -0.11717,0.23871 -0.17748,0.35971l-0.44082,0.88143c-0.06204,0.13085 -0.16085,0.24088 -0.28307,0.31674c0.068,0.80309 0.12775,1.5319 0.12775,2.08959c0,0 0,0.75 -0.75,0.75c-0.75,0 -0.75,-0.75 -0.75,-0.75c0,-1.86113 -0.45957,-4.83726 -0.18162,-7.12865c-0.59911,-0.30917 -1.18,-0.65814 -1.73472,-1.04318c-1.6731,0.39714 -3.39707,1.00992 -4.5306,1.88398c-0.4562,0.35177 -0.0076,4.35897 -0.0076,4.92422c-0.36463,2.38928 -3.48778,1.89115 -5.67537,2.10991l-0.75645,0.00372c0,0 -0.75,0 -0.75,-0.75c0,-0.75 0.75,-0.75 0.75,-0.75l0.60719,0.00372c1.04209,-0.10421 4.52304,-0.27524 4.32463,-0.61736c0,-1.4 -0.59012,-4.839 0.44694,-5.98488c0.99413,-1.09843 2.70989,-1.59138 4.3258,-1.96435c-0.00001,-0.00177 -0.00001,-0.00354 -0.00001,-0.00532zM276.22013,165.62377c0.12153,-0.76047 0.29598,-1.43418 0.40116,-1.7729c-0.05731,0.0848 -0.11237,0.16956 -0.16484,0.25429c-0.05962,0.23801 -0.14291,0.48221 -0.17078,0.70156c-0.03374,0.2655 -0.05288,0.53912 -0.06554,0.81704zM278.45935,161.5716c-0.10899,0.13074 -0.21949,0.2613 -0.33036,0.39168c0.09475,0.10919 0.15846,0.24604 0.17742,0.39682c0.04495,-0.2672 0.09493,-0.53136 0.15294,-0.7885z" fill="#000000" stroke="none" stroke-width="0.5"/><path d="M259.35352,181.21573c0,-0.75 0.75,-0.75 0.75,-0.75l0.08019,0.01456c1.1953,-0.23896 2.33458,-0.46589 3.55618,-0.46911c0,0 0.75,0 0.75,0.75c0,0.75 -0.75,0.75 -0.75,0.75c-1.12117,-0.00338 -2.16514,0.22051 -3.262,0.43998l-0.37436,0.01456c0,0 -0.75,0 -0.75,-0.75z" fill="#000000" stroke="none" stroke-width="0.5"/><path d="M252.37625,151.37482c0.75,0 0.75,0.75 0.75,0.75c0,0.5 0,1.77273 0,2.27273c0,0 0,0.75 -0.75,0.75c-0.75,0 -0.75,-0.75 -0.75,-0.75c0,-0.5 0,-1 0,-1.5v-0.77273c0,0 0,-0.75 0.75,-0.75z" fill="#000000" stroke="none" stroke-width="0.5"/><path d="M231.62625,221.89755c0,-0.41421 0.33579,-0.75 0.75,-0.75c0.41421,0 0.75,0.33579 0.75,0.75c0,0.41421 -0.33579,0.75 -0.75,0.75c-0.41421,0 -0.75,-0.33579 -0.75,-0.75z" fill="#000000" stroke="none" stroke-width="0.5"/></g></g></svg>