<svg version="1.1" xmlns="http://www.w3.org/2000/svg" xmlns:xlink="http://www.w3.org/1999/xlink" width="100.03433" height="45.50454" viewBox="0,0,100.03433,45.50454"><defs><radialGradient cx="241.19022" cy="165.65109" r="65.66667" gradientUnits="userSpaceOnUse" id="color-1"><stop offset="0" stop-color="#29ffff"/><stop offset="1" stop-color="#29ffff" stop-opacity="0"/></radialGradient><linearGradient x1="239.02355" y1="157.98443" x2="239.02355" y2="202.01558" gradientUnits="userSpaceOnUse" id="color-2"><stop offset="0" stop-color="#23b1c9"/><stop offset="1" stop-color="#2d9bd5"/></linearGradient><linearGradient x1="268.37162" y1="158.54906" x2="268.37162" y2="201.97551" gradientUnits="userSpaceOnUse" id="color-3"><stop offset="0" stop-color="#23b1c9"/><stop offset="1" stop-color="#2d9bd5"/></linearGradient><linearGradient x1="270.71342" y1="159.23212" x2="270.71342" y2="200.70597" gradientUnits="userSpaceOnUse" id="color-4"><stop offset="0" stop-color="#23b1c9"/><stop offset="1" stop-color="#2d9bd5"/></linearGradient><linearGradient x1="272.85845" y1="160.67452" x2="272.85845" y2="201.17208" gradientUnits="userSpaceOnUse" id="color-5"><stop offset="0" stop-color="#23b1c9"/><stop offset="1" stop-color="#2d9bd5"/></linearGradient><linearGradient x1="211.49525" y1="158.76427" x2="211.49525" y2="200.68382" gradientUnits="userSpaceOnUse" id="color-6"><stop offset="0" stop-color="#23b1c9"/><stop offset="1" stop-color="#2d9bd5"/></linearGradient><linearGradient x1="208.45802" y1="159.24216" x2="208.45802" y2="200.60754" gradientUnits="userSpaceOnUse" id="color-7"><stop offset="0" stop-color="#23b1c9"/><stop offset="1" stop-color="#2d9bd5"/></linearGradient><linearGradient x1="206.31299" y1="160.57608" x2="206.31299" y2="201.07364" gradientUnits="userSpaceOnUse" id="color-8"><stop offset="0" stop-color="#23b1c9"/><stop offset="1" stop-color="#2d9bd5"/></linearGradient><linearGradient x1="239.9275" y1="172.29478" x2="239.9275" y2="172.83286" gradientUnits="userSpaceOnUse" id="color-9"><stop offset="0" stop-color="#23b1c9"/><stop offset="1" stop-color="#2d9bd5"/></linearGradient><linearGradient x1="239.90992" y1="158.03011" x2="239.90992" y2="159.27892" gradientUnits="userSpaceOnUse" id="color-10"><stop offset="0" stop-color="#23b1c9"/><stop offset="1" stop-color="#2d9bd5"/></linearGradient><linearGradient x1="243.60915" y1="165.23119" x2="243.60915" y2="189.22941" gradientUnits="userSpaceOnUse" id="color-11"><stop offset="0" stop-color="#23b1c9"/><stop offset="1" stop-color="#2d9bd5"/></linearGradient></defs><g transform="translate(-190.09488,-157.73443)"><g data-paper-data="{&quot;isPaintingLayer&quot;:true}" fill-rule="nonzero" stroke-width="0.5" stroke-linejoin="miter" stroke-miterlimit="10" stroke-dasharray="" stroke-dashoffset="0" style="mix-blend-mode: normal"><path d="" fill="none" stroke="#000000" stroke-linecap="butt"/><g><path d="M286.85689,197.81776c0,9.48089 -7.4245,-25.5 -47.83333,-25.5c-40.40883,0 -47.83333,37.64756 -47.83333,28.16667c0,-9.48089 8.4245,-42.5 48.83333,-42.5c40.40883,0 46.83333,30.35245 46.83333,39.83334z" fill="url(#color-1)" stroke="url(#color-2)" stroke-linecap="butt"/><path d="M247.25351,172.77552l-0.08828,-14.22646l11.19149,2.62304l31.22129,40.80342c0,0 -11.63428,-14.5621 -18.73521,-19.46108c-3.04332,-2.09961 -7.6769,-5.29758 -12.1903,-7.01637c-5.8768,-2.238 -11.39899,-2.72254 -11.39899,-2.72254z" fill="none" stroke="url(#color-3)" stroke-linecap="butt"/><path d="M253.02244,172.69924l0.67106,-13.46712l12.71018,4.46715c0,0 9.61618,6.50939 12.37527,11.15036c4.05964,6.82859 9.62543,25.85634 9.62543,25.85634c0,0 -10.39599,-12.86604 -16.60904,-17.78401c-5.49167,-4.34696 -18.7729,-10.22272 -18.7729,-10.22272z" fill="none" stroke="url(#color-4)" stroke-linecap="butt"/><path d="M260.63548,173.05686l-3.66803,-12.38234c0,0 6.18302,1.36417 7.72256,2.81947c1.73389,1.63902 5.74697,3.16636 5.74697,3.16636l18.31248,34.51172c0,0 -7.63522,-9.26276 -12.20622,-13.83397c-4.79005,-4.79027 -15.90774,-14.28124 -15.90774,-14.28124z" fill="none" stroke="url(#color-5)" stroke-linecap="butt"/><path d="M190.89515,200.68382l29.91956,-39.61016l11.28064,-2.30938l-0.17742,13.91281c0,0 -3.09997,-0.00911 -7.05123,1.33865c-5.2421,1.78806 -12.06504,5.30473 -15.94144,7.9512c-6.87513,4.69374 -18.0301,18.71688 -18.0301,18.71688z" data-paper-data="{&quot;index&quot;:null}" fill="none" stroke="url(#color-6)" stroke-linecap="butt"/><path d="M207.37609,182.82353c-6.21305,4.91797 -16.60905,17.78401 -16.60905,17.78401c0,0 6.10818,-18.37689 10.16782,-25.20548c2.75909,-4.64097 12.04984,-11.15036 12.04984,-11.15036l13.14409,-5.00955l0.0202,13.35864c0,0 -13.28123,5.87577 -18.7729,10.22272z" data-paper-data="{&quot;index&quot;:null}" fill="none" stroke="url(#color-7)" stroke-linecap="butt"/><path d="M202.62821,187.23967c-4.57101,4.57121 -12.20622,13.83398 -12.20622,13.83398l18.63791,-33.53543c0,0 3.68764,-2.50364 5.42153,-4.14265c1.53954,-1.4553 7.72256,-2.81948 7.72256,-2.81948l-3.66803,12.38234c0,0 -11.11769,9.49097 -15.90774,14.28124z" data-paper-data="{&quot;index&quot;:null}" fill="none" stroke="url(#color-8)" stroke-linecap="butt"/><path d="M232.15438,172.83286c0,0 4.54869,-0.53694 6.99794,-0.53808c2.707,-0.00125 8.54829,0.53087 8.54829,0.53087" fill="none" stroke="url(#color-9)" stroke-linecap="round"/><path d="M226.13804,159.10064c0,0 9.23375,-1.09961 13.81703,-1.06995c4.59794,0.02976 13.72673,1.24823 13.72673,1.24823" fill="none" stroke="url(#color-10)" stroke-linecap="round"/><path d="M208.31036,182.18748c0,0 11.25838,-10.002 15.53276,-13.15588c3.32734,-2.45511 12.98616,-3.75815 15.57487,-3.79839c2.67373,-0.04156 9.9107,0.5434 13.35786,3.18407c1.71636,1.3148 6.46293,3.66855 12.65849,8.75636c7.09229,5.8242 13.47362,12.05578 13.47362,12.05578" fill="none" stroke="url(#color-11)" stroke-linecap="round"/></g></g></g></svg>