<svg version="1.1" xmlns="http://www.w3.org/2000/svg" xmlns:xlink="http://www.w3.org/1999/xlink" width="100.03434" height="45.50455" viewBox="0,0,100.03434,45.50455"><defs><radialGradient cx="241.19022" cy="165.65111" r="65.66667" gradientUnits="userSpaceOnUse" id="color-1"><stop offset="0" stop-color="#29ffff"/><stop offset="1" stop-color="#29ffff" stop-opacity="0"/></radialGradient><linearGradient x1="239.02355" y1="157.98442" x2="239.02355" y2="202.0156" gradientUnits="userSpaceOnUse" id="color-2"><stop offset="0" stop-color="#23b1c9"/><stop offset="1" stop-color="#2d9bd5"/></linearGradient><radialGradient cx="241.19022" cy="165.65111" r="65.66667" gradientUnits="userSpaceOnUse" id="color-3"><stop offset="0" stop-color="#29ffff"/><stop offset="1" stop-color="#29ffff" stop-opacity="0"/></radialGradient><linearGradient x1="239.02355" y1="157.98442" x2="239.02355" y2="202.0156" gradientUnits="userSpaceOnUse" id="color-4"><stop offset="0" stop-color="#23b1c9"/><stop offset="1" stop-color="#2d9bd5"/></linearGradient><linearGradient x1="268.37162" y1="158.54906" x2="268.37162" y2="201.97552" gradientUnits="userSpaceOnUse" id="color-5"><stop offset="0" stop-color="#23b1c9"/><stop offset="1" stop-color="#2d9bd5"/></linearGradient><linearGradient x1="268.37162" y1="158.54906" x2="268.37162" y2="201.97552" gradientUnits="userSpaceOnUse" id="color-6"><stop offset="0" stop-color="#23b1c9"/><stop offset="1" stop-color="#2d9bd5"/></linearGradient><linearGradient x1="268.37162" y1="158.54906" x2="268.37162" y2="201.97552" gradientUnits="userSpaceOnUse" id="color-7"><stop offset="0" stop-color="#23b1c9"/><stop offset="1" stop-color="#2d9bd5"/></linearGradient><linearGradient x1="268.37162" y1="158.54906" x2="268.37162" y2="201.97552" gradientUnits="userSpaceOnUse" id="color-8"><stop offset="0" stop-color="#23b1c9"/><stop offset="1" stop-color="#2d9bd5"/></linearGradient><linearGradient x1="268.37162" y1="158.54906" x2="268.37162" y2="201.97552" gradientUnits="userSpaceOnUse" id="color-9"><stop offset="0" stop-color="#23b1c9"/><stop offset="1" stop-color="#2d9bd5"/></linearGradient><linearGradient x1="268.37162" y1="158.54906" x2="268.37162" y2="201.97552" gradientUnits="userSpaceOnUse" id="color-10"><stop offset="0" stop-color="#23b1c9"/><stop offset="1" stop-color="#2d9bd5"/></linearGradient><linearGradient x1="268.37162" y1="158.54906" x2="268.37162" y2="201.97552" gradientUnits="userSpaceOnUse" id="color-11"><stop offset="0" stop-color="#23b1c9"/><stop offset="1" stop-color="#2d9bd5"/></linearGradient><linearGradient x1="268.37162" y1="158.54906" x2="268.37162" y2="201.97552" gradientUnits="userSpaceOnUse" id="color-12"><stop offset="0" stop-color="#23b1c9"/><stop offset="1" stop-color="#2d9bd5"/></linearGradient><linearGradient x1="270.71342" y1="159.23214" x2="270.71342" y2="200.70599" gradientUnits="userSpaceOnUse" id="color-13"><stop offset="0" stop-color="#23b1c9"/><stop offset="1" stop-color="#2d9bd5"/></linearGradient><linearGradient x1="270.71342" y1="159.23214" x2="270.71342" y2="200.70599" gradientUnits="userSpaceOnUse" id="color-14"><stop offset="0" stop-color="#23b1c9"/><stop offset="1" stop-color="#2d9bd5"/></linearGradient><linearGradient x1="270.71342" y1="159.23214" x2="270.71342" y2="200.70599" gradientUnits="userSpaceOnUse" id="color-15"><stop offset="0" stop-color="#23b1c9"/><stop offset="1" stop-color="#2d9bd5"/></linearGradient><linearGradient x1="270.71342" y1="159.23214" x2="270.71342" y2="200.70599" gradientUnits="userSpaceOnUse" id="color-16"><stop offset="0" stop-color="#23b1c9"/><stop offset="1" stop-color="#2d9bd5"/></linearGradient><linearGradient x1="270.71342" y1="159.23214" x2="270.71342" y2="200.70599" gradientUnits="userSpaceOnUse" id="color-17"><stop offset="0" stop-color="#23b1c9"/><stop offset="1" stop-color="#2d9bd5"/></linearGradient><linearGradient x1="270.71342" y1="159.23214" x2="270.71342" y2="200.70599" gradientUnits="userSpaceOnUse" id="color-18"><stop offset="0" stop-color="#23b1c9"/><stop offset="1" stop-color="#2d9bd5"/></linearGradient><linearGradient x1="270.71342" y1="159.23214" x2="270.71342" y2="200.70599" gradientUnits="userSpaceOnUse" id="color-19"><stop offset="0" stop-color="#23b1c9"/><stop offset="1" stop-color="#2d9bd5"/></linearGradient><linearGradient x1="272.85845" y1="160.67452" x2="272.85845" y2="201.1721" gradientUnits="userSpaceOnUse" id="color-20"><stop offset="0" stop-color="#23b1c9"/><stop offset="1" stop-color="#2d9bd5"/></linearGradient><linearGradient x1="272.85845" y1="160.67452" x2="272.85845" y2="201.1721" gradientUnits="userSpaceOnUse" id="color-21"><stop offset="0" stop-color="#23b1c9"/><stop offset="1" stop-color="#2d9bd5"/></linearGradient><linearGradient x1="272.85845" y1="160.67452" x2="272.85845" y2="201.1721" gradientUnits="userSpaceOnUse" id="color-22"><stop offset="0" stop-color="#23b1c9"/><stop offset="1" stop-color="#2d9bd5"/></linearGradient><linearGradient x1="272.85845" y1="160.67452" x2="272.85845" y2="201.1721" gradientUnits="userSpaceOnUse" id="color-23"><stop offset="0" stop-color="#23b1c9"/><stop offset="1" stop-color="#2d9bd5"/></linearGradient><linearGradient x1="272.85845" y1="160.67452" x2="272.85845" y2="201.1721" gradientUnits="userSpaceOnUse" id="color-24"><stop offset="0" stop-color="#23b1c9"/><stop offset="1" stop-color="#2d9bd5"/></linearGradient><linearGradient x1="272.85845" y1="160.67452" x2="272.85845" y2="201.1721" gradientUnits="userSpaceOnUse" id="color-25"><stop offset="0" stop-color="#23b1c9"/><stop offset="1" stop-color="#2d9bd5"/></linearGradient><linearGradient x1="272.85845" y1="160.67452" x2="272.85845" y2="201.1721" gradientUnits="userSpaceOnUse" id="color-26"><stop offset="0" stop-color="#23b1c9"/><stop offset="1" stop-color="#2d9bd5"/></linearGradient><linearGradient x1="211.49525" y1="158.76429" x2="211.49525" y2="200.68384" gradientUnits="userSpaceOnUse" id="color-27"><stop offset="0" stop-color="#23b1c9"/><stop offset="1" stop-color="#2d9bd5"/></linearGradient><linearGradient x1="211.49525" y1="158.76429" x2="211.49525" y2="200.68384" gradientUnits="userSpaceOnUse" id="color-28"><stop offset="0" stop-color="#23b1c9"/><stop offset="1" stop-color="#2d9bd5"/></linearGradient><linearGradient x1="211.49525" y1="158.76429" x2="211.49525" y2="200.68384" gradientUnits="userSpaceOnUse" id="color-29"><stop offset="0" stop-color="#23b1c9"/><stop offset="1" stop-color="#2d9bd5"/></linearGradient><linearGradient x1="211.49525" y1="158.76429" x2="211.49525" y2="200.68384" gradientUnits="userSpaceOnUse" id="color-30"><stop offset="0" stop-color="#23b1c9"/><stop offset="1" stop-color="#2d9bd5"/></linearGradient><linearGradient x1="211.49525" y1="158.76429" x2="211.49525" y2="200.68384" gradientUnits="userSpaceOnUse" id="color-31"><stop offset="0" stop-color="#23b1c9"/><stop offset="1" stop-color="#2d9bd5"/></linearGradient><linearGradient x1="211.49525" y1="158.76429" x2="211.49525" y2="200.68384" gradientUnits="userSpaceOnUse" id="color-32"><stop offset="0" stop-color="#23b1c9"/><stop offset="1" stop-color="#2d9bd5"/></linearGradient><linearGradient x1="211.49525" y1="158.76429" x2="211.49525" y2="200.68384" gradientUnits="userSpaceOnUse" id="color-33"><stop offset="0" stop-color="#23b1c9"/><stop offset="1" stop-color="#2d9bd5"/></linearGradient><linearGradient x1="211.49525" y1="158.76429" x2="211.49525" y2="200.68384" gradientUnits="userSpaceOnUse" id="color-34"><stop offset="0" stop-color="#23b1c9"/><stop offset="1" stop-color="#2d9bd5"/></linearGradient><linearGradient x1="208.45802" y1="159.24217" x2="208.45802" y2="200.60756" gradientUnits="userSpaceOnUse" id="color-35"><stop offset="0" stop-color="#23b1c9"/><stop offset="1" stop-color="#2d9bd5"/></linearGradient><linearGradient x1="208.45802" y1="159.24217" x2="208.45802" y2="200.60756" gradientUnits="userSpaceOnUse" id="color-36"><stop offset="0" stop-color="#23b1c9"/><stop offset="1" stop-color="#2d9bd5"/></linearGradient><linearGradient x1="208.45802" y1="159.24217" x2="208.45802" y2="200.60756" gradientUnits="userSpaceOnUse" id="color-37"><stop offset="0" stop-color="#23b1c9"/><stop offset="1" stop-color="#2d9bd5"/></linearGradient><linearGradient x1="206.31299" y1="160.57608" x2="206.31299" y2="201.07365" gradientUnits="userSpaceOnUse" id="color-38"><stop offset="0" stop-color="#23b1c9"/><stop offset="1" stop-color="#2d9bd5"/></linearGradient><linearGradient x1="206.31299" y1="160.57608" x2="206.31299" y2="201.07365" gradientUnits="userSpaceOnUse" id="color-39"><stop offset="0" stop-color="#23b1c9"/><stop offset="1" stop-color="#2d9bd5"/></linearGradient><linearGradient x1="239.9275" y1="172.2948" x2="239.9275" y2="172.83288" gradientUnits="userSpaceOnUse" id="color-40"><stop offset="0" stop-color="#23b1c9"/><stop offset="1" stop-color="#2d9bd5"/></linearGradient><linearGradient x1="239.9275" y1="172.2948" x2="239.9275" y2="172.83288" gradientUnits="userSpaceOnUse" id="color-41"><stop offset="0" stop-color="#23b1c9"/><stop offset="1" stop-color="#2d9bd5"/></linearGradient><linearGradient x1="239.90992" y1="158.03013" x2="239.90992" y2="159.27892" gradientUnits="userSpaceOnUse" id="color-42"><stop offset="0" stop-color="#23b1c9"/><stop offset="1" stop-color="#2d9bd5"/></linearGradient><linearGradient x1="239.90992" y1="158.03013" x2="239.90992" y2="159.27892" gradientUnits="userSpaceOnUse" id="color-43"><stop offset="0" stop-color="#23b1c9"/><stop offset="1" stop-color="#2d9bd5"/></linearGradient><linearGradient x1="239.90992" y1="158.03013" x2="239.90992" y2="159.27892" gradientUnits="userSpaceOnUse" id="color-44"><stop offset="0" stop-color="#23b1c9"/><stop offset="1" stop-color="#2d9bd5"/></linearGradient><linearGradient x1="239.90992" y1="158.03013" x2="239.90992" y2="159.27892" gradientUnits="userSpaceOnUse" id="color-45"><stop offset="0" stop-color="#23b1c9"/><stop offset="1" stop-color="#2d9bd5"/></linearGradient><linearGradient x1="243.60915" y1="165.23119" x2="243.60915" y2="189.22943" gradientUnits="userSpaceOnUse" id="color-46"><stop offset="0" stop-color="#23b1c9"/><stop offset="1" stop-color="#2d9bd5"/></linearGradient><linearGradient x1="243.60915" y1="165.23119" x2="243.60915" y2="189.22943" gradientUnits="userSpaceOnUse" id="color-47"><stop offset="0" stop-color="#23b1c9"/><stop offset="1" stop-color="#2d9bd5"/></linearGradient><linearGradient x1="243.60915" y1="165.23119" x2="243.60915" y2="189.22943" gradientUnits="userSpaceOnUse" id="color-48"><stop offset="0" stop-color="#23b1c9"/><stop offset="1" stop-color="#2d9bd5"/></linearGradient><linearGradient x1="243.60915" y1="165.23119" x2="243.60915" y2="189.22943" gradientUnits="userSpaceOnUse" id="color-49"><stop offset="0" stop-color="#23b1c9"/><stop offset="1" stop-color="#2d9bd5"/></linearGradient><linearGradient x1="243.60915" y1="165.23119" x2="243.60915" y2="189.22943" gradientUnits="userSpaceOnUse" id="color-50"><stop offset="0" stop-color="#23b1c9"/><stop offset="1" stop-color="#2d9bd5"/></linearGradient></defs><g transform="translate(-190.09488,-157.73445)"><g data-paper-data="{&quot;isPaintingLayer&quot;:true}" fill-rule="nonzero" stroke-width="0.5" stroke-linejoin="miter" stroke-miterlimit="10" stroke-dasharray="" stroke-dashoffset="0" style="mix-blend-mode: normal"><path d="" fill="#165e76" stroke="none" stroke-linecap="butt"/><path d="" fill="#165e76" stroke="none" stroke-linecap="butt"/><path d="" fill="#165e76" stroke="none" stroke-linecap="butt"/><path d="" fill="#165e76" stroke="none" stroke-linecap="butt"/><g><g><path d="M286.85689,197.81779c0,2.83667 -0.66465,1.6931 -2.67856,-1.30288c0.1336,-0.17582 0.21954,-0.38609 0.21337,-0.6076c0.01793,-0.06426 0.02751,-0.132 0.02751,-0.20197c0,-0.29442 -0.16965,-0.54922 -0.41653,-0.67197c-0.05073,-0.45848 -0.21905,-0.99963 -0.46766,-1.52012c0.22348,-0.53342 0.37867,-1.24543 0.44049,-1.85804c0.34578,-0.02275 0.43898,-0.63202 -0.06734,-2.07055c-0.03564,-0.10125 -0.11381,-0.24271 -0.21869,-0.39559c-0.19538,-0.90159 -1.55019,-1.93415 -2.73174,-2.01878c-0.50433,-0.03613 -0.9771,0.10045 -1.31466,0.49363l0.1565,0.4586c0.04154,0.29772 1.71496,0.6927 1.97004,0.82037c0.46779,0.23414 0.42038,1.42391 0.90032,1.50748c0.05198,0.08437 0.10458,0.16505 0.15746,0.24181c-0.18866,0.31875 -0.35278,0.75217 -0.49579,1.19379c-0.37268,-0.30225 -0.77721,-0.46978 -1.18085,-0.41189c-0.12733,-0.23271 -0.37443,-0.39052 -0.6584,-0.39052c-0.08655,0 -0.16968,0.01466 -0.24703,0.04164c-1.54936,-1.91189 -3.43261,-3.988 -5.71044,-6.0397c0.1301,-0.62801 0.30205,-1.21926 0.51133,-1.84638c0,0 0.23717,-0.71151 -0.47434,-0.94868c-0.71151,-0.23717 -0.94868,0.47434 -0.94868,0.47434c-0.13639,0.40959 -0.25828,0.8081 -0.36483,1.20972c-2.49884,-2.10068 -5.42913,-4.13907 -8.85746,-5.9082c-0.00302,-0.32563 -0.05189,-0.68936 -0.13856,-1.05764c0.9257,-0.59287 1.78802,-1.56956 2.10721,-2.45733c0.32438,-0.08264 0.56427,-0.37672 0.56427,-0.72682c0,-0.41421 -0.33579,-0.75 -0.75,-0.75c-0.10237,0 -0.19995,0.02051 -0.28885,0.05764c-0.1033,-0.01291 -0.18341,0.0625 -0.25211,0.17287c-0.1088,0.11327 -0.18237,0.26063 -0.20308,0.42447c-0.08292,0.17486 -0.16932,0.29966 -0.29381,0.21763c-3.31322,-2.18314 -7.4439,-3.68516 -10.30748,-5.82178c-0.60152,-0.44882 -2.97437,-1.26372 -3.22255,-0.02282c-0.20449,1.02245 1.16299,0.91343 1.75021,1.22153c1.07035,0.5616 0.52795,1.98681 1.38657,2.50199c0.84655,0.50793 1.54847,-1.09847 2.03432,-0.84814c1.30474,0.67224 2.6749,1.18996 3.98723,1.88608c0.68007,0.36074 0.68191,1.23005 0.64833,2.1254c-0.34705,0.38679 -0.68602,0.90584 -0.82319,1.32065c-5.86058,-2.40571 -12.97024,-3.99221 -21.57585,-3.99221c-0.1461,0 -0.29178,0.00049 -0.43702,0.00147c-0.36034,-0.57801 -0.74071,-1.1273 -1.19027,-1.67818c0,0 -0.47493,-0.58047 -1.0554,-0.10554c-0.58047,0.47493 -0.10554,1.0554 -0.10554,1.0554c0.20903,0.25476 0.40041,0.50835 0.58082,0.76491c-1.66248,0.05781 -3.26648,0.18051 -4.81395,0.36166c0.00487,-0.03903 0.00746,-0.0805 0.00746,-0.12455c0,-0.75 -0.75,-0.75 -0.75,-0.75c-0.39693,0 -0.80104,0.25057 -1.18326,0.16676c0.02211,-0.18387 0.03986,-0.36824 0.05422,-0.54937l0.39671,-0.85953c0.0473,-0.09682 0.07435,-0.20533 0.07567,-0.32002c0.7438,-0.16335 0.91598,-0.91213 0.99499,-1.555c0.16883,-0.1015 0.32345,-0.28742 0.32345,-0.62795c0,-0.75 -0.75,-0.75 -0.75,-0.75l-0.9508,0.63207l-0.32633,-0.32633c-0.09531,-0.09531 -0.21616,-0.16509 -0.35141,-0.1982c-0.03926,-0.04028 -0.08528,-0.07723 -0.1392,-0.1079c0.05776,-0.05915 0.08876,-0.10564 0.08876,-0.10564c0.68063,-1.03502 0.8801,-1.57394 0.59185,-2.79362l-0.52882,-0.54381c0,0 -0.67082,-0.33541 -1.00623,0.33541c-0.22175,0.4435 -0.00368,0.7404 0.16958,0.89068c0.11201,0.52339 -0.09459,0.71925 -0.47445,1.27929c0,0 -0.41603,0.62404 0.20801,1.04006c0.00898,0.00599 0.01792,0.01176 0.02681,0.01732c-0.24321,0.24495 -0.20579,0.61923 -0.20579,0.61923c0.11436,1.13077 -0.03374,1.97985 -0.34478,2.71497c-0.56064,-0.34546 -0.97212,0.20318 -0.97212,0.20318c-1.09326,1.47527 -2.84105,1.40668 -3.97776,2.86616l-0.00604,0.03376l-0.0114,-0.00713l-0.42422,0.67875c-0.03157,0.04872 -0.05764,0.10132 -0.07733,0.15695c-25.97584,8.15991 -31.26953,33.75703 -31.26953,25.75141c0,-3.01699 0.85308,-8.41751 3.31843,-14.37909c2.89506,0.5294 5.56822,-2.29942 6.23454,-5.11936c0.10683,-0.06161 0.17155,-0.12633 0.17155,-0.12633l0.16404,-0.18464c1.29449,-1.96428 3.0718,-1.47365 4.69478,-3.05664c0.3131,-0.30539 0.6849,-0.58869 0.95398,-0.93229c0.28804,0.09744 0.57832,-0.0345 0.57832,-0.0345c1.70963,-0.7776 3.39237,-1.78115 4.56716,-3.24892c0.19516,-0.18098 0.35062,-0.38962 0.45548,-0.63388c0.13809,-0.21545 0.26577,-0.43991 0.38187,-0.67396l-0.22968,-0.07699c0.00044,-0.02752 0.00042,-0.05536 -0.00007,-0.08353l0.25529,0.02321l0.00617,-0.0679h0.06724v-0.77364c0,-0.41421 -0.33579,-0.75 -0.75,-0.75c-0.39392,0 -0.71691,0.30369 -0.74761,0.68971l-0.05997,0.65967c-0.05714,0.11042 -0.11852,0.21807 -0.18382,0.32305c-0.71805,0.34931 -1.40355,1.07575 -2.30072,1.30795c-0.76174,0.19715 -2.06349,0.08199 -2.70254,0.60739c-0.1026,0.08435 -0.18996,0.16646 -0.26468,0.24678c-0.00057,-0.00018 -0.00114,-0.00036 -0.00171,-0.00053c-0.07021,-0.02175 -0.14484,-0.03346 -0.2222,-0.03346c-0.21196,0 -0.40339,0.08793 -0.53979,0.2293c-0.9367,0.35638 -2.28966,1.07406 -2.66127,1.08021c-0.33538,0.00555 -0.99088,-0.03569 -1.7245,-0.05475c4.03432,-5.2409 9.64121,-10.09483 17.3282,-13.34342c0.39812,0.61678 0.85334,1.29663 0.8278,1.7796c-0.05042,0.95309 -1.38136,0.72481 -1.38136,1.56557c0,1.06868 2.00529,1.02148 2.46814,0.25007c0.52535,-0.87559 0.31603,-2.90934 -0.30632,-4.23951c2.09861,-0.7956 4.34371,-1.47423 6.74453,-2.01369c-0.07111,0.26339 -0.13043,0.53002 -0.17933,0.79775l-0.00303,0.84099c0,0 0,0.75 0.75,0.75c0.75,0 0.75,-0.75 0.75,-0.75l-0.00303,-0.70629c0.07816,-0.4327 0.20582,-0.85841 0.37137,-1.26576c0,0 0.00264,-0.00659 0.00675,-0.01874c0.8408,-0.16107 1.69984,-0.30546 2.57749,-0.4323c0.33908,1.33413 -0.10012,2.45713 1.50468,3.26011l0.48954,0.05364c0,0 0.75,0 0.75,-0.75c0,-0.75 -0.75,-0.75 -0.75,-0.75l0.06755,0.05364c-0.52104,-0.07731 -0.58917,-1.16368 -0.6841,-2.05011c1.75902,-0.21266 3.59032,-0.3561 5.49663,-0.42374c0.7111,1.05848 2.08054,2.14109 2.20941,3.19851c0.03392,0.27833 -0.15688,0.58311 -0.34843,0.89045c-0.67172,0.16435 -1.46056,0.48756 -2.07879,0.80144c-0.08908,-0.03731 -0.1869,-0.05792 -0.28952,-0.05792c-0.41421,0 -0.75,0.33579 -0.75,0.75c0,0.27527 0.14829,0.5159 0.36935,0.64636c0.29219,0.51134 1.9047,0.02877 3.03522,-0.63306c0.61733,0.057 1.16567,-0.90359 1.60075,-0.6375c1.78113,1.0893 3.17658,1.33567 5.75473,0.57383c0.30123,-0.08901 0.69163,-0.3717 0.6717,-0.73043c-0.07613,-1.37033 -4.33534,-1.26283 -5.57539,-2.33832c-0.37337,-0.32383 -1.524,-1.54486 -2.62217,-2.50586c0.18952,-0.00147 0.37975,-0.00221 0.5707,-0.00221c4.94689,0 9.38447,0.45489 13.36328,1.27069c0.53981,1.37036 1.51251,2.17997 2.77077,2.67581c0.0188,0.18992 0.06373,0.37107 0.16234,0.53465c1.04233,1.72906 2.50285,1.25309 3.60453,0.16568h0.41331c0.19593,0 0.37432,-0.07513 0.50792,-0.19816c0.44423,0.13114 0.8242,0.22767 1.07065,0.27842l0.03352,-0.00726l-0.00128,0.01155l0.79142,0.08794c0.03068,0.00382 0.06194,0.00579 0.09365,0.00579c0.27029,0 0.50719,-0.14298 0.63918,-0.35744c3.22442,1.44348 6.02025,3.17077 8.44132,5.0818c-0.89939,-0.21743 -1.77855,-0.48378 -2.54229,-0.88193c-0.48576,-0.25324 -1.91241,-0.90282 -2.36858,-0.6373c-1.73581,1.01031 -0.30353,4.64204 0.30099,6.37772c-0.05239,0.10236 -0.08194,0.21834 -0.08194,0.34122c0,0.28332 0.1571,0.52995 0.38894,0.65753l0.12768,0.44687c0.08416,0.32216 0.37716,0.5599 0.7257,0.5599c0.40418,0 0.73368,-0.31971 0.74941,-0.72003l0.06793,-1.49436l-0.10156,-0.00462c0.06444,-0.35109 0.10372,-0.70491 0.10455,-1.06129v-0.07194c0,0 0,-0.75 -0.75,-0.75c-0.09742,0 -0.18219,0.01265 -0.25595,0.03468c-0.15647,-0.57106 -0.29834,-1.1465 -0.41172,-1.73383c-0.07933,-0.41095 -0.59073,-1.11397 -0.19189,-1.24087c0.04348,-0.01383 1.87707,1.13627 1.92492,1.15416c1.28849,0.48175 3.0198,0.69725 4.39246,1.01607c0,0 0.11232,0.02592 0.25906,0.0134c1.46073,1.36079 2.76036,2.78927 3.91525,4.25502c-0.08442,0.32214 0.11501,0.62129 0.11501,0.62129c0.6569,0.98536 1.26736,2.00548 1.58972,3.16195c0.338,1.21258 -0.21482,2.45627 0.51811,3.58666c0.41876,0.64584 1.91665,1.86519 2.87929,1.45684c0.06237,0.03625 0.12553,0.0697 0.19055,0.10096c0.01453,0.03366 0.029,0.06731 0.04342,0.10094l-0.01959,0.02938l0.04497,0.02998c2.58232,6.05079 3.32828,11.70484 3.32828,14.93547z" fill="url(#color-1)" stroke="url(#color-2)" stroke-linecap="butt"/><path d="" fill="url(#color-3)" stroke="url(#color-4)" stroke-linecap="butt"/><path d="M247.18777,162.18157l-0.02254,-3.63251l6.65763,1.5604" fill="none" stroke="url(#color-5)" stroke-linecap="butt"/><path d="M259.6595,162.87472l7.56331,9.88457" fill="none" stroke="url(#color-6)" stroke-linecap="butt"/><path d="M268.47657,174.39785l6.02276,7.8712" fill="none" stroke="url(#color-7)" stroke-linecap="butt"/><path d="M281.55325,191.48788l-6.47087,-8.45684" fill="none" stroke="url(#color-8)" stroke-linecap="butt"/><path d="M283.92214,194.58382l5.65587,7.39172c0,0 -2.15119,-2.69255 -5.16813,-6.15156" fill="none" stroke="url(#color-9)" stroke-linecap="butt"/><path d="M264.39297,178.32358c2.45612,1.43517 4.71219,2.99205 6.44983,4.19086c0.73384,0.50628 1.51609,1.11576 2.32891,1.8017" fill="none" stroke="url(#color-10)" stroke-linecap="butt"/><path d="M274.46537,185.44753c1.86926,1.68798 3.84388,3.6857 5.72711,5.69835" fill="none" stroke="url(#color-11)" stroke-linecap="butt"/><path d="M260.59586,176.32085c-0.6469,-0.29959 -1.29636,-0.57637 -1.94336,-0.82276c-5.8768,-2.238 -11.39899,-2.72254 -11.39899,-2.72254v-0.00001l-0.05774,-9.30561" fill="none" stroke="url(#color-12)" stroke-linecap="butt"/><path d="M260.60047,176.3068c-4.11812,-2.07685 -7.57803,-3.60755 -7.57803,-3.60755l0.17182,-3.44806" fill="none" stroke="url(#color-13)" stroke-linecap="butt"/><path d="M253.28088,167.51276l0.38218,-7.66976" fill="none" stroke="url(#color-14)" stroke-linecap="butt"/><path d="M263.33233,162.61981l3.07134,1.07946c0,0 2.30719,1.56179 4.9856,3.70078" fill="none" stroke="url(#color-15)" stroke-linecap="butt"/><path d="M273.90651,169.5061c1.63344,1.43969 3.1865,2.97819 4.24165,4.40315" fill="none" stroke="url(#color-16)" stroke-linecap="butt"/><path d="M282.32886,182.61709c3.15375,8.10026 6.07552,18.08889 6.07552,18.08889c0,0 -1.64276,-2.03308 -4.01252,-4.7918" fill="none" stroke="url(#color-17)" stroke-linecap="butt"/><path d="M264.3953,178.28945c2.81372,1.52885 5.54925,3.1675 7.40004,4.6325c0.4545,0.35977 0.93139,0.76206 1.42496,1.19875" fill="none" stroke="url(#color-18)" stroke-linecap="butt"/><path d="M274.49468,185.28785c1.83162,1.7294 3.81213,3.80383 5.68856,5.86212" fill="none" stroke="url(#color-19)" stroke-linecap="butt"/><path d="M261.35366,173.67246c-0.45795,-0.39345 -0.71816,-0.61559 -0.71816,-0.61559h-0.00002l-0.09295,-0.31377" fill="none" stroke="url(#color-20)" stroke-linecap="butt"/><path d="M260.06849,171.14285l-2.23455,-7.54326" fill="none" stroke="url(#color-21)" stroke-linecap="butt"/><path d="M263.30246,162.64506c0.58976,0.27265 1.08081,0.55898 1.38754,0.84893c1.73389,1.63902 5.74697,3.16636 5.74697,3.16636l0.28884,0.54434" fill="none" stroke="url(#color-22)" stroke-linecap="butt"/><path d="M271.71498,169.06887l9.63721,18.1623" fill="none" stroke="url(#color-23)" stroke-linecap="butt"/><path d="M283.92115,192.07265l4.82831,9.09943c0,0 -1.8943,-2.2981 -4.36069,-5.16984" fill="none" stroke="url(#color-24)" stroke-linecap="butt"/><path d="M264.77631,176.63523c2.50216,2.18132 5.72136,5.02195 8.43364,7.52621" fill="none" stroke="url(#color-25)" stroke-linecap="butt"/><path d="M274.48337,185.34811c0.76284,0.71834 1.46083,1.39092 2.05987,1.98998c1.07713,1.07718 2.32441,2.41488 3.60184,3.83049" fill="none" stroke="url(#color-26)" stroke-linecap="butt"/><path d="M219.90246,162.28139l0.91225,-1.20772l5.38559,-1.10254" data-paper-data="{&quot;index&quot;:null}" fill="none" stroke="url(#color-27)" stroke-linecap="butt"/><path d="M227.82031,159.63947l2.8664,-0.58681" data-paper-data="{&quot;index&quot;:null}" fill="none" stroke="url(#color-28)" stroke-linecap="butt"/><path d="M232.01351,158.78103l0.08183,-0.01675l-0.00797,0.62508" data-paper-data="{&quot;index&quot;:null}" fill="none" stroke="url(#color-29)" stroke-linecap="butt"/><path d="M232.05574,161.86993l-0.13188,10.34193" data-paper-data="{&quot;index&quot;:null}" fill="none" stroke="url(#color-30)" stroke-linecap="butt"/><path d="M222.41903,174.92721c-4.77297,1.91094 -10.19821,4.78982 -13.49377,7.03975c-6.87513,4.69374 -18.0301,18.71688 -18.0301,18.71688h-0.00001l19.54221,-25.8717" data-paper-data="{&quot;index&quot;:null}" fill="none" stroke="url(#color-31)" stroke-linecap="butt"/><path d="M212.53439,172.03588l0.0683,-0.09043" data-paper-data="{&quot;index&quot;:null}" fill="none" stroke="url(#color-32)" stroke-linecap="butt"/><path d="M212.80936,171.67186l4.62554,-6.1237" data-paper-data="{&quot;index&quot;:null}" fill="none" stroke="url(#color-33)" stroke-linecap="butt"/><path d="M218.08405,164.68876l0.71948,-0.95251" data-paper-data="{&quot;index&quot;:null}" fill="none" stroke="url(#color-34)" stroke-linecap="butt"/><path d="M200.9187,175.4293c0.00539,-0.00909 0.01078,-0.01817 0.01616,-0.02722c2.75909,-4.64097 12.04984,-11.15036 12.04984,-11.15036l5.13419,-1.95677" data-paper-data="{&quot;index&quot;:null}" fill="none" stroke="url(#color-35)" stroke-linecap="butt"/><path d="M219.69943,161.69256l6.42936,-2.45039l0.01898,12.54862" data-paper-data="{&quot;index&quot;:null}" fill="none" stroke="url(#color-36)" stroke-linecap="butt"/><path d="M222.81013,174.1392c-4.30578,2.03673 -11.68504,5.71676 -15.43404,8.6843v0.00002c-6.21305,4.91797 -16.60905,17.78401 -16.60905,17.78401c0,0 2.45324,-7.38074 5.28357,-14.52532" data-paper-data="{&quot;index&quot;:null}" fill="none" stroke="url(#color-37)" stroke-linecap="butt"/><path d="M205.35823,174.1987l3.70167,-6.66047c0,0 3.68764,-2.50364 5.42153,-4.14265c0.6063,-0.57312 1.93276,-1.13211 3.31813,-1.59921" data-paper-data="{&quot;index&quot;:null}" fill="none" stroke="url(#color-38)" stroke-linecap="butt"/><path d="M219.50561,161.26841c1.48531,-0.42466 2.69838,-0.6923 2.69838,-0.6923l-3.66803,12.38234c0,0 -11.11769,9.49097 -15.90774,14.28124h-0.00001c-4.57101,4.57121 -12.20622,13.83398 -12.20622,13.83398l12.05765,-21.69548" data-paper-data="{&quot;index&quot;:null}" fill="none" stroke="url(#color-39)" stroke-linecap="butt"/><path d="M232.15438,172.83288c0,0 2.42481,-0.28623 4.68689,-0.44117" fill="none" stroke="url(#color-40)" stroke-linecap="round"/><path d="M238.57665,172.30342c0.2016,-0.00552 0.39438,-0.00854 0.57567,-0.00862c2.707,-0.00125 8.54829,0.53087 8.54829,0.53087" fill="none" stroke="url(#color-41)" stroke-linecap="round"/><path d="M226.13804,159.10064c0,0 0.10456,-0.01245 0.29695,-0.03467" fill="none" stroke="url(#color-42)" stroke-linecap="round"/><path d="M228.06542,158.88444c0.71169,-0.07671 1.57978,-0.16719 2.53346,-0.26007" fill="none" stroke="url(#color-43)" stroke-linecap="round"/><path d="M231.98376,158.49383c1.81159,-0.16483 3.78941,-0.32044 5.53454,-0.40279" fill="none" stroke="url(#color-44)" stroke-linecap="round"/><path d="M239.50364,158.03121c0.15489,-0.00127 0.30552,-0.00147 0.45143,-0.00053c4.10234,0.02655 11.81145,0.99937 13.42566,1.20878" fill="none" stroke="url(#color-45)" stroke-linecap="round"/><path d="M208.31036,182.18748c0,0 11.25838,-10.002 15.53276,-13.15588c0.99523,-0.73434 2.55692,-1.36562 4.32643,-1.89086" fill="none" stroke="url(#color-46)" stroke-linecap="round"/><path d="M229.83197,166.69095c3.79832,-0.9389 8.00715,-1.43319 9.58602,-1.45773c2.43607,-0.03787 8.66023,0.44436 12.35469,2.52764" fill="none" stroke="url(#color-47)" stroke-linecap="round"/><path d="M256.80132,170.9852c1.31925,0.82987 2.87521,1.84394 4.61624,3.09757" fill="none" stroke="url(#color-48)" stroke-linecap="round"/><path d="M264.77396,176.63714c0.21822,0.17537 0.43837,0.35418 0.66038,0.5365c2.84655,2.33759 5.57858,4.74081 7.82946,6.78041" fill="none" stroke="url(#color-49)" stroke-linecap="round"/><path d="M274.53003,185.10907c2.65298,2.4359 4.37793,4.12037 4.37793,4.12037" fill="none" stroke="url(#color-50)" stroke-linecap="round"/></g><path d="M242.42779,163.71794c0.04665,-0.01773 0.09356,-0.03522 0.14068,-0.05252c0.44406,0.16791 0.88977,0.2744 1.36576,0.31645c-0.46528,0.14976 -0.95067,0.29428 -1.39915,0.47022c-0.03046,0.03267 -0.07073,0.06315 -0.12342,0.0895c-0.07491,0.03745 -0.14146,0.04982 -0.19964,0.04642c-0.84742,0.38428 -1.49417,0.9278 -1.49417,1.91717v0.08843c0,0 0,0.375 -0.375,0.375c-0.375,0 -0.375,-0.375 -0.375,-0.375v-0.08843c0,-1.30627 0.76369,-2.00741 1.77696,-2.49695c-0.10697,-0.25215 -0.21041,-0.49035 -0.40454,-0.70751l-0.0722,-0.09012c-0.41318,0.09183 -0.81478,0.19715 -1.20943,0.30873c0.44068,-0.23048 0.83556,-0.73363 1.16536,-0.53193c0.39439,0.2412 0.76987,0.44107 1.14347,0.59782c0.01999,0.04372 0.03997,0.08792 0.06033,0.13272z" fill="#165e76" stroke="none" stroke-linecap="butt"/><path d="M234.24165,164.75802c0,0 -0.375,0 -0.375,-0.375c0,-0.375 0.375,-0.375 0.375,-0.375c0.70123,0.00038 1.36229,-0.07725 2.00272,-0.20103c0.05151,0.19141 0.17687,0.35255 0.34365,0.45099c0.04956,0.08673 0.1371,0.14487 0.25383,0.17838c-0.82618,0.19131 -1.67844,0.3212 -2.6002,0.32167z" fill="#165e76" stroke="none" stroke-linecap="butt"/><path d="M239.6846,163.6273c-0.04483,0.01317 -0.08958,0.0264 -0.13428,0.03967c0.02451,-0.01393 0.04882,-0.02796 0.07292,-0.04206c0.02053,0.0019 0.04098,0.00267 0.06136,0.00239z" fill="#165e76" stroke="none" stroke-linecap="butt"/><path d="M247.61486,163.18933l-0.17625,0.40642c-0.59601,0.3666 -0.96105,0.37464 -1.32746,0.19375c0.27438,-0.06216 0.56271,-0.13815 0.86757,-0.22824c0.22701,-0.06708 0.50465,-0.24414 0.61916,-0.48085c0.01697,0.0613 0.01697,0.10892 0.01697,0.10892z" fill="#165e76" stroke="none" stroke-linecap="butt"/><path d="M242.07504,160.49251c-0.1721,-0.14926 -0.50932,-0.48913 -0.93043,-0.90629c0.54075,0.42025 1.10566,0.86347 1.62444,1.30203c-0.27883,-0.11299 -0.51714,-0.24233 -0.69402,-0.39573z" fill="#165e76" stroke="none" stroke-linecap="butt"/><path d="M256.28975,169.01608c0.01939,0.02493 0.03505,0.0494 0.04747,0.07331c0.09902,0.04054 0.1977,0.08181 0.29597,0.12391c1.31708,0.54174 3.72432,1.25541 4.67419,2.55904c-1.87223,-0.95967 -3.76024,-1.8655 -5.37853,-2.89768c0.10433,-0.02407 0.24147,-0.01214 0.36091,0.14142z" fill="#165e76" stroke="none" stroke-linecap="butt"/><path d="M261.0135,173.036c0.44069,0.42308 0.43816,1.17846 0.4091,1.95334c-0.04384,0.04886 -0.08754,0.09982 -0.13073,0.15242c-0.06682,-0.75395 -0.16064,-1.54263 -0.27836,-2.10576z" fill="#165e76" stroke="none" stroke-linecap="butt"/><path d="M251.18145,167.85625l-0.13929,-0.11325c0,0 -0.26516,-0.26517 0,-0.53033c0.26516,-0.26516 0.53033,0 0.53033,0l-0.05087,-0.02483c0.21872,0.11155 0.4405,0.21665 0.66464,0.31677c-0.28108,0.08264 -0.49059,0.25784 -0.56339,0.56608c-0.14829,-0.06898 -0.29549,-0.14031 -0.44142,-0.21443z" fill="#165e76" stroke="none" stroke-linecap="butt"/><path d="M253.47379,171.23572c-0.26516,-0.26516 0,-0.53033 0,-0.53033l0.04421,-0.04421c0.16519,-0.16416 0.34076,-0.31653 0.52267,-0.46163c0.08233,0.26774 0.12457,0.55236 0.19295,0.8149c-0.06325,0.05748 -0.1251,0.11642 -0.18529,0.17706l-0.04421,0.04421c0,0 -0.26516,0.26516 -0.53033,0z" fill="#165e76" stroke="none" stroke-linecap="butt"/><path d="M266.69689,174.4538l-0.18388,0.13779c-0.07428,0.05304 -0.14918,0.107 -0.22466,0.16173c0.03002,-0.06771 0.05716,-0.13512 0.08121,-0.20202c0.2132,-0.05432 0.3899,-0.19997 0.48598,-0.39283c-0.00231,0.17808 -0.15865,0.29534 -0.15865,0.29534z" fill="#165e76" stroke="none" stroke-linecap="butt"/><path d="M200.11105,182.66326c0.28238,-0.5411 0.49795,-1.10933 0.63214,-1.6772c0.10685,-0.06162 0.17158,-0.12635 0.17158,-0.12635l0.16404,-0.18464c0.08069,-0.12245 0.16326,-0.23535 0.24756,-0.33982c-0.21637,0.74662 -0.66362,1.48019 -1.21532,2.328z" fill="#165e76" stroke="none" stroke-linecap="butt"/><path d="M207.02133,177.03765l-0.22638,0.05311c-0.17354,0.01827 -0.34166,0.03621 -0.50471,0.05455c0.15746,-0.14531 0.30907,-0.29539 0.43733,-0.45917c0.28804,0.09744 0.57832,-0.0345 0.57832,-0.0345c0.00019,-0.00009 0.00039,-0.00018 0.00058,-0.00027c0.03225,0.30694 -0.28515,0.38628 -0.28515,0.38628z" fill="#165e76" stroke="none" stroke-linecap="butt"/><path d="M198.78443,184.96109l-0.16593,0.20128c0,0 -0.26516,0.26516 -0.53033,0c-0.01006,-0.01006 -0.01936,-0.02012 -0.02793,-0.03017c0.46573,-0.35257 0.89183,-0.77858 1.26442,-1.25185c-0.18157,0.3614 -0.37602,0.7104 -0.54022,1.08073z" fill="#165e76" stroke="none" stroke-linecap="butt"/><path d="M223.15546,163.67573c0.17677,0.17677 0,0.35356 0,0.35356l-0.11419,0.11203c-0.11187,0.13984 -0.22374,0.27967 -0.33561,0.41951c0.01077,0.00834 0.02137,0.01665 0.03179,0.02491l-0.27168,0.28556l-0.04066,0.10487c-0.0111,-0.00898 -0.02227,-0.01796 -0.03349,-0.02692l-0.01056,0.0111c0,0 -0.0725,-0.03626 -0.1143,-0.10876c-0.28661,-0.21984 -0.60265,-0.43528 -0.91689,-0.66056c-0.56909,0.00434 -0.93437,0.14104 -1.16832,0.36164c0.01214,-0.18668 0.01338,-0.38316 0.00444,-0.58523c0.15845,-0.09622 0.34914,-0.17083 0.57908,-0.21816c-0.24406,-0.19829 -0.47384,-0.40909 -0.67245,-0.64008c-0.11024,-0.64757 -0.30813,-1.293 -0.57218,-1.81192c0.03497,-0.02283 0.08135,-0.03797 0.14288,-0.03797c0.25,0 0.25,0.25 0.25,0.25c-0.09957,0.88741 0.7072,1.60667 1.53385,2.18964c0.05015,0.01166 0.11985,0.04033 0.15951,0.1108c0.24068,0.16488 0.47819,0.31835 0.69059,0.4612c0.11785,-0.14732 0.23571,-0.29463 0.35357,-0.44196l0.15107,-0.15324c0,0 0.17678,-0.17677 0.35356,0z" fill="#165e76" stroke="none" stroke-linecap="butt"/><path d="M218.42538,168.21416c-0.1179,0 -0.23579,0 -0.35369,0h-0.04421c0,0 -0.25,0 -0.25,-0.25c0,-0.25 0.25,-0.25 0.25,-0.25c0.1179,0 0.28,0 0.3979,0c0.77827,0 0.87884,-0.63587 0.92768,-1.40203c-0.91323,-0.01459 -1.9142,-0.18172 -2.81992,-0.31106l-0.16487,-0.06809c0,0 -0.22361,-0.11181 -0.11181,-0.33541c0.11181,-0.2236 0.33541,-0.11181 0.33541,-0.11181l0.01198,0.02033c0.27526,0.03934 0.56053,0.08345 0.84973,0.1257c0.22679,0.78481 1.74864,0.76703 2.31895,0.19467c-0.02802,1.11406 0.23785,2.3877 -1.34715,2.3877z" fill="#165e76" stroke="none" stroke-linecap="butt"/><path d="M229.52611,167.43874c-0.03542,-0.03382 -0.07598,-0.06487 -0.12238,-0.09126c0.05775,-0.05914 0.08874,-0.10562 0.08874,-0.10562c0.09494,-0.14438 0.18052,-0.27911 0.25673,-0.40737c-0.03131,0.1911 -0.11347,0.39807 -0.22308,0.60425z" fill="#165e76" stroke="none" stroke-linecap="butt"/><path d="M230.93551,170.18468c0.01442,-0.00735 0.02625,-0.02735 0.03585,-0.05768c0.18548,-0.12404 0.31478,-0.3011 0.40707,-0.50347c-0.10905,0.5972 -0.3603,0.87014 -0.88733,1.05585l0.03625,-0.07854c0.04647,-0.09512 0.0734,-0.20152 0.07557,-0.31399c0.1391,-0.02928 0.25534,-0.06283 0.33259,-0.10217z" fill="#165e76" stroke="none" stroke-linecap="butt"/><path d="M228.16961,168.88642c0,0 -0.02048,-0.13312 0.06634,-0.21898c-0.17011,-0.17542 0.00399,-0.34951 0.00399,-0.34951c0.01396,-0.01392 0.03058,-0.03224 0.04945,-0.0544c0.03202,0.40604 0.02909,0.77501 -0.00381,1.1153c-0.05751,-0.21935 -0.10071,-0.39395 -0.11596,-0.49242z" fill="#165e76" stroke="none" stroke-linecap="butt"/><path d="M281.78463,187.05252c0.23212,-0.09285 0.32497,0.13927 0.32497,0.13927l0.0951,0.23993c0.01631,0.05275 0.03305,0.10508 0.05017,0.15701c-0.20111,-0.1125 -0.41211,-0.20746 -0.6255,-0.27881c-0.00941,-0.07595 0.00318,-0.19656 0.15526,-0.2574z" fill="#165e76" stroke="none" stroke-linecap="butt"/><path d="M206.34892,173.58288c0,0 0.17904,-0.04973 0.27128,0.09091c-0.21209,0.06541 -0.40274,0.1544 -0.55551,0.28001c-0.10259,0.08434 -0.18994,0.16645 -0.26466,0.24676c-0.00059,-0.00018 -0.00117,-0.00037 -0.00176,-0.00055c-0.07021,-0.02175 -0.14484,-0.03346 -0.2222,-0.03346c-0.21196,0 -0.40339,0.08793 -0.53979,0.2293c-0.9367,0.35638 -2.28966,1.07406 -2.66127,1.08021c-0.16459,0.00272 -0.40629,-0.00582 -0.69649,-0.01748c1.46904,-0.15081 3.52779,-1.55831 4.6704,-1.8757z" fill="#165e76" stroke="none" stroke-linecap="butt"/><path d="M200.04567,175.24862c0.1118,-0.22361 0.33541,-0.1118 0.33541,-0.1118c0.02676,0.01338 0.06611,0.03306 0.11016,0.05508l0.03414,-0.01745c0,0 0.17909,0 0.23411,0.15157c0.00197,0.00099 0.00389,0.00194 0.00574,0.00287c0.09364,0.0475 0.19396,0.08219 0.30006,0.10548c-0.32936,-0.01188 -0.68681,-0.02178 -1.04654,-0.02232c-0.00954,-0.04546 -0.00484,-0.09994 0.02691,-0.16343z" fill="#165e76" stroke="none" stroke-linecap="butt"/><path d="M194.77984,186.28942l-0.01311,0.00059l0.00092,0.00323l-0.44263,0.12647c-0.02345,0.00728 -0.04838,0.01121 -0.07423,0.01121c-0.13807,0 -0.25,-0.11193 -0.25,-0.25c0,-0.05719 0.0192,-0.1099 0.05152,-0.15202l0.02128,-0.02837c0.33437,0.10023 0.66699,0.15399 0.99516,0.16638c-0.10431,0.04614 -0.20125,0.08752 -0.2889,0.12252z" fill="#165e76" stroke="none" stroke-linecap="butt"/><path d="M198.28446,184.9583c-0.00158,-0.00002 -0.00317,-0.00003 -0.00476,-0.00004c0.08608,-0.07136 0.17065,-0.14522 0.25362,-0.2214c-0.01827,0.22144 -0.24885,0.22144 -0.24885,0.22144z" fill="#165e76" stroke="none" stroke-linecap="butt"/><path d="M216.5523,172.19281c0.01065,0.24977 -0.23912,0.26042 -0.23912,0.26042l-0.26695,0.01129c-0.87614,0.08539 -1.73588,0.134 -2.61316,0.14161c0.0012,0.01498 0.00094,0.02876 -0.00091,0.04122c-0.02016,0.13572 -0.23184,0.27347 -0.51884,0.40221c0.02639,0.0589 0.02639,0.11475 0.02639,0.11475c-0.01103,2.46632 -3.15286,3.75109 0.64687,2.23173c0.03965,-0.01987 0.0793,-0.03974 0.11895,-0.05961c0.03267,-0.05939 0.09502,-0.11607 0.21407,-0.11607c0.25,0 0.25,0.25 0.25,0.25l-0.1382,0.26204c-0.08,0.03992 -0.16,0.07984 -0.23999,0.11976c-0.49224,0.19696 -2.81448,1.19569 -2.96594,0.31002c-0.05695,-0.33303 1.01876,-0.9181 1.21591,-1.12665c0.32846,-0.34745 0.39465,-1.31213 0.39823,-1.80057c-0.19669,0.06899 -0.39932,0.13292 -0.58402,0.1895c0.00583,-0.00724 0.01166,-0.01448 0.01746,-0.02174c0.13301,-0.12334 0.24758,-0.25954 0.34026,-0.4111c0.12354,-0.01223 0.24093,-0.02662 0.34514,-0.04638c0.03345,-0.01884 0.07631,-0.03091 0.13125,-0.03091c0.00106,0 0.00212,0 0.00318,0.00001c0.23316,-0.06525 0.35765,-0.17576 0.25366,-0.38609c-0.06151,-0.12442 -0.15285,-0.25557 -0.25726,-0.39113c0.00708,-0.01404 0.01413,-0.02812 0.02113,-0.04224l-0.07329,-0.02457c-0.03429,-0.04339 -0.06963,-0.08719 -0.10546,-0.13132l0.20429,0.01857l0.00617,-0.0679h0.06724v-0.36608c0.13503,0.19034 0.27944,0.39655 0.39534,0.58361c0.94536,-0.00053 1.86603,-0.05011 2.80664,-0.14145l0.28052,-0.01206c0,0 0.24977,-0.01065 0.26042,0.23912z" fill="#165e76" stroke="none" stroke-linecap="butt"/><path d="M209.82817,170.08265l-0.03791,-0.26517c0,0 -0.03536,-0.24749 0.21213,-0.28284c0.24749,-0.03536 0.28284,0.21213 0.28284,0.21213l0.03896,0.27291c0.12801,1.16252 0.46622,0.84176 1.44659,0.34596c0,0 0.1284,-0.0642 0.23925,0.002c-0.37125,0.0241 -0.66887,0.31834 -0.69828,0.68812l-0.00616,0.06771c-0.80105,0.30371 -1.33737,0.20903 -1.47742,-1.04082z" fill="#165e76" stroke="none" stroke-linecap="butt"/><path d="M206.72422,177.09439c0,0 -0.1861,0.05317 -0.27759,-0.0978c0.10052,-0.09919 0.19587,-0.2018 0.28095,-0.31044c0.28804,0.09744 0.57832,-0.0345 0.57832,-0.0345c0.37661,-0.17129 0.75191,-0.35355 1.12077,-0.54932c-0.4676,0.42665 -1.00491,0.79277 -1.70244,0.99207z" fill="#165e76" stroke="none" stroke-linecap="butt"/><path d="M203.63465,182.02719c-0.17678,-0.17678 0,-0.35355 0,-0.35355l0.10002,-0.09857c0.79272,-0.95013 0.93907,-2.26337 1.47151,-3.48426c0.19054,-0.13447 0.38001,-0.28961 0.56741,-0.4724c0.20136,-0.1964 0.427,-0.38367 0.63398,-0.58372c-0.01283,0.07852 -0.06185,0.13572 -0.06185,0.13572c-1.28408,1.49114 -1.1272,3.40358 -2.22694,4.72475l-0.13058,0.13203c0,0 -0.17678,0.17678 -0.35355,0z" fill="#165e76" stroke="none" stroke-linecap="butt"/><path d="M213.30466,168.341c-0.25,0 -0.25,-0.25 -0.25,-0.25l0.00746,-0.09907c0.34431,-1.30516 1.97307,-1.88197 2.97979,-2.60259c0,0 0.20343,-0.14531 0.34874,0.05812c0.14531,0.20343 -0.05812,0.34874 -0.05812,0.34874c-0.84614,0.6032 -2.52877,1.20802 -2.78534,2.31699l0.00746,-0.0222c0,0 0,0.25 -0.25,0.25z" fill="#165e76" stroke="none" stroke-linecap="butt"/><path d="M221.29678,168.78936c-0.23717,-0.07906 -0.15811,-0.31623 -0.15811,-0.31623l0.08088,-0.19303c1.07403,-1.32791 0.94402,-1.96713 0.94402,-3.60977c0,0 0,-0.25 0.25,-0.25c0.25,0 0.25,0.25 0.25,0.25c0,1.71215 0.06587,2.52604 -1.05456,3.92333l0.00401,0.03758c0,0 -0.07906,0.23717 -0.31623,0.15811z" fill="#165e76" stroke="none" stroke-linecap="butt"/><path d="M241.96775,170.61225c-0.17678,-0.17678 0,-0.35355 0,-0.35355l0.09095,-0.08991c1.44949,-1.2415 -1.02406,-0.95445 -1.73712,-2.09392c-0.19811,-0.31658 -0.04129,-1.18229 -0.04129,-1.55969c0,0 0,-0.25 0.25,-0.25c0.25,0 0.25,0.25 0.25,0.25c0,1.95809 3.36663,2.52106 1.6038,4.03323l-0.06279,0.06383c0,0 -0.17678,0.17678 -0.35355,0z" fill="#165e76" stroke="none" stroke-linecap="butt"/><path d="M235.36108,164.0554c0,0 0,0.25 -0.25,0.25c-0.25,0 -0.25,-0.25 -0.25,-0.25c0.01773,-2.00233 -0.35314,-2.51676 -1.5201,-2.75348c0.00327,-0.03252 0.00498,-0.06667 0.00498,-0.10254c0,-0.16425 -0.03597,-0.29253 -0.09216,-0.39272c1.53775,0.30976 2.09095,0.93861 2.10727,3.24874z" fill="#165e76" stroke="none" stroke-linecap="butt"/><path d="M226.43266,164.55154c-0.1118,-0.22361 0.1118,-0.33541 0.1118,-0.33541l-0.03494,0.07337c0.10126,-0.20234 0.90266,-1.24977 0.8171,-1.33413c-0.30831,-0.30399 -0.99717,-0.43018 -1.14462,-0.88101c-0.06094,-0.18632 -0.03099,-0.41552 0.04803,-0.66769c0.06799,0.14972 0.19315,0.30522 0.42354,0.37037c-0.0062,0.07223 -0.00176,0.13476 0.01574,0.18538c0.08945,0.25874 0.91668,0.43486 1.08456,0.73323c0.34174,0.60737 -0.53996,1.30264 -0.79713,1.81747l-0.18867,0.15024c0,0 -0.22361,0.1118 -0.33541,-0.1118z" fill="#165e76" stroke="none" stroke-linecap="butt"/><path d="M236.62404,169.60616c0.21437,0.12862 0.08575,0.343 0.08575,0.343l-0.10607,0.17535c-0.05179,0.10192 -0.07562,0.19889 -0.07771,0.29147c-0.06014,0.02879 -0.12201,0.06795 -0.18512,0.11958c-0.13932,0.11399 -0.21784,0.23405 -0.25672,0.35071c-0.11394,-0.25021 -0.13123,-0.56967 0.07234,-0.98536l0.12454,-0.20899c0,0 0.12862,-0.21437 0.343,-0.08575z" fill="#165e76" stroke="none" stroke-linecap="butt"/><path d="M236.64568,172.21438c-0.01715,-0.04573 -0.02201,-0.08587 -0.01874,-0.12087c0.06897,0.09321 0.13616,0.18662 0.20192,0.28045c-0.0669,-0.00989 -0.14152,-0.04849 -0.18318,-0.15958z" fill="#165e76" stroke="none" stroke-linecap="butt"/><path d="M248.05258,162.52154c0.1118,-0.22361 0.33541,-0.1118 0.33541,-0.1118l0.07687,0.03843c0.2849,0.14823 0.42209,0.37232 0.70549,0.50702c0.57574,0.38575 2.31154,1.16292 2.50385,1.90356c0.08405,0.32372 -0.53317,0.63342 -0.53723,0.88626c-0.00835,0.51959 0.27642,1.29879 0.34672,1.85377c0,0 0.03101,0.24807 -0.21706,0.27908c-0.24807,0.03101 -0.27908,-0.21706 -0.27908,-0.21706c-0.06593,-0.53389 -0.38804,-1.48669 -0.34509,-1.98965c0.02569,-0.30082 0.72712,-0.49189 0.53892,-0.72798c-0.49441,-0.62019 -1.59857,-1.1162 -2.26199,-1.55552c-0.27463,-0.14261 -0.40483,-0.36363 -0.67814,-0.49226l-0.07687,-0.03843c0,0 -0.22361,-0.1118 -0.1118,-0.33541z" fill="#165e76" stroke="none" stroke-linecap="butt"/><path d="M246.89523,165.64719c-0.2466,0.0411 -0.2877,-0.2055 -0.2877,-0.2055l-0.03441,-0.21124c-0.1173,-0.47068 -0.21028,-0.94756 -0.34371,-1.41385c0,0 -0.06868,-0.24038 0.1717,-0.30906c0.24038,-0.06868 0.30906,0.1717 0.30906,0.1717c0.13464,0.47192 0.22939,0.95405 0.3481,1.43028l0.04245,0.24997c0,0 0.0411,0.2466 -0.2055,0.2877z" fill="#165e76" stroke="none" stroke-linecap="butt"/><path d="M266.3261,166.85313c0.00739,-0.10261 0.04459,-0.19956 0.12884,-0.28181c-0.05027,0.08842 -0.09301,0.18259 -0.12884,0.28181z" fill="#165e76" stroke="none" stroke-linecap="butt"/><path d="M277.79582,180.58867c-0.23717,0.07906 -0.31623,-0.15811 -0.31623,-0.15811l-0.07182,-0.21681c-0.7529,-1.89542 -1.86916,-0.86121 -3.80086,-0.69902c0.551,0.98039 1.15114,2.10345 1.1956,2.88869c-0.06277,-0.04386 -0.1388,-0.08237 -0.23063,-0.11298c-0.09612,-0.03204 -0.18358,-0.04677 -0.26297,-0.04827c-0.16404,-1.14919 -1.6986,-3.34418 -2.01573,-4.14977c-0.0526,-0.15783 -0.1052,-0.31566 -0.1578,-0.47349l-0.14663,-0.36412c0,0 -0.09332,-0.23193 0.13861,-0.32525c0.23193,-0.09332 0.32525,0.13861 0.32525,0.13861l0.15209,0.3783c0.05281,0.1584 0.10562,0.3168 0.15843,0.47519c0.11345,0.28778 0.32993,0.68167 0.58097,1.12728c0.04906,-0.02063 0.0918,-0.02314 0.0918,-0.02314c2.18486,-0.1264 3.52453,-1.25914 4.43612,1.00227l0.08192,0.2444c0,0 0.07906,0.23717 -0.15811,0.31623z" fill="#165e76" stroke="none" stroke-linecap="butt"/><path d="M273.16568,184.01782c0.0331,-0.04965 0.07574,-0.10461 0.12502,-0.16339c-0.04141,0.15158 -0.08065,0.30339 -0.11765,0.45621c-0.11399,-0.13289 -0.00736,-0.29283 -0.00736,-0.29283z" fill="#165e76" stroke="none" stroke-linecap="butt"/></g></g></g></svg>