<svg version="1.1" xmlns="http://www.w3.org/2000/svg" xmlns:xlink="http://www.w3.org/1999/xlink" width="66.92977" height="62.43895" viewBox="0,0,66.92977,62.43895"><g transform="translate(-198.96704,-147.56518)"><g data-paper-data="{&quot;isPaintingLayer&quot;:true}" fill-rule="nonzero" stroke="none" stroke-linecap="butt" stroke-linejoin="miter" stroke-miterlimit="10" stroke-dasharray="" stroke-dashoffset="0" style="mix-blend-mode: normal"><path d="M251.94826,176.61002c-0.00489,-0.002 -0.00978,-0.00398 -0.01468,-0.00596c0.29916,-0.12185 0.5877,-0.26202 0.8589,-0.42279c0.0702,0.05127 0.12425,0.08222 0.15379,0.08362c1.61954,0.07657 2.32102,-1.75636 1.61307,-2.6374c0.81342,-0.31188 1.65695,-0.56024 2.52436,-0.73929c0.07471,0.1036 0.16965,0.15922 0.16965,0.15922c0.01698,0.00988 0.03395,0.01964 0.05091,0.02929l-0.01399,0.00839l-0.32978,0.32978l-0.14473,0.24122l-0.18308,0.21359l-0.05886,0.11773l-0.01707,0.00975l-0.01219,0.04876l-0.02181,0.04361l-0.01937,0.08719l-0.00693,0.01154l0.0024,0.00881l-0.06333,0.28499l-0.09752,0.3901v0.04876l-0.0109,0.04907l0.0109,0.01636v0.35607l-0.06498,0.71478l-0.32481,0.5197l-0.16333,0.25666l-0.77485,-0.19371h-1.09307l-0.05582,-0.0124l-0.3901,-0.09752h-0.04876l-0.04907,-0.0109l-0.01636,0.0109h-0.21134l-0.01636,-0.0109l-0.04907,0.0109h-0.04876l-0.3901,0.09752l-0.16188,0.03597z" fill="#084500" stroke-width="0"/><path d="M260.68843,175.69536c-0.28627,0.05359 -0.57541,0.03009 -0.86636,-0.01901l0.0031,-0.03409l0.19944,-0.03324l0.23974,-0.10423l0.25519,-0.05671l0.10964,-0.05482c0.01911,0.09848 0.03871,0.19981 0.05926,0.3021z" fill="#084500" stroke-width="0"/><path d="M249.09012,170.49966l0.02211,0.05159c-0.02322,-0.02204 -0.04641,-0.04401 -0.06957,-0.0659c0.01567,0.00516 0.03149,0.00993 0.04746,0.01431z" fill="#084500" stroke-width="0"/><path d="M252.61582,168.08295c0.0011,-0.00927 0.00221,-0.01853 0.00332,-0.0278c0.0032,0.00096 0.0064,0.00191 0.0096,0.00286c-0.00436,0.00827 -0.00867,0.01659 -0.01292,0.02493z" fill="#084500" stroke-width="0"/><path d="M246.58155,173.70767c0.48835,-0.78103 0.82585,-1.61035 1.13773,-2.44702c0.16032,0.01973 0.29998,-0.0452 0.29998,-0.0452c3.56764,-1.66046 0.36085,1.48818 0.13328,2.74659c-0.11411,0.63101 0.07363,1.4662 0.44489,2.20413l-0.39082,-0.08685l-0.01133,0.00755l-0.01218,-0.00609l-0.3277,0.11704l-0.87009,-0.21752h-0.08469l-0.53383,-0.15252l-0.0676,-0.00225c0.21712,-0.75474 0.39774,-1.57951 0.28236,-2.11785z" fill="#084500" stroke-width="0"/><path d="M240.8356,183.80811c0.05226,-0.0282 0.09747,-0.06436 0.13495,-0.10617l0.17398,-0.18517h0.00001c-0.01746,0.56017 0.18279,1.02946 0.43876,1.24637c-0.01965,0.04072 -0.03882,0.08174 -0.05752,0.123l-0.10388,-0.0622l-0.5028,0.83958c-0.00556,0.00892 -0.01083,0.018 -0.0158,0.02723l-0.1798,0.21543c-0.07982,0.09126 -0.12338,0.20854 -0.12368,0.32847c-0.14854,-0.09702 -0.34417,-0.11175 -0.51128,-0.02157l-0.88005,0.47487l0.01692,0.03137c-0.11945,0.07587 -0.26926,0.16489 -0.43878,0.26019c-0.1046,0.04752 -0.20615,0.10434 -0.30642,0.16747c-0.88562,0.47098 -2.07248,0.99461 -2.45529,0.85924c-0.05203,-0.11826 -0.09882,-0.24914 -0.13991,-0.39328c0.1653,-0.50003 1.08114,-1.20552 1.26034,-1.29856c0,0 0.44003,-0.23744 0.20259,-0.67746c-0.14361,-0.26614 -0.36132,-0.28446 -0.51096,-0.25737c0.33478,-0.66502 0.60689,-1.36301 0.75874,-1.98077l0.15566,0.03891h0.44584l0.11286,0.04031l0.3073,0.14556l0.54964,0.10993l0.17411,-0.00829l0.1691,0.04227h0.54964l0.06831,-0.01708l0.05303,0.02652l0.08856,-0.03163c0.15256,0.13278 0.37734,0.16454 0.56584,0.06282z" fill="#084500" stroke-width="0"/><path d="M236.0098,178.93985c0.31391,-0.12942 0.28027,-0.50253 0.28027,-0.50253c-0.00072,-0.00775 -0.00145,-0.01548 -0.00219,-0.02321l0.154,0.0616l0.11928,0.01627l0.10622,0.05665l0.22026,0.05507l-0.01274,0.04672l-0.24905,0.16604l0.03448,0.62072l-0.04617,0.16927c-0.19234,-0.18557 -0.39698,-0.39835 -0.60436,-0.66658z" fill="#084500" stroke-width="0"/><path d="M258.25787,204.34175c-0.07396,0.02733 -0.31943,0.07295 -0.61843,0.1194v-0.12836l-0.06823,-0.27291l-0.02158,-0.28048l-0.10993,-0.32978l-0.48422,-0.76092l-0.19985,-0.03997l-0.10112,-0.17696l-0.875,-0.21875h-0.3475l-0.18501,-0.37002c0.17856,0.18395 0.38157,0.33142 0.62985,0.38798c1.64473,0.37472 3.672,-1.1906 4.60203,-2.32105c0.42638,-0.94153 0.35927,-1.59709 -0.01508,-2.05618c0.04216,-0.12403 0.03066,-0.23748 0.03066,-0.23748c-0.06763,-0.66726 -0.04559,-1.58514 -0.23804,-2.21576c-0.03135,-0.10272 -0.64394,-1.05366 -0.75259,-1.50453c0.00368,-0.00199 0.00736,-0.00399 0.01103,-0.006l0.0426,0.09941l0.07284,0.09584l0.03505,0.11517l0.32978,0.54964l0.23819,0.23819l0.21242,0.26144l0.43971,0.32978l0.1466,0.06173l0.12077,0.10352l0.07872,0.03936l0.31347,0.2351l0.21285,0.08962l0.18722,0.13522l0.52983,0.21193l0.55706,0.23874l0.27189,0.20392l0.01927,0.00811l0.01356,0.01592l0.17608,0.12577c0.00085,0.00554 0.00184,0.01082 0.00298,0.01583c0.13679,0.60506 0.59938,0.88179 1.17009,0.96366l0.17027,0.21284l0.07838,0.05972l0.0507,0.0845l0.91162,0.91162l-0.01525,0.04574l-0.00869,0.11296l-0.29665,0.37082l-0.11718,0.11718l-0.21613,0.08645l-0.0602,0.04348l-0.07249,0.01611l-0.65957,0.32978l-0.21359,0.18308l-0.24122,0.14473l-0.20498,0.20498l-0.0855,0.00475l-0.22576,0.26338l-0.26338,0.22576l-0.00484,0.08717l-0.09299,0.10848l-0.10993,0.21986l-0.01611,0.07249l-0.04348,0.0602l-0.11531,0.28828c-2.12278,-0.93483 -2.83704,1.37707 -4.57571,2.01953z" fill="#084500" stroke-width="0"/><path d="M226.75216,207.90541c-0.0558,-0.27429 -0.10454,-0.54836 -0.14632,-0.82203c1.99963,-0.03205 2.4153,-3.16621 3.00142,-4.59349c0.10011,-0.24377 0.50604,-0.14749 0.75758,-0.22607c2.20205,-0.68788 4.24955,-2.72626 6.46321,-2.44691c0.34828,0.04395 -0.03576,0.71508 0.06597,1.05105c0.2598,0.85805 0.23258,2.46985 0.49792,3.76038c-0.63914,0.95047 -1.12719,2.07849 -1.57373,2.96773c-0.19941,0.39711 -0.66885,1.10728 -0.9715,1.7882l-0.37058,0.29527c-0.01629,0.01263 -0.03198,0.0264 -0.04696,0.04133c-0.026,0.0259 -0.04855,0.05393 -0.06766,0.08356c0.19287,-1.3703 1.06398,-2.82453 1.12864,-4.46353c0.136,-3.44784 -3.69468,-1.26394 -4.79622,-0.04117c-0.08963,1.10964 0.43016,2.29336 0.33706,3.33733c-0.03881,0.43515 -1.15464,0.828 -1.30059,1.19817c-0.01728,0.04381 -0.02848,0.10095 -0.03441,0.1689c-0.17808,-0.13345 -0.35634,-0.26664 -0.54318,-0.38727c-0.09427,-0.06088 -0.20885,-0.12467 -0.33643,-0.18721c-0.79019,-0.54343 -1.43876,-0.87833 -2.03302,-1.3743c-0.01061,-0.04986 -0.02102,-0.09984 -0.0312,-0.14991z" fill="#084500" stroke-width="0"/><path d="M235.22305,201.53496c0.06399,0 0.12516,-0.01202 0.18139,-0.03392c0.02865,0.02165 0.05794,0.04101 0.08793,0.05788c0.12608,0.07096 0.25558,0.1044 0.38528,0.10681c0.13924,0.16942 0.35765,0.30347 0.62418,0.39784l0.04531,0.22655c-0.64292,-0.11049 -1.11932,-0.3955 -1.50477,-0.7888c0.05604,0.02173 0.11697,0.03364 0.18068,0.03364z" fill="#084500" stroke-width="0"/><path d="M210.23144,182.31081c-0.79251,-0.07254 -1.54996,-0.83607 -2.1776,0.2354c-0.46824,0.79937 -0.23493,2.00541 0.42054,2.69513c-0.17397,0.25539 -0.41243,0.51216 -0.65928,0.76213c-0.41728,0.02698 -0.80891,-0.00821 -1.18957,-0.04423c-0.13801,-1.14159 -0.62124,-6.77155 -0.38395,-7.06159c0.60308,-0.73716 1.26428,-0.66873 1.95144,-0.55035c0.313,0.29361 0.73402,0.47343 1.19703,0.47343c0.5386,0 1.02038,-0.24332 1.3414,-0.62603c-0.09898,0.85259 -0.45971,4.11981 -0.5,4.11611z" fill="#084500" stroke-width="0"/><path d="M220.6869,189.4532c0.25525,-0.07962 0.40219,2.18179 0.54441,2.76551c0.06168,0.25316 0.16197,0.49146 0.28813,0.71869c-0.0216,0.03211 -0.04332,0.06414 -0.06514,0.09609c-1.20403,0.19993 -2.34701,2.16615 -3.27429,2.18415c-0.42948,0.00834 -1.15696,0.54125 -1.28209,0.13032c-0.21989,-0.72213 -0.2206,-1.28005 -0.19165,-1.7493c0.16483,-0.26692 0.25994,-0.58145 0.25994,-0.9182c0,-0.40846 -0.13994,-0.78424 -0.37449,-1.082c1.33494,-0.98549 2.5637,-2.06987 4.09518,-2.14527z" fill="#084500" stroke-width="0"/><path d="M228.1782,162.80952l0.03027,0.06153c0.02693,0.05635 0.06423,0.10734 0.1099,0.15011c-0.00314,0.07617 0.00478,0.14456 0.02714,0.20237c0.3963,1.02465 1.14727,1.23665 1.95294,1.30146c0.39669,0.17745 0.8099,0.28464 1.2293,0.29431l-0.03784,0.06934l0.08729,0.04764c0.01152,0.05371 0.0318,0.10474 0.0595,0.1512c-0.01445,0.03394 -0.02534,0.07002 -0.03214,0.10787c-0.0353,0.19645 0.04934,0.3867 0.20163,0.49553l0.55895,0.41743c0.33672,0.32351 0.81506,0.66671 1.33441,0.95691c-0.54836,0.03917 -1.13567,0.16198 -1.17316,0.47993c-0.08803,0.74661 2.04834,1.79066 2.59927,1.24825c0.10943,-0.10773 0.14936,-0.34775 0.14363,-0.65425l0.2982,0.16274c0.72067,0.3877 1.11123,0.5636 1.58376,0.57654c-0.06843,0.09965 -0.12005,0.21718 -0.1502,0.35349c-0.00933,-0.00223 -0.01878,-0.00421 -0.02834,-0.00593c-0.06855,-0.01232 -0.13635,-0.01003 -0.2002,0.00464l-0.56875,0.11689l0.00045,0.00224l-0.00642,-0.00097c-0.94287,0.21809 -2.06467,0.49448 -3.18214,0.57157v-0.21478l-0.05225,-0.209v-0.21543l-0.10993,-0.43971l-0.0595,-0.11156l0.01423,-0.08018l-0.21093,-0.28864l-0.16823,-0.31544l-0.07839,-0.02205l-0.0746,-0.10208l-0.65023,-0.54186l-0.63538,-0.54461l-0.33696,-0.4212l-0.21445,-0.16339l-0.18135,-0.19948l-0.32978,-0.21986l-0.10414,-0.03719l-0.08396,-0.07197l-0.43971,-0.21986l-0.25519,-0.05671l-0.23974,-0.10423l-0.49193,-0.08199l-0.70248,-0.26343l-0.53198,-0.21279l-0.11928,-0.01627l-0.10622,-0.05665l-0.36167,-0.09042l0.00077,-0.00128l0.05596,-0.03971l1.19411,-1.39313l0.28603,-0.21452l0.1404,-0.1728c0.0031,0.0038 0.00621,0.00759 0.00933,0.01139z" fill="#084500" stroke-width="0"/><path d="M254.32272,158.00841c-0.43934,-0.56572 -0.54883,-1.91323 -0.28928,-3.00752c0.05798,0.00839 0.11669,0.01161 0.17636,0.00835c0.11989,-0.00656 0.25137,-0.0892 0.39143,-0.20217c0.42802,0.05814 0.83737,0.15423 1.21756,0.29469c0.05493,0.14727 0.10921,0.29821 0.16279,0.44787c-0.00875,0.06756 -0.01751,0.13513 -0.02627,0.2027l-0.15636,0.03965l0.18915,0.74588c0.06788,0.26767 0.33989,0.42963 0.60756,0.36176c0.23824,-0.06041 0.39273,-0.28252 0.37598,-0.51937l-0.02632,-0.51595c0.00558,-0.0408 0.01117,-0.08161 0.01675,-0.12241c0.13012,0.10616 0.25271,0.22186 0.36691,0.34761c0.1475,0.71359 0.34185,1.40522 0.66561,1.91491h-0.12441l-0.12338,-0.06169l-0.17273,0.06169h-0.18342l-0.09544,0.09959l-0.39779,0.14207l-0.23913,0.15942l-0.00086,0.00043l-0.87511,0.10939l-0.10007,0.03874h-0.10731l-0.51775,0.12944c-0.22341,-0.23048 -0.54686,-0.43352 -0.73446,-0.67509z" fill="#084500" stroke-width="0"/><path d="M230.36001,150.32355c0.45452,-0.00857 0.7259,-0.44088 0.94893,-0.94632c0.0957,0.11289 0.25042,0.21214 0.47807,0.29223c0.69103,0.24312 1.92771,-0.44281 2.84091,-1.24041c0.00297,0.17658 0.0996,0.34617 0.26686,0.43435c0.1957,0.10317 0.42871,0.06359 0.57985,-0.08182l0.72812,-0.66835l-0.05067,-0.0552c0.20538,-0.14347 0.38938,-0.29836 0.58699,-0.49285c0.1166,0.009 0.23333,0.01954 0.35017,0.03153c0.56308,0.62945 1.34638,1.02008 2.0805,1.40782c0,0 0.4423,0.23317 0.67547,-0.20913c0.01538,-0.02917 0.02781,-0.05742 0.03763,-0.08476c0.14881,0.23456 0.29106,0.47165 0.42679,0.71104c-0.64819,-0.00317 -1.27974,0.34691 -1.81909,0.88864l-0.07427,-0.03713l-0.00975,-0.01707l-0.04876,-0.01219l-0.04361,-0.02181l-0.39253,-0.08723l-0.3901,-0.09752h-0.04876l-0.04907,-0.0109l-0.01636,0.0109h-0.2156l-0.33494,0.08373l-0.1291,-0.03521l-0.19282,0.11569l-0.21815,0.05454l-0.06639,0.11619l-0.29604,0.17763l-0.09732,0.09732l-0.1856,0.12373l-0.49338,0.54272l-0.06714,0.03837l-0.01224,0.04895l-0.03394,0.03734l0.00532,0.07715l-0.17789,0.71157v0.10373l-0.0124,0.05582l-0.09752,0.3901v0.04876l-0.0109,0.04907l0.0109,0.01636v1.3193l-0.01109,0.04434l-0.00694,0.01389l-0.07789,0.07789l-0.06724,0.01681l-0.15873,-0.01035l-0.93445,0.1699c-1.03411,-0.43406 -2.03098,-0.9267 -3.12744,-0.97158c-1.15167,-0.04714 -2.2743,1.10907 -3.44578,0.28379c-0.41376,-0.29148 0.10914,-1.01993 0.02049,-1.51824c0,0 -0.00108,-0.00576 -0.00362,-0.0159c0.3935,-0.21583 0.80298,-0.48145 1.19396,-0.75347c0.00438,0.00909 0.00903,0.01804 0.01396,0.02687c-0.07139,0.22611 0.02672,0.47784 0.24388,0.59232c0.1292,0.06811 0.27465,0.074 0.40209,0.02831c0.18205,0.49005 0.62668,1.00892 1.04598,1.23215l0.09724,0.05126c0,0 0.4423,0.23317 0.67547,-0.20913c0.23317,-0.4423 -0.20913,-0.67547 -0.20913,-0.67547l-0.09724,-0.05126c-0.62625,-0.32627 -0.59589,-0.59138 -0.4411,-1.05221l0.15522,0.07247l0.2927,-0.62691c0.09842,-0.20726 0.04169,-0.45122 -0.12784,-0.59512c0.00686,-0.0091 0.01368,-0.01819 0.02047,-0.02726c0.03791,0.0074 0.07621,0.011 0.11483,0.01027z" fill="#084500" stroke-width="0"/><path d="M227.66859,155.70351c0.02312,-0.00018 0.04613,-0.00036 0.06901,-0.00061c-0.47256,0.852 -0.6775,1.22437 -0.06901,0.00061z" fill="#084500" stroke-width="0"/><path d="M229.01,151.5824c0.0177,0.01168 0.0359,0.02313 0.05455,0.03434c-0.01994,0.01052 -0.03974,0.02139 -0.05938,0.03259c0.00183,-0.02235 0.00344,-0.04467 0.00483,-0.06693z" fill="#084500" stroke-width="0"/><path d="M218.46303,173.82607c0.09254,-0.03779 2.21375,-1.44158 2.22289,-1.24138c0.02941,0.64372 0.38841,2.66674 1.14875,3.13793c0.24247,0.15027 0.45562,0.22167 0.64561,0.23479v1.88724l-0.05768,0.23071v0.04808c-0.18848,0.16407 -0.32877,0.40915 -0.41185,0.73056c-0.40062,0.45197 -0.28011,0.90559 -0.58747,1.18177c-0.12272,-0.09156 -0.33639,-0.18139 -0.58887,0.00981c-0.07641,0.05787 -0.12707,0.11928 -0.15907,0.18077c-0.51185,-0.0757 -1.36534,-0.3834 -0.90758,-0.91596c0.68751,-0.79987 1.64935,-0.40983 1.22241,-1.83771c-0.33801,-1.13048 -2.01949,-2.52712 -2.73209,-3.47267c0,0 -0.02418,-0.03192 -0.06788,-0.07085c0.08026,-0.02812 0.17026,-0.0612 0.27282,-0.10308z" fill="#084500" stroke-width="0"/><path d="M205.54954,162.67672c-0.49381,0.05672 -1.39893,0.69591 -1.47701,0.20503c-0.1429,-0.89842 0.94112,-2.11107 0.91921,-2.81586c-0.04941,-1.59025 -4.15782,-1.74476 -5.25704,-1.3634c-0.44302,0.22403 -0.66028,-0.23711 -0.76766,-0.91876c1.77821,-0.68696 3.65692,-1.05385 5.54631,-1.09802c-0.00061,0.01606 -0.00092,0.0322 -0.00092,0.0484c0,0.69036 0.55964,1.25 1.25,1.25h1.5911c0.2447,0.02385 1.402,0.14822 1.51428,0.38247c1.10005,2.29498 -0.54447,3.78399 -2.28188,4.52179c-0.22628,-0.17415 -0.52565,-0.27033 -1.0364,-0.21166z" fill="#084500" stroke-width="0"/><path d="M218.015,173.54118c-0.09806,0.49029 -0.58835,0.39223 -0.58835,0.39223l-0.65567,-0.14376c-0.60698,-0.52352 -2.63828,0.46605 -3.82908,0.00779c0,0 -0.46424,-0.1857 -0.27854,-0.64993c0.1857,-0.46424 0.64993,-0.27854 0.64993,-0.27854c1.44928,0.61043 2.67868,-0.79587 3.86586,0.00779l0.44361,0.07609c0,0 0.49029,0.09806 0.39223,0.58835z" fill="#8d0000" stroke-width="0.5"/><path d="M220.76225,167.3971c0,-0.27614 0.22386,-0.5 0.5,-0.5c0.27614,0 0.5,0.22386 0.5,0.5c0,0.27614 -0.22386,0.5 -0.5,0.5c-0.27614,0 -0.5,-0.22386 -0.5,-0.5z" fill="#8d0000" stroke-width="0.5"/><path d="M225.9395,169.70557c0,0 0,0.5 -0.5,0.5c-0.5,0 -0.5,-0.5 -0.5,-0.5c0.00648,-0.32705 -0.08627,-1.11 -0.20694,-1.80125l0.2069,0.04598l0.3901,0.09752h0.04876l0.04907,0.0109l0.01636,-0.0109h0.32995l0.01862,0.00466c0.09878,0.61458 0.14116,1.2227 0.14719,1.65309z" fill="#8d0000" stroke-width="0.5"/><path d="M213.99313,178.31005c0.24277,-0.43711 0.67988,-0.19434 0.67988,-0.19434l0.52938,0.33492c0.60104,0.74641 0.94375,1.1942 1.73102,0.52557c0,0 0.38775,-0.31568 0.70342,0.07206c0.31568,0.38775 -0.07206,0.70342 -0.07206,0.70342c-1.29632,1.02399 -2.18515,0.48986 -3.13788,-0.66969l-0.23943,-0.09208c0,0 -0.43711,-0.24277 -0.19434,-0.67988z" fill="#8d0000" stroke-width="0.5"/><path d="M222.03174,177.13102c0,0 -0.5,0 -0.5,-0.5c0,-0.5 0.5,-0.5 0.5,-0.5c0.15398,0.01009 0.30333,-0.0053 0.44854,-0.03772v0.93263c-0.17678,0.05996 -0.33257,0.10088 -0.44854,0.10509z" fill="#8d0000" stroke-width="0.5"/><path d="M235.55532,174.16512c0,0 0.28328,0.06537 0.36798,0.31243l-0.54563,-0.23384l-0.22609,-0.18841c0.14946,0.04384 0.28607,0.08268 0.40375,0.10982z" fill="#8d0000" stroke-width="0.5"/><path d="M244.65306,195.3425c-0.35355,-0.35355 0,-0.70711 0,-0.70711l0.27779,-0.22061c1.4125,-0.565 3.06185,-1.72169 4.48825,-2.00544c0.72749,-0.14472 1.90005,0.35487 2.33282,-0.35866c0,0 0.3,-0.4 0.7,-0.1c0.4,0.3 0.1,0.7 0.1,0.7c-0.91085,1.09863 -1.75629,0.50134 -2.94371,0.74062c-1.35755,0.27356 -2.94351,1.40698 -4.30596,1.95196l0.05793,-0.00076c0,0 -0.35355,0.35355 -0.70711,0z" fill="#8d0000" stroke-width="0.5"/><path d="M234.64948,173.22326c0,-0.27614 0.42906,-0.5 0.95833,-0.5c0.52927,0 0.95833,0.22386 0.95833,0.5c0,0.00962 -0.00052,0.01918 -0.00155,0.02867c-0.04631,0.01562 -0.09315,0.03156 -0.14053,0.04782l-0.04481,0.08799l-0.06327,-0.02476l-0.50109,0.34858c-0.0667,0.00767 -0.13599,0.01171 -0.2071,0.01171c-0.52927,0 -0.95833,-0.22386 -0.95833,-0.5z" fill="#8d0000" stroke-width="0.5"/><path d="M207.57093,174.76225c0,-0.5 0.5,-0.5 0.5,-0.5h0.54964c0,0 0.5,0 0.5,0.5c0,0.02932 -0.00172,0.05692 -0.00496,0.0829c-0.44911,-0.07759 -0.97699,-0.05404 -1.53293,0.04196c-0.00758,-0.0377 -0.01175,-0.0792 -0.01175,-0.12486z" fill="#8d0000" stroke-width="0.5"/><path d="M249.02859,173.76156c0.12127,-0.48507 0.60634,-0.3638 0.60634,-0.3638l0.73447,0.31765c0.7,1.0734 1.19249,1.88323 1.71679,3.07155l-0.48768,0.16256l-0.10627,0.06762l-0.12296,0.02732l-0.21448,0.10724c-0.50494,-1.1512 -0.90866,-1.83704 -1.61744,-2.8816l-0.14495,0.09779c0,0 -0.48507,-0.12127 -0.3638,-0.60634z" fill="#8d0000" stroke-width="0.5"/><path d="M244.73713,193.01024c0,0.5 -0.5,0.5 -0.5,0.5c-0.18321,0 -0.91606,0 -1.09928,0c0,0 -0.5,0 -0.5,-0.5c0,-0.5 0.5,-0.5 0.5,-0.5c0.18321,0 0.36643,0 0.54964,0h0.54964c0,0 0.5,0 0.5,0.5z" fill="#8d0000" stroke-width="0.5"/><path d="M221.37218,182.84726c-0.5,0 -0.5,-0.5 -0.5,-0.5v-0.54964c0,0 0,-0.5 0.5,-0.5c0.5,0 0.5,0.5 0.5,0.5v0.54964c0,0 0,0.5 -0.5,0.5z" fill="#8d0000" stroke-width="0.5"/><path d="M248.79235,165.93341l0.5816,0.40412c0,0 0.02087,0.01566 0.04951,0.04459c-0.1043,-0.00162 -0.21428,0.00959 -0.33174,0.03296l-0.04523,-0.15831l-0.55929,0.1598c-0.0438,-0.00518 -0.08973,-0.00899 -0.13787,-0.01146l-0.4086,-0.4086c0.26028,-0.04874 0.54147,-0.07283 0.85162,-0.06311z" fill="#8d0000" stroke-width="0.5"/><path d="M243.47949,153.15709c-0.49029,-0.09806 -0.39223,-0.58835 -0.39223,-0.58835c0.01085,-0.05124 0.02263,-0.1013 0.03528,-0.15016c0.00844,-0.00376 0.01694,-0.00761 0.02547,-0.01153c0.31642,0.12762 0.61574,0.27532 0.89214,0.44491c-0.05468,0.13608 -0.20373,0.37652 -0.56067,0.30513z" fill="#8d0000" stroke-width="0.5"/><path d="M230.59421,185.91553c-0.49029,0.09806 -0.58835,-0.39223 -0.58835,-0.39223l-0.11246,-0.56328c-0.09797,-0.69218 -0.2576,-1.47876 0.03637,-2.15727c0.25732,-0.59392 1.21961,-0.98798 0.7972,-1.29751c0,0 -0.25725,-0.42875 0.17149,-0.686c0.42874,-0.25725 0.68599,0.1715 0.68599,0.1715c0.56236,1.29639 -0.94618,2.1325 -0.70541,3.80044l0.10739,0.536c0,0 0.09805,0.49029 -0.39223,0.58835z" fill="#8d0000" stroke-width="0.5"/><path d="M240.05611,174.76975c-0.44721,-0.22361 -0.22361,-0.67082 -0.22361,-0.67082l0.05714,0.00375c0,-0.76726 0.115,-1.5226 -0.18409,-2.23271c0,0 -0.1857,-0.46424 0.27854,-0.64993c0.46424,-0.1857 0.64993,0.27854 0.64993,0.27854c0.33328,0.86604 0.25562,1.68276 0.25562,2.6041l-0.16271,0.44346c0,0 -0.22361,0.44721 -0.67082,0.22361z" fill="#8d0000" stroke-width="0.5"/><path d="M232.08478,178.82957c0,-0.24673 0.12175,-0.37171 0.2451,-0.43502c0.19283,-0.48235 0.53972,-1.33105 0.64513,-1.35802c0.13319,-0.03408 0.30125,0.04577 0.4547,0.17456c-0.00632,-0.02731 -0.01345,-0.05373 -0.0216,-0.07895l0.15385,0.07427l0.20222,0.15369l0.84361,0.36155c0.01102,0.87017 -0.48309,1.61089 -1.38388,1.14467c-0.02246,0.04857 -0.04467,0.09806 -0.06496,0.14895l-0.57417,0.3143c0,0 -0.5,0 -0.5,-0.5z" fill="#8d0000" stroke-width="0.5"/></g></g></svg>