<svg version="1.1" xmlns="http://www.w3.org/2000/svg" xmlns:xlink="http://www.w3.org/1999/xlink" width="50.39007" height="50.61868" viewBox="0,0,50.39007,50.61868"><g transform="translate(-214.80498,-154.69067)"><g data-paper-data="{&quot;isPaintingLayer&quot;:true}" fill-rule="nonzero" stroke-linejoin="miter" stroke-miterlimit="10" stroke-dasharray="" stroke-dashoffset="0" style="mix-blend-mode: normal"><path d="M255.22189,160.80249c10.38611,8.23524 11.99066,23.50624 3.58385,34.10874c-8.40681,10.6025 -23.64149,12.52153 -34.0276,4.28629c-10.38611,-8.23524 -11.99066,-23.50624 -3.58385,-34.10874c8.40681,-10.6025 23.64149,-12.52153 34.0276,-4.28629z" fill="#052c00" stroke="#000000" stroke-width="2" stroke-linecap="butt"/><path d="M254.54924,162.27571c9.19365,7.28973 10.38678,21.09394 2.66494,30.83257c-7.72185,9.73864 -21.43458,11.72387 -30.62823,4.43414c-9.19365,-7.28973 -10.38678,-21.09394 -2.66493,-30.83258c7.72185,-9.73864 21.43457,-11.72386 30.62822,-4.43413z" fill="#084500" stroke="none" stroke-width="0" stroke-linecap="butt"/><path d="M246.52577,164.7787c5.10422,4.04718 5.82988,11.63136 1.62081,16.93975c-4.20907,5.30839 -11.75898,6.33079 -16.86319,2.28362c-5.10422,-4.04718 -5.82988,-11.63136 -1.62081,-16.93975c4.20907,-5.30839 11.75898,-6.33079 16.86319,-2.28362z" fill="#000000" stroke="none" stroke-width="0" stroke-linecap="butt"/><path d="M240.51139,174.27223c-0.23965,6.46631 -1.06042,11.68507 -1.83322,11.65643c-0.7728,-0.02864 -1.205,-5.29385 -0.96535,-11.76015c0.23965,-6.46631 1.06043,-11.68507 1.83323,-11.65643c0.7728,0.02864 1.205,5.29385 0.96535,11.76016z" fill="#8b0000" stroke="none" stroke-width="0" stroke-linecap="butt"/><path d="M246.50264,164.94558c5.08266,4.03009 5.8326,11.54776 1.67504,16.79119c-4.15756,5.24343 -11.64825,6.22703 -16.73091,2.19695c-5.08266,-4.03009 -5.8326,-11.54776 -1.67504,-16.79119c4.15756,-5.24343 11.64825,-6.22703 16.73091,-2.19695z" fill="none" stroke="#a30000" stroke-width="0.25" stroke-linecap="butt"/><path d="M233.90896,180.87737c0.24123,0.0656 0.17563,0.30684 0.17563,0.30684l-0.06915,0.25432c-0.09118,0.33318 -0.17844,0.67876 -0.23198,1.02017c0.03256,0.00822 0.0672,0.0249 0.10322,0.05346c0.19589,0.15533 0.04057,0.35122 0.04057,0.35122l-0.283,0.11304c-1.2538,-0.34919 -1.57926,1.4113 -0.3528,1.90256c0,0 0.23103,0.09553 0.13549,0.32656c-0.09553,0.23103 -0.32656,0.1355 -0.32656,0.1355c-1.57086,-0.66515 -1.28117,-2.87196 0.18181,-2.90974c0.0005,-0.00555 0.00096,-0.00865 0.00096,-0.00865c0.05799,-0.37371 0.15096,-0.74974 0.24979,-1.11531l0.06916,-0.25431c0,0 0.0656,-0.24124 0.30684,-0.17565z" fill="#a30000" stroke="none" stroke-width="0.5" stroke-linecap="butt"/><path d="M234.96891,179.3619c-0.09553,0.23103 -0.32656,0.13549 -0.32656,0.13549l-0.21102,-0.08843c-1.19586,-0.24683 -2.31649,0.24131 -3.57552,-0.10098c0,0 -0.00684,-0.00186 -0.01791,-0.00611c-0.76247,1.0586 -1.30069,2.33142 -2.73627,1.20456c0,0 -0.19589,-0.15533 -0.04057,-0.35122c0.15533,-0.19589 0.35122,-0.04057 0.35122,-0.04057c1.46454,1.17558 2.04381,-1.91866 3.54872,-2.35227l0.25737,0.04268c0,0 0.23497,0.08541 0.14956,0.32036c-0.0854,0.23496 -0.32037,0.14955 -0.32037,0.14955l0.05168,-0.03209c-0.36416,0.10461 -0.66012,0.33925 -0.92009,0.6288c1.18072,0.24735 2.24447,-0.18592 3.39965,0.05952l0.2546,0.10412c0,0 0.23103,0.09553 0.13549,0.32656z" fill="#a30000" stroke="none" stroke-width="0.5" stroke-linecap="butt"/><path d="M238.33531,186.14763c-0.10819,-0.08578 -0.12635,-0.24303 -0.04057,-0.35122c0.08578,-0.10819 0.24303,-0.12635 0.35122,-0.04057c0.10819,0.08578 0.12635,0.24303 0.04057,0.35122c-0.08578,0.10819 -0.24303,0.12635 -0.35122,0.04057z" fill="#a30000" stroke="none" stroke-width="0.5" stroke-linecap="butt"/><path d="M234.77115,175.33836c-0.24467,-0.05131 -0.19336,-0.29599 -0.19336,-0.29599l0.01064,-0.01833c-0.02824,-1.20933 -1.30869,-2.3768 -2.0044,-3.3408c-1.84917,0.0452 -3.35637,1.13164 -5.27234,1.22832c0,0 -0.24971,0.0121 -0.26181,-0.23761c-0.01211,-0.24971 0.23761,-0.26181 0.23761,-0.26181c2.26605,-0.10479 3.92581,-1.54599 6.28631,-1.15651c0.88759,0.24289 1.43422,0.6188 2.15542,1.19064l0.21692,0.172c0,0 0.19589,0.15533 0.04057,0.35122c-0.15533,0.19589 -0.35122,0.04057 -0.35122,0.04057l-0.21692,-0.172c-0.6624,-0.52522 -1.14105,-0.87491 -1.95115,-1.09388c-0.08006,-0.01317 -0.15937,-0.02412 -0.23798,-0.03296c0.77116,0.99231 1.82809,2.08243 1.85885,3.30066l-0.02114,0.13313c0,0 -0.05132,0.24467 -0.29599,0.19336z" fill="#a30000" stroke="none" stroke-width="0.5" stroke-linecap="butt"/><path d="M229.03629,175.70724c0.19589,0.15533 0.04057,0.35122 0.04057,0.35122l-0.129,0.16269c-0.51556,0.64824 -1.03046,0.81485 -1.76737,0.37264c0,0 -0.21365,-0.12983 -0.08382,-0.34347c0.12983,-0.21365 0.34347,-0.08382 0.34347,-0.08382c0.51998,0.32089 0.75728,0.19786 1.11593,-0.256l0.129,-0.16269c0,0 0.15533,-0.19589 0.35122,-0.04057z" fill="#a30000" stroke="none" stroke-width="0.5" stroke-linecap="butt"/><path d="M244.73798,179.52089c-0.1627,-0.12901 -0.37962,-0.30101 -0.54233,-0.43001c0,0 -0.19589,-0.15533 -0.04057,-0.35122c0.15533,-0.19589 0.35122,-0.04057 0.35122,-0.04057c0.1627,0.12901 0.32539,0.25801 0.48809,0.38701l0.05423,0.043c0,0 0.02178,0.01727 0.04506,0.04756c0.74054,-0.85647 1.31171,-2.10091 1.35925,-2.76613c0,0 0.01179,-0.14281 0.12563,-0.20325c-0.39586,-0.43937 -0.78387,-1.02861 -1.2648,-1.7646c-0.21924,-0.30818 -0.32198,-0.63564 -0.59532,-0.90137l-0.09314,-0.13244c0,0 -0.13672,-0.2093 0.07258,-0.34603c0.2093,-0.13672 0.34602,0.07258 0.34602,0.07258l0.02655,0.0508c0.29765,0.29966 0.4138,0.63948 0.65587,0.97398c1.43542,2.19809 1.76265,2.99807 4.53425,2.2512c0,0 0.2418,-0.06352 0.30532,0.17828c0.06352,0.2418 -0.17828,0.30532 -0.17828,0.30532c-1.75137,0.45022 -2.66906,0.33175 -3.44908,-0.3338c-0.21172,1.52231 -2.01299,4.4436 -3.72257,3.97945l0.04567,0.01273c0,0 -0.24835,0.02868 -0.27703,-0.21966c-0.02868,-0.24834 0.21967,-0.27704 0.21967,-0.27704l0.1429,0.0015c0.46172,0.12577 0.95279,-0.11207 1.405,-0.52734c-0.00913,-0.00591 -0.01419,-0.00993 -0.01419,-0.00993z" fill="#a30000" stroke="none" stroke-width="0.5" stroke-linecap="butt"/><path d="M235.55429,168.16128c0.02868,0.24834 -0.21966,0.27703 -0.21966,0.27703l-0.11497,0.00442c-0.93004,-0.14228 -2.50001,-0.02236 -3.18757,-0.8113c-0.49234,-0.56494 -0.322,-1.4542 -0.79856,-2.09772c0,0 -0.14812,-0.20139 0.05327,-0.34952c0.20139,-0.14812 0.34952,0.05327 0.34952,0.05327c0.4378,0.59889 0.33125,1.58312 0.76517,2.05699c0.60398,0.65958 2.09393,0.53252 2.89351,0.65398l-0.01774,-0.00682c0,0 0.24834,-0.02868 0.27703,0.21966z" fill="#a30000" stroke="none" stroke-width="0.5" stroke-linecap="butt"/><path d="M243.80874,167.42401c0.15533,-0.19589 0.35122,-0.04057 0.35122,-0.04057l0.19447,0.17452c0.33131,0.55386 0.31495,1.11586 0.44302,1.72984c0,0 0.00613,0.02942 0.00396,0.06998c0.46962,0.33739 1.01189,0.56841 1.83049,0.59868c0.31924,-0.73084 0.96563,-1.33526 0.908,-2.22011c-0.05697,-0.87472 -1.22898,-1.75734 -1.48427,-2.64338c0,0 -0.06913,-0.24024 0.17113,-0.30937c0.24026,-0.06913 0.30938,0.17114 0.30938,0.17114c0.70165,2.4425 2.12429,2.921 0.36552,5.42272c-1.99304,0.34232 -2.74089,-1.03032 -4.077,-2.08973l-0.03293,0.00167c0,0 -0.23495,-0.08541 -0.14955,-0.32037c0.0854,-0.23496 0.32036,-0.14955 0.32036,-0.14955l0.17277,0.07645c0.42693,0.33852 0.76365,0.67897 1.09291,0.98301c-0.04835,-0.36925 -0.09774,-0.72555 -0.30223,-1.0632l-0.07669,-0.04049c0,0 -0.19589,-0.15533 -0.04057,-0.35122z" fill="#a30000" stroke="none" stroke-width="0.5" stroke-linecap="butt"/><path d="M242.37358,182.69082c0.24993,-0.00608 0.25601,0.24384 0.25601,0.24384l0.00663,0.2795c-0.04907,0.87657 -1.03182,2.07724 -1.38268,2.97959c0,0 -0.09085,0.23291 -0.32376,0.14207c-0.23291,-0.09085 -0.14207,-0.32376 -0.14207,-0.32376c0.32025,-0.81829 1.3164,-2.04812 1.34855,-2.80434l-0.00652,-0.2609c0,0 -0.00608,-0.24993 0.24384,-0.25601z" fill="#a30000" stroke="none" stroke-width="0.5" stroke-linecap="butt"/><path d="M236.43701,165.46574c-1.05953,-0.93485 -1.02799,-1.72089 0.0174,-2.80069c0,0 0.17405,-0.17946 0.35352,-0.00542c0.17946,0.17405 0.00541,0.35351 0.00541,0.35351c-0.92434,0.95136 -0.9234,1.39346 0.15475,2.2451l-0.27509,0.25826l-0.03556,0.13352c-0.01942,-0.01545 -0.03856,-0.03087 -0.05742,-0.04623l-0.0204,0.01916c0,0 -0.11036,-0.05 -0.14262,-0.15722z" fill="#a30000" stroke="none" stroke-width="0.5" stroke-linecap="butt"/><path d="M242.61324,165.39237c-0.2039,-0.04277 -0.20224,-0.21981 -0.19603,-0.27763c-0.20399,-0.36138 -0.40079,-0.73739 -0.64222,-1.07224c0,0 -0.02601,-0.03628 -0.04071,-0.08916c-0.00227,-0.00002 -0.00457,-0.00006 -0.00688,-0.00012c-0.24991,-0.00672 -0.24319,-0.25663 -0.24319,-0.25663l0.03463,-0.04738c-0.13048,-0.24159 -0.27243,-0.47553 -0.40304,-0.71705c0,0 -0.11886,-0.21993 0.10107,-0.3388c0.21993,-0.11886 0.33879,0.10107 0.33879,0.10107c0.13048,0.24159 0.27243,0.47553 0.40304,0.71705l0.01948,0.22958c0.12356,-0.00092 0.20315,0.11007 0.20315,0.11007c0.26827,0.37592 0.48631,0.79529 0.71609,1.19663l0.01182,0.25125c0,0 -0.05132,0.24467 -0.29599,0.19336z" fill="#a30000" stroke="none" stroke-width="0.5" stroke-linecap="butt"/><path d="M229.25034,167.81675c-1.12373,1.41722 -1.58648,3.02828 -2.12956,4.71652c-0.65258,1.58126 -0.36823,4.53927 0.35349,6.05367c0.82884,1.53299 1.28554,3.25739 2.68458,4.36669l0.20046,0.21063c0,0 0.02397,0.0253 0.04457,0.06595c0.25863,0.16491 0.51591,0.32232 0.77063,0.47021c0,0 0.2159,0.12606 0.08983,0.34195c-0.12606,0.2159 -0.34195,0.08983 -0.34195,0.08983c-1.82356,-1.07009 -3.7755,-2.59618 -5.42545,-3.90444c-1.51915,-1.21068 -4.13099,-4.69798 -2.75063,-6.44247c1.72157,-2.17121 3.91787,-3.95004 5.61227,-6.08383c0.76488,-0.96416 1.66118,-1.55296 2.53449,-2.38427l0.02405,-0.03437c0,0 0.15533,-0.19589 0.35122,-0.04057c0.19589,0.15533 0.04057,0.35122 0.04057,0.35122l-0.07191,0.08666c-0.68698,0.64838 -1.3812,1.14343 -2.01446,1.79598c0.17623,0.15349 0.02784,0.34064 0.02784,0.34064z" fill="#052c00" stroke="none" stroke-width="0.5" stroke-linecap="butt"/><path d="M246.45917,183.53155l0.0915,-0.10339c1.07593,-0.81979 2.8416,-2.54907 3.11626,-3.96185c0.39729,-1.71311 0.83133,-3.86498 1.3882,-5.60848c0.29893,-1.99221 -0.56542,-3.84743 -1.49444,-5.5649c-0.64357,-1.39973 -1.86513,-2.43056 -3.06962,-3.38965c-0.12813,-0.07304 -0.25709,-0.14431 -0.38695,-0.21367c0,0 -0.22052,-0.11778 -0.10274,-0.3383c0.11778,-0.22052 0.3383,-0.10274 0.3383,-0.10274c0.03088,0.01649 0.06171,0.03309 0.09248,0.04979c0.09659,-0.00358 0.1746,0.05827 0.1746,0.05827c0.05514,0.04372 0.11031,0.08756 0.16548,0.13154c2.02356,1.16046 3.84148,2.74993 5.66373,4.19481c1.77685,1.40888 3.95176,2.75105 5.31884,4.56326c0.10906,0.00934 0.18081,0.10266 0.18081,0.10266l0.102,0.13291c0.24184,0.33846 0.38412,0.589 0.71593,0.85108c0,0 0.13669,0.10838 0.09117,0.25825l0.11781,0.06701c-0.01599,0.02017 -0.03199,0.04035 -0.04798,0.06052v0c0,0 -0.00007,0.00009 -0.0002,0.00025c-0.16622,0.2096 -0.33256,0.41908 -0.50007,0.62767c-2.44787,1.88189 -4.10895,4.48811 -6.98389,5.92402c-2.10045,1.40216 -4.2511,2.58354 -6.47616,3.74814c0,0 -0.22149,0.11593 -0.33743,-0.10557c-0.11593,-0.22149 0.10557,-0.33743 0.10557,-0.33743c0.56467,-0.29551 1.1241,-0.59251 1.67896,-0.89404c0.00614,-0.08499 0.05783,-0.15017 0.05783,-0.15017z" fill="#052c00" stroke="none" stroke-width="0.5" stroke-linecap="butt"/><path d="M236.83757,196.18391c-0.36276,0.21339 -0.72311,0.03857 -1.00506,-0.21272c0.06456,0.41816 -0.0998,0.54367 -0.35171,0.49049c-0.02511,0.09127 -0.10125,0.16425 -0.20079,0.18053c-0.1078,0.01763 -0.21076,-0.03652 -0.2601,-0.12737l-0.19047,-0.33198c-0.00143,-0.00028 -0.00285,-0.00056 -0.00428,-0.00084c-0.26049,0.12657 -1.00993,-0.00569 -1.54806,-0.29986l-0.12506,0.17396c-0.03735,0.05195 -0.09451,0.08966 -0.16264,0.10079c-0.13626,0.02229 -0.26479,-0.07011 -0.28707,-0.20637l-0.05594,-0.34199c-0.13772,-0.39875 -0.9297,-0.78924 -0.9212,-1.21481c-0.08782,0.03599 -0.18046,0.00717 -0.18046,0.00717l-0.16843,-0.07277c-0.16422,0.06786 -0.32346,0.1039 -0.41091,0.04012c-0.31678,-0.23103 -0.5321,-0.61415 -0.82758,-0.93425c-0.2476,-0.13078 -0.49477,-0.22293 -0.71033,-0.23664c0.0131,0.02467 0.02325,0.05434 0.02908,0.09002c0.04036,0.24672 -0.20637,0.28707 -0.20637,0.28707l-0.33419,-0.14899c-0.14596,-0.39444 -0.16438,-0.7147 -0.19082,-1.13668c-0.02003,-0.03233 -0.03907,-0.06482 -0.05779,-0.09645c-0.0595,0.04851 -0.1301,0.06006 -0.1301,0.06006l-0.53084,-0.1665c-0.04532,-0.27713 -0.10726,-0.51213 -0.18607,-0.72957c-0.01187,0.01651 -0.02374,0.03303 -0.03561,0.04953l-0.10007,0.13921c0,0 -0.14593,0.20299 -0.34892,0.05707c-0.20299,-0.14593 -0.05707,-0.34892 -0.05707,-0.34892c0.02925,-0.04068 0.09269,-0.12894 0.15035,-0.20914c-0.02388,0.01212 -0.05231,0.02153 -0.08612,0.02706c-0.24672,0.04036 -0.28707,-0.20637 -0.28707,-0.20637c-0.08894,-0.6015 -1.04191,-0.85179 -0.9738,-1.38305c0.07466,-0.58228 0.35699,-0.55012 0.70393,-0.23075c0.47467,0.19119 0.53778,0.48898 0.63028,0.76624c0.01336,0.01931 0.02671,0.03875 0.04002,0.0583c-0.05138,-0.19052 -0.09388,-0.3971 -0.13217,-0.63121c0,0 -0.04036,-0.24672 0.20637,-0.28707c0.24672,-0.04036 0.28707,0.20637 0.28707,0.20637c0.09284,0.56766 0.19758,0.92714 0.41042,1.3133l0.0419,0.01303c0,0 0.23872,0.07424 0.16447,0.31296c-0.0007,0.00225 -0.00141,0.00447 -0.00214,0.00666c0.0512,0.07655 0.10689,0.15616 0.16767,0.24026l0.08511,0.04538c0,0 0.16413,0.11799 0.09113,0.28935c0.13921,0.13779 0.10998,0.28749 0.29081,0.43934c0.04128,0.0141 0.07171,0.03795 0.09416,0.0649l0.09386,0.02776c0.16212,-0.14111 0.32725,0.01198 0.32725,0.01198c0.22461,0.2083 0.44645,0.41973 0.66283,0.63658l0.09278,-0.05189c0,0 0.24915,0.02069 0.22845,0.26984c-0.00204,0.02456 -0.0063,0.04649 -0.01233,0.06608c0.07289,0.06226 0.14255,0.12714 0.20841,0.19388c0.32662,0.20788 0.62554,0.44385 0.8457,0.64723c0.17406,-0.1603 0.37461,-0.37084 0.49856,-0.26131c0.08847,0.07819 0.3472,0.5259 0.58576,0.97209c0.05449,0.02132 0.10053,0.0614 0.12888,0.11359l0.02979,0.05193c0.26732,-0.23904 0.79584,-0.09145 1.18703,0.1692l-0.04506,-0.13274c-0.00511,-0.01419 -0.00899,-0.02905 -0.01151,-0.04448c-0.02229,-0.13626 0.07011,-0.26479 0.20637,-0.28707c0.08395,-0.01373 0.16497,0.01607 0.22001,0.07285l0.35013,0.35226l-0.01191,0.01184c0.10145,0.07155 0.19837,0.14686 0.30025,0.2348c0.02128,0.00606 0.04224,0.01224 0.06285,0.01856l0.10156,-0.24322c0.0314,-0.07883 0.10217,-0.13971 0.19201,-0.1544c0.13626,-0.02229 0.26479,0.07011 0.28707,0.20637c0.00738,0.04509 0.00219,0.08934 -0.01298,0.12917l-0.0547,0.1522c0.00261,0.0015 0.00522,0.00302 0.00783,0.00454c0.30929,-0.28089 0.64021,-0.47149 0.81784,-0.24908c0.00247,0.0031 0.00492,0.00619 0.00734,0.00927c0.2907,-0.09968 0.50981,-0.04481 0.68839,0.07727c0.03512,-0.00604 0.07774,-0.00704 0.12037,0.00739c0.08988,-0.06872 0.18691,-0.11414 0.2983,-0.11604l0.04195,-0.09202c0.12189,-0.01994 0.24377,-0.03987 0.36565,-0.0598c0,0 0.24672,-0.04036 0.28707,0.20637c0.04036,0.24672 -0.20637,0.28707 -0.20637,0.28707c-0.05017,0.0082 -0.10034,0.01641 -0.15052,0.02462c-0.01941,0.06104 -0.06486,0.12592 -0.16755,0.15141c-0.00437,0.04844 -0.02124,0.11319 -0.07483,0.16076c0.15152,0.19109 0.29745,0.33042 0.49159,0.26672l0.12189,-0.01994c0,0 0.24672,-0.04036 0.28707,0.20637c0.04036,0.24672 -0.20637,0.28707 -0.20637,0.28707l-0.12189,0.01994c-0.26527,0.02337 -0.71902,-0.29525 -1.16328,-0.59455c-0.01155,0.12454 -0.0537,0.2514 -0.22914,0.35461zM231.89061,194.07986c0.06684,-0.06224 0.04279,-0.05102 -0.03199,-0.0072c0.00353,0.0094 0.00647,0.01932 0.00869,0.02978c0.00744,-0.00751 0.01521,-0.01505 0.02331,-0.02259zM236.44474,195.78103c0.0454,0.00502 0.08869,-0.00125 0.12944,-0.02212c0.0103,-0.00527 0.02047,-0.01085 0.03054,-0.0167c-0.03936,0.00326 -0.07876,0.00562 -0.11811,0.00717c-0.01327,0.01097 -0.02724,0.02153 -0.04186,0.03165zM233.61008,195.54644c0.02574,0.01679 0.05192,0.03275 0.07843,0.04784c-0.0014,-0.01151 -0.00198,-0.02295 -0.0018,-0.03425c-0.02576,-0.00427 -0.05131,-0.00879 -0.07663,-0.01359zM228.49906,192.00026l-0.00702,-0.03993c-0.00129,-0.001 -0.00258,-0.00198 -0.00387,-0.00296c0.00499,0.01651 0.00865,0.03086 0.0109,0.04288z" fill="#930000" stroke="none" stroke-width="0.5" stroke-linecap="butt"/><path d="M249.87699,192.90558c-0.09515,0.40997 -0.47008,0.55081 -0.84646,0.58214c0.34763,0.24121 0.32542,0.4468 0.11336,0.59281c0.04887,0.08107 0.04935,0.18653 -0.00741,0.26991c-0.06146,0.0903 -0.17164,0.12765 -0.27149,0.10085l-0.37187,-0.09056c-0.00118,0.00084 -0.00237,0.00168 -0.00355,0.00252c-0.08767,0.27602 -0.69972,0.72827 -1.28363,0.91579l0.03999,0.21048c0.01194,0.06285 -0.00009,0.13026 -0.03894,0.18734c-0.07769,0.11413 -0.2332,0.14368 -0.34734,0.06599l-0.28647,-0.195c-0.38395,-0.1748 -1.21253,0.13044 -1.51521,-0.16884c-0.03439,0.08845 -0.11909,0.13577 -0.11909,0.13577l-0.16877,0.07198c-0.06391,0.16579 -0.14747,0.30607 -0.25393,0.32554c-0.38568,0.07054 -0.81173,-0.03724 -1.24732,-0.0435c-0.26534,0.08943 -0.50241,0.20516 -0.66081,0.35199c0.0269,0.00749 0.05541,0.02057 0.0853,0.04091c0.20666,0.14068 0.06599,0.34734 0.06599,0.34734l-0.33819,0.13967c-0.3865,-0.16585 -0.63137,-0.37308 -0.95551,-0.64455c-0.03724,-0.00774 -0.0739,-0.01633 -0.10973,-0.02454c-0.00581,0.07655 -0.04606,0.13569 -0.04606,0.13569l-0.48634,0.27018c-0.23213,-0.15801 -0.44516,-0.27498 -0.65708,-0.3676c0.0038,0.01998 0.00759,0.03995 0.01139,0.05994l0.032,0.16844c0,0 0.04666,0.24561 -0.19895,0.29227c-0.24561,0.04666 -0.29227,-0.19895 -0.29227,-0.19895c-0.00935,-0.04922 -0.02964,-0.15601 -0.04807,-0.25305c-0.00766,0.02566 -0.02042,0.05274 -0.03969,0.08108c-0.14068,0.20666 -0.34734,0.06599 -0.34734,0.06599c-0.49734,-0.3498 -1.33516,0.1687 -1.67341,-0.24659c-0.37072,-0.45517 -0.15295,-0.63772 0.31753,-0.66928c0.46555,-0.21244 0.7249,-0.0531 0.98963,0.07081c0.02321,0.00361 0.04649,0.00733 0.06983,0.01114c-0.17351,-0.09397 -0.35255,-0.20544 -0.54865,-0.33893c0,0 -0.20666,-0.14068 -0.06599,-0.34734c0.14068,-0.20666 0.34734,-0.06599 0.34734,-0.06599c0.47548,0.32367 0.80825,0.49534 1.23481,0.60699l0.03831,-0.0214c0,0 0.21825,-0.12193 0.34018,0.09632c0.00115,0.00206 0.00227,0.00409 0.00336,0.00613c0.09076,0.0156 0.18683,0.03007 0.28968,0.04393l0.09153,-0.03045c0,0 0.19858,-0.03773 0.27254,0.13322c0.19578,-0.00603 0.28418,0.11828 0.51881,0.09175c0.03865,-0.02021 0.07691,-0.02585 0.1119,-0.02357l0.08478,-0.04893c0.00936,-0.21473 0.23408,-0.229 0.23408,-0.229c0.30573,-0.01938 0.6118,-0.03458 0.91804,-0.04209l0.02628,-0.103c0,0 0.18661,-0.16638 0.35298,0.02022c0.0164,0.01839 0.02937,0.03658 0.03942,0.05445c0.09534,-0.00996 0.19036,-0.01577 0.28411,-0.01756c0.37567,-0.09362 0.75263,-0.14781 1.05171,-0.16734c0.00366,-0.23659 -0.01085,-0.52701 0.15393,-0.54142c0.11762,-0.01029 0.62041,0.1105 1.10822,0.24486c0.05298,-0.02483 0.11376,-0.03059 0.17113,-0.0152l0.05817,0.01417c0.01082,-0.35845 0.48184,-0.63996 0.94024,-0.74405l-0.12727,-0.05876c-0.0138,-0.00608 -0.02725,-0.0135 -0.04017,-0.02229c-0.11413,-0.07769 -0.14368,-0.2332 -0.06599,-0.34734c0.04787,-0.07033 0.12528,-0.10854 0.20434,-0.10933l0.49654,-0.01121l0.00038,0.01679c0.12176,-0.02428 0.2431,-0.04266 0.37703,-0.05596c0.01905,-0.01125 0.03797,-0.02219 0.05674,-0.03278l-0.10639,-0.24115c-0.03552,-0.07706 -0.03091,-0.1703 0.02031,-0.24556c0.07769,-0.11413 0.2332,-0.14368 0.34734,-0.06599c0.03777,0.02571 0.06628,0.05994 0.08471,0.09838l0.07267,0.14448c0.00289,-0.00086 0.00578,-0.00171 0.00869,-0.00254c0.00937,-0.4177 0.09912,-0.78889 0.38272,-0.76448c0.00395,0.00033 0.00787,0.00069 0.01177,0.00106c0.12796,-0.2794 0.31864,-0.40047 0.53016,-0.44585c0.01982,-0.02962 0.04844,-0.06121 0.08827,-0.08218c0.01208,-0.1125 0.04598,-0.21411 0.12132,-0.29619l-0.03782,-0.09379c0.0695,-0.1021 0.139,-0.20419 0.20849,-0.30629c0,0 0.14068,-0.20666 0.34734,-0.06599c0.20666,0.14068 0.06599,0.34734 0.06599,0.34734c-0.02861,0.04203 -0.05722,0.08405 -0.08582,0.12607c0.03088,0.05612 0.04662,0.13374 -0.00563,0.22575c0.0321,0.03653 0.06743,0.09337 0.06502,0.16498c0.2429,0.02176 0.44442,0.01193 0.53196,-0.1727l0.0695,-0.1021c0,0 0.14068,-0.20666 0.34734,-0.06599c0.20666,0.14068 0.06599,0.34734 0.06599,0.34734l-0.0695,0.1021c-0.16577,0.20842 -0.70928,0.31793 -1.23226,0.43388c0.08233,0.09415 0.14528,0.21208 0.09926,0.41037zM244.94432,195.04291c0.00091,-0.09133 -0.00751,-0.06616 -0.02725,0.01825c0.00925,0.00391 0.01846,0.00862 0.02757,0.01421c-0.00032,-0.01058 -0.00043,-0.02138 -0.00032,-0.03245zM249.31434,192.91289c0.0349,-0.02945 0.06018,-0.06515 0.07312,-0.10908c0.00326,-0.0111 0.00623,-0.02231 0.00891,-0.03364c-0.02474,0.03078 -0.05017,0.06097 -0.07615,0.09056c-0.00118,0.01717 -0.00316,0.03457 -0.00588,0.05215zM247.19187,194.80644c0.02991,-0.00711 0.0595,-0.01509 0.0887,-0.0239c-0.00931,-0.00692 -0.018,-0.01438 -0.02607,-0.02229c-0.02084,0.01574 -0.04172,0.03114 -0.06264,0.04619zM241.10069,196.06943l-0.03378,-0.02241c-0.00161,0.00024 -0.00322,0.0005 -0.00481,0.00077c0.01541,0.00777 0.02832,0.01499 0.0386,0.02164z" fill="#930000" stroke="none" stroke-width="0.5" stroke-linecap="butt"/><path d="M250.27642,191.67898c0,0 -1.3121,2.20399 -3.81886,3.32717c-2.46694,1.10533 -6.21052,0.75661 -8.30282,0.58234c-1.72082,-0.14332 -3.18506,0.50979 -5.5736,-0.84432c-3.00489,-1.70353 -5.66826,-4.77449 -5.66826,-4.77449" fill="none" stroke="#000000" stroke-width="0.5" stroke-linecap="round"/><path d="M235.60198,163.41214c1.38071,0 2.5,1.11929 2.5,2.5c0,0.8709 -0.44532,1.63779 -1.12067,2.08538c0.00987,0.07257 0.01707,0.1469 0.02145,0.22298c0.08004,1.39005 0.02322,2.78489 0,4.17705c-0.01444,0.86604 -0.24269,2.29123 -0.32977,3.07782c-0.19826,1.79092 -1.05816,1.25102 -1.75876,2.44422c-0.2283,0.38883 0.04513,0.77078 0.40576,1.14439c0.20471,0.1501 0.38573,0.33061 0.5364,0.53487c0.27775,0.29129 0.48373,0.57682 0.40763,0.85586c0.0517,0.20027 0.0792,0.41027 0.0792,0.6267c0,1.38071 -1.11929,2.5 -2.5,2.5c-0.43543,0 -0.84487,-0.11132 -1.20139,-0.30706c-1.74248,-0.02937 -2.44975,-2.40765 -2.53362,-5.36808c-0.12976,-0.11366 -0.24766,-0.24052 -0.35159,-0.3785c-0.0661,0.00524 -0.13292,0.00791 -0.20036,0.00791c-1.38071,0 -2.5,-1.11929 -2.5,-2.5c0,-0.53194 0.16613,-1.02507 0.44934,-1.43034c0.00167,-0.01905 0.00355,-0.03804 0.00565,-0.05696c-0.08885,-0.89938 0.14168,-1.69707 1.00772,-1.80949c0.40662,-0.83009 1.25978,-1.40165 2.24643,-1.40165c0.06268,0 0.12483,0.00231 0.18635,0.00684c0.07754,-0.31498 0.15888,-0.61803 0.24338,-0.90637c-0.45186,-0.45234 -0.73129,-1.07695 -0.73129,-1.76682c0,-1.38071 1.11929,-2.5 2.5,-2.5c0.08307,0 0.16519,0.00405 0.24618,0.01197c0.3121,-1.02496 1.26494,-1.77072 2.39196,-1.77072z" fill="#000000" stroke="none" stroke-width="0.5" stroke-linecap="butt"/><path d="M240.79654,166.57167c0,-1.38071 1.11929,-2.5 2.5,-2.5c0.91432,0 1.714,0.49083 2.14993,1.22338c0.08817,-0.00941 0.1777,-0.01424 0.26836,-0.01424c1.38071,0 2.5,1.11929 2.5,2.5c0,0.34404 -0.06949,0.67185 -0.19521,0.97015c0.65715,1.39479 0.97005,3.11599 0.70485,4.69633c0.14339,0.11687 0.28452,0.24737 0.41937,0.38773c0.18281,0.16426 0.34128,0.35507 0.46933,0.56637c0.66035,0.93115 0.9336,2.03772 0.01495,2.56266c-0.16245,0.27525 -0.37614,0.51666 -0.62795,0.71109c-0.23176,0.53644 -0.64602,0.97561 -1.16452,1.23924c-0.90394,1.3852 -2.12748,3.09754 -3.35057,4.30616c-0.1389,0.46969 -0.41205,0.88175 -0.77501,1.19172c-0.75586,0.71252 -1.86877,1.04597 -2.85065,0.55404c-0.21818,-0.10931 -0.46415,-0.42475 -0.68139,-0.84202c-0.36848,-0.4355 -0.59065,-0.99875 -0.59065,-1.6139c0,-0.09402 0.00519,-0.18683 0.0153,-0.27816c-0.09246,-0.93591 0.16094,-1.7617 1.11642,-1.81975c0.82805,-1.97011 2.12461,-4.95915 2.42767,-5.79803c0.4825,-1.33559 -1.7372,-5.1604 -1.53011,-6.19126c-0.50379,-0.45736 -0.82013,-1.1175 -0.82013,-1.85152z" fill="#000000" stroke="none" stroke-width="0.5" stroke-linecap="butt"/></g></g></svg>