<svg version="1.1" xmlns="http://www.w3.org/2000/svg" xmlns:xlink="http://www.w3.org/1999/xlink" width="51.32704" height="56.3113" viewBox="0,0,51.32704,56.3113"><g transform="translate(-206.86807,-151.5824)"><g data-paper-data="{&quot;isPaintingLayer&quot;:true}" fill-rule="nonzero" stroke="none" stroke-linecap="butt" stroke-linejoin="miter" stroke-miterlimit="10" stroke-dasharray="" stroke-dashoffset="0" style="mix-blend-mode: normal"><path d="M255.92289,172.69428c-1.77529,-1.33443 -2.34154,0.70731 -2.29036,2.11956c-0.77016,-0.52867 -1.51984,-1.08821 -2.16907,-1.80705l-0.28333,-0.31371c0,0 -0.10221,-0.11316 -0.25623,-0.15805c-0.32716,-0.48379 -0.83894,-1.03395 -1.37919,-1.56614c0.02568,0.00407 0.05202,0.00618 0.07885,0.00618c0.27614,0 0.5,-0.22386 0.5,-0.5v-0.54964h-0.08145c0.00828,-0.03147 0.01527,-0.06332 0.02101,-0.09532l0.40162,0.4338c0.09138,0.0993 0.22243,0.16152 0.36802,0.16152c0.27614,0 0.5,-0.22386 0.5,-0.5c0,-0.11961 -0.042,-0.22941 -0.11205,-0.31546l-0.42467,-0.53084c-0.002,-0.00489 -0.004,-0.00978 -0.00601,-0.01466c0.29638,0.12847 0.59842,0.23653 0.90304,0.31781c0.01249,0.08603 0.0282,0.1463 0.04787,0.16838c1.0785,1.21063 2.87883,0.42928 3.01292,-0.69298c0.79197,0.3629 1.55963,0.79177 2.29448,1.28619c-0.02174,0.12586 0.00495,0.23261 0.00495,0.23261c0.20341,0.80303 0.54202,1.45125 0.65052,2.26367l0.00292,0.00541l-0.00199,0.00033l0.10858,0.65146c0.03027,0.20377 0.18348,0.36743 0.38179,0.41314c-0.11583,0.24274 -0.37276,0.59485 -0.63002,0.9729c-0.70081,-0.49059 -0.94377,-1.46414 -1.64218,-1.98912z" fill="#084500" stroke-width="0"/><path d="M249.09012,170.49966l0.02211,0.05159c-0.02322,-0.02204 -0.04642,-0.04401 -0.06958,-0.0659c0.01567,0.00516 0.03149,0.00993 0.04747,0.01431z" fill="#084500" stroke-width="0"/><path d="M252.61582,168.08294c0.0011,-0.00927 0.00221,-0.01854 0.00332,-0.0278c0.0032,0.00095 0.0064,0.00191 0.0096,0.00287c-0.00436,0.00827 -0.00866,0.01659 -0.01292,0.02493z" fill="#084500" stroke-width="0"/><path d="M247.18952,183.79599c-0.21267,-0.78495 -0.53759,-2.71552 -1.19434,-3.42336c0.02022,-0.92091 -0.11389,-1.80618 -0.27377,-2.68466c0.14786,-0.06504 0.23467,-0.19226 0.23467,-0.19226c2.21659,-3.25145 1.07117,1.09429 1.51919,2.29207c0.44951,1.20175 2.35562,2.48796 3.66859,2.26817c-0.37653,1.77494 -1.0398,3.43789 -1.93721,4.94246l-0.21467,0.10733c-0.8287,-0.90945 -1.49933,-1.94104 -1.80246,-3.30975z" fill="#084500" stroke-width="0"/><path d="M237.51752,182.35659c1.24428,-1.6989 0.37342,-2.12054 0.09821,-3.79039c0.33772,0.03517 0.48529,-0.30916 0.48529,-0.30916c0.16316,-0.3839 0.29168,-0.75814 0.41704,-1.13667c0.47613,0.14466 0.84139,-0.06898 1.05756,-0.422c0.62972,1.23004 1.49583,2.28647 2.20554,3.45339c-0.05566,0.16199 -0.11621,0.32489 -0.17642,0.48859c-0.25872,-0.06652 -0.46938,0.14415 -0.46938,0.14415c-0.08816,0.08837 -0.17422,0.17678 -0.25896,0.26512c-0.1067,0.09256 -0.20378,0.19567 -0.29157,0.30784c-0.30632,0.32602 -0.60687,0.6493 -0.94115,0.9642l-0.05307,0.03184c-0.12276,0.07078 -0.21264,0.19222 -0.24107,0.33576l-0.2753,0.51228c-0.04077,0.0724 -0.06403,0.15597 -0.06403,0.24498c0,0.19263 0.10893,0.35981 0.26855,0.44332l-0.00391,0.00913c-0.02876,0.06311 -0.04478,0.13324 -0.04478,0.20712c0,0.04706 0.0065,0.09259 0.01865,0.13577l-0.02758,0.02445c-0.10438,0.09164 -0.17026,0.22606 -0.17026,0.37587c0,0.27614 0.22386,0.5 0.5,0.5c0.05938,0 0.11635,-0.01035 0.16919,-0.02935l0.24104,-0.08035c0,0 0,0.00001 0.00001,0.00001c-0.28138,0.48469 -0.328,0.99278 -0.20573,1.30523c-0.03664,0.02651 -0.07297,0.0535 -0.10902,0.08093l-0.06188,-0.10408l-0.8412,0.50011c-0.00913,0.00521 -0.01808,0.0107 -0.02684,0.01646l-0.26054,0.10422c-0.11358,0.04241 -0.2076,0.12494 -0.26483,0.23034c-0.08465,-0.15592 -0.24982,-0.26178 -0.43971,-0.26178h-1v0.03564c-0.14115,0.01005 -0.31527,0.01725 -0.50971,0.02063c-0.11462,-0.00784 -0.23097,-0.00607 -0.34919,0.00187c-1.00306,-0.00607 -2.29621,-0.10885 -2.56881,-0.40977c0.01037,-0.12878 0.03134,-0.26617 0.06363,-0.41255c0.38292,-0.36155 1.52393,-0.54752 1.72583,-0.5443c0,0 0.5,0 0.5,-0.5c0,-0.30241 -0.1829,-0.42192 -0.32746,-0.46914c1.00925,-0.70479 1.91052,-1.57023 2.23187,-2.26972z" fill="#084500" stroke-width="0"/><path d="M242.43028,181.37985c-0.00908,0.00378 -0.0182,0.00761 -0.02736,0.01149l0.0118,-0.04667c0.00521,0.01171 0.0104,0.02343 0.01556,0.03518z" fill="#084500" stroke-width="0"/><path d="M254.61267,195.94371c-0.37992,-0.02397 -0.73543,-0.04893 -1.03755,-0.05892c-2.72583,-0.29187 -2.37008,2.29767 -3.78236,3.63971c-0.17223,0.16367 -1.70965,1.09486 -1.83499,1.08002c-0.59821,-0.07085 -0.82307,-0.97574 -1.69515,-0.87339c-0.87036,0.10214 -2.01108,1.0172 -2.85968,1.32677c-1.83438,-1.14598 -2.65019,-2.12105 -0.26963,-2.4003c0.57783,-0.06779 1.18201,-1.02354 1.79014,-0.79585c0.5482,0.20526 1.1852,0.8254 1.86406,0.70051c1.65903,-0.30523 2.9034,-2.54389 3.31144,-3.94973c0.01992,-1.03338 -0.30061,-1.60916 -0.82583,-1.88311c-0.01025,-0.1306 -0.06561,-0.23029 -0.06561,-0.23029c-0.32563,-0.58632 -0.66785,-1.43831 -1.09369,-1.94168c-0.06935,-0.08199 -1.00768,-0.71374 -1.28556,-1.08507c0.09453,-0.11941 0.17708,-0.24679 0.24999,-0.38011c0.01097,0.00199 0.02204,0.00372 0.03321,0.0052c-0.00066,0.01049 -0.00099,0.02107 -0.00099,0.03173c0,0.27614 0.22386,0.5 0.5,0.5c0.07618,0 0.14838,-0.01704 0.213,-0.04751l0.88926,-0.39523c0.69371,-0.24048 1.2733,-0.7141 1.54332,-0.71591l-0.10725,0.286c-0.02314,0.05759 -0.03588,0.12048 -0.03588,0.18635c0,0.27614 0.22386,0.5 0.5,0.5c0.11642,0 0.22355,-0.03979 0.30853,-0.10652l0.35222,-0.27094c0.04465,0.04078 0.08964,0.08203 0.13496,0.1237c0.06555,0.06532 0.1315,0.12872 0.19783,0.19027c-0.04314,0.61457 0.03892,1.25449 0.15878,1.41947c0.54045,0.74392 1.45371,0.54238 2.26005,0.07468c0.48256,0.18614 0.97718,0.32864 1.48137,0.44746c-0.07536,1.57722 -0.37817,3.13474 -0.89396,4.62268z" fill="#084500" stroke-width="0"/><path d="M228.01902,205.19287c-2.98644,-1.96828 -5.13288,-4.72973 -6.34092,-7.81572c0.72564,0.42883 2.12416,1.61236 2.80856,1.57194c0.31786,-0.01877 0.51233,-0.37824 0.76851,-0.56736c0.81499,-1.30072 0.81045,-2.82807 0.88235,-4.35577c0.05623,0.0219 0.1174,0.03391 0.18138,0.03391c0.24578,0 0.45013,-0.17733 0.49211,-0.41102l0.10811,-0.54056l-0.02194,-0.00439l0.02922,-0.0444c0,-0.35563 0.04255,-0.66504 0.11989,-0.93703c0.10283,-0.2025 0.19126,-0.41256 0.27312,-0.62643c0.37652,-0.6119 0.98286,-0.97957 1.63726,-1.3086c0.00817,0.05085 0.0236,0.10117 0.04776,0.15089c0.21996,0.45271 1.66553,0.34996 2.9905,0.28139c0.00182,0.00674 0.00368,0.01351 0.00558,0.0203c0.19307,0.69111 0.71197,1.3329 1.28849,1.62071c0.00156,0.02157 0.00321,0.04309 0.00498,0.06453v0.02541h0.00216c0.01081,0.12409 0.02555,0.24553 0.04625,0.36176c-0.7626,1.72769 0.28004,4.1138 0.85552,5.83889c0.14062,0.42153 0.31247,1.25531 0.58132,1.95027l-0.05233,0.47093c-0.00255,0.02045 -0.00386,0.04129 -0.00386,0.06244c0,0.0367 0.00395,0.07247 0.01146,0.10691c-0.83474,-1.10368 -1.25029,-2.74714 -2.36588,-3.94963c-2.34679,-2.52956 -3.50289,1.72567 -3.41395,3.36903c0.72292,0.8466 1.9284,1.3137 2.60235,2.11641c0.28091,0.33459 -0.22822,1.40239 -0.06896,1.76703c0.01885,0.04316 0.05143,0.09141 0.09538,0.14358c-0.22022,0.03199 -0.44039,0.06428 -0.65771,0.11152c-0.10966,0.02383 -0.23572,0.06 -0.37006,0.10624c-0.94266,0.17634 -1.63765,0.3995 -2.40843,0.47051c-0.04282,-0.02768 -0.08557,-0.05557 -0.12823,-0.08369z" fill="#084500" stroke-width="0"/><path d="M235.22304,201.53496c0.06398,0 0.12516,-0.01202 0.18139,-0.03392c0.02864,0.02165 0.05795,0.04101 0.08793,0.05788c0.12608,0.07096 0.25558,0.1044 0.38528,0.1068c0.13924,0.16943 0.35765,0.30347 0.62418,0.39784l0.04531,0.22655c-0.64292,-0.11049 -1.11932,-0.3955 -1.50476,-0.7888c0.05604,0.02172 0.11697,0.03364 0.18068,0.03364z" fill="#084500" stroke-width="0"/><path d="M238.56328,207.88779c-0.02396,0.00202 -0.04793,0.00399 -0.07191,0.00591c0.01205,-0.0293 0.02396,-0.05869 0.03575,-0.08814c0.0119,0.02705 0.02396,0.05447 0.03616,0.08223z" fill="#084500" stroke-width="0"/><path d="M215.33832,172.91938c0.35947,0.92367 0.96534,1.52352 2.27069,1.01352c0.06567,-0.04506 0.12512,-0.08348 0.17986,-0.11619c-0.00872,0.10433 0.012,0.18545 0.012,0.18545c0.06776,0.26254 1.19178,4.16703 1.14877,4.18022c-0.76081,0.23347 -1.75126,-0.18572 -1.9256,1.04375c-0.13006,0.91724 0.54325,1.94467 1.41134,2.33424c-0.06411,0.30229 -0.18736,0.63032 -0.32095,0.95524c-0.76004,0.37052 -1.51949,0.46604 -2.19814,0.80196c-0.42512,-0.75179 -0.96993,-1.48282 -1.46501,-2.19621c-0.00752,-0.13026 -0.01696,-0.26666 -0.02802,-0.41066l-0.01974,-0.03226l0.01321,-0.00294l-0.13939,-0.62586c-0.04597,-0.22869 -0.24796,-0.40093 -0.49019,-0.40093c-0.02152,0 -0.04272,0.00136 -0.06353,0.004c-0.29464,-0.9213 -0.59811,-1.83545 -0.75561,-2.6219v-0.28985c0,-0.10616 -0.03309,-0.2046 -0.08951,-0.28556c-0.0133,-0.13019 -0.02042,-0.25511 -0.02042,-0.37401v-0.54964c0,-0.08118 -0.01935,-0.15784 -0.05368,-0.22562c0.76636,-0.89589 1.61728,-1.69305 2.53391,-2.38674z" fill="#084500" stroke-width="0"/><path d="M222.43695,191.97714c0.23907,0.11974 -1.22396,1.85037 -1.52649,2.36944c-0.13121,0.22512 -0.2243,0.46632 -0.29108,0.7175c-2.0393,0.43858 -4.15146,0.49095 -6.21708,0.14251c0.12571,-0.14575 0.2249,-0.27048 0.29141,-0.3654l0.00697,-0.06583l0.01912,0.00705l0.30196,-0.81884c0.02251,-0.05691 0.03488,-0.11893 0.03488,-0.18384c0,-0.21494 -0.13562,-0.3982 -0.32596,-0.46888c0.63224,-1.02289 1.1855,-2.30163 1.44351,-2.8439l0.00203,-0.02794l0.00758,0.00265l0.03736,-0.10696c2.16639,0.63501 4.63964,0.26698 6.21578,1.64241z" fill="#084500" stroke-width="0"/><path d="M228.66973,178.5207c-0.00122,-0.01976 -0.00306,-0.03945 -0.00545,-0.05907c0.32786,-0.25853 0.66091,-0.50891 0.99295,-0.76001c0.09127,0.12082 0.23612,0.1989 0.39921,0.1989c0.18532,0 0.3471,-0.10082 0.43346,-0.25061l0.28681,-0.47801c0.42198,-0.30597 0.86899,-0.71695 1.27504,-1.19331l0.0552,-0.04068c0.0507,-0.03647 0.0943,-0.08221 0.12831,-0.13473c0.07553,-0.01038 0.14144,-0.03027 0.19438,-0.06249c0.93841,-0.57127 1.01424,-1.3479 0.93554,-2.15233c0.10449,-0.42181 0.13691,-0.84747 0.07226,-1.26197l0.07494,0.02498l0.03145,-0.09434c0.05083,-0.02084 0.09747,-0.04982 0.1383,-0.0853c0.03596,0.00822 0.0734,0.01256 0.11185,0.01256c0.1996,0 0.37189,-0.11696 0.45206,-0.28608l0.31199,-0.62398c0.25887,-0.38863 0.51205,-0.92013 0.70582,-1.4826c0.13554,0.5328 0.36028,1.08912 0.67985,1.06979c0.7504,-0.0454 1.40017,-2.33274 0.76886,-2.77906c-0.1254,-0.08865 -0.36868,-0.08551 -0.66934,-0.02565l0.10743,-0.32229c0.25414,-0.77788 0.35819,-1.19338 0.28736,-1.66076c0.11018,0.04973 0.23499,0.07974 0.37448,0.0853c-0.00055,0.00958 -0.00082,0.01923 -0.00082,0.02894c0,0.06965 0.01424,0.13598 0.03997,0.19622l0.21564,0.53911l0.00211,-0.00085l0.00019,0.00649c0.50765,1.18384 1.17302,2.66138 1.32186,4.11476l-0.16619,0.06648l0.09379,0.23448l-0.05023,0.06053c-0.33054,0.18196 -0.62264,0.42774 -0.82859,0.72393l-0.32093,0.48139c-0.05536,0.08048 -0.08777,0.17797 -0.08777,0.28304c0,0.05128 0.00772,0.10076 0.02206,0.14733c-0.01025,0.006 -0.02057,0.01206 -0.03095,0.01819l-0.01698,-0.01698l-0.06786,0.06786c-0.09489,0.05769 -0.19465,0.12089 -0.29952,0.18986l-0.02338,0.08798l-0.03301,-0.02476l-0.32675,0.43567c-0.06462,0.08425 -0.10303,0.18966 -0.10303,0.30404c0,0.1471 0.06352,0.27935 0.16462,0.37085c-0.45184,0.40653 -0.7969,0.8621 -0.9462,1.42253l-0.02007,0.01748l-0.05762,-0.05612l-0.21812,0.22395h-0.02189v0.02248l-0.45737,0.46959c-0.08796,0.09012 -0.14215,0.21333 -0.14215,0.34921c0,0.17033 0.08517,0.32078 0.21526,0.41105c-0.65645,0.04426 -1.26243,-0.06644 -2.04099,0.52922c-0.91283,0.69839 -2.26402,2.71021 -2.32252,3.84892c-0.01293,0.25178 -0.09689,-0.54403 -0.29901,-0.69472c-0.14668,-0.16694 -0.28757,-0.34683 -0.42725,-0.531c-0.02068,-0.11798 -0.08419,-0.28964 -0.27572,-0.36699c-0.23671,-0.31441 -0.47858,-0.6248 -0.74772,-0.88939c0.08797,-0.21014 0.13061,-0.44707 0.11437,-0.70904z" fill="#084500" stroke-width="0"/><path d="M242.09113,155.4417c-0.2868,-0.65635 -0.0617,-1.98945 0.45886,-2.98635c0.05414,0.02238 0.11027,0.03995 0.16891,0.05145c0.11782,0.02311 0.26558,-0.02467 0.42911,-0.09974c0.4006,0.16157 0.77377,0.35532 1.10777,0.58493c0.01705,0.15625 0.03256,0.31592 0.04771,0.47415c-0.02509,0.06334 -0.05019,0.12668 -0.07528,0.19002h-0.16131v0.76949c0,0.27614 0.22386,0.5 0.5,0.5c0.24578,0 0.45013,-0.17733 0.49211,-0.41102l0.10132,-0.50659c0.01544,-0.03818 0.03088,-0.07636 0.04633,-0.11454c0.10003,0.13489 0.19041,0.27717 0.2702,0.42713c-0.0349,0.78333 -0.01097,1.55532 0.22052,2.1481l-0.00863,0.0151l-0.1332,-0.00784l-0.01898,0.32268c-0.00795,0.00899 -0.0159,0.01799 -0.02385,0.02698l0.0194,0.04876l-0.00468,0.07958h-0.03147v0.54964c0,0.27614 0.22386,0.5 0.5,0.5c0.17024,0 0.32061,-0.08508 0.41091,-0.21505c0.07094,0.18982 0.25394,0.32498 0.46851,0.32498c0.00788,0 0.01571,-0.00018 0.02349,-0.00054c0.02467,0.23774 0.0442,0.47584 0.05858,0.71411c-0.36635,-0.23871 -0.7393,-0.46593 -1.12371,-0.67319c-0.97348,-0.52485 -2.25101,-0.55459 -3.01375,-1.40155c0,0 -0.01856,-0.01984 -0.05167,-0.04594c0.01582,-0.42626 -0.49201,-0.84098 -0.67717,-1.26474z" fill="#084500" stroke-width="0"/><path d="M226.17625,158.99162c0.39807,-0.21953 0.43653,-0.72852 0.39813,-1.27965c0.13731,0.05522 0.32044,0.07087 0.55918,0.03556c0.72467,-0.10719 1.49876,-1.29068 1.93463,-2.42211c0.08497,0.15483 0.24954,0.25978 0.43862,0.25978c0.22122,0 0.40889,-0.14367 0.47479,-0.34279l0.33242,-0.93078l-0.07057,-0.0252c0.11477,-0.2227 0.20532,-0.44551 0.28942,-0.70972c0.10734,-0.04642 0.21552,-0.09153 0.32446,-0.13541c0.79165,0.29423 1.66671,0.27449 2.49694,0.27514c0,0 0.5,0 0.5,-0.5c0,-0.03297 -0.00217,-0.06376 -0.00624,-0.09253c0.24102,0.1381 0.47742,0.28149 0.70913,0.42997c-1.73364,0.90312 -1.8352,4.57759 -0.53837,6.13633c0.22407,0.26932 0.82586,0.15491 0.93013,0.48937c0.11235,0.36036 -0.72864,0.20301 -1.10103,0.26472c-1.95574,1.17526 -4.2545,0.49016 -6.12368,1.37984c-1.04076,0.49537 -1.49465,2.04169 -2.91581,1.85796c-0.50194,-0.06489 -0.37909,-0.95313 -0.68989,-1.3526c0,0 -0.00364,-0.00459 -0.01062,-0.01238c0.24744,-0.37443 0.4858,-0.80036 0.70481,-1.22332c0.00811,0.006 0.01641,0.01175 0.02488,0.01726c0.04229,0.23331 0.24646,0.41024 0.49197,0.41024c0.14605,0 0.27747,-0.06262 0.36889,-0.16247c0.38956,0.3486 1.02487,0.60025 1.49988,0.60218h0.10993c0,0 0.5,0 0.5,-0.5c0,-0.5 -0.5,-0.5 -0.5,-0.5h-0.10993c-0.70614,0.00343 -0.8029,-0.24525 -0.88089,-0.72509l0.1711,-0.00828l-0.03343,-0.69107c-0.00959,-0.22924 -0.17354,-0.41859 -0.39062,-0.46683c0.00183,-0.01124 0.00362,-0.02247 0.0054,-0.03366c0.037,-0.01113 0.07255,-0.02581 0.10637,-0.04447z" fill="#084500" stroke-width="0"/><path d="M227.66859,155.70351c0.02313,-0.00018 0.04613,-0.00036 0.06901,-0.00061c-0.47256,0.852 -0.6775,1.22437 -0.06901,0.00061z" fill="#084500" stroke-width="0"/><path d="M229.01,151.5824c0.0177,0.01169 0.0359,0.02313 0.05455,0.03434c-0.01994,0.01052 -0.03974,0.02138 -0.05938,0.03259c0.00183,-0.02235 0.00344,-0.04467 0.00483,-0.06693z" fill="#084500" stroke-width="0"/><path d="M217.80346,169.64882c0.09254,-0.03779 2.21375,-1.44158 2.22289,-1.24138c0.02941,0.64372 0.38841,2.66674 1.14875,3.13793c1.66629,1.03263 1.94741,-1.65908 2.84911,-1.39597c0.32825,0.09578 0.60137,0.35709 0.93852,0.4141c0.06084,0.00803 0.12994,0.01869 0.20465,0.02991c-0.14121,1.09366 -1.33041,3.66893 -1.17064,4.3803c0.09914,0.44144 -0.38225,-0.91936 -0.79792,-1.098c-0.93278,-0.40088 -1.61482,-0.09964 -1.84764,0.80103c-0.40062,0.45197 -0.28011,0.90559 -0.58747,1.18177c-0.12272,-0.09156 -0.33639,-0.18139 -0.58887,0.00981c-0.07641,0.05787 -0.12707,0.11928 -0.15907,0.18077c-0.51185,-0.0757 -1.36534,-0.3834 -0.90758,-0.91596c0.68751,-0.79987 1.64935,-0.40983 1.22241,-1.83771c-0.33801,-1.13048 -2.01949,-2.52712 -2.73209,-3.47267c0,0 -0.02418,-0.03192 -0.06788,-0.07085c0.08026,-0.02812 0.17026,-0.0612 0.27282,-0.10308z" fill="#084500" stroke-width="0"/><path d="M217.08946,168.45034c-1.03001,-0.20488 -0.89377,-1.08483 -2.12731,-0.6843c-1.32541,0.43036 -1.32,2.62616 -2.00618,1.2969c-0.45772,-0.77199 -0.23136,-1.4751 -1.4259,-1.74337c-0.48498,-0.10892 -1.55001,0.19685 -1.46223,-0.29239c0.16067,-0.89541 1.58334,-1.68385 1.79456,-2.3566c0.4766,-1.51796 -3.35219,-3.0157 -4.51569,-3.01727c-0.49207,0.06578 -0.54549,-0.44117 -0.4226,-1.12019c4.36416,-0.14568 8.67369,1.468 11.89865,4.51601c-0.58192,1.2014 -1.60913,3.42592 -1.73329,3.40122z" fill="#084500" stroke-width="0"/><path d="M218.01499,173.54118c-0.09806,0.49029 -0.58835,0.39223 -0.58835,0.39223l-0.65567,-0.14376c-0.60698,-0.52352 -2.63828,0.46605 -3.82908,0.00779c0,0 -0.46424,-0.1857 -0.27854,-0.64993c0.1857,-0.46424 0.64993,-0.27854 0.64993,-0.27854c1.44928,0.61043 2.67868,-0.79587 3.86586,0.00779l0.44361,0.07609c0,0 0.49029,0.09806 0.39223,0.58835z" fill="#8d0000" stroke-width="0.5"/><path d="M217.8063,169.45109c0.47434,-0.15811 0.63246,0.31623 0.63246,0.31623l0.13559,0.4879c-0.00483,0.99227 0.43565,1.85748 0.43971,2.85812c0,0 0,0.5 -0.5,0.5c-0.5,0 -0.5,-0.5 -0.5,-0.5c0.00483,-0.99227 -0.43565,-1.85748 -0.43971,-2.85812l-0.08427,-0.17167c0,0 -0.15811,-0.47434 0.31623,-0.63246z" fill="#8d0000" stroke-width="0.5"/><path d="M222.56255,170.05288c0.05362,-0.13867 0.17658,-0.29767 0.45853,-0.29767c0.5,0 0.5,0.5 0.5,0.5l-0.5,0.82978c-2.37465,-0.00965 -1.73901,-1.77012 -3.1247,-2.60533c-0.57028,-0.34373 -1.28957,0.34688 -1.78949,0.49598c-0.95132,0.28373 -2.16988,0.22389 -3.07636,-0.12496c0,0 -0.46424,-0.1857 -0.27854,-0.64993c0.1857,-0.46424 0.64993,-0.27854 0.64993,-0.27854c1.69199,0.71266 3.62973,-1.17435 5.02763,-0.28855c1.20977,0.76659 0.70059,2.18801 2.133,2.41922z" fill="#8d0000" stroke-width="0.5"/><path d="M220.76224,167.3971c0,-0.27614 0.22386,-0.5 0.5,-0.5c0.27614,0 0.5,0.22386 0.5,0.5c0,0.27614 -0.22386,0.5 -0.5,0.5c-0.27614,0 -0.5,-0.22386 -0.5,-0.5z" fill="#8d0000" stroke-width="0.5"/><path d="M224.39045,166.65972c-0.00544,-0.00391 -0.0108,-0.00645 -0.01607,-0.00759zM224.41515,166.68578c-0.11364,-0.01096 -0.46501,-0.07874 -0.46501,-0.49789c0,-0.5 0.5,-0.5 0.5,-0.5l0.29562,0.03576c0.90514,0.44069 1.17771,2.83851 1.19373,3.98192c0,0 0,0.5 -0.5,0.5c-0.5,0 -0.5,-0.5 -0.5,-0.5c0.01186,-0.5985 -0.30859,-2.72379 -0.52434,-3.0198z" fill="#8d0000" stroke-width="0.5"/><path d="M216.81456,182.44532c-0.09806,-0.49029 0.39223,-0.58835 0.39223,-0.58835l0.41177,-0.06047c0.53591,-0.57989 2.2386,-1.60271 1.97254,-2.55572c-0.0892,-0.31951 -1.73862,-0.44707 -1.97633,-0.98373c-0.07294,-0.16467 -0.06469,-1.9244 -0.14065,-2.29745c0,0 -0.09806,-0.49029 0.39223,-0.58835c0.49029,-0.09806 0.58835,0.39223 0.58835,0.39223c0.09357,0.47796 0.03291,1.96752 0.07921,2.09965c0.10209,0.29134 1.65703,0.34313 1.98106,0.99497c0.74184,1.49231 -1.56091,3.00285 -2.42456,3.82008l-0.68751,0.15938c0,0 -0.49029,0.09806 -0.58835,-0.39223z" fill="#8d0000" stroke-width="0.5"/><path d="M213.99312,178.31005c0.24277,-0.43711 0.67988,-0.19434 0.67988,-0.19434l0.52938,0.33492c0.60104,0.74641 0.94375,1.1942 1.73102,0.52557c0,0 0.38775,-0.31568 0.70342,0.07206c0.31568,0.38775 -0.07206,0.70342 -0.07206,0.70342c-1.29632,1.02399 -2.18515,0.48986 -3.13788,-0.66969l-0.23943,-0.09208c0,0 -0.43711,-0.24277 -0.19434,-0.67988z" fill="#8d0000" stroke-width="0.5"/><path d="M221.31188,191.47125c0,-0.14659 0.04297,-0.2502 0.10373,-0.32343c-0.02892,-0.36097 -0.15119,-0.51995 -0.50692,-0.862c0,0 -0.35355,-0.35355 0,-0.70711c0.24254,-0.24254 0.48507,-0.15231 0.61347,-0.07174c-0.7553,-0.63874 -1.63047,-1.22379 -1.94092,-1.53814c-0.0842,-0.08526 -0.76878,-1.41101 -0.89224,-1.38605c-0.06641,0.01343 -0.13099,0.02937 -0.19405,0.04739c1.03888,0.70248 1.13642,2.05201 1.38881,3.31397c0,0 0.09806,0.49029 -0.39223,0.58835c-0.49029,0.09806 -0.58835,-0.39223 -0.58835,-0.39223c-0.17831,-0.89155 -0.22488,-2.5791 -1.20681,-2.81162l-0.17167,0.02566c0,0 -0.20644,0 -0.35402,-0.13265c-0.30979,0.13374 -0.64531,0.2354 -1.05369,0.2423c0.20809,-0.34094 0.3822,-0.68688 0.46527,-1.04442c0.00195,-0.00841 0.00387,-0.01681 0.00575,-0.02521c0.76971,-0.21542 1.47649,-0.85139 2.19081,-0.8075c0.9106,0.05595 1.03126,1.20474 1.52617,1.69192c1.36369,1.34242 6.23886,4.76543 1.42952,5.77106c-0.60841,0.24607 -1.18669,0.48986 -1.77758,0.7809l-0.66241,-0.78306c0,0 -0.25725,-0.42875 0.1715,-0.68599c0.42875,-0.25725 0.68599,0.1715 0.68599,0.1715l-0.00285,0.31621c0.1819,-0.50715 0.82903,-0.57134 1.3004,-0.75809c2.08845,-0.39588 1.34307,-1.47548 0.21516,-2.46176c0.56826,0.59574 0.74522,0.99345 0.7571,1.84175l-0.60993,0.5c0,0 -0.5,0 -0.5,-0.5z" fill="#8d0000" stroke-width="0.5"/><path d="M209.82977,166.13825c-0.5,0 -0.5,-0.5 -0.5,-0.5v-0.10993c0.00075,-0.53501 0.04799,-1.07005 0.11379,-1.601c0,0 0.06202,-0.49614 0.55816,-0.43412c0.49614,0.06202 0.43412,0.55816 0.43412,0.55816c-0.06178,0.48971 -0.10683,0.98338 -0.10607,1.47697v0.10993c0,0 0,0.5 -0.5,0.5z" fill="#8d0000" stroke-width="0.5"/><path d="M225.35333,176.87465c-0.35355,0.35355 -0.70711,0 -0.70711,0l-0.22061,-0.27779c-0.05967,-0.53356 -1.78169,0.51197 -2.39388,0.53416c0,0 -0.5,0 -0.5,-0.5c0,-0.5 0.5,-0.5 0.5,-0.5c1.35176,0.08859 2.34606,-1.78662 3.32236,0.09445l-0.00076,-0.05793c0,0 0.35355,0.35355 0,0.70711z" fill="#8d0000" stroke-width="0.5"/><path d="M233.88024,174.04519c0.27735,0.41603 -0.13868,0.69338 -0.13868,0.69338l-0.35906,0.23795c-1.90016,1.07224 -1.37637,3.23316 -3.60764,3.99762c0,0 -0.47434,0.15811 -0.63246,-0.31623c-0.15811,-0.47434 0.31623,-0.63246 0.31623,-0.63246c0.14388,-0.04629 0.27512,-0.10256 0.39568,-0.16748c0.06181,0.02735 0.1302,0.04254 0.20213,0.04254c0.18532,0 0.3471,-0.10082 0.43346,-0.25061l0.28681,-0.47801c0.42198,-0.30597 0.86899,-0.71695 1.27504,-1.19331l0.0552,-0.04068c0.08662,-0.06231 0.15249,-0.15164 0.18529,-0.25565c0.42927,-0.55617 0.79169,-1.18303 0.99705,-1.82641c0.14098,-0.05446 0.39914,-0.0984 0.59096,0.18934z" fill="#8d0000" stroke-width="0.5"/><path d="M244.65306,195.3425c-0.35355,-0.35355 0,-0.70711 0,-0.70711l0.27779,-0.22061c1.4125,-0.565 3.06185,-1.72169 4.48825,-2.00544c0.72749,-0.14472 1.90005,0.35487 2.33282,-0.35866c0,0 0.3,-0.4 0.7,-0.1c0.4,0.3 0.1,0.7 0.1,0.7c-0.91085,1.09863 -1.75629,0.50134 -2.94371,0.74062c-1.35755,0.27356 -2.94351,1.40698 -4.30596,1.95196l0.05793,-0.00076c0,0 -0.35355,0.35355 -0.70711,0z" fill="#8d0000" stroke-width="0.5"/><path d="M235.7124,173.22326c0,-0.27614 0.22386,-0.5 0.5,-0.5c0.27614,0 0.5,0.22386 0.5,0.5c0,0.00962 -0.00027,0.01918 -0.00081,0.02867c-0.02416,0.01562 -0.0486,0.03156 -0.07332,0.04782l-0.02338,0.08798l-0.03301,-0.02476l-0.26144,0.34858c-0.03479,0.00766 -0.07095,0.0117 -0.10805,0.0117c-0.27614,0 -0.5,-0.22386 -0.5,-0.5z" fill="#8d0000" stroke-width="0.5"/><path d="M236.04322,168.05669l0.10743,-0.32229c0.07927,-0.24264 0.14394,-0.45003 0.19326,-0.63473c0.22443,-0.17257 0.42197,-0.35161 0.57905,-0.53727l0.14433,0.36083l0.00211,-0.00085l0.00019,0.00649c0.08555,0.19949 0.17557,0.40733 0.26685,0.62198c-0.19986,0.17721 -0.42383,0.34625 -0.66295,0.50858c-0.13329,-0.06463 -0.3583,-0.05689 -0.63026,-0.00275z" fill="#8d0000" stroke-width="0.5"/><path d="M237.04124,161.47287c0.00439,-0.02194 0.00956,-0.04271 0.01544,-0.06236c-0.46486,-0.02286 -0.46486,-0.49915 -0.46486,-0.49915c0.00106,-0.50525 0.03486,-1.01268 0.11673,-1.51126l-0.0068,-0.02773c0,0 0,-0.5 0.5,-0.5c0.5,0 0.5,0.5 0.5,0.5l-0.0068,0.19213c-0.07523,0.44394 -0.10418,0.89659 -0.10312,1.34686c0,0 0,0.07243 -0.02757,0.16215c0.04013,0.00208 0.06534,0.00712 0.06534,0.00712l0.50085,0.10265c1.96647,0.06936 1.20523,1.97626 2.69892,1.97626c0,0 0.5,0 0.5,0.5c0,0.5 -0.5,0.5 -0.5,0.5c-0.54233,0 -0.88677,-0.15489 -1.13148,-0.3781c-0.02286,-0.0739 -0.04607,-0.14912 -0.06953,-0.2258l-0.01413,-0.01493l0.00753,-0.00295l-0.19127,-0.48914c-0.06405,-0.17574 -0.22389,-0.30544 -0.41634,-0.32594c-0.19949,-0.32501 -0.45284,-0.5695 -0.97411,-0.54468l-0.2403,-0.27463c-0.09168,-0.10589 -0.22709,-0.17288 -0.37815,-0.17288c-0.12179,0 -0.23341,0.04354 -0.32014,0.11591c-0.05941,-0.08742 -0.09328,-0.20817 -0.0602,-0.37355z" fill="#8d0000" stroke-width="0.5"/><path d="M207.57092,174.76225c0,-0.5 0.5,-0.5 0.5,-0.5h0.54964c0,0 0.5,0 0.5,0.5c0,0.5 -0.5,0.5 -0.5,0.5h-0.54964c0,0 -0.5,0 -0.5,-0.5z" fill="#8d0000" stroke-width="0.5"/><path d="M230.28381,201.8082c-0.22361,0.44721 -0.67082,0.22361 -0.67082,0.22361l-0.38668,-0.24479c-0.65976,-0.82485 -1.16818,-1.67488 -1.6926,-2.59261c0,0 -0.24807,-0.43412 0.18605,-0.68219c0.43412,-0.24807 0.68219,0.18605 0.68219,0.18605c0.49926,0.8737 0.97738,1.67939 1.60523,2.46406l0.05303,-0.02494c0,0 0.44721,0.22361 0.22361,0.67082z" fill="#8d0000" stroke-width="0.5"/><path d="M251.68665,182.61531c0.01728,0.00375 0.03491,0.00864 0.05289,0.01478c-0.05527,-0.08044 -0.08762,-0.17785 -0.08762,-0.28283c0,-0.27614 0.22386,-0.5 0.5,-0.5c0.27614,0 0.5,0.22386 0.5,0.5c0,0.27614 -0.22386,0.5 -0.5,0.5c-0.04531,0 -0.08922,-0.00603 -0.13095,-0.01732c0.1993,0.26121 -0.00267,0.56417 -0.00267,0.56417l-1.12617,0.15049c-0.03664,-0.18321 -0.07329,-0.36643 -0.10993,-0.54964c0,0 -0.09806,-0.49029 0.39223,-0.58835c0.28143,-0.05629 0.43363,0.08128 0.51222,0.2087z" fill="#8d0000" stroke-width="0.5"/><path d="M249.02858,173.76156c0.12127,-0.48507 0.60634,-0.3638 0.60634,-0.3638l0.73447,0.31765c0.73795,1.1316 1.24529,1.97028 1.80239,3.26829c0,0 0.19696,0.45957 -0.26261,0.65653c-0.45957,0.19696 -0.65653,-0.26261 -0.65653,-0.26261c-0.55259,-1.29118 -0.96135,-1.9964 -1.71529,-3.10751l-0.14495,0.09779c0,0 -0.48507,-0.12127 -0.3638,-0.60634z" fill="#8d0000" stroke-width="0.5"/><path d="M244.73712,193.01024c0,0.5 -0.5,0.5 -0.5,0.5c-0.18321,0 -0.91606,0 -1.09928,0c0,0 -0.5,0 -0.5,-0.5c0,-0.5 0.5,-0.5 0.5,-0.5c0.18321,0 0.36643,0 0.54964,0h0.54964c0,0 0.5,0 0.5,0.5z" fill="#8d0000" stroke-width="0.5"/><path d="M242.69813,187.45357c0.28572,0 0.40817,0.16328 0.46065,0.30322c0.11541,0.06925 0.23083,0.1385 0.34624,0.20774c0,0 0.42875,0.25725 0.1715,0.68599c-0.25725,0.42875 -0.68599,0.1715 -0.68599,0.1715c-0.18321,-0.10993 -0.36643,-0.21986 -0.54964,-0.32978l-0.24275,-0.53867c0,0 0,-0.5 0.5,-0.5z" fill="#8d0000" stroke-width="0.5"/><path d="M225.32206,196.74403c0.22361,-0.44721 0.67082,-0.22361 0.67082,-0.22361l0.18194,0.0929c2.4487,0.98054 4.96349,0.65481 7.48823,0.38819c0.10777,0.32464 0.21978,0.64137 0.32615,0.94444c-2.75641,0.26183 -5.46989,0.68107 -8.18578,-0.40416l-0.25777,-0.12695c0,0 -0.44721,-0.22361 -0.22361,-0.67082z" fill="#8d0000" stroke-width="0.5"/><path d="M236.65211,196.79741c0,0 0.5,0 0.5,0.5c0,0.29562 -0.17478,0.41646 -0.31767,0.46585l-0.02173,-0.25823c-0.01902,-0.25878 -0.235,-0.46282 -0.49864,-0.46282c-0.22532,0 -0.41583,0.14904 -0.47832,0.35391l-0.13982,0.42271c-0.02636,0.0012 -0.05272,0.00245 -0.07907,0.00375c-0.17897,-0.32383 -0.32479,-0.64378 -0.44526,-0.96248c0.49369,-0.03693 0.98733,-0.06121 1.48051,-0.06268z" fill="#8d0000" stroke-width="0.5"/><path d="M221.42181,197.07756c0,-0.5 0.5,-0.5 0.5,-0.5c0.47635,0 1.39242,0 1.86877,0c0,0 0.5,0 0.5,0.5c0,0.5 -0.5,0.5 -0.5,0.5c-0.47635,0 -0.95271,0 -1.42906,0h-0.43971c0,0 -0.5,0 -0.5,-0.5z" fill="#8d0000" stroke-width="0.5"/><path d="M215.63226,192.40818c-0.15781,0.23671 -0.36051,0.24895 -0.50593,0.21553c0.15531,-0.28706 0.30186,-0.57705 0.43567,-0.85169c0.10491,0.10159 0.27319,0.33175 0.07026,0.63616z" fill="#8d0000" stroke-width="0.5"/><path d="M221.37217,182.84726c-0.5,0 -0.5,-0.5 -0.5,-0.5v-0.54964c0,0 0,-0.5 0.5,-0.5c0.5,0 0.5,0.5 0.5,0.5v0.54964c0,0 0,0.5 -0.5,0.5z" fill="#8d0000" stroke-width="0.5"/><path d="M243.57756,168.55667c0,0 -0.5,0 -0.5,-0.5c0,-0.5 0.5,-0.5 0.5,-0.5c1.4726,0 2.29337,-0.7285 3.31574,-1.21007c0.01963,0.03077 0.04254,0.05924 0.06823,0.08493l0.42527,0.42527c0.05499,0.06792 0.1114,0.13384 0.16915,0.19779c-1.31374,0.43164 -2.1559,1.50209 -3.97838,1.50209z" fill="#8d0000" stroke-width="0.5"/><path d="M248.79235,165.93341l0.5816,0.40412c0,0 0.02088,0.01566 0.04952,0.04459c-0.1043,-0.00163 -0.21428,0.00959 -0.33174,0.03296l-0.04523,-0.15831l-0.55929,0.1598c-0.0438,-0.00518 -0.08973,-0.00899 -0.13787,-0.01146l-0.4086,-0.4086c0.26028,-0.04874 0.54147,-0.07283 0.85162,-0.0631z" fill="#8d0000" stroke-width="0.5"/><path d="M213.61694,163.65956c0,-0.5 0.5,-0.5 0.5,-0.5c0.51655,0 1.68201,0 2.19855,0c0,0 0.5,0 0.5,0.5c0,0.5 -0.5,0.5 -0.5,0.5c-0.51655,0 -1.03309,0 -1.54964,0h-0.64891c0,0 -0.5,0 -0.5,-0.5z" fill="#8d0000" stroke-width="0.5"/><path d="M252.75119,160.91136c0,-0.09763 0.02798,-0.18873 0.07637,-0.2657c-0.00535,0.0991 -0.01596,0.21107 -0.03,0.33989l-0.02813,0.06011c-0.01189,-0.04274 -0.01824,-0.08778 -0.01824,-0.1343z" fill="#8d0000" stroke-width="0.5"/><path d="M229.66492,156.58956c0.47434,0.15811 0.31623,0.63246 0.31623,0.63246l-0.09107,0.25387c-0.03664,0.21986 -0.07329,0.43971 -0.10993,0.65957c0,0 -0.0822,0.4932 -0.5754,0.411c-0.4932,-0.0822 -0.411,-0.5754 -0.411,-0.5754c0.03664,-0.21986 0.07329,-0.43971 0.10993,-0.65957l0.12878,-0.4057c0,0 0.15811,-0.47434 0.63246,-0.31623z" fill="#8d0000" stroke-width="0.5"/><path d="M243.47949,153.15709c-0.49029,-0.09806 -0.39223,-0.58835 -0.39223,-0.58835c0.01085,-0.05124 0.02263,-0.1013 0.03529,-0.15016c0.00845,-0.00376 0.01694,-0.00761 0.02547,-0.01152c0.31642,0.12762 0.61573,0.27532 0.89214,0.4449c-0.05467,0.13607 -0.20373,0.37652 -0.56067,0.30513z" fill="#8d0000" stroke-width="0.5"/><path d="M230.59421,185.91552c-0.49029,0.09806 -0.58835,-0.39223 -0.58835,-0.39223l-0.11246,-0.56328c-0.09797,-0.69218 -0.25761,-1.47875 0.03637,-2.15727c0.25732,-0.59392 1.21961,-0.98798 0.7972,-1.29751c0,0 -0.25725,-0.42875 0.1715,-0.68599c0.42875,-0.25725 0.68599,0.1715 0.68599,0.1715c0.56236,1.29639 -0.94619,2.1325 -0.70542,3.80044l0.1074,0.536c0,0 0.09806,0.49029 -0.39223,0.58835z" fill="#8d0000" stroke-width="0.5"/><path d="M233.19894,178.53018c0.11391,0.08103 0.3333,0.292 0.16283,0.63293c-0.1362,0.27239 -0.35535,0.29592 -0.50587,0.27269c-0.66378,0.51909 -1.94937,-0.35699 -0.6563,-1.11189c0.01526,-0.15201 0.09309,-0.36354 0.39704,-0.42433c0.49029,-0.09806 0.58835,0.39223 0.58835,0.39223c0.00883,0.08414 0.01335,0.16354 0.01395,0.23837z" fill="#8d0000" stroke-width="0.5"/></g></g></svg>