<svg version="1.1" xmlns="http://www.w3.org/2000/svg" xmlns:xlink="http://www.w3.org/1999/xlink" width="97.9" height="92" viewBox="0,0,97.9,92"><g transform="translate(-166.5,-249)"><g data-paper-data="{&quot;isPaintingLayer&quot;:true}" fill-rule="nonzero" stroke="none" stroke-linecap="butt" stroke-linejoin="miter" stroke-miterlimit="10" stroke-dasharray="" stroke-dashoffset="0" style="mix-blend-mode: normal"><g stroke-width="0"><path d="M264.4,294c0,24.85281 -20.81876,45 -46.5,45c-25.68124,0 -46.5,-20.14719 -46.5,-45c0,-24.85281 20.81876,-45 46.5,-45c25.68124,0 46.5,20.14719 46.5,45z" fill="#7a4d00"/><path d="M256.4,297.5c0,24.02438 -20.1248,43.5 -44.95,43.5c-24.8252,0 -44.95,-19.47562 -44.95,-43.5c0,-24.02438 20.1248,-43.5 44.95,-43.5c24.8252,0 44.95,19.47562 44.95,43.5z" fill="#c27b00"/></g><text transform="translate(171.5,304) scale(0.5,0.5)" font-size="40" xml:space="preserve" fill="#7a4d00" fill-rule="nonzero" stroke="none" stroke-width="1" stroke-linecap="butt" stroke-linejoin="miter" stroke-miterlimit="10" stroke-dasharray="" stroke-dashoffset="0" font-family="Pixel" font-weight="normal" text-anchor="start" style="mix-blend-mode: normal"><tspan x="0" dy="0">Retry ?</tspan></text></g></g></svg>