<svg version="1.1" xmlns="http://www.w3.org/2000/svg" xmlns:xlink="http://www.w3.org/1999/xlink" width="80.3578" height="66.22418" viewBox="0,0,80.3578,66.22418"><defs><radialGradient cx="239.5" cy="174.1875" r="19.8125" gradientUnits="userSpaceOnUse" id="color-1"><stop offset="0" stop-color="#b4f5ff"/><stop offset="1" stop-color="#b4f5ff" stop-opacity="0"/></radialGradient></defs><g transform="translate(-199.29088,-139.171)"><g data-paper-data="{&quot;isPaintingLayer&quot;:true}" fill-rule="nonzero" stroke="none" stroke-linecap="butt" stroke-linejoin="miter" stroke-miterlimit="10" stroke-dasharray="" stroke-dashoffset="0" style="mix-blend-mode: normal"><path d="M245.25,180c0,10.94214 -2.35051,19.8125 -5.25,19.8125c-2.89949,0 -5.25,-8.87036 -5.25,-19.8125c0,-10.94214 2.35051,-19.8125 5.25,-19.8125c2.89949,0 5.25,8.87036 5.25,19.8125z" fill="url(#color-1)" stroke-width="0"/><path d="M214.32722,175.66432c-0.30317,1.21268 -1.51585,0.90951 -1.51585,0.90951l-1.86669,-0.54093c-0.53432,-0.70789 -1.25783,-1.30667 -1.60297,-2.12367c-1.28523,-3.04234 0.87433,-6.97362 -1.3069,-10.01423c-0.73477,-1.02426 -2.85796,-2.42084 -3.88944,-2.89835c-1.1734,-0.54321 -2.54891,-0.43707 -3.82108,-0.66838c0,0 -1.22984,-0.22361 -1.00623,-1.45344c0.22361,-1.22984 1.45344,-1.00623 1.45344,-1.00623c5.41737,0.98498 9.90318,3.06401 10.79574,9.03346c0.32821,2.19508 -0.56783,5.24787 0.76031,7.04815l1.09017,0.19828c0,0 1.21268,0.30317 0.90951,1.51585z" fill="#d4f9ff" stroke-width="0.5"/><path d="M229.89155,144.90867c0.88388,0.88388 0,1.76777 0,1.76777l-0.6231,0.60533c-1.09735,1.46274 -2.11608,3.0502 -3.44421,3.76488c1.83237,3.65205 3.18503,7.67985 4.03405,11.47669c0,0 0.27116,1.22023 -0.94907,1.4914c-1.22023,0.27116 -1.4914,-0.94907 -1.4914,-0.94907c-0.86425,-3.91547 -2.31721,-8.15224 -4.30998,-11.85702c-0.22717,-0.08016 -0.46268,-0.18297 -0.70727,-0.31034c0,0 -0.96702,-0.64468 -0.41454,-1.62323c-0.41887,-0.66862 -0.85726,-1.31205 -1.31483,-1.9243l-1.04839,-1.04394c0,0 -0.88388,-0.88388 0,-1.76777c0.88388,-0.88388 1.76777,0 1.76777,0l1.16926,1.1737c0.76195,1.01262 1.47382,2.09951 2.13479,3.23938c0.96355,-0.54249 2.14224,-2.59477 2.57383,-3.17038l0.85533,-0.8731c0,0 0.88388,-0.88388 1.76777,0z" fill="#d4f9ff" stroke-width="0.5"/><path d="M265.37386,151.192c0.88388,0.88388 0,1.76777 0,1.76777l-0.73921,0.73921c-0.92603,0.92387 -1.74689,1.69715 -2.70816,2.2954c0.9149,2.52327 -2.08081,7.15524 -2.9153,9.44659l0.07586,0.31039c0,0 0,1.25 -1.25,1.25c-1.25,0 -1.25,-1.25 -1.25,-1.25l0.07586,-1.16804c0.73884,-2.01766 1.57037,-3.97528 2.322,-5.98752c0.19452,-0.52077 0.90324,-0.99969 0.69605,-1.51556c-0.01537,-0.03828 -0.03555,-0.07003 -0.05984,-0.09626c-0.00082,0.00022 -0.00165,0.00044 -0.00247,0.00066c0,0 -0.46221,0.11555 -0.88726,-0.08138c-0.17034,0.00719 -0.3325,-0.00421 -0.45727,-0.07714c-1.13375,-0.66274 -2.26608,-1.51469 -3.57071,-1.66476c0,0 -1.23744,-0.17678 -1.06066,-1.41421c0.17678,-1.23744 1.41421,-1.06066 1.41421,-1.06066c1.51008,0.24695 2.94407,0.95332 4.227,1.80449c1.5488,-0.43052 2.42761,-1.40149 3.58292,-2.55975l0.73921,-0.73921c0,0 0.88388,-0.88388 1.76777,0z" fill="#d4f9ff" stroke-width="0.5"/><path d="M268.2912,182.436c0,1.25 -1.25,1.25 -1.25,1.25l-0.38938,-0.17813c-1.15856,0.66495 -1.96661,0.96708 -2.8159,1.10323c0.09626,0.75774 -0.07871,1.62673 -0.01888,2.3899c0.22641,2.88785 0,5.88854 0,8.78583v1.44832c0,0 0,1.25 -1.25,1.25c-1.25,0 -1.25,-1.25 -1.25,-1.25c0,-2.5 0,-6.44832 0,-8.94832c0,-0.97498 0.70979,-1.98954 0.36612,-2.90194c-0.10734,-0.28496 -0.53551,0.32297 -0.83695,0.36612c-0.56782,0.08128 -1.14722,0 -1.72083,0c0,0 -1.25,0 -1.25,-1.25c0,-1.25 1.25,-1.25 1.25,-1.25c0.11252,0 0.28011,-0.00178 0.48498,-0.00333c0.13779,-1.02917 1.23586,-1.02917 1.23586,-1.02917c2.19769,0 2.71094,0.29847 4.51937,-0.85436l1.67562,-0.17813c0,0 1.25,0 1.25,1.25z" fill="#d4f9ff" stroke-width="0.5"/><path d="M239.70345,205.00235c-0.88388,0.88388 -1.76777,0 -1.76777,0l-0.24115,-0.25196c-0.57361,-0.45889 -1.14722,-0.91778 -1.72083,-1.37666c0,0 -0.97609,-0.78087 -0.19522,-1.75695c0.78087,-0.97609 1.75695,-0.19522 1.75695,-0.19522c0.57361,0.45889 1.14722,0.91778 1.72083,1.37666l0.44718,0.43637c0,0 0.88388,0.88388 0,1.76777z" fill="#d4f9ff" stroke-width="0.5"/><path d="M213.50463,149.79133c-0.39528,1.18585 -1.58114,0.79057 -1.58114,0.79057l-1.5211,-0.64614c-1.87823,-1.87823 -3.19028,-4.33741 -5.90042,-4.82065c0,0 -1.22573,-0.24515 -0.98058,-1.47087c0.24515,-1.22573 1.47087,-0.98058 1.47087,-0.98058c3.3853,0.73089 4.84292,3.16936 7.1779,5.50434l0.5439,0.0422c0,0 1.18585,0.39528 0.79057,1.58114z" fill="#d2ffff" stroke-width="0.5"/><path d="M202.33795,183.93933c0.66729,0 0.97836,0.35622 1.12337,0.68833c1.57582,0 3.15164,0 4.72746,0c0,0 1.25,0 1.25,1.25c0,1.25 -1.25,1.25 -1.25,1.25c-1.95028,0 -3.90055,0 -5.85083,0l-1.25,-1.93833c0,0 0,-1.25 1.25,-1.25z" fill="#d2ffff" stroke-width="0.5"/><path d="M243.76906,141.31308c-0.11974,-0.13137 -0.79148,-0.94031 0.01745,-1.74924c0.88388,-0.88388 1.76777,0 1.76777,0l0.71028,1.22805c-0.0021,1.55113 0.11018,3.10631 0.3316,4.64155c0,0 0.17678,1.23744 -1.06066,1.41421c-1.23744,0.17678 -1.41421,-1.06066 -1.41421,-1.06066c-0.20966,-1.48081 -0.3283,-2.97787 -0.35223,-4.47391z" fill="#d2ffff" stroke-width="0.5"/><path d="M279.64868,168.66935c0,1.25 -1.25,1.25 -1.25,1.25c-0.45889,0 -1.95028,0 -2.40916,0c0,0 -1.25,0 -1.25,-1.25c0,-1.25 1.25,-1.25 1.25,-1.25c0.45889,0 0.91778,0 1.37666,0h1.0325c0,0 1.25,0 1.25,1.25z" fill="#d2ffff" stroke-width="0.5"/></g></g></svg>