<svg version="1.1" xmlns="http://www.w3.org/2000/svg" xmlns:xlink="http://www.w3.org/1999/xlink" width="62.06531" height="61.24895" viewBox="0,0,62.06531,61.24895"><g transform="translate(-216.89504,-144.14624)"><g data-paper-data="{&quot;isPaintingLayer&quot;:true}" fill-rule="nonzero" stroke="none" stroke-linecap="butt" stroke-linejoin="miter" stroke-miterlimit="10" stroke-dasharray="" stroke-dashoffset="0" style="mix-blend-mode: normal"><path d="M245.25,180c0,10.94214 -2.35051,19.8125 -5.25,19.8125c-2.89949,0 -5.25,-8.87036 -5.25,-19.8125c0,-10.94214 2.35051,-19.8125 5.25,-19.8125c2.89949,0 5.25,8.87036 5.25,19.8125z" fill="#d2ffff" stroke-width="0"/><path d="M229.89155,144.90867c0.88388,0.88388 0,1.76777 0,1.76777l-0.6231,0.60533c-1.09735,1.46274 -2.11608,3.0502 -3.44421,3.76488c1.83237,3.65205 3.18503,7.67985 4.03405,11.47669c0,0 0.27116,1.22023 -0.94907,1.4914c-1.22023,0.27116 -1.4914,-0.94907 -1.4914,-0.94907c-0.86425,-3.91547 -2.31721,-8.15224 -4.30998,-11.85702c-0.22717,-0.08016 -0.46268,-0.18297 -0.70727,-0.31034c0,0 -0.96702,-0.64468 -0.41454,-1.62323c-0.41887,-0.66862 -0.85726,-1.31205 -1.31483,-1.9243l-1.04839,-1.04394c0,0 -0.88388,-0.88388 0,-1.76777c0.88388,-0.88388 1.76777,0 1.76777,0l1.16926,1.1737c0.76195,1.01262 1.47382,2.09951 2.13479,3.23938c0.96355,-0.54249 2.14224,-2.59477 2.57383,-3.17038l0.85533,-0.8731c0,0 0.88388,-0.88388 1.76777,0z" fill="#d2ffff" stroke-width="0.5"/><path d="M268.2912,182.436c0,1.25 -1.25,1.25 -1.25,1.25l-0.38938,-0.17813c-1.15856,0.66495 -1.96661,0.96708 -2.8159,1.10323c0.09626,0.75774 -0.07871,1.62673 -0.01888,2.3899c0.22641,2.88785 0,5.88854 0,8.78583v1.44832c0,0 0,1.25 -1.25,1.25c-1.25,0 -1.25,-1.25 -1.25,-1.25c0,-2.5 0,-6.44832 0,-8.94832c0,-0.97498 0.70979,-1.98954 0.36612,-2.90194c-0.10734,-0.28496 -0.53551,0.32297 -0.83695,0.36612c-0.56782,0.08128 -1.14722,0 -1.72083,0c0,0 -1.25,0 -1.25,-1.25c0,-1.25 1.25,-1.25 1.25,-1.25c0.11252,0 0.28011,-0.00178 0.48498,-0.00333c0.13779,-1.02917 1.23586,-1.02917 1.23586,-1.02917c2.19769,0 2.71094,0.29847 4.51937,-0.85436l1.67562,-0.17813c0,0 1.25,0 1.25,1.25z" fill="#d2ffff" stroke-width="0.5"/><path d="M239.70345,205.00235c-0.88388,0.88388 -1.76777,0 -1.76777,0l-0.24115,-0.25196c-0.57361,-0.45889 -1.14722,-0.91778 -1.72083,-1.37666c0,0 -0.97609,-0.78087 -0.19522,-1.75695c0.78087,-0.97609 1.75695,-0.19522 1.75695,-0.19522c0.57361,0.45889 1.14722,0.91778 1.72083,1.37666l0.44718,0.43637c0,0 0.88388,0.88388 0,1.76777z" fill="#d4f9ff" stroke-width="0.5"/><path d="M217.05156,178.77948c0.55902,-1.11803 1.67705,-0.55902 1.67705,-0.55902l0.87932,0.4622c2.11626,1.59295 2.79123,2.06003 2.90916,4.78583c0,0 0,1.25 -1.25,1.25c-1.25,0 -1.25,-1.25 -1.25,-1.25c0.13658,-1.78352 -0.46265,-1.70529 -1.90916,-2.78583l-0.49735,-0.22613c0,0 -1.11803,-0.55902 -0.55902,-1.67705z" fill="#d2ffff" stroke-width="0.5"/><path d="M266.9131,156.39944c-0.46424,-1.1606 0.69636,-1.62483 0.69636,-1.62483l1.94868,-0.75518c2.71715,-0.03799 5.43482,-0.02255 8.15221,-0.02255c0,0 1.25,0 1.25,1.25c0,1.25 -1.25,1.25 -1.25,1.25c-2.55933,0 -5.12053,0.02806 -7.67944,-0.02255l-1.49298,0.62148c0,0 -1.1606,0.46424 -1.62483,-0.69636z" fill="#d2ffff" stroke-width="0.5"/><path d="M245.55428,153.03326c-0.88388,0.88388 -1.76777,0 -1.76777,0l-0.21028,-0.22805c-0.45889,-0.34417 -0.91778,-0.68833 -1.37666,-1.0325c0,0 -1,-0.75 -0.25,-1.75c0.75,-1 1.75,-0.25 1.75,-0.25c0.45889,0.34417 0.91778,0.68833 1.37666,1.0325l0.47805,0.46028c0,0 0.88388,0.88388 0,1.76777z" fill="#d2ffff" stroke-width="0.5"/></g></g></svg>