<svg version="1.1" xmlns="http://www.w3.org/2000/svg" xmlns:xlink="http://www.w3.org/1999/xlink" width="602.93283" height="115.81984" viewBox="0,0,602.93283,115.81984"><g transform="translate(56.50957,-304.00373)"><g data-paper-data="{&quot;isPaintingLayer&quot;:true}" fill-rule="nonzero" stroke-linejoin="miter" stroke-miterlimit="10" stroke-dasharray="" stroke-dashoffset="0" style="mix-blend-mode: normal"><path d="M-40.03003,318.54771l561.56156,3.77862" fill="none" stroke="#000000" stroke-width="2" stroke-linecap="round"/><path d="M-43.03303,397.71772v-77.93336h539.03904v77.93336z" fill="#e0d5a1" stroke="none" stroke-width="0" stroke-linecap="butt"/><path d="M64.98068,319.95124c-0.30193,-0.15096 -0.48156,-0.3427 -0.58291,-0.54217c-0.99056,0.20522 -2.35935,0.21587 -3.65378,-0.0163c-0.22891,0.25631 -0.56191,0.41766 -0.93261,0.41766h-1.27041c-1.25297,0.26333 -2.44922,1.35885 -3.68959,1.04871c-0.51397,-0.12851 -0.89631,-0.40989 -1.17345,-0.77593h-0.14041c-0.16356,0 -0.31978,-0.03142 -0.46296,-0.08854c-0.05119,0.03717 -0.10153,0.07428 -0.15092,0.11131c0,0 -0.92618,0.69463 -1.66436,-0.14444l-1.32101,0.56615l-0.01579,-0.03686c-0.07373,0.03967 -0.14878,0.07722 -0.22527,0.1124c-1.6197,0.74498 -3.85489,0.32307 -5.86653,-0.24136c-1.32897,0.62183 -2.96928,0.81495 -4.20477,0.81244c-1.02559,-0.00208 -3.06918,0.15972 -3.73783,-1.0153c-0.87575,0.15326 -1.98076,0.10091 -2.9741,-0.1286c-0.66609,0.05827 -1.41783,0.05078 -2.41288,0.04671l-0.01876,-0.01238c-0.58558,0.08667 -1.02624,0.13219 -1.10441,0.07632c-0.13093,-0.09357 -0.23186,-0.21046 -0.30945,-0.34427l-0.03054,-0.0061c-0.16006,-0.02875 -0.30955,-0.08797 -0.44224,-0.17145c-0.18484,0.22829 -0.44848,0.39015 -0.74954,0.44422l-1.34117,0.26824l-0.00939,-0.04692l-0.11259,0.06511c-1.46082,0.00597 -6.29957,0.66689 -7.31513,-0.65895c-0.44057,0.12353 -0.85402,0.21614 -1.17715,0.28544c-0.26476,0.08813 -0.53131,0.14128 -0.79908,0.16769c-1.88986,0.36851 -3.36287,0.34343 -4.90241,-0.08428l-0.04653,0.27918l-1.61639,-0.2694c-0.25072,-0.03724 -0.47715,-0.14893 -0.65609,-0.31187c-0.25289,-0.01142 -0.52098,-0.01725 -0.81329,0.00328c-0.1181,0.01674 -0.23621,0.03314 -0.35432,0.04914c-0.66625,0.35084 -1.33528,0.50558 -1.95364,0.30287c-1.95857,0.33363 -3.69013,0.6128 -5.93479,0.24299h-1.83204c-0.69035,0 -1.25,-0.55964 -1.25,-1.25c0,-0.61444 0.44333,-1.12533 1.02757,-1.23026l1.30024,-0.26005c0.19113,-1.19096 1.22346,-2.10079 2.4683,-2.10079c0.89818,0 1.68573,0.47365 2.12649,1.1848c0.1679,-0.10074 0.33581,-0.20148 0.50371,-0.30222l1.36389,-0.81834l0.31715,0.5286l1.31122,-0.226c-0.11374,0.26725 -0.37751,0.74524 -0.60539,1.14913l0.20222,0.20222c0.36406,-0.1616 0.79983,-0.24519 1.11254,-0.48312c0.76136,-0.57929 1.21903,-1.47826 1.89252,-2.15783l0.73824,-1.47647c0.20043,-0.4228 0.63114,-0.7152 1.13014,-0.7152c0.69036,0 1.25,0.55964 1.25,1.25v1.63666h-0.17594c0.08569,0.55696 0.10841,1.11582 0.01924,1.65467c1.23191,-0.22526 2.41958,-0.43571 3.79044,-0.31152c0.09195,-0.04739 0.19055,-0.0837 0.29401,-0.10718l0.56754,-0.14189c-0.11666,-0.188 -0.1905,-0.33325 -0.19863,-0.34409l-0.81076,-1.08101c-0.16155,-0.21062 -0.25757,-0.47415 -0.25757,-0.7601c0,-0.69036 0.55964,-1.25 1.25,-1.25c0.28596,0 0.54948,0.09602 0.7601,0.25757l1.08101,0.81075l-0.18471,0.24628c0.82074,0.41751 1.59107,0.97104 1.96721,1.68594h1.28637c0.66135,0 1.20274,0.5136 1.24706,1.1637c0.32408,0.04559 0.64675,0.11174 0.96615,0.19593c0.26475,0.00237 0.54932,-0.0132 0.86313,-0.06424l0.04671,-0.14014l0.24901,0.083c0.10481,-0.02343 0.21283,-0.05091 0.32431,-0.083c0.914,-0.26308 1.64328,-2.1105 2.23917,-2.69858c0.32397,-0.31972 0.65577,-0.59512 0.99777,-0.83036c0,-0.5197 0,-1.03938 0,-1.55908v-1.36388v0c0,-0.69036 0.55964,-1.25 1.25,-1.25c0.49901,0 0.92972,0.2924 1.13014,0.71521l0.80622,1.61244l-0.10703,0.05351c0.16237,0.20714 0.32106,0.42004 0.47181,0.63661c0.14029,-0.0086 0.28246,-0.01429 0.42661,-0.01721h1.36389c0.69035,0 1.25,0.55964 1.25,1.25c0,0.00784 -0.00007,0.01565 -0.00022,0.02345c0.64554,0.71481 0.023,1.54488 0.023,1.54488c-0.19428,0.25904 -0.38856,0.51808 -0.58284,0.77712c-0.04957,0.33875 -0.26852,1.08677 -1.23549,1.08677c-0.36368,0 -0.62155,-0.10582 -0.80439,-0.25587c-0.08333,0.07096 -0.17186,0.13842 -0.26436,0.20268c0.19185,0.00704 0.32688,0.01426 0.3736,0.01426l0.11198,0.06818l0.01,-0.04999l1.34117,0.26824c0.01132,0.00203 0.02259,0.00422 0.03381,0.00655c0.07231,-0.19493 0.12837,-0.40903 0.28039,-0.53172c1.83481,-1.4808 4.03746,-2.01825 5.57031,-3.92383c0.92491,-1.14983 1.24916,-2.52485 1.37506,-3.95655c0.05924,-0.67356 -0.29949,-1.4751 0.092,-2.0264c0.61501,-0.86606 1.57862,-1.97131 2.62743,-1.80312c0.86263,0.13833 0.67594,1.61256 1.06432,2.39514c1.18818,2.39416 1.16809,4.82585 1.16809,7.52408c-0.03296,1.64788 0.17733,2.32147 1.80912,2.30222l-0.19319,-0.96596c0,0 -0.24515,-1.22573 0.98058,-1.47087c1.22572,-0.24514 1.47087,0.98058 1.47087,0.98058l0.27278,1.36388c0,0 0.01151,0.05755 0.01707,0.15021c0.31775,-0.27702 0.62291,-0.56284 0.91979,-0.85402c0.46565,-1.37541 1.84747,-2.7277 3.36084,-3.45779c0.78161,-0.73638 1.62204,-1.41728 2.59898,-1.98066l0.33367,0.09713v-0.14249h1.36388c0.69035,0 1.25,0.55964 1.25,1.25c0,0.44076 -0.22813,0.82824 -0.57276,1.05082l-1.62053,1.08035l-0.15812,-0.23717c-0.13383,0.10231 -0.26816,0.19966 -0.40492,0.29411c0.00585,0.0269 0.01083,0.05414 0.01492,0.08166l0.26886,1.61312c0.43454,0.1215 0.89225,0.2823 1.36903,0.42909c0.10977,-0.33491 0.33351,-0.55865 0.33351,-0.55865l0.15666,-0.13889c0.54718,-0.52618 0.89365,-1.44848 1.64156,-1.57855c0.69423,-0.12074 1.24781,0.65542 1.88029,0.96606c0.19069,0.09366 0.35722,0.17178 0.50786,0.23808c0.44339,-0.97219 0.64281,-2.29106 0.60923,-3.32015c-0.96022,-1.36356 -2.05389,-2.74686 -2.20417,-3.56128l-0.79052,-1.05403c-0.16155,-0.21062 -0.25758,-0.47414 -0.25758,-0.7601c0,-0.69036 0.55965,-1.25 1.25,-1.25c0.41415,0 0.78127,0.20142 1.00872,0.51164l0.8008,1.06772c0.00947,0.01182 0.02053,0.02562 0.0331,0.04127c0.03074,0.01484 0.10795,0.11351 0.21502,0.26738c0.622,0.77362 2.04309,2.5473 2.12244,2.76711c0.14182,0.39288 0.24142,0.81717 0.30065,1.2605c0.88093,1.5818 1.81912,3.44402 1.47393,4.95502c0.572,0.00297 1.14547,0.02742 1.71942,0.06506c0.18654,-0.26772 0.36821,-0.62795 0.55679,-1.0994l0.2266,-0.12883l-0.06694,-0.06694l1.0911,-1.09111l0.36707,0.36706l1.06601,-0.60607c0.04345,0.39688 0.05613,0.8 0.0779,1.20128l0.61326,0.07666l-0.19979,1.59831c0.74468,-0.00645 1.67248,-0.01526 1.68721,-0.0028h1.36388c0.69035,0 1.25,0.55964 1.25,1.25c0,0.69036 -0.55965,1.25 -1.25,1.25h-1.63666c-0.83754,-0.02238 -1.6174,-0.08085 -2.22572,-0.25432c-0.58083,-0.00151 -1.16197,-0.02488 -1.74381,-0.05246c-1.27513,1.00157 -2.91567,0.71312 -4.7994,0.03967c-0.67086,0.09265 -1.34388,0.24252 -2.01963,0.47574l0.44997,-0.08128c0,0 -0.55901,1.11803 -1.67705,0.55901zM45.96128,318.23366c0.10108,-0.00387 0.20172,-0.00898 0.30196,-0.01484c-0.07052,-0.10294 -0.13596,-0.21092 -0.1965,-0.32399c-0.02176,0.08092 -0.04577,0.16177 -0.07224,0.24255c-0.01062,0.03242 -0.0217,0.06451 -0.03322,0.09628z" fill="#b1a97f" stroke="none" stroke-width="0.5" stroke-linecap="butt"/><path d="M10.73897,319.42202c-0.30193,-0.15096 -0.48156,-0.3427 -0.58291,-0.54217c-0.99056,0.20522 -2.35935,0.21587 -3.65378,-0.0163c-0.22891,0.25631 -0.56191,0.41766 -0.9326,0.41766h-1.27041c-1.25297,0.26333 -2.44922,1.35885 -3.68959,1.04871c-0.51397,-0.12851 -0.89631,-0.40989 -1.17345,-0.77593h-0.14041c-0.16356,0 -0.31978,-0.03142 -0.46296,-0.08854c-0.0512,0.03717 -0.10153,0.07428 -0.15092,0.11131c0,0 -0.92617,0.69463 -1.66436,-0.14444l-1.32101,0.56615l-0.01579,-0.03686c-0.07374,0.03967 -0.14877,0.07722 -0.22527,0.1124c-1.6197,0.74498 -3.85489,0.32307 -5.86653,-0.24136c-1.32897,0.62183 -2.96928,0.81495 -4.20476,0.81244c-1.02559,-0.00208 -3.06918,0.15972 -3.73782,-1.0153c-0.87575,0.15326 -1.98076,0.10091 -2.9741,-0.1286c-0.66609,0.05827 -1.41783,0.05078 -2.41289,0.04671l-0.01875,-0.01238c-0.58558,0.08667 -1.02625,0.13219 -1.10441,0.07632c-0.13093,-0.09357 -0.23186,-0.21046 -0.30945,-0.34427l-0.03054,-0.0061c-0.16006,-0.02875 -0.30955,-0.08797 -0.44224,-0.17145c-0.18484,0.22829 -0.44848,0.39015 -0.74954,0.44422l-1.34117,0.26824l-0.00939,-0.04692l-0.11259,0.06511c-1.46082,0.00597 -6.29956,0.66689 -7.31512,-0.65895c-0.44057,0.12353 -0.85403,0.21614 -1.17715,0.28544c-0.26476,0.08813 -0.53131,0.14128 -0.79908,0.16769c-1.88985,0.36851 -3.36286,0.34343 -4.90241,-0.08428l-0.04653,0.27918l-1.6164,-0.2694c-0.25072,-0.03724 -0.47715,-0.14893 -0.65609,-0.31187c-0.25289,-0.01142 -0.52098,-0.01725 -0.81329,0.00328c-0.1181,0.01674 -0.23621,0.03314 -0.35432,0.04914c-0.66625,0.35084 -1.33528,0.50558 -1.95365,0.30287c-1.95857,0.33363 -3.69013,0.6128 -5.93478,0.24299h-1.83204c-0.69035,0 -1.25,-0.55964 -1.25,-1.25c0,-0.61444 0.44333,-1.12533 1.02756,-1.23026l1.30024,-0.26005c0.19112,-1.19096 1.22346,-2.10079 2.4683,-2.10079c0.89818,0 1.68572,0.47365 2.12649,1.1848c0.1679,-0.10074 0.33581,-0.20148 0.50371,-0.30222l1.36388,-0.81834l0.31715,0.5286l1.31122,-0.226c-0.11375,0.26725 -0.37751,0.74524 -0.60539,1.14913l0.20222,0.20222c0.36406,-0.1616 0.79983,-0.24519 1.11254,-0.48312c0.76136,-0.57929 1.21903,-1.47826 1.89252,-2.15783l0.73824,-1.47647c0.20043,-0.4228 0.63114,-0.7152 1.13014,-0.7152c0.69035,0 1.25,0.55964 1.25,1.25v1.63666h-0.17594c0.08569,0.55696 0.10841,1.11582 0.01924,1.65467c1.23191,-0.22526 2.41958,-0.43571 3.79043,-0.31152c0.09195,-0.04739 0.19055,-0.0837 0.29401,-0.10718l0.56754,-0.14189c-0.11666,-0.188 -0.19051,-0.33325 -0.19863,-0.34409l-0.81076,-1.08101c-0.16155,-0.21062 -0.25757,-0.47415 -0.25757,-0.76011c0,-0.69036 0.55965,-1.25 1.25,-1.25c0.28596,0 0.54948,0.09602 0.7601,0.25758l1.081,0.81075l-0.18471,0.24628c0.82074,0.41751 1.59107,0.97104 1.96721,1.68594h1.28637c0.66135,0 1.20274,0.5136 1.24706,1.1637c0.32408,0.04559 0.64675,0.11174 0.96615,0.19593c0.26475,0.00237 0.54932,-0.0132 0.86313,-0.06424l0.04671,-0.14014l0.24901,0.083c0.10481,-0.02343 0.21283,-0.05091 0.32431,-0.083c0.914,-0.26308 1.64328,-2.1105 2.23917,-2.69857c0.32397,-0.31972 0.65577,-0.59512 0.99777,-0.83036c0,-0.5197 0,-1.03938 0,-1.55908v-1.36388v0c0,-0.69036 0.55964,-1.25 1.25,-1.25c0.49901,0 0.92971,0.2924 1.13014,0.7152l0.80622,1.61244l-0.10703,0.05351c0.16237,0.20714 0.32106,0.42004 0.47181,0.63661c0.14029,-0.0086 0.28246,-0.01429 0.42661,-0.01721h1.36388c0.69036,0 1.25,0.55964 1.25,1.25c0,0.00784 -0.00007,0.01565 -0.00022,0.02345c0.64554,0.71481 0.023,1.54488 0.023,1.54488c-0.19428,0.25904 -0.38856,0.51808 -0.58284,0.77712c-0.04958,0.33875 -0.26852,1.08677 -1.23549,1.08677c-0.36368,0 -0.62155,-0.10582 -0.80439,-0.25587c-0.08332,0.07096 -0.17186,0.13842 -0.26437,0.20268c0.19186,0.00704 0.32688,0.01426 0.3736,0.01426l0.11198,0.06818l0.01,-0.04999l1.34118,0.26824c0.01132,0.00203 0.02259,0.00422 0.03381,0.00655c0.07231,-0.19493 0.12837,-0.40903 0.28038,-0.53172c1.83481,-1.4808 4.03747,-2.01825 5.57031,-3.92383c0.92492,-1.14983 1.24916,-2.52485 1.37506,-3.95655c0.05923,-0.67356 -0.29948,-1.4751 0.09201,-2.0264c0.61501,-0.86606 1.57862,-1.97131 2.62743,-1.80312c0.86264,0.13833 0.67595,1.61256 1.06433,2.39514c1.18818,2.39416 1.16809,4.82585 1.16809,7.52408c-0.03296,1.64788 0.17733,2.32147 1.80912,2.30222l-0.19319,-0.96596c0,0 -0.24514,-1.22573 0.98058,-1.47087c1.22572,-0.24514 1.47087,0.98058 1.47087,0.98058l0.27278,1.36388c0,0 0.01151,0.05755 0.01707,0.15021c0.31774,-0.27702 0.62291,-0.56284 0.91979,-0.85403c0.46566,-1.37541 1.84747,-2.7277 3.36085,-3.45779c0.78161,-0.73638 1.62204,-1.41728 2.59899,-1.98066l0.33366,0.09713v-0.14249h1.36388c0.69036,0 1.25,0.55964 1.25,1.25c0,0.44076 -0.22813,0.82824 -0.57275,1.05082l-1.62053,1.08035l-0.15812,-0.23717c-0.13384,0.10231 -0.26816,0.19966 -0.40492,0.29411c0.00585,0.0269 0.01083,0.05414 0.01492,0.08166l0.26885,1.61312c0.43454,0.1215 0.89225,0.28229 1.36904,0.42909c0.10977,-0.33491 0.33351,-0.55865 0.33351,-0.55865l0.15666,-0.13889c0.54718,-0.52618 0.89365,-1.44848 1.64156,-1.57855c0.69423,-0.12074 1.24781,0.65542 1.88029,0.96606c0.19069,0.09366 0.35722,0.17178 0.50786,0.23808c0.44339,-0.97219 0.64281,-2.29106 0.60923,-3.32015c-0.96021,-1.36356 -2.05388,-2.74686 -2.20416,-3.56128l-0.79053,-1.05403c-0.16155,-0.21062 -0.25757,-0.47414 -0.25757,-0.7601c0,-0.69036 0.55964,-1.25 1.25,-1.25c0.41415,0 0.78126,0.20142 1.00873,0.51164l0.80079,1.06772c0.00947,0.01182 0.02053,0.02562 0.0331,0.04127c0.03074,0.01484 0.10794,0.11351 0.21502,0.26738c0.622,0.77362 2.04309,2.5473 2.12244,2.76711c0.14183,0.39288 0.24141,0.81717 0.30064,1.2605c0.88092,1.5818 1.81912,3.44402 1.47393,4.95502c0.572,0.00297 1.14546,0.02742 1.71942,0.06506c0.18654,-0.26772 0.3682,-0.62795 0.55678,-1.0994l0.22661,-0.12883l-0.06694,-0.06694l1.0911,-1.09111l0.36707,0.36706l1.06601,-0.60607c0.04345,0.39688 0.05614,0.8 0.0779,1.20128l0.61325,0.07666l-0.19978,1.59831c0.74468,-0.00645 1.67248,-0.01526 1.68721,-0.0028h1.36388c0.69036,0 1.25,0.55964 1.25,1.25c0,0.69036 -0.55964,1.25 -1.25,1.25h-1.63666c-0.83754,-0.02238 -1.6174,-0.08085 -2.22573,-0.25432c-0.58083,-0.00151 -1.16197,-0.02488 -1.74381,-0.05246c-1.27512,1.00157 -2.91567,0.71312 -4.7994,0.03967c-0.67085,0.09265 -1.34389,0.24252 -2.01963,0.47574l0.44997,-0.08128c0,0 -0.55901,1.11803 -1.67705,0.55901zM-8.28042,317.70444c0.10107,-0.00387 0.20172,-0.00898 0.30196,-0.01484c-0.07052,-0.10294 -0.13597,-0.21092 -0.1965,-0.32399c-0.02176,0.08092 -0.04577,0.16177 -0.07224,0.24255c-0.01062,0.03242 -0.0217,0.06451 -0.03322,0.09628z" fill="#b1a97f" stroke="none" stroke-width="0.5" stroke-linecap="butt"/><path d="M135.80216,319.68268c-0.30193,-0.15096 -0.48155,-0.3427 -0.58291,-0.54217c-0.99056,0.20522 -2.35934,0.21587 -3.65378,-0.0163c-0.22891,0.25631 -0.56191,0.41766 -0.9326,0.41766h-1.27042c-1.25297,0.26333 -2.44922,1.35884 -3.68959,1.04871c-0.51397,-0.12851 -0.89631,-0.40989 -1.17345,-0.77593h-0.14041c-0.16356,0 -0.31978,-0.03141 -0.46296,-0.08854c-0.0512,0.03717 -0.10153,0.07428 -0.15092,0.11131c0,0 -0.92618,0.69463 -1.66436,-0.14444l-1.32101,0.56615l-0.01579,-0.03687c-0.07373,0.03967 -0.14878,0.07722 -0.22527,0.11241c-1.6197,0.74498 -3.85489,0.32306 -5.86653,-0.24137c-1.32897,0.62183 -2.96929,0.81495 -4.20477,0.81245c-1.02559,-0.00208 -3.06919,0.15972 -3.73783,-1.0153c-0.87575,0.15326 -1.98076,0.10091 -2.9741,-0.12859c-0.66609,0.05827 -1.41783,0.05077 -2.41289,0.0467l-0.01875,-0.01238c-0.58558,0.08667 -1.02625,0.13219 -1.10441,0.07632c-0.13093,-0.09357 -0.23186,-0.21046 -0.30945,-0.34426l-0.03054,-0.00611c-0.16007,-0.02875 -0.30955,-0.08797 -0.44224,-0.17145c-0.18484,0.22829 -0.44848,0.39015 -0.74954,0.44422l-1.34118,0.26824l-0.00938,-0.04692l-0.11259,0.06511c-1.46082,0.00597 -6.29957,0.66689 -7.31513,-0.65895c-0.44057,0.12353 -0.85402,0.21614 -1.17715,0.28544c-0.26476,0.08813 -0.53131,0.14128 -0.79908,0.16769c-1.88985,0.36851 -3.36286,0.34343 -4.9024,-0.08429l-0.04653,0.27919l-1.61639,-0.2694c-0.25072,-0.03724 -0.47715,-0.14893 -0.65609,-0.31187c-0.25289,-0.01142 -0.52098,-0.01726 -0.81329,0.00327c-0.1181,0.01674 -0.23621,0.03315 -0.35433,0.04914c-0.66625,0.35084 -1.33528,0.50557 -1.95364,0.30287c-1.95857,0.33363 -3.69013,0.6128 -5.93479,0.243h-1.83204c-0.69035,0 -1.25,-0.55964 -1.25,-1.25c0,-0.61444 0.44333,-1.12533 1.02757,-1.23026l1.30024,-0.26005c0.19112,-1.19096 1.22346,-2.10079 2.4683,-2.10079c0.89818,0 1.68572,0.47365 2.12649,1.1848c0.1679,-0.10074 0.33581,-0.20148 0.50371,-0.30222l1.36389,-0.81833l0.31715,0.5286l1.31122,-0.22599c-0.11374,0.26725 -0.37751,0.74524 -0.60539,1.14913l0.20222,0.20222c0.36406,-0.1616 0.79983,-0.24519 1.11255,-0.48312c0.76136,-0.57929 1.21903,-1.47827 1.89252,-2.15783l0.73824,-1.47647c0.20043,-0.4228 0.63114,-0.7152 1.13014,-0.7152c0.69035,0 1.25,0.55964 1.25,1.25v1.63666h-0.17594c0.08569,0.55696 0.10841,1.11582 0.01923,1.65467c1.23191,-0.22526 2.41958,-0.43572 3.79044,-0.31152c0.09195,-0.04739 0.19055,-0.0837 0.29401,-0.10718l0.56754,-0.14189c-0.11665,-0.188 -0.19051,-0.33325 -0.19863,-0.34409l-0.81076,-1.08101c-0.16156,-0.21062 -0.25758,-0.47415 -0.25758,-0.76011c0,-0.69036 0.55965,-1.25 1.25,-1.25c0.28596,0 0.54948,0.09602 0.7601,0.25758l1.08101,0.81075l-0.18471,0.24628c0.82074,0.41751 1.59107,0.97103 1.96721,1.68594h1.28637c0.66135,0 1.20274,0.51361 1.24707,1.16371c0.32407,0.04559 0.64675,0.11174 0.96614,0.19593c0.26475,0.00237 0.54932,-0.0132 0.86313,-0.06424l0.04671,-0.14014l0.249,0.083c0.10482,-0.02343 0.21282,-0.05091 0.32431,-0.083c0.91401,-0.26308 1.64329,-2.1105 2.23917,-2.69858c0.32397,-0.31972 0.65577,-0.59511 0.99777,-0.83036c0,-0.5197 0,-1.03938 0,-1.55908v-1.36388v0c0,-0.69036 0.55965,-1.25 1.25,-1.25c0.499,0 0.92972,0.2924 1.13014,0.7152l0.80622,1.61244l-0.10702,0.05351c0.16237,0.20714 0.32106,0.42004 0.47181,0.6366c0.14029,-0.0086 0.28247,-0.01429 0.42661,-0.01721h1.36389c0.69035,0 1.25,0.55964 1.25,1.25c0,0.00784 -0.00007,0.01565 -0.00022,0.02345c0.64554,0.71481 0.023,1.54488 0.023,1.54488c-0.19428,0.25904 -0.38856,0.51808 -0.58285,0.77712c-0.04958,0.33875 -0.26852,1.08676 -1.23548,1.08676c-0.36368,0 -0.62155,-0.10581 -0.80439,-0.25586c-0.08333,0.07096 -0.17185,0.13842 -0.26436,0.20268c0.19186,0.00704 0.32688,0.01426 0.3736,0.01426l0.11198,0.06819l0.01,-0.05l1.34117,0.26824c0.01132,0.00203 0.02259,0.00422 0.03381,0.00655c0.07231,-0.19493 0.12837,-0.40903 0.28038,-0.53171c1.83481,-1.4808 4.03747,-2.01825 5.57031,-3.92383c0.92491,-1.14983 1.24916,-2.52485 1.37506,-3.95655c0.05924,-0.67356 -0.29949,-1.4751 0.09201,-2.02641c0.61501,-0.86606 1.57862,-1.97131 2.62743,-1.80312c0.86263,0.13833 0.67595,1.61255 1.06433,2.39514c1.18818,2.39416 1.16809,4.82585 1.16809,7.52409c-0.03297,1.64788 0.17733,2.32147 1.80912,2.30221l-0.1932,-0.96596c0,0 -0.24514,-1.22573 0.98058,-1.47087c1.22572,-0.24514 1.47087,0.98058 1.47087,0.98058l0.27278,1.36388c0,0 0.01151,0.05755 0.01707,0.15021c0.31775,-0.27702 0.62291,-0.56284 0.91979,-0.85403c0.46565,-1.37541 1.84747,-2.7277 3.36084,-3.45779c0.78161,-0.73638 1.62204,-1.41728 2.59898,-1.98066l0.33366,0.09713v-0.14248h1.36389c0.69036,0 1.25,0.55964 1.25,1.25c0,0.44076 -0.22813,0.82824 -0.57276,1.05082l-1.62053,1.08035l-0.15812,-0.23718c-0.13384,0.10231 -0.26816,0.19966 -0.40492,0.29411c0.00585,0.0269 0.01083,0.05413 0.01492,0.08165l0.26886,1.61312c0.43454,0.1215 0.89225,0.28229 1.36903,0.42909c0.10978,-0.33491 0.33351,-0.55865 0.33351,-0.55865l0.15666,-0.13889c0.54719,-0.52618 0.89365,-1.44847 1.64156,-1.57854c0.69423,-0.12074 1.24781,0.65542 1.88029,0.96606c0.19069,0.09366 0.35722,0.17177 0.50786,0.23807c0.44339,-0.97219 0.64281,-2.29106 0.60923,-3.32014c-0.96022,-1.36356 -2.05388,-2.74686 -2.20416,-3.56128l-0.79053,-1.05403c-0.16155,-0.21062 -0.25758,-0.47415 -0.25758,-0.7601c0,-0.69036 0.55964,-1.25 1.25,-1.25c0.41415,0 0.78126,0.20142 1.00872,0.51164l0.80079,1.06773c0.00947,0.01182 0.02053,0.02562 0.0331,0.04127c0.03074,0.01484 0.10795,0.1135 0.21502,0.26737c0.622,0.77362 2.04309,2.5473 2.12244,2.76711c0.14183,0.39288 0.24141,0.81717 0.30064,1.2605c0.88092,1.5818 1.81913,3.44402 1.47393,4.95502c0.572,0.00297 1.14546,0.02741 1.71942,0.06505c0.18654,-0.26772 0.3682,-0.62794 0.55678,-1.0994l0.22661,-0.12884l-0.06694,-0.06694l1.0911,-1.0911l0.36706,0.36706l1.06601,-0.60607c0.04345,0.39688 0.05614,0.8 0.0779,1.20128l0.61326,0.07666l-0.19978,1.59831c0.74468,-0.00645 1.67248,-0.01526 1.68721,-0.0028h1.36388c0.69036,0 1.25,0.55964 1.25,1.25c0,0.69036 -0.55964,1.25 -1.25,1.25h-1.63666c-0.83754,-0.02238 -1.61739,-0.08085 -2.22572,-0.25432c-0.58083,-0.00151 -1.16197,-0.02488 -1.74381,-0.05246c-1.27513,1.00157 -2.91567,0.71311 -4.7994,0.03966c-0.67085,0.09265 -1.34389,0.24252 -2.01963,0.47575l0.44997,-0.08128c0,0 -0.55902,1.11803 -1.67705,0.55901zM116.78277,317.96511c0.10107,-0.00387 0.20172,-0.00898 0.30196,-0.01484c-0.07052,-0.10294 -0.13596,-0.21092 -0.1965,-0.32399c-0.02176,0.08092 -0.04577,0.16177 -0.07224,0.24255c-0.01062,0.03242 -0.0217,0.06451 -0.03323,0.09628z" fill="#b1a97f" stroke="none" stroke-width="0.5" stroke-linecap="butt"/><path d="M200.04387,321.52312c-0.30193,-0.15096 -0.48155,-0.3427 -0.58291,-0.54217c-0.99056,0.20522 -2.35935,0.21587 -3.65378,-0.0163c-0.22891,0.25631 -0.56191,0.41766 -0.9326,0.41766h-1.27042c-1.25297,0.26333 -2.44922,1.35884 -3.68959,1.04871c-0.51397,-0.12851 -0.89631,-0.40989 -1.17345,-0.77593h-0.14041c-0.16356,0 -0.31978,-0.03141 -0.46296,-0.08854c-0.0512,0.03717 -0.10153,0.07428 -0.15092,0.11131c0,0 -0.92618,0.69463 -1.66436,-0.14444l-1.32101,0.56615l-0.01579,-0.03687c-0.07373,0.03967 -0.14878,0.07722 -0.22527,0.11241c-1.6197,0.74498 -3.85489,0.32306 -5.86653,-0.24137c-1.32898,0.62183 -2.96929,0.81495 -4.20477,0.81245c-1.02559,-0.00208 -3.06918,0.15972 -3.73782,-1.0153c-0.87575,0.15326 -1.98076,0.10091 -2.9741,-0.12859c-0.66609,0.05827 -1.41783,0.05077 -2.41289,0.0467l-0.01875,-0.01238c-0.58558,0.08667 -1.02624,0.13219 -1.10441,0.07632c-0.13093,-0.09357 -0.23186,-0.21046 -0.30945,-0.34426l-0.03053,-0.00611c-0.16007,-0.02875 -0.30955,-0.08797 -0.44225,-0.17145c-0.18484,0.22829 -0.44849,0.39015 -0.74954,0.44422l-1.34117,0.26824l-0.00939,-0.04692l-0.11259,0.06511c-1.46082,0.00597 -6.29957,0.66689 -7.31513,-0.65895c-0.44057,0.12353 -0.85402,0.21614 -1.17715,0.28544c-0.26476,0.08813 -0.53131,0.14128 -0.79908,0.16769c-1.88986,0.36851 -3.36287,0.34343 -4.90241,-0.08429l-0.04653,0.27919l-1.6164,-0.2694c-0.25072,-0.03724 -0.47714,-0.14893 -0.65609,-0.31187c-0.25289,-0.01142 -0.52098,-0.01726 -0.81329,0.00327c-0.1181,0.01674 -0.23621,0.03315 -0.35432,0.04914c-0.66625,0.35084 -1.33528,0.50557 -1.95364,0.30287c-1.95857,0.33363 -3.69013,0.6128 -5.93479,0.243h-1.83204c-0.69036,0 -1.25,-0.55964 -1.25,-1.25c0,-0.61444 0.44333,-1.12533 1.02757,-1.23026l1.30023,-0.26005c0.19112,-1.19096 1.22346,-2.10079 2.4683,-2.10079c0.89818,0 1.68573,0.47365 2.1265,1.1848c0.1679,-0.10074 0.33581,-0.20148 0.50371,-0.30222l1.36388,-0.81833l0.31716,0.5286l1.31122,-0.22599c-0.11374,0.26725 -0.37751,0.74524 -0.60539,1.14913l0.20222,0.20222c0.36406,-0.1616 0.79983,-0.24519 1.11254,-0.48312c0.76137,-0.57929 1.21903,-1.47827 1.89252,-2.15783l0.73824,-1.47647c0.20043,-0.4228 0.63114,-0.7152 1.13014,-0.7152c0.69036,0 1.25,0.55964 1.25,1.25v1.63666h-0.17594c0.08569,0.55696 0.10841,1.11582 0.01923,1.65467c1.23191,-0.22526 2.41959,-0.43572 3.79044,-0.31152c0.09196,-0.04739 0.19055,-0.0837 0.29401,-0.10718l0.56754,-0.14189c-0.11666,-0.188 -0.1905,-0.33325 -0.19863,-0.34409l-0.81076,-1.08101c-0.16155,-0.21062 -0.25758,-0.47415 -0.25758,-0.76011c0,-0.69036 0.55964,-1.25 1.25,-1.25c0.28596,0 0.54948,0.09602 0.7601,0.25758l1.08101,0.81075l-0.18471,0.24628c0.82074,0.41751 1.59107,0.97103 1.96721,1.68594h1.28638c0.66135,0 1.20273,0.5136 1.24706,1.1637c0.32407,0.04559 0.64675,0.11175 0.96615,0.19593c0.26475,0.00237 0.54932,-0.0132 0.86313,-0.06424l0.04671,-0.14014l0.24901,0.083c0.10482,-0.02343 0.21283,-0.05091 0.32431,-0.083c0.91401,-0.26308 1.64328,-2.1105 2.23917,-2.69858c0.32396,-0.31972 0.65577,-0.59511 0.99777,-0.83036c0,-0.5197 0,-1.03938 0,-1.55908v-1.36388v0c0,-0.69036 0.55964,-1.25 1.25,-1.25c0.49901,0 0.92971,0.2924 1.13014,0.7152l0.80622,1.61244l-0.10702,0.05351c0.16237,0.20714 0.32106,0.42004 0.47181,0.6366c0.14029,-0.0086 0.28247,-0.01429 0.42661,-0.01721h1.36388c0.69036,0 1.25,0.55964 1.25,1.25c0,0.00784 -0.00007,0.01565 -0.00021,0.02345c0.64554,0.71481 0.023,1.54488 0.023,1.54488c-0.19428,0.25904 -0.38856,0.51808 -0.58284,0.77712c-0.04958,0.33875 -0.26852,1.08676 -1.23549,1.08676c-0.36368,0 -0.62155,-0.10581 -0.80439,-0.25586c-0.08333,0.07096 -0.17185,0.13842 -0.26436,0.20268c0.19186,0.00704 0.32688,0.01426 0.3736,0.01426l0.11198,0.06819l0.01,-0.05l1.34117,0.26824c0.01132,0.00203 0.0226,0.00422 0.03381,0.00655c0.07231,-0.19493 0.12837,-0.40903 0.28038,-0.53171c1.83481,-1.4808 4.03746,-2.01825 5.57031,-3.92383c0.92491,-1.14983 1.24916,-2.52485 1.37506,-3.95655c0.05924,-0.67356 -0.29949,-1.4751 0.09201,-2.02641c0.61501,-0.86606 1.57862,-1.97131 2.62743,-1.80312c0.86264,0.13833 0.67594,1.61255 1.06432,2.39514c1.18818,2.39416 1.16809,4.82585 1.16809,7.52409c-0.03296,1.64788 0.17733,2.32147 1.80912,2.30221l-0.19319,-0.96596c0,0 -0.24515,-1.22573 0.98058,-1.47087c1.22573,-0.24514 1.47087,0.98058 1.47087,0.98058l0.27278,1.36389c0,0 0.01151,0.05755 0.01707,0.15021c0.31775,-0.27702 0.62291,-0.56284 0.91979,-0.85403c0.46565,-1.37541 1.84747,-2.7277 3.36085,-3.45779c0.78161,-0.73638 1.62204,-1.41728 2.59898,-1.98066l0.33366,0.09713v-0.14248h1.36389c0.69036,0 1.25,0.55964 1.25,1.25c0,0.44076 -0.22813,0.82824 -0.57276,1.05082l-1.62053,1.08035l-0.15812,-0.23718c-0.13384,0.10231 -0.26816,0.19966 -0.40492,0.29411c0.00585,0.0269 0.01083,0.05413 0.01492,0.08165l0.26886,1.61312c0.43454,0.1215 0.89225,0.28229 1.36903,0.42909c0.10978,-0.33491 0.33351,-0.55865 0.33351,-0.55865l0.15666,-0.13889c0.54719,-0.52618 0.89365,-1.44847 1.64155,-1.57854c0.69423,-0.12074 1.24781,0.65542 1.88029,0.96606c0.19069,0.09366 0.35722,0.17177 0.50786,0.23807c0.44339,-0.97219 0.64281,-2.29106 0.60923,-3.32014c-0.96022,-1.36356 -2.05388,-2.74686 -2.20416,-3.56128l-0.79053,-1.05403c-0.16155,-0.21062 -0.25758,-0.47415 -0.25758,-0.7601c0,-0.69036 0.55964,-1.25 1.25,-1.25c0.41415,0 0.78126,0.20142 1.00872,0.51164l0.80079,1.06773c0.00947,0.01182 0.02053,0.02562 0.0331,0.04127c0.03074,0.01484 0.10795,0.1135 0.21502,0.26737c0.622,0.77362 2.04309,2.5473 2.12244,2.76711c0.14183,0.39288 0.24141,0.81717 0.30065,1.2605c0.88092,1.5818 1.81912,3.44402 1.47393,4.95502c0.572,0.00297 1.14546,0.02741 1.71942,0.06505c0.18654,-0.26772 0.36821,-0.62794 0.55679,-1.0994l0.2266,-0.12884l-0.06694,-0.06694l1.0911,-1.0911l0.36707,0.36706l1.06601,-0.60607c0.04345,0.39688 0.05614,0.8 0.0779,1.20128l0.61326,0.07666l-0.19978,1.59831c0.74468,-0.00645 1.67248,-0.01526 1.68721,-0.0028h1.36388c0.69036,0 1.25,0.55964 1.25,1.25c0,0.69036 -0.55964,1.25 -1.25,1.25h-1.63666c-0.83754,-0.02238 -1.61739,-0.08085 -2.22572,-0.25432c-0.58083,-0.00151 -1.16197,-0.02488 -1.74381,-0.05246c-1.27513,1.00157 -2.91567,0.71311 -4.7994,0.03966c-0.67085,0.09265 -1.34388,0.24252 -2.01963,0.47575l0.44997,-0.08128c0,0 -0.55901,1.11803 -1.67705,0.55901zM181.02447,319.80555c0.10108,-0.00387 0.20172,-0.00898 0.30196,-0.01484c-0.07052,-0.10294 -0.13597,-0.21092 -0.1965,-0.32399c-0.02176,0.08092 -0.04577,0.16177 -0.07224,0.24255c-0.01062,0.03242 -0.0217,0.06451 -0.03322,0.09628z" fill="#b1a97f" stroke="none" stroke-width="0.5" stroke-linecap="butt"/><path d="M275.34402,319.41412c-0.30193,-0.15096 -0.48155,-0.3427 -0.58291,-0.54217c-0.99056,0.20522 -2.35935,0.21587 -3.65378,-0.0163c-0.22891,0.25631 -0.56191,0.41766 -0.9326,0.41766h-1.27042c-1.25297,0.26333 -2.44922,1.35885 -3.68959,1.04871c-0.51397,-0.12851 -0.89631,-0.40989 -1.17345,-0.77593h-0.14041c-0.16356,0 -0.31979,-0.03142 -0.46297,-0.08854c-0.0512,0.03717 -0.10154,0.07428 -0.15092,0.11131c0,0 -0.92617,0.69463 -1.66436,-0.14444l-1.32101,0.56615l-0.01579,-0.03686c-0.07374,0.03967 -0.14878,0.07722 -0.22527,0.1124c-1.6197,0.74498 -3.8549,0.32307 -5.86654,-0.24136c-1.32898,0.62183 -2.96928,0.81495 -4.20477,0.81244c-1.02559,-0.00208 -3.06918,0.15972 -3.73782,-1.0153c-0.87575,0.15326 -1.98076,0.10091 -2.9741,-0.1286c-0.66609,0.05827 -1.41783,0.05078 -2.41288,0.04671l-0.01875,-0.01238c-0.58558,0.08667 -1.02625,0.13219 -1.10441,0.07632c-0.13093,-0.09357 -0.23186,-0.21046 -0.30945,-0.34427l-0.03054,-0.0061c-0.16007,-0.02875 -0.30955,-0.08797 -0.44224,-0.17145c-0.18485,0.22829 -0.44849,0.39015 -0.74954,0.44422l-1.34117,0.26824l-0.00938,-0.04692l-0.11259,0.06511c-1.46082,0.00597 -6.29957,0.66689 -7.31512,-0.65895c-0.44057,0.12353 -0.85403,0.21614 -1.17715,0.28544c-0.26476,0.08813 -0.53131,0.14128 -0.79908,0.16769c-1.88986,0.36851 -3.36286,0.34343 -4.9024,-0.08428l-0.04653,0.27918l-1.6164,-0.2694c-0.25072,-0.03724 -0.47714,-0.14893 -0.65609,-0.31187c-0.25289,-0.01142 -0.52098,-0.01725 -0.81329,0.00328c-0.1181,0.01674 -0.23621,0.03314 -0.35432,0.04914c-0.66625,0.35084 -1.33528,0.50558 -1.95365,0.30287c-1.95857,0.33363 -3.69013,0.6128 -5.93479,0.24299h-1.83204c-0.69035,0 -1.25,-0.55964 -1.25,-1.25c0,-0.61444 0.44333,-1.12533 1.02756,-1.23026l1.30024,-0.26005c0.19112,-1.19096 1.22346,-2.10079 2.4683,-2.10079c0.89818,0 1.68572,0.47365 2.12649,1.1848c0.1679,-0.10074 0.33581,-0.20148 0.50371,-0.30222l1.36388,-0.81834l0.31716,0.5286l1.31122,-0.226c-0.11374,0.26725 -0.37751,0.74524 -0.60539,1.14913l0.20222,0.20222c0.36406,-0.1616 0.79983,-0.24519 1.11255,-0.48312c0.76137,-0.57929 1.21903,-1.47826 1.89252,-2.15783l0.73824,-1.47647c0.20043,-0.4228 0.63114,-0.7152 1.13014,-0.7152c0.69036,0 1.25,0.55964 1.25,1.25v1.63666h-0.17595c0.08569,0.55696 0.10841,1.11582 0.01924,1.65467c1.23191,-0.22526 2.41958,-0.43571 3.79044,-0.31152c0.09195,-0.04739 0.19054,-0.0837 0.29401,-0.10718l0.56754,-0.14189c-0.11666,-0.188 -0.19051,-0.33325 -0.19863,-0.34409l-0.81076,-1.08101c-0.16155,-0.21062 -0.25758,-0.47415 -0.25758,-0.7601c0,-0.69036 0.55964,-1.25 1.25,-1.25c0.28596,0 0.54948,0.09602 0.7601,0.25757l1.08101,0.81075l-0.18471,0.24628c0.82074,0.41751 1.59107,0.97104 1.96721,1.68594h1.28637c0.66135,0 1.20274,0.5136 1.24707,1.1637c0.32407,0.04559 0.64675,0.11174 0.96614,0.19593c0.26475,0.00237 0.54933,-0.0132 0.86313,-0.06424l0.04671,-0.14014l0.24901,0.083c0.10482,-0.02343 0.21283,-0.05091 0.32431,-0.083c0.914,-0.26308 1.64328,-2.1105 2.23917,-2.69858c0.32397,-0.31972 0.65577,-0.59512 0.99777,-0.83036c0,-0.5197 0,-1.03938 0,-1.55908v-1.36388v0c0,-0.69036 0.55965,-1.25 1.25,-1.25c0.49901,0 0.92972,0.2924 1.13014,0.71521l0.80622,1.61244l-0.10702,0.05351c0.16237,0.20714 0.32106,0.42004 0.47182,0.63661c0.14029,-0.0086 0.28246,-0.01429 0.42661,-0.01721h1.36389c0.69035,0 1.25,0.55964 1.25,1.25c0,0.00784 -0.00007,0.01565 -0.00021,0.02345c0.64554,0.71481 0.02299,1.54488 0.02299,1.54488c-0.19428,0.25904 -0.38856,0.51808 -0.58284,0.77712c-0.04958,0.33875 -0.26852,1.08677 -1.23549,1.08677c-0.36368,0 -0.62155,-0.10582 -0.80439,-0.25587c-0.08333,0.07096 -0.17185,0.13842 -0.26436,0.20268c0.19186,0.00704 0.32688,0.01426 0.3736,0.01426l0.11198,0.06818l0.01,-0.04999l1.34117,0.26824c0.01132,0.00203 0.0226,0.00422 0.03381,0.00655c0.07231,-0.19493 0.12837,-0.40903 0.28038,-0.53172c1.83481,-1.4808 4.03746,-2.01825 5.57031,-3.92383c0.92491,-1.14983 1.24916,-2.52485 1.37506,-3.95655c0.05924,-0.67356 -0.29949,-1.4751 0.09201,-2.0264c0.61501,-0.86606 1.57862,-1.97131 2.62743,-1.80312c0.86264,0.13833 0.67595,1.61256 1.06433,2.39514c1.18818,2.39416 1.16809,4.82585 1.16809,7.52408c-0.03297,1.64788 0.17733,2.32147 1.80912,2.30222l-0.1932,-0.96596c0,0 -0.24514,-1.22573 0.98058,-1.47087c1.22573,-0.24514 1.47087,0.98058 1.47087,0.98058l0.27278,1.36388c0,0 0.01151,0.05755 0.01707,0.15021c0.31775,-0.27702 0.62291,-0.56284 0.91979,-0.85402c0.46565,-1.37541 1.84747,-2.7277 3.36085,-3.45779c0.78161,-0.73638 1.62204,-1.41728 2.59898,-1.98066l0.33366,0.09713v-0.14249h1.36388c0.69036,0 1.25,0.55964 1.25,1.25c0,0.44076 -0.22813,0.82824 -0.57275,1.05082l-1.62053,1.08035l-0.15812,-0.23717c-0.13383,0.10231 -0.26815,0.19966 -0.40492,0.29411c0.00585,0.0269 0.01083,0.05414 0.01492,0.08166l0.26886,1.61312c0.43454,0.1215 0.89225,0.2823 1.36904,0.42909c0.10978,-0.33491 0.33351,-0.55865 0.33351,-0.55865l0.15666,-0.13889c0.54719,-0.52618 0.89365,-1.44848 1.64156,-1.57855c0.69423,-0.12074 1.24781,0.65542 1.88029,0.96606c0.19068,0.09366 0.35722,0.17178 0.50786,0.23808c0.44339,-0.97219 0.64281,-2.29106 0.60923,-3.32015c-0.96022,-1.36356 -2.05389,-2.74686 -2.20416,-3.56128l-0.79053,-1.05403c-0.16156,-0.21062 -0.25758,-0.47414 -0.25758,-0.7601c0,-0.69036 0.55965,-1.25 1.25,-1.25c0.41416,0 0.78127,0.20142 1.00873,0.51164l0.80079,1.06772c0.00947,0.01182 0.02053,0.02562 0.0331,0.04127c0.03075,0.01484 0.10795,0.11351 0.21502,0.26738c0.622,0.77362 2.04309,2.5473 2.12244,2.76711c0.14182,0.39288 0.24141,0.81717 0.30065,1.2605c0.88092,1.5818 1.81912,3.44402 1.47393,4.95502c0.572,0.00297 1.14547,0.02742 1.71942,0.06506c0.18654,-0.26772 0.3682,-0.62795 0.55678,-1.0994l0.2266,-0.12883l-0.06693,-0.06694l1.09111,-1.09111l0.36707,0.36706l1.06601,-0.60607c0.04345,0.39688 0.05614,0.8 0.0779,1.20128l0.61325,0.07666l-0.19978,1.59831c0.74467,-0.00645 1.67248,-0.01526 1.68721,-0.0028h1.36388c0.69035,0 1.25,0.55964 1.25,1.25c0,0.69036 -0.55965,1.25 -1.25,1.25h-1.63666c-0.83754,-0.02238 -1.61739,-0.08085 -2.22572,-0.25432c-0.58083,-0.00151 -1.16198,-0.02488 -1.74381,-0.05246c-1.27513,1.00157 -2.91567,0.71312 -4.7994,0.03967c-0.67085,0.09265 -1.34389,0.24252 -2.01963,0.47574l0.44997,-0.08128c0,0 -0.55902,1.11803 -1.67705,0.55901zM256.32463,317.69654c0.10107,-0.00387 0.20173,-0.00898 0.30196,-0.01484c-0.07052,-0.10294 -0.13596,-0.21092 -0.1965,-0.32399c-0.02176,0.08092 -0.04577,0.16177 -0.07224,0.24255c-0.01062,0.03242 -0.0217,0.06451 -0.03323,0.09628z" fill="#b1a97f" stroke="none" stroke-width="0.5" stroke-linecap="butt"/><path d="M339.58573,320.46467c-0.30193,-0.15096 -0.48155,-0.3427 -0.58291,-0.54217c-0.99056,0.20522 -2.35935,0.21587 -3.65378,-0.0163c-0.22891,0.25631 -0.56191,0.41766 -0.9326,0.41766h-1.27041c-1.25297,0.26333 -2.44922,1.35885 -3.6896,1.04871c-0.51397,-0.12851 -0.89631,-0.40989 -1.17345,-0.77593h-0.14041c-0.16356,0 -0.31979,-0.03142 -0.46297,-0.08854c-0.0512,0.03717 -0.10153,0.07428 -0.15092,0.11131c0,0 -0.92618,0.69463 -1.66436,-0.14444l-1.32101,0.56615l-0.0158,-0.03686c-0.07374,0.03967 -0.14878,0.07722 -0.22527,0.1124c-1.6197,0.74498 -3.85489,0.32307 -5.86653,-0.24136c-1.32897,0.62183 -2.96928,0.81495 -4.20477,0.81244c-1.02559,-0.00208 -3.06919,0.15972 -3.73782,-1.0153c-0.87575,0.15326 -1.98076,0.10091 -2.9741,-0.1286c-0.66609,0.05827 -1.41783,0.05078 -2.41289,0.04671l-0.01875,-0.01238c-0.58558,0.08667 -1.02625,0.13219 -1.10441,0.07632c-0.13093,-0.09357 -0.23186,-0.21046 -0.30945,-0.34427l-0.03053,-0.0061c-0.16007,-0.02875 -0.30955,-0.08797 -0.44225,-0.17145c-0.18484,0.22829 -0.44849,0.39015 -0.74954,0.44422l-1.34117,0.26824l-0.00939,-0.04692l-0.11259,0.06511c-1.46082,0.00597 -6.29957,0.66689 -7.31513,-0.65895c-0.44057,0.12353 -0.85402,0.21614 -1.17715,0.28544c-0.26476,0.08813 -0.53131,0.14128 -0.79908,0.16769c-1.88986,0.36851 -3.36286,0.34343 -4.9024,-0.08428l-0.04653,0.27918l-1.61639,-0.2694c-0.25072,-0.03724 -0.47715,-0.14893 -0.65609,-0.31187c-0.25289,-0.01142 -0.52098,-0.01725 -0.81329,0.00328c-0.1181,0.01674 -0.23621,0.03314 -0.35433,0.04914c-0.66625,0.35084 -1.33528,0.50558 -1.95365,0.30287c-1.95857,0.33363 -3.69013,0.6128 -5.93478,0.24299h-1.83204c-0.69036,0 -1.25,-0.55964 -1.25,-1.25c0,-0.61444 0.44333,-1.12533 1.02756,-1.23026l1.30023,-0.26005c0.19113,-1.19096 1.22346,-2.10079 2.4683,-2.10079c0.89818,0 1.68573,0.47365 2.1265,1.1848c0.1679,-0.10074 0.33581,-0.20148 0.50371,-0.30222l1.36388,-0.81834l0.31716,0.5286l1.31122,-0.226c-0.11374,0.26725 -0.37751,0.74524 -0.60539,1.14913l0.20222,0.20222c0.36406,-0.1616 0.79983,-0.24519 1.11255,-0.48312c0.76136,-0.57929 1.21903,-1.47826 1.89252,-2.15783l0.73824,-1.47647c0.20043,-0.4228 0.63114,-0.7152 1.13014,-0.7152c0.69036,0 1.25,0.55964 1.25,1.25v1.63666h-0.17594c0.08569,0.55696 0.10841,1.11582 0.01923,1.65467c1.23191,-0.22526 2.41958,-0.43571 3.79044,-0.31152c0.09195,-0.04739 0.19054,-0.0837 0.29401,-0.10718l0.56754,-0.14189c-0.11665,-0.188 -0.1905,-0.33325 -0.19863,-0.34409l-0.81075,-1.08101c-0.16156,-0.21062 -0.25758,-0.47415 -0.25758,-0.7601c0,-0.69036 0.55964,-1.25 1.25,-1.25c0.28596,0 0.54948,0.09602 0.7601,0.25757l1.08101,0.81075l-0.18471,0.24628c0.82074,0.41751 1.59107,0.97104 1.96721,1.68594h1.28638c0.66135,0 1.20274,0.5136 1.24706,1.1637c0.32407,0.04559 0.64675,0.11174 0.96615,0.19593c0.26475,0.00237 0.54933,-0.0132 0.86313,-0.06424l0.04671,-0.14014l0.24901,0.083c0.10482,-0.02343 0.21283,-0.05091 0.32431,-0.083c0.91401,-0.26308 1.64328,-2.1105 2.23917,-2.69858c0.32396,-0.31972 0.65576,-0.59512 0.99777,-0.83036c0,-0.5197 0,-1.03938 0,-1.55908v-1.36388v0c0,-0.69036 0.55965,-1.25 1.25,-1.25c0.49901,0 0.92971,0.2924 1.13015,0.71521l0.80622,1.61244l-0.10703,0.05351c0.16237,0.20714 0.32106,0.42004 0.47181,0.63661c0.14029,-0.0086 0.28247,-0.01429 0.42661,-0.01721h1.36388c0.69036,0 1.25,0.55964 1.25,1.25c0,0.00784 -0.00007,0.01565 -0.00022,0.02345c0.64554,0.71481 0.023,1.54488 0.023,1.54488c-0.19428,0.25904 -0.38856,0.51808 -0.58285,0.77712c-0.04958,0.33875 -0.26852,1.08677 -1.23548,1.08677c-0.36368,0 -0.62155,-0.10582 -0.80439,-0.25587c-0.08333,0.07096 -0.17186,0.13842 -0.26436,0.20268c0.19185,0.00704 0.32687,0.01426 0.3736,0.01426l0.11197,0.06818l0.01,-0.04999l1.34118,0.26824c0.01133,0.00203 0.0226,0.00422 0.03381,0.00655c0.07231,-0.19493 0.12837,-0.40903 0.28039,-0.53172c1.83481,-1.4808 4.03746,-2.01825 5.57031,-3.92383c0.92491,-1.14983 1.24915,-2.52485 1.37506,-3.95655c0.05923,-0.67356 -0.29949,-1.4751 0.092,-2.0264c0.61501,-0.86606 1.57862,-1.97131 2.62743,-1.80312c0.86263,0.13833 0.67594,1.61256 1.06432,2.39514c1.18818,2.39416 1.16809,4.82585 1.16809,7.52408c-0.03296,1.64788 0.17733,2.32147 1.80912,2.30222l-0.19319,-0.96596c0,0 -0.24515,-1.22573 0.98058,-1.47087c1.22573,-0.24514 1.47087,0.98058 1.47087,0.98058l0.27278,1.36388c0,0 0.01151,0.05755 0.01707,0.15021c0.31775,-0.27702 0.62291,-0.56284 0.91979,-0.85402c0.46565,-1.37541 1.84747,-2.7277 3.36085,-3.45779c0.78161,-0.73638 1.62204,-1.41728 2.59898,-1.98066l0.33366,0.09713v-0.14249h1.36388c0.69036,0 1.25,0.55964 1.25,1.25c0,0.44076 -0.22813,0.82824 -0.57275,1.05082l-1.62053,1.08035l-0.15812,-0.23717c-0.13383,0.10231 -0.26815,0.19966 -0.40492,0.29411c0.00585,0.0269 0.01083,0.05414 0.01492,0.08166l0.26886,1.61312c0.43454,0.1215 0.89225,0.2823 1.36903,0.42909c0.10977,-0.33491 0.33351,-0.55865 0.33351,-0.55865l0.15666,-0.13889c0.54719,-0.52618 0.89365,-1.44848 1.64155,-1.57855c0.69423,-0.12074 1.24781,0.65542 1.88029,0.96606c0.19069,0.09366 0.35722,0.17178 0.50786,0.23808c0.44339,-0.97219 0.64281,-2.29106 0.60923,-3.32015c-0.96021,-1.36356 -2.05389,-2.74686 -2.20416,-3.56128l-0.79053,-1.05403c-0.16156,-0.21062 -0.25757,-0.47414 -0.25757,-0.7601c0,-0.69036 0.55964,-1.25 1.25,-1.25c0.41415,0 0.78126,0.20142 1.00872,0.51164l0.8008,1.06772c0.00946,0.01182 0.02053,0.02562 0.0331,0.04127c0.03074,0.01484 0.10794,0.11351 0.21502,0.26738c0.622,0.77362 2.04309,2.5473 2.12244,2.76711c0.14183,0.39288 0.24141,0.81717 0.30065,1.2605c0.88092,1.5818 1.81912,3.44402 1.47393,4.95502c0.572,0.00297 1.14547,0.02742 1.71942,0.06506c0.18654,-0.26772 0.3682,-0.62795 0.55678,-1.0994l0.22661,-0.12883l-0.06694,-0.06694l1.0911,-1.09111l0.36707,0.36706l1.06601,-0.60607c0.04345,0.39688 0.05614,0.8 0.0779,1.20128l0.61325,0.07666l-0.19978,1.59831c0.74467,-0.00645 1.67248,-0.01526 1.68721,-0.0028h1.36388c0.69036,0 1.25,0.55964 1.25,1.25c0,0.69036 -0.55964,1.25 -1.25,1.25h-1.63666c-0.83754,-0.02238 -1.61739,-0.08085 -2.22573,-0.25432c-0.58083,-0.00151 -1.16197,-0.02488 -1.74381,-0.05246c-1.27513,1.00157 -2.91567,0.71312 -4.7994,0.03967c-0.67085,0.09265 -1.34389,0.24252 -2.01963,0.47574l0.44997,-0.08128c0,0 -0.55901,1.11803 -1.67705,0.55901zM320.56634,318.74709c0.10108,-0.00387 0.20173,-0.00898 0.30196,-0.01484c-0.07052,-0.10294 -0.13596,-0.21092 -0.1965,-0.32399c-0.02176,0.08092 -0.04577,0.16177 -0.07224,0.24255c-0.01062,0.03242 -0.0217,0.06451 -0.03323,0.09628z" fill="#b1a97f" stroke="none" stroke-width="0.5" stroke-linecap="butt"/><path d="M410.14655,319.14555c-0.30193,-0.15096 -0.48155,-0.3427 -0.58291,-0.54217c-0.99056,0.20522 -2.35934,0.21587 -3.65378,-0.0163c-0.22891,0.25631 -0.56191,0.41766 -0.93261,0.41766h-1.27041c-1.25297,0.26333 -2.44922,1.35885 -3.6896,1.04871c-0.51397,-0.12851 -0.89631,-0.40989 -1.17345,-0.77593h-0.14041c-0.16356,0 -0.31979,-0.03142 -0.46296,-0.08854c-0.0512,0.03717 -0.10154,0.07428 -0.15092,0.11131c0,0 -0.92618,0.69463 -1.66436,-0.14444l-1.32101,0.56615l-0.0158,-0.03686c-0.07373,0.03967 -0.14878,0.07722 -0.22527,0.1124c-1.6197,0.74498 -3.85489,0.32307 -5.86653,-0.24136c-1.32898,0.62183 -2.96929,0.81495 -4.20476,0.81244c-1.02559,-0.00208 -3.06919,0.15972 -3.73783,-1.0153c-0.87575,0.15326 -1.98076,0.10091 -2.9741,-0.1286c-0.66609,0.05827 -1.41783,0.05078 -2.41288,0.04671l-0.01875,-0.01238c-0.58558,0.08667 -1.02624,0.13219 -1.10441,0.07632c-0.13093,-0.09357 -0.23186,-0.21046 -0.30945,-0.34427l-0.03054,-0.0061c-0.16006,-0.02875 -0.30955,-0.08797 -0.44224,-0.17145c-0.18484,0.22829 -0.44849,0.39015 -0.74954,0.44422l-1.34118,0.26824l-0.00938,-0.04692l-0.11259,0.06511c-1.46082,0.00597 -6.29956,0.66689 -7.31513,-0.65895c-0.44057,0.12353 -0.85402,0.21614 -1.17715,0.28544c-0.26476,0.08813 -0.53131,0.14128 -0.79908,0.16769c-1.88986,0.36851 -3.36286,0.34343 -4.9024,-0.08428l-0.04653,0.27918l-1.6164,-0.2694c-0.25072,-0.03724 -0.47714,-0.14893 -0.65609,-0.31187c-0.25289,-0.01142 -0.52098,-0.01725 -0.81329,0.00328c-0.1181,0.01674 -0.23621,0.03314 -0.35432,0.04914c-0.66625,0.35084 -1.33528,0.50558 -1.95364,0.30287c-1.95857,0.33363 -3.69013,0.6128 -5.93479,0.24299h-1.83204c-0.69035,0 -1.25,-0.55964 -1.25,-1.25c0,-0.61444 0.44333,-1.12533 1.02756,-1.23026l1.30024,-0.26005c0.19112,-1.19096 1.22346,-2.10079 2.4683,-2.10079c0.89818,0 1.68573,0.47365 2.12649,1.1848c0.1679,-0.10074 0.33581,-0.20148 0.50371,-0.30222l1.36388,-0.81834l0.31715,0.5286l1.31122,-0.226c-0.11374,0.26725 -0.37751,0.74524 -0.60539,1.14913l0.20222,0.20222c0.36406,-0.1616 0.79983,-0.24519 1.11255,-0.48312c0.76137,-0.57929 1.21903,-1.47826 1.89252,-2.15783l0.73824,-1.47647c0.20043,-0.4228 0.63114,-0.7152 1.13015,-0.7152c0.69035,0 1.25,0.55964 1.25,1.25v1.63666h-0.17595c0.08569,0.55696 0.10841,1.11582 0.01924,1.65467c1.23191,-0.22526 2.41959,-0.43571 3.79044,-0.31152c0.09196,-0.04739 0.19054,-0.0837 0.29401,-0.10718l0.56754,-0.14189c-0.11666,-0.188 -0.19051,-0.33325 -0.19863,-0.34409l-0.81076,-1.08101c-0.16155,-0.21062 -0.25757,-0.47415 -0.25757,-0.7601c0,-0.69036 0.55965,-1.25 1.25,-1.25c0.28596,0 0.54948,0.09602 0.7601,0.25757l1.081,0.81075l-0.1847,0.24628c0.82074,0.41751 1.59107,0.97104 1.96721,1.68594h1.28638c0.66135,0 1.20273,0.5136 1.24707,1.1637c0.32407,0.04559 0.64675,0.11174 0.96614,0.19593c0.26475,0.00237 0.54933,-0.0132 0.86313,-0.06424l0.04671,-0.14014l0.24901,0.083c0.10481,-0.02343 0.21282,-0.05091 0.32431,-0.083c0.914,-0.26308 1.64328,-2.1105 2.23917,-2.69858c0.32397,-0.31972 0.65577,-0.59512 0.99777,-0.83036c0,-0.5197 0,-1.03938 0,-1.55908v-1.36388v0c0,-0.69036 0.55964,-1.25 1.25,-1.25c0.49901,0 0.92971,0.2924 1.13014,0.71521l0.80622,1.61244l-0.10703,0.05351c0.16237,0.20714 0.32106,0.42004 0.47181,0.63661c0.14029,-0.0086 0.28247,-0.01429 0.42661,-0.01721h1.36388c0.69036,0 1.25,0.55964 1.25,1.25c0,0.00784 -0.00007,0.01565 -0.00021,0.02345c0.64554,0.71481 0.02299,1.54488 0.02299,1.54488c-0.19428,0.25904 -0.38856,0.51808 -0.58285,0.77712c-0.04957,0.33875 -0.26852,1.08677 -1.23548,1.08677c-0.36368,0 -0.62155,-0.10582 -0.80439,-0.25587c-0.08333,0.07096 -0.17186,0.13842 -0.26436,0.20268c0.19185,0.00704 0.32687,0.01426 0.3736,0.01426l0.11197,0.06818l0.01,-0.04999l1.34117,0.26824c0.01133,0.00203 0.0226,0.00422 0.03381,0.00655c0.07231,-0.19493 0.12837,-0.40903 0.28039,-0.53172c1.83481,-1.4808 4.03746,-2.01825 5.57031,-3.92383c0.92492,-1.14983 1.24916,-2.52485 1.37506,-3.95655c0.05923,-0.67356 -0.29949,-1.4751 0.092,-2.0264c0.61501,-0.86606 1.57862,-1.97131 2.62743,-1.80312c0.86263,0.13833 0.67594,1.61256 1.06432,2.39514c1.18818,2.39416 1.16809,4.82585 1.16809,7.52408c-0.03296,1.64788 0.17733,2.32147 1.80912,2.30222l-0.19319,-0.96596c0,0 -0.24514,-1.22573 0.98058,-1.47087c1.22572,-0.24514 1.47087,0.98058 1.47087,0.98058l0.27278,1.36388c0,0 0.01151,0.05755 0.01707,0.15021c0.31774,-0.27702 0.62291,-0.56284 0.91979,-0.85402c0.46566,-1.37541 1.84747,-2.7277 3.36085,-3.45779c0.78161,-0.73638 1.62204,-1.41728 2.59899,-1.98066l0.33366,0.09713v-0.14249h1.36388c0.69035,0 1.25,0.55964 1.25,1.25c0,0.44076 -0.22813,0.82824 -0.57276,1.05082l-1.62053,1.08035l-0.15811,-0.23717c-0.13383,0.10231 -0.26815,0.19966 -0.40492,0.29411c0.00585,0.0269 0.01083,0.05414 0.01492,0.08166l0.26885,1.61312c0.43454,0.1215 0.89225,0.2823 1.36904,0.42909c0.10978,-0.33491 0.33351,-0.55865 0.33351,-0.55865l0.15666,-0.13889c0.54719,-0.52618 0.89365,-1.44848 1.64155,-1.57855c0.69423,-0.12074 1.24781,0.65542 1.88029,0.96606c0.19069,0.09366 0.35722,0.17178 0.50786,0.23808c0.44339,-0.97219 0.64281,-2.29106 0.60923,-3.32015c-0.96021,-1.36356 -2.05389,-2.74686 -2.20416,-3.56128l-0.79053,-1.05403c-0.16156,-0.21062 -0.25757,-0.47414 -0.25757,-0.7601c0,-0.69036 0.55964,-1.25 1.25,-1.25c0.41415,0 0.78126,0.20142 1.00873,0.51164l0.80079,1.06772c0.00946,0.01182 0.02053,0.02562 0.0331,0.04127c0.03074,0.01484 0.10794,0.11351 0.21502,0.26738c0.622,0.77362 2.04309,2.5473 2.12244,2.76711c0.14183,0.39288 0.24141,0.81717 0.30065,1.2605c0.88092,1.5818 1.81912,3.44402 1.47393,4.95502c0.572,0.00297 1.14546,0.02742 1.71942,0.06506c0.18654,-0.26772 0.3682,-0.62795 0.55678,-1.0994l0.2266,-0.12883l-0.06693,-0.06694l1.0911,-1.09111l0.36707,0.36706l1.06601,-0.60607c0.04345,0.39688 0.05614,0.8 0.0779,1.20128l0.61325,0.07666l-0.19979,1.59831c0.74468,-0.00645 1.67248,-0.01526 1.68721,-0.0028h1.36388c0.69035,0 1.25,0.55964 1.25,1.25c0,0.69036 -0.55965,1.25 -1.25,1.25h-1.63666c-0.83754,-0.02238 -1.61739,-0.08085 -2.22573,-0.25432c-0.58083,-0.00151 -1.16197,-0.02488 -1.74381,-0.05246c-1.27513,1.00157 -2.91567,0.71312 -4.7994,0.03967c-0.67085,0.09265 -1.34389,0.24252 -2.01963,0.47574l0.44997,-0.08128c0,0 -0.55901,1.11803 -1.67705,0.55901zM391.12716,317.42798c0.10108,-0.00387 0.20173,-0.00898 0.30196,-0.01484c-0.07052,-0.10294 -0.13596,-0.21092 -0.1965,-0.32399c-0.02176,0.08092 -0.04577,0.16177 -0.07224,0.24255c-0.01062,0.03242 -0.0217,0.06451 -0.03323,0.09628z" fill="#b1a97f" stroke="none" stroke-width="0.5" stroke-linecap="butt"/><path d="M466.48936,320.19611c-0.30193,-0.15096 -0.48155,-0.3427 -0.58291,-0.54217c-0.99056,0.20522 -2.35935,0.21587 -3.65378,-0.0163c-0.22891,0.25631 -0.56191,0.41766 -0.9326,0.41766h-1.27042c-1.25297,0.26333 -2.44922,1.35884 -3.68959,1.04871c-0.51397,-0.12851 -0.89631,-0.40989 -1.17345,-0.77593h-0.14041c-0.16356,0 -0.31979,-0.03142 -0.46297,-0.08854c-0.0512,0.03717 -0.10154,0.07428 -0.15092,0.11131c0,0 -0.92618,0.69463 -1.66436,-0.14444l-1.32101,0.56615l-0.0158,-0.03687c-0.07373,0.03967 -0.14877,0.07722 -0.22527,0.11241c-1.6197,0.74498 -3.85489,0.32307 -5.86653,-0.24136c-1.32898,0.62183 -2.96929,0.81495 -4.20477,0.81244c-1.02559,-0.00208 -3.06919,0.15972 -3.73782,-1.0153c-0.87575,0.15326 -1.98076,0.10091 -2.9741,-0.1286c-0.66609,0.05827 -1.41783,0.05077 -2.41289,0.0467l-0.01875,-0.01238c-0.58558,0.08667 -1.02624,0.13219 -1.10441,0.07632c-0.13093,-0.09357 -0.23186,-0.21046 -0.30945,-0.34426l-0.03053,-0.00611c-0.16006,-0.02875 -0.30955,-0.08797 -0.44225,-0.17144c-0.18484,0.22829 -0.44848,0.39015 -0.74954,0.44422l-1.34118,0.26824l-0.00939,-0.04692l-0.11259,0.06511c-1.46082,0.00597 -6.29957,0.66689 -7.31513,-0.65895c-0.44057,0.12353 -0.85402,0.21614 -1.17715,0.28544c-0.26476,0.08813 -0.53131,0.14128 -0.79908,0.16769c-1.88986,0.36851 -3.36286,0.34343 -4.9024,-0.08429l-0.04653,0.27919l-1.6164,-0.2694c-0.25072,-0.03724 -0.47715,-0.14893 -0.65609,-0.31187c-0.25289,-0.01142 -0.52098,-0.01726 -0.81329,0.00327c-0.1181,0.01674 -0.23621,0.03315 -0.35433,0.04914c-0.66625,0.35084 -1.33528,0.50557 -1.95364,0.30287c-1.95857,0.33363 -3.69013,0.6128 -5.93478,0.243h-1.83204c-0.69036,0 -1.25,-0.55964 -1.25,-1.25c0,-0.61444 0.44333,-1.12533 1.02756,-1.23026l1.30024,-0.26005c0.19112,-1.19096 1.22346,-2.10079 2.4683,-2.10079c0.89818,0 1.68572,0.47365 2.12649,1.1848c0.1679,-0.10074 0.33581,-0.20148 0.50371,-0.30222l1.36388,-0.81833l0.31716,0.5286l1.31122,-0.22599c-0.11374,0.26725 -0.37751,0.74524 -0.60539,1.14913l0.20222,0.20222c0.36406,-0.1616 0.79983,-0.24519 1.11255,-0.48312c0.76137,-0.57929 1.21903,-1.47826 1.89252,-2.15783l0.73824,-1.47648c0.20043,-0.4228 0.63114,-0.7152 1.13015,-0.7152c0.69036,0 1.25,0.55964 1.25,1.25v1.63666h-0.17595c0.08569,0.55696 0.10841,1.11582 0.01924,1.65467c1.23191,-0.22526 2.41958,-0.43572 3.79043,-0.31152c0.09195,-0.04739 0.19054,-0.0837 0.29401,-0.10718l0.56754,-0.14189c-0.11665,-0.188 -0.1905,-0.33325 -0.19863,-0.34409l-0.81076,-1.08101c-0.16156,-0.21062 -0.25757,-0.47415 -0.25757,-0.76011c0,-0.69036 0.55964,-1.25 1.25,-1.25c0.28596,0 0.54948,0.09602 0.7601,0.25758l1.08101,0.81075l-0.18471,0.24628c0.82074,0.41751 1.59107,0.97103 1.96721,1.68594h1.28638c0.66135,0 1.20273,0.51361 1.24706,1.16371c0.32407,0.04559 0.64675,0.11174 0.96615,0.19593c0.26475,0.00237 0.54932,-0.0132 0.86313,-0.06424l0.04671,-0.14014l0.24901,0.083c0.10481,-0.02343 0.21282,-0.05091 0.32431,-0.083c0.914,-0.26308 1.64328,-2.1105 2.23917,-2.69858c0.32396,-0.31972 0.65577,-0.59511 0.99777,-0.83036c0,-0.5197 0,-1.03938 0,-1.55908v-1.36388v0c0,-0.69036 0.55964,-1.25 1.25,-1.25c0.49901,0 0.92972,0.2924 1.13015,0.7152l0.80622,1.61244l-0.10703,0.05351c0.16237,0.20714 0.32106,0.42004 0.47181,0.6366c0.14029,-0.0086 0.28247,-0.01429 0.42661,-0.01721h1.36388c0.69036,0 1.25,0.55964 1.25,1.25c0,0.00784 -0.00007,0.01565 -0.00021,0.02345c0.64554,0.71481 0.02299,1.54488 0.02299,1.54488c-0.19428,0.25904 -0.38857,0.51808 -0.58285,0.77712c-0.04958,0.33875 -0.26852,1.08676 -1.23548,1.08676c-0.36368,0 -0.62155,-0.10581 -0.80439,-0.25586c-0.08333,0.07096 -0.17185,0.13842 -0.26436,0.20268c0.19185,0.00704 0.32688,0.01426 0.3736,0.01426l0.11197,0.06819l0.01,-0.05l1.34118,0.26824c0.01132,0.00203 0.0226,0.00422 0.03381,0.00655c0.0723,-0.19493 0.12837,-0.40903 0.28038,-0.53171c1.83481,-1.4808 4.03746,-2.01825 5.57031,-3.92383c0.92491,-1.14983 1.24916,-2.52485 1.37506,-3.95655c0.05924,-0.67356 -0.29949,-1.4751 0.092,-2.02641c0.61501,-0.86606 1.57862,-1.97131 2.62743,-1.80312c0.86264,0.13833 0.67595,1.61255 1.06432,2.39514c1.18818,2.39416 1.16809,4.82585 1.16809,7.52409c-0.03296,1.64788 0.17733,2.32147 1.80912,2.30221l-0.1932,-0.96596c0,0 -0.24514,-1.22573 0.98058,-1.47087c1.22573,-0.24514 1.47087,0.98058 1.47087,0.98058l0.27278,1.36388c0,0 0.01151,0.05755 0.01707,0.15021c0.31775,-0.27702 0.62291,-0.56284 0.91979,-0.85403c0.46566,-1.37541 1.84747,-2.7277 3.36084,-3.45779c0.78161,-0.73638 1.62204,-1.41728 2.59899,-1.98066l0.33366,0.09713v-0.14248h1.36388c0.69036,0 1.25,0.55964 1.25,1.25c0,0.44076 -0.22813,0.82824 -0.57275,1.05082l-1.62053,1.08035l-0.15812,-0.23718c-0.13383,0.10231 -0.26815,0.19966 -0.40492,0.29411c0.00585,0.0269 0.01083,0.05413 0.01492,0.08165l0.26886,1.61312c0.43454,0.1215 0.89225,0.28229 1.36903,0.42909c0.10978,-0.33491 0.33351,-0.55865 0.33351,-0.55865l0.15666,-0.13889c0.54719,-0.52618 0.89365,-1.44847 1.64155,-1.57854c0.69423,-0.12074 1.24781,0.65542 1.88029,0.96606c0.19068,0.09366 0.35723,0.17177 0.50786,0.23807c0.44339,-0.97219 0.64281,-2.29106 0.60922,-3.32014c-0.96022,-1.36356 -2.05388,-2.74686 -2.20416,-3.56128l-0.79053,-1.05403c-0.16156,-0.21062 -0.25758,-0.47414 -0.25758,-0.7601c0,-0.69036 0.55964,-1.25 1.25,-1.25c0.41415,0 0.78127,0.20142 1.00873,0.51164l0.80079,1.06772c0.00946,0.01182 0.02053,0.02562 0.0331,0.04127c0.03075,0.01484 0.10794,0.1135 0.21502,0.26737c0.622,0.77362 2.04309,2.5473 2.12244,2.76711c0.14182,0.39288 0.24141,0.81717 0.30064,1.2605c0.88092,1.5818 1.81912,3.44402 1.47393,4.95502c0.572,0.00297 1.14547,0.02742 1.71942,0.06506c0.18654,-0.26772 0.3682,-0.62795 0.55678,-1.0994l0.22661,-0.12884l-0.06694,-0.06694l1.09111,-1.0911l0.36706,0.36706l1.06601,-0.60607c0.04345,0.39688 0.05613,0.8 0.0779,1.20128l0.61325,0.07666l-0.19978,1.59831c0.74467,-0.00645 1.67248,-0.01526 1.68721,-0.0028h1.36388c0.69036,0 1.25,0.55964 1.25,1.25c0,0.69036 -0.55964,1.25 -1.25,1.25h-1.63666c-0.83754,-0.02238 -1.61739,-0.08085 -2.22573,-0.25432c-0.58083,-0.00151 -1.16197,-0.02488 -1.74381,-0.05246c-1.27513,1.00157 -2.91567,0.71311 -4.7994,0.03966c-0.67086,0.09265 -1.34389,0.24252 -2.01963,0.47575l0.44997,-0.08128c0,0 -0.55901,1.11803 -1.67705,0.55901zM447.46997,318.47853c0.10107,-0.00387 0.20173,-0.00898 0.30196,-0.01484c-0.07052,-0.10294 -0.13596,-0.21092 -0.1965,-0.32399c-0.02176,0.08092 -0.04578,0.16177 -0.07224,0.24255c-0.01062,0.03242 -0.0217,0.06451 -0.03322,0.09628z" fill="#b1a97f" stroke="none" stroke-width="0.5" stroke-linecap="butt"/><path d="M531.52096,321.06572c-0.30193,-0.17318 -0.48155,-0.39313 -0.58291,-0.62196c-0.99056,0.23541 -2.35935,0.24764 -3.65378,-0.0187c-0.22891,0.29403 -0.56191,0.47913 -0.9326,0.47913h-1.27041c-1.25297,0.30208 -2.44922,1.55881 -3.6896,1.20304c-0.51397,-0.14742 -0.89631,-0.47021 -1.17345,-0.89011h-0.14041c-0.16356,0 -0.31979,-0.03604 -0.46297,-0.10157c-0.0512,0.04265 -0.10154,0.08521 -0.15092,0.1277c0,0 -0.92617,0.79685 -1.66436,-0.1657l-1.32101,0.64946l-0.0158,-0.04229c-0.07373,0.04551 -0.14877,0.08858 -0.22527,0.12895c-1.6197,0.8546 -3.8549,0.37061 -5.86653,-0.27688c-1.32898,0.71333 -2.96929,0.93488 -4.20477,0.932c-1.02559,-0.00239 -3.06918,0.18322 -3.73782,-1.16471c-0.87575,0.17581 -1.98076,0.11576 -2.9741,-0.14752c-0.66609,0.06684 -1.41783,0.05825 -2.41289,0.05358l-0.01875,-0.0142c-0.58558,0.09942 -1.02624,0.15164 -1.10441,0.08756c-0.13093,-0.10735 -0.23186,-0.24143 -0.30945,-0.39493l-0.03053,-0.007c-0.16006,-0.03298 -0.30955,-0.10092 -0.44225,-0.19667c-0.18484,0.26188 -0.44848,0.44756 -0.74954,0.50959l-1.34118,0.30771l-0.00939,-0.05382l-0.11259,0.07469c-1.46082,0.00685 -6.29957,0.76503 -7.31513,-0.75591c-0.44057,0.14171 -0.85402,0.24794 -1.17715,0.32744c-0.26476,0.1011 -0.53131,0.16206 -0.79908,0.19236c-1.88986,0.42274 -3.36286,0.39397 -4.9024,-0.09669l-0.04653,0.32027l-1.6164,-0.30904c-0.25072,-0.04273 -0.47715,-0.17085 -0.65609,-0.35777c-0.25289,-0.0131 -0.52098,-0.01979 -0.81329,0.00376c-0.1181,0.0192 -0.23621,0.03802 -0.35433,0.05637c-0.66625,0.40247 -1.33528,0.57997 -1.95364,0.34744c-1.95857,0.38273 -3.69013,0.70298 -5.93478,0.27875h-1.83204c-0.69036,0 -1.25,-0.642 -1.25,-1.43395c0,-0.70486 0.44333,-1.29093 1.02756,-1.41131l1.30024,-0.29832c0.19112,-1.36622 1.22346,-2.40994 2.4683,-2.40994c0.89818,0 1.68572,0.54335 2.12649,1.35915c0.1679,-0.11556 0.33581,-0.23113 0.50371,-0.34669l1.36388,-0.93876l0.31716,0.60639l1.31122,-0.25925c-0.11374,0.30658 -0.37751,0.85491 -0.60539,1.31823l0.20222,0.23198c0.36406,-0.18538 0.79983,-0.28128 1.11255,-0.55422c0.76137,-0.66453 1.21903,-1.6958 1.89252,-2.47537l0.73824,-1.69375c0.20043,-0.48502 0.63114,-0.82045 1.13015,-0.82045c0.69036,0 1.25,0.642 1.25,1.43395v1.87751h-0.17595c0.08569,0.63893 0.10841,1.28002 0.01924,1.89817c1.23191,-0.2584 2.41958,-0.49983 3.79043,-0.35736c0.09195,-0.05436 0.19054,-0.09602 0.29401,-0.12295l0.56754,-0.16276c-0.11665,-0.21567 -0.1905,-0.38229 -0.19863,-0.39472l-0.81076,-1.24008c-0.16156,-0.24161 -0.25757,-0.54393 -0.25757,-0.87196c0,-0.79195 0.55964,-1.43395 1.25,-1.43395c0.28596,0 0.54948,0.11015 0.7601,0.29548l1.08101,0.93006l-0.18471,0.28252c0.82074,0.47896 1.59107,1.11393 1.96721,1.93404h1.28638c0.66135,0 1.20273,0.58919 1.24706,1.33495c0.32407,0.0523 0.64675,0.12819 0.96615,0.22476c0.26475,0.00272 0.54932,-0.01514 0.86313,-0.07369l0.04671,-0.16076l0.24901,0.09521c0.10481,-0.02688 0.21282,-0.0584 0.32431,-0.09521c0.914,-0.30179 1.64328,-2.42108 2.23917,-3.09569c0.32396,-0.36677 0.65577,-0.68269 0.99777,-0.95255c0,-0.59617 0,-1.19234 0,-1.78851v-1.56459v0c0,-0.79195 0.55964,-1.43395 1.25,-1.43395c0.49901,0 0.92972,0.33543 1.13015,0.82045l0.80622,1.84972l-0.10703,0.06138c0.16237,0.23762 0.32106,0.48185 0.47181,0.73029c0.14029,-0.00987 0.28247,-0.01639 0.42661,-0.01974h1.36389c0.69035,0 1.25,0.642 1.25,1.43395c0,0.00899 -0.00007,0.01795 -0.00022,0.0269c0.64554,0.82 0.023,1.77222 0.023,1.77222c-0.19428,0.29716 -0.38857,0.59432 -0.58285,0.89148c-0.04958,0.38859 -0.26852,1.24669 -1.23549,1.24669c-0.36368,0 -0.62155,-0.12139 -0.80439,-0.29352c-0.08333,0.0814 -0.17185,0.15879 -0.26436,0.23251c0.19185,0.00808 0.32688,0.01636 0.3736,0.01636l0.11197,0.07822l0.01,-0.05735l1.34118,0.30771c0.01132,0.00233 0.02259,0.00484 0.03381,0.00752c0.07231,-0.22362 0.12837,-0.46922 0.28039,-0.60996c1.83481,-1.69871 4.03746,-2.31525 5.57031,-4.50125c0.92492,-1.31903 1.24916,-2.8964 1.37506,-4.53879c0.05923,-0.77269 -0.29949,-1.69218 0.092,-2.32461c0.61501,-0.99351 1.57862,-2.26141 2.62743,-2.06846c0.86263,0.15869 0.67594,1.84986 1.06433,2.74761c1.18818,2.74649 1.16809,5.53602 1.16809,8.63132c-0.03296,1.89038 0.17733,2.66309 1.80912,2.64101l-0.19319,-1.10811c0,0 -0.24514,-1.4061 0.98058,-1.68732c1.22573,-0.28122 1.47087,1.12488 1.47087,1.12488l0.27278,1.56459c0,0 0.01151,0.06602 0.01707,0.17231c0.31775,-0.31778 0.62291,-0.64566 0.91979,-0.9797c0.46566,-1.57781 1.84747,-3.1291 3.36085,-3.96663c0.78161,-0.84475 1.62204,-1.62585 2.59898,-2.27213l0.33367,0.11142v-0.16345h1.36388c0.69035,0 1.25,0.642 1.25,1.43395c0,0.50563 -0.22813,0.95013 -0.57275,1.20545l-1.62053,1.23934l-0.15811,-0.27208c-0.13384,0.11737 -0.26815,0.22904 -0.40492,0.33739c0.00585,0.03086 0.01083,0.0621 0.01492,0.09367l0.26886,1.8505c0.43454,0.13938 0.89225,0.32384 1.36904,0.49223c0.10977,-0.38419 0.33351,-0.64086 0.33351,-0.64086l0.15666,-0.15933c0.54719,-0.60361 0.89365,-1.66163 1.64156,-1.81084c0.69423,-0.1385 1.24781,0.75187 1.88029,1.10822c0.19069,0.10744 0.35723,0.19705 0.50786,0.27311c0.44339,-1.11526 0.64281,-2.62821 0.60922,-3.80873c-0.96022,-1.56423 -2.05389,-3.15108 -2.20416,-4.08535l-0.79053,-1.20915c-0.16155,-0.24161 -0.25758,-0.54392 -0.25758,-0.87196c0,-0.79195 0.55965,-1.43395 1.25,-1.43395c0.41416,0 0.78127,0.23106 1.00873,0.58693l0.80079,1.22485c0.00947,0.01356 0.02053,0.02939 0.0331,0.04734c0.03075,0.01703 0.10794,0.13021 0.21502,0.30672c0.622,0.88746 2.04309,2.92215 2.12244,3.17431c0.14182,0.4507 0.24141,0.93742 0.30065,1.44599c0.88092,1.81458 1.81912,3.95084 1.47393,5.6842c0.572,0.00341 1.14547,0.03145 1.71942,0.07463c0.18654,-0.30712 0.3682,-0.72035 0.55678,-1.26119l0.22661,-0.14779l-0.06694,-0.07679l1.0911,-1.25167l0.36706,0.42108l1.06601,-0.69526c0.04345,0.45528 0.05614,0.91773 0.0779,1.37806l0.61325,0.08794l-0.19978,1.83352c0.74467,-0.0074 1.67248,-0.01751 1.68721,-0.00322h1.36388c0.69035,0 1.25,0.642 1.25,1.43395c0,0.79195 -0.55965,1.43395 -1.25,1.43395h-1.63666c-0.83754,-0.02567 -1.61739,-0.09274 -2.22573,-0.29174c-0.58083,-0.00173 -1.16197,-0.02854 -1.74381,-0.06019c-1.27512,1.14895 -2.91567,0.81806 -4.7994,0.0455c-0.67086,0.10628 -1.34389,0.27821 -2.01963,0.54576l0.44997,-0.09325c0,0 -0.55902,1.28256 -1.67705,0.64128zM512.50156,319.09539c0.10107,-0.00444 0.20172,-0.01031 0.30196,-0.01702c-0.07051,-0.11808 -0.13596,-0.24196 -0.1965,-0.37167c-0.02176,0.09283 -0.04578,0.18558 -0.07224,0.27824c-0.01062,0.03719 -0.0217,0.074 -0.03322,0.11045z" fill="#b1a97f" stroke="none" stroke-width="0.5" stroke-linecap="butt"/><path d="M-39.68519,324.76737v-3.4642h536.9515v3.4642z" fill="#746f54" stroke="none" stroke-width="0" stroke-linecap="butt"/><path d="M87.5976,343.99775c0,1.93493 -21.17572,3.5035 -47.2973,3.5035c-26.12158,0 -47.2973,-1.56857 -47.2973,-3.5035c0,-1.93493 21.17572,-3.5035 47.2973,-3.5035c26.12158,0 47.2973,1.56857 47.2973,3.5035z" fill="#746f54" stroke="none" stroke-width="0" stroke-linecap="butt"/><path d="M294.8048,335.73949c0,2.48777 -29.91491,4.5045 -66.81682,4.5045c-36.90191,0 -66.81682,-2.01674 -66.81682,-4.5045c0,-2.48777 29.91491,-4.5045 66.81682,-4.5045c36.90191,0 66.81682,2.01674 66.81682,4.5045z" fill="#746f54" stroke="none" stroke-width="0" stroke-linecap="butt"/><path d="M508.01802,366.52027c0,-9.53645 -47.7294,-17.26727 -106.60661,-17.26727c-58.8772,0 -106.60661,7.73082 -106.60661,17.26727c0,9.53645 47.7294,17.26727 106.60661,17.26727c58.8772,0 106.60661,-7.73082 106.60661,-17.26727z" fill="#746f54" stroke="none" stroke-width="0" stroke-linecap="butt"/><path d="M471.98198,330.48424c0,1.24388 -29.91491,2.25225 -66.81682,2.25225c-36.90191,0 -66.81682,-1.00837 -66.81682,-2.25225c0,-1.24388 29.91491,-2.25225 66.81682,-2.25225c36.90191,0 66.81682,1.00837 66.81682,2.25225z" fill="#746f54" stroke="none" stroke-width="0" stroke-linecap="butt"/><path d="M137.14715,331.23499c0,0.82926 -36.97348,1.5015 -82.58258,1.5015c-45.6091,0 -82.58258,-0.67225 -82.58258,-1.5015c0,-0.82926 36.97348,-1.5015 82.58258,-1.5015c45.6091,0 82.58258,0.67225 82.58258,1.5015z" fill="#746f54" stroke="none" stroke-width="0" stroke-linecap="butt"/><path d="M210.72072,395.0488c0,-13.68273 -31.2594,-24.77477 -69.81982,-24.77477c-38.56042,0 -69.81982,11.09204 -69.81982,24.77477c0,13.68273 31.2594,24.77477 69.81982,24.77477c38.56042,0 69.81982,-11.09204 69.81982,-24.77477z" fill="#746f54" stroke="none" stroke-width="0" stroke-linecap="butt"/></g></g></svg>