<svg version="1.1" xmlns="http://www.w3.org/2000/svg" xmlns:xlink="http://www.w3.org/1999/xlink" width="568.71636" height="50.57386" viewBox="0,0,568.71636,50.57386"><g transform="translate(303.5,-154.71307)"><g data-paper-data="{&quot;isPaintingLayer&quot;:true}" fill-rule="nonzero" stroke-linecap="butt" stroke-linejoin="miter" stroke-miterlimit="10" stroke-dasharray="" stroke-dashoffset="0" style="mix-blend-mode: normal"><path d="M-303.5,175.5z" fill="#29ff00" stroke="#000000" stroke-width="2"/><g><g><path d="M256.05892,161.497c10.01037,8.68809 10.93557,24.01526 2.06647,34.23419c-8.8691,10.21893 -24.17394,11.45991 -34.18431,2.77182c-10.01037,-8.68809 -10.93557,-24.01526 -2.06647,-34.23419c8.8691,-10.21893 24.17394,-11.45991 34.18431,-2.77182z" fill="#052c00" stroke="#000000" stroke-width="2"/><path d="M255.32155,162.93891c8.86105,7.69058 9.44034,21.53415 1.29387,30.92047c-8.14647,9.38632 -21.93379,10.76099 -30.79485,3.0704c-8.86105,-7.69058 -9.44034,-21.53415 -1.29386,-30.92047c8.14647,-9.38632 21.93379,-10.76098 30.79484,-3.07039z" fill="#084500" stroke="none" stroke-width="0"/><path d="M247.19489,165.08333c4.91956,4.26973 5.3079,11.87865 0.86738,16.995c-4.44053,5.11635 -12.02837,5.80266 -16.94793,1.53293c-4.91956,-4.26973 -5.3079,-11.87865 -0.86738,-16.995c4.44053,-5.11635 12.02837,-5.80266 16.94793,-1.53293z" fill="#000000" stroke="none" stroke-width="0"/><path d="M240.7651,174.30058c-0.52641,6.4493 -1.57799,11.62649 -2.34876,11.56358c-0.77077,-0.06291 -0.96886,-5.34211 -0.44245,-11.79141c0.52641,-6.4493 1.578,-11.6265 2.34877,-11.56358c0.77077,0.06291 0.96886,5.34211 0.44245,11.79142z" fill="#8b0000" stroke="none" stroke-width="0"/><path d="M247.16438,165.24902c4.89879,4.2517 5.31433,11.79525 0.92815,16.84899c-4.38618,5.05374 -11.91315,5.70391 -16.81193,1.45222c-4.89879,-4.2517 -5.31433,-11.79525 -0.92815,-16.84899c4.38618,-5.05374 11.91315,-5.70391 16.81193,-1.45222z" fill="none" stroke="#a30000" stroke-width="0.25"/><path d="M233.87601,180.60617c0.23809,0.07624 0.16184,0.31433 0.16184,0.31433l-0.08037,0.251c-0.10588,0.3288 -0.20839,0.67017 -0.27703,1.00886c0.03216,0.00966 0.06603,0.02786 0.10074,0.05799c0.18881,0.16387 0.02494,0.35267 0.02494,0.35267l-0.28774,0.10037c-1.23707,-0.4045 -1.64034,1.33982 -0.43689,1.88503c0,0 0.22656,0.10569 0.12087,0.33225c-0.10569,0.22656 -0.33226,0.12087 -0.33226,0.12087c-1.53979,-0.73421 -1.15244,-2.926 0.31078,-2.8988c0.00074,-0.00553 0.00134,-0.00859 0.00134,-0.00859c0.07452,-0.37077 0.18409,-0.74231 0.29905,-1.10312l0.08038,-0.25099c0,0 0.07625,-0.23809 0.31433,-0.16185z" fill="#a30000" stroke="none" stroke-width="0.5"/><path d="M235.00218,179.13923c-0.10569,0.22656 -0.33225,0.12087 -0.33225,0.12087l-0.20689,-0.0977c-1.18373,-0.29966 -2.32492,0.13826 -3.56752,-0.25957c0,0 -0.00675,-0.00217 -0.01762,-0.0069c-0.8087,1.02371 -1.40288,2.27139 -2.78704,1.08193c0,0 -0.18881,-0.16387 -0.02494,-0.35267c0.16387,-0.18881 0.35267,-0.02494 0.35267,-0.02494c1.41092,1.23942 2.12695,-1.82606 3.64963,-2.19245l0.25522,0.05407c0,0 0.23095,0.09576 0.13519,0.32669c-0.09575,0.23094 -0.32669,0.13518 -0.32669,0.13518l0.05305,-0.02976c-0.36844,0.08834 -0.67452,0.30962 -0.94709,0.58734c1.16858,0.29951 2.25051,-0.08612 3.39366,0.21035l0.24973,0.11532c0,0 0.22656,0.10569 0.12087,0.33225z" fill="#a30000" stroke="none" stroke-width="0.5"/><path d="M238.06409,186.06769c-0.10427,-0.0905 -0.11544,-0.2484 -0.02494,-0.35267c0.0905,-0.10427 0.2484,-0.11544 0.35267,-0.02494c0.10427,0.0905 0.11544,0.2484 0.02494,0.35267c-0.0905,0.10427 -0.2484,0.11544 -0.35267,0.02494z" fill="#a30000" stroke="none" stroke-width="0.5"/><path d="M234.98319,175.11088c-0.24216,-0.06212 -0.18003,-0.30428 -0.18003,-0.30428l0.01144,-0.01784c0.02547,-1.20939 -1.20191,-2.43254 -1.85415,-3.42647c-1.84935,-0.03691 -3.40329,0.98156 -5.32166,0.99311c0,0 -0.25,0.00101 -0.251,-0.24899c-0.00101,-0.25 0.24899,-0.251 0.24899,-0.251c2.26847,-0.00411 3.99056,-1.37023 6.33144,-0.87637c0.87594,0.28204 1.40534,0.68184 2.10045,1.28513l0.20908,0.18146c0,0 0.18881,0.16387 0.02494,0.35267c-0.16387,0.18881 -0.35267,0.02494 -0.35267,0.02494l-0.20908,-0.18146c-0.63844,-0.5541 -1.1011,-0.92469 -1.90068,-1.17939c-0.0794,-0.01671 -0.15814,-0.03116 -0.23628,-0.04349c0.72636,1.02555 1.73387,2.16152 1.71053,3.37991l-0.02703,0.13206c0,0 -0.06213,0.24215 -0.30428,0.18003z" fill="#a30000" stroke="none" stroke-width="0.5"/><path d="M229.23761,175.22486c0.18881,0.16387 0.02494,0.35267 0.02494,0.35267l-0.13609,0.15681c-0.54383,0.62472 -1.06561,0.76831 -1.78217,0.29383c0,0 -0.20767,-0.13918 -0.06849,-0.34686c0.13918,-0.20767 0.34686,-0.06849 0.34686,-0.06849c0.50522,0.34365 0.74775,0.23127 1.12619,-0.20622l0.13609,-0.15681c0,0 0.16387,-0.18881 0.35267,-0.02494z" fill="#a30000" stroke="none" stroke-width="0.5"/><path d="M244.75456,179.73165c-0.15681,-0.1361 -0.36589,-0.31756 -0.52271,-0.45366c0,0 -0.18881,-0.16387 -0.02494,-0.35267c0.16387,-0.18881 0.35267,-0.02494 0.35267,-0.02494c0.15681,0.1361 0.31362,0.2722 0.47044,0.4083l0.05227,0.04536c0,0 0.021,0.01822 0.0429,0.04951c0.77783,-0.82276 1.40366,-2.04062 1.48068,-2.70307c0,0 0.01812,-0.14215 0.13453,-0.19748c-0.37596,-0.4565 -0.73744,-1.06238 -1.18524,-1.819c-0.20534,-0.31761 -0.29345,-0.6493 -0.55473,-0.92691l-0.08717,-0.13645c0,0 -0.1273,-0.21516 0.08786,-0.34247c0.21516,-0.1273 0.34246,0.08787 0.34246,0.08787l0.02427,0.05193c0.28405,0.31258 0.38501,0.65721 0.612,1.00213c1.33644,2.25964 1.62785,3.07335 4.42987,2.45022c0,0 0.24438,-0.05273 0.2971,0.19165c0.05273,0.24438 -0.19165,0.2971 -0.19165,0.2971c-1.76963,0.37205 -2.68116,0.21296 -3.43086,-0.48655c-0.27908,1.51141 -2.20823,4.34988 -3.89552,3.8103l0.04506,0.01474c0,0 -0.24938,0.01763 -0.26701,-0.23174c-0.01763,-0.24937 0.23175,-0.26702 0.23175,-0.26702l0.14269,0.00784c0.45568,0.14614 0.95683,-0.06968 1.42702,-0.46447c-0.00886,-0.00631 -0.01374,-0.01055 -0.01374,-0.01055z" fill="#a30000" stroke="none" stroke-width="0.5"/><path d="M236.0841,167.97563c0.01763,0.24937 -0.23174,0.26701 -0.23174,0.26701l-0.11505,-0.00069c-0.92281,-0.18342 -2.49656,-0.13329 -3.14842,-0.95197c-0.46678,-0.58623 -0.25714,-1.46705 -0.70467,-2.1311c0,0 -0.13904,-0.20777 0.06873,-0.34681c0.20777,-0.13904 0.34681,0.06873 0.34681,0.06873c0.41079,0.61773 0.26066,1.59626 0.67312,2.08893c0.57411,0.68574 2.06823,0.62493 2.86163,0.78176l-0.01742,-0.0076c0,0 0.24937,-0.01763 0.26701,0.23174z" fill="#a30000" stroke="none" stroke-width="0.5"/><path d="M244.36314,167.60545c0.16387,-0.18881 0.35267,-0.02494 0.35267,-0.02494l0.18654,0.18298c0.3064,0.56802 0.26511,1.12874 0.36581,1.74779c0,0 0.00482,0.02966 0.00085,0.07009c0.45418,0.3579 0.98566,0.61276 1.80212,0.67933c0.35137,-0.71595 1.02394,-1.29109 1.00564,-2.17762c-0.0181,-0.87639 -1.14977,-1.81016 -1.36549,-2.70665c0,0 -0.0584,-0.24308 0.18469,-0.30147c0.24309,-0.0584 0.30148,0.1847 0.30148,0.1847c0.59255,2.47123 1.99255,3.0124 0.12448,5.43359c-2.00627,0.25352 -2.69246,-1.15095 -3.98024,-2.26862l-0.03297,0.00021c0,0 -0.23093,-0.09576 -0.13518,-0.32669c0.09575,-0.23094 0.32668,-0.13518 0.32668,-0.13518l0.16921,0.08404c0.41148,0.35713 0.73277,0.71219 1.04821,1.03055c-0.03192,-0.37103 -0.06544,-0.72917 -0.25475,-1.07557l-0.07482,-0.04386c0,0 -0.18881,-0.16387 -0.02494,-0.35267z" fill="#a30000" stroke="none" stroke-width="0.5"/><path d="M242.2518,182.79351c0.24995,0.00502 0.24493,0.25496 0.24493,0.25496l-0.00578,0.27952c-0.08793,0.87352 -1.123,2.0294 -1.51356,2.91528c0,0 -0.1011,0.22865 -0.32974,0.12756c-0.22865,-0.1011 -0.12756,-0.32974 -0.12756,-0.32974c0.35625,-0.80327 1.406,-1.98768 1.47169,-2.74172l0.00506,-0.26093c0,0 0.00502,-0.24995 0.25496,-0.24493z" fill="#a30000" stroke="none" stroke-width="0.5"/><path d="M237.08558,165.32193c-1.017,-0.98095 -0.9506,-1.76482 0.14168,-2.79716c0,0 0.18184,-0.17156 0.35341,0.01027c0.17156,0.18184 -0.01028,0.35341 -0.01028,0.35341c-0.96565,0.90939 -0.98434,1.35111 0.05495,2.24975l-0.28628,0.2458l-0.04146,0.13181c-0.01872,-0.0163 -0.03715,-0.03255 -0.05531,-0.04873l-0.02123,0.01824c0,0 -0.10803,-0.05485 -0.1355,-0.16339z" fill="#a30000" stroke="none" stroke-width="0.5"/><path d="M243.25899,165.52275c-0.2018,-0.05178 -0.19229,-0.22857 -0.18351,-0.28605c-0.18775,-0.37008 -0.36767,-0.75445 -0.594,-1.09968c0,0 -0.02437,-0.0374 -0.03672,-0.09088c-0.00227,-0.00012 -0.00456,-0.00027 -0.00687,-0.00043c-0.24936,-0.01781 -0.23156,-0.26717 -0.23156,-0.26717l0.0367,-0.04579c-0.11963,-0.24714 -0.25105,-0.48715 -0.37082,-0.73423c0,0 -0.10899,-0.22499 0.11601,-0.33398c0.22499,-0.10899 0.33397,0.116 0.33397,0.116c0.11963,0.24714 0.25105,0.48715 0.37082,0.73423l0.00927,0.23022c0.12348,0.00457 0.19807,0.11898 0.19807,0.11898c0.25133,0.38745 0.45053,0.81609 0.66228,1.22724l0.00065,0.25153c0,0 -0.06213,0.24215 -0.30428,0.18003z" fill="#a30000" stroke="none" stroke-width="0.5"/><path d="M240.51314,187.24827c1.07358,0.08185 3.4664,-0.30042 4.38943,-0.09574c2.73067,0.60552 11.06501,-0.52727 11.02287,0.54358c-0.03862,0.98143 -7.31883,8.99893 -11.3907,10.16827c-0.13364,0.03838 0.20511,0.4916 0.066,0.53389c-1.81043,0.55037 -4.50669,0.97285 -5.74994,0.87806c-1.68739,-0.12865 -5.18059,-0.71048 -7.64073,-1.90968c-3.73562,-1.82093 -6.32853,-5.41522 -6.29453,-6.27911c0.03348,-0.8509 3.18944,-2.07671 7.25869,-2.83694c2.32264,-0.65964 3.00634,-0.52252 4.49743,-0.57606c0.14701,-0.00528 1.40754,-0.42852 1.56243,-0.41671z" fill="#4a0000" stroke="#82003d" stroke-width="0.5"/><path d="M230.38699,197.12821c0.06886,0.05107 0.13773,0.10212 0.20659,0.15318l0.07041,0.00854c0,0 0.14985,0.04798 0.17372,0.1867c0.217,-0.02833 0.44203,-0.02534 0.70093,0.13161l0.12665,0.21391c0,0 0.06621,0.24108 -0.17488,0.30728c-0.18511,0.05083 -0.26712,-0.07949 -0.29522,-0.14276c-0.37151,-0.18473 -0.75756,0.05113 -1.17716,0.00849c-0.00478,0.00479 -0.00952,0.00961 -0.01422,0.01447l-0.25786,0.15461c0,0 -0.21852,0.12144 -0.33996,-0.09708c-0.12144,-0.21852 0.09709,-0.33997 0.09709,-0.33997l0.14576,-0.06969c0.00452,-0.00448 0.00907,-0.00893 0.01364,-0.01336c0.00136,-0.00427 0.00282,-0.00858 0.00442,-0.01294c0.04467,-0.1233 0.1306,-0.15848 0.20219,-0.16407c0.00834,-0.00631 0.01673,-0.01257 0.02516,-0.01876c-0.05912,-0.06357 -0.12304,-0.12526 -0.18469,-0.18705c-0.00696,0.01122 -0.0149,0.02204 -0.02384,0.03233c-0.0905,0.10427 -0.2484,0.11544 -0.35267,0.02494c-0.01094,-0.00949 -0.02083,-0.01972 -0.02971,-0.03055l-0.1649,-0.19444l-0.01034,-0.03191l-0.01357,-0.01754l0.00631,-0.00489l-0.01077,-0.03326l-0.01709,0.00524c-0.04604,-0.1256 -0.09207,-0.25121 -0.13811,-0.37681c0,0 -0.00382,-0.01069 -0.00756,-0.02832c-0.08649,0.03982 -0.19202,0.02822 -0.26861,-0.03826c-0.02126,-0.01845 -0.03866,-0.03971 -0.0521,-0.06274l-0.02667,0.00189l-0.00202,-0.02862l-0.06932,0.02341c-0.35818,-0.18402 -0.63912,-0.36656 -0.93926,-0.61912c-0.15117,0.04289 -0.35111,-0.0058 -0.57124,-0.16345c-0.07245,-0.00796 -0.20998,-0.04725 -0.22291,-0.2301c-0.01763,-0.24937 0.23175,-0.26702 0.23175,-0.26702l0.23715,0.05663c0.02464,0.02342 0.10249,-0.01369 0.09115,-0.04574c0,0 -0.00484,-0.01761 -0.00714,-0.04462c-0.13443,0.08879 -0.27817,-0.01779 -0.27817,-0.01779c-0.03724,-0.02761 -0.07448,-0.05523 -0.11173,-0.08284c-0.02758,0.03615 -0.0707,0.06774 -0.13722,0.08601c-0.24108,0.06619 -0.30727,-0.17488 -0.30727,-0.17488l0.01045,0.00968c-0.28206,-0.27068 -0.43917,-0.59927 -0.33441,-0.80247c-0.06182,-0.03282 -0.12363,-0.06563 -0.18545,-0.09844l-0.16583,-0.13545c0,0 -0.01174,-0.01019 -0.02683,-0.02841l-0.022,0.00706c-0.38334,0.01908 -0.1576,0.07849 0.06961,0.37693c0,0 0.151,0.19925 -0.04825,0.35024c-0.19924,0.15099 -0.35025,-0.04825 -0.35025,-0.04825c-0.40427,-0.53563 -0.57867,-1.0178 0.22213,-1.16721c-0.24577,-0.14407 -0.48568,-0.26254 -0.7241,-0.04563c-0.02448,0.06102 -0.10333,0.20281 -0.29519,0.15359c-0.07737,-0.01985 -0.12367,-0.05807 -0.15086,-0.1009c-0.03448,0.00705 -0.07496,0.00653 -0.12234,-0.00563c-0.24216,-0.06212 -0.18002,-0.30429 -0.18002,-0.30429l0.16301,-0.25198c0.09916,-0.0409 0.34996,-0.1666 0.45566,-0.28596c-0.07862,-0.04999 -0.13744,-0.11399 -0.18692,-0.18408c-0.04935,-0.03927 -0.07473,-0.08699 -0.07473,-0.08699c-0.04301,-0.08085 -0.086,-0.16172 -0.12901,-0.24257l-0.00642,-0.02317c-0.08816,-0.1308 -0.20328,-0.23756 -0.41637,-0.26633c0,0 -0.24669,-0.0406 -0.20608,-0.28729c0.04061,-0.24668 0.28729,-0.20608 0.28729,-0.20608c0.04626,0.00854 0.08898,0.01873 0.12854,0.03035c0.02392,-0.03026 0.04969,-0.05122 0.07586,-0.06525l0.00018,-0.05413c-0.06935,-0.02341 -0.14767,-0.08002 -0.15728,-0.21582c-0.01763,-0.24937 0.23174,-0.26701 0.23174,-0.26701l0.00625,0.02368c0.08516,-0.04797 0.17033,-0.09594 0.25549,-0.14391c0,0 0.01583,-0.00892 0.04136,-0.01768c-0.06086,-0.03988 -0.12132,-0.11362 -0.09799,-0.24607c0.04338,-0.2462 0.28959,-0.20284 0.28959,-0.20284c0.01207,0.00213 0.02543,0.00448 0.0398,0.00702c-0.04201,-0.06404 -0.08128,-0.17449 0.02342,-0.29513c0.12766,-0.14709 0.27045,-0.08013 0.32732,-0.04336c0.06063,0.0231 0.12233,0.04395 0.18483,0.06191c-0.06915,-0.13777 0.04351,-0.26759 0.04351,-0.26759l0.40152,-0.00131c0.05659,0.07523 0.11319,0.15047 0.16977,0.22571c0,0 0.02207,0.02935 0.03805,0.074c0.00659,-0.04567 0.02157,-0.07776 0.02157,-0.07776c0.04047,-0.08676 0.08095,-0.17351 0.12142,-0.26027l0.00633,-0.04188c0,0 0.06213,-0.24215 0.30429,-0.18002c0.17881,0.04587 0.19171,0.1899 0.18622,0.26212c0.07211,-0.09277 0.13656,-0.19186 0.19078,-0.29571l-0.0555,-0.05632c0,0 -0.03418,-0.24765 0.21347,-0.28184c0.24765,-0.03418 0.28184,0.21347 0.28184,0.21347l0.00051,0.10145c0.00132,0.0011 0.00265,0.00222 0.00396,0.00336c0.01392,0.01208 0.02619,0.02536 0.03677,0.03956c-0.00026,-0.04519 0.01136,-0.24221 0.23201,-0.25781c0.06886,-0.00487 0.12004,0.01062 0.15807,0.03559c0.04997,-0.02233 0.09433,-0.02548 0.09433,-0.02548l0.20933,0.05861c0.12429,0.10803 0.25293,0.21126 0.38528,0.30924c0,0 0.20083,0.1489 0.05192,0.34972c-0.14891,0.20082 -0.34972,0.05192 -0.34972,0.05192c-0.11733,-0.08712 -0.23204,-0.17794 -0.34378,-0.27219c-0.02124,0.04803 -0.04247,0.09606 -0.06371,0.14409c0,0 -0.1011,0.22865 -0.32974,0.12756c-0.08379,-0.03705 -0.12329,-0.09123 -0.13973,-0.145c-0.01574,0.00726 -0.03211,0.01282 -0.04883,0.01665c-0.06981,0.10839 -0.14747,0.21193 -0.23125,0.3095c0,0 -0.16387,0.18881 -0.35267,0.02494c-0.03613,-0.03136 -0.05935,-0.06364 -0.07327,-0.09533c-0.01173,0.02514 -0.02347,0.05031 -0.0352,0.07545c0,0 -0.10569,0.22656 -0.33225,0.12087c-0.07251,-0.03383 -0.111,-0.08004 -0.12979,-0.12724c-0.00913,0.04933 -0.03733,0.10152 -0.10021,0.14881c-0.03577,0.02691 -0.06995,0.04259 -0.10196,0.05021c-0.04568,0.22801 -0.2811,0.19289 -0.2811,0.19289c-0.03398,-0.00526 -0.06788,-0.01126 -0.10167,-0.01795c0.00638,0.03051 0.00719,0.06591 -0.00003,0.10695c-0.04338,0.2462 -0.28959,0.20284 -0.28959,0.20284c-0.09496,-0.01673 -0.18992,-0.03345 -0.28488,-0.05018c0.00907,0.01176 0.0178,0.02493 0.0261,0.03965c0.12269,0.21782 -0.09513,0.34051 -0.09513,0.34051c-0.03578,0.02015 -0.07155,0.04031 -0.10732,0.06045c0.03009,0.06875 0.02357,0.1377 0.02357,0.1377l-0.03112,0.05677c0.02121,0.05751 0.04458,0.12043 0.07002,0.18681c0.06295,0.04881 0.1245,0.0994 0.18469,0.1514l0.10702,0.1688c0,0 0.06697,0.13008 -0.00106,0.24245c0.04648,0.05364 0.08455,0.10623 0.11486,0.15771c0.02553,-0.00008 0.05263,-0.00128 0.08143,-0.0037c0.0657,-0.03511 0.16468,-0.05552 0.27168,0.03735c0.18881,0.16387 0.02494,0.35267 0.02494,0.35267l-0.10223,0.05926c0.0329,0.04369 0.07272,0.11915 0.04771,0.20798c0.1887,0.06728 0.38426,0.17361 0.60079,0.2788c0,0 0.22466,0.10968 0.11497,0.33433c-0.02777,0.05687 -0.0629,0.09232 -0.0999,0.11354l0.0557,0.05486c0.07748,0.04114 0.15496,0.08226 0.23245,0.12338c0,0 0.14659,0.07781 0.1375,0.22606c0.05866,-0.00205 0.12365,0.00015 0.19535,0.00704c0,0 0.24038,0.06865 0.17174,0.30903c-0.0047,0.01646 -0.0102,0.03147 -0.01638,0.04514c0.00358,-0.00478 0.00736,-0.00945 0.01132,-0.01402c0.0905,-0.10427 0.2484,-0.11544 0.35267,-0.02494c0.10427,0.0905 0.11544,0.2484 0.02494,0.35267c-0.01172,0.0135 -0.02456,0.02544 -0.03827,0.0358c0.01923,0.01426 0.03845,0.02851 0.05768,0.04278c0,0 0.09398,0.06967 0.10568,0.17799c0.01669,-0.00823 0.03551,-0.01541 0.05669,-0.02123c0.24108,-0.06619 0.30727,0.17488 0.30727,0.17488c0.02174,0.09339 0.03339,0.17971 0.03599,0.25835c0.10815,-0.03202 0.21092,0.03427 0.21092,0.03427l0.25652,0.16725c0.17489,0.18069 0.28776,0.25572 0.40291,0.36071l0.04434,-0.05108l0.20856,0.18101c0.07129,0.06187 0.09906,0.15524 0.08058,0.24144c0.00362,0.00986 0.0066,0.0199 0.00895,0.03008c0.00637,-0.00272 0.013,-0.00532 0.0199,-0.00779c0.19852,-0.07103 0.28952,0.08529 0.31315,0.13598c0.08699,-0.01712 0.16682,0.02012 0.16682,0.02012l0.1481,0.06998c0.08741,0.04975 0.17483,0.0995 0.26224,0.14924c0,0 0.18238,0.10379 0.11785,0.28829c0.03041,0.03313 0.0607,0.0655 0.09054,0.09767c0.09903,-0.00961 0.18225,0.0521 0.18225,0.0521z" fill="#7f0000" stroke="none" stroke-width="0.5"/><path d="M247.11192,187.36327c0.04519,-0.00657 0.09086,-0.01302 0.13713,-0.01999c0.06823,-0.1916 0.28376,-0.15657 0.28376,-0.15657c0.1033,0.01679 0.20661,0.03358 0.30992,0.05037l0.16568,0.04002c0,0 0.08899,0.02197 0.14828,0.09265c0.05226,-0.02564 0.22806,-0.09283 0.3425,0.09437c0.00398,0.00651 0.00765,0.01296 0.01103,0.01931c0.00855,-0.00671 0.01752,-0.01291 0.0269,-0.01853c0.04133,-0.0819 0.12481,-0.13939 0.22297,-0.14295l0.28717,-0.01042l0.00255,0.07034c0.16185,-0.00986 0.30228,0.00308 0.56197,-0.02907l0.31705,0.03205c0,0 0.12655,0.01342 0.19324,0.11c0.05346,-0.06201 0.11929,-0.12433 0.19789,-0.18579c0,0 0.21108,-0.15207 0.36315,0.05902c0.01336,0.01855 0.02391,0.03665 0.03205,0.05422c0.08023,-0.0801 0.20186,-0.07517 0.20186,-0.07517c0.02488,0.00101 0.04978,0.00201 0.07467,0.00302c-0.00434,-0.01735 -0.00696,-0.03541 -0.00762,-0.05399c-0.00521,-0.14358 0.10696,-0.2642 0.25054,-0.2694c0.14358,-0.00521 0.2642,0.10696 0.26941,0.25053c0.00023,0.00629 0.00023,0.01255 0.00001,0.01876c0.00393,-0.01511 0.00928,-0.03088 0.01621,-0.04727c0.10139,-0.23957 0.34096,-0.13818 0.34096,-0.13818c0.06259,0.04124 0.11667,0.08191 0.16285,0.12189c0.08947,-0.12603 0.25904,-0.09334 0.25904,-0.09334c0.08963,0.01729 0.17926,0.03457 0.26889,0.05187l0.08096,-0.00806c-0.01611,-0.04135 -0.02142,-0.09302 -0.00677,-0.15722c0.05787,-0.25363 0.31149,-0.19575 0.31149,-0.19575c0.2441,0.05621 0.47197,0.09781 0.66878,0.16654c0.03776,-0.08829 0.11929,-0.12342 0.17448,-0.13732l-0.04412,-0.11477c0,0 -0.00943,-0.25998 0.25054,-0.2694c0.14734,-0.00534 0.21419,0.07582 0.24448,0.14718c0.02176,0.02078 0.04292,0.03945 0.06355,0.05619c0.05819,-0.02191 0.12337,-0.03964 0.19606,-0.05274c0.00876,-0.06499 0.04537,-0.11298 0.08107,-0.14532c0.56187,0.0424 1.0696,-0.07813 1.40644,-0.41543c0.04161,0.04834 0.14264,0.19521 -0.00224,0.35101c-0.09647,0.10374 -0.1969,0.09844 -0.26837,0.07212l-0.03521,0.04397c0.01204,0.02847 0.01922,0.06227 0.01883,0.1024c0.03964,0.01641 0.0809,0.03607 0.12395,0.05936c0,0 0.22636,0.12821 0.09814,0.35457c-0.12821,0.22636 -0.35457,0.09813 -0.35457,0.09813c-0.19141,-0.11586 -0.35438,-0.10456 -0.51123,-0.05618l-0.02033,0.01458c-0.08764,0.03741 -0.17529,0.07483 -0.26293,0.11224c0,0 -0.05175,0.02208 -0.11736,0.02165c-0.08587,0.02445 -0.17532,0.03789 -0.27165,0.02704c0.00767,0.16572 0.12875,0.43137 0.18236,0.52925l-0.03251,0.31059c0,0 -0.10783,0.23675 -0.34457,0.12893c-0.04631,-0.0211 -0.07944,-0.04712 -0.10277,-0.07534c-0.05001,0.01693 -0.11247,0.01765 -0.18811,-0.0168c-0.18758,-0.08543 -0.15885,-0.25179 -0.13883,-0.31721c-0.05147,-0.33143 -0.3232,-0.39215 -0.61639,-0.43596c0.55114,0.64404 0.09493,0.92073 -0.58239,1.09062c0,0 -0.25245,0.06277 -0.31524,-0.18967c-0.0628,-0.25245 0.18967,-0.31524 0.18967,-0.31524c0.37897,-0.09338 0.60064,0.00594 0.30256,-0.25989l-0.01322,-0.02009c-0.02412,0.00492 -0.04029,0.0055 -0.04029,0.0055l-0.2228,0.00142c-0.0715,-0.01379 -0.14302,-0.02758 -0.21452,-0.04138c-0.04786,0.23304 -0.38972,0.3966 -0.79501,0.43166l0.01479,-0.001c0,0 -0.21107,0.15206 -0.36314,-0.05902c-0.04196,-0.05824 -0.05626,-0.11199 -0.05499,-0.15929c-0.04821,-0.00196 -0.0964,-0.00392 -0.14461,-0.00587c0,0 -0.18605,-0.00754 -0.23697,-0.16727c-0.0195,0.02038 -0.03493,0.03148 -0.03493,0.03148c-0.03012,0.01856 0.00871,0.09946 0.04396,0.09659l0.2291,0.10901c0,0 0.1905,0.17716 0.01335,0.36765c-0.12989,0.13968 -0.26697,0.0817 -0.33085,0.04082c-0.28129,-0.01606 -0.47506,-0.10719 -0.56952,-0.24068c-0.40809,0.00858 -0.7549,-0.02704 -1.16524,-0.11189l-0.04087,-0.06424l-0.02034,0.02186l-0.02037,-0.01895c-0.02593,0.00988 -0.05392,0.01573 -0.08319,0.01679c-0.10546,0.00382 -0.19853,-0.05568 -0.24259,-0.14443c-0.01455,0.01184 -0.02462,0.018 -0.02462,0.018c-0.11933,0.07168 -0.23865,0.14337 -0.35798,0.21506l-0.01042,-0.01541l-0.03046,0.01991l0.00193,0.00808l-0.02245,0.00534l-0.02921,0.0191l-0.26057,0.04983c-0.01426,0.00297 -0.02897,0.00478 -0.04402,0.00533c-0.14358,0.00521 -0.26419,-0.10696 -0.2694,-0.25054c-0.00051,-0.01418 0.00011,-0.02812 0.0018,-0.04176c-0.09031,0.0098 -0.18237,0.01801 -0.27178,0.0309c0.00278,0.01053 0.00549,0.02108 0.00813,0.03163c0.05435,0.05129 0.10097,0.13591 0.05664,0.26496c-0.00157,0.00457 -0.0032,0.00904 -0.00487,0.01337c0.00081,0.00658 0.00157,0.01315 0.00231,0.01972l0.07257,0.15166c0,0 0.09771,0.2411 -0.14338,0.33881c-0.2411,0.0977 -0.33881,-0.14338 -0.33881,-0.14338l-0.10792,-0.29367c-0.00064,-0.00701 -0.00132,-0.01401 -0.00207,-0.02101c-0.36776,-0.2395 -0.52647,-0.6827 -0.94808,-0.77569c-0.06408,0.03289 -0.21562,0.08491 -0.33238,-0.07716c-0.15207,-0.21108 0.05902,-0.36313 0.05902,-0.36313l0.24233,-0.09056c0.31225,0.04194 0.4965,0.18648 0.65378,0.35117c0.10994,-0.09678 0.26266,-0.03778 0.26266,-0.03778l0.06261,0.03906c0.08913,0.00361 0.17826,0.00722 0.2674,0.01083c0,0 0.10773,0.00436 0.18167,0.07683z" data-paper-data="{&quot;index&quot;:null}" fill="#7f0000" stroke="none" stroke-width="0.5"/><path d="M248.16607,192.74608c0.09097,2.84372 -3.60357,5.26954 -8.25196,5.41823c-4.64839,0.14868 -8.49038,-2.03608 -8.58135,-4.8798c-0.09097,-2.84372 3.60356,-5.26954 8.25195,-5.41823c4.64839,-0.14868 8.4904,2.03608 8.58136,4.87979z" fill="#3a0000" stroke="none" stroke-width="0"/><path d="M250.02231,194.7266c0.0286,-0.03559 0.05763,-0.07143 0.08675,-0.10806c-0.0806,-0.18673 0.10104,-0.30795 0.10104,-0.30795c0.08705,-0.05809 0.17411,-0.1162 0.26117,-0.17429l0.14855,-0.08358c0,0 0.08011,-0.04455 0.17167,-0.03321c0.02078,-0.05438 0.10369,-0.22333 0.31499,-0.16428c0.00734,0.00205 0.01444,0.00427 0.02124,0.00661c0.00169,-0.01074 0.00403,-0.0214 0.00707,-0.03189c-0.02555,-0.0881 -0.00362,-0.18706 0.0658,-0.25655l0.2031,-0.20328l0.0498,0.04975c0.11176,-0.11748 0.22336,-0.2037 0.39154,-0.40417l0.2539,-0.19256c0,0 0.10178,-0.0764 0.2164,-0.05115c-0.00311,-0.08182 0.00261,-0.17228 0.01827,-0.27081c0,0 0.0509,-0.25512 0.30602,-0.20422c0.02242,0.00448 0.04247,0.01054 0.06041,0.01784c0.00416,-0.1133 0.09656,-0.19255 0.09656,-0.19255c0.01891,-0.01622 0.03779,-0.03244 0.0567,-0.04865c-0.01499,-0.00974 -0.0292,-0.02119 -0.04237,-0.03433c-0.10164,-0.10155 -0.10172,-0.26627 -0.00017,-0.36791c0.10155,-0.10164 0.26627,-0.10172 0.36791,-0.00017c0.00445,0.00445 0.00872,0.00904 0.01279,0.01372c-0.00742,-0.01375 -0.01425,-0.02893 -0.02034,-0.04566c-0.08902,-0.24444 0.15542,-0.33344 0.15542,-0.33344c0.07391,-0.01246 0.1412,-0.01953 0.20225,-0.02175c-0.02038,-0.15321 0.12602,-0.2448 0.12602,-0.2448c0.07738,-0.04842 0.15478,-0.09683 0.23216,-0.14524l0.05377,-0.06106c-0.03997,-0.01929 -0.07905,-0.05349 -0.11208,-0.11046c-0.13044,-0.22509 0.09464,-0.35552 0.09464,-0.35552c0.21697,-0.12517 0.41211,-0.24997 0.60301,-0.33375c-0.03253,-0.09036 0.00323,-0.17162 0.03414,-0.21939l-0.11049,-0.05395c0,0 -0.18403,-0.18387 -0.00016,-0.3679c0.1042,-0.1043 0.20844,-0.09044 0.27923,-0.05885c0.03009,0.00039 0.05829,-0.00037 0.08479,-0.00218c0.02767,-0.05568 0.0633,-0.11307 0.10757,-0.17219c-0.03785,-0.05354 -0.04377,-0.11361 -0.03967,-0.16161c0.44016,-0.35178 0.72969,-0.78594 0.74644,-1.26235c0.06339,0.00702 0.23742,0.04571 0.23751,0.25847c0.00007,0.14166 -0.07705,0.20622 -0.1473,0.23564l0.00418,0.05617c0.02821,0.01263 0.0565,0.03248 0.08356,0.06213c0.04019,-0.015 0.08379,-0.02872 0.13117,-0.041c0,0 0.25304,-0.06038 0.31341,0.19267c0.06038,0.25304 -0.19267,0.31341 -0.19267,0.31341c-0.21905,0.0456 -0.33064,0.16491 -0.4125,0.3072l-0.00495,0.02453c-0.03867,0.0871 -0.07732,0.1742 -0.11598,0.2613c0,0 -0.02284,0.05141 -0.07116,0.09581c-0.04619,0.07641 -0.10251,0.14719 -0.18042,0.20488c0.11852,0.11608 0.38815,0.22804 0.49409,0.26315l0.18783,0.2495c0,0 0.08237,0.24676 -0.16438,0.32914c-0.04827,0.01612 -0.09025,0.01964 -0.12657,0.01487c-0.02506,0.04647 -0.0703,0.08955 -0.14913,0.11587c-0.19551,0.06527 -0.28783,-0.07609 -0.31774,-0.13761c-0.26348,-0.20753 -0.50377,-0.06684 -0.74821,0.10086c0.84222,0.09592 0.69681,0.60928 0.31678,1.19511c0,0 -0.14201,0.21796 -0.35998,0.07595c-0.21797,-0.14201 -0.07596,-0.35997 -0.07596,-0.35997c0.21377,-0.32654 0.4437,-0.40489 0.0444,-0.39637l-0.02336,-0.0057c-0.01431,0.02002 -0.02574,0.03147 -0.02574,0.03147l-0.16211,0.15284c-0.06174,0.03863 -0.12348,0.07725 -0.18522,0.11588c0.12375,0.20319 -0.01505,0.55583 -0.28782,0.85763l0.01014,-0.01081c0,0 -0.0509,0.25511 -0.30603,0.20422c-0.0704,-0.01404 -0.11749,-0.04363 -0.14879,-0.07912c-0.03662,0.03141 -0.07322,0.06282 -0.10984,0.09423c0,0 -0.14132,0.12124 -0.28742,0.03902c-0.0004,0.0282 -0.00411,0.04684 -0.00411,0.04684c-0.00941,0.0341 0.07414,0.06688 0.09799,0.04074l0.24197,-0.0763c0,0 0.26014,-0.00011 0.26027,0.26003c0.00008,0.19074 -0.13976,0.24171 -0.21438,0.2553c-0.21684,0.17989 -0.42076,0.24522 -0.58085,0.21186c-0.29287,0.28432 -0.57099,0.49455 -0.92917,0.712l-0.07369,-0.01917l0.00001,0.02986h-0.02782c-0.01225,0.0249 -0.02875,0.04824 -0.04945,0.06897c-0.07459,0.07465 -0.18326,0.09452 -0.27597,0.05956c-0.00259,0.01858 -0.00576,0.02995 -0.00576,0.02995c-0.0385,0.13378 -0.077,0.26754 -0.1155,0.40132l-0.01812,-0.00418l-0.00873,0.03532l0.00692,0.0046l-0.01279,0.01921l-0.00836,0.03388l-0.1568,0.21401c-0.00842,0.01189 -0.01794,0.02324 -0.02858,0.03389c-0.10155,0.10164 -0.26626,0.10171 -0.3679,0.00016c-0.01004,-0.01002 -0.01908,-0.02066 -0.02714,-0.0318c-0.05943,0.0687 -0.12121,0.13744 -0.17788,0.2078c0.0092,0.00581 0.01838,0.01169 0.0275,0.01762c0.07473,0.00051 0.16651,0.03069 0.22198,0.15536c0.00196,0.00442 0.00381,0.00879 0.00554,0.01311c0.00507,0.00427 0.01011,0.00855 0.01514,0.01286l0.15644,0.06157c0,0 0.2358,0.10991 0.12589,0.34569c-0.10991,0.23578 -0.34568,0.12588 -0.34568,0.12588l-0.27907,-0.14142c-0.00525,-0.00469 -0.01051,-0.00935 -0.01582,-0.01397c-0.43239,0.07526 -0.8505,-0.14103 -1.22247,0.07816c-0.02449,0.06774 -0.09999,0.20906 -0.29587,0.16998c-0.25511,-0.0509 -0.20422,-0.30603 -0.20422,-0.30603l0.11567,-0.23138c0.25713,-0.18204 0.49048,-0.20177 0.7178,-0.18839c0.01453,-0.14574 0.16651,-0.20661 0.16651,-0.20661l0.07244,-0.01407c0.06771,-0.05809 0.13541,-0.11617 0.20312,-0.17426c0,0 0.08183,-0.07021 0.18532,-0.06754z" data-paper-data="{&quot;index&quot;:null}" fill="#7f0000" stroke="none" stroke-width="0.5"/><path d="M241.99408,199.29285c0.03942,-0.02304 0.07934,-0.04614 0.11962,-0.06995c-0.00861,-0.20321 0.20433,-0.25157 0.20433,-0.25157c0.10206,-0.02319 0.20412,-0.04636 0.30618,-0.06955l0.16861,-0.02503c0,0 0.09073,-0.01302 0.17221,0.03027c0.03883,-0.04336 0.1766,-0.17159 0.35288,-0.04097c0.00613,0.00454 0.01196,0.00914 0.01748,0.01376c0.00541,-0.00942 0.0114,-0.01854 0.01799,-0.02726c0.00759,-0.09142 0.06341,-0.17602 0.15307,-0.21613l0.26229,-0.11737l0.02876,0.06425c0.14633,-0.06983 0.28136,-0.11052 0.51004,-0.23772l0.30592,-0.0892c0,0 0.12235,-0.03502 0.2204,0.02949c0.0263,-0.07754 0.06395,-0.15999 0.11377,-0.24644c0,0 0.13864,-0.22013 0.35876,-0.08149c0.01934,0.01218 0.03592,0.02501 0.05006,0.03824c0.04433,-0.10435 0.15893,-0.14538 0.15893,-0.14538c0.02345,-0.00841 0.04689,-0.01681 0.07034,-0.02521c-0.01052,-0.01445 -0.01971,-0.03021 -0.02732,-0.04719c-0.05868,-0.13115 0.00007,-0.28504 0.13121,-0.34371c0.13115,-0.05868 0.28504,0.00007 0.34371,0.13121c0.00258,0.00576 0.00492,0.01155 0.00705,0.01739c-0.00202,-0.01549 -0.00298,-0.0321 -0.0027,-0.04991c0.00413,-0.26011 0.26424,-0.25597 0.26424,-0.25597c0.07348,0.01476 0.13887,0.03218 0.19668,0.05191c0.03567,-0.15039 0.20512,-0.18367 0.20512,-0.18367c0.08956,-0.01759 0.17915,-0.03518 0.26872,-0.05277l0.07203,-0.03783c-0.03044,-0.0323 -0.05474,-0.07819 -0.06525,-0.1432c-0.04148,-0.25683 0.21534,-0.2983 0.21534,-0.2983c0.24736,-0.03945 0.47421,-0.08634 0.68242,-0.09644c0.00189,-0.09602 0.0643,-0.15915 0.11024,-0.19274l-0.08394,-0.08985c0,0 -0.10624,-0.23745 0.13121,-0.3437c0.13457,-0.06022 0.22699,-0.01004 0.28184,0.04475c0.02796,0.0111 0.05458,0.02047 0.07999,0.02824c0.04573,-0.04213 0.09949,-0.08302 0.16196,-0.12243c-0.01625,-0.06353 -0.00032,-0.12174 0.02065,-0.16512c0.53676,-0.17142 0.96222,-0.47359 1.14797,-0.91261c0.0567,0.02919 0.20545,0.12747 0.12957,0.32623c-0.05052,0.13235 -0.14559,0.16511 -0.22173,0.16751l-0.01615,0.05395c0.02183,0.02186 0.04118,0.05052 0.05586,0.08786c0.0429,0.00034 0.08853,0.0031 0.13717,0.00854c0,0 0.25793,0.03395 0.22397,0.29188c-0.03396,0.25792 -0.29188,0.22396 -0.29188,0.22396c-0.22089,-0.03562 -0.36773,0.03599 -0.49499,0.13965l-0.01337,0.02114c-0.06722,0.06756 -0.13442,0.13511 -0.20163,0.20266c0,0 -0.03968,0.03987 -0.10067,0.06408c-0.07042,0.05487 -0.14831,0.10089 -0.24169,0.12696c0.06926,0.15075 0.28114,0.35159 0.36756,0.42222l0.08635,0.30011c0,0 -0.01117,0.25992 -0.27107,0.24875c-0.05085,-0.00218 -0.09131,-0.01389 -0.12352,-0.03131c-0.04,0.03445 -0.09764,0.05855 -0.18067,0.05498c-0.20593,-0.00884 -0.24169,-0.17384 -0.24767,-0.24199c-0.17202,-0.28793 -0.44668,-0.24231 -0.7349,-0.17295c0.75246,0.39032 0.43332,0.81791 -0.13084,1.22943c0,0 -0.21047,0.15287 -0.36336,-0.0576c-0.15289,-0.21047 0.05758,-0.36336 0.05758,-0.36336c0.31628,-0.22869 0.55902,-0.21976 0.18301,-0.35439l-0.01979,-0.01367c-0.02052,0.0136 -0.03528,0.02021 -0.03528,0.02021l-0.206,0.08488c-0.07146,0.01403 -0.14292,0.02807 -0.21438,0.0421c0.04305,0.23398 -0.21252,0.51382 -0.57508,0.69833l0.01333,-0.00648c0,0 -0.13864,0.22013 -0.35876,0.08149c-0.06074,-0.03826 -0.09417,-0.08271 -0.11073,-0.12703c-0.04542,0.01627 -0.09083,0.03252 -0.13625,0.04879c0,0 -0.17529,0.06279 -0.28239,-0.06618c-0.01043,0.02619 -0.02057,0.04229 -0.02057,0.04229c-0.02096,0.0285 0.04538,0.08893 0.07698,0.07304l0.25327,0.01513c0,0 0.24304,0.09277 0.15027,0.33581c-0.06803,0.1782 -0.21685,0.17587 -0.2914,0.16193c-0.26678,0.0906 -0.48059,0.07881 -0.61821,-0.00951c-0.37508,0.161 -0.70993,0.25807 -1.12215,0.3333l-0.06199,-0.04422l-0.01065,0.0279l-0.02599,-0.00992c-0.02033,0.01888 -0.04408,0.0348 -0.07082,0.04677c-0.09633,0.0431 -0.20492,0.02286 -0.27905,-0.0429c-0.00905,0.01644 -0.01608,0.02591 -0.01608,0.02591c-0.08373,0.11121 -0.16745,0.22241 -0.25119,0.33362l-0.01544,-0.01037l-0.02076,0.02989l0.00482,0.00676l-0.0188,0.01337l-0.01991,0.02865l-0.22287,0.14392c-0.01211,0.00811 -0.02505,0.01531 -0.0388,0.02145c-0.13115,0.05868 -0.28503,-0.00006 -0.3437,-0.1312c-0.00579,-0.01295 -0.01045,-0.02612 -0.01399,-0.03939c-0.08004,0.04295 -0.1623,0.0851 -0.24035,0.13059c0.00653,0.00873 0.01298,0.01748 0.0194,0.02627c0.06962,0.02716 0.14459,0.08812 0.15189,0.22438c0.00026,0.00482 0.00042,0.00957 0.00049,0.01422c0.00322,0.0058 0.00639,0.0116 0.00954,0.01742l0.12415,0.11337c0,0 0.18101,0.18685 -0.00584,0.36785c-0.18685,0.181 -0.36784,-0.00585 -0.36784,-0.00585l-0.21019,-0.23175c-0.00323,-0.00626 -0.00648,-0.01248 -0.00979,-0.0187c-0.43075,-0.08409 -0.74409,-0.43541 -1.1698,-0.36348c-0.04706,0.05452 -0.16805,0.15958 -0.33707,0.05313c-0.22012,-0.13864 -0.08148,-0.35876 -0.08148,-0.35876l0.19066,-0.17483c0.30517,-0.07823 0.53019,-0.01333 0.73776,0.08034c0.06562,-0.13094 0.2293,-0.13355 0.2293,-0.13355l0.07269,0.01272c0.08399,-0.03008 0.16796,-0.06017 0.25194,-0.09024c0,0 0.1015,-0.03637 0.19722,0.00307z" data-paper-data="{&quot;index&quot;:null}" fill="#7f0000" stroke="none" stroke-width="0.5"/><path d="M237.85832,187.63809c0.02258,-0.00874 0.04543,-0.01739 0.06855,-0.02657c0.02271,-0.18425 0.13461,-0.16346 0.13461,-0.16346c0.05364,0.00997 0.10727,0.01994 0.1609,0.02991l0.08684,0.02832c0,0 0.04667,0.01565 0.08128,0.07886c0.02499,-0.02709 0.11026,-0.1003 0.18024,0.0695c0.00243,0.00591 0.00471,0.01177 0.00683,0.01757c0.00393,-0.0068 0.00811,-0.01314 0.01253,-0.01897c0.0159,-0.07945 0.05478,-0.1383 0.10451,-0.14719l0.14551,-0.02603l0.00571,0.06609c0.08176,-0.01842 0.15404,-0.01418 0.2842,-0.05913l0.16338,0.01226c0,0 0.06525,0.00549 0.10525,0.09266c0.02332,-0.06141 0.05292,-0.1238 0.08907,-0.18611c0,0 0.0979,-0.15511 0.18853,0.03506c0.00797,0.01671 0.01447,0.03316 0.01972,0.04924c0.03581,-0.07995 0.09803,-0.08218 0.09803,-0.08218c0.01273,-0.00046 0.02546,-0.00091 0.03819,-0.00137c-0.00329,-0.01609 -0.00576,-0.03294 -0.00726,-0.0504c-0.01166,-0.13489 0.03787,-0.25481 0.11062,-0.26783c0.07275,-0.01302 0.14118,0.08579 0.15283,0.22068c0.00052,0.00592 0.0009,0.01181 0.00118,0.01766c0.00105,-0.01446 0.00279,-0.02959 0.00529,-0.04543c0.03658,-0.23131 0.16488,-0.14937 0.16488,-0.14937c0.03444,0.03529 0.06452,0.07054 0.09053,0.10556c0.03764,-0.12372 0.12599,-0.10252 0.12599,-0.10252c0.0467,0.01122 0.09341,0.02242 0.14011,0.03363l0.04069,-0.01216c-0.01078,-0.03803 -0.01673,-0.08637 -0.01331,-0.14765c0.01355,-0.24208 0.14628,-0.20192 0.14628,-0.20192c0.12776,0.03913 0.24635,0.06542 0.35083,0.11902c0.01368,-0.08527 0.05298,-0.12295 0.08019,-0.13916l-0.02965,-0.10558c0,0 -0.0211,-0.24425 0.11063,-0.26782c0.07466,-0.01335 0.11377,0.0593 0.13366,0.12477c0.01238,0.01833 0.02432,0.03472 0.03586,0.0493c0.02824,-0.02392 0.06031,-0.0443 0.09648,-0.06075c0.00039,-0.06169 0.016,-0.10894 0.03215,-0.14141c0.28864,0.00817 0.5395,-0.13401 0.6898,-0.47064c0.0242,0.04316 0.08484,0.17575 0.02087,0.33063c-0.0426,0.10313 -0.09404,0.10382 -0.13207,0.08306l-0.01516,0.04339c0.00792,0.02612 0.01369,0.05755 0.01601,0.09535c0.0212,0.01321 0.04343,0.02939 0.06681,0.04889c0,0 0.12326,0.10793 0.07219,0.32831c-0.05107,0.22038 -0.17431,0.11243 -0.17431,0.11243c-0.10468,-0.09827 -0.18693,-0.07842 -0.26373,-0.02401l-0.00943,0.01488c-0.04226,0.04018 -0.08453,0.08037 -0.12679,0.12054c0,0 -0.02496,0.0237 -0.05838,0.02702c-0.04218,0.02788 -0.08686,0.04558 -0.13657,0.04081c0.01429,0.15561 0.09258,0.39889 0.12601,0.48802l0.00293,0.29428c0,0 -0.04004,0.22901 -0.16729,0.14087c-0.0249,-0.01724 -0.04339,-0.03988 -0.05703,-0.06514c-0.0244,0.01877 -0.05614,0.02297 -0.09679,-0.00518c-0.10083,-0.06985 -0.09664,-0.2281 -0.09055,-0.29083c-0.04698,-0.30916 -0.18909,-0.35098 -0.34106,-0.37565c0.3209,0.57527 0.10604,0.86158 -0.22803,1.05981c0,0 -0.12455,0.07339 -0.17233,-0.16077c-0.04779,-0.23415 0.07677,-0.30754 0.07677,-0.30754c0.18702,-0.10933 0.30608,-0.02834 0.13769,-0.2618l-0.00798,-0.01817c-0.01196,0.00599 -0.02015,0.00746 -0.02015,0.00746l-0.11331,0.01393c-0.03727,-0.00895 -0.07451,-0.01789 -0.11178,-0.02684c-0.00974,0.22214 -0.17348,0.39546 -0.37757,0.45137l0.00746,-0.00178c0,0 -0.09789,0.1551 -0.18853,-0.03506c-0.02501,-0.05247 -0.03566,-0.10226 -0.03798,-0.14687c-0.02466,0.00088 -0.04931,0.00177 -0.07397,0.00266c0,0 -0.09517,0.00341 -0.1311,-0.14411c-0.00864,0.02028 -0.0158,0.03162 -0.0158,0.03162c-0.01416,0.01917 0.01066,0.09316 0.02843,0.08846l0.12344,0.0897c0,0 0.10807,0.15604 0.02985,0.34541c-0.05735,0.13886 -0.13076,0.09201 -0.16584,0.05713c-0.14417,0.00078 -0.24851,-0.07408 -0.30495,-0.19443c-0.20717,0.03114 -0.38592,0.0172 -0.6001,-0.03952l-0.02483,-0.05817l-0.00898,0.02173l-0.01156,-0.01669c-0.01258,0.01077 -0.02645,0.01786 -0.04128,0.02051c-0.05344,0.00956 -0.10454,-0.0412 -0.13253,-0.12228c-0.00667,0.01197 -0.01141,0.01833 -0.01141,0.01833c-0.05625,0.07423 -0.11248,0.14848 -0.16872,0.22271l-0.00627,-0.01393l-0.01425,0.02047l0.00149,0.0075l-0.01109,0.00629l-0.01368,0.01963l-0.1295,0.06164c-0.00707,0.00361 -0.01444,0.00616 -0.02207,0.00752c-0.07275,0.01302 -0.14118,-0.08579 -0.15282,-0.22068c-0.00115,-0.01332 -0.0017,-0.02649 -0.0017,-0.03943c-0.04535,0.01433 -0.09169,0.02727 -0.1364,0.04446c0.00207,0.00976 0.00411,0.01954 0.00611,0.02933c0.03088,0.04522 0.05991,0.12227 0.04544,0.24629c-0.00051,0.00439 -0.00107,0.00869 -0.00165,0.01287c0.00082,0.00615 0.00163,0.0123 0.00241,0.01844l0.04644,0.13869c0,0 0.06485,0.22149 -0.05174,0.32712c-0.11659,0.10562 -0.18143,-0.11586 -0.18143,-0.11586l-0.07334,-0.2704c-0.00077,-0.00656 -0.00156,-0.01311 -0.00238,-0.01966c-0.2022,-0.20473 -0.31076,-0.61307 -0.53118,-0.6768c-0.03055,0.03459 -0.10443,0.09213 -0.17401,-0.05388c-0.09063,-0.19015 0.00727,-0.34525 0.00727,-0.34525l0.11766,-0.09896c0.16155,0.02185 0.26439,0.14753 0.35477,0.2937c0.04988,-0.09733 0.13132,-0.05043 0.13132,-0.05043l0.03432,0.03324c0.0456,-0.00163 0.09118,-0.00328 0.13678,-0.00491c0,0 0.0551,-0.00198 0.09729,0.06207z" data-paper-data="{&quot;index&quot;:null}" fill="#7f0000" stroke="none" stroke-width="0.5"/><path d="M236.58253,198.86857c0.04518,-0.0066 0.09083,-0.01309 0.13711,-0.0201c0.06806,-0.19166 0.28363,-0.15681 0.28363,-0.15681c0.10332,0.0167 0.20664,0.0334 0.30995,0.0501l0.16572,0.03989c0,0 0.08901,0.02189 0.14837,0.09253c0.05223,-0.02569 0.22798,-0.09303 0.34257,0.09408c0.00398,0.00651 0.00766,0.01294 0.01106,0.01931c0.00854,-0.00671 0.0175,-0.01292 0.02688,-0.01854c0.04125,-0.08194 0.12468,-0.1395 0.22284,-0.14314l0.28715,-0.01067l0.00261,0.07034c0.16184,-0.00998 0.30229,0.00282 0.56195,-0.02955l0.31707,0.03178c0,0 0.12656,0.01332 0.19334,0.10983c0.05341,-0.06205 0.11918,-0.12443 0.19773,-0.18595c0,0 0.21096,-0.15224 0.3632,0.0587c0.01338,0.01854 0.02394,0.03663 0.0321,0.0542c0.08016,-0.08017 0.20181,-0.07533 0.20181,-0.07533c0.02489,0.00098 0.04977,0.00197 0.07466,0.00295c-0.00435,-0.01734 -0.00698,-0.0354 -0.00767,-0.05399c-0.00533,-0.14358 0.10674,-0.26429 0.25031,-0.26962c0.14358,-0.00533 0.26429,0.10674 0.26963,0.25031c0.00023,0.00629 0.00024,0.01255 0.00004,0.01875c0.00392,-0.01512 0.00925,-0.03087 0.01617,-0.04728c0.10119,-0.23966 0.34084,-0.13847 0.34084,-0.13847c0.06262,0.04119 0.11673,0.08182 0.16295,0.12175c0.08937,-0.12611 0.25896,-0.09357 0.25896,-0.09357c0.08964,0.01721 0.1793,0.03443 0.26893,0.05164l0.08095,-0.00813c-0.01614,-0.04134 -0.0215,-0.09299 -0.00691,-0.15721c0.05765,-0.25369 0.31133,-0.19602 0.31133,-0.19602c0.24415,0.056 0.47205,0.09742 0.66893,0.16597c0.03768,-0.08833 0.11918,-0.12353 0.17435,-0.13748l-0.04421,-0.11474c0,0 -0.00966,-0.25996 0.25031,-0.26961c0.14733,-0.00548 0.21426,0.07565 0.24461,0.14698c0.02177,0.02076 0.04296,0.0394 0.0636,0.05613c0.05818,-0.02195 0.12333,-0.03975 0.19601,-0.05291c0.00872,-0.065 0.04527,-0.11301 0.08094,-0.14539c0.5619,0.04192 1.06953,-0.07905 1.4061,-0.41663c0.04166,0.0483 0.14281,0.19509 -0.00194,0.35102c-0.09638,0.10382 -0.19682,0.09862 -0.26831,0.07235l-0.03517,0.044c0.01206,0.02845 0.01927,0.06225 0.01892,0.10238c0.03965,0.01638 0.08094,0.03601 0.124,0.05925c0,0 0.22647,0.12802 0.09844,0.35449c-0.12803,0.22646 -0.35449,0.09844 -0.35449,0.09844c-0.1915,-0.11569 -0.35447,-0.10426 -0.51128,-0.05574l-0.02031,0.0146c-0.08762,0.03749 -0.17523,0.07498 -0.26284,0.11246c0,0 -0.05171,0.02212 -0.11733,0.02174c-0.08584,0.02453 -0.17529,0.03804 -0.27163,0.02727c0.00781,0.16572 0.12912,0.43126 0.18283,0.5291l-0.03225,0.31063c0,0 -0.10764,0.23684 -0.34446,0.12922c-0.04633,-0.02105 -0.07947,-0.04705 -0.10283,-0.07526c-0.04999,0.01698 -0.11246,0.01775 -0.18813,-0.01663c-0.18765,-0.08527 -0.15907,-0.25167 -0.13909,-0.3171c-0.05175,-0.33137 -0.32353,-0.39188 -0.61676,-0.43543c0.55168,0.64357 0.09571,0.92065 -0.58146,1.09111c0,0 -0.25239,0.063 -0.31539,-0.1894c-0.063,-0.2524 0.18939,-0.3154 0.18939,-0.3154c0.37889,-0.0937 0.60064,0.00543 0.30234,-0.26014l-0.01324,-0.02007c-0.02411,0.00493 -0.04028,0.00553 -0.04028,0.00553l-0.2228,0.00162c-0.07153,-0.01373 -0.14304,-0.02746 -0.21455,-0.04118c-0.04766,0.23309 -0.38939,0.39693 -0.79464,0.43234l0.01479,-0.00102c0,0 -0.21096,0.15224 -0.36319,-0.05871c-0.04201,-0.0582 -0.05636,-0.11194 -0.05513,-0.15925c-0.0482,-0.00191 -0.0964,-0.00382 -0.1446,-0.00574c0,0 -0.18606,-0.00737 -0.23712,-0.16706c-0.01948,0.02039 -0.0349,0.03151 -0.0349,0.03151c-0.0301,0.01857 0.00878,0.09945 0.04404,0.09654l0.22919,0.10882c0,0 0.19066,0.17699 0.01366,0.36763c-0.12978,0.13979 -0.26691,0.08194 -0.33082,0.0411c-0.2813,-0.01581 -0.47515,-0.10678 -0.56972,-0.24018c-0.40808,0.00893 -0.75492,-0.02638 -1.16534,-0.11091l-0.04093,-0.0642l-0.02031,0.02188l-0.02039,-0.01893c-0.02593,0.0099 -0.0539,0.01578 -0.08317,0.01686c-0.10546,0.00391 -0.19858,-0.0555 -0.24271,-0.14422c-0.01454,0.01185 -0.02461,0.01802 -0.02461,0.01802c-0.11927,0.07179 -0.23853,0.14357 -0.3578,0.21536l-0.01043,-0.0154l-0.03044,0.01994l0.00193,0.00807l-0.02244,0.00537l-0.02919,0.01911l-0.26053,0.05005c-0.01425,0.00299 -0.02896,0.00482 -0.04401,0.00537c-0.14358,0.00533 -0.26429,-0.10672 -0.26962,-0.25031c-0.00052,-0.01417 0.00009,-0.02814 0.00177,-0.04178c-0.0903,0.00987 -0.18235,0.01818 -0.27176,0.03115c0.00279,0.01053 0.00551,0.02107 0.00815,0.03162c0.0544,0.05124 0.10109,0.13584 0.05686,0.26492c-0.00157,0.00457 -0.00319,0.00903 -0.00487,0.01337c0.00081,0.00658 0.00159,0.01315 0.00233,0.01973l0.0727,0.15158c0,0 0.09792,0.24102 -0.14311,0.33893c-0.24101,0.09791 -0.33892,-0.14309 -0.33892,-0.14309l-0.10817,-0.29357c-0.00066,-0.00701 -0.00134,-0.014 -0.00209,-0.021c-0.36798,-0.2392 -0.52705,-0.68225 -0.94873,-0.77489c-0.06405,0.03296 -0.21556,0.08509 -0.33245,-0.07689c-0.15223,-0.21095 0.05871,-0.36319 0.05871,-0.36319l0.24224,-0.09077c0.31228,0.04168 0.49665,0.18606 0.65407,0.35062c0.10985,-0.09687 0.26261,-0.03801 0.26261,-0.03801l0.06264,0.03901c0.08914,0.00354 0.17826,0.00708 0.26741,0.01061c0,0 0.10774,0.00426 0.18174,0.07666z" data-paper-data="{&quot;index&quot;:null}" fill="#7f0000" stroke="none" stroke-width="0.5"/><path d="M230.19727,197.49125c0.04531,0.00561 0.09106,0.01149 0.13752,0.01701c0.11649,-0.16672 0.31509,-0.07589 0.31509,-0.07589c0.09518,0.04352 0.19036,0.08706 0.28554,0.13059l0.14918,0.08245c0,0 0.08,0.04474 0.11849,0.12859c0.05718,-0.0109 0.2445,-0.02917 0.30531,0.18165c0.00211,0.00733 0.00396,0.01452 0.00554,0.02154c0.01002,-0.00421 0.02032,-0.00782 0.03085,-0.01074c0.06153,-0.06804 0.15724,-0.10139 0.25284,-0.07886l0.27968,0.06595l-0.01615,0.06851c0.15868,0.03334 0.29069,0.08297 0.54963,0.12069l0.29726,0.11481c0,0 0.11848,0.04644 0.15724,0.15721c0.06797,-0.04565 0.14793,-0.08832 0.24,-0.12678c0,0 0.24381,-0.09077 0.33458,0.15301c0.00797,0.02142 0.01337,0.04167 0.01657,0.06078c0.09856,-0.05602 0.21455,-0.01906 0.21455,-0.01906c0.02374,0.00756 0.04746,0.01511 0.0712,0.02267c0.00042,-0.01787 0.00267,-0.03597 0.00694,-0.05408c0.03297,-0.13984 0.17307,-0.22647 0.31291,-0.1935c0.13984,0.03297 0.22647,0.17308 0.1935,0.31292c-0.00144,0.00613 -0.0031,0.01216 -0.00494,0.01809c0.0078,-0.01353 0.01712,-0.02732 0.02815,-0.0413c0.16118,-0.2042 0.36537,-0.04302 0.36537,-0.04302c0.04944,0.05633 0.09082,0.10988 0.12479,0.16063c0.11964,-0.09786 0.2745,-0.02146 0.2745,-0.02146c0.08186,0.04038 0.16371,0.0808 0.24557,0.12118l0.0802,0.01365c-0.00459,-0.04414 0.00396,-0.09537 0.03508,-0.15341c0.12293,-0.22927 0.35219,-0.10634 0.35219,-0.10634c0.22052,0.11881 0.42925,0.21923 0.60086,0.3376c0.05978,-0.07516 0.14771,-0.08745 0.2046,-0.08626l-0.01216,-0.12236c0,0 0.0597,-0.25319 0.31291,-0.19349c0.14349,0.03384 0.18648,0.12981 0.19681,0.20663c0.01548,0.02579 0.03096,0.0494 0.04642,0.07099c0.06191,-0.00572 0.12946,-0.00559 0.20303,0.00102c0.02565,-0.06035 0.07364,-0.09694 0.11663,-0.11868c0.53061,0.18959 1.05215,0.20772 1.46625,-0.02842c0.02734,0.05763 0.08589,0.226 -0.09506,0.3379c-0.12049,0.07451 -0.21594,0.04282 -0.27789,-0.00148l-0.04559,0.03309c0.00408,0.03063 0.00206,0.06513 -0.00893,0.10374c0.03388,0.02632 0.06847,0.05619 0.10382,0.09004c0,0 0.18436,0.18355 0.00081,0.3679c-0.18356,0.18435 -0.3679,0.0008 -0.3679,0.0008c-0.15392,-0.16239 -0.31408,-0.19462 -0.47814,-0.18948l-0.02347,0.00868c-0.09442,0.01289 -0.18884,0.02578 -0.28327,0.03866c0,0 -0.05573,0.00758 -0.1189,-0.01019c-0.08928,0.00086 -0.17911,-0.00985 -0.26913,-0.04581c-0.03647,0.16184 0.01,0.45006 0.0358,0.55864l-0.11355,0.29093c0,0 -0.16664,0.19977 -0.36641,0.03314c-0.03907,-0.0326 -0.06414,-0.06647 -0.07917,-0.09987c-0.05271,0.0031 -0.11314,-0.01273 -0.17696,-0.06597c-0.15828,-0.13202 -0.08654,-0.28487 -0.04992,-0.34264c0.03808,-0.33323 -0.2079,-0.4637 -0.47904,-0.58353c0.36104,0.76694 -0.15212,0.91302 -0.85025,0.8976c0,0 -0.26006,-0.00626 -0.2538,-0.26633c0.00626,-0.26007 0.26632,-0.2538 0.26632,-0.2538c0.39017,0.01025 0.57765,0.16468 0.36055,-0.17055l-0.00742,-0.02287c-0.02455,-0.00165 -0.0403,-0.00536 -0.0403,-0.00536l-0.21523,-0.0576c-0.06531,-0.03223 -0.13062,-0.06444 -0.19593,-0.09667c-0.10782,0.21208 -0.48078,0.27932 -0.8809,0.20588l0.01452,0.00295c0,0 -0.24379,0.09077 -0.33457,-0.15301c-0.02506,-0.06727 -0.02463,-0.12288 -0.01089,-0.16817c-0.04597,-0.01465 -0.09193,-0.02928 -0.1379,-0.04393c0,0 -0.17743,-0.05651 -0.18426,-0.22402c-0.0242,0.01449 -0.04201,0.02112 -0.04201,0.02112c-0.03396,0.00992 -0.01793,0.09822 0.01684,0.10477l0.19208,0.16575c0,0 0.13682,0.22126 -0.08443,0.35808c-0.16224,0.10032 -0.27907,0.00814 -0.32986,-0.0482c-0.267,-0.08993 -0.42976,-0.22909 -0.48552,-0.38282c-0.39581,-0.09973 -0.72083,-0.22584 -1.09408,-0.41628l-0.02241,-0.07278l-0.02539,0.0157l-0.01463,-0.02366c-0.02762,0.00267 -0.05616,0.0009 -0.08467,-0.00582c-0.10271,-0.02422 -0.17673,-0.10623 -0.19572,-0.20347c-0.01717,0.00756 -0.02851,0.01083 -0.02851,0.01083c-0.13405,0.03754 -0.26808,0.07511 -0.40212,0.11266l-0.00597,-0.01762l-0.03464,0.01114l-0.00028,0.00831l-0.02306,-0.0008l-0.03321,0.01069l-0.26448,-0.0209c-0.01454,-0.0009 -0.0292,-0.00305 -0.04386,-0.00651c-0.13984,-0.03297 -0.22647,-0.17307 -0.1935,-0.3129c0.00326,-0.01381 0.00755,-0.0271 0.01279,-0.0398c-0.08968,-0.01445 -0.18064,-0.03089 -0.27027,-0.04213c-0.00011,0.0109 -0.00029,0.02178 -0.00053,0.03265c0.03884,0.06384 0.0614,0.15779 -0.01551,0.27051c-0.00272,0.00399 -0.00548,0.00787 -0.00825,0.01161c-0.00096,0.00655 -0.00197,0.0131 -0.00298,0.01964l0.02984,0.16545c0,0 0.03043,0.25837 -0.22794,0.28878c-0.25836,0.03042 -0.28877,-0.22793 -0.28877,-0.22793l-0.02636,-0.31175c0.00123,-0.00693 0.00243,-0.01385 0.00357,-0.0208c-0.29128,-0.3283 -0.32703,-0.79769 -0.70899,-0.99894c-0.0705,0.01476 -0.23042,0.02481 -0.30011,-0.16238c-0.09077,-0.24379 0.15301,-0.33457 0.15301,-0.33457l0.25765,-0.02321c0.29001,0.12308 0.42944,0.31124 0.53753,0.51167c0.13163,-0.06422 0.26329,0.03307 0.26329,0.03307l0.05004,0.05423c0.085,0.02707 0.17,0.05414 0.255,0.08121c0,0 0.10274,0.03272 0.15486,0.12216z" data-paper-data="{&quot;index&quot;:null}" fill="#7f0000" stroke="none" stroke-width="0.5"/><path d="M236.90336,187.52846c-0.04447,0.01036 -0.08943,0.02064 -0.13495,0.0315c-0.0518,0.19668 -0.26953,0.17997 -0.26953,0.17997c-0.10435,-0.00801 -0.20871,-0.01601 -0.31306,-0.02402l-0.16848,-0.02589c0,0 -0.09052,-0.01437 -0.15558,-0.0798c-0.04991,0.02996 -0.2194,0.11177 -0.34924,-0.06511c-0.00452,-0.00615 -0.00871,-0.01226 -0.01263,-0.01832c-0.00796,0.0074 -0.01637,0.01434 -0.02524,0.02073c-0.03427,0.0851 -0.11259,0.14942 -0.2101,0.16127l-0.28525,0.03463l-0.00849,-0.06988c-0.16044,0.0235 -0.30147,0.02247 -0.55752,0.07644l-0.31863,-0.00516c0,0 -0.12723,-0.00269 -0.20183,-0.09328c-0.04804,0.0663 -0.10836,0.13396 -0.18149,0.20183c0,0 -0.19748,0.16934 -0.36682,-0.02815c-0.01488,-0.01735 -0.02692,-0.0345 -0.03653,-0.05132c-0.07318,0.08659 -0.1948,0.09193 -0.1948,0.09193c-0.02488,0.00109 -0.04978,0.0022 -0.07464,0.0033c0.0058,0.01691 0.00992,0.03469 0.01215,0.05316c0.01732,0.14262 -0.08427,0.27228 -0.2269,0.28961c-0.14262,0.01732 -0.27228,-0.08427 -0.28961,-0.2269c-0.00076,-0.00625 -0.00129,-0.01249 -0.0016,-0.01869c-0.00264,0.01538 -0.00664,0.03154 -0.01217,0.04847c-0.08079,0.24728 -0.32807,0.16648 -0.32807,0.16648c-0.06585,-0.03581 -0.12317,-0.07177 -0.17257,-0.1077c-0.07851,0.13314 -0.25023,0.11487 -0.25023,0.11487c-0.09077,-0.00966 -0.18155,-0.01932 -0.27231,-0.02897l-0.07998,0.01486c0.01954,0.03984 0.0292,0.09088 0.02001,0.1561c-0.03625,0.25761 -0.29386,0.22136 -0.29386,0.22136c-0.24797,-0.03539 -0.47854,-0.05761 -0.68045,-0.10946c-0.03017,0.09117 -0.10845,0.13306 -0.16226,0.15158l0.05365,0.11064c0,0 0.03135,0.25824 -0.2269,0.2896c-0.14635,0.01777 -0.21983,-0.05747 -0.25603,-0.12602c-0.02343,-0.01888 -0.04609,-0.03569 -0.06807,-0.05063c-0.05613,0.02673 -0.11959,0.04993 -0.1909,0.06912c-0.00324,0.06549 -0.03567,0.1164 -0.06851,0.15165c-0.56343,0.0052 -1.05917,0.16817 -1.36634,0.53272c-0.04555,-0.04466 -0.15862,-0.18246 -0.02741,-0.34995c0.08736,-0.11152 0.18788,-0.11473 0.26132,-0.09452l0.03138,-0.04679c-0.0144,-0.02735 -0.0244,-0.06044 -0.02741,-0.10045c-0.04087,-0.013 -0.08366,-0.02912 -0.12853,-0.04868c0,0 -0.23637,-0.10863 -0.12773,-0.34501c0.10863,-0.23637 0.34502,-0.12774 0.34502,-0.12774c0.20051,0.09928 0.36195,0.07426 0.51416,0.01281l0.01903,-0.01625c0.08417,-0.04468 0.16835,-0.08936 0.25251,-0.13403c0,0 0.04968,-0.02637 0.11511,-0.03149c0.0835,-0.03161 0.1715,-0.05256 0.2684,-0.04989c-0.02164,-0.16449 -0.16472,-0.41896 -0.22641,-0.51197l0.00617,-0.31223c0,0 0.08745,-0.245 0.33246,-0.15755c0.04794,0.01711 0.08314,0.04025 0.10876,0.06639c0.0484,-0.0211 0.11058,-0.02709 0.18885,0.00084c0.19413,0.06928 0.17954,0.23749 0.16512,0.30436c0.07927,0.3259 0.35516,0.36346 0.65102,0.38234c-0.60356,-0.5952 -0.17235,-0.90942 0.48821,-1.13589c0,0 0.24625,-0.08388 0.33013,0.16236c0.08388,0.24624 -0.16236,0.33013 -0.16236,0.33013c-0.36972,0.12504 -0.59899,0.04481 -0.27954,0.2845l0.01487,0.0189c0.02361,-0.00693 0.03967,-0.00888 0.03967,-0.00888l0.22188,-0.02024c0.07241,0.00771 0.14483,0.0154 0.21725,0.02312c0.028,-0.23626 0.35484,-0.42809 0.75572,-0.49726l-0.01466,0.00224c0,0 0.19748,-0.16933 0.36682,0.02815c0.04674,0.05448 0.06552,0.10684 0.06825,0.15407c0.0482,-0.00212 0.09638,-0.00424 0.14459,-0.00637c0,0 0.18602,-0.00819 0.25024,0.14666c0.01772,-0.02195 0.03214,-0.03432 0.03214,-0.03432c0.02844,-0.02102 -0.01707,-0.09838 -0.05197,-0.09253l-0.23749,-0.08927c0,0 -0.20478,-0.16043 -0.04435,-0.36522c0.11764,-0.15016 0.25911,-0.10396 0.32623,-0.06861c0.28164,-0.00775 0.48243,0.0667 0.58782,0.19172c0.40591,-0.04301 0.75448,-0.0368 1.17052,0.01311l0.04616,0.06056l0.01841,-0.0235l0.02188,0.01717c0.02501,-0.01203 0.0524,-0.02022 0.08147,-0.02375c0.10476,-0.0127 0.20253,0.03872 0.25392,0.12343c0.0135,-0.01303 0.02301,-0.02002 0.02301,-0.02002c0.11285,-0.08151 0.22569,-0.16301 0.33854,-0.24452l0.01168,0.01448l0.02867,-0.02241l-0.00261,-0.00788l0.02192,-0.00722l0.0275,-0.0215l0.25544,-0.07165c0.01395,-0.00418 0.02845,-0.00722 0.0434,-0.00903c0.14262,-0.01732 0.27229,0.08425 0.28959,0.22688c0.00171,0.01408 0.00225,0.02804 0.00172,0.04177c0.08916,-0.01738 0.1802,-0.03335 0.26821,-0.05374c-0.00366,-0.01026 -0.00724,-0.02053 -0.01077,-0.03084c-0.0585,-0.04652 -0.11209,-0.12689 -0.07881,-0.25923c0.00117,-0.00469 0.00242,-0.00927 0.00371,-0.01374c-0.00135,-0.00648 -0.00267,-0.01296 -0.00396,-0.01946l-0.08512,-0.14499c0,0 -0.11772,-0.23199 0.11426,-0.34971c0.23198,-0.11772 0.34971,0.11426 0.34971,0.11426l0.13233,0.28349c0.00123,0.00692 0.0025,0.01384 0.00383,0.02075c0.38668,0.20759 0.58224,0.6358 1.0102,0.69285c0.06107,-0.03817 0.20769,-0.10281 0.33771,0.04882c0.16934,0.19749 -0.02815,0.36682 -0.02815,0.36682l-0.2338,0.1107c-0.31467,-0.01543 -0.51047,-0.1439 -0.68111,-0.29471c-0.10136,0.10572 -0.25853,0.05984 -0.25853,0.05984l-0.06568,-0.03365c-0.08912,0.00393 -0.17824,0.00787 -0.26735,0.0118c0,0 -0.10772,0.00475 -0.18752,-0.06121z" data-paper-data="{&quot;index&quot;:null}" fill="#7f0000" stroke="none" stroke-width="0.5"/><path d="M242.54589,187.33367c-0.06819,0.07789 -0.17527,0.09047 -0.17527,0.09047c-0.0886,0.0104 -0.1772,0.0208 -0.2658,0.03121l-0.05945,0.04374c0,0 -0.14778,0.07046 -0.26478,-0.01763c-0.14425,0.1762 -0.31692,0.33439 -0.62506,0.40003l-0.24853,-0.07181c0,0 -0.22208,-0.1355 -0.08657,-0.35757c0.10404,-0.17051 0.25912,-0.13022 0.32552,-0.10231c0.41329,-0.1249 0.5377,-0.57891 0.88611,-0.84578c0.00021,-0.00703 0.00036,-0.01408 0.00046,-0.02111l0.08519,-0.30104c0,0 0.07903,-0.24785 0.32687,-0.16883c0.24785,0.07902 0.16883,0.32687 0.16883,0.32687l-0.06078,0.15676c-0.00023,0.0066 -0.0005,0.01322 -0.00079,0.01983c0.00201,0.0042 0.00397,0.00852 0.00588,0.01295c0.05405,0.12528 0.01402,0.21324 -0.03626,0.26852c-0.00182,0.01073 -0.00371,0.02145 -0.00568,0.03216c0.09014,0.00603 0.18255,0.0072 0.27334,0.01007c-0.00273,-0.01347 -0.00441,-0.02733 -0.00498,-0.04151c-0.00576,-0.14356 0.10594,-0.26459 0.24949,-0.27036c0.01506,-0.00061 0.02986,0.00008 0.0443,0.00196l0.2636,0.02978l0.03059,0.01681l0.0228,0.00362l-0.00131,0.0082l0.03189,0.01752l0.00921,-0.01616c0.12447,0.06237 0.2489,0.12473 0.37336,0.1871c0,0 0.01052,0.00537 0.02594,0.01606c0.03716,-0.09186 0.12541,-0.15829 0.23086,-0.16252c0.02926,-0.00118 0.05761,0.00254 0.08422,0.0104l0.01886,-0.02045l0.02194,0.02025l0.03585,-0.06717c0.40267,-0.11593 0.74576,-0.17791 1.15331,-0.2005c0.08398,-0.1403 0.27024,-0.24595 0.54949,-0.28344c0.06058,-0.04562 0.19283,-0.1139 0.33301,0.01546c0.19118,0.17644 0.01475,0.3676 0.01475,0.3676l-0.22011,0.12618c-0.03536,-0.00019 -0.06791,0.08347 -0.03646,0.09967c0,0 0.01622,0.0099 0.03722,0.02873c0.03857,-0.16315 0.22351,-0.18487 0.22351,-0.18487c0.0479,-0.00563 0.09583,-0.01125 0.14374,-0.01688c-0.00489,-0.04706 0.00527,-0.10173 0.04268,-0.16302c0.13551,-0.22207 0.35758,-0.08657 0.35758,-0.08657l-0.01483,0.00013c0.40677,0.00403 0.76014,0.14103 0.82563,0.36974c0.07024,-0.0192 0.14049,-0.03842 0.21073,-0.05763l0.22226,-0.01559c0,0 0.01617,-0.00064 0.04059,0.00242l0.01165,-0.02104c0.27692,-0.28781 0.06347,-0.17185 -0.32151,-0.23604c0,0 -0.25652,-0.04334 -0.21317,-0.29986c0.04335,-0.25652 0.29986,-0.21317 0.29986,-0.21317c0.68831,0.11769 1.1643,0.35875 0.66393,1.04299c0.28899,-0.06605 0.5553,-0.14734 0.58133,-0.48172c-0.02496,-0.0637 -0.0663,-0.22739 0.1142,-0.32688c0.07279,-0.04012 0.13512,-0.04418 0.18628,-0.03111c0.02111,-0.02993 0.05215,-0.05839 0.09672,-0.08296c0.22783,-0.12559 0.35341,0.10224 0.35341,0.10224l0.05612,0.30721c-0.04599,0.10169 -0.14644,0.3758 -0.14144,0.54163c0.09522,-0.01817 0.18543,-0.0116 0.27291,0.00623c0.0654,-0.00543 0.11867,0.01263 0.11867,0.01263c0.09025,0.03062 0.18049,0.06124 0.27073,0.09186l0.02138,0.01298c0.16009,0.03627 0.32345,0.03509 0.50546,-0.09504c0,0 0.2159,-0.14511 0.36103,0.07079c0.14513,0.2159 -0.07078,0.36102 -0.07078,0.36102c-0.04114,0.0265 -0.0808,0.04927 -0.11906,0.06865c0.00345,0.03999 -0.00112,0.07424 -0.01096,0.10354l0.03846,0.04115c0.06926,-0.03171 0.16898,-0.04466 0.27309,0.05143c0.15635,0.14429 0.06683,0.29844 0.02903,0.34982c-0.36161,-0.31062 -0.87706,-0.39205 -1.43405,-0.30689c-0.03807,-0.02953 -0.07822,-0.07459 -0.09193,-0.13872c-0.07347,-0.00752 -0.13983,-0.02022 -0.19951,-0.03762c-0.01929,0.01826 -0.03897,0.03849 -0.05908,0.06087c-0.02476,0.07346 -0.08523,0.15949 -0.23255,0.16541c-0.25994,0.01044 -0.27036,-0.24949 -0.27036,-0.24949l0.03522,-0.1178c-0.05607,-0.00965 -0.14006,-0.03845 -0.18444,-0.1236c-0.19099,0.08356 -0.41502,0.14242 -0.65411,0.21709c0,0 -0.24846,0.07707 -0.32552,-0.1714c-0.0195,-0.0629 -0.01816,-0.11483 -0.00525,-0.15728l-0.08133,-0.00187c-0.08805,0.02408 -0.1761,0.04815 -0.26415,0.07223c0,0 -0.16656,0.04554 -0.2654,-0.07329c-0.043,0.04338 -0.09383,0.08808 -0.15309,0.13396c0,0 -0.23114,0.11938 -0.35052,-0.11176c-0.00817,-0.01583 -0.01471,-0.03113 -0.01978,-0.0459c0.00069,0.00617 0.00116,0.01241 0.00142,0.0187c0.00576,0.14356 -0.10594,0.2646 -0.24949,0.27037c-0.14356,0.00576 -0.26461,-0.10594 -0.27038,-0.24951c-0.00075,-0.01858 0.0005,-0.03679 0.0035,-0.05442c-0.02474,0.0029 -0.04947,0.0058 -0.07421,0.00871c0,0 -0.1209,0.0142 -0.20701,-0.05954c-0.00678,0.01814 -0.01593,0.037 -0.02783,0.05651c-0.13552,0.22207 -0.35758,0.08655 -0.35758,0.08655c-0.08305,-0.05527 -0.15344,-0.11239 -0.21148,-0.17013c-0.05913,0.10138 -0.18428,0.12442 -0.18428,0.12442l-0.31368,0.05615c-0.2614,-0.01224 -0.40043,0.01137 -0.56256,0.0139l0.00283,0.07033l-0.28713,0.01153c-0.09815,0.00395 -0.18576,-0.04702 -0.23323,-0.12552c-0.00978,-0.00489 -0.01919,-0.01039 -0.02823,-0.01643c-0.00289,0.00661 -0.00606,0.01332 -0.00953,0.0201c-0.09981,0.1954 -0.28022,0.14181 -0.33429,0.12022c-0.05373,0.07501 -0.14079,0.1037 -0.14079,0.1037l-0.16215,0.05255c-0.10172,0.02462 -0.20344,0.04925 -0.30516,0.07388c0,0 -0.21224,0.05138 -0.29489,-0.13445c-0.04667,-0.00342 -0.0927,-0.00636 -0.13825,-0.00947z" data-paper-data="{&quot;index&quot;:null}" fill="#7f0000" stroke="none" stroke-width="0.5"/><path d="M229.80166,167.35166c-1.18552,1.36595 -1.71932,2.95488 -2.3368,4.61735c-0.72212,1.55074 -0.56933,4.51846 0.08447,6.06339c0.75998,1.56826 1.1397,3.31123 2.48812,4.48154l0.19091,0.21932c0,0 0.02282,0.02634 0.0416,0.06787c0.25105,0.17622 0.5011,0.3449 0.749,0.50395c0,0 0.21009,0.13552 0.07456,0.3456c-0.13552,0.21009 -0.3456,0.07456 -0.3456,0.07456c-1.77427,-1.14997 -3.65655,-2.76119 -5.24681,-4.14139c-1.46392,-1.27691 -3.91841,-4.8767 -2.46198,-6.5582c1.81624,-2.09266 4.08933,-3.77226 5.87676,-5.82875c0.80692,-0.92927 1.72847,-1.4777 2.63782,-2.26943l0.02555,-0.03327c0,0 0.16387,-0.18881 0.35267,-0.02494c0.18881,0.16387 0.02494,0.35267 0.02494,0.35267l-0.07569,0.08338c-0.71508,0.61725 -1.43058,1.081 -2.09219,1.70481c0.16924,0.16116 0.01269,0.34154 0.01269,0.34154z" fill="#052c00" stroke="none" stroke-width="0.5"/><path d="M246.29605,183.81475l0.096,-0.09923c1.11125,-0.77123 2.95194,-2.42044 3.28903,-3.81964c0.47293,-1.69379 1.00205,-3.82428 1.63575,-5.54134c0.38705,-1.97698 -0.3941,-3.86873 -1.24598,-5.62574c-0.58081,-1.42692 -1.75542,-2.51094 -2.91615,-3.52255c-0.12476,-0.07866 -0.25043,-0.15558 -0.37709,-0.23063c0,0 -0.21508,-0.12745 -0.08762,-0.34253c0.12745,-0.21508 0.34253,-0.08762 0.34253,-0.08762c0.03011,0.01785 0.06018,0.0358 0.09018,0.05385c0.09666,0.00071 0.17184,0.06596 0.17184,0.06596c0.05315,0.04613 0.10632,0.09237 0.15948,0.13876c1.97006,1.24913 3.71565,2.91771 5.47197,4.44205c1.71257,1.48635 3.82577,2.92373 5.11107,4.79483c0.10854,0.01417 0.17607,0.11059 0.17607,0.11059l0.096,0.1373c0.22658,0.34886 0.3576,0.60547 0.67745,0.88201c0,0 0.13174,0.11434 0.07962,0.26204l0.11472,0.07217c-0.01687,0.01944 -0.03375,0.03889 -0.05062,0.05833v0c0,0 -0.00007,0.00008 -0.00021,0.00024c-0.17536,0.20202 -0.35083,0.40391 -0.52744,0.60486c-2.52898,1.77139 -4.3041,4.30132 -7.23994,5.60822c-2.16061,1.30755 -4.36158,2.39231 -6.63613,3.45702c0,0 -0.22642,0.10598 -0.33241,-0.12044c-0.10598,-0.22642 0.12044,-0.33241 0.12044,-0.33241c0.57723,-0.27016 1.14929,-0.54204 1.71698,-0.81864c0.00991,-0.08463 0.06444,-0.14746 0.06444,-0.14746z" fill="#052c00" stroke="none" stroke-width="0.5"/><path d="M252.93989,191.82713c-0.17532,-0.09359 -0.23698,-0.78509 -0.23698,-0.78509c0,0 -0.17754,-0.87181 -0.27709,-1.47694c-0.05181,-0.31494 -1.33915,-0.91376 -1.47952,-1.2356c-0.15476,-0.35485 0.83898,-0.41813 0.83898,-0.41813l1.62447,-0.26725c0,0 -0.09923,0.79359 0.05964,1.42461c0.16463,0.65395 0.58783,1.15321 0.60453,1.56965c0.03001,0.74795 -0.25727,2.0026 -0.25727,2.0026c0,0 -0.66411,-0.70035 -0.87676,-0.81386z" data-paper-data="{&quot;index&quot;:null}" fill="#fff3ca" stroke="#efea9c" stroke-width="0.5"/><path d="M249.27652,188.60011c0,0 1.01499,0.7915 1.464,1.39044c0.25,0.33348 0.23706,0.98784 0.52233,1.59889c0.27526,0.58962 0.8533,1.14236 0.8533,1.14236l-1.42841,0.8185c0,0 -0.81053,0.57842 -0.91459,0.20551c-0.09436,-0.33818 0.52577,-1.61541 0.36708,-1.89233c-0.30489,-0.53209 -0.71773,-1.32023 -0.71773,-1.32023c0,0 -0.38883,-0.57516 -0.31198,-0.75843c0.09323,-0.2223 0.16596,-1.18471 0.16596,-1.18471z" fill="#fff3ca" stroke="#efea9c" stroke-width="0.5"/><path d="M228.04143,194.52676c0,0 -0.65697,-1.10684 -0.857,-1.82817c-0.11136,-0.40162 0.139,-1.00632 0.0959,-1.6793c-0.04158,-0.64939 -0.37861,-1.37468 -0.37861,-1.37468l1.62841,-0.24202c0,0 0.96552,-0.24345 0.92661,0.14171c-0.03527,0.34932 -1.07804,1.31293 -1.03111,1.62863c0.09016,0.60659 0.18755,1.49096 0.18755,1.49096c0,0 0.15262,0.67727 0.0143,0.81996c-0.16778,0.17309 -0.58606,1.04289 -0.58606,1.04289z" fill="#fff3ca" stroke="#efea9c" stroke-width="0.5"/><path d="M231.49405,192.28366c0,0 0.46547,1.2 0.54384,1.94445c0.04362,0.41448 -0.30302,0.96963 -0.37147,1.64052c-0.06604,0.64735 0.14675,1.41828 0.14675,1.41828l-1.64602,-0.02979c0,0 -0.99245,0.08093 -0.89057,-0.29255c0.0924,-0.33871 1.27976,-1.11721 1.28553,-1.43634c0.0111,-0.61316 0.06085,-1.50149 0.06085,-1.50149c0,0 -0.03887,-0.69317 0.12109,-0.81108c0.19403,-0.14305 0.75001,-0.93198 0.75001,-0.93198z" fill="#fff3ca" stroke="#efea9c" stroke-width="0.5"/><path d="M245.42606,192.92768c0.1256,2.09737 -2.40892,3.95552 -5.66102,4.15028c-3.2521,0.19476 -5.99028,-1.34762 -6.11588,-3.44499c-0.1256,-2.09737 2.40893,-3.95551 5.66103,-4.15027c3.2521,-0.19476 5.99028,1.34762 6.11587,3.44499z" fill="#220000" stroke="none" stroke-width="0"/><path d="M239.8156,191.5429c2.28818,-0.07848 4.17174,0.69263 4.20706,1.72231c0.03531,1.02969 -1.791,1.92803 -4.07918,2.00649c-2.28818,0.07848 -4.17174,-0.69263 -4.20706,-1.72231c-0.03531,-1.02969 1.791,-1.92803 4.07918,-2.00649z" fill="#000000" stroke="none" stroke-width="0"/></g><path d="M227.63328,172.44777c0,-1.29928 0.99116,-2.36707 2.25861,-2.4885c0.37771,-1.75673 1.17445,-3.43063 2.50627,-4.98441l0.00692,-0.12453c0.14456,-0.12391 0.29633,-0.2371 0.45368,-0.33924c0.45857,-0.55237 1.15043,-0.90412 1.92445,-0.90412c0.47883,0 0.92621,0.13462 1.30638,0.36807c1.12169,0.34102 2.02401,1.29877 2.17997,2.97738c0.17401,1.87296 -0.08097,2.59216 -0.60888,3.33418c0.29454,0.41016 0.46798,0.91315 0.46798,1.45665c0.52537,0.67857 -0.02664,1.43447 -0.92834,1.9443c-0.3873,0.31346 -0.87012,0.51354 -1.39799,0.54976c0.01639,1.25315 0.37137,2.61031 0.35363,3.84674c-0.01109,0.77351 -0.33464,1.72757 -0.82189,2.30685c-0.19939,0.23705 -0.39909,0.42194 -0.59784,0.56068c0.00705,0.07652 0.01066,0.15405 0.01066,0.23241c0,1.38071 -1.11929,2.5 -2.5,2.5c-1.38071,0 -2.5,-1.11929 -2.5,-2.5c0,-0.23251 0.03174,-0.45761 0.09113,-0.67119c-0.72978,-0.43658 -1.21838,-1.2347 -1.21838,-2.14694c0,-0.56908 0.19014,-1.09375 0.51037,-1.51394c-0.8812,-0.38653 -1.49671,-1.26665 -1.49671,-2.29054c0,-0.37768 0.08375,-0.7358 0.23369,-1.0568c-0.14994,-0.321 -0.23369,-0.67912 -0.23369,-1.0568z" fill="#000000" stroke="none" stroke-width="0.5"/><path d="M249.40119,176.81587c0,1.38071 -1.11929,2.5 -2.5,2.5c-0.20418,0 -0.40264,-0.02448 -0.59261,-0.07066c-0.37221,0.92661 -0.75236,1.84868 -1.11671,2.77499c-0.99724,2.5353 -4.19611,3.36557 -5.31527,0.00807c-0.45019,-1.35057 1.59941,-3.40228 2.06764,-4.44771c0.68183,-1.52234 1.17199,-3.42519 1.36948,-5.1906c-0.11579,-0.16302 -0.22753,-0.34557 -0.33458,-0.54296c-0.11408,-0.17347 -0.20716,-0.36198 -0.2756,-0.56193c-0.46724,-1.04776 -0.816,-2.33667 -0.97939,-3.36173c-0.09138,-0.25972 -0.14109,-0.53907 -0.14109,-0.83003c0,-0.16311 0.01562,-0.32257 0.04545,-0.47697c0.01154,-0.15574 0.03704,-0.27818 0.07758,-0.35925c0.02606,-0.05211 0.05262,-0.10261 0.07968,-0.15153c0.38296,-0.88949 1.2674,-1.51225 2.29729,-1.51225c1.17673,0 2.16357,0.81299 2.42947,1.90793c0.08094,0.03623 0.1596,0.07665 0.23571,0.12096c1.35523,-0.06105 2.32136,0.96566 2.08932,3.57106c-0.13493,1.51505 -0.44353,2.96239 -0.85244,4.36918c0.83788,0.40377 1.41606,1.26108 1.41606,2.25343z" fill="#000000" stroke="none" stroke-width="0.5"/></g></g></g></svg>