<svg version="1.1" xmlns="http://www.w3.org/2000/svg" xmlns:xlink="http://www.w3.org/1999/xlink" width="86.39449" height="79.45072" viewBox="0,0,86.39449,79.45072"><g transform="translate(-198.92372,-142.69915)"><g data-paper-data="{&quot;isPaintingLayer&quot;:true}" fill-rule="nonzero" stroke="none" stroke-linecap="butt" stroke-linejoin="miter" stroke-miterlimit="10" stroke-dasharray="" stroke-dashoffset="0" style="mix-blend-mode: normal"><path d="M258.76719,192.78337c-0.00489,-0.002 -0.00978,-0.00398 -0.01468,-0.00596c0.29916,-0.12185 0.5877,-0.26202 0.8589,-0.42279c0.0702,0.05127 0.12425,0.08222 0.15379,0.08362c1.61954,0.07657 2.32102,-1.75636 1.61307,-2.6374c0.81342,-0.31188 1.65695,-0.56024 2.52436,-0.73929c0.07471,0.1036 0.16965,0.15922 0.16965,0.15922c0.01698,0.00988 0.03395,0.01964 0.05091,0.02929l-0.01399,0.00839l-0.32978,0.32978l-0.14473,0.24122l-0.18308,0.21359l-0.05886,0.11773l-0.01707,0.00975l-0.01219,0.04876l-0.02181,0.04361l-0.01937,0.08719l-0.00693,0.01154l0.0024,0.00881l-0.06333,0.28499l-0.09752,0.3901v0.04876l-0.0109,0.04907l0.0109,0.01636v0.35607l-0.06498,0.71478l-0.32481,0.5197l-0.16333,0.25666l-0.77485,-0.19371h-1.09307l-0.05582,-0.0124l-0.3901,-0.09752h-0.04876l-0.04907,-0.0109l-0.01636,0.0109h-0.21134l-0.01636,-0.0109l-0.04907,0.0109h-0.04876l-0.3901,0.09752l-0.16188,0.03597z" fill="#084500" stroke-width="0"/><path d="M254.09013,175.49967l0.02211,0.05159c-0.02322,-0.02204 -0.04641,-0.04401 -0.06957,-0.0659c0.01567,0.00516 0.03149,0.00993 0.04746,0.01431z" fill="#084500" stroke-width="0"/><path d="M257.61582,173.08296c0.0011,-0.00927 0.00221,-0.01853 0.00332,-0.0278c0.0032,0.00096 0.0064,0.00191 0.0096,0.00286c-0.00436,0.00827 -0.00867,0.01659 -0.01292,0.02493z" fill="#084500" stroke-width="0"/><path d="M261.69014,163.39844l-0.87009,-0.21752h-0.08469l-0.53383,-0.15252l-0.0676,-0.00225c0.09858,-0.34269 0.18964,-0.69982 0.24889,-1.03802c0.45559,0.45493 0.89839,0.92235 1.32718,1.40322z" fill="#084500" stroke-width="0"/><path d="M279.90029,194.29629c0.42638,-0.94153 0.35927,-1.59709 -0.01508,-2.05618c0.04216,-0.12403 0.03066,-0.23748 0.03066,-0.23748c-0.06763,-0.66726 -0.04559,-1.58514 -0.23804,-2.21576c-0.03135,-0.10272 -0.64394,-1.05366 -0.75259,-1.50453c0.00368,-0.00199 0.00736,-0.00399 0.01103,-0.006l0.0426,0.09941l0.07284,0.09584l0.03505,0.11517l0.32978,0.54964l0.23819,0.23819l0.21242,0.26144l0.43971,0.32978l0.1466,0.06173l0.12077,0.10352l0.07872,0.03936l0.31347,0.2351l0.21285,0.08962l0.18722,0.13522l0.52983,0.21193l0.55706,0.23874l0.27189,0.20392l0.01927,0.00811l0.01356,0.01592l0.17608,0.12577c0.00085,0.00554 0.00184,0.01082 0.00298,0.01583c0.13679,0.60506 0.59938,0.88179 1.17009,0.96366l0.17027,0.21284l0.07838,0.05972l0.0507,0.0845l0.91162,0.91162l-0.01525,0.04574l-0.00869,0.11296l-0.29665,0.37082l-0.11718,0.11718l-0.21613,0.08645l-0.0602,0.04348l-0.07249,0.01611l-0.65957,0.32978l-0.21359,0.18308l-0.24122,0.14473l-0.20498,0.20498l-0.0855,0.00475l-0.22576,0.26338l-0.26338,0.22576l-0.00484,0.08717l-0.09299,0.10848l-0.10993,0.21986l-0.01611,0.07249l-0.04348,0.0602l-0.11531,0.28828c-0.43132,-0.18994 -0.80449,-0.24585 -1.13992,-0.20895c-0.4171,-0.67836 -0.8949,-1.32248 -1.41367,-1.93359c0.07083,-0.07804 0.13728,-0.15486 0.19891,-0.22977z" fill="#084500" stroke-width="0"/><path d="M275.20092,196.59938h-0.3475l-0.18501,-0.37002c0.17856,0.18395 0.38157,0.33142 0.62985,0.38798c0.10236,0.02332 0.2062,0.03913 0.31117,0.04799c0.01621,0.01606 0.03239,0.03216 0.04852,0.04831z" fill="#084500" stroke-width="0"/><path d="M277.06084,198.80751v-0.12836l-0.06823,-0.27291l-0.00844,-0.10964c0.10467,0.15519 0.20403,0.31352 0.29733,0.47509c-0.06853,0.01168 -0.14278,0.02372 -0.22067,0.03582z" fill="#084500" stroke-width="0"/><path d="M233.44116,220.05116c-0.0558,-0.27429 -0.10454,-0.54836 -0.14632,-0.82203c1.99963,-0.03205 2.4153,-3.16621 3.00142,-4.59349c0.10011,-0.24377 0.50604,-0.14749 0.75758,-0.22607c0.09575,-0.02991 0.19121,-0.06237 0.2864,-0.09709c0.39151,0.66267 1.11313,1.10715 1.93856,1.10715c0.34406,0 0.67009,-0.07723 0.96169,-0.21529c0.11114,0.1632 0.24318,0.31103 0.39228,0.43963c-1.1538,0.12628 -2.63162,1.11526 -3.24983,1.80151c-0.08963,1.10964 0.43016,2.29336 0.33706,3.33733c-0.03881,0.43515 -1.15464,0.828 -1.30059,1.19817c-0.01728,0.04381 -0.02848,0.10095 -0.03441,0.1689c-0.17808,-0.13345 -0.35634,-0.26664 -0.54318,-0.38727c-0.09427,-0.06088 -0.20885,-0.12467 -0.33643,-0.18721c-0.79019,-0.54343 -1.43876,-0.87833 -2.03302,-1.3743c-0.01061,-0.04986 -0.02102,-0.09984 -0.0312,-0.14991z" fill="#084500" stroke-width="0"/><path d="M244.08094,216.77409c-0.63914,0.95047 -1.12719,2.07849 -1.57373,2.96773c-0.19941,0.39711 -0.66885,1.10728 -0.9715,1.7882l-0.37058,0.29527c-0.01629,0.01263 -0.03198,0.0264 -0.04696,0.04133c-0.026,0.0259 -0.04855,0.05393 -0.06766,0.08356c0.19287,-1.3703 1.06398,-2.82453 1.12864,-4.46353c0.02313,-0.58651 -0.06852,-1.01006 -0.24199,-1.30309c0.05429,0.00392 0.10911,0.00591 0.1644,0.00591c0.72444,0 1.36891,-0.34237 1.78044,-0.87413c0.04657,0.49456 0.10404,0.9972 0.19894,1.45874z" fill="#084500" stroke-width="0"/><path d="M243.66238,212.2458c-0.0021,0.02101 -0.00495,0.04275 -0.00835,0.06507c-0.02294,-0.02187 -0.04634,-0.04326 -0.07018,-0.06416c0.02618,-0.0003 0.05236,-0.00061 0.07853,-0.00091z" fill="#084500" stroke-width="0"/><path d="M240.22306,206.53497c0.06399,0 0.12516,-0.01202 0.18139,-0.03392c0.02865,0.02165 0.05794,0.04101 0.08793,0.05788c0.12608,0.07096 0.25558,0.1044 0.38528,0.10681c0.13924,0.16942 0.35765,0.30347 0.62418,0.39784l0.04531,0.22655c-0.64292,-0.11049 -1.11932,-0.3955 -1.50477,-0.7888c0.05604,0.02173 0.11697,0.03364 0.18068,0.03364z" fill="#084500" stroke-width="0"/><path d="M201.13175,205.96198c-0.17397,0.25539 -0.41243,0.51216 -0.65928,0.76213c-0.41728,0.02698 -0.80891,-0.00821 -1.18957,-0.04423c-0.04992,-0.41296 -0.14502,-1.41323 -0.23484,-2.53561l1.41745,0.135c0.0092,0.61211 0.25438,1.24934 0.66624,1.68272z" fill="#084500" stroke-width="0"/><path d="M200.16093,199.31356l-1.2372,0.27493c0.44374,-0.52491 0.91855,-0.62153 1.41171,-0.5885c-0.05457,0.10491 -0.11268,0.20943 -0.17451,0.31357z" fill="#084500" stroke-width="0"/><path d="M217.76163,200.81942c0.25525,-0.07962 0.40219,2.18179 0.54441,2.76551c0.06168,0.25316 0.16197,0.49146 0.28813,0.71869c-0.0216,0.03211 -0.04332,0.06414 -0.06514,0.09609c-1.20403,0.19993 -2.34701,2.16615 -3.27429,2.18415c-0.42948,0.00834 -1.15696,0.54125 -1.28209,0.13032c-0.21989,-0.72213 -0.2206,-1.28005 -0.19165,-1.7493c0.16483,-0.26692 0.25994,-0.58145 0.25994,-0.9182c0,-0.40846 -0.13994,-0.78424 -0.37449,-1.082c1.33494,-0.98549 2.5637,-2.06987 4.09518,-2.14527z" fill="#084500" stroke-width="0"/><path d="M218.62688,162.09294l0.03027,0.06153c0.02693,0.05635 0.06423,0.10734 0.1099,0.15011c-0.00314,0.07617 0.00478,0.14456 0.02714,0.20237c0.28389,0.73401 0.74978,1.051 1.28741,1.1956c-0.03094,0.40131 -0.06107,0.8027 -0.09032,1.2042l-0.2425,-0.12125l-0.25519,-0.05671l-0.23974,-0.10423l-0.49193,-0.08199l-0.70248,-0.26343l-0.53198,-0.21279l-0.11928,-0.01627l-0.10622,-0.05665l-0.36167,-0.09042l0.00077,-0.00128l0.05596,-0.03971l1.19411,-1.39313l0.28603,-0.21452l0.1404,-0.1728c0.0031,0.0038 0.00621,0.00759 0.00933,0.01139z" fill="#084500" stroke-width="0"/><path d="M225.57434,168.07682c0.10943,-0.10773 0.14936,-0.34775 0.14363,-0.65425l0.2982,0.16274c0.72067,0.3877 1.11123,0.5636 1.58376,0.57654c-0.06843,0.09965 -0.12005,0.21718 -0.1502,0.35349c-0.00933,-0.00223 -0.01878,-0.00421 -0.02834,-0.00593c-0.06855,-0.01232 -0.13635,-0.01003 -0.2002,0.00464l-0.56875,0.11689l0.00045,0.00224l-0.00642,-0.00097c-0.44345,0.10257 -0.92649,0.21804 -1.43004,0.31961c0.04779,-0.25125 0.09474,-0.50316 0.14072,-0.75564c0.0865,-0.02425 0.1603,-0.06335 0.21718,-0.11935z" fill="#084500" stroke-width="0"/><path d="M280.11034,170.80377c-0.43934,-0.56572 -0.54883,-1.91323 -0.28928,-3.00752c0.05798,0.00839 0.11669,0.01161 0.17636,0.00835c0.11989,-0.00656 0.25137,-0.0892 0.39143,-0.20217c0.42802,0.05814 0.83737,0.15423 1.21756,0.29469c0.05493,0.14727 0.10921,0.29821 0.16279,0.44787c-0.00875,0.06756 -0.01751,0.13513 -0.02627,0.2027l-0.15636,0.03965l0.18915,0.74588c0.06788,0.26767 0.33989,0.42963 0.60756,0.36176c0.23824,-0.06041 0.39273,-0.28252 0.37598,-0.51937l-0.02632,-0.51595c0.00558,-0.0408 0.01117,-0.08161 0.01675,-0.12241c0.13012,0.10616 0.25271,0.22186 0.36691,0.34761c0.1475,0.71359 0.34185,1.40522 0.66561,1.91491h-0.12441l-0.12338,-0.06169l-0.17273,0.06169h-0.18342l-0.09544,0.09959l-0.39779,0.14207l-0.23913,0.15942l-0.00086,0.00043l-0.87511,0.10939l-0.10007,0.03874h-0.10731l-0.51775,0.12944c-0.22341,-0.23048 -0.54686,-0.43352 -0.73446,-0.67509z" fill="#084500" stroke-width="0"/><path d="M249.04136,144.11336c0.0957,0.11289 0.25042,0.21214 0.47807,0.29223c0.69103,0.24312 1.92771,-0.44281 2.84091,-1.24041c0.00297,0.17658 0.0996,0.34617 0.26686,0.43435c0.1957,0.10317 0.42871,0.06359 0.57985,-0.08182l0.72812,-0.66835l-0.05067,-0.0552c0.04443,-0.03104 0.08786,-0.06261 0.13065,-0.095c0.20887,0.06405 0.43068,0.09852 0.66053,0.09852c0.19345,0 0.3812,-0.02441 0.56034,-0.07033c0.50181,0.41215 1.09867,0.7136 1.66614,1.01332c0,0 0.4423,0.23317 0.67547,-0.20913c0.01538,-0.02917 0.02781,-0.05742 0.03763,-0.08476c0.14881,0.23456 0.29106,0.47165 0.42679,0.71104c-0.64819,-0.00317 -1.27974,0.34691 -1.81909,0.88864l-0.07427,-0.03713l-0.00975,-0.01707l-0.04876,-0.01219l-0.04361,-0.02181l-0.39253,-0.08723l-0.3901,-0.09752h-0.04876l-0.04907,-0.0109l-0.01636,0.0109h-0.2156l-0.33494,0.08373l-0.1291,-0.03521l-0.19282,0.11569l-0.21815,0.05454l-0.06639,0.11619l-0.29604,0.17763l-0.09732,0.09732l-0.1856,0.12373l-0.49338,0.54272l-0.06714,0.03837l-0.01224,0.04895l-0.03394,0.03734l0.00532,0.07715l-0.17789,0.71157v0.10373l-0.0124,0.05582l-0.09752,0.3901v0.04876l-0.0109,0.04907l0.0109,0.01636v1.3193l-0.01109,0.04434l-0.00694,0.01389l-0.07789,0.07789l-0.06724,0.01681l-0.15873,-0.01035l-0.93445,0.1699c-0.37639,-0.15799 -0.74785,-0.32374 -1.12098,-0.47283c0.81569,-0.3379 1.38949,-1.14173 1.38949,-2.07958c0,-1.24264 -1.00736,-2.25 -2.25,-2.25c-0.15019,0 -0.29695,0.01472 -0.43891,0.04279c0.06977,-0.11873 0.13339,-0.24963 0.19349,-0.38585z" fill="#084500" stroke-width="0"/><path d="M245.90587,146.28344c0.00438,0.00909 0.00903,0.01804 0.01396,0.02687c-0.07139,0.22611 0.02672,0.47784 0.24388,0.59232c0.1292,0.06811 0.27465,0.074 0.40209,0.02831c0.08114,0.21841 0.21443,0.44254 0.37439,0.64367c-0.55582,-0.29168 -1.11275,-0.58085 -1.67001,-0.86825c0.21367,-0.13477 0.42731,-0.27794 0.63569,-0.42291z" fill="#084500" stroke-width="0"/><path d="M232.6686,160.70352c0.02312,-0.00018 0.04613,-0.00036 0.06901,-0.00061c-0.47256,0.852 -0.6775,1.22437 -0.06901,0.00061z" fill="#084500" stroke-width="0"/><path d="M234.01001,156.58241c0.0177,0.01168 0.0359,0.02313 0.05455,0.03434c-0.01994,0.01052 -0.03974,0.02139 -0.05938,0.03259c0.00183,-0.02235 0.00344,-0.04467 0.00483,-0.06693z" fill="#084500" stroke-width="0"/><path d="M206.96287,185.45213c0.09254,-0.03779 2.21375,-1.44158 2.22289,-1.24138c0.02144,0.46929 0.21806,1.67167 0.61765,2.4714c-0.5896,0.11926 -1.17904,0.23981 -1.76833,0.36151c-0.48227,-0.51807 -0.96982,-1.00978 -1.27716,-1.41758c0,0 -0.02418,-0.03192 -0.06788,-0.07085c0.08026,-0.02812 0.17026,-0.0612 0.27282,-0.10308z" fill="#084500" stroke-width="0"/><path d="M208.28115,144.26797c0.03184,0.06642 0.06138,0.13217 0.08868,0.19724c-1.3113,0.48844 -2.62891,0.95146 -3.99519,1.23728c-0.00577,0.00121 -0.01155,0.00241 -0.01732,0.00362c-0.07188,-0.20755 -0.22095,-0.38585 -0.42547,-0.53766c0.83091,-0.2208 1.64788,-0.50785 2.47659,-0.73713c0.47313,-0.13091 0.94854,-0.25716 1.42598,-0.37671c0.22484,0.05673 0.40566,0.1277 0.44672,0.21337z" fill="#084500" stroke-width="0"/><path d="M225.76226,172.39711c0,-0.27614 0.22386,-0.5 0.5,-0.5c0.27614,0 0.5,0.22386 0.5,0.5c0,0.27614 -0.22386,0.5 -0.5,0.5c-0.27614,0 -0.5,-0.22386 -0.5,-0.5z" fill="#8d0000" stroke-width="0.5"/><path d="M230.93951,174.70558c0,0 0,0.5 -0.5,0.5c-0.5,0 -0.5,-0.5 -0.5,-0.5c0.00648,-0.32705 -0.08627,-1.11 -0.20694,-1.80125l0.2069,0.04598l0.3901,0.09752h0.04876l0.04907,0.0109l0.01636,-0.0109h0.32995l0.01862,0.00466c0.09878,0.61458 0.14116,1.2227 0.14719,1.65309z" fill="#8d0000" stroke-width="0.5"/><path d="M227.03175,182.13103c0,0 -0.5,0 -0.5,-0.5c0,-0.5 0.5,-0.5 0.5,-0.5c0.15398,0.01009 0.30333,-0.0053 0.44854,-0.03772v0.93263c-0.17678,0.05996 -0.33257,0.10088 -0.44854,0.10509z" fill="#8d0000" stroke-width="0.5"/><path d="M256.75193,197.05069c0,0 0.3,-0.4 0.7,-0.1c0.4,0.3 0.1,0.7 0.1,0.7c-0.659,0.79486 -1.28376,0.70198 -2.02856,0.68048c-0.12487,-0.36726 -0.34202,-0.69187 -0.62382,-0.94619c0.6865,0.03097 1.50617,0.23654 1.85239,-0.33429z" fill="#8d0000" stroke-width="0.5"/><path d="M249.65307,200.34251c-0.35355,-0.35355 0,-0.70711 0,-0.70711l0.27779,-0.22061c0.39238,-0.15695 0.80304,-0.35957 1.22212,-0.57644c-0.00686,0.07157 -0.01038,0.14411 -0.01038,0.21748c0,0.29033 0.05499,0.56781 0.15512,0.8226c-0.3403,0.17502 -0.6741,0.3363 -0.99546,0.46484l0.05793,-0.00076c0,0 -0.35355,0.35355 -0.70711,0z" fill="#8d0000" stroke-width="0.5"/><path d="M249.73714,198.01025c0,0.5 -0.5,0.5 -0.5,0.5c-0.18321,0 -0.91606,0 -1.09928,0c0,0 -0.5,0 -0.5,-0.5c0,-0.5 0.5,-0.5 0.5,-0.5c0.18321,0 0.36643,0 0.54964,0h0.54964c0,0 0.5,0 0.5,0.5z" fill="#8d0000" stroke-width="0.5"/><path d="M253.79236,170.93342l0.5816,0.40412c0,0 0.02087,0.01566 0.04951,0.04459c-0.1043,-0.00162 -0.21428,0.00959 -0.33174,0.03296l-0.04523,-0.15831l-0.55929,0.1598c-0.0438,-0.00518 -0.08973,-0.00899 -0.13787,-0.01146l-0.4086,-0.4086c0.26028,-0.04874 0.54147,-0.07283 0.85162,-0.06311z" fill="#8d0000" stroke-width="0.5"/><path d="M235.59422,190.91554c-0.49029,0.09806 -0.58835,-0.39223 -0.58835,-0.39223l-0.11246,-0.56328c-0.09797,-0.69218 -0.2576,-1.47876 0.03637,-2.15727c0.18232,-0.4208 0.71853,-0.74128 0.86539,-1.00244c0.30441,-0.04534 0.60886,-0.09052 0.91335,-0.13555c-0.05566,0.95659 -1.02613,1.76401 -0.82946,3.12642l0.10739,0.536c0,0 0.09805,0.49029 -0.39223,0.58835z" fill="#8d0000" stroke-width="0.5"/></g></g></svg>