<svg version="1.1" xmlns="http://www.w3.org/2000/svg" xmlns:xlink="http://www.w3.org/1999/xlink" width="46.18027" height="48.4717" viewBox="0,0,46.18027,48.4717"><g transform="translate(-207.57091,-153.616)"><g data-paper-data="{&quot;isPaintingLayer&quot;:true}" fill-rule="nonzero" stroke="none" stroke-linecap="butt" stroke-linejoin="miter" stroke-miterlimit="10" stroke-dasharray="" stroke-dashoffset="0" style="mix-blend-mode: normal"><path d="M252.03877,176.79727c0.15083,0.34815 0.28855,0.69871 0.41338,1.05112c-0.03769,0.14928 -0.06505,0.29942 -0.08049,0.45068c0.11051,0.40441 -2.67342,0.18725 -3.14207,-0.2749c-0.69324,-0.68362 -0.54283,-1.81038 -1.08438,-2.60114c-1.2549,-1.83237 -2.44475,-0.0792 -2.8482,1.27516c-0.56048,-0.74733 -1.09168,-1.51735 -1.47673,-2.40615l-0.16804,-0.38788c0,0 -0.06062,-0.13992 -0.19218,-0.23174c-0.40124,-1.45627 -1.83055,-3.72834 -2.19494,-4.56943c0,0 -0.00684,-0.01579 -0.02092,-0.04025c0.43248,-0.39851 0.91752,-0.76096 1.41868,-1.10701c4.0654,1.49417 7.5264,4.57245 9.37588,8.84154z" fill="#084500" stroke-width="0"/><path d="M246.60704,188.9304c-0.65917,-1.0926 -1.13496,-2.27208 -1.15018,-3.7244c-0.04643,-0.81192 0.03328,-2.76802 -0.46359,-3.59596c0.20948,-0.897 0.26059,-1.79091 0.28509,-2.68348c0.15809,-0.03319 0.26924,-0.1398 0.26924,-0.1398c2.83879,-2.72515 0.8228,1.29146 1.01449,2.55584c0.19233,1.26857 1.79264,2.91982 3.12272,2.97519c-0.76759,1.73513 -1.81677,3.28584 -3.07777,4.61262z" fill="#084500" stroke-width="0"/><path d="M239.50231,182.80313c-0.60713,0.68201 0.03618,2.89059 0.22662,4.1798c-1.5359,-0.71432 -4.12739,-0.79875 -5.40428,-1.10975c-1.60879,-0.39183 -2.60937,-1.2889 -1.52083,-2.86187c0,0 0.09804,-0.14706 0.09011,-0.3246c1.67502,-0.03404 4.14131,-0.79657 5.02441,-1.67968c1.79288,-1.1847 1.05827,-1.88719 1.42971,-3.62354c0.15891,-0.74283 1.54524,-1.02419 2.42265,-1.42234c0.13852,2.013 0.97447,3.82729 1.09378,5.83637c-1.13037,0.04509 -2.94056,0.53199 -3.36218,1.00561z" fill="#084500" stroke-width="0"/><path d="M245.07312,192.44109c-0.35919,-0.12607 -0.69463,-0.24647 -0.98272,-0.33799c-2.54463,-1.0199 -2.90421,1.56912 -4.62742,2.47804c-0.21015,0.11085 -1.94244,0.59038 -2.05906,0.54212c-0.5566,-0.23037 -0.52773,-1.16233 -1.3949,-1.30023c-0.86546,-0.13763 -2.21153,0.43392 -3.11227,0.50185c-1.45502,-1.60036 -1.97595,-2.76007 0.39117,-2.38351c0.57457,0.0914 1.41522,-0.66478 1.93885,-0.28075c0.47203,0.34619 0.91706,1.11579 1.60435,1.17961c1.67965,0.15595 3.48431,-1.66153 4.25818,-2.90411c0.29932,-0.98928 0.14688,-1.6304 -0.28441,-2.03647c0.02554,-0.12849 -0.00072,-0.23945 -0.00072,-0.23945c-0.15449,-0.65264 -0.25292,-1.5655 -0.52636,-2.16546c-0.05488,-0.12043 -1.15374,-1.40232 -0.95228,-1.61002c2.20285,-2.271 3.16991,-0.96078 4.49464,1.18617c0.86122,1.53032 2.04773,2.4322 3.36662,3.16299c-0.50011,1.49773 -1.21382,2.91483 -2.11366,4.20723z" fill="#084500" stroke-width="0"/><path d="M231.02219,198.00408c-3.55379,-0.40441 -6.71724,-1.89617 -9.19061,-4.10188c0.84114,0.05419 2.62377,0.47705 3.21586,0.1314c0.27499,-0.16053 0.28581,-0.56909 0.42872,-0.85364c0.27179,-3.00149 -2.66923,-5.353 -2.00009,-8.59475c0.18046,-0.87428 0.7734,-1.33044 1.37575,-1.8357c0.17762,0.50329 -0.09413,1.23963 0.32947,1.56105c0.66699,0.5061 3.6633,-1.89281 4.69024,-1.97287c0.95196,-0.07422 1.32042,0.53151 1.99022,0.8497c-2.54617,3.24245 1.97245,4.80676 4.58651,5.44813c1.15801,0.28412 3.66528,0.51326 2.45947,2.01453c-3.40316,2.73855 -4.79641,-0.70498 -7.62567,-1.7488c-3.23723,-1.19433 -2.34335,3.1236 -1.52063,4.54897c1.0277,0.428 2.31408,0.29925 3.27825,0.71026c0.40188,0.17132 0.43086,1.35394 0.73785,1.60709c0.38621,0.31848 2.4169,0.44944 2.91918,0.38576c1.41541,-0.17946 3.03224,-2.35942 4.36545,-0.98542c0.15851,0.12152 0.35758,0.28485 0.58282,0.4697c-3.0584,1.89029 -6.76024,2.80602 -10.62281,2.36647z" fill="#084500" stroke-width="0"/><path d="M212.48683,179.32919c-0.17081,-2.17001 0.09213,-4.27491 0.71654,-6.23079c0.82595,0.5479 1.66674,0.68917 2.43991,-0.4797c0.02772,-0.07466 0.05418,-0.14032 0.08008,-0.19859c0.05297,0.0903 0.11664,0.14467 0.11664,0.14467c0.20663,0.17556 3.37475,2.71947 3.34719,2.75504c-0.48737,0.62913 -1.53844,0.85709 -0.97265,1.96247c0.42211,0.82466 1.56436,1.27657 2.49835,1.0949c0.12174,0.28402 0.20998,0.62315 0.28797,0.96569c-0.64008,1.16264 -1.66929,1.77065 -1.68585,3.27447c-0.00152,0.138 0.00305,0.27349 0.01323,0.40663c-1.92885,0.14686 -4.04171,0.15317 -6.08121,0.11231c-0.39621,-1.20903 -0.656,-2.48348 -0.76019,-3.8071z" fill="#084500" stroke-width="0"/><path d="M223.65932,192.49353c0.09499,0.24994 -2.15331,0.53405 -2.72731,0.71149c-0.24894,0.07695 -0.48071,0.19154 -0.69985,0.33128c-2.794,-1.64252 -5.08655,-4.09053 -6.51084,-7.08126c2.00804,-0.13267 4.00275,-0.00262 5.99229,-0.32262c0,0 0.00431,-0.00069 0.01206,-0.00236c0.94364,2.46042 3.66818,3.95995 3.93365,6.36346z" fill="#084500" stroke-width="0"/><path d="M224.29163,179.63661c0.14658,-0.44173 -0.03525,-0.97324 0.18327,-1.38417c-0.31722,-1.00097 1.83251,0.5525 2.4341,0.1089c0.17996,-0.1327 0.30539,-0.37136 0.39008,-0.67822c0.45636,0.26166 1.13406,0.84061 1.51814,0.77683c1.99671,-0.33152 1.537,-2.40205 2.31472,-3.52955c1.12363,-1.629 3.46943,-2.27049 4.50114,-4.23479c0.30895,-0.24548 0.76638,-0.63332 0.95136,-1.08041c0.00116,-0.0001 0.00177,-0.00016 0.00177,-0.00016c1.06294,-0.12058 1.56677,-0.67092 2.36953,-1.20652c0.20933,1.24345 0.88103,4.59136 0.56036,4.94511c-0.76191,0.84049 -2.64277,1.01757 -2.93999,2.41131c-0.34173,1.60248 0.68603,2.01366 -0.79002,3.23419c-0.8071,0.98562 -3.17805,1.89588 -4.65556,1.91295c-1.10823,0.0128 -1.60074,-0.77585 -2.92139,-0.40925c-1.10747,0.30743 -3.11164,1.66994 -3.59072,2.70463c-0.10593,0.22878 0.11306,-0.5409 -0.01825,-0.75611c-0.07381,-0.20961 -0.13742,-0.42907 -0.19831,-0.65205c0.02483,-0.11718 0.02994,-0.30014 -0.11891,-0.44336c-0.10233,-0.38002 -0.21094,-0.75823 -0.36195,-1.10413c0.16001,-0.16215 0.28796,-0.36607 0.37063,-0.61519z" fill="#084500" stroke-width="0"/><path d="M238.07512,165.70872c-1.17513,-0.78255 -2.09915,-4.85225 0.02854,-4.78778c2.37676,1.20115 4.38051,2.93306 5.89559,5.00394c-0.43725,-0.00268 -0.87384,0.00786 -1.30927,0.0414c-1.10268,0.08494 -2.19339,0.75077 -3.293,0.4508c0,0 -0.02634,-0.00665 -0.0683,-0.0107c-0.2172,-0.36711 -0.86864,-0.44134 -1.25355,-0.69767z" fill="#084500" stroke-width="0"/><path d="M229.10334,169.7574l0.0838,-0.06428c0,0 0.0022,-0.00532 0.00558,-0.01507c0.08596,-0.05228 0.15785,-0.11723 0.2086,-0.1983c0.61302,-0.97924 -1.71232,-2.46368 -0.94739,-3.16078c0.69693,-0.63513 1.76173,-0.62894 1.38446,-1.95533c-0.2696,-0.94788 -1.50933,-1.88031 -2.36782,-2.79553c1.37794,-0.48496 2.84382,-0.79572 4.37279,-0.9039c0.75616,-0.0535 1.50402,-0.05577 2.24011,-0.00979c-1.07627,1.6318 0.62064,4.89255 2.51154,5.62464c0.32671,0.12649 0.79706,-0.26595 1.05073,-0.02431c0.27332,0.26035 -0.53816,0.53152 -0.83363,0.76643c-1.13813,1.97758 -3.48013,2.49594 -4.68139,4.18186c-0.66886,0.93872 -0.31409,2.51074 -1.64544,3.0408c-0.47022,0.18721 -0.79451,-0.64879 -1.26027,-0.84687c0,0 -0.00541,-0.00224 -0.0153,-0.00566c0.09942,-1.29722 -0.07818,-2.93565 -0.10639,-3.63391z" fill="#084500" stroke-width="0"/><path d="M219.45238,171.84738c0.09254,-0.03779 2.21375,-1.44158 2.22289,-1.24138c0.02941,0.64372 0.38841,2.66674 1.14875,3.13793c1.66629,1.03263 1.94741,-1.65908 2.84911,-1.39597c0.32825,0.09578 0.60137,0.35709 0.93852,0.4141c0.06084,0.00803 0.12994,0.01869 0.20465,0.02991c-0.14121,1.09366 -1.33041,3.66893 -1.17064,4.3803c0.09914,0.44144 -0.38225,-0.91936 -0.79792,-1.098c-0.93278,-0.40088 -1.61482,-0.09964 -1.84764,0.80103c-0.40062,0.45197 -0.28011,0.90559 -0.58747,1.18177c-0.12272,-0.09156 -0.33639,-0.18139 -0.58887,0.00981c-0.07641,0.05787 -0.12707,0.11928 -0.15907,0.18077c-0.51185,-0.0757 -1.36534,-0.3834 -0.90758,-0.91596c0.68751,-0.79987 1.64935,-0.40983 1.22241,-1.83771c-0.33801,-1.13048 -2.01949,-2.52712 -2.73209,-3.47267c0,0 -0.02418,-0.03192 -0.06788,-0.07085c0.08026,-0.02812 0.17026,-0.0612 0.27282,-0.10308z" fill="#084500" stroke-width="0"/><path d="M227.83769,166.79538c-0.86827,0.59077 -1.40017,-0.12334 -1.97947,1.03703c-0.62245,1.24679 0.94701,2.7825 -0.4819,2.33976c-0.87137,-0.21491 -1.21399,-0.86929 -2.24282,-0.20565c-0.4177,0.26943 -0.94642,1.24321 -1.23371,0.83759c-0.52579,-0.74237 -0.09048,-2.30957 -0.42207,-2.93187c-0.74817,-1.40413 -4.50062,0.27576 -5.31752,1.10426c-0.29811,0.39698 -0.69703,0.07963 -1.09502,-0.48409c2.95602,-3.21388 7.1282,-5.15526 11.56265,-5.31765c0.44862,1.25727 1.31453,3.5494 1.20986,3.62061z" fill="#084500" stroke-width="0"/><path d="M218.01499,173.54118c-0.09806,0.49029 -0.58835,0.39223 -0.58835,0.39223l-0.65567,-0.14376c-0.60698,-0.52352 -2.63828,0.46605 -3.82908,0.00779c0,0 -0.46424,-0.1857 -0.27854,-0.64993c0.1857,-0.46424 0.64993,-0.27854 0.64993,-0.27854c1.44928,0.61043 2.67868,-0.79587 3.86586,0.00779l0.44361,0.07609c0,0 0.49029,0.09806 0.39223,0.58835z" fill="#8d0000" stroke-width="0.5"/><path d="M217.8063,169.45109c0.47434,-0.15811 0.63246,0.31623 0.63246,0.31623l0.13559,0.4879c-0.00483,0.99227 0.43565,1.85748 0.43971,2.85812c0,0 0,0.5 -0.5,0.5c-0.5,0 -0.5,-0.5 -0.5,-0.5c0.00483,-0.99227 -0.43565,-1.85748 -0.43971,-2.85812l-0.08427,-0.17167c0,0 -0.15811,-0.47434 0.31623,-0.63246z" fill="#8d0000" stroke-width="0.5"/><path d="M222.56255,170.05288c0.05362,-0.13867 0.17658,-0.29767 0.45853,-0.29767c0.5,0 0.5,0.5 0.5,0.5l-0.5,0.82978c-2.37465,-0.00965 -1.73901,-1.77012 -3.1247,-2.60533c-0.57028,-0.34373 -1.28957,0.34688 -1.78949,0.49598c-0.95132,0.28373 -2.16988,0.22389 -3.07636,-0.12496c0,0 -0.46424,-0.1857 -0.27854,-0.64993c0.1857,-0.46424 0.64993,-0.27854 0.64993,-0.27854c1.69199,0.71266 3.62973,-1.17435 5.02763,-0.28855c1.20977,0.76659 0.70059,2.18801 2.133,2.41922z" fill="#8d0000" stroke-width="0.5"/><path d="M220.76224,167.3971c0,-0.27614 0.22386,-0.5 0.5,-0.5c0.27614,0 0.5,0.22386 0.5,0.5c0,0.27614 -0.22386,0.5 -0.5,0.5c-0.27614,0 -0.5,-0.22386 -0.5,-0.5z" fill="#8d0000" stroke-width="0.5"/><path d="M224.39045,166.65972c-0.00544,-0.00391 -0.0108,-0.00645 -0.01607,-0.00759zM224.41515,166.68578c-0.11364,-0.01096 -0.46501,-0.07874 -0.46501,-0.49789c0,-0.5 0.5,-0.5 0.5,-0.5l0.29562,0.03576c0.90514,0.44069 1.17771,2.83851 1.19373,3.98192c0,0 0,0.5 -0.5,0.5c-0.5,0 -0.5,-0.5 -0.5,-0.5c0.01186,-0.5985 -0.30859,-2.72379 -0.52434,-3.0198z" fill="#8d0000" stroke-width="0.5"/><path d="M220.79876,171.99029c0.35355,-0.35355 0.70711,0 0.70711,0l0.27623,0.28334c0.74735,0.56051 0.80363,1.1698 1.29945,1.74481c0.3805,0.44128 0.63555,-1.01983 1.12225,-1.3402c0.29312,-0.19294 0.8939,0.23721 1.04993,-0.07711c1.02738,-2.06969 1.29607,-2.24027 3.45161,-3.11316l0.00822,-0.02601c1.11617,-0.93484 -1.42121,-2.95742 0.75587,-4.36237c0,0 0.06589,-0.03953 0.1615,-0.06177c-0.00645,-0.00575 -0.01287,-0.01162 -0.01927,-0.0176c-0.72706,-0.68062 -0.27528,-1.01086 -0.47677,-1.77682c-0.1697,-0.64511 -1.22752,-1.14595 -1.5958,-1.74499c0,0 -0.25725,-0.42875 0.1715,-0.68599c0.42875,-0.25725 0.68599,0.1715 0.68599,0.1715c0.7499,1.29124 1.29663,1.57368 1.69451,3.06718c0.20297,0.76189 1.27351,0.59324 1.55494,1.59904l-0.93,0.59806c0,0 -0.5,0 -0.5,-0.5c0,-0.03704 0.00274,-0.07134 0.00783,-0.1031c-0.05287,0.19976 -0.23993,0.31199 -0.23993,0.31199c-1.56034,0.8245 0.50653,2.66586 -0.42271,4.03431c-0.02002,0.1358 -0.10794,0.43405 -0.4941,0.43405c-0.00818,0 -0.01622,-0.00013 -0.02413,-0.0004c-0.59187,0.18761 -1.55269,0.15037 -1.95532,0.53645c-0.65498,0.62804 -0.58575,1.71407 -1.02268,2.22435c-0.30693,0.35845 -0.95393,0.13711 -1.36848,0.3626c-0.61366,0.3338 -0.71819,2.23608 -2.17558,1.29807c-0.47709,-0.30707 -0.755,-1.33501 -1.33882,-1.77288l-0.38334,-0.37623c0,0 -0.35355,-0.35355 0,-0.70711zM230.34935,165.39268c-0.05037,-0.02164 -0.10478,-0.04122 -0.16174,-0.06153c0.04711,0.09987 0.05707,0.18943 0.04574,0.26747c0.02254,-0.08961 0.06511,-0.1563 0.116,-0.20594z" fill="#8d0000" stroke-width="0.5"/><path d="M216.81456,182.44532c-0.09806,-0.49029 0.39223,-0.58835 0.39223,-0.58835l0.41177,-0.06047c0.53591,-0.57989 2.2386,-1.60271 1.97254,-2.55572c-0.0892,-0.31951 -1.73862,-0.44707 -1.97633,-0.98373c-0.07294,-0.16467 -0.06469,-1.9244 -0.14065,-2.29745c0,0 -0.09806,-0.49029 0.39223,-0.58835c0.49029,-0.09806 0.58835,0.39223 0.58835,0.39223c0.09357,0.47796 0.03291,1.96752 0.07921,2.09965c0.10209,0.29134 1.65703,0.34313 1.98106,0.99497c0.74184,1.49231 -1.56091,3.00285 -2.42456,3.82008l-0.68751,0.15938c0,0 -0.49029,0.09806 -0.58835,-0.39223z" fill="#8d0000" stroke-width="0.5"/><path d="M213.61694,179.15936c0,-0.5 0.5,-0.5 0.5,-0.5l0.62541,0.03576c0.88785,0.36069 1.40487,0.58576 1.76847,-0.38102c0,0 0.1857,-0.46424 0.64993,-0.27854c0.46424,0.1857 0.27854,0.64993 0.27854,0.64993c-0.63607,1.5246 -1.67244,1.48922 -3.06834,0.93811l-0.25402,0.03576c0,0 -0.5,0 -0.5,-0.5z" fill="#8d0000" stroke-width="0.5"/><path d="M221.31188,191.47125c0,-0.14659 0.04297,-0.2502 0.10373,-0.32343c-0.02892,-0.36097 -0.15119,-0.51995 -0.50692,-0.862c0,0 -0.35355,-0.35355 0,-0.70711c0.24254,-0.24254 0.48507,-0.15231 0.61347,-0.07174c-0.7553,-0.63874 -1.63047,-1.22379 -1.94092,-1.53814c-0.0842,-0.08526 -0.76878,-1.41101 -0.89224,-1.38605c-0.06641,0.01343 -0.13099,0.02937 -0.19405,0.04739c1.03888,0.70248 1.13642,2.05201 1.38881,3.31397c0,0 0.09806,0.49029 -0.39223,0.58835c-0.49029,0.09806 -0.58835,-0.39223 -0.58835,-0.39223c-0.17831,-0.89155 -0.22488,-2.5791 -1.20681,-2.81162l-0.17167,0.02566c0,0 -0.20644,0 -0.35402,-0.13265c-0.31517,0.13606 -0.65697,0.23892 -1.07504,0.24257c0,0 -0.5,0 -0.5,-0.5c0,-0.5 0.5,-0.5 0.5,-0.5c0.96646,0.01077 1.8193,-0.93048 2.68317,-0.8774c0.9106,0.05595 1.03126,1.20474 1.52617,1.69192c1.36369,1.34242 6.23886,4.76543 1.42952,5.77106c-0.60841,0.24607 -1.18669,0.48986 -1.77758,0.7809l-0.66241,-0.78306c0,0 -0.25725,-0.42875 0.1715,-0.68599c0.42875,-0.25725 0.68599,0.1715 0.68599,0.1715l-0.00285,0.31621c0.1819,-0.50715 0.82903,-0.57134 1.3004,-0.75809c2.08845,-0.39588 1.34307,-1.47548 0.21516,-2.46176c0.56826,0.59574 0.74522,0.99345 0.7571,1.84175l-0.60993,0.5c0,0 -0.5,0 -0.5,-0.5z" fill="#8d0000" stroke-width="0.5"/><path d="M209.65955,180.47849c0,-0.27614 0.22386,-0.5 0.5,-0.5c0.27614,0 0.5,0.22386 0.5,0.5c0,0.27614 -0.22386,0.5 -0.5,0.5c-0.27614,0 -0.5,-0.22386 -0.5,-0.5z" fill="#8d0000" stroke-width="0.5"/><path d="M209.82977,166.13825c-0.5,0 -0.5,-0.5 -0.5,-0.5v-0.10993c0.00075,-0.53501 0.04799,-1.07005 0.11379,-1.601c0,0 0.06202,-0.49614 0.55816,-0.43412c0.49614,0.06202 0.43412,0.55816 0.43412,0.55816c-0.06178,0.48971 -0.10683,0.98338 -0.10607,1.47697v0.10993c0,0 0,0.5 -0.5,0.5z" fill="#8d0000" stroke-width="0.5"/><path d="M225.35333,176.87465c-0.35355,0.35355 -0.70711,0 -0.70711,0l-0.22061,-0.27779c-0.05967,-0.53356 -1.78169,0.51197 -2.39388,0.53416c0,0 -0.5,0 -0.5,-0.5c0,-0.5 0.5,-0.5 0.5,-0.5c1.35176,0.08859 2.34606,-1.78662 3.32236,0.09445l-0.00076,-0.05793c0,0 0.35355,0.35355 0,0.70711z" fill="#8d0000" stroke-width="0.5"/><path d="M224.84022,181.46784c0,0.5 -0.5,0.5 -0.5,0.5l-0.93,-0.40194c-0.15785,-0.93117 0.03207,-2.27832 0.50125,-3.1035c0,0 0.25725,-0.42875 0.68599,-0.1715c0.42875,0.25725 0.1715,0.68599 0.1715,0.68599c-0.35436,0.54544 -0.53257,1.78039 -0.37817,2.39289l-0.05058,-0.40194c0,0 0.5,0 0.5,0.5z" fill="#8d0000" stroke-width="0.5"/><path d="M233.88024,174.04519c0.27735,0.41603 -0.13868,0.69338 -0.13868,0.69338l-0.35906,0.23795c-1.90016,1.07224 -1.37637,3.23316 -3.60764,3.99762c0,0 -0.47434,0.15811 -0.63246,-0.31623c-0.15811,-0.47434 0.31623,-0.63246 0.31623,-0.63246c1.8606,-0.59858 1.60923,-2.8668 3.42773,-3.91718l0.3005,-0.20176c0,0 0.41603,-0.27735 0.69338,0.13868z" fill="#8d0000" stroke-width="0.5"/><path d="M227.28449,181.60154c-0.35355,-0.35355 0,-0.70711 0,-0.70711l0.27779,-0.22061c1.4125,-0.565 3.06185,-1.72169 4.48825,-2.00544c0.72749,-0.14472 1.90005,0.35487 2.33282,-0.35866c0,0 0.3,-0.4 0.7,-0.1c0.4,0.3 0.1,0.7 0.1,0.7c-0.91085,1.09863 -1.75629,0.50134 -2.94371,0.74062c-1.35755,0.27356 -2.94351,1.40698 -4.30596,1.95196l0.05793,-0.00076c0,0 -0.35355,0.35355 -0.70711,0z" fill="#8d0000" stroke-width="0.5"/><path d="M235.7124,173.22326c0,-0.27614 0.22386,-0.5 0.5,-0.5c0.27614,0 0.5,0.22386 0.5,0.5c0,0.27614 -0.22386,0.5 -0.5,0.5c-0.27614,0 -0.5,-0.22386 -0.5,-0.5z" fill="#8d0000" stroke-width="0.5"/><path d="M236.92837,166.55597c0.02162,-0.13825 0.11236,-0.42838 0.49324,-0.42838c0.5,0 0.5,0.5 0.5,0.5l-0.1,0.40993c-0.88373,1.15864 -2.92795,1.97551 -4.21008,2.76701c0,0 -0.42875,0.25725 -0.68599,-0.1715c-0.25725,-0.42875 0.1715,-0.68599 0.1715,-0.68599c1.09815,-0.63359 3.01709,-1.42204 3.83133,-2.39107z" fill="#8d0000" stroke-width="0.5"/><path d="M237.04124,161.47287c0.00439,-0.02194 0.00956,-0.04271 0.01544,-0.06236c-0.46486,-0.02286 -0.46486,-0.49915 -0.46486,-0.49915c0.00106,-0.50525 0.03486,-1.01268 0.11673,-1.51126l-0.0068,-0.02773c0,0 0,-0.5 0.5,-0.5c0.5,0 0.5,0.5 0.5,0.5l-0.0068,0.19213c-0.07523,0.44394 -0.10418,0.89659 -0.10312,1.34686c0,0 0,0.07243 -0.02757,0.16215c0.04013,0.00208 0.06534,0.00712 0.06534,0.00712l0.50085,0.10265c1.96647,0.06936 1.20523,1.97626 2.69892,1.97626c0,0 0.5,0 0.5,0.5c0,0.5 -0.5,0.5 -0.5,0.5c-1.97723,0 -1.3241,-2.05876 -2.79746,-1.98113l-0.59843,-0.1172c0,0 -0.49029,-0.09806 -0.39223,-0.58835z" fill="#8d0000" stroke-width="0.5"/><path d="M226.80826,168.82616c0,-0.27614 0.22386,-0.5 0.5,-0.5c0.27614,0 0.5,0.22386 0.5,0.5c0,0.27614 -0.22386,0.5 -0.5,0.5c-0.27614,0 -0.5,-0.22386 -0.5,-0.5z" fill="#8d0000" stroke-width="0.5"/><path d="M225.28138,179.30392c-0.47434,-0.15811 -0.31623,-0.63246 -0.31623,-0.63246l0.18427,-0.47167c0.35297,-0.4514 0.64285,-0.65791 1.07351,-0.82201c-0.23775,-0.29865 -0.40159,-0.74493 -0.40159,-1.34567l0.02347,-0.04555l-0.01619,-0.00324l0.10811,-0.54056c0.04197,-0.23369 0.24633,-0.41102 0.49211,-0.41102c0.04254,0 0.08384,0.00531 0.12327,0.01531l0.02288,-0.03051c0.09098,-0.12409 0.23783,-0.20466 0.40349,-0.20466c0.27614,0 0.5,0.22386 0.5,0.5v0.1777c0.01849,0.007 0.03603,0.01514 0.05265,0.02416c0.05707,-0.03088 0.11291,-0.0464 0.16594,-0.05126c0.0302,-0.04027 0.06041,-0.08055 0.09061,-0.12082c0,0 0.3,-0.4 0.7,-0.1c0.4,0.3 0.1,0.7 0.1,0.7c-0.10993,0.14657 -0.21986,0.29314 -0.32978,0.43971l-0.30539,-0.01994c0.14332,0.70493 -0.07698,1.1658 -0.42314,1.36459c-0.00772,0.0243 -0.01667,0.04595 -0.02693,0.06472c-0.24198,0.44277 -1.20565,0.51491 -1.55302,1.00903l-0.03559,0.1879c0,0 -0.15811,0.47434 -0.63246,0.31623z" fill="#8d0000" stroke-width="0.5"/><path d="M207.57092,174.76225c0,-0.5 0.5,-0.5 0.5,-0.5h0.54964c0,0 0.5,0 0.5,0.5c0,0.5 -0.5,0.5 -0.5,0.5h-0.54964c0,0 -0.5,0 -0.5,-0.5z" fill="#8d0000" stroke-width="0.5"/><path d="M227.13147,191.11255c0.00259,0.01512 0.00509,0.02875 0.00751,0.04079zM227.11586,191.01162c0.0367,0.03915 0.32837,0.37121 -0.00368,0.70326c-0.35355,0.35355 -0.70711,0 -0.70711,0l-0.24666,-0.36542c-0.05219,-0.26206 -0.27866,-3.68702 -0.68908,-3.67184c-0.04677,0.00173 -0.09186,0.00189 -0.13532,0.00053c-0.85368,1.2005 0.60004,3.88209 0.60548,5.22216v0.21986c0,0 0,0.5 -0.5,0.5c-0.5,0 -0.5,-0.5 -0.5,-0.5v-0.21986c0.00894,-1.83904 -1.45551,-3.93655 -0.47871,-5.68411c-0.23778,-0.42556 -0.18609,-1.09444 -0.03395,-1.79097h-0.03698v-0.07263c-0.07143,-0.02126 -0.12739,-0.05569 -0.17123,-0.09659c-0.03177,0.00633 -0.06463,0.00965 -0.09826,0.00965c-0.27614,0 -0.5,-0.22386 -0.5,-0.5c0,-0.16566 0.08057,-0.31251 0.20466,-0.40349l0.24502,-0.18377c0.03129,-0.33767 0.15298,-0.63601 0.59621,-0.8493c0.32121,-0.15457 0.56261,-0.1593 0.76818,-0.08777c0.18675,0.03553 0.34904,0.16306 0.50543,0.32938c0.24755,0.20921 0.50332,0.43659 0.88812,0.47992c1.90549,0.21459 4.01552,-1.69855 4.05826,1.70437v0.32978c0,0 0,0.5 -0.5,0.5c-0.5,0 -0.5,-0.5 -0.5,-0.5v-0.32978c0.02227,-1.27817 -0.51746,-1.29427 -1.2489,-1.09035c0.17495,0.01122 0.34125,0.04663 0.49023,0.12667c0.42689,0.22936 0.6159,1.56501 0.65696,2.01368c0.24837,2.71393 -2.4531,1.93938 -1.03624,-0.42783c0,0 0.03943,-0.06571 0.11314,-0.13025c-0.02153,-0.318 -0.09532,-0.57511 -0.29449,-0.62753c-0.47231,-0.12431 -0.98629,0.18243 -1.46315,0.07694c-0.27648,-0.06116 -0.49092,-0.2046 -0.66784,-0.37625c-0.01776,0.03524 -0.03956,0.0681 -0.0648,0.09795l-0.54434,0.6532l-0.4337,0.54213c-0.0711,0.09046 -0.17274,0.15578 -0.28938,0.18044c-0.00014,0.00063 -0.00028,0.00127 -0.00043,0.0019c0.06186,0.01578 0.12769,0.04667 0.19649,0.09827c0.00949,0.00712 0.01858,0.01429 0.0273,0.02151c1.27218,-1.06497 1.64657,3.10495 1.78878,4.0961zM225.26672,184.41925c0.02754,0.06146 0.05259,0.1295 0.0752,0.2013l0.12269,0.12269l0.35533,-0.11844c0.01605,-0.00577 0.03248,-0.01074 0.04924,-0.01487c-0.1831,-0.22878 -0.35519,-0.3557 -0.60247,-0.19068z" fill="#8d0000" stroke-width="0.5"/><path d="M230.28381,201.8082c-0.22361,0.44721 -0.67082,0.22361 -0.67082,0.22361l-0.38668,-0.24479c-0.65976,-0.82485 -1.16818,-1.67488 -1.6926,-2.59261c0,0 -0.24807,-0.43412 0.18605,-0.68219c0.43412,-0.24807 0.68219,0.18605 0.68219,0.18605c0.49926,0.8737 0.97738,1.67939 1.60523,2.46406l0.05303,-0.02494c0,0 0.44721,0.22361 0.22361,0.67082z" fill="#8d0000" stroke-width="0.5"/><path d="M240.879,192.02089c0,-0.5 0.5,-0.5 0.5,-0.5h0.54964c1.9451,0 2.28407,0.10203 3.4522,-1.45513c1.04911,-1.3098 0.1783,-1.93486 0.81823,-3.30563c0.01686,-0.03611 0.03591,-0.07224 0.05699,-0.10826c-0.16376,0.12594 -0.37822,0.24251 -0.65163,0.34698c-0.90367,0.34529 -3.48589,-1.14809 -4.46911,-2.41998c0.09352,1.25042 0.34112,1.6447 -0.64671,3.30216c-1.02381,1.70636 -0.65689,4.58918 -2.76574,5.59115c-1.54016,0.73176 -1.9806,-1.78739 -3.1447,-1.721c-0.54062,0.03084 -1.09069,0.47955 -1.62011,0.96205c0.20891,0.09164 0.41583,0.18764 0.61983,0.28951c0,0 0.44721,0.22361 0.22361,0.67082c-0.22361,0.44721 -0.67082,0.22361 -0.67082,0.22361c-0.23383,-0.11706 -0.49528,-0.24157 -0.6771,-0.42828l-0.12487,0.16649c-0.09098,0.12409 -0.23783,0.20466 -0.40349,0.20466c-0.27614,0 -0.5,-0.22386 -0.5,-0.5c0,-0.06965 0.01424,-0.13598 0.03997,-0.19622l0.21564,-0.53911l0.13145,0.05258l0.04272,-0.05696l0.06146,0.0461l0.06898,-0.32986c0.04904,0.01886 0.09805,0.03783 0.14702,0.05692c0.29648,-0.7394 1.73413,-1.64019 2.41632,-1.62186c0.48309,0.01298 2.5803,1.96112 2.79139,1.79669c1.61616,-1.25888 1.30099,-3.53186 2.29093,-5.18176c0.26655,-0.44165 0.70349,-0.77054 0.94152,-1.22819c0.29562,-0.56835 -0.45478,-1.84932 -0.46314,-2.47196v-0.65957c0,-0.18115 0.09633,-0.3398 0.24056,-0.42751c-0.18533,-0.33112 -0.37458,-0.6586 -0.56094,-0.89722c-0.27232,-0.34868 -0.78556,-0.30508 -1.25149,-0.35685c-1.01188,0.7742 -2.32993,1.03412 -2.70851,-0.5447c0,0 -0.0822,-0.4932 0.411,-0.5754c0.4932,-0.0822 0.5754,0.411 0.5754,0.411c0.00791,0.5433 0.39563,0.41794 0.82264,0.09856c-0.00142,-0.00418 -0.00282,-0.00838 -0.00421,-0.01261c-0.38985,-1.1906 0.47741,-1.52258 1.16701,-1.44749c-0.0232,-0.35359 -0.23536,-0.75871 -0.03456,-1.03513c0.20042,-0.27589 0.73223,-0.10303 1.01403,-0.26271c0.05454,-0.11967 0.10869,-0.23011 0.16296,-0.33277c-0.01927,-0.20958 -0.16368,-0.44743 -0.16368,-0.66319v-0.54964v0c0,-0.27614 0.22386,-0.5 0.5,-0.5c0.16566,0 0.31251,0.08057 0.40349,0.20466l0.32629,0.43506l-0.08525,0.06394c0.5046,0.54375 0.66459,1.09573 -0.15802,1.32002c-0.01477,0.25474 -0.04379,0.475 -0.09985,0.55217c-0.12443,0.17128 -0.38997,0.14163 -0.63286,0.14243c0.01211,0.45339 0.15476,1.0505 0.02606,1.428l-0.07758,0.05098l0.02857,0.02286l-0.31061,0.38826c0.03712,0.01508 0.07089,0.02926 0.10047,0.04223c0.89294,0.39147 1.34257,1.5199 1.8692,2.31166l0.41219,0.46006c0,0 0.32929,0.36901 -0.03413,0.70052c1.01569,1.04782 2.16905,2.18358 3.24049,2.01616c0.50059,-0.07822 -0.10187,-1.59186 -0.38212,-1.78005c-0.39786,-0.26716 -1.51053,-0.53433 -1.6008,-1.17486c-0.19659,-1.39495 2.96509,-2.44623 3.3006,-0.52815c-0.03969,0.18547 0.15312,0.3926 0.32863,0.4645l0.46072,0.34471c0,0 0.4,0.3 0.1,0.7c-0.3,0.4 -0.7,0.1 -0.7,0.1l-0.41871,-0.31486c-0.41017,-0.28964 -0.72984,-0.79387 -0.77064,-1.29435c0.25294,-0.37718 -1.64947,0.04258 -1.31636,0.35127c0.55585,0.51511 2.84645,2.11637 2.33272,3.29011c0.62308,-0.57789 1.67131,-0.97052 2.32368,-0.5446c0.48627,0.31748 -0.85691,-0.82446 -1.0976,-1.35296c-0.41429,-0.90968 -0.30573,-2.06805 -1.35091,-2.36875c0,0 -0.47434,-0.15811 -0.31623,-0.63246c0.15811,-0.47434 0.63246,-0.31623 0.63246,-0.31623c1.65296,0.60091 1.45712,2.15872 2.25304,3.52121c0.12184,0.20857 0.96506,1.31935 0.79484,1.55129c-0.33544,0.45705 -2.00239,0.41956 -2.55775,0.84399c-0.71036,0.54288 -0.34336,2.78076 -1.13239,3.76821c-1.32268,1.76399 -2.09142,1.8427 -4.24273,1.8427h-0.54964c0,0 -0.5,0 -0.5,-0.5z" fill="#8d0000" stroke-width="0.5"/><path d="M250.58924,179.98635c-0.27735,0.41603 -0.69338,0.13868 -0.69338,0.13868l-0.54741,-0.56517c-0.27884,-1.97371 -0.86749,-2.86424 -1.98196,-4.21427c-0.05061,0.01724 -0.10488,0.0266 -0.16133,0.0266c-0.11961,0 -0.22941,-0.042 -0.31546,-0.11205l-0.20158,-0.16126l0.04754,0.06339l-0.43567,0.32675c-0.08425,0.06462 -0.18966,0.10303 -0.30404,0.10303c-0.27614,0 -0.5,-0.22386 -0.5,-0.5c0,-0.03125 0.00287,-0.06183 0.00835,-0.09149l0.10838,-0.65027l0.15969,0.02662l0.01032,-0.32593c0.0487,-0.00424 0.10044,-0.00782 0.15407,-0.01022c-0.04429,-0.25207 0.10251,-0.45435 0.80994,-0.35414c0.05845,-0.67353 0.12896,-1.53425 -0.15142,-1.90931c-0.32174,-0.43039 -1.22228,-0.15938 -1.61222,-0.27072c-0.98843,-0.28223 -2.0363,-1.38132 -2.74319,-2.15033c0.27444,0.42338 0.08599,1.30989 0.17973,1.79377c0.20482,1.05728 1.34079,1.78815 1.43599,2.79703c0.18479,1.95834 -2.3313,2.59859 -0.64754,4.80239c0,0 0.3,0.4 -0.1,0.7c-0.4,0.3 -0.7,-0.1 -0.7,-0.1c-0.61628,-0.83383 -1.13298,-2.3827 -0.73138,-3.43355c0.19594,-0.51271 1.2535,-1.2619 1.18311,-1.87741c-0.24421,-2.13552 -1.88856,-3.00513 -1.34218,-5.61149c1.79638,0.23786 2.19336,1.72549 3.73239,2.11587c0.75863,0.19243 1.51228,-0.16638 2.12532,0.6087c0.6021,0.76125 0.32983,2.26328 0.32983,3.17098v0.34976c0.15661,0.19818 0.29203,0.37547 0.35463,0.47052c0.51259,0.77826 1.8125,1.00197 2.13564,1.8465c0.21437,0.56025 0.04974,1.78435 0.14296,2.42911l0.11216,-0.12546c0,0 0.41603,0.27735 0.13868,0.69338z" fill="#8d0000" stroke-width="0.5"/><path d="M251.49234,181.85791c-0.5,0 -0.5,-0.5 -0.5,-0.5l0.1,0.08014c-0.10993,-0.14657 -0.21986,-0.29314 -0.32978,-0.43971c0,0 -0.3,-0.4 0.1,-0.7c0.4,-0.3 0.7,0.1 0.7,0.1c0.10993,0.14657 0.21986,0.29314 0.32978,0.43971l0.1,0.51986c0,0 0,0.5 -0.5,0.5z" fill="#8d0000" stroke-width="0.5"/><path d="M251.65191,182.34726c0,-0.27614 0.22386,-0.5 0.5,-0.5c0.27614,0 0.5,0.22386 0.5,0.5c0,0.27614 -0.22386,0.5 -0.5,0.5c-0.27614,0 -0.5,-0.22386 -0.5,-0.5z" fill="#8d0000" stroke-width="0.5"/><path d="M249.02858,173.76156c0.12127,-0.48507 0.60634,-0.3638 0.60634,-0.3638l0.73447,0.31765c0.73795,1.1316 1.24529,1.97028 1.80239,3.26829c0,0 0.19696,0.45957 -0.26261,0.65653c-0.45957,0.19696 -0.65653,-0.26261 -0.65653,-0.26261c-0.55259,-1.29118 -0.96135,-1.9964 -1.71529,-3.10751l-0.14495,0.09779c0,0 -0.48507,-0.12127 -0.3638,-0.60634z" fill="#8d0000" stroke-width="0.5"/><path d="M248.68386,167.50703c0,-0.27614 0.22386,-0.5 0.5,-0.5c0.27614,0 0.5,0.22386 0.5,0.5c0,0.27614 -0.22386,0.5 -0.5,0.5c-0.27614,0 -0.5,-0.22386 -0.5,-0.5z" fill="#8d0000" stroke-width="0.5"/><path d="M244.73712,193.01024c0,0.5 -0.5,0.5 -0.5,0.5c-0.18321,0 -0.91606,0 -1.09928,0c0,0 -0.5,0 -0.5,-0.5c0,-0.5 0.5,-0.5 0.5,-0.5c0.18321,0 0.36643,0 0.54964,0h0.54964c0,0 0.5,0 0.5,0.5z" fill="#8d0000" stroke-width="0.5"/><path d="M242.69813,187.45357c0.28572,0 0.40817,0.16328 0.46065,0.30322c0.11541,0.06925 0.23083,0.1385 0.34624,0.20774c0,0 0.42875,0.25725 0.1715,0.68599c-0.25725,0.42875 -0.68599,0.1715 -0.68599,0.1715c-0.18321,-0.10993 -0.36643,-0.21986 -0.54964,-0.32978l-0.24275,-0.53867c0,0 0,-0.5 0.5,-0.5z" fill="#8d0000" stroke-width="0.5"/><path d="M225.32206,196.74403c0.22361,-0.44721 0.67082,-0.22361 0.67082,-0.22361l0.18194,0.0929c3.41465,1.36734 6.95782,0.19455 10.47729,0.18409c0,0 0.5,0 0.5,0.5c0,0.5 -0.5,0.5 -0.5,0.5c-3.68158,-0.01244 -7.26303,1.17716 -10.84868,-0.25562l-0.25777,-0.12695c0,0 -0.44721,-0.22361 -0.22361,-0.67082z" fill="#8d0000" stroke-width="0.5"/><path d="M221.42181,197.07756c0,-0.5 0.5,-0.5 0.5,-0.5c0.47635,0 1.39242,0 1.86877,0c0,0 0.5,0 0.5,0.5c0,0.5 -0.5,0.5 -0.5,0.5c-0.47635,0 -0.95271,0 -1.42906,0h-0.43971c0,0 -0.5,0 -0.5,-0.5z" fill="#8d0000" stroke-width="0.5"/><path d="M213.88959,191.35758c0.22361,-0.44721 0.67082,-0.22361 0.67082,-0.22361l0.2736,0.14112c0.21986,0.14657 0.43971,0.29314 0.65957,0.43971c0,0 0.41603,0.27735 0.13868,0.69338c-0.27735,0.41603 -0.69338,0.13868 -0.69338,0.13868c-0.21986,-0.14657 -0.43971,-0.29314 -0.65957,-0.43971l-0.16611,-0.07874c0,0 -0.44721,-0.22361 -0.22361,-0.67082z" fill="#8d0000" stroke-width="0.5"/><path d="M216.15336,184.81798c-0.05199,-0.87907 1.82128,-1.4754 2.73317,-1.68863c0.0714,-0.099 0.1923,-0.18282 0.39702,-0.18282c0.5,0 0.5,0.5 0.5,0.5l-0.4178,0.60312c-1.44033,0.21753 -1.99703,0.21414 -1.82656,0.53505l0.38025,0.1521c0.1899,0.0709 0.32512,0.25394 0.32512,0.46856c0,0.27614 -0.22386,0.5 -0.5,0.5h-0.65957c-0.3466,-0.00553 -0.70405,0.04954 -1.02351,0.18409c0,0 -0.46424,0.1857 -0.64993,-0.27854c-0.1857,-0.46424 0.27854,-0.64993 0.27854,-0.64993c0.15042,-0.05789 0.30548,-0.10536 0.46326,-0.14301z" fill="#8d0000" stroke-width="0.5"/><path d="M221.37217,182.84726c-0.5,0 -0.5,-0.5 -0.5,-0.5v-0.54964c0,0 0,-0.5 0.5,-0.5c0.5,0 0.5,0.5 0.5,0.5v0.54964c0,0 0,0.5 -0.5,0.5z" fill="#8d0000" stroke-width="0.5"/><path d="M246.50589,164.94891c-0.3,0.4 -0.7,0.1 -0.7,0.1l-0.29782,-0.25544c-1.91897,0.09819 -2.68693,1.67457 -4.89856,1.67457c0,0 -0.5,0 -0.5,-0.5c0,-0.5 0.5,-0.5 0.5,-0.5c2.24526,0 2.9752,-1.69353 5.21479,-1.62326l0.5816,0.40412c0,0 0.4,0.3 0.1,0.7z" fill="#8d0000" stroke-width="0.5"/><path d="M219.0034,164.31913c0,-0.5 0.5,-0.5 0.5,-0.5l0.14409,0.03576c0.47724,-0.19087 0.95793,-0.37307 1.43919,-0.55356c0,0 0.46816,-0.17556 0.64373,0.2926c0.17556,0.46816 -0.2926,0.64373 -0.2926,0.64373c-0.47449,0.17792 -0.94843,0.35749 -1.41893,0.54571l-0.51548,0.03576c0,0 -0.5,0 -0.5,-0.5z" fill="#8d0000" stroke-width="0.5"/><path d="M213.61694,163.65956c0,-0.5 0.5,-0.5 0.5,-0.5c0.51655,0 1.68201,0 2.19855,0c0,0 0.5,0 0.5,0.5c0,0.5 -0.5,0.5 -0.5,0.5c-0.51655,0 -1.03309,0 -1.54964,0h-0.64891c0,0 -0.5,0 -0.5,-0.5z" fill="#8d0000" stroke-width="0.5"/><path d="M223.85715,155.98465c-0.90928,0.43722 -2.17427,0.73789 -1.44259,-0.99658c0.23348,-0.55347 1.53148,-0.91464 2.3731,-0.92136c2.01493,-1.63101 2.03095,1.65876 -0.48666,2.06312c0,0 -0.27449,0.03921 -0.44385,-0.14517z" fill="#8d0000" stroke-width="0.5"/><path d="M252.75119,160.91136c0,-0.27614 0.22386,-0.5 0.5,-0.5c0.27614,0 0.5,0.22386 0.5,0.5c0,0.27614 -0.22386,0.5 -0.5,0.5c-0.27614,0 -0.5,-0.22386 -0.5,-0.5z" fill="#8d0000" stroke-width="0.5"/></g></g></svg>