<svg version="1.1" xmlns="http://www.w3.org/2000/svg" xmlns:xlink="http://www.w3.org/1999/xlink" width="27.47456" height="68.8759" viewBox="0,0,27.47456,68.8759"><g transform="translate(-226.26272,-146.06205)"><g data-paper-data="{&quot;isPaintingLayer&quot;:true}" fill-rule="nonzero" stroke-linecap="butt" stroke-linejoin="miter" stroke-miterlimit="10" stroke-dasharray="" stroke-dashoffset="0" style="mix-blend-mode: normal"><path d="M239.78073,173.45015c3.73802,0 10.18292,-1.18757 10.18292,8.78049c0,9.96806 -5.83515,31.70731 -9.57317,31.70731c-3.73802,0 -10.18292,-22.71487 -10.18292,-32.68293c0,-9.96806 5.83515,-7.80487 9.57317,-7.80487z" data-paper-data="{&quot;index&quot;:null}" fill="#8b0000" stroke="#8b0000" stroke-width="2"/><path d="M233.16964,177.39778c-0.37155,-0.06066 -0.67386,-0.25331 -0.93792,-0.50466c-0.13485,0.19905 -0.36283,0.32986 -0.62136,0.32986c-0.35693,0 -0.65562,-0.24933 -0.73141,-0.58332l-0.18607,-0.74427l-0.22485,-0.29074c0,0 -0.38318,-0.61306 0.20481,-1.01157c-0.47028,-2.51881 -1.41872,-7.42544 1.6591,-6.47468c0.91682,0.28322 1.33884,1.56935 1.74293,2.82188c0.22539,-0.45262 0.43456,-0.92924 0.63295,-1.44539c0.93494,-2.42709 1.49583,-5.26874 1.59623,-7.8632c0.04969,-1.28415 -0.36786,-3.06029 0.35322,-4.20498c1.85645,-2.94703 3.80436,0.55258 3.80436,2.464c0,2.987 -0.53363,8.25613 1.05421,11.47275c0.77283,-2.79504 0.04648,-5.64339 0.82668,-8.50565c0.68052,-2.49656 2.56304,-2.5896 3.75299,-0.41833c0.51693,1.56373 0.31702,3.20078 0.73431,4.79384c0.83648,3.19332 2.01062,6.11919 3.37471,9.11919c0,0 0.31035,0.68278 -0.37242,0.99313c-0.68277,0.31035 -0.99312,-0.37242 -0.99312,-0.37242c-0.15112,-0.33259 -0.30021,-0.66442 -0.44698,-0.99593c-1.50097,1.5583 -4.38713,3.4911 -6.14126,1.09948c-0.11707,-0.15961 -0.24629,-0.40606 -0.37828,-0.69791c-0.82195,2.68489 -3.36101,4.45639 -6.62508,2.06538c-0.36828,-0.26978 -0.60731,-0.67613 -0.77983,-1.14409c-0.31321,0.14417 -0.73701,0.18923 -1.29791,0.09764zM233.6761,174.40179c-0.18893,0.25336 -0.38664,0.50837 -0.594,0.76757l-0.16156,0.24616c0.29679,0.34991 0.6044,0.63828 0.73227,0.50343c0.50342,-0.53087 -0.05797,-1.07906 0.02329,-1.51716z" data-paper-data="{&quot;index&quot;:null}" fill="#8b0000" stroke="none" stroke-width="0.5"/><path d="M250.13766,178.06487c0.03761,-0.05617 0.08529,-0.10979 0.1457,-0.15549c0.12079,-0.78455 0.3223,-1.53444 0.86275,-2.16173c2.66411,-3.09217 2.74678,2.74765 2.50013,4.22753c-0.01856,4.78283 -4.17825,9.24037 -4.17466,13.98877c0,0 0,0.75 -0.75,0.75c-0.75,0 -0.75,-0.75 -0.75,-0.75c0.00127,-1.80844 0.59237,-3.57036 1.32962,-5.31947c-4.02587,-2.06558 -3.17408,-8.99336 0.83646,-10.57962zM249.2354,181.44292c-0.09648,0.15884 -0.19012,0.32004 -0.27966,0.48284c0.57643,-0.55953 0.85468,-1.21498 1.01564,-1.90472c-0.27757,0.40842 -0.44353,0.9404 -0.73597,1.42187z" data-paper-data="{&quot;index&quot;:null}" fill="#8b0000" stroke="none" stroke-width="0.5"/><path d="M239.06182,198.18428c0.9085,3.0618 -0.19048,6.71297 -3.5758,6.68722c0.0968,0.20799 0.16033,0.54395 -0.19022,0.85555c-0.56055,0.49827 -1.05883,-0.06229 -1.05883,-0.06229c-3.59558,-4.04507 -5.69263,-8.14963 -7.26526,-13.33506c-0.08365,-1.10345 -0.07608,-2.19645 -0.07608,-3.30245v-0.82278c0,-0.41422 0.33579,-0.75 0.75,-0.75c0.2243,0 0.42561,0.09846 0.56305,0.25453l0.50384,0.56681l-0.18246,0.16218c0.63065,0.64981 1.15045,1.38495 1.81697,1.96016c0.41513,-0.55326 1.00577,-0.1595 1.00577,-0.1595c3.47036,2.31429 6.44542,3.68709 7.70902,7.94562z" data-paper-data="{&quot;index&quot;:null}" fill="#8b0000" stroke="none" stroke-width="0.5"/><path d="M244.36399,152.00192c0,0 0,-0.75 0.75,-0.75c0.75,0 0.75,0.75 0.75,0.75c0,0.94247 0.42262,3.32373 -0.02991,4.13375c-1.91606,3.42976 -2.40067,-1.27594 -2.29028,-2.61375l-0.00259,-0.25417c0,0 0,-0.75 0.75,-0.75c0.02711,0 0.05324,0.00098 0.07842,0.00287c-0.00372,-0.1798 -0.00564,-0.3542 -0.00564,-0.5187z" data-paper-data="{&quot;index&quot;:null}" fill="#8b0000" stroke="none" stroke-width="0.5"/><path d="M239.28171,146.81205v0.06329c-0.00263,0.84661 0.47954,2.11333 0.165,2.73765c0.08817,0.18362 0.08817,0.36361 0.08817,0.36361v0.7595c0,0.41421 -0.33578,0.75 -0.75,0.75c-0.41422,0 -0.75,-0.33579 -0.75,-0.75v-0.7595c0,0 0,-0.13609 0.05797,-0.29232c-0.22978,-0.88229 -0.30838,-1.77704 -0.31114,-2.80894v-0.06329c0,0 0,-0.75 0.75,-0.75c0.75,0 0.75,0.75 0.75,0.75z" data-paper-data="{&quot;index&quot;:null}" fill="#8b0000" stroke="none" stroke-width="0.5"/><path d="M230.12348,161.55889c0,-0.50633 0,-1.01266 0,-1.51899c0,0 0,-0.75 0.75,-0.75c0.75,0 0.75,0.75 0.75,0.75c0,0.50633 0,1.01266 0,1.51899l-0.75,-0.09494z" data-paper-data="{&quot;index&quot;:null}" fill="#8b0000" stroke="none" stroke-width="0.5"/><path d="M252.25639,163.83737v0.06329c0,2.67608 -0.37974,5.26418 -0.37974,7.91139c0,0 0,0.75 -0.75,0.75c-0.75,0 -0.75,-0.75 -0.75,-0.75c0,-2.65143 0.37974,-5.23357 0.37974,-7.91139v-0.06329c0,0 0,-0.75 0.75,-0.75c0.75,0 0.75,0.75 0.75,0.75z" data-paper-data="{&quot;index&quot;:null}" fill="#8b0000" stroke="none" stroke-width="0.5"/><path d="M227.1393,184.96711c-0.41422,0 -0.75,-0.33578 -0.75,-0.75c0,-0.41422 0.33578,-0.75 0.75,-0.75c0.41422,0 0.75,0.33578 0.75,0.75c0,0.41422 -0.33578,0.75 -0.75,0.75z" data-paper-data="{&quot;index&quot;:null}" fill="#8b0000" stroke="none" stroke-width="0.5"/><path d="M227.76272,178.96395v0.75949c0,0.29536 0,0.59072 0,0.88608c0,0 0,0.75 -0.75,0.75c-0.75,0 -0.75,-0.75 -0.75,-0.75c0,-0.29536 0,-1.35021 0,-1.64557c0,0 0,-0.75 0.75,-0.75c0.75,0 0.75,0.75 0.75,0.75z" data-paper-data="{&quot;index&quot;:null}" fill="#8b0000" stroke="none" stroke-width="0.5"/><path d="M233.15196,160.15701c-0.75,0 -0.75,-0.75 -0.75,-0.75l0.0102,-0.00329c-0.48999,-2.93997 -0.39194,-5.84379 -0.64052,-8.79519c0,0 -0.06229,-0.74741 0.68512,-0.8097c0.74741,-0.06229 0.80969,0.68512 0.80969,0.68512c0.24019,2.91095 0.14232,5.77527 0.6253,8.67316l0.01021,0.24988c0,0 0,0.75 -0.75,0.75z" data-paper-data="{&quot;index&quot;:null}" fill="#8b0000" stroke="none" stroke-width="0.5"/><path d="M232.23062,183.66277c0,-9.53947 4.5944,-9.71954 7.89974,-9.71954c3.30534,0 7.68697,-0.56462 7.68697,8.97485c0,9.53947 -4.06249,28.23018 -7.36783,28.23018c-3.30534,0 -8.21889,-17.94602 -8.21889,-27.48549z" data-paper-data="{&quot;index&quot;:null}" fill="#4c0000" stroke="none" stroke-width="0"/></g></g></svg>