<svg version="1.1" xmlns="http://www.w3.org/2000/svg" xmlns:xlink="http://www.w3.org/1999/xlink" width="40.1056" height="43.16509" viewBox="0,0,40.1056,43.16509"><g transform="translate(-217.5019,-157.75055)"><g data-paper-data="{&quot;isPaintingLayer&quot;:true}" fill-rule="nonzero" stroke="none" stroke-linecap="butt" stroke-linejoin="miter" stroke-miterlimit="10" stroke-dasharray="" stroke-dashoffset="0" style="mix-blend-mode: normal"><path d="M254.48054,186.36159c0,4.69637 -1.77193,7.80153 -4.1581,10.36959c-2.02239,2.17654 -4.37742,4.18445 -7.60078,4.18445c-2.97857,0 -4.71959,-2.86931 -6.84758,-3.94885c-2.89202,-1.46714 -5.68238,-1.75114 -5.68238,-6.7498c0,-4.08303 -3.02226,-10.83979 -0.9997,-14.80863c2.27554,-4.46528 9.80958,-5.91399 13.52966,-5.91399c4.05657,0 10.81831,1.38049 12.87641,5.35777c1.50684,2.91196 -1.11752,7.84197 -1.11752,11.50949z" fill="#8b0000" stroke-width="0"/><path d="M235.85774,181.87136c-1.81041,-7.58293 0.14576,-7.61337 4.02776,-7.61337c3.88199,0 0.51669,-0.22558 8.66598,7.46293c4.70707,4.44092 -0.90566,13.33398 -3.62433,13.01147c-1.7643,-0.20929 -2.05281,-3.47949 -3.58059,-3.47949c-3.88199,0 -8.56653,5.08095 -8.56653,-6.1228z" data-paper-data="{&quot;index&quot;:null}" fill="#4c0000" stroke-width="0"/><path d="M233.4527,163.76401c1.25,0 1.25,1.25 1.25,1.25l-0.46913,1.64299c-1.59544,1.24571 -3.57618,2.22154 -5.49851,2.87738c0,0 -1.18585,0.39528 -1.58114,-0.79057c-0.39528,-1.18585 0.79057,-1.58114 0.79057,-1.58114c1.60658,-0.51965 3.43209,-1.38694 4.72734,-2.45784l-0.46913,0.30918c0,0 0,-1.25 1.25,-1.25z" fill="#8b0000" stroke-width="0.5"/><path d="M235.97888,157.7992c1.21268,0.30317 0.90951,1.51585 0.90951,1.51585l-0.24912,0.98132c-0.2223,0.6669 -0.4446,1.33381 -0.6669,2.00071c0,0 -0.39528,1.18585 -1.58114,0.79057c-1.18585,-0.39528 -0.79057,-1.58114 -0.79057,-1.58114c0.2223,-0.6669 0.4446,-1.33381 0.6669,-2.00071l0.19548,-0.79709c0,0 0.30317,-1.21268 1.51585,-0.90951z" fill="#8b0000" stroke-width="0.5"/><path d="M249.48484,164.27566c-1.04006,0.69338 -1.73344,-0.34669 -1.73344,-0.34669l-0.8892,-1.33381c0,0 -0.69338,-1.04006 0.34669,-1.73344c1.04006,-0.69338 1.73344,0.34669 1.73344,0.34669l0.8892,1.33381c0,0 0.69338,1.04006 -0.34669,1.73344z" fill="#8b0000" stroke-width="0.5"/><path d="M253.95371,181.76093c-1.18585,-0.39528 -0.79057,-1.58114 -0.79057,-1.58114l0.2223,-0.6669c0.63701,-1.89254 0.94224,-3.68194 1.84623,-5.49896c0,0 0.55902,-1.11803 1.67705,-0.55902c1.11803,0.55902 0.55902,1.67705 0.55902,1.67705c-0.85541,1.70127 -1.11906,3.38172 -1.71059,5.17149l-0.2223,0.6669c0,0 -0.39528,1.18585 -1.58114,0.79057z" fill="#8b0000" stroke-width="0.5"/><path d="M256.1274,189.16101c-1.25,0 -1.25,-1.25 -1.25,-1.25l0.01701,-0.68371c-0.0741,-0.4446 -0.1482,-0.8892 -0.2223,-1.33381c0,0 -0.2055,-1.23299 1.02749,-1.43849c1.23299,-0.2055 1.43849,1.02749 1.43849,1.02749c0.0741,0.4446 0.1482,0.8892 0.2223,1.33381l0.01701,1.0947c0,0 0,1.25 -1.25,1.25z" fill="#8b0000" stroke-width="0.5"/><path d="M255.34608,193.47506c-1.11803,-0.55902 -0.55902,-1.67705 -0.55902,-1.67705l0.09033,0.11442c0,-0.4446 0,-0.8892 0,-1.33381c0,0 0,-1.25 1.25,-1.25c1.25,0 1.25,1.25 1.25,1.25c0,0.4446 0,0.8892 0,1.33381l-0.35427,1.00362c0,0 -0.55902,1.11803 -1.67705,0.55902z" fill="#8b0000" stroke-width="0.5"/><path d="M217.78083,188.49481c0.75,-1 1.75,-0.25 1.75,-0.25l0.86575,0.64974c0.91154,0.65401 1.80687,1.34318 2.60265,2.13399c0,0 0.88388,0.88388 0,1.76777c-0.88388,0.88388 -1.76777,0 -1.76777,0c-0.69353,-0.69867 -1.48556,-1.29712 -2.28798,-1.86743l-0.91266,-0.68407c0,0 -1,-0.75 -0.25,-1.75z" fill="#8b0000" stroke-width="0.5"/></g></g></svg>