<svg version="1.1" xmlns="http://www.w3.org/2000/svg" xmlns:xlink="http://www.w3.org/1999/xlink" width="14.36369" height="16.37026" viewBox="0,0,14.36369,16.37026"><g transform="translate(-232.81816,-171.81487)"><g data-paper-data="{&quot;isPaintingLayer&quot;:true}" fill-rule="nonzero" stroke="none" stroke-width="0" stroke-linecap="butt" stroke-linejoin="miter" stroke-miterlimit="10" stroke-dasharray="" stroke-dashoffset="0" style="mix-blend-mode: normal"><path d="M246.35649,180.60258c0,2.44678 -0.92316,4.06455 -2.16634,5.40249c-1.05365,1.13396 -2.28061,2.18007 -3.95996,2.18007c-1.55181,0 -2.45887,-1.49489 -3.56754,-2.05732c-1.50673,-0.76437 -2.96048,-0.91233 -2.96048,-3.5166c0,-2.12723 -1.57458,-5.64746 -0.52084,-7.71519c1.18554,-2.32638 5.11073,-3.08115 7.04886,-3.08115c2.11345,0 5.63627,0.71923 6.70853,2.79136c0.78505,1.51711 -0.58222,4.08561 -0.58222,5.99637z" fill="#8b0000"/><path d="M237.19737,178.20725c-0.53501,-2.24088 0.04307,-2.24988 1.19027,-2.24988c1.14719,0 0.15269,-0.06666 2.56094,2.20542c1.39102,1.31237 -0.26764,3.94041 -1.07105,3.84511c-0.52138,-0.06185 -0.60664,-1.02825 -1.05812,-1.02825c-1.14719,0 -2.53155,1.5015 -2.53155,-1.80939z" data-paper-data="{&quot;index&quot;:null}" fill="#4c0000"/></g></g></svg>