<svg version="1.1" xmlns="http://www.w3.org/2000/svg" xmlns:xlink="http://www.w3.org/1999/xlink" width="238.99999" height="146.60515" viewBox="0,0,238.99999,146.60515"><g transform="translate(-120.5,-71.89486)"><g data-paper-data="{&quot;isPaintingLayer&quot;:true}" fill-rule="nonzero" stroke-linejoin="miter" stroke-miterlimit="10" stroke-dasharray="" stroke-dashoffset="0" style="mix-blend-mode: normal"><path d="" fill="#b35959" stroke="#000000" stroke-width="2" stroke-linecap="butt"/><g><path d="M121.5,217.5v-70.44799c0.27716,-0.30729 0.52264,-0.63265 0.76412,-0.9599c1.21337,-1.09724 2.58793,-1.95791 3.60817,-3.29004c0.12079,-0.09567 0.23789,-0.19549 0.35064,-0.30207h232.27706v68.29807c-0.1956,0.13751 -0.35945,0.33148 -0.4992,0.56438c-2.09358,1.61097 -4.12347,3.19102 -6.3686,4.61013c-0.68075,0.43029 -1.41867,0.84387 -1.81985,1.52743z" fill="#b35959" stroke="#000000" stroke-width="2" stroke-linecap="butt"/><path d="M121.5,217.5v-70.44799c0.16139,-0.17894 0.31205,-0.36401 0.45742,-0.55201h228.54258v70.23326c-0.27174,0.21986 -0.51198,0.46742 -0.68765,0.76674z" fill="#ff6666" stroke="#000000" stroke-width="2" stroke-linecap="butt"/><path d="M350.02326,146.75672l8.02326,-3.83721" fill="none" stroke="#000000" stroke-width="2" stroke-linecap="round"/><path d="M128.08103,142.82148l-6.18182,3.75325" fill="none" stroke="#000000" stroke-width="2" stroke-linecap="round"/><text transform="translate(132.98049,189.67994) scale(0.96587,1.03088)" font-size="40" xml:space="preserve" fill="#ff0000" fill-rule="nonzero" stroke="#ffffff" stroke-width="0.25" stroke-linecap="butt" stroke-linejoin="miter" stroke-miterlimit="10" stroke-dasharray="" stroke-dashoffset="0" font-family="Pixel" font-weight="normal" text-anchor="start" style="mix-blend-mode: normal"><tspan x="0" dy="0">Next level</tspan></text><g stroke="#000000" stroke-width="2"><path d="M264.5,145.5l30,-68.5l26.5,68.5z" fill="#fff700" stroke-linecap="butt"/><path d="M294,76.5l37,64l-9.5,5.5" fill="none" stroke-linecap="round"/></g><path d="M295.44361,79.10889l34.57143,60.85714l-8,5.28572z" fill="#fff700" stroke="none" stroke-width="0" stroke-linecap="butt"/><path d="M271.82876,131.18199l2.50158,-5.5681l35.56478,-5.83745l2.15359,5.39568z" fill="#ff0000" stroke="none" stroke-width="0" stroke-linecap="butt"/><path d="M313.863,124.84909l-1.86874,-4.94438l5.34936,-1.554l2.73081,3.9099z" fill="#ff0000" stroke="none" stroke-width="0" stroke-linecap="butt"/><path d="M282.00117,108.07854l2.50158,-5.5681l16.77168,-3.59607l2.49842,5.5681z" fill="#ff0000" stroke="none" stroke-width="0" stroke-linecap="butt"/><path d="M305.24231,104.67668l-1.86874,-4.94438l3.45281,-0.69192l2.04116,3.9099z" fill="#ff0000" stroke="none" stroke-width="0" stroke-linecap="butt"/><path d="M299.20087,75.16569c0,1.66836 -2.14531,3.02084 -4.79167,3.02084c-2.64637,0 -4.79167,-1.35247 -4.79167,-3.02084c0,-1.66836 2.1453,-3.02083 4.79167,-3.02083c2.64637,0 4.79167,1.35247 4.79167,3.02083z" fill="#ff0000" stroke="#000000" stroke-width="0.5" stroke-linecap="butt"/><path d="M243.03931,74.73484c0,-0.41421 0.33579,-0.75 0.75,-0.75c0.41421,0 0.75,0.33579 0.75,0.75c0,0.41421 -0.33579,0.75 -0.75,0.75c-0.41421,0 -0.75,-0.33579 -0.75,-0.75z" fill="#ffffff" stroke="none" stroke-width="0.5" stroke-linecap="butt"/><path d="M293.59583,73.04945c0,-0.27614 0.22386,-0.5 0.5,-0.5c0.27614,0 0.5,0.22386 0.5,0.5c0,0.27614 -0.22386,0.5 -0.5,0.5c-0.27614,0 -0.5,-0.22386 -0.5,-0.5z" fill="#ffffff" stroke="none" stroke-width="0.5" stroke-linecap="butt"/><path d="M298.08436,74.49798c-0.40687,0.29062 -0.69749,-0.11625 -0.69749,-0.11625l-0.2071,-0.30165c-0.42362,-0.4417 -0.54653,-0.49006 -1.15686,-0.47855c0,0 -0.5,0 -0.5,-0.5c0,-0.5 0.5,-0.5 0.5,-0.5c0.86181,0.01165 1.2453,0.17083 1.86397,0.77145l0.31373,0.42752c0,0 0.29062,0.40687 -0.11625,0.69749z" fill="#ffffff" stroke="none" stroke-width="0.5" stroke-linecap="butt"/><path d="M297.59068,76.31885c-0.45691,-0.20307 -0.25384,-0.65998 -0.25384,-0.65998l0.20833,-0.46875c0,0 0.20307,-0.45691 0.65998,-0.25384c0.45691,0.20307 0.25384,0.65998 0.25384,0.65998l-0.20833,0.46875c0,0 -0.20307,0.45691 -0.65998,0.25384z" fill="#ffffff" stroke="none" stroke-width="0.5" stroke-linecap="butt"/><text transform="translate(124.44207,211.61227) scale(0.43847,0.5)" font-size="40" xml:space="preserve" fill="#000000" fill-rule="nonzero" stroke="none" stroke-width="1" stroke-linecap="butt" stroke-linejoin="miter" stroke-miterlimit="10" stroke-dasharray="" stroke-dashoffset="0" font-family="Pixel" font-weight="normal" text-anchor="start" style="mix-blend-mode: normal"><tspan x="0" dy="0">Sorry, not available yet.</tspan></text></g></g></g></svg>