<svg version="1.1" xmlns="http://www.w3.org/2000/svg" xmlns:xlink="http://www.w3.org/1999/xlink" width="100.03433" height="45.73861" viewBox="0,0,100.03433,45.73861"><defs><radialGradient cx="241.19022" cy="165.65109" r="65.66667" gradientUnits="userSpaceOnUse" id="color-1"><stop offset="0" stop-color="#29ffff"/><stop offset="1" stop-color="#29ffff" stop-opacity="0"/></radialGradient><linearGradient x1="239.02355" y1="157.98442" x2="239.02355" y2="202.01558" gradientUnits="userSpaceOnUse" id="color-2"><stop offset="0" stop-color="#23b1c9"/><stop offset="1" stop-color="#2d9bd5"/></linearGradient><linearGradient x1="268.37162" y1="158.54906" x2="268.37162" y2="201.97551" gradientUnits="userSpaceOnUse" id="color-3"><stop offset="0" stop-color="#23b1c9"/><stop offset="1" stop-color="#2d9bd5"/></linearGradient><linearGradient x1="270.71342" y1="159.23212" x2="270.71342" y2="200.70597" gradientUnits="userSpaceOnUse" id="color-4"><stop offset="0" stop-color="#23b1c9"/><stop offset="1" stop-color="#2d9bd5"/></linearGradient><linearGradient x1="272.85845" y1="160.67452" x2="272.85845" y2="201.17208" gradientUnits="userSpaceOnUse" id="color-5"><stop offset="0" stop-color="#23b1c9"/><stop offset="1" stop-color="#2d9bd5"/></linearGradient><linearGradient x1="211.49525" y1="158.76427" x2="211.49525" y2="200.68382" gradientUnits="userSpaceOnUse" id="color-6"><stop offset="0" stop-color="#23b1c9"/><stop offset="1" stop-color="#2d9bd5"/></linearGradient><linearGradient x1="208.45802" y1="159.24216" x2="208.45802" y2="200.60754" gradientUnits="userSpaceOnUse" id="color-7"><stop offset="0" stop-color="#23b1c9"/><stop offset="1" stop-color="#2d9bd5"/></linearGradient><linearGradient x1="206.31299" y1="160.57608" x2="206.31299" y2="201.07364" gradientUnits="userSpaceOnUse" id="color-8"><stop offset="0" stop-color="#23b1c9"/><stop offset="1" stop-color="#2d9bd5"/></linearGradient><linearGradient x1="239.9275" y1="172.29478" x2="239.9275" y2="172.83286" gradientUnits="userSpaceOnUse" id="color-9"><stop offset="0" stop-color="#23b1c9"/><stop offset="1" stop-color="#2d9bd5"/></linearGradient><linearGradient x1="239.90992" y1="158.03011" x2="239.90992" y2="159.27892" gradientUnits="userSpaceOnUse" id="color-10"><stop offset="0" stop-color="#23b1c9"/><stop offset="1" stop-color="#2d9bd5"/></linearGradient><linearGradient x1="243.60915" y1="165.23119" x2="243.60915" y2="189.22941" gradientUnits="userSpaceOnUse" id="color-11"><stop offset="0" stop-color="#23b1c9"/><stop offset="1" stop-color="#2d9bd5"/></linearGradient></defs><g transform="translate(-190.09488,-157.50036)"><g data-paper-data="{&quot;isPaintingLayer&quot;:true}" fill-rule="nonzero" stroke-width="0.5" stroke-linejoin="miter" stroke-miterlimit="10" stroke-dasharray="" stroke-dashoffset="0" style="mix-blend-mode: normal"><g><g><path d="M286.85689,197.81776c0,9.48089 -7.4245,-25.5 -47.83333,-25.5c-40.40883,0 -47.83333,37.64756 -47.83333,28.16667c0,-9.48089 8.4245,-42.5 48.83333,-42.5c40.40883,0 46.83333,30.35245 46.83333,39.83334z" fill="url(#color-1)" stroke="url(#color-2)" stroke-linecap="butt"/><path d="M247.25351,172.77552l-0.08828,-14.22646l11.19149,2.62304l31.22129,40.80342c0,0 -11.63428,-14.5621 -18.73521,-19.46108c-3.04332,-2.09961 -7.6769,-5.29758 -12.1903,-7.01637c-5.8768,-2.238 -11.39899,-2.72254 -11.39899,-2.72254z" fill="none" stroke="url(#color-3)" stroke-linecap="butt"/><path d="M253.02244,172.69924l0.67106,-13.46712l12.71018,4.46715c0,0 9.61618,6.50939 12.37527,11.15036c4.05964,6.82859 9.62543,25.85634 9.62543,25.85634c0,0 -10.39599,-12.86604 -16.60904,-17.78401c-5.49167,-4.34696 -18.7729,-10.22272 -18.7729,-10.22272z" fill="none" stroke="url(#color-4)" stroke-linecap="butt"/><path d="M260.63548,173.05686l-3.66803,-12.38234c0,0 6.18302,1.36417 7.72256,2.81947c1.73389,1.63902 5.74697,3.16636 5.74697,3.16636l18.31248,34.51172c0,0 -7.63522,-9.26276 -12.20622,-13.83397c-4.79005,-4.79027 -15.90774,-14.28124 -15.90774,-14.28124z" fill="none" stroke="url(#color-5)" stroke-linecap="butt"/><path d="M190.89515,200.68382l29.91956,-39.61016l11.28064,-2.30938l-0.17742,13.91281c0,0 -3.09997,-0.00911 -7.05123,1.33865c-5.2421,1.78806 -12.06504,5.30473 -15.94144,7.9512c-6.87513,4.69374 -18.0301,18.71688 -18.0301,18.71688z" data-paper-data="{&quot;index&quot;:null}" fill="none" stroke="url(#color-6)" stroke-linecap="butt"/><path d="M207.37609,182.82353c-6.21305,4.91797 -16.60905,17.78401 -16.60905,17.78401c0,0 6.10818,-18.37689 10.16782,-25.20548c2.75909,-4.64097 12.04984,-11.15036 12.04984,-11.15036l13.14409,-5.00955l0.0202,13.35864c0,0 -13.28123,5.87577 -18.7729,10.22272z" data-paper-data="{&quot;index&quot;:null}" fill="none" stroke="url(#color-7)" stroke-linecap="butt"/><path d="M202.62821,187.23967c-4.57101,4.57121 -12.20622,13.83398 -12.20622,13.83398l18.63791,-33.53543c0,0 3.68764,-2.50364 5.42153,-4.14265c1.53954,-1.4553 7.72256,-2.81948 7.72256,-2.81948l-3.66803,12.38234c0,0 -11.11769,9.49097 -15.90774,14.28124z" data-paper-data="{&quot;index&quot;:null}" fill="none" stroke="url(#color-8)" stroke-linecap="butt"/><path d="M232.15438,172.83286c0,0 4.54869,-0.53694 6.99794,-0.53808c2.707,-0.00125 8.54829,0.53087 8.54829,0.53087" fill="none" stroke="url(#color-9)" stroke-linecap="round"/><path d="M226.13804,159.10064c0,0 9.23375,-1.09961 13.81703,-1.06995c4.59794,0.02976 13.72673,1.24823 13.72673,1.24823" fill="none" stroke="url(#color-10)" stroke-linecap="round"/><path d="M208.31036,182.18748c0,0 11.25838,-10.002 15.53276,-13.15588c3.32734,-2.45511 12.98616,-3.75815 15.57487,-3.79839c2.67373,-0.04156 9.9107,0.5434 13.35786,3.18407c1.71636,1.3148 6.46293,3.66855 12.65849,8.75636c7.09229,5.8242 13.47362,12.05578 13.47362,12.05578" fill="none" stroke="url(#color-11)" stroke-linecap="round"/></g><path d="M234.24165,164.75802c0,0 -0.375,0 -0.375,-0.375c0,-0.375 0.375,-0.375 0.375,-0.375c2.51764,0.00135 4.51742,-1.00279 6.90408,-1.53847l0.21257,-0.00486c0.0592,-0.0172 0.11406,-0.01548 0.16268,-0.00372l0.01558,-0.00036c0,0 0.36069,0 0.37459,0.35375c0.24616,0.29635 0.37186,0.58501 0.51664,0.90357c0.60197,-0.22872 1.24583,-0.41919 1.84658,-0.63646c0.09461,0.04405 -1.37515,-0.91865 -1.79801,-1.29625c-1.35951,-1.21401 -3.04202,-2.28063 -4.2309,-3.65726c0,0 -0.24405,-0.28472 0.04067,-0.52876c0.28472,-0.24404 0.52877,0.04067 0.52877,0.04067c0.88243,1.03876 4.81746,3.54128 5.75915,5.12857c0.24725,-0.2851 0.48432,-0.56012 0.83123,-0.78136l0.02201,-0.03559c0,0 0.26516,-0.26516 0.53033,0c0.26516,0.26516 0,0.53033 0,0.53033l-0.15484,0.14126c-0.0094,0.00572 -0.01871,0.0115 -0.02793,0.01735c0.49965,0.39679 0.60088,0.68375 1.11736,0.40721c0.03811,-0.10621 0.12932,-0.23333 0.34766,-0.23333c0.375,0 0.375,0.375 0.375,0.375l-0.17625,0.40642c-1.0188,0.62667 -1.36274,0.20561 -2.19222,-0.4159c0,0 -0.01299,-0.00975 -0.03154,-0.02788c-0.16038,0.18659 -0.31225,0.38403 -0.49515,0.5678c0,0 -0.14942,0.14942 -0.33609,0.11177c-0.59223,0.20867 -1.25293,0.38693 -1.84852,0.62058c-0.03046,0.03267 -0.07073,0.06315 -0.12342,0.0895c-0.07491,0.03745 -0.14146,0.04982 -0.19964,0.04642c-0.84742,0.38428 -1.49417,0.9278 -1.49417,1.91717v0.08843c0,0 0,0.375 -0.375,0.375c-0.375,0 -0.375,-0.375 -0.375,-0.375v-0.08843c0,-1.30627 0.76369,-2.00741 1.77696,-2.49695c-0.10697,-0.25215 -0.21041,-0.49035 -0.40454,-0.70751l-0.0722,-0.09012c-2.42887,0.53979 -4.45776,1.54611 -7.02642,1.54742z" fill="#165e76" stroke="none" stroke-linecap="butt"/><path d="M253.47379,171.23571c-0.26516,-0.26516 0,-0.53033 0,-0.53033l0.04421,-0.04421c0.47903,-0.47602 1.04525,-0.85294 1.60064,-1.24089c-1.32567,-0.49249 -2.67896,-0.92495 -3.9372,-1.56403l-0.13929,-0.11325c0,0 -0.26516,-0.26517 0,-0.53033c0.26516,-0.26516 0.53033,0 0.53033,0l-0.05087,-0.02483c1.38135,0.70446 2.88447,1.152 4.33434,1.71063c0.10577,-0.04471 0.28376,-0.07531 0.4338,0.1176c0.01939,0.02493 0.03505,0.0494 0.04747,0.07331c0.09902,0.04054 0.1977,0.08181 0.29597,0.12391c1.42893,0.58775 4.14103,1.37786 4.88308,2.90418c0.3677,0.75631 0.57616,3.31773 0.63012,4.61515c1.3193,-0.71606 2.73483,-1.89692 3.93068,-2.75134l0.16981,-0.12749c0,0 0.3,-0.225 0.525,0.075c0.225,0.3 -0.075,0.525 -0.075,0.525l-0.18388,0.13779c-1.35602,0.96833 -2.92071,2.24176 -4.38299,2.99244c0,0 -0.1287,0.06435 -0.26652,0.0336c-0.02402,0.00388 -0.04998,0.00599 -0.07803,0.00599c-0.375,0 -0.375,-0.375 -0.375,-0.375c0.00519,-0.814 -0.21296,-4.13743 -0.59373,-4.86069c-0.66663,-1.26625 -3.27072,-1.98818 -4.47389,-2.4831c-0.12856,-0.05508 -0.25777,-0.10876 -0.3875,-0.16129c-0.64586,0.46825 -1.3478,0.88461 -1.90701,1.44799l-0.04421,0.04421c0,0 -0.26516,0.26516 -0.53033,0z" fill="#165e76" stroke="none" stroke-linecap="butt"/><path d="M206.83281,173.77416c0.33541,0.16771 0.16771,0.50311 0.16771,0.50311l-0.05777,0.09049c-0.1451,0.6524 -0.26339,1.32672 -0.33326,1.98955c0.03403,-0.004 0.06825,-0.00798 0.10263,-0.01197l0.1273,-0.03531c0,0 0.36381,-0.09096 0.45476,0.27285c0.09095,0.36381 -0.27285,0.45476 -0.27285,0.45476l-0.22638,0.05311c-2.52809,0.26611 -3.90462,0.46435 -5.24394,2.77842c0,0 -0.05141,0.08813 -0.14656,0.14563c-0.23339,1.18752 -1.08596,2.29744 -2.06161,3.82922c-0.1867,0.37439 -0.38871,0.73433 -0.5584,1.11704l-0.16593,0.20128c0,0 -0.26516,0.26516 -0.53033,0c-0.26516,-0.26516 0,-0.53033 0,-0.53033l0.01091,0.02444c0.18026,-0.40469 0.39273,-0.78619 0.5911,-1.18196c1.68547,-2.65073 3.11247,-3.71113 0.95149,-6.66852c0,0 -0.22057,-0.30328 0.08271,-0.52384c0.30328,-0.22056 0.52384,0.08271 0.52384,0.08271c0.65866,0.90951 1.01871,1.67284 1.15485,2.36518c1.17744,-1.58954 2.50522,-2.00843 4.44584,-2.27678c-0.00051,-0.0234 0.00093,-0.03778 0.00093,-0.03778c0.07631,-0.7364 0.19936,-1.48352 0.36076,-2.2104l0.11908,-0.2632c0,0 0.16771,-0.33541 0.50312,-0.1677z" fill="#165e76" stroke="none" stroke-linecap="butt"/><path d="M223.15545,163.67571c0.17678,0.17678 0,0.35355 0,0.35355l-0.11419,0.11203c-0.11187,0.13984 -0.22374,0.27967 -0.33561,0.41951c0.01077,0.00834 0.02137,0.01665 0.03179,0.02491l-0.27168,0.28556l-0.04067,0.10487c-0.01111,-0.00898 -0.02227,-0.01796 -0.03349,-0.02692l-0.01056,0.0111c0,0 -0.0725,-0.03625 -0.1143,-0.10875c-0.28661,-0.21984 -0.60265,-0.43528 -0.91689,-0.66057c-3.11904,0.02381 -0.1158,4.02316 -2.92448,4.02316c-0.1179,0 -0.2358,0 -0.35369,0h-0.04421c0,0 -0.25,0 -0.25,-0.25c0,-0.25 0.25,-0.25 0.25,-0.25c0.1179,0 0.28001,0 0.3979,0c0.77827,0 0.87884,-0.63587 0.92768,-1.40203c-0.91323,-0.01459 -1.91419,-0.18172 -2.81992,-0.31106l-0.16487,-0.06809c0,0 -0.22361,-0.1118 -0.1118,-0.33541c0.1118,-0.22361 0.33541,-0.1118 0.33541,-0.1118l0.01198,0.02033c0.89019,0.12722 1.88508,0.30437 2.77919,0.30705c0.06182,-0.89818 0.22571,-1.82585 1.38201,-2.0639c-0.71056,-0.57733 -1.30011,-1.26062 -1.35175,-2.23998c0,0 0,-0.25 0.25,-0.25c0.25,0 0.25,0.25 0.25,0.25c-0.09957,0.88741 0.7072,1.60668 1.53385,2.18964c0.05015,0.01166 0.11985,0.04033 0.15952,0.1108c0.24067,0.16488 0.47819,0.31835 0.69059,0.46119c0.11786,-0.14732 0.23571,-0.29464 0.35357,-0.44196l0.15108,-0.15324c0,0 0.17678,-0.17678 0.35355,0z" fill="#165e76" stroke="none" stroke-linecap="butt"/><path d="M229.07994,166.10734c0.17678,-0.17678 0.35355,0 0.35355,0l-0.05351,-0.01618c1.0114,0.46646 -0.23871,2.03 -0.78408,2.57787c0.05566,0.06187 0.06788,0.14134 0.06788,0.14134c0.04704,0.30795 0.25988,0.98278 0.43133,1.67634c0.5042,-0.07382 1.51604,-0.13685 1.84039,-0.30205c0.15157,-0.0772 0.01652,-1.55166 0.01652,-1.73418l-0.03936,-0.17203c0,0 -0.04903,-0.24515 0.19612,-0.29417c0.24515,-0.04903 0.29417,0.19612 0.29417,0.19612l0.04907,0.27009c0,2.06723 -0.33335,2.17089 -2.24596,2.52194c0.12994,0.63093 0.18322,1.20832 -0.00329,1.45804c-0.25718,0.34433 -2.64867,0.64303 -3.21573,0.89532c-0.59125,0.19747 -1.82742,0.48533 -2.0196,1.17232l0.05926,-0.0851c0,0 0.13868,0.20801 -0.06934,0.34669c-0.20801,0.13868 -0.34669,-0.06934 -0.34669,-0.06934l-0.11758,-0.35037c0.32605,-0.89059 1.48957,-1.2064 2.31314,-1.48037c0.39752,-0.17647 2.91051,-0.61495 2.97389,-0.6963c0.25909,-0.33254 -0.53338,-2.77881 -0.61052,-3.27691c0,0 -0.02048,-0.13312 0.06633,-0.21897c-0.17011,-0.17542 0.00398,-0.34951 0.00398,-0.34951c0.23824,-0.23747 1.25087,-1.7573 0.98195,-1.75242l-0.14193,-0.10461c0,0 -0.17678,-0.17678 0,-0.35355z" fill="#165e76" stroke="none" stroke-linecap="butt"/><path d="M280.18638,187.94336c0.09285,-0.23212 0.32497,-0.13927 0.32497,-0.13927l0.24001,0.09694c0.38416,0.19397 0.78176,0.2479 1.1979,0.30433c-0.0802,-0.20184 -0.15525,-0.41004 -0.22216,-0.6257l-0.08174,-0.20219c0,0 -0.09285,-0.23212 0.13927,-0.32497c0.23212,-0.09285 0.32497,0.13927 0.32497,0.13927l0.09511,0.23993c0.8391,2.71306 2.79297,4.3222 0.74906,6.77734c0,0 -0.16005,0.19206 -0.3521,0.03201c-0.19206,-0.16005 -0.03201,-0.3521 -0.03201,-0.3521c1.58056,-1.89468 0.46386,-3.2632 -0.40107,-5.16989c-0.05703,0.01368 -0.10541,0.00677 -0.10541,0.00677c-0.54032,-0.07719 -1.04092,-0.13239 -1.53543,-0.37757l-0.2021,-0.07991c0,0 -0.23212,-0.09285 -0.13927,-0.32497z" fill="#165e76" stroke="none" stroke-linecap="butt"/></g></g></g></svg>