<svg version="1.1" xmlns="http://www.w3.org/2000/svg" xmlns:xlink="http://www.w3.org/1999/xlink" width="103" height="104.63249" viewBox="0,0,103,104.63249"><g transform="translate(-178.5,-132)"><g data-paper-data="{&quot;isPaintingLayer&quot;:true}" fill-rule="nonzero" stroke-linecap="butt" stroke-linejoin="miter" stroke-miterlimit="10" stroke-dasharray="" stroke-dashoffset="0" style="mix-blend-mode: normal"><path d="M229.5,158.5c0,14.08326 -11.19288,25.5 -25,25.5c-13.80712,0 -25,-11.41674 -25,-25.5c0,-14.08326 11.19288,-25.5 25,-25.5c13.80712,0 25,11.41674 25,25.5z" fill="#ff0000" stroke="#000000" stroke-width="2"/><path d="M280.5,159.5c0,14.08326 -11.19288,25.5 -25,25.5c-13.80712,0 -25,-11.41674 -25,-25.5c0,-14.08326 11.19288,-25.5 25,-25.5c13.80712,0 25,11.41674 25,25.5z" fill="#ff0000" stroke="#000000" stroke-width="2"/><path d="M182.5,166c0,-9.87924 27,0 27,0h45c0,0 25,-11.73666 25,-2c0,6.74516 -27.19523,46.29844 -41.868,67.14792c-0.60031,0.33417 -1.16263,0.72838 -1.67883,1.17451c-1.47519,0.6304 -2.76802,1.60525 -3.77744,2.82346c-0.71371,0.06039 -1.40607,0.19575 -2.06916,0.39816c-3.76262,-2.32237 -7.30022,-4.43736 -11.02898,-5.89103c-13.45828,-20.71691 -36.57758,-57.23889 -36.57758,-63.65302z" fill="#ff0000" stroke="#000000" stroke-width="2"/><path d="M181.37559,163.62867c0.97613,-1.70823 1.31136,-4.06171 2.67397,-5.38084c0.20781,-0.20118 0.43952,-0.3783 0.70103,-0.52541c0.41331,-0.23249 0.88728,-0.41158 1.40062,-0.55041c0.39644,-0.12107 0.80839,-0.20665 1.23212,-0.25299c1.89735,-0.28797 4.05947,-0.22993 5.6621,-0.33446c6.4312,-0.41945 13.1786,-0.45772 19.56762,0.6405c1.83138,0.3148 4.8339,2.54695 6.42532,2.59479c4.96089,0.14913 9.92654,0.05152 14.88941,0c3.48961,-0.03623 9.14806,0.87916 12.5489,0.02895c7.61325,-1.90331 14.78754,-5.47985 22.49718,-7.29985c3.16227,-0.74651 7.98112,-0.46776 9.81177,2.89459c2.24018,4.11455 -0.99331,9.69549 -5.28271,10.56543c-1.01306,0.20546 -3.36507,-1.04224 -4.2912,0.25206c-1.27535,1.78235 -4.46215,1.85294 -6.53915,2.46619c-5.05679,1.49308 -10.09011,3.7608 -15.34612,4.9288c-2.94711,0.65491 -9.43269,-0.36731 -12.73028,-0.33617c-4.64667,0.04387 -12.03461,0.04206 -16.68149,0.04206c-4.1082,0 -7.03565,-3.12161 -11.2083,-3.27735c-5.56499,-0.2077 -11.02194,-0.09279 -16.52198,0.29411c-1.24957,0.0879 -4.86942,0.14397 -5.48468,-0.93274z" fill="#ff0000" stroke="none" stroke-width="0.5"/><path d="" fill="#ff0000" stroke="none" stroke-width="0.5"/><path d="M267.45704,160.084c-2.5,0 -2.5,-2.5 -2.5,-2.5l0.00864,-0.68804c-0.45315,-5.61146 -0.82378,-10.65553 -7.4817,-10.92146c-1.68693,-0.06738 -3.36304,0.30191 -5.04548,0.44211c0,0 -2.49136,0.20761 -2.69898,-2.28375c-0.20761,-2.49136 2.28375,-2.69898 2.28375,-2.69898c6.15425,-0.51285 13.71031,-0.90039 16.43632,6.10587c1.00971,2.5951 1.25247,6.17965 1.48881,8.94098l0.00864,1.10327c0,0 0,2.5 -2.5,2.5z" fill="#ffced8" stroke="none" stroke-width="0.5"/><path d="M215.51206,147.95724c1.11803,-2.23607 3.3541,-1.11803 3.3541,-1.11803l1.92135,1.39766c1.57416,2.63461 3.01587,4.4898 4.03451,7.437c0,0 0.79057,2.37171 -1.58114,3.16228c-2.37171,0.79057 -3.16228,-1.58114 -3.16228,-1.58114c-0.80963,-2.55509 -2.19575,-4.14955 -3.57856,-6.44566l0.13004,0.502c0,0 -2.23607,-1.11803 -1.11803,-3.3541z" fill="#ffced8" stroke="none" stroke-width="0.5"/><path d="M203.38068,142.58176c0,-1.38071 1.11929,-2.5 2.5,-2.5c1.38071,0 2.5,1.11929 2.5,2.5c0,1.38071 -1.11929,2.5 -2.5,2.5c-1.38071,0 -2.5,-1.11929 -2.5,-2.5z" fill="#ffced8" stroke="none" stroke-width="0.5"/><path d="M252.43125,199.03164c1.76777,1.76777 0,3.53553 0,3.53553l0.15205,-0.25761c-1.3275,2.20963 -2.79199,4.24016 -3.93812,6.54922c0,0 -1.11803,2.23607 -3.3541,1.11803c-2.23607,-1.11803 -1.11803,-3.3541 -1.11803,-3.3541c1.2194,-2.42355 2.73051,-4.56194 4.12279,-6.88563l0.59988,-0.70544c0,0 1.76777,-1.76777 3.53553,0z" fill="#ffced8" stroke="none" stroke-width="0.5"/><path d="M251.74611,192.51459c0,-1.38071 1.11929,-2.5 2.5,-2.5c1.38071,0 2.5,1.11929 2.5,2.5c0,1.38071 -1.11929,2.5 -2.5,2.5c-1.38071,0 -2.5,-1.11929 -2.5,-2.5z" fill="#ffced8" stroke="none" stroke-width="0.5"/></g></g></svg>