<svg version="1.1" xmlns="http://www.w3.org/2000/svg" xmlns:xlink="http://www.w3.org/1999/xlink" width="189.29556" height="127.01023" viewBox="0,0,189.29556,127.01023"><g transform="translate(-129.59342,-138.19622)"><g data-paper-data="{&quot;isPaintingLayer&quot;:true}" fill-rule="nonzero" stroke-linecap="butt" stroke-linejoin="miter" stroke-miterlimit="10" stroke-dasharray="" stroke-dashoffset="0" style="mix-blend-mode: normal"><path d="M221.76142,157.48794c4.0414,13.49094 -3.40452,27.63947 -16.63093,31.60162c-1.70221,0.50993 -3.41722,0.82627 -5.12214,0.96167c-1.10892,-2.93724 -2.88269,-5.79563 -3.93094,-7.36624c-1.08811,-1.63034 -3.51397,-1.78662 -4.38134,-4.15293c-0.10163,-0.27726 1.80583,-1.33223 1.96683,-1.44538c1.1607,-0.81574 3.54094,-4.47782 3.54783,-5.55307c0.01935,-3.022 -0.87795,-5.98047 -1.3794,-8.96063c-0.36344,-2.15995 2.48026,-4.40177 2.85634,-6.02192c0.78027,-3.36138 -3.08764,-11.98693 -5.80469,-16.90493c12.48328,-2.42563 25.0796,5.16065 28.87842,17.84181z" fill="#ff0000" stroke="#000000" stroke-width="2"/><path d="M223.00633,158.15892c-0.99398,-3.31808 -1.29308,-6.67595 -0.9822,-9.91225l1.84042,1.52435l2.40751,-0.86943l0.32937,0.21164l0.35431,-0.08504l0.02483,0.53863l0.30747,1.02636l0.30193,0.50825l0.0707,0.32485l0.1923,0.11786l0.25608,0.43107l0.57805,1.49998l0.64959,0.92388l0.43652,0.3775l0.1471,0.24761l0.19032,0.04418l3.12444,2.70194l2.73645,-0.25705l2.17485,1.0208l0.11829,2.5654l0.22271,0.74345l-0.03287,0.10741l0.14015,0.25071l0.07996,0.26692l1.17352,1.97545l0.33238,0.59459l0.06607,1.43294l0.07996,0.26692l0.02077,0.28646l0.08651,0.07165l0.42768,1.4277l2.63225,4.431l1.30094,0.30199l0.60129,0.81766l0.14747,0.12215l0.66909,2.23356c-10.43909,-0.42908 -19.98513,-7.5186 -23.20619,-18.27109z" fill="#ff0000" stroke="#000000" stroke-width="2"/><path d="M205.31039,171.52291l33.47677,-10.02844l0.03302,0.7161l0.22271,0.74345l-0.03287,0.10741l0.14015,0.25071l0.07996,0.26692l1.17352,1.97545l0.33238,0.59459l0.06607,1.43294l0.07996,0.26692l0.02077,0.28646l0.08651,0.07165l0.42768,1.4277l2.63225,4.431l1.30094,0.30199l0.60129,0.81766l0.14747,0.12215l0.75968,2.53593l-0.00603,0.03458l0.00874,0.12052l-0.01545,0.50322l0.0779,0.35793l0.06219,0.8576l-0.07226,0.25544l-0.00453,0.14764l-0.31012,0.3401l-0.1322,0.24528l-0.07944,0.09186l-0.05725,0.03043l-0.01504,0.05317l-0.03614,0.0418l0.00606,0.06455l-0.03305,0.11686l-0.1322,0.24528l-0.56705,2.22666l-0.34692,1.22641l-0.13468,0.14154l0.01326,0.28769l-0.15709,0.55533l-0.00855,0.27851l-0.07088,0.27833l0.05941,0.09533l-0.01464,0.47669l0.34184,1.57074l0.07404,1.6058l0.63266,2.11194l-0.03287,0.1074l0.14015,0.25071l0.07996,0.26692l1.17352,1.97545l1.12115,2.00564l0.19089,0.20298l0.14669,0.24693l0.10941,0.0254l0.10011,0.10645l4.33595,2.78603l0.38397,-0.09216l0.28606,0.2722l1.83872,-0.08478l0.02562,0.08553l0.13919,0.23431l-0.36164,1.55793l-0.83856,3.05914l-0.02877,1.2751c-1.08764,-0.85727 -2.43879,-1.9091 -3.85307,-2.88823c-0.62115,-0.78627 -1.2592,-1.48037 -1.83638,-2.03351c-0.51361,-0.49221 -1.42218,-0.44358 -2.29482,-0.37544c-1.16034,-0.50249 -2.2225,-0.75761 -3.05833,-0.59446c-1.38688,-0.58579 -3.279,-1.37716 -3.4513,-1.35913c-1.59452,0.16685 -3.08015,0.97459 -4.47214,1.77002c-1.55135,0.88648 -3.28067,1.74737 -4.27786,3.22998c-0.77731,1.1557 -1.12065,2.2621 -1.2221,3.34319c-1.99285,1.82802 -3.24219,4.45366 -3.24219,7.3711c0,1.05957 0.1648,2.08067 0.47015,3.03903c-0.63438,0.77004 -1.24965,1.49549 -1.84266,2.20772c-0.28491,-0.2793 -0.60124,-0.50553 -0.98365,-0.62426c-1.28654,-0.39943 -2.65592,-0.4253 -4.01049,-0.16463c-6.9083,-5.97735 -14.30914,-12.49447 -20.91089,-18.54951c0.48499,-0.91736 0.94772,-1.87755 1.3862,-2.89844c1.75615,-4.08871 -2.59816,-11.28628 -4.51825,-14.1632c-1.08811,-1.63034 -3.51397,-1.78662 -4.38134,-4.15293c-0.10163,-0.27726 1.80583,-1.33223 1.96683,-1.44538c1.1607,-0.81574 3.54094,-4.47782 3.54783,-5.55307c0.00259,-0.40443 -0.01123,-0.80771 -0.03833,-1.21007c4.26638,-0.10998 7.58243,0.08825 7.58243,0.08825z" fill="#ff0000" stroke="#000000" stroke-width="2"/><path d="M205.21886,161.11258c1.84469,-0.22398 5.36147,1.05267 6.89969,0.64182c4.79504,-1.28074 9.52383,-2.79922 14.26318,-4.27274c1.39998,-0.43527 3.21482,-0.8195 5.07234,-1.2515l1.78097,1.54014l2.73645,-0.25705l2.17485,1.0208l0.11829,2.5654l0.22271,0.74345l-0.03287,0.10741l0.14015,0.25071l0.07996,0.26692l1.17352,1.97545l0.33238,0.59459l0.06607,1.43294l0.07996,0.26692l0.02077,0.28646l0.08651,0.07165l0.23339,0.7791c-3.09467,0.92567 -7.39101,1.60945 -9.77114,2.34701c-4.43865,1.37545 -11.51638,3.4938 -15.96782,4.82729c-3.93542,1.17891 -7.63553,-0.97133 -11.67737,0.07688c-3.92399,1.01765 -7.74408,2.18264 -11.52171,3.49298c-0.01125,-0.02872 -0.02226,-0.05776 -0.03304,-0.08715c-0.10163,-0.27726 1.80583,-1.33223 1.96683,-1.44538c1.1607,-0.81574 3.54094,-4.47782 3.54783,-5.55307c0.01846,-2.88341 -0.79757,-5.70899 -1.30804,-8.55076c3.07686,-0.83355 6.19852,-1.49173 9.31615,-1.87027z" fill="#ff0000" stroke="none" stroke-width="0.5"/><path d="" fill="#ffced8" stroke="none" stroke-width="0.5"/><path d="M205.3364,151.40265c0.42934,-2.46286 2.89219,-2.03352 2.89219,-2.03352l2.24162,0.78752c2.26399,2.07208 4.17744,3.43551 5.99898,5.96644c0,0 1.43792,2.0451 -0.60717,3.48301c-2.0451,1.43792 -3.48301,-0.60717 -3.48301,-0.60717c-1.5088,-2.21529 -3.29417,-3.34493 -5.27773,-5.14765l0.26863,0.44357c0,0 -2.46286,-0.42933 -2.03351,-2.89219z" fill="#ffced8" stroke="none" stroke-width="0.5"/><path d="M196.96238,148.2997c0.01096,0.03659 0.02105,0.07323 0.03026,0.10991c-0.07661,-0.19886 -0.15483,-0.39835 -0.23448,-0.5982c0.08354,0.15213 0.1524,0.31532 0.20422,0.48829z" fill="#ffced8" stroke="none" stroke-width="0.5"/><path d="" fill="#ffced8" stroke="none" stroke-width="0.5"/><path d="M225.52687,197.3355c-0.35584,0.66021 -1.01605,0.30437 -1.01605,0.30437l-0.30559,-0.25466c-1.59644,-0.08165 -2.94113,-1.10418 -4.38134,-1.81728c-0.75049,2.25367 -1.63116,4.47233 -3.0583,5.9296c-0.99481,1.01581 -2.87317,1.0046 -3.96825,1.88037c-1.8383,1.47015 -3.18557,3.07733 -5.5121,3.78023c0,0 -0.71845,0.21523 -0.93367,-0.50323c-0.08565,-0.28591 -0.02344,-0.49213 0.08252,-0.6368c-0.38588,-0.29098 -0.22881,-0.80427 -0.22881,-0.80427l0.09049,-0.15529c-0.10777,-0.08346 -0.21689,-0.17875 -0.32855,-0.28565l-0.08487,0.12273l-0.67029,-0.4635c-0.1377,-0.09348 -0.24532,-0.23318 -0.2968,-0.40506c-0.11886,-0.39679 0.10644,-0.81482 0.50323,-0.93368c0.08533,-0.02556 0.17164,-0.0352 0.25574,-0.03066l0.74883,0.02299c3.06315,-0.39103 5.40973,-2.1124 8.22063,-3.02024l0.02769,-0.10526c0.73078,-0.51094 1.44692,-0.85856 2.24947,-1.21626c1.48499,-2.66172 2.19244,-6.38907 3.31176,-8.92372c1.74259,-3.94605 3.90884,-7.6819 5.55128,-11.66327l-0.113,-0.27842c0,0 -0.07014,-0.74672 0.67657,-0.81686c0.74672,-0.07014 0.81685,0.67657 0.81685,0.67657l0.00622,0.99074c-1.64742,3.99347 -3.81811,7.7397 -5.56575,11.6972c-0.48287,1.09343 -0.89289,2.38201 -1.31781,3.71264c1.27791,0.65843 2.64759,1.74802 3.9643,1.74707l0.97124,0.43353c0,0 0.66021,0.35584 0.30437,1.01605z" fill="#000000" stroke="none" stroke-width="0.5"/><path d="M194.32111,178.12739c0.78811,-1.35222 1.77512,-2.56502 2.77063,-3.75888c-0.35355,-0.00937 -0.78279,0.0219 -1.24854,0.07974c0.34288,-0.53021 0.65628,-1.06902 0.89631,-1.55002c0.63986,-0.01755 1.19736,0.03353 1.59235,0.18766c0.18305,-0.05835 0.41699,-0.05137 0.66995,0.15815c0.12663,0.10489 0.20252,0.21455 0.2438,0.32183c1.35029,0.83662 2.55347,2.08471 3.96235,2.79556c1.52703,0.77046 3.28013,1.25758 4.87847,1.87233l0.64029,0.15769c0,0 0.7268,0.18509 0.54171,0.91189c-0.18509,0.7268 -0.91189,0.54172 -0.91189,0.54172l-0.80858,-0.21128c-3.33195,-1.28153 -5.93542,-3.10026 -8.95141,-4.7286c-1.45616,1.7457 -2.90345,3.51624 -3.70353,5.68565c-0.07032,0.19067 -0.23821,0.44333 -0.4191,0.70764c-0.35181,-0.21857 -0.71545,-0.43204 -1.06438,-0.67422c0.38216,-0.67969 0.52934,-1.84104 0.91156,-2.49686z" fill="#000000" stroke="none" stroke-width="0.5"/><path d="M204.80587,184.27247c0.43138,0.61353 -0.18215,1.0449 -0.18215,1.0449l-0.64673,0.45437c-1.72442,1.35781 -2.39125,2.47285 -4.70234,2.1794c-0.09541,-0.09413 -0.19435,-0.18272 -0.29644,-0.26651c-0.46941,-0.96171 -0.97233,-1.87526 -1.45263,-2.69187c0.5024,0.09519 0.95474,0.17655 1.27533,0.28951c0.1339,0.04718 0.91294,1.03646 1.14635,1.3281c1.28424,0.10185 2.19405,-1.30071 3.13387,-2.04173l0.67987,-0.47836c0,0 0.61353,-0.43137 1.0449,0.18215z" fill="#000000" stroke="none" stroke-width="0.5"/><path d="M234.05911,158.2201c-0.07796,0.18397 0.63739,1.76671 0.7259,2.06218c0.4326,1.4441 0.89654,2.78576 0.87867,4.30283c1.66547,0.60203 3.23226,1.34384 4.41958,2.37822c0.15032,0.13096 0.29399,0.26535 0.43151,0.40295l0.3467,1.15735l2.63225,4.431l0.04914,0.0114c0.39742,1.17571 0.76847,2.36716 1.25238,3.50317l0.18326,0.59796c0.37367,0.34217 0.13763,0.84936 0.13763,0.84936c-0.60888,1.30828 -1.11331,2.55432 -1.59805,3.90667c-0.1346,0.37552 -0.77419,0.83795 -0.47287,1.09937c0.60038,0.52087 1.04052,0.75907 1.47651,1.22366l-0.14993,0.53001l-0.00855,0.27851l-0.07088,0.27833l0.05941,0.09533l-0.01464,0.47669l0.15568,0.71535c-0.24831,-0.10339 -0.38546,-0.33426 -0.38546,-0.33426l-0.26998,-0.45446c-0.49665,-0.84483 -1.69894,-1.38287 -2.09174,-2.06008c-0.78825,-1.35901 1.07234,-4.54146 1.83903,-6.04015c-0.00978,-0.02485 -0.01424,-0.03974 -0.01424,-0.03974l-0.15579,-0.53604c-0.28752,-0.67852 -0.53014,-1.38349 -0.76272,-2.0952c-1.13878,0.14273 -2.45108,0.18614 -3.3689,0.82298c0.02732,0.21102 0.01596,0.65875 -0.52527,0.82088c-0.71846,0.21523 -0.93368,-0.50324 -0.93368,-0.50324l0.09428,-1.13002c1.21454,-1.0985 2.71873,-1.23573 4.26629,-1.45307c-0.65921,-1.99845 -1.4239,-3.94526 -3.06403,-5.40435c-1.6279,-1.44821 -4.74184,-2.2132 -6.75366,-3.011c-0.77848,-0.30871 -1.35394,-0.23588 -1.79358,-0.61739c-0.04871,0.20589 -0.10848,0.41023 -0.18012,0.61014c-0.03933,0.2296 -0.13826,0.44636 -0.28197,0.64257c-0.06708,0.12671 -0.14003,0.2499 -0.21908,0.36867c0,0 -0.2557,0.36978 -0.65745,0.33877c-0.32981,0.16161 -0.70191,0.2647 -1.07937,0.29011c-0.57456,0.30193 -1.1176,0.05357 -1.57171,-0.4021c-2.83485,-1.54466 -3.1759,-4.6556 -5.44844,-6.79331c0,0 -0.54332,-0.51701 -0.02631,-1.06034c0.39047,-0.41033 0.79593,-0.21588 0.97102,-0.0961c-0.02917,-0.61983 0.34459,-1.02598 1.49016,-0.91936c0.64572,0.0601 1.03306,1.62323 1.20708,2.20237c0.05346,0.17792 0.2137,0.72545 0.41815,1.37708c0.08238,0.16633 0.16326,0.33355 0.25079,0.49676c0.78696,1.19757 2.39386,1.07124 3.57351,1.5735c0.05283,-0.26301 0.24543,-0.48898 0.52035,-0.57134c0.21991,-0.06588 0.44634,-0.02603 0.62476,0.09012l0.77632,0.49881c1.01896,0.30148 2.10464,0.60141 3.18489,0.93905c-0.2842,-1.91521 -2.04339,-4.70514 -1.52359,-6.20834c0.05527,-0.15984 0.13069,-0.30819 0.22241,-0.44689l0.41026,0.35478l1.25662,-0.11804c-0.19279,0.17229 -0.34418,0.35931 -0.43255,0.56785z" fill="#000000" stroke="none" stroke-width="0.5"/><path d="" fill="#000000" stroke="none" stroke-width="0.5"/><path d="M230.72806,202.4508l-0.03679,-0.12282c0,0 -0.21522,-0.71846 0.50324,-0.93368c0.61945,-0.18557 0.8648,0.32294 0.92066,0.46662c-0.44383,0.37078 -0.84197,0.78456 -1.16385,1.26312c-0.00508,0.00754 -0.01013,0.01509 -0.01517,0.02263c-0.06919,-0.23201 -0.13861,-0.46395 -0.20808,-0.69587z" fill="#000000" stroke="none" stroke-width="0.5"/><path d="M243.45564,193.39583c-0.53552,0.12184 -1.23466,-0.24826 -1.64333,0.11864c-0.34677,0.31133 -1.18353,3.01019 -1.54959,3.68938c0,0 -0.35584,0.66021 -1.01605,0.30437c-0.66021,-0.35584 -0.30437,-1.01605 -0.30437,-1.01605c0.38432,-0.71305 1.27996,-3.56731 1.76903,-3.99645c0.82933,-0.7277 3.00768,-0.97634 4.67079,-1.2423l0.11084,0.19827l0.07996,0.26692l0.58925,0.99193c-0.89736,0.2504 -1.79763,0.47849 -2.70652,0.68529z" fill="#000000" stroke="none" stroke-width="0.5"/><path d="" fill="#000000" stroke="none" stroke-width="0.5"/><path d="" fill="#000000" stroke="none" stroke-width="0.5"/><path d="" fill="#ff0000" stroke="#000000" stroke-width="2"/><path d="M314.73955,192.6738c-4.54518,13.32965 -18.82371,20.52312 -31.89199,16.06707c-1.77996,-0.60693 -3.44566,-1.39868 -4.98372,-2.34732c0.06907,-1.52865 0.42874,-3.11995 -0.07539,-4.58546c-0.32443,-0.94311 2.35314,-2.80735 2.50911,-4.22011c0.11803,-1.06922 0.09096,-2.51788 0.42923,-3.6196c0.27142,-0.88395 2.76906,-1.91845 3.37006,-2.84872c1.09574,-1.69605 1.75756,-3.91787 2.02622,-5.99303c0.11306,-0.87324 2.69479,-3.19372 3.26824,-4.08134c1.0028,-1.5522 1.17373,-5.17006 0.94908,-6.82364c-0.49198,-3.62134 -2.37859,-5.31641 -4.98206,-7.53097c-0.60492,-0.51456 -4.13517,-1.92927 -4.27881,-2.6286c0.18879,-0.9193 0.24354,-1.84212 0.17558,-2.74538c5.53139,-2.46438 11.92472,-2.93607 18.05199,-0.84677c13.06829,4.45606 19.97763,18.87422 15.43246,32.20387z" fill="#ff0000" stroke="#000000" stroke-width="2"/><path d="" fill="#ff0000" stroke="#000000" stroke-width="2"/><path d="M288.03305,190.43484c0,0 27.45007,-3.04022 24.3077,6.17542c-1.23964,3.63549 -14.2596,14.49438 -29.04828,25.94062c-0.88395,-0.75169 -1.65973,-1.46878 -1.94715,-2.17307c-0.49728,-1.2185 -0.31043,-4.47275 -0.80195,-6.02746c-0.81618,-2.58164 -2.32293,-3.885 -2.65025,-6.74517c-0.21498,-1.87851 0.53453,-3.93892 -0.10468,-5.7971c-0.32443,-0.94311 2.35314,-2.80735 2.50911,-4.22011c0.11803,-1.06922 0.09096,-2.51788 0.42923,-3.6196c0.27142,-0.88395 2.76906,-1.91845 3.37006,-2.84872c0.34179,-0.52903 0.64135,-1.10921 0.89993,-1.72014z" fill="#ff0000" stroke="#000000" stroke-width="2"/><path d="" fill="#ff0000" stroke="none" stroke-width="0.5"/><path d="M306.07354,182.3748c3.23398,0.31401 7.70501,2.13307 8.35254,5.90631c0.79239,4.61736 -4.06924,8.8561 -8.40987,8.29514c-1.02516,-0.13249 -2.84863,-2.0725 -4.14292,-1.14635c-1.78233,1.27537 -4.82139,0.31369 -6.98516,0.2238c-4.71801,-0.19598 -9.61871,0.20219 -14.43494,-0.1369c0.05094,-0.54173 0.12881,-1.07685 0.2736,-1.54843c0.27142,-0.88395 2.76906,-1.91845 3.37006,-2.84872c1.09574,-1.69605 1.75756,-3.91787 2.02622,-5.99303c0.07677,-0.59301 1.29204,-1.85345 2.24369,-2.87932c5.88446,0.00857 11.81244,-0.44484 17.70679,0.12749z" fill="#ff0000" stroke="none" stroke-width="0.5"/><path d="M302.20605,189.01711c-2.36622,-0.80684 -1.55938,-3.17306 -1.55938,-3.17306l0.23023,-0.64843c1.38212,-5.45743 2.65922,-10.35121 -3.5566,-12.75166c-1.57491,-0.60821 -3.28052,-0.79962 -4.91818,-1.20991c0,0 -2.42505,-0.60755 -1.81751,-3.0326c0.60755,-2.42505 3.0326,-1.81751 3.0326,-1.81751c5.99045,1.50079 13.26725,3.5726 13.58621,11.08373c0.11815,2.7821 -0.80895,6.25319 -1.47643,8.94303l-0.34789,1.04702c0,0 -0.80684,2.36622 -3.17306,1.55938z" fill="#ffced8" stroke="none" stroke-width="0.5"/><path d="" fill="#ffced8" stroke="none" stroke-width="0.5"/><path d="" fill="#ffced8" stroke="none" stroke-width="0.5"/><path d="" fill="#ffced8" stroke="none" stroke-width="0.5"/><path d="M318.88899,180.37175c0,0.43281 -0.10998,0.83992 -0.30352,1.19493c-0.42279,-1.01404 -0.85756,-2.03808 -1.31309,-2.65656c-0.28334,-0.3847 -0.5742,-0.72479 -0.86786,-1.03832c1.37356,0.00835 2.48447,1.12443 2.48447,2.49996z" fill="#ffced8" stroke="none" stroke-width="0.5"/><path d="" fill="#000000" stroke="none" stroke-width="0.5"/><path d="" fill="#000000" stroke="none" stroke-width="0.5"/><path d="" fill="#000000" stroke="none" stroke-width="0.5"/><path d="M294.37879,205.61299c-0.74998,-0.00515 -0.74483,-0.75513 -0.74483,-0.75513l0.00973,-0.8847c0.04713,-0.23136 0.09426,-0.46272 0.1414,-0.69408c-1.74985,0.73082 -3.51829,1.3541 -5.25664,1.72537c-0.39395,-0.98196 -0.76427,-1.99324 -0.90797,-3.04147l0.08516,-0.8472c0,0 0.09813,-0.74356 0.84169,-0.64541c0.74356,0.09813 0.64541,0.84169 0.64541,0.84169l-0.08592,0.449c0.0851,0.63266 0.13893,1.27399 0.11213,1.91178c0.87668,-0.84327 2.10335,-1.00819 3.18919,-1.50673c1.31336,-0.603 2.61027,-1.21193 3.90912,-1.80896c-0.72981,-1.21322 -1.39594,-2.37164 -2.05847,-3.63673c-0.38335,-0.73199 -1.39495,-1.19721 -1.43315,-2.02261c-0.13406,-2.89687 2.90771,-5.6838 4.48503,-7.77401l0.2549,-0.40062c0,0 0.40547,-0.63094 1.03642,-0.22548c0.63094,0.40547 0.22548,1.03642 0.22548,1.03642l-0.31969,0.49351c-1.36371,1.80531 -4.00929,4.17821 -4.2079,6.59345c-0.05603,0.6813 0.96339,0.99509 1.28501,1.59832c0.68428,1.28343 1.35696,2.46722 2.10666,3.71198c0.8717,-0.39245 1.74719,-0.77674 2.63194,-1.14752c1.5365,-0.6439 1.89552,-2.79798 3.17643,-3.76167c1.35904,-1.02245 2.8281,-0.75391 4.37148,-0.49987c0,0 0.1164,0.0192 0.24926,0.08853c0.83641,-1.44432 2.58107,-3.15017 3.31109,-3.60585c0.11112,-0.06936 0.36561,-0.23166 0.66363,-0.40894c0.25569,-0.3934 0.4893,-0.80503 0.67523,-1.2562c0.1706,-0.41393 0.56708,-2.05974 1.09893,-2.03001c2.1306,0.11911 1.84303,2.89399 1.6615,4.1058c-0.52294,3.49101 -1.59873,7.26737 -4.9121,8.78478c-0.15137,-0.0419 -0.29085,-0.09232 -0.41901,-0.15055c-0.16714,0.42927 -0.3332,0.86048 -0.48351,1.30131c0,0 -0.17995,0.52775 -0.68459,0.518c-0.45786,0.95366 -0.97537,1.78715 -1.34228,2.14257c-0.39423,0.38188 -0.85361,1.03528 -1.38362,0.89265c-1.63879,-0.44098 -0.54406,-2.52778 -0.33834,-3.16543c0.44833,-1.38965 1.05342,-2.56712 1.70876,-3.70176c-0.06101,-0.00486 -0.1224,-0.01733 -0.18298,-0.03799c-0.39205,-0.13368 -0.6015,-0.55987 -0.46781,-0.95192l0.28964,-0.84942l0.02686,0.00916l-0.00252,-0.0299c0.04383,-0.03015 0.08764,-0.06031 0.13147,-0.09046l-0.0377,-0.03489l0.06467,-0.06986c-4.09744,-0.61256 -3.34795,2.67065 -6.57062,4.17498c-1.8043,0.84225 -3.71925,1.80614 -5.67516,2.68492c0.14259,0.25492 0.08139,0.55033 0.08139,0.55033c-0.06609,0.31301 -0.13217,0.62601 -0.19825,0.93903l-0.00142,0.73695c0,0 -0.00515,0.74998 -0.75513,0.74483zM311.84774,197.2859c0.68468,-0.85588 1.15343,-1.93692 1.48975,-3.05558c-0.16442,-0.08379 -0.28746,-0.22301 -0.35367,-0.38618c-0.28918,1.12968 -0.70209,2.18741 -1.13608,3.44176z" fill="#000000" stroke="none" stroke-width="0.5"/><path d="" fill="#000000" stroke="none" stroke-width="0.5"/><path d="" fill="#000000" stroke="none" stroke-width="0.5"/><path d="" fill="#000000" stroke="none" stroke-width="0.5"/><path d="" fill="#000000" stroke="none" stroke-width="0.5"/><path d="M302.1092,167.31793c0.24205,-0.70987 0.95192,-0.46781 0.95192,-0.46781l0.64818,0.24784c3.49555,2.33818 9.56343,6.46023 5.26108,10.83791c0,0 -0.53396,0.52667 -1.06063,-0.00728c-0.52667,-0.53396 0.00728,-1.06063 0.00728,-1.06063c3.45294,-3.26427 -2.51474,-6.83291 -5.0417,-8.5232l-0.29831,-0.07489c0,0 -0.70987,-0.24205 -0.46781,-0.95192z" fill="#000000" stroke="none" stroke-width="0.5"/><path d="" fill="#ff0000" stroke="#000000" stroke-width="2"/><path d="" fill="#ff0000" stroke="#000000" stroke-width="2"/><path d="M277.30959,251.0208c-0.13503,0.67365 -0.19972,1.35733 -0.19498,2.03959c-0.47703,1.53168 -0.5736,3.14797 -0.30113,4.70641c-0.41696,0.58239 -0.76301,1.19715 -1.03905,1.83312c-4.20809,1.35746 -8.11239,2.67816 -11.63733,4.5733c-5.06777,-0.66075 -10.91851,-1.44554 -17.05462,-2.3116c1.06864,-2.9648 1.38041,-6.53089 0.92048,-9.44748c-0.20913,-1.3262 -1.43219,-3.96874 -1.15242,-5.45857c0.11134,-0.5929 2.05442,-1.68147 2.45661,-2.12086c1.62547,-1.7758 3.12295,-3.66465 4.68446,-5.49694c0.03792,-0.04449 1.33848,-0.13718 1.46066,-0.21508c2.05342,-1.30915 3.37698,-4.09933 5.78513,-4.46163c1.57224,-0.23654 4.47586,3.35329 6.42135,3.25336c1.70824,-0.08774 3.80568,-0.31728 6.02958,-0.74261c1.33531,5.02136 2.56311,9.73576 3.62125,13.849z" fill="#ff0000" stroke="#000000" stroke-width="2"/><path d="" fill="#ff0000" stroke="none" stroke-width="0.5"/><path d="" fill="#ffced8" stroke="none" stroke-width="0.5"/><path d="" fill="#ffced8" stroke="none" stroke-width="0.5"/><path d="" fill="#ffced8" stroke="none" stroke-width="0.5"/><path d="" fill="#ffced8" stroke="none" stroke-width="0.5"/><path d="" fill="#ffced8" stroke="none" stroke-width="0.5"/><path d="" fill="#000000" stroke="none" stroke-width="0.5"/><path d="" fill="#000000" stroke="none" stroke-width="0.5"/><path d="" fill="#000000" stroke="none" stroke-width="0.5"/><path d="" fill="#000000" stroke="none" stroke-width="0.5"/><path d="M258.32253,238.56044c0.74762,-0.05966 0.80728,0.68796 0.80728,0.68796l-0.23231,-0.14971c1.37515,1.1719 2.50828,1.98893 4.2772,2.30174c0.06724,-0.45388 0.12459,-0.89901 0.16339,-1.33118l0.07907,-1.26939c0,0 0.04667,-0.74855 0.79521,-0.70188c0.74855,0.04667 0.70188,0.79521 0.70188,0.79521l-0.08047,1.28974c-0.22857,2.55057 -1.26744,5.81988 -0.79489,8.33181c0.09875,0.08204 0.18274,0.20112 0.21921,0.37396l0.25819,0.22003c1.65688,1.41198 4.88725,3.24643 5.62693,5.28818c0.11673,0.32222 0.20382,0.68981 0.26923,1.08677c0.89925,0.35101 1.74603,1.96257 1.98327,3.3199c0.13446,0.09334 0.27326,0.18249 0.41822,0.26625c1.00438,0.5803 2.08095,-1.03677 2.93596,-1.4751c0,0 0.67199,-0.33305 1.00505,0.33894c0.33305,0.67199 -0.33894,1.00505 -0.33894,1.00505c-1.55061,0.733 -2.21163,2.40579 -4.18581,1.51309c-0.26095,0.37781 -0.75826,0.48721 -1.56865,0.11952c0.00807,0.17071 0.01809,0.33457 0.0308,0.4901c0,0 0.05966,0.74762 -0.68796,0.80728c-0.74762,0.05966 -0.80728,-0.68796 -0.80728,-0.68796c-0.07206,-0.92776 -0.05319,-2.1217 -0.09139,-3.29339c-0.3448,-0.5039 -0.52267,-1.01659 -0.37509,-1.47362c-0.04671,-0.08814 -0.09676,-0.17532 -0.15037,-0.26147l-0.35852,-0.83987c0,0 -0.2561,-0.60342 0.27468,-0.92142c-0.9038,-1.46615 -3.77146,-3.13359 -4.95307,-4.14055l-0.39032,-0.33262c0,0 -0.03135,-0.02672 -0.07309,-0.07497c-2.05674,0.06703 -5.17402,0.42423 -6.89607,-0.08863c-1.01998,-0.30377 -2.17812,-1.98867 -2.90173,-2.68677c-1.068,-1.03033 -2.17886,-2.01295 -3.30243,-2.98116c0.331,-0.37472 0.65764,-0.75331 0.98162,-1.13423c1.14414,0.98589 2.27529,1.98654 3.36244,3.03604c0.2242,0.21644 1.73397,2.19573 2.16835,2.29814c1.54804,0.36496 4.05267,0.1589 6.01216,0.07589c-0.19994,-1.72079 0.12134,-3.63529 0.43173,-5.48347c-2.04648,-0.37457 -3.41814,-1.28047 -5.01143,-2.63826l-0.29001,-0.87264c0,0 -0.05966,-0.74762 0.68796,-0.80728z" fill="#000000" stroke="none" stroke-width="0.5"/><path d="" fill="#000000" stroke="none" stroke-width="0.5"/><path d="" fill="#000000" stroke="none" stroke-width="0.5"/><path d="" fill="#000000" stroke="none" stroke-width="0.5"/><path d="" fill="#000000" stroke="none" stroke-width="0.5"/><path d="M134.37425,176.40646c-7.31914,-12.03198 -3.68988,-27.60281 8.10618,-34.77844c0.10834,-0.0659 0.21699,-0.13087 0.32595,-0.1949c1.00651,2.06385 2.30513,4.11934 3.23098,4.63134c0.96644,0.53445 3.42496,-0.76207 3.29617,0.33477c-1.33954,11.4089 0.80006,16.87889 7.02689,27.21864c1.60815,2.67037 1.58709,4.54041 3.83343,7.37078c2.00991,2.53247 4.67859,3.34901 6.47127,5.45914c-11.43645,5.38725 -25.44275,1.21631 -32.29086,-10.04133z" fill="#ff0000" stroke="#000000" stroke-width="2"/><path d="" fill="#ff0000" stroke="#000000" stroke-width="2"/><path d="M140.83506,181.25494c-3.05669,-5.02491 5.70219,-9.04018 13.29129,-11.46696c0.67573,1.20949 1.41996,2.47807 2.23405,3.82989c1.60815,2.67037 1.58709,4.54041 3.83343,7.37078c2.34221,2.95117 5.57904,3.57211 7.28165,6.62544c0.52801,0.94689 -0.86221,5.17786 -0.49707,6.77232c0.46988,2.05181 1.09403,3.19363 1.82532,4.12208c-14.17699,-7.41335 -26.17834,-14.31042 -27.96867,-17.25355z" fill="#ff0000" stroke="#000000" stroke-width="2"/><path d="M138.64204,179.81337c-0.05382,-1.96672 -0.99053,-4.15163 -0.51195,-5.98677c0.07299,-0.27988 0.1789,-0.55162 0.32586,-0.81321c0.23228,-0.41343 0.54414,-0.81276 0.91056,-1.19815c0.27578,-0.30947 0.58325,-0.59667 0.92118,-0.85648c1.47133,-1.23209 3.3487,-2.30617 4.66357,-3.22836c1.99359,-1.39821 4.05402,-2.77339 6.17137,-4.07183c1.21446,3.01982 2.95033,6.16098 5.23777,9.95931c0.47408,0.78721 0.80656,1.50487 1.0973,2.19808c-2.64649,1.65111 -5.231,3.37772 -7.78188,5.18627c-1.02188,0.7245 -4.08535,2.65366 -5.17056,2.05353z" fill="#ff0000" stroke="none" stroke-width="0.5"/><path d="" fill="#ffced8" stroke="none" stroke-width="0.5"/><path d="" fill="#ffced8" stroke="none" stroke-width="0.5"/><path d="M146.50383,150.39588c-0.71756,-1.1796 -0.343,-2.71757 0.8366,-3.43513c0.61178,-0.37215 1.31995,-0.45054 1.96007,-0.27523c-0.19915,1.75826 -0.3141,3.37518 -0.34255,4.89138c-0.94903,0.12124 -1.9248,-0.31085 -2.45413,-1.18102z" fill="#ffced8" stroke="none" stroke-width="0.5"/><path d="" fill="#ffced8" stroke="none" stroke-width="0.5"/><path d="" fill="#ffced8" stroke="none" stroke-width="0.5"/><path d="" fill="#000000" stroke="none" stroke-width="0.5"/><path d="M152.05128,175.53655c-0.88069,0.35529 -1.87745,0.71125 -2.936,1.02376c0.10578,0.23743 0.07844,0.50791 -0.05901,0.71694l-0.44866,0.71461l-0.05446,-0.03419l-0.05416,0.16946c-2.38957,1.52427 -4.83483,2.96454 -7.25634,4.43756c0,0 -0.64076,0.38978 -1.03054,-0.25098c-0.19322,-0.31764 -0.1332,-0.57361 -0.02353,-0.75099c-0.99497,0.19097 -1.61865,-0.31047 -2.12689,-1.01298c-0.76286,-0.44596 -1.38474,-1.15267 -2.04599,-1.73912c-0.65484,-0.58078 -2.96068,-2.10081 -2.58218,-3.29519c0.04716,-0.1488 0.09779,-0.28012 0.15158,-0.39559l-0.01312,-0.02157c-0.14531,-0.23888 -0.14133,-0.52675 -0.01454,-0.75484c-0.35994,-0.14902 -0.72335,-0.28758 -1.09159,-0.41129c0,0 -0.70964,-0.24272 -0.46692,-0.95235c0.24272,-0.70964 0.95235,-0.46692 0.95235,-0.46692c2.40818,0.83604 4.62303,2.21531 6.99942,3.10536c3.30085,1.23629 8.36075,-0.20217 11.42938,-1.42313c0.84587,-0.50692 2.51041,-1.43416 4.08659,-2.07655c0.24821,0.42127 0.5038,0.85041 0.7668,1.28826c-1.58104,0.63817 -3.5108,1.71443 -4.18218,2.12974zM140.94689,177.41426c-0.00253,-0.00042 -0.00506,-0.00085 -0.00757,-0.00127c-0.00009,0.00239 -0.00018,0.00478 -0.00027,0.00716c0.00261,-0.00196 0.00522,-0.00394 0.00785,-0.0059z" fill="#000000" stroke="none" stroke-width="0.5"/><path d="M163.03188,185.57785c-2.14513,-1.23735 -4.97465,-0.33971 -7.45471,-2.4776c-1.18498,-1.02149 -0.51625,-1.94113 -0.12889,-2.94922c0.28326,-0.7372 0.08735,-2.0342 0.30854,-2.8265c0.2767,-0.99112 0.65181,-1.94565 1.06434,-2.88305c0.35052,0.67611 0.61351,1.30806 0.86418,1.92982c-0.36647,1.02743 -0.64388,2.08404 -0.75269,3.19222c-0.05335,0.54336 -0.675,1.69756 -0.52523,2.10391c0.83082,2.25431 4.12866,1.33402 5.49172,1.44786c0.14148,0.01181 1.1452,0.77215 1.44474,0.99535c0.12539,-0.02234 0.24352,-0.05798 0.35531,-0.105c0.42271,0.28942 0.84023,0.57441 1.24274,0.87422c-0.46875,0.347 -1.05654,0.58715 -1.91005,0.69799z" fill="#000000" stroke="none" stroke-width="0.5"/><path d="" fill="#000000" stroke="none" stroke-width="0.5"/><path d="" fill="#000000" stroke="none" stroke-width="0.5"/><path d="" fill="#000000" stroke="none" stroke-width="0.5"/><path d="" fill="#000000" stroke="none" stroke-width="0.5"/><path d="" fill="#000000" stroke="none" stroke-width="0.5"/><path d="M138.31304,154.82335c-0.7287,-0.17747 -0.55123,-0.90617 -0.55123,-0.90617l0.50624,-1.15031c0.42717,-0.25985 0.85435,-0.5197 1.28152,-0.77956c0,0 0.03423,-0.02082 0.09168,-0.04493c-0.08711,-0.54358 -0.18637,-1.1204 -0.48696,-1.30144c-1.66235,-1.00126 -3.9333,2.43196 -4.53199,-1.67766c-0.07286,-0.50021 0.47286,-0.89358 0.70929,-1.34037c0,0 0.3988,-0.63518 1.03398,-0.23639c0.63518,0.3988 0.23639,1.03398 0.23639,1.03398c-1.70016,1.96131 2.59333,0.47535 3.23262,0.88357c0.58117,0.3711 0.91671,1.06986 1.15258,1.71781c0.08365,0.2298 -0.51193,0.75692 -0.2805,0.6779c0.69675,-0.23791 1.26081,-0.87875 1.9935,-0.95108l1.22254,1.21199c0,0 0.38978,0.64076 -0.25098,1.03054c-0.64076,0.38978 -1.03054,-0.25098 -1.03054,-0.25098l0.18313,-0.4967c-0.78977,0.04875 -1.54513,0.76062 -2.2934,0.84566c-0.09844,0.11674 -0.20179,0.17961 -0.20179,0.17961c-0.42717,0.25985 -0.85435,0.5197 -1.28152,0.77956l0.1716,0.22374c0,0 -0.17747,0.7287 -0.90617,0.55123z" fill="#000000" stroke="none" stroke-width="0.5"/><path d="" fill="#000000" stroke="none" stroke-width="0.5"/><path d="M215.51207,147.95724c1.11803,-2.23607 3.3541,-1.11803 3.3541,-1.11803l1.92135,1.39766c1.57416,2.63461 3.01587,4.4898 4.03451,7.437c0,0 0.79057,2.37171 -1.58114,3.16228c-2.37171,0.79057 -3.16228,-1.58114 -3.16228,-1.58114c-0.80963,-2.55509 -2.19575,-4.14955 -3.57856,-6.44566l0.13004,0.502c0,0 -2.23607,-1.11803 -1.11803,-3.3541z" fill="#ffced8" stroke="none" stroke-width="0.5"/><path d="M203.38069,142.58176c0,-1.38071 1.11929,-2.5 2.5,-2.5c1.38071,0 2.5,1.11929 2.5,2.5c0,1.38071 -1.11929,2.5 -2.5,2.5c-1.38071,0 -2.5,-1.11929 -2.5,-2.5z" fill="#ffced8" stroke="none" stroke-width="0.5"/><path d="M245.14832,198.50388c0,0.75 -0.75,0.75 -0.75,0.75h-0.51282c-1.30897,0 -2.60639,-0.04297 -3.90801,-0.13076c-0.54796,-0.03696 -1.11149,-0.59213 -1.60826,-0.35793c-0.42152,0.19872 -1.99757,2.54396 -2.54314,3.08954c0,0 -0.53033,0.53033 -1.06066,0c-0.53033,-0.53033 0,-1.06066 0,-1.06066c0.57278,-0.57278 2.24982,-3.04997 2.84147,-3.32072c1.33828,-0.61241 4.73133,0.28054 6.2786,0.28054h0.51282c0,0 0.75,0 0.75,0.75z" fill="#000000" stroke="none" stroke-width="0.5"/></g></g></svg>