<svg version="1.1" xmlns="http://www.w3.org/2000/svg" xmlns:xlink="http://www.w3.org/1999/xlink" width="632.14957" height="414.82994" viewBox="0,0,632.14957,414.82994"><g transform="translate(113.85592,10.47096)"><g data-paper-data="{&quot;isPaintingLayer&quot;:true}" fill-rule="nonzero" stroke-linejoin="miter" stroke-miterlimit="10" stroke-dasharray="" stroke-dashoffset="0" style="mix-blend-mode: normal"><path d="M217.1517,292.06138l0.48403,-49.85479l-192.15876,-0.96805l0.48403,-109.39012l0.48402,-50.53185l382.86544,0.96806v137.46369" fill="none" stroke="#000000" stroke-width="2" stroke-linecap="round"/><path d="M174.51571,80.75034l-1.36426,-49.11323l67.23354,2.24479l215.87609,-3.87222l-1.93611,223.62053l-96.32139,1.9361l1.45208,-120.52275l-290.90029,1.16108l-0.48403,54.21104l197.48306,1.45208l0.48403,99.22556" fill="none" stroke="#000000" stroke-width="2" stroke-linecap="round"/><path d="M476.67249,366.40862c-1.93937,0 -3.6443,-1.00377 -4.62359,-2.52013l-1.53246,-2.29869l0.28652,-0.19101c-0.09895,-0.1366 -0.19445,-0.27519 -0.28564,-0.41622l-0.50594,-0.33886c-0.0759,-0.37953 -0.14565,-0.76048 -0.21457,-1.14162c-0.09534,-0.32133 -0.15057,-0.65247 -0.18059,-0.98958c-0.11455,-0.60999 -0.23882,-1.21775 -0.39473,-1.81824c-0.30454,-1.17293 -2.05876,-1.33969 -2.84861,-2.25874c-0.07622,-0.08869 -0.14991,-0.17922 -0.22138,-0.27135c-1.03503,-0.81973 -1.76815,-2.00403 -2.00537,-3.35892c-0.15562,-0.25052 -0.31977,-0.49504 -0.49754,-0.72987c-0.68592,-0.90607 -1.75326,-1.48531 -2.40542,-2.41597c-3.02694,-4.31954 -5.28575,-9.08661 -8.99687,-12.8775c-3.44801,-3.52211 -8.59598,-5.84274 -12.35276,-9.21276c-1.20848,-1.08407 -2.05746,-2.56227 -3.37354,-3.51282c-2.06202,-1.48931 -4.79951,-1.70173 -7.1243,-2.73387c-5.09352,-2.26137 -10.06382,-4.81095 -15.23686,-6.89311c-8.63642,-2.13371 -16.17797,-7.12008 -25.04618,-8.46321c-1.33159,-0.20168 -2.71193,0.20995 -4.04029,-0.01196c-4.65711,-0.77798 -9.23079,-2.74017 -13.99711,-3.13316c-9.65629,-0.79617 -19.77038,0.02677 -29.47384,0.02677c0,0 -2.98307,0 -4.55537,-2.19692c-15.29163,0 -30.58327,0 -45.8749,0c-3.21073,-0.01147 -4.78386,0.20986 -8.06572,-0.98019c-0.81769,-0.29651 -1.30175,-1.2555 -2.13742,-1.49674c-0.87813,-0.25351 -1.8333,0.19934 -2.74056,0.08854c-4.51455,-0.55131 -11.2235,-1.80198 -13.71838,-5.98886c-2.19331,-3.68077 -1.11439,-9.77553 -1.11439,-13.86998c0,-9.74197 0,-19.48393 0,-29.2259c0,-14.21801 0,-28.43602 0,-42.65403c0,-3.42285 0,-6.84571 0,-10.26856c0,-0.26712 -0.00746,-0.53465 -0.0167,-0.80228c-2.05149,0.6975 -4.33403,1.15033 -5.82353,1.53731c-2.60545,0.6769 -5.12872,1.71823 -7.7878,2.13749c-5.57543,0.8791 -12.65867,-0.51812 -17.74389,-2.74567c-3.65356,-1.03834 -7.50422,-2.12046 -11.3956,-3.0776c-0.55594,0.33426 -1.00299,0.62529 -1.14797,0.76907c-0.83926,0.83232 -1.09106,2.31874 -2.1679,2.80609c-1.413,0.63949 -3.09737,0.38379 -4.64466,0.27708c-4.96331,-0.3423 -9.34719,-3.35875 -14.1669,-3.94335c-0.73539,0.5362 -1.49905,1.02378 -2.32433,1.4054c-0.90459,0.41831 -2.46126,0.44813 -4.08203,0.36347c-0.53554,1.54991 -2.35323,1.54991 -2.35323,1.54991l-3.26591,-0.21547c-1.32949,-1.14173 -2.65897,-2.28345 -3.98845,-3.42517c-3.70862,0.02101 -7.43959,-0.1103 -11.12524,-0.1103c-3.22017,0 -6.4212,0.16606 -9.624,0.2772c-1.50843,0.51251 -3.20537,0.27776 -4.71715,0.7823c-0.96383,0.32166 -1.57891,1.40085 -2.56455,1.64768c-1.41282,0.35381 -2.92182,-0.08026 -4.36845,0.08854c-4.37834,0.5109 -8.47008,0.80862 -12.94369,0.80862c-6.76511,0 -13.8619,0.72422 -20.4462,-0.88959c-11.12346,-3.78819 -23.00978,-2.55884 -34.55397,-3.55722c-1.80303,0.11344 -3.60591,0.26314 -5.41246,0.45294c-1.00327,0.10541 -5.70495,0.84825 -6.71779,0.41806l-2.22377,2.25448c-0.0529,-1.13219 -0.10581,-2.26438 -0.15871,-3.39657l-3.40318,-2.05463c0.62153,-0.18946 1.2468,-0.36694 1.87541,-0.53319c-0.01171,-0.01054 -0.02342,-0.02107 -0.03513,-0.03161c0,0 -1.63386,-1.63387 -0.1893,-3.33083c-0.14818,-0.91617 -0.27901,-1.87901 -0.60985,-2.86885c-0.37326,-1.11677 -1.21599,-2.03966 -1.57977,-3.15956c-0.78974,-2.43116 -0.58909,-5.07845 -0.90648,-7.61488c-0.27621,-2.20737 -0.7966,-4.40003 -0.80862,-6.62458c0,-3.46993 0.37486,-6.40152 0.80862,-9.78413c0.43838,-3.41853 -0.00514,-6.33559 0.8458,-9.77956c0.30479,-1.23358 1.63931,-6.88701 2.23737,-7.48055c3.05958,-3.03641 9.77666,-1.61139 13.37442,-2.26102c1.23642,-0.22325 2.24818,-1.15171 3.44991,-1.51836c2.67218,-0.81527 5.55759,-0.57841 8.33466,-0.88357c9.55691,-1.05015 18.72739,-3.97082 28.43602,-3.94945c8.26514,-2.06628 17.86145,-0.80862 26.37181,-0.80862c8.72253,0 17.98039,-0.86402 26.65857,0.02208c0.02247,0.0023 5.77076,1.54383 6.03236,1.57643c4.1623,0.51869 8.64954,-0.75471 12.77884,0.02138c2.71268,0.50985 5.21959,1.86645 7.93233,2.37597c10.45202,2.12523 22.27537,0.74347 32.95652,0.74347c18.69405,0 37.3881,0 56.08215,0c7.54871,0 15.09742,0 22.64613,0c3.3921,0 7.13766,-0.359 10.51491,0.01217c4.2354,0.4655 8.40585,1.89361 12.63823,2.36967c5.06994,0.57027 10.44569,-0.14571 15.55145,-0.01217c1.37309,0.03591 2.87421,-0.39616 4.11626,0.1903c4.21683,1.99105 3.64267,5.59859 5.86275,8.82184c5.39832,8.29735 3.57943,19.57812 3.57943,29.02498c0,4.54047 -0.46844,9.49174 -0.00852,14.0197c0.57827,5.69314 1.82882,12.25075 0.76612,17.98423c-0.60696,3.27469 -2.49347,6.2155 -3.15956,9.47868c-0.80741,3.95552 0.03228,8.9881 0.03228,13.02766c0,3.96078 -1.1082,9.4708 0.57617,13.20663c0.3902,0.86543 1.2144,1.49346 1.57978,2.36966c0.35731,0.85685 0.0604,1.94029 0.54714,2.73083c0.34145,0.55456 1.16168,0.59292 1.71288,0.93977c3.12719,1.96781 8.4768,2.89184 12.25688,2.01668c1.14715,-0.26559 2.01428,-1.30621 3.15956,-1.57978c3.97253,-0.94892 9.41841,-0.06688 13.47328,-0.06688c7.81438,0 16.61088,-1.29427 23.90879,1.62489c6.4246,-0.06793 12.84954,-0.04511 19.27447,-0.04511c2.05174,0 4.20487,0.83621 6.15229,0.1903c2.06777,-0.68582 4.10661,-6.98703 4.60287,-8.0665c1.75764,-3.82326 2.91839,-6.96001 3.34468,-11.19715c0.10924,-1.08572 -0.17808,-6.57443 0.09511,-7.58712c0.24726,-0.91656 1.33814,-1.45161 1.57978,-2.36966c0.54176,-2.05838 -0.11264,-4.25607 -0.10727,-6.38455c0.0091,-3.60324 0.81319,-6.71756 0.78988,-10.26856c0,-4.79984 -1.00354,-11.09464 0.10727,-15.73236c0.22112,-0.92321 1.36643,-1.44462 1.57978,-2.36966c0.30087,-1.30453 -0.08924,-2.67623 -0.10727,-4.01488c-0.06734,-4.99992 0,-10.00759 0,-15.0079c0,-13.95471 0,-27.90942 0,-41.86414c0,-26.1214 -0.78989,-52.10047 -0.78989,-78.19905c0,-3.42281 -0.00966,-6.84577 0,-10.26857c0.00439,-1.55616 -0.02853,-3.11311 0.02209,-4.66845c0.01361,-0.41827 0.53169,-1.03281 0.17032,-1.24385c-0.43805,-0.25583 -0.93946,0.3994 -1.43565,0.50489c-1.49933,0.31876 -3.02256,0.51239 -4.53454,0.76439c-3.13088,0.52181 -6.35881,0.26699 -9.48922,0.79162c-1.64233,0.27525 -3.10634,1.25372 -4.73933,1.57978c-1.05036,0.20972 -2.15775,-0.17387 -3.21326,0.00811c-1.62448,0.28007 -3.12642,1.09841 -4.75311,1.36536c-2.90073,0.47602 -5.88808,-0.0357 -8.81557,0.23007c-6.18417,0.56141 -12.18957,2.55949 -18.38407,3.07728c-4.42644,0.37 -8.97754,0.09079 -13.41771,0.09079c-30.87424,0 -61.7491,0.059 -92.62326,-0.00852c-1.8175,-0.31885 -3.69688,-0.38838 -5.45248,-0.95655c-0.83999,-0.27185 -1.32033,-1.28961 -2.17478,-1.51187c-2.5695,-0.66839 -5.3093,0.10727 -7.96432,0.10727c-6.30541,0 -12.84828,0.53475 -19.13457,-0.00628c-3.35522,-0.28877 -6.72232,-0.4439 -10.07143,-0.79664c-0.24464,-0.02576 -0.48753,-0.06186 -0.72904,-0.10604c-0.20972,0.1463 -0.44291,0.26126 -0.69281,0.33812l-3.32116,1.10706l-0.09349,-0.28046c-2.67746,1.52611 -5.34418,2.27529 -9.32424,2.28422h-1.12528c0,0 -2.5,0 -2.5,-2.5c0,-0.61415 0.15087,-1.07742 0.37848,-1.42689c-5.56392,-0.2224 -11.14318,-0.201 -16.77483,-0.19924c-1.55866,0.48 -3.09746,1.05481 -4.66479,1.49547c-6.14341,1.6755 -12.46426,3.77764 -18.77628,4.68791c-3.3594,0.48447 -6.80488,-0.11612 -10.17163,0.13728c-2.56463,0.19304 -5.0505,0.97177 -7.5848,1.41651l0.00063,0.00693l-0.03755,0.00342l0.04525,0.10964c-0.00814,3.1585 -0.79017,5.97467 -1.03937,9.09853c-0.42053,5.27159 0.88387,10.23756 1.02895,15.44923c0.01297,0.0195 0.024,0.0361 0.03299,0.04961c1.05324,1.5827 3.20717,4.58376 3.51256,6.34159c0.05948,0.34239 0.11655,0.69571 0.16242,1.05376c0.53406,-0.52044 1.1077,-1.01058 1.69518,-1.45208c1.48628,-3.22638 7.68461,-1.99903 10.75724,-1.99903c4.44196,0 9.76994,-0.52896 13.88552,1.20037c0.61204,-0.43726 1.21483,0.11071 1.21483,0.11071c0.58017,0.52989 1.11867,1.08763 1.62674,1.66676c0.7263,0.65489 1.37193,1.44699 1.91592,2.40412c0.0442,0.07775 0.08855,0.15277 0.13289,0.22534c0.26364,0.37305 0.52229,0.75038 0.77829,1.13062c0.08096,0.11477 0.15709,0.22662 0.22673,0.33844c0.39385,0.59059 0.78305,1.18721 1.17634,1.78483l-0.00614,0.12921l0.05363,-0.0195l0.0663,0.18233c1.92615,-0.15001 3.76402,-0.93538 5.68249,-1.18167c5.84399,-0.75024 12.15221,-0.03746 18.04807,-0.03746c4.71317,0 9.71095,0.45302 14.39314,0.03746c2.77539,-0.24632 5.52944,-0.8353 8.3157,-0.84849c20.02758,-0.09485 40.01767,0.40552 60.01622,0.40552c26.49365,0 52.98729,0 79.48094,0c4.26245,0.02766 7.68227,0.54361 11.71902,1.87864l0.04092,-0.25659c0,0 5,0 5,5c0,0.88617 -0.15706,1.61528 -0.4155,2.21516c0.00998,0.13863 0.00998,0.21793 0.00998,0.21793v3.24412c-0.02234,9.09605 -0.53729,18.12407 -0.01258,27.22058c0.12827,2.22379 -0.365,4.48189 -0.01953,6.68242c0.2797,1.78159 0.95965,3.48667 1.21654,5.27169c0.16717,1.16154 -0.06986,4.99077 0.01954,6.29406c0.45625,6.65123 0.44259,13.41104 1.19464,20.04402c0.72983,5.96917 0.44,12.01391 0.44,18.02333c0,3.71896 0.33084,7.6281 -0.01456,11.33015c-0.44086,4.72537 -1.68692,9.42818 -2.0256,14.16622c-0.44002,6.1559 0.01258,12.52852 0.01258,18.70476c0,0 0,5 -5,5c-5,0 -5,-5 -5,-5c0,-6.4162 -0.44407,-13.0169 0.01258,-19.41365c0.33995,-4.76204 1.56682,-9.47486 2.02955,-14.21983c0.33574,-3.4428 -0.01455,-7.10707 -0.01455,-10.56765c0,-5.60331 0.34222,-11.28907 -0.37104,-16.85097c-0.74215,-6.79646 -0.79611,-13.69709 -1.23845,-20.50749c-0.12685,-1.95302 0.32308,-3.93793 0.01954,-5.87139c-0.2797,-1.78159 -0.95965,-3.48667 -1.21654,-5.27169c-0.08153,-0.56651 0.0051,-6.69514 -0.01954,-7.10509c-0.5609,-9.33465 0.01528,-18.60059 -0.01258,-27.92947v-1.59215c-2.06002,-0.52663 -3.94392,-0.72763 -6.35442,-0.70712c-26.49365,0 -52.98729,0 -79.48094,0c-15.41785,0 -30.79206,-0.40552 -46.22871,-0.40552c-5.76059,0 -11.9206,-0.66084 -17.63726,-0.03746c-1.10808,0.12083 -2.13351,0.71621 -3.24412,0.81103c-5.10008,0.43545 -10.48298,0.03746 -15.61497,0.03746c-5.46004,0 -11.43889,-0.79248 -16.82623,-0.03746c-8.09113,1.13396 -16.14643,1.76318 -24.40729,1.24635c-7.45436,-0.46637 -14.81976,-2.34736 -22.24148,-3.27508c0,0 -1.89613,-0.23702 -3.19747,-1.5902c-6.27492,3.8623 -12.83103,3.04237 -20.29402,3.04237c-6.02838,0 -10.97655,0.30491 -16.72747,-1.61206c-4.59988,0.03208 -8.74521,-1.08902 -13.26525,-1.55882c-3.61968,-0.37622 -7.3675,0.29037 -10.99808,0.00503c-7.93529,-0.62365 -16.82926,-1.91703 -24.79378,-0.80233c-5.86576,0.82096 -11.54925,3.35651 -17.43669,3.95601c-3.35294,0.34143 -6.87019,-0.4284 -10.20944,-0.00656c-2.42789,0.3067 -4.7672,1.11276 -7.16812,1.58634c-3.49915,0.0125 -7.2866,0.34422 -10.76125,0c-2.97389,-0.29461 -5.90881,-0.9017 -8.85454,-1.40513c-0.28932,-0.04945 -0.57648,-0.14608 -0.86238,-0.25568v1.26378c0.32545,1.46465 0,3.00075 0,4.50113c0,4.75119 0,9.50238 0,14.25356c0,5.35022 0.57236,11.16203 -0.02416,16.47579c-0.23484,2.09186 -0.98857,4.16154 -1.57747,6.24589c0.13583,4.68643 -0.15311,9.4564 -0.15311,14.09475c0,5.2577 0.14105,10.32575 0.77116,15.49233c0.77387,6.34529 4.20171,11.95479 4.74955,18.26672c0.78339,9.02569 0.00852,18.52277 0.00852,27.58377c0,5.82207 -0.18828,10.56963 1.811,16.07094c2.92286,1.78377 6.24452,1.08951 9.34765,2.45248c4.1707,1.83187 7.90102,5.45654 11.51366,8.16311c1.88787,1.41438 3.28899,3.76405 5.57001,4.36528c0.86418,0.22778 1.79069,-0.1902 2.67938,-0.09573c2.7964,0.29725 5.19772,1.24702 7.97641,1.58868c12.32831,1.51587 24.99475,0.74161 37.38464,0.77734c16.83964,-2.8066 34.13518,-0.21598 51.07982,-1.58023c3.28086,-0.26415 6.4684,-1.2916 9.74723,-1.57978c1.21122,-0.10646 2.46342,0.31965 3.64741,0.04299c2.79065,-0.65208 5.38937,-2.26089 8.25099,-2.41619c6.84494,-0.37148 13.83313,-0.00454 20.68769,-0.00454c3.33841,0 8.59228,-0.90366 11.78292,0.10727c3.89012,1.23256 5.42255,5.10421 7.04083,8.3837c4.88347,9.89646 3.71443,21.40512 2.62508,32.12992c-0.30474,3.00027 -0.39356,6.76746 -0.01021,9.75691c0.28295,2.20652 0.99707,4.40798 0.80862,6.62457c-0.14067,1.65451 0.4109,3.72298 -0.73223,4.92732c-1.07318,1.13065 -3.08125,0.47567 -4.62187,0.7135c-4.19647,1.04912 -8.43141,1.12178 -12.69734,1.58634c-3.75478,0.4089 -7.28935,2.0281 -11.05846,2.36967c-2.89071,0.26198 -5.78773,0.46218 -8.67193,0.78816c-5.21919,0.5899 -10.80466,0.01389 -16.06098,0.01389c-8.58013,0 -17.16024,0 -25.74036,0c-1.00357,1.33414 -2.60007,2.19691 -4.39809,2.19691h-3.60517c-6.02316,1.03873 -11.57524,3.09022 -17.72185,3.15956c-4.75583,0 -10.35954,-0.86732 -15.03493,-0.05316c-3.281,0.57135 -6.39003,2.02406 -9.69957,2.39606c-3.13979,0.35292 -6.32879,-0.24713 -9.47867,0c-1.33844,0.10501 -2.61133,0.68084 -3.94945,0.78989c-6.6634,0.54305 -13.59789,0.02677 -20.28919,0.02677c-3.18786,0 -7.03696,-0.46037 -10.1475,0.52029c-5.2064,1.64143 -9.91175,4.41733 -15.39387,5.38016c-2.79129,2.04473 -6.02168,3.45419 -8.48424,5.91675c-1.7708,1.7708 -3.4171,3.67064 -4.95648,5.64594c-0.83286,1.06871 -1.04965,2.5438 -1.91838,3.58356c-1.65179,1.97699 -3.45261,2.42568 -4.62263,4.90425c-0.92102,1.95108 -0.31971,5.22682 -0.31971,7.25363c0,5.26593 0,10.53186 0,15.79779c0,0 0,5.5 -5.5,5.5c-0.14917,0 -0.29431,-0.00404 -0.4355,-0.01192c-0.42145,1.23474 -1.00651,2.49198 -1.77751,3.839l-6.23313,-2.26498c-0.74709,0.40839 -1.51678,0.79375 -2.20169,1.26546l0.98811,-0.58895c0,0 -3.88909,3.88909 -7.77817,0c-3.88908,-3.88909 0,-7.77818 0,-7.77818l1.87072,-1.47157c1.12448,1.84534 -0.34822,-0.41586 -0.08244,-1.31425c0.22787,-0.77024 1.17723,-1.11068 1.63275,-1.77226c0.08718,-0.12662 -0.39104,0.20322 -0.45669,0.06421c-0.46159,-0.97724 -0.64919,-2.06175 -0.97377,-3.09262c-0.05959,-3.33158 0.25258,-7.02644 -0.39068,-10.32201c-0.76224,-3.90517 -1.82531,-7.76577 -0.80469,-11.88591c0.33056,-1.33442 2.82516,-5.20624 4.07137,-6.35125c0.37355,-0.34322 0.9065,-0.4771 1.3656,-0.70296c0.02563,-0.0677 0.05157,-0.13503 0.07781,-0.202c0.02146,-0.05477 0.04315,-0.10949 0.06507,-0.1642c-0.21558,0.05052 -0.44041,0.0788 -0.50638,-0.03935c-0.66013,-1.18232 -0.97915,-2.54096 -1.23025,-3.87159c-0.33185,-1.75853 -0.60955,-3.52706 -0.88261,-5.29568c-0.90808,-5.88162 1.28193,-11.46593 1.71321,-17.22478c0,0 0.19643,-2.35722 1.87753,-3.85112c0,-1.44884 0,-3.07634 0,-3.71468c0,0 0,-1.6944 1.39493,-2.29333c0,-0.2305 0,-0.46099 0,-0.69149c0,-1.86523 0.65381,-3.81129 0.10727,-5.59465c-0.27817,-0.90766 -1.33252,-1.4531 -1.57978,-2.36966c-1.03742,-3.84557 -0.10727,-9.36696 -0.10727,-13.3627c0,-8.42549 0,-16.85097 0,-25.27646c0,-10.04403 -0.78989,-19.9281 -0.78989,-30.01579c0,-3.82527 -0.82196,-8.70175 0.06688,-12.42273c0.27358,-1.14527 1.2908,-2.01807 1.57978,-3.15956c0.2365,-0.93421 -0.16823,-1.93446 -0.04814,-2.89063c0.27056,-2.15428 1.31005,-4.16474 1.57978,-6.31912c0.68791,-5.49442 -0.01873,-11.51933 -0.01873,-17.07211c0,-25.01316 0,-50.02633 0,-75.03949c0,-3.56199 -0.43155,-6.50662 -0.77772,-10.02222c-0.69292,-7.03698 -0.01216,-14.49597 -0.01216,-21.57335c0,-14.21801 0,-28.43602 0,-42.65403c0.02157,-3.28731 -1.63537,-6.30613 -1.57978,-9.47867c0.04107,-2.34375 1.56822,-4.42773 2.58339,-6.54061c0.63465,-1.3209 0.31547,-3.31009 1.53765,-4.11868c2.58037,-1.70718 9.55327,-0.48289 12.41343,0.33505c0.72288,0.20672 1.38531,0.87793 2.12653,0.75193c0.76492,-0.13003 1.1146,-1.14986 1.83964,-1.42615c1.34684,-0.51325 2.84764,-0.48601 4.2319,-0.88755c4.34559,-1.26056 9.47187,-4.55469 14.00643,-4.83013c4.61176,-0.28013 5.85936,3.13024 9.24965,5.07522c3.09862,1.77764 6.45693,2.10665 9.88111,2.97712c6.07191,3.03596 12.21845,2.21438 18.87987,2.21438c9.74953,0 19.37548,0.07733 29.08824,0.74921c3.28032,0.22691 6.42424,0.85959 9.52618,1.61086c-0.00799,-0.13535 -0.01211,-0.27469 -0.01211,-0.41814c0,-5 5,-5 5,-5c5.9424,0.05904 10.91272,2.08346 15.99603,4.13268c2.29837,-0.19684 4.59905,-0.39805 6.90054,-0.60633c0.6977,-0.90344 1.6977,-1.5615 2.84846,-1.82265l2.66688,-0.66672c1.72442,-0.84853 3.31607,-2.08946 5.19446,-2.483c2.43679,-0.51052 4.97826,-0.11557 7.46788,-0.13375c4.4846,-0.03277 8.84482,0.30227 13.12658,0.9709c4.5057,-0.77091 8.92917,-1.4808 13.70339,-2.09161c1.34294,-0.25506 2.27196,-0.4157 2.44141,-0.40334c0.06566,0.00479 0.13125,0.00996 0.19678,0.0155l-0.00451,-0.04065l7.03681,-0.78186c0.20454,-0.02548 0.41292,-0.0386 0.62436,-0.0386c2.76143,0 5,2.23858 5,5c0,0.36597 -0.03932,0.72276 -0.11397,1.06637c1.20917,0.02761 2.41701,0.0651 3.62314,0.11367c0.62267,-0.29088 1.25043,-0.56371 1.91811,-0.70718c3.31107,-0.71144 8.20443,-0.04511 11.53122,-0.04511c6.23758,0 13.06868,-0.73735 19.26281,0.01873c1.0776,0.13153 2.07915,0.68381 3.15955,0.78989c5.98569,0.58771 12.19283,-0.72841 18.16746,0c5.21352,0.63563 10.56301,1.86594 15.79778,2.36967c10.46891,1.0074 21.55578,-0.01873 32.08001,-0.01873c3.08342,0.00579 5.707,0.25514 8.70556,-0.66735c1.12545,-0.34623 2.03115,-1.24333 3.15956,-1.57978c5.64833,-1.68409 11.54432,-1.70232 17.36079,-1.70232c1.36007,0 6.92523,-0.14093 7.96874,0.61667c0.20533,-0.06895 0.41132,-0.13439 0.61811,-0.19552c-0.00023,-0.01964 -0.00034,-0.03931 -0.00034,-0.05901c0,-2.76142 2.23858,-5 5,-5c7.76701,0 24.10404,0 29.49447,0c2.73025,0 5.70735,-1.02133 8.32473,-0.55436c1.021,-0.02647 2.08588,0.05704 3.06253,-0.06556c4.95776,-0.62234 10.03269,-1.28159 15.01817,-1.60692c5.94633,-0.38803 13.49984,-1.27902 19.38164,-0.21203c3.77188,0.68423 5.60404,2.12634 9.07217,3.25334c6.93859,2.25476 15.07383,4.7768 22.36929,5.41533c6.20089,0.54273 12.74054,-0.01216 18.97167,-0.01216c2.21632,0.01039 7.21598,-0.41029 8.81885,1.75136c1.09465,1.47626 0.41717,3.65359 0.52949,5.48798c0.25721,4.20081 -1.01628,9.43606 -0.10727,13.49355c0.18591,0.82982 1.14854,1.29682 1.47334,2.08274c1.33578,3.23223 0.87635,6.55446 1.71885,9.88372c0.5655,2.23469 0.6487,4.60254 1.46412,6.75863c0.3641,0.96274 1.39181,1.60894 1.66281,2.60192c0.13635,0.4996 0.10727,6.19704 0.10727,7.04357c0,6.13007 0.83823,12.1161 -1.84371,17.70571c-3.66343,7.31532 -4.4754,13.70512 -4.4754,21.78876c0,3.08304 -0.801,7.49083 -0.06688,10.48407c0.49371,2.01303 2.656,3.35887 3.11917,5.37915c0.32768,1.42928 -0.04753,8.24204 0.09875,9.99693c0.26609,3.19207 1.26374,6.29116 1.57978,9.47867c0.64465,6.50191 0.00852,13.42052 0.00852,19.95344c0,13.3386 0,26.6772 0,40.0158c0,6.05293 0.77956,12.69914 -0.01493,18.70881c-0.22158,1.67609 -0.85937,3.27835 -1.09358,4.95271c-1.0589,7.56993 -0.47127,15.59539 -0.47127,23.21052c-0.01504,1.21078 0.20864,2.44834 -0.04511,3.63233c-0.29713,1.38641 -1.29282,2.56089 -1.57978,3.94944c-0.91267,4.41634 0.53406,9.48126 0.03294,13.99158c-0.46789,4.21117 -1.66176,8.46515 -2.91267,12.58262c1.71638,0.8177 2.94227,2.49865 3.11613,4.48135l0.43525,4.35255l-0.26535,0.02653c0.10309,0.25956 0.19875,0.52255 0.28608,0.78938c0.38619,1.18 0.00305,2.42224 -0.43475,3.65525c0,6.48845 0,12.97689 0,19.46534c0,3.98505 0.44327,8.53101 -0.03284,12.51541c-0.16091,1.34663 -0.78105,2.61936 -0.88261,3.97176c-1.0661,14.19574 0.03284,28.83559 0.03284,43.08917c0,0 0,0.8254 -0.31975,1.8367c1.0786,1.21488 1.98715,3.18777 0.62171,5.91865c-2.45968,4.91935 -7.37903,2.45968 -7.37903,2.45968l-0.20902,-0.11272c-0.06495,0.00227 -0.1302,0.00342 -0.19571,0.00342zM41.39789,300.05791c-0.06843,0 -0.13686,0 -0.20529,0c-0.00809,0.0276 -0.01639,0.05511 -0.02491,0.08253c0.07671,-0.02761 0.15344,-0.05513 0.2302,-0.08253zM257.3775,189.80936c0.1514,-0.04888 0.313,-0.10048 0.48265,-0.15339c-0.28735,0.00019 -0.5747,0.00033 -0.86205,0.00043c0.12622,0.05179 0.25266,0.10283 0.3794,0.15296zM245.06126,192.39409c0.96735,0.04179 1.9121,0.02514 2.81146,-0.05992c-0.93599,0.01853 -1.87344,0.03976 -2.81146,0.05992zM156.91356,49.22781l-0.00961,0.02941c0.00589,0.00709 0.01178,0.0142 0.01769,0.02129c-0.00269,-0.0169 -0.00539,-0.0338 -0.00807,-0.0507z" fill="#000000" stroke="none" stroke-width="0.5" stroke-linecap="butt"/><path d="M-113.85592,218.40113c0,-2.76143 2.23857,-5 5,-5c2.76143,0 5,2.23857 5,5c0,2.76143 -2.23857,5 -5,5c-2.76143,0 -5,-2.23857 -5,-5z" fill="#000000" stroke="none" stroke-width="0.5" stroke-linecap="butt"/><path d="M200.23475,53.21767c0,3.8336 -3.45862,6.94134 -7.72504,6.94134c-4.26642,0 -7.72503,-3.10774 -7.72503,-6.94134c0,-3.8336 3.45861,-6.94133 7.72503,-6.94133c4.26642,0 7.72504,3.10774 7.72504,6.94133z" fill="#cac215" stroke="#b7af12" stroke-width="2" stroke-linecap="butt"/><path d="M189.26295,66.65251v-6.94133h6.49351v6.94133z" fill="#cac215" stroke="#b7af12" stroke-width="2" stroke-linecap="butt"/><path d="M181.64989,70.01123v-4.03045h21.49575v4.03045z" fill="#cac215" stroke="#b7af12" stroke-width="2" stroke-linecap="butt"/><path d="M197.52349,53.32952c-1,0 -1,-1 -1,-1v-0.13763c0.00462,-2.48203 -1.65337,-3.06577 -3.95405,-3.7178c0,0 -0.96152,-0.27472 -0.6868,-1.23625c0.27472,-0.96153 1.23624,-0.6868 1.23624,-0.6868c3.13371,0.90172 5.39877,2.12872 5.40461,5.64085v0.13763c0,0 0,1 -1,1z" fill="#fff419" stroke="#b7af12" stroke-width="0.5" stroke-linecap="butt"/><path d="M201.6157,68.29428c0,-0.13495 0.02674,-0.26365 0.07519,-0.38111c-0.50579,-0.04973 -0.90095,-0.4763 -0.90095,-0.99516c0,-0.55228 0.44771,-1 1,-1c0.55229,0 1,0.44772 1,1c0,0.13495 -0.02673,0.26366 -0.07519,0.38112c0.50579,0.04973 0.90095,0.47629 0.90095,0.99515c0,0.55228 -0.44771,1 -1,1c-0.55229,0 -1,-0.44772 -1,-1z" fill="#fff419" stroke="#b7af12" stroke-width="0.5" stroke-linecap="butt"/><path d="M194.35807,60.41292c1,0 1,1 1,1l-0.00772,0.28885c0.09509,0.77103 0.14406,1.5492 0.14535,2.32607c0,0 0,1 -1,1c-1,0 -1,-1 -1,-1c0.00129,-0.69402 -0.04255,-1.3895 -0.1299,-2.078l-0.00772,-0.53692c0,0 0,-1 1,-1z" fill="#fff419" stroke="#b7af12" stroke-width="0.5" stroke-linecap="butt"/><path d="M193.35807,58.24749c0,-0.55228 0.44771,-1 1,-1c0.55229,0 1,0.44772 1,1c0,0.55228 -0.44771,1 -1,1c-0.55229,0 -1,-0.44772 -1,-1z" fill="#fff419" stroke="#b7af12" stroke-width="0.5" stroke-linecap="butt"/><path d="M518.04365,373.69824c0,16.79539 -123.24547,30.41074 -275.27646,30.41074c-152.03099,0 -275.27646,-13.61535 -275.27646,-30.41074c0,-16.79539 123.24547,-30.41075 275.27646,-30.41075c152.03099,0 275.27646,13.61536 275.27646,30.41075z" fill="#909090" stroke="#6a6a6a" stroke-width="0.5" stroke-linecap="butt"/><path d="M265.93292,358.49419c0.10907,4.50841 -31.54818,8.93124 -70.70845,9.87867c-39.16028,0.94743 -70.99437,-1.93932 -71.10345,-6.44774c-0.10907,-4.50841 31.54818,-8.93124 70.70845,-9.87867c39.16028,-0.94743 70.99437,1.93932 71.10345,6.44774z" fill="#515151" stroke="none" stroke-width="0" stroke-linecap="butt"/><path d="M336.05086,354.01288c-0.04049,1.90323 -9.78433,3.23948 -21.76347,2.98461c-11.97914,-0.25488 -21.65732,-2.00436 -21.61682,-3.90759c0.04049,-1.90323 9.78433,-3.23948 21.76347,-2.98461c11.97914,0.25488 21.65732,2.00436 21.61682,3.90759z" fill="#515151" stroke="none" stroke-width="0" stroke-linecap="butt"/><path d="M25.22852,372.00232c-5.71097,0 -10.34063,-3.26799 -10.34063,-7.29927c0,-4.03128 4.62966,-7.29927 10.34063,-7.29927c5.71097,0 10.34063,3.26799 10.34063,7.29927c0,4.03128 -4.62966,7.29927 -10.34063,7.29927z" fill="#515151" stroke="none" stroke-width="0" stroke-linecap="butt"/><path d="M428.22165,371.27236c-0.88073,9.02751 -14.06282,15.12935 -29.44302,13.62884c-15.3802,-1.50051 -27.13434,-10.03515 -26.25361,-19.06266c0.88073,-9.02751 14.06282,-15.12935 29.44302,-13.62884c15.3802,1.50051 27.13434,10.03515 26.25361,19.06266z" fill="#515151" stroke="none" stroke-width="0" stroke-linecap="butt"/><path d="M154.32441,344.3097c0,0.25 -0.25,0.25 -0.25,0.25l-0.20804,-0.00485c-0.45023,-0.09237 -0.92192,-0.10116 -1.38211,-0.10116c-1.74017,0 -3.40614,-0.03737 -5.07022,0.10651c0.01147,0.02538 0.01972,0.05555 0.0233,0.09141c0.02488,0.24876 -0.22389,0.27363 -0.22389,0.27363c-0.14239,0.01419 -0.28478,0.02839 -0.42717,0.04259l-0.25169,0.04195c-0.01483,0.00274 -0.03012,0.00418 -0.04575,0.00418c-0.13807,0 -0.25,-0.11193 -0.25,-0.25c0,-0.02456 0.00354,-0.04829 0.01014,-0.07072c-0.63773,0.09193 -1.27765,0.21785 -1.92381,0.38999c-2.78988,0.54751 -5.77065,-0.25569 -8.57926,0.36913c-2.38404,0.73579 -5.8002,0.27346 -8.32446,0.27346c-2.95026,0 -5.82388,0.42404 -8.78469,0.42404c-2.31289,0 -4.46503,0.59669 -6.79574,0.20862c0,0 -0.05987,-0.00998 -0.1157,-0.0496c-0.43997,0.00189 -0.88951,0.01609 -1.31144,0.10242c-2.94491,0.41306 -5.94648,0.68018 -8.93329,1.01031c-2.90018,0.00398 -5.78718,0.05698 -8.68784,0.05268c-2.99519,0.4561 -5.80864,0.97308 -8.90165,1.16585c-2.76579,0.31977 -6.66766,-0.66258 -9.22513,0.41415c-2.56565,0.5217 -5.52724,0.96114 -8.17756,0.78566c-0.22344,-0.01513 -0.44249,-0.02603 -0.65786,-0.03301c0.03625,0.03703 0.06325,0.09218 0.06325,0.17434c0,0.25 -0.25,0.25 -0.25,0.25h-0.10601c-1.95405,0 -3.91131,0.1317 -5.84385,0.16503c-2.79787,0.02123 -5.97217,1.1078 -8.82482,1.42476c-2.7127,0.00237 -5.4027,0.83053 -8.14118,0.90879c-2.89164,0.26214 -5.63794,0.38569 -8.42703,1.20916c-2.69266,0.01752 -5.11579,0.25775 -7.72234,0.58038c-2.86005,0.95732 -5.45678,0.63517 -8.49095,0.9934c-0.58844,0.47463 -3.64362,1.35516 -4.99852,0.93428l-0.20712,-0.00804c-0.06854,-0.05476 -0.13314,-0.12036 -0.18875,-0.19323c-0.17961,-0.14787 -0.27327,-0.35478 -0.24843,-0.63404c0,0 0.0411,-0.2466 0.2877,-0.2055c0.15618,0.02603 0.19695,0.13449 0.20586,0.21053c0.07132,0.07404 0.07132,0.18237 0.07132,0.18237c-0.00523,0.02771 -0.01044,0.06356 -0.00783,0.09528c0.03539,0.02553 0.08171,0.04627 0.13596,0.06298l0.07491,-0.00556c0,0 0.0862,0 0.15736,0.05061c0.35542,0.04071 0.82248,0.00079 0.99977,-0.01592c1.43971,-0.13576 2.35142,-0.08567 3.52642,-0.9357c3.02294,-0.48077 5.69711,-0.06428 8.57138,-1.019c2.61666,-0.33675 5.0549,-0.60896 7.76066,-0.58754c2.79018,-0.85163 5.5733,-0.94948 8.47048,-1.21361c2.74151,-0.06379 5.42716,-0.91141 8.14269,-0.90888c2.87904,-0.31989 6.01524,-1.37186 8.84562,-1.42547c0.09859,-0.00095 0.19728,-0.00223 0.29605,-0.00381c2.2537,-0.33904 4.16046,-0.70738 6.53853,-0.55149c2.59526,0.17427 5.48526,-0.2733 7.99841,-0.76501c2.62515,-1.08306 6.50037,-0.10845 9.32676,-0.43394c3.09789,-0.19414 5.90706,-0.70938 8.90817,-1.16638c2.90398,-0.00399 5.79448,-0.05776 8.69793,-0.05334c2.96734,-0.3316 5.95299,-0.57926 8.87653,-1.00389c0.57939,-0.11354 1.20093,-0.1095 1.79139,-0.1096h0.10601c0,0 0.16019,0 0.22411,0.12823c2.1008,0.22338 4.07531,-0.28724 6.18578,-0.28724c2.96072,0 5.8341,-0.42404 8.78469,-0.42404c2.46844,0 5.87263,0.47516 8.19573,-0.2566c2.81699,-0.6253 5.80964,0.1934 8.59449,-0.37294c2.76617,-0.7384 5.42414,-0.64259 8.27259,-0.64259c0.49444,0 0.99541,0.01599 1.48018,0.11086l0.10998,-0.00486c0,0 0.25,0 0.25,0.25z" fill="#515151" stroke="none" stroke-width="0.5" stroke-linecap="butt"/><path d="M175.66575,312.96902c-0.36454,-2.17838 -1.4212,-4.46836 -2.26143,-6.46638c-0.43858,-1.04292 -1.5588,-5.09735 -2.9609,-5.55722c-0.79836,-0.26185 -1.63514,0.39872 -2.46688,0.51777c0,0 -1.23744,0.17678 -1.41422,-1.06066c-0.17677,-1.23744 1.06066,-1.41421 1.06066,-1.41421c0.0591,-0.00842 1.4198,-0.20556 2.41097,-0.34091c0.36906,-0.40947 0.96305,-0.40947 0.96305,-0.40947h0.98377c2.55665,0 8.68358,-1.28413 10.01261,1.76484c0.52544,1.20543 -0.03622,5.55609 -0.16073,6.98659c-0.24574,2.82333 -2.28438,5.40507 -2.72184,8.2293c-0.45683,2.94928 -0.36495,5.46706 -0.84446,8.10145c0.02728,0.25469 0.06078,0.50874 0.10146,0.76202h0.02773v1.72159c0,0.69036 -0.55964,1.25 -1.25,1.25c-0.69036,0 -1.25,-0.55964 -1.25,-1.25v-1.39611c-0.6368,-3.76226 0.39364,-7.71312 -0.2298,-11.43859z" fill="#6e6e6e" stroke="none" stroke-width="0.5" stroke-linecap="butt"/><path d="M194.93039,206.31137c-0.36454,-2.17838 -1.4212,-4.46836 -2.26143,-6.46637c-0.43858,-1.04292 -1.5588,-5.09736 -2.9609,-5.55723c-0.79836,-0.26185 -1.63514,0.39872 -2.46688,0.51777c0,0 -1.23744,0.17677 -1.41422,-1.06066c-0.17677,-1.23744 1.06066,-1.41421 1.06066,-1.41421c0.0591,-0.00842 1.4198,-0.20556 2.41097,-0.34091c0.36906,-0.40947 0.96305,-0.40948 0.96305,-0.40948h0.98377c2.55665,0 8.68358,-1.28413 10.01262,1.76484c0.52544,1.20543 -0.03622,5.55609 -0.16073,6.98659c-0.24574,2.82333 -2.28438,5.40507 -2.72183,8.2293c-0.45683,2.94928 -0.36495,5.46706 -0.84446,8.10145c0.02728,0.25469 0.06078,0.50874 0.10146,0.76202h0.02773v1.7216c0,0.69036 -0.55964,1.25 -1.25,1.25c-0.69036,0 -1.25,-0.55964 -1.25,-1.25v-1.39611c-0.6368,-3.76226 0.39364,-7.71312 -0.2298,-11.43859z" fill="#6e6e6e" stroke="none" stroke-width="0.5" stroke-linecap="butt"/><path d="M201.06324,323.09428v1.39611c0,0.69036 -0.55964,1.25 -1.25,1.25c-0.69036,0 -1.25,-0.55964 -1.25,-1.25v-1.72159h0.02773c0.04068,-0.25329 0.07418,-0.50733 0.10146,-0.76202c-0.47951,-2.63439 -0.38763,-5.15217 -0.84446,-8.10145c-0.43745,-2.82423 -2.47609,-5.40597 -2.72183,-8.22929c-0.12451,-1.4305 -0.68617,-5.78117 -0.16073,-6.9866c1.32904,-3.04897 7.45597,-1.76484 10.01262,-1.76484h0.98377c0,0 0.594,0 0.96305,0.40947c0.99116,0.13536 2.35187,0.33249 2.41097,0.34091c0,0 1.23743,0.17678 1.06066,1.41421c-0.17677,1.23744 -1.41421,1.06066 -1.41421,1.06066c-0.83174,-0.11905 -1.66852,-0.77962 -2.46688,-0.51777c-1.40211,0.45987 -2.52232,4.51431 -2.9609,5.55723c-0.84023,1.99802 -1.89689,4.28799 -2.26143,6.46637c-0.62344,3.72547 0.407,7.67633 -0.2298,11.43859z" data-paper-data="{&quot;index&quot;:null}" fill="#6e6e6e" stroke="none" stroke-width="0.5" stroke-linecap="butt"/><path d="M289.19162,324.15921v1.39611c0,0.69036 -0.55964,1.25 -1.25,1.25c-0.69036,0 -1.25,-0.55964 -1.25,-1.25v-1.72159h0.02773c0.04068,-0.25329 0.07418,-0.50733 0.10146,-0.76202c-0.47951,-2.63439 -0.38764,-5.15217 -0.84446,-8.10145c-0.43745,-2.82423 -2.47609,-5.40597 -2.72183,-8.2293c-0.12451,-1.4305 -0.68617,-5.78116 -0.16073,-6.98659c1.32903,-3.04897 7.45597,-1.76484 10.01261,-1.76484h0.98377c0,0 0.594,0 0.96305,0.40947c0.99116,0.13536 2.35186,0.33249 2.41096,0.34091c0,0 1.23744,0.17678 1.06066,1.41421c-0.17678,1.23744 -1.41421,1.06066 -1.41421,1.06066c-0.83173,-0.11905 -1.66852,-0.77962 -2.46688,-0.51777c-1.40211,0.45987 -2.52233,4.51431 -2.96091,5.55723c-0.84022,1.99802 -1.89689,4.28799 -2.26143,6.46637c-0.62344,3.72547 0.407,7.67633 -0.2298,11.43859z" data-paper-data="{&quot;index&quot;:null}" fill="#6e6e6e" stroke="none" stroke-width="0.5" stroke-linecap="butt"/><path d="M404.38338,331.82291v1.39611c0,0.69036 -0.55964,1.25 -1.25,1.25c-0.69036,0 -1.25,-0.55964 -1.25,-1.25v-1.7216h0.02773c0.04068,-0.25329 0.07418,-0.50733 0.10146,-0.76202c-0.47951,-2.63439 -0.38764,-5.15217 -0.84446,-8.10145c-0.43745,-2.82423 -2.47609,-5.40597 -2.72183,-8.2293c-0.12451,-1.4305 -0.68617,-5.78116 -0.16073,-6.98659c1.32903,-3.04897 7.45597,-1.76484 10.01262,-1.76484h0.98377c0,0 0.594,0 0.96305,0.40947c0.99116,0.13536 2.35186,0.33249 2.41096,0.34091c0,0 1.23744,0.17678 1.06066,1.41421c-0.17678,1.23744 -1.41422,1.06066 -1.41422,1.06066c-0.83173,-0.11905 -1.66852,-0.77962 -2.46688,-0.51777c-1.40211,0.45987 -2.52233,4.5143 -2.96091,5.55722c-0.84022,1.99802 -1.89689,4.28799 -2.26143,6.46638c-0.62344,3.72547 0.407,7.67633 -0.2298,11.43859z" data-paper-data="{&quot;index&quot;:null}" fill="#6e6e6e" stroke="none" stroke-width="0.5" stroke-linecap="butt"/><path d="M59.81386,322.48016c-0.36454,-2.17838 -1.42121,-4.46836 -2.26143,-6.46638c-0.43858,-1.04292 -1.55879,-5.09735 -2.9609,-5.55723c-0.79836,-0.26185 -1.63515,0.39872 -2.46688,0.51777c0,0 -1.23744,0.17677 -1.41421,-1.06066c-0.17677,-1.23744 1.06066,-1.41421 1.06066,-1.41421c0.0591,-0.00842 1.41981,-0.20556 2.41097,-0.34091c0.36906,-0.40947 0.96305,-0.40948 0.96305,-0.40948h0.98377c2.55665,0 8.68358,-1.28413 10.01262,1.76484c0.52545,1.20543 -0.03622,5.5561 -0.16073,6.9866c-0.24574,2.82333 -2.28438,5.40506 -2.72183,8.22929c-0.45683,2.94928 -0.36495,5.46706 -0.84446,8.10145c0.02728,0.25469 0.06078,0.50874 0.10146,0.76202h0.02773v1.7216c0,0.69036 -0.55965,1.25 -1.25,1.25c-0.69035,0 -1.25,-0.55964 -1.25,-1.25v-1.39611c-0.6368,-3.76226 0.39364,-7.71312 -0.2298,-11.43859z" fill="#6e6e6e" stroke="none" stroke-width="0.5" stroke-linecap="butt"/><path d="M149.03458,204.53727c-0.36454,-2.17838 -1.4212,-4.46836 -2.26143,-6.46637c-0.43858,-1.04292 -1.5588,-5.09736 -2.96091,-5.55723c-0.79836,-0.26185 -1.63514,0.39872 -2.46688,0.51777c0,0 -1.23744,0.17677 -1.41422,-1.06066c-0.17677,-1.23744 1.06066,-1.41421 1.06066,-1.41421c0.0591,-0.00842 1.4198,-0.20556 2.41096,-0.34091c0.36906,-0.40947 0.96306,-0.40947 0.96306,-0.40947h0.98377c2.55665,0 8.68358,-1.28413 10.01261,1.76483c0.52544,1.20543 -0.03622,5.5561 -0.16073,6.9866c-0.24574,2.82333 -2.28438,5.40506 -2.72183,8.22929c-0.45683,2.94928 -0.36495,5.46706 -0.84446,8.10145c0.02728,0.25469 0.06078,0.50874 0.10146,0.76202h0.02773v1.7216c0,0.69036 -0.55964,1.25 -1.25,1.25c-0.69036,0 -1.25,-0.55964 -1.25,-1.25v-1.39611c-0.6368,-3.76226 0.39364,-7.71312 -0.2298,-11.43859z" fill="#6e6e6e" stroke="none" stroke-width="0.5" stroke-linecap="butt"/><path d="M106.21785,215.65156v1.39611c0,0.69036 -0.55965,1.25 -1.25,1.25c-0.69035,0 -1.25,-0.55964 -1.25,-1.25v-1.7216h0.02773c0.04068,-0.25329 0.07418,-0.50733 0.10146,-0.76202c-0.47952,-2.63439 -0.38764,-5.15217 -0.84446,-8.10145c-0.43745,-2.82423 -2.47609,-5.40597 -2.72183,-8.2293c-0.12451,-1.4305 -0.68618,-5.78116 -0.16073,-6.98659c1.32904,-3.04897 7.45597,-1.76484 10.01261,-1.76484h0.98377c0,0 0.594,0 0.96306,0.40948c0.99116,0.13536 2.35186,0.33249 2.41096,0.34091c0,0 1.23744,0.17677 1.06066,1.41421c-0.17678,1.23744 -1.41421,1.06066 -1.41421,1.06066c-0.83173,-0.11905 -1.66851,-0.77962 -2.46688,-0.51777c-1.40211,0.45987 -2.52233,4.51431 -2.96091,5.55723c-0.84023,1.99802 -1.89689,4.28799 -2.26143,6.46637c-0.62344,3.72547 0.407,7.67633 -0.2298,11.43859z" data-paper-data="{&quot;index&quot;:null}" fill="#6e6e6e" stroke="none" stroke-width="0.5" stroke-linecap="butt"/><path d="M173.65734,112.09738v1.46582c0,0.72482 -0.55964,1.31241 -1.25,1.31241c-0.69036,0 -1.25,-0.58759 -1.25,-1.31241v-1.80755h0.02773c0.04068,-0.26593 0.07418,-0.53266 0.10146,-0.80007c-0.47951,-2.76591 -0.38763,-5.4094 -0.84446,-8.50593c-0.43745,-2.96524 -2.47609,-5.67587 -2.72183,-8.64016c-0.12451,-1.50192 -0.68617,-6.0698 -0.16073,-7.33541c1.32904,-3.20119 7.45597,-1.85295 10.01262,-1.85295h0.98377c0,0 0.594,0 0.96305,0.42992c0.99116,0.14212 2.35187,0.34909 2.41097,0.35793c0,0 1.23743,0.1856 1.06066,1.48481c-0.17677,1.29922 -1.41421,1.11361 -1.41421,1.11361c-0.83174,-0.12499 -1.66852,-0.81854 -2.46688,-0.54362c-1.40211,0.48283 -2.52232,4.73969 -2.9609,5.83468c-0.84023,2.09777 -1.89689,4.50208 -2.26143,6.78922c-0.62344,3.91147 0.407,8.05958 -0.2298,12.00968z" data-paper-data="{&quot;index&quot;:null}" fill="#6e6e6e" stroke="none" stroke-width="0.5" stroke-linecap="butt"/><path d="M49.80418,108.95388c-0.36454,-3.41099 -1.42121,-6.99671 -2.26143,-10.12528c-0.43858,-1.63304 -1.5588,-7.98163 -2.96091,-8.70171c-0.79836,-0.41002 -1.63514,0.62432 -2.46688,0.81074c0,0 -1.23744,0.2768 -1.41421,-1.66082c-0.17677,-1.93762 1.06066,-2.21442 1.06066,-2.21442c0.0591,-0.01319 1.4198,-0.32186 2.41096,-0.53381c0.36906,-0.64117 0.96306,-0.64118 0.96306,-0.64118h0.98377c2.55665,0 8.68358,-2.01073 10.01261,2.76345c0.52544,1.88751 -0.03622,8.69993 -0.16073,10.93986c-0.24574,4.42087 -2.28438,8.46345 -2.72183,12.88573c-0.45683,4.61809 -0.36494,8.56053 -0.84446,12.68555c0.02728,0.3988 0.06078,0.79659 0.10146,1.1932h0.02773v2.69574c0,1.08098 -0.55965,1.95729 -1.25,1.95729c-0.69035,0 -1.25,-0.87631 -1.25,-1.95729v-2.18608c-0.6368,-5.89109 0.39364,-12.07749 -0.2298,-17.91097z" fill="#6e6e6e" stroke="none" stroke-width="0.5" stroke-linecap="butt"/><path d="M374.36402,131.165v2.51136c0,1.24183 -0.55964,2.24854 -1.25,2.24854c-0.69036,0 -1.25,-1.00671 -1.25,-2.24854v-3.09685h0.02773c0.04068,-0.45561 0.07418,-0.9126 0.10146,-1.37074c-0.47951,-4.7388 -0.38764,-9.26787 -0.84446,-14.57312c-0.43745,-5.0803 -2.47609,-9.72441 -2.72183,-14.80309c-0.12451,-2.57322 -0.68617,-10.39932 -0.16073,-12.56768c1.32903,-5.48457 7.45597,-3.17463 10.01262,-3.17463h0.98377c0,0 0.594,0 0.96305,0.73657c0.99116,0.24349 2.35186,0.5981 2.41096,0.61325c0,0 1.23744,0.31798 1.06066,2.54392c-0.17678,2.22594 -1.41422,1.90794 -1.41422,1.90794c-0.83173,-0.21415 -1.66852,-1.40241 -2.46688,-0.93138c-1.40211,0.82722 -2.52233,8.12046 -2.96091,9.9965c-0.84022,3.59409 -1.89689,7.71336 -2.26143,11.6319c-0.62344,6.70148 0.407,13.8084 -0.2298,20.57606z" data-paper-data="{&quot;index&quot;:null}" fill="#6e6e6e" stroke="none" stroke-width="0.5" stroke-linecap="butt"/><path d="M267.93584,98.36592c-0.36454,-2.17839 -1.42121,-4.46836 -2.26143,-6.46637c-0.43858,-1.04292 -1.5588,-5.09736 -2.96091,-5.55723c-0.79836,-0.26185 -1.63515,0.39872 -2.46688,0.51777c0,0 -1.23744,0.17678 -1.41421,-1.06066c-0.17678,-1.23744 1.06066,-1.41421 1.06066,-1.41421c0.0591,-0.00843 1.4198,-0.20556 2.41096,-0.34092c0.36906,-0.40948 0.96305,-0.40948 0.96305,-0.40948h0.98377c2.55665,0 8.68358,-1.28413 10.01261,1.76484c0.52544,1.20543 -0.03622,5.55609 -0.16073,6.98659c-0.24574,2.82332 -2.28438,5.40507 -2.72183,8.2293c-0.45682,2.94928 -0.36495,5.46707 -0.84446,8.10145c0.02728,0.25469 0.06078,0.50873 0.10146,0.76202h0.02773v1.7216c0,0.69035 -0.55964,1.25 -1.25,1.25c-0.69036,0 -1.25,-0.55965 -1.25,-1.25v-1.39611c-0.6368,-3.76226 0.39364,-7.71312 -0.2298,-11.43859z" fill="#6e6e6e" stroke="none" stroke-width="0.5" stroke-linecap="butt"/><path d="M282.2343,59.05807v1.39611c0,0.69035 -0.55964,1.25 -1.25,1.25c-0.69036,0 -1.25,-0.55965 -1.25,-1.25v-1.7216h0.02773c0.04068,-0.25328 0.07418,-0.50733 0.10146,-0.76202c-0.47951,-2.63439 -0.38763,-5.15217 -0.84446,-8.10145c-0.43745,-2.82423 -2.47609,-5.40597 -2.72183,-8.22929c-0.12451,-1.4305 -0.68617,-5.78117 -0.16073,-6.9866c1.32903,-3.04896 7.45597,-1.76483 10.01261,-1.76483h0.98377c0,0 0.594,0 0.96305,0.40948c0.99116,0.13536 2.35187,0.33249 2.41097,0.34092c0,0 1.23744,0.17677 1.06066,1.41421c-0.17678,1.23743 -1.41422,1.06066 -1.41422,1.06066c-0.83173,-0.11905 -1.66852,-0.77962 -2.46688,-0.51777c-1.40211,0.45987 -2.52232,4.51431 -2.9609,5.55723c-0.84022,1.99802 -1.89689,4.28799 -2.26143,6.46637c-0.62344,3.72547 0.407,7.67633 -0.2298,11.43859z" data-paper-data="{&quot;index&quot;:null}" fill="#6e6e6e" stroke="none" stroke-width="0.5" stroke-linecap="butt"/><path d="M340.85936,45.92643c-0.36454,-2.17838 -1.42121,-4.46836 -2.26143,-6.46637c-0.43858,-1.04292 -1.55879,-5.09736 -2.9609,-5.55723c-0.79836,-0.26185 -1.63515,0.39872 -2.46688,0.51777c0,0 -1.23744,0.17677 -1.41422,-1.06066c-0.17678,-1.23743 1.06066,-1.41421 1.06066,-1.41421c0.0591,-0.00842 1.41981,-0.20556 2.41097,-0.34091c0.36906,-0.40948 0.96305,-0.40948 0.96305,-0.40948h0.98377c2.55665,0 8.68358,-1.28413 10.01261,1.76483c0.52544,1.20543 -0.03622,5.55609 -0.16073,6.9866c-0.24574,2.82332 -2.28438,5.40507 -2.72183,8.2293c-0.45682,2.94928 -0.36494,5.46706 -0.84446,8.10145c0.02728,0.25469 0.06078,0.50874 0.10146,0.76202h0.02773v1.7216c0,0.69035 -0.55964,1.25 -1.25,1.25c-0.69036,0 -1.25,-0.55965 -1.25,-1.25v-1.39611c-0.6368,-3.76226 0.39364,-7.71312 -0.2298,-11.43859z" fill="#6e6e6e" stroke="none" stroke-width="0.5" stroke-linecap="butt"/><path d="M431.13484,79.2347c-0.25193,-7.9064 -0.98219,-16.21779 -1.56286,-23.46955c-0.3031,-3.78525 -1.07727,-18.50073 -2.04626,-20.16981c-0.55174,-0.95038 -1.13003,1.44714 -1.70484,1.87923c0,0 -0.85519,0.6416 -0.97735,-3.84964c-0.12217,-4.49124 0.73301,-5.13284 0.73301,-5.13284c0.04084,-0.03058 0.98122,-0.74606 1.6662,-1.23734c0.25505,-1.48618 0.66556,-1.48618 0.66556,-1.48618h0.67987c1.76688,0 6.00117,-4.66071 6.91965,6.40543c0.36313,4.37508 -0.02503,20.16571 -0.11108,25.35768c-0.16983,10.24719 -1.57872,19.61756 -1.88104,29.86803c-0.31571,10.70434 -0.25221,19.84258 -0.5836,29.40402c0.01885,0.92439 0.042,1.84644 0.07011,2.76573h0.01916v6.24849c0,2.50563 -0.38676,4.53684 -0.86386,4.53684c-0.4771,0 -0.86386,-2.03122 -0.86386,-4.53684v-5.06715c-0.44009,-13.65503 0.27204,-27.99458 -0.15882,-41.51609z" fill="#6e6e6e" stroke="none" stroke-width="0.5" stroke-linecap="butt"/><path d="M147.17045,236.74765c0.1819,0.72761 -0.54571,0.90951 -0.54571,0.90951l-0.52731,0.12955c-0.95571,0.23065 -1.89811,-0.52127 -2.86393,-0.70505c-2.54583,-0.48443 -4.50656,0.72287 -6.4155,-0.10195c-0.07531,0.0881 -0.17067,0.15853 -0.27902,0.20424v0.05866h-1.45646c-0.97539,0 -3.40091,0.1745 -5.04566,-0.17194c-0.06295,0.01714 -0.12919,0.0263 -0.19757,0.0263c-0.08908,0 -0.17452,-0.01553 -0.25378,-0.04403l-0.16572,-0.05523c-3.67693,0.84673 -7.54082,0.39292 -11.37776,0.39055c-0.60268,-0.00037 -1.22541,0.09914 -1.8441,0.19238c0.34007,0.5111 0.0734,0.93278 -1.75348,1.11843c-0.49744,0.05055 -1,0 -1.5,0c-1.39123,-0.01423 -2.39396,0.46185 -3.81018,0.43657c-4.03068,-0.07196 -7.94113,-0.95417 -12.00329,-0.73042c-2.15402,0.11864 -4.16811,1.06411 -5.96191,0.71925c-0.0038,0.00306 -0.00763,0.0061 -0.01147,0.00913c-0.13848,0.10936 -0.28359,0.02226 -0.43066,-0.1229c-0.2488,-0.08125 -0.49305,-0.19191 -0.73251,-0.338l-0.23915,0.29895l-0.61711,-0.49369c-0.74589,0.33277 -1.44469,0.59479 -1.65496,0.63797c-2.01959,0.41472 -4.85239,-0.7535 -7.10142,-0.56507c-0.39914,0.03344 -1.85567,0.38499 -2.10371,0.279c-0.07793,-0.0333 -0.15129,-0.07355 -0.22105,-0.1193l-0.01636,0.02726l-0.71644,-0.42986c-0.02563,-0.01477 -0.0503,-0.03102 -0.0739,-0.04863c-1.50732,0.48424 -2.80925,0.58541 -4.90131,0.28654c0,0 -0.74246,-0.10607 -0.6364,-0.84853c0.10607,-0.74246 0.84853,-0.63639 0.84853,-0.63639c2.05387,0.29341 3.11647,0.17082 4.58984,-0.3445c0.01865,-0.45594 0.46997,-0.46273 0.92972,-0.35026c0.16314,-0.06461 0.33268,-0.13284 0.5099,-0.20467l1.53142,-0.49054c-0.0168,0.04221 -0.03625,0.08865 -0.05799,0.13828c0.37793,0.03866 0.67277,0.35793 0.67277,0.74607c0,0.09951 -0.01938,0.1945 -0.05457,0.2814c2.06307,-0.05561 4.90021,0.593 5.75994,0.81457c1.29082,0.33267 3.19705,-1.27281 4.33936,-1.67141c0.46577,-0.16252 1.09383,-0.593 1.45704,-0.25919c0.28025,0.25756 0.28052,0.66218 0.25953,1.07796c0.10065,0.12766 0.1607,0.28881 0.1607,0.46399c0,0.09119 -0.01628,0.17858 -0.04608,0.25942c0.84812,0.03462 1.70925,0.11705 2.24294,-0.01116c4.84126,-1.16309 9.42083,-0.03105 14.32541,0.12545c0.73614,0.02349 1.37132,-0.10272 2.01814,-0.22553c-0.01584,-0.06068 -0.02428,-0.12436 -0.02428,-0.19c0,-0.3878 0.29433,-0.70685 0.67178,-0.74597l0.39778,-0.0468c-0.0483,-0.0694 -0.09332,-0.14308 -0.13447,-0.22125c-0.2174,-0.41298 0.13753,-0.91805 0.23007,-1.3809v-0.80928c0,-0.41422 0.33579,-0.75 0.75,-0.75c0.41421,0 0.75,0.33578 0.75,0.75v1.34721c0.00481,0.01041 0.00994,0.02087 0.01538,0.03138c0.13674,-0.14482 0.33053,-0.2352 0.54542,-0.2352c0.41421,0 0.75,0.33578 0.75,0.75c0,0.09157 -0.01641,0.17931 -0.04645,0.26044c3.70714,-0.52242 7.58307,0.07144 11.30514,-0.22687c-0.07679,-0.03587 -0.1532,-0.07285 -0.22947,-0.11113c-0.05373,-0.00976 -0.10696,-0.01937 -0.15965,-0.02876l-0.02836,0.09924l-1.00357,-0.28673c-0.32216,-0.08416 -0.55991,-0.37716 -0.55991,-0.7257c0,-0.41422 0.33579,-0.75 0.75,-0.75c0.05034,0 0.09951,0.00496 0.14708,0.01441l0.94158,0.16914c0.72245,0.13132 1.42042,0.20308 2.10935,0.26055c-0.00338,-0.01333 -0.0067,-0.02647 -0.00996,-0.0394l0.03779,-0.09163h-0.04341v-0.87387c0,-0.41422 0.33578,-0.75 0.75,-0.75c0.39184,0 0.71351,0.3005 0.74711,0.68363l0.1201,1.20101c0.19604,0.01796 0.39235,0.03763 0.58925,0.06009v-0.19699h1.45645c0.41422,0 0.75,0.33578 0.75,0.75c0,0.2154 -0.0908,0.40959 -0.23621,0.54638c1.10411,-0.05042 2.20406,-0.13121 2.54476,-0.13121h0.14565v0h1.31081v0.01298c0.00826,-0.00427 0.01658,-0.00845 0.02496,-0.01256c0.80731,-0.39583 1.42214,0.28441 2.18382,0.15515c1.42002,-0.241 3.29574,-0.62908 4.78734,-0.28589c1.05624,0.24302 1.33304,1.195 2.088,0.7514l0.63785,-0.16174c0,0 0.72761,-0.1819 0.90951,0.5457z" fill="#6e6e6e" stroke="none" stroke-width="0.5" stroke-linecap="butt"/><path d="M213.57374,231.21265c0.23842,0.71109 -0.47267,0.94952 -0.47267,0.94952l-0.51553,0.17052c-0.93467,0.30491 -1.93316,-0.37076 -2.91042,-0.4782c-2.57599,-0.28321 -4.43595,1.0742 -6.40372,0.40169c-0.06816,0.09373 -0.15771,0.17143 -0.26214,0.2255l0.0046,0.05848l-1.45197,0.11426c-0.97239,0.07652 -3.37673,0.44077 -5.04359,0.22443c-0.06141,0.02203 -0.12673,0.03635 -0.1949,0.04172c-0.0888,0.00699 -0.1752,-0.00179 -0.25645,-0.02398l-0.16954,-0.04206c-3.59917,1.13259 -7.48675,0.98331 -11.31205,1.28196c-0.60085,0.04691 -1.21385,0.19497 -1.82332,0.33646c0.37912,0.48284 0.14635,0.92415 -1.66034,1.25255c-0.49194,0.08942 -0.99692,0.07845 -1.49538,0.11768c-1.38807,0.09497 -2.35035,0.64825 -3.76418,0.73415c-4.0239,0.24448 -7.99151,-0.32823 -12.02359,0.21352c-2.13807,0.28727 -4.07179,1.38783 -5.88711,1.18476c-0.00356,0.00335 -0.00713,0.00669 -0.01071,0.01001c-0.12948,0.11989 -0.28097,0.04444 -0.43897,-0.08873c-0.2544,-0.06148 -0.50659,-0.15264 -0.75678,-0.27949l-0.21497,0.31679l-0.65394,-0.44376c-0.71748,0.39026 -1.39356,0.7063 -1.59981,0.76585c-1.98083,0.57189 -4.89655,-0.3705 -7.12386,-0.0062c-0.39529,0.06465 -1.81975,0.52939 -2.07534,0.44319c-0.0803,-0.02708 -0.15659,-0.06145 -0.22973,-0.10159l-0.01417,0.02846l-0.74796,-0.37233c-0.0267,-0.01272 -0.05258,-0.02697 -0.07749,-0.04268c-1.46469,0.601 -2.75466,0.80399 -4.86372,0.67018c0,0 -0.74849,-0.04749 -0.701,-0.79599c0.04749,-0.74849 0.79598,-0.70101 0.79598,-0.70101c2.07056,0.13137 3.12027,-0.07421 4.54867,-0.70352c-0.01718,-0.456 0.43221,-0.49818 0.89937,-0.42212c0.15757,-0.07721 0.32124,-0.15853 0.49227,-0.24403l1.48822,-0.60917c-0.01343,0.04341 -0.02918,0.09121 -0.04695,0.1424c0.3798,0.00889 0.69878,0.30405 0.72923,0.69099c0.0078,0.09921 -0.00406,0.19542 -0.03233,0.28481c2.05235,-0.2173 4.93163,0.20674 5.80609,0.36018c1.31295,0.23038 3.08733,-1.5197 4.19485,-2.00669c0.45158,-0.19857 1.04394,-0.67699 1.43222,-0.37271c0.2996,0.23478 0.3316,0.63813 0.3433,1.05428c0.11035,0.11936 0.18286,0.27531 0.19661,0.44995c0.00716,0.09091 -0.00222,0.1793 -0.02559,0.26224c0.84822,-0.03203 1.71317,-0.0174 2.23515,-0.18709c4.7351,-1.53932 9.38935,-0.77005 14.2911,-0.99881c0.73572,-0.03433 1.35904,-0.20999 1.99422,-0.38316c-0.02056,-0.05925 -0.03396,-0.12207 -0.03911,-0.18751c-0.03043,-0.38661 0.23796,-0.72777 0.61119,-0.79638l0.39289,-0.07785c-0.0536,-0.0654 -0.10426,-0.13531 -0.15141,-0.21001c-0.24913,-0.39466 0.06508,-0.92601 0.12102,-1.39469l-0.06349,-0.80679c-0.0325,-0.41294 0.27591,-0.77403 0.68885,-0.80653c0.41294,-0.0325 0.77403,0.27591 0.80653,0.68885l0.10569,1.34305c0.00561,0.01 0.01154,0.02003 0.0178,0.03008c0.12495,-0.1551 0.31105,-0.2604 0.52528,-0.27726c0.41294,-0.0325 0.77403,0.27591 0.80653,0.68885c0.00718,0.09129 -0.00229,0.18005 -0.02588,0.26327c3.65473,-0.81165 7.5653,-0.5237 11.2525,-1.11309c-0.07936,-0.02973 -0.15845,-0.0606 -0.23748,-0.09278c-0.05433,-0.00552 -0.10815,-0.01093 -0.16141,-0.01615l-0.02048,0.10116l-1.02298,-0.20711c-0.32777,-0.05863 -0.58776,-0.33208 -0.61511,-0.67954c-0.0325,-0.41294 0.27591,-0.77403 0.68885,-0.80652c0.05018,-0.00395 0.09959,-0.00287 0.14775,0.00283l0.95194,0.09475c0.73053,0.07423 1.43197,0.09102 2.12329,0.09426c-0.00441,-0.01302 -0.00875,-0.02586 -0.01302,-0.0385l0.03048,-0.09431l-0.04327,0.00341l-0.06856,-0.87118c-0.0325,-0.41294 0.27591,-0.77403 0.68885,-0.80653c0.39064,-0.03074 0.73488,0.24359 0.79843,0.62291l0.21395,1.18789c0.19685,0.00252 0.39409,0.00673 0.59215,0.01368l-0.01545,-0.19638l1.45196,-0.11426c0.41294,-0.0325 0.77403,0.27591 0.80652,0.68885c0.0169,0.21473 -0.05839,0.41545 -0.19262,0.56322c1.09674,-0.13689 2.18697,-0.30373 2.52662,-0.33046l0.1452,-0.01143v0l1.30677,-0.10284l0.00101,0.01294c0.0079,-0.0049 0.01586,-0.00973 0.02389,-0.01448c0.77378,-0.45794 1.44008,0.17196 2.18927,-0.01666c1.39673,-0.35166 3.23623,-0.88569 4.75016,-0.66058c1.07205,0.1594 1.42269,1.08673 2.14051,0.58527l0.6232,-0.21129c0,0 0.7111,-0.23842 0.94952,0.47267z" fill="#6e6e6e" stroke="none" stroke-width="0.5" stroke-linecap="butt"/><path d="M207.91265,129.93589c0.11915,0.74048 -0.62132,0.85962 -0.62132,0.85962l-0.53645,0.08408c-0.97191,0.14825 -1.8467,-0.68135 -2.79332,-0.94688c-2.4952,-0.69991 -4.55181,0.33567 -6.3834,-0.64904c-0.08256,0.08134 -0.18358,0.14339 -0.29543,0.17969l-0.005,0.05845l-1.45114,-0.12429c-0.97183,-0.08324 -3.4034,-0.11635 -5.01258,-0.60189c-0.06419,0.01171 -0.13097,0.01517 -0.19909,0.00934c-0.08875,-0.0076 -0.17255,-0.03036 -0.24909,-0.06552l-0.1604,-0.06918c-3.73577,0.52987 -7.54684,-0.25201 -11.36959,-0.58181c-0.60046,-0.05181 -1.2294,-0.00579 -1.85379,0.03431c0.29522,0.53825 -0.00647,0.93564 -1.84253,0.96472c-0.49994,0.00791 -0.99635,-0.08534 -1.49452,-0.12801c-1.38494,-0.13289 -2.42464,0.25588 -3.83354,0.10984c-4.00984,-0.41566 -7.83074,-1.62835 -11.89717,-1.75207c-2.15628,-0.0656 -4.24371,0.70454 -6.00154,0.20786c-0.00405,0.00272 -0.00813,0.00543 -0.0122,0.00812c-0.14731,0.09715 -0.28446,-0.00203 -0.4186,-0.15921c-0.24096,-0.10219 -0.47487,-0.23328 -0.701,-0.39927l-0.2638,0.27745l-0.57273,-0.54455c-0.77156,0.2679 -1.49017,0.46934 -1.70337,0.49442c-2.04762,0.24086 -4.77039,-1.16483 -7.02729,-1.16901c-0.40054,-0.00074 -1.88175,0.22523 -2.11984,0.09847c-0.0748,-0.03983 -0.14447,-0.0862 -0.21007,-0.13773l-0.01862,0.02577l-0.67714,-0.48944c-0.02427,-0.01691 -0.04747,-0.0352 -0.06948,-0.05475c-1.54315,0.35384 -2.84896,0.34354 -4.90788,-0.13276c0,0 -0.73069,-0.16904 -0.56166,-0.89974c0.16904,-0.7307 0.89973,-0.56166 0.89973,-0.56166c2.02133,0.46761 3.09053,0.43614 4.6025,0.04843c0.05749,-0.45269 0.50774,-0.42094 0.95622,-0.26964c0.16806,-0.05045 0.3428,-0.10397 0.5255,-0.1604l1.5677,-0.35807c-0.02033,0.04063 -0.04368,0.08523 -0.06957,0.13283c0.37325,0.07077 0.63977,0.41404 0.60665,0.80076c-0.00849,0.09915 -0.03591,0.19213 -0.07839,0.27571c2.06029,0.12064 4.83173,1.00901 5.66941,1.30313c1.25773,0.44161 3.29401,-0.99535 4.46617,-1.29501c0.47794,-0.12219 1.14044,-0.4975 1.47384,-0.13391c0.25725,0.28054 0.22299,0.68371 0.16659,1.09618c0.08939,0.13578 0.13547,0.30147 0.12052,0.47601c-0.00778,0.09086 -0.03145,0.17654 -0.06805,0.25454c0.84207,0.10687 1.69303,0.26249 2.23571,0.18028c4.92286,-0.74572 9.38911,0.77299 14.26245,1.34745c0.73146,0.08622 1.37508,0.01468 2.03001,-0.05248c-0.01061,-0.06181 -0.01357,-0.12598 -0.00797,-0.19138c0.0331,-0.38639 0.35357,-0.67916 0.73299,-0.68592l0.40032,-0.01268c-0.0422,-0.07327 -0.08077,-0.15052 -0.1151,-0.23192c-0.18137,-0.43003 0.21537,-0.90297 0.34707,-1.35623l0.06906,-0.80633c0.03535,-0.41271 0.39856,-0.71861 0.81126,-0.68327c0.4127,0.03535 0.71861,0.39856 0.68327,0.81127l-0.11497,1.34229c0.00391,0.01078 0.00812,0.02165 0.01265,0.03258c0.1486,-0.13263 0.34939,-0.20614 0.5635,-0.1878c0.4127,0.03535 0.71861,0.39856 0.68326,0.81127c-0.00781,0.09123 -0.03165,0.17726 -0.0685,0.25552c3.7382,-0.20417 7.54931,0.71828 11.28326,0.73869c-0.07345,-0.04229 -0.14643,-0.08565 -0.21914,-0.1303c-0.0527,-0.01431 -0.10492,-0.02844 -0.15661,-0.04229l-0.03672,0.09646l-0.97545,-0.37133c-0.31381,-0.11135 -0.52568,-0.42356 -0.49594,-0.77082c0.03535,-0.41271 0.39857,-0.71861 0.81127,-0.68327c0.05015,0.00429 0.09872,0.01344 0.1453,0.02692l0.92371,0.24886c0.70862,0.19249 1.3979,0.32355 2.07942,0.43961c-0.00223,-0.01356 -0.00441,-0.02694 -0.00656,-0.04011l0.04547,-0.08808l-0.04325,-0.0037l0.07457,-0.87068c0.03535,-0.41271 0.39856,-0.71861 0.81126,-0.68327c0.39041,0.03344 0.68527,0.36029 0.68605,0.74489l0.01717,1.20688c0.1938,0.03462 0.38771,0.07098 0.58197,0.11016l0.01681,-0.19626l1.45113,0.12429c0.4127,0.03535 0.71861,0.39856 0.68327,0.81126c-0.01838,0.21461 -0.12542,0.40035 -0.28198,0.52423c1.10438,0.04398 2.20722,0.05735 2.54668,0.08643l0.14512,0.01242v0l1.30603,0.11186l-0.00111,0.01293c0.0086,-0.00355 0.01723,-0.00701 0.02594,-0.01039c0.83815,-0.32549 1.39269,0.40473 2.16262,0.34094c1.4354,-0.11894 3.3374,-0.34553 4.79427,0.12369c1.03165,0.33227 1.2262,1.30439 2.01626,0.92683l0.64933,-0.10672c0,0 0.74048,-0.11915 0.85962,0.62133z" fill="#6e6e6e" stroke="none" stroke-width="0.5" stroke-linecap="butt"/><path d="M145.32673,126.11441c0.2488,0.70753 -0.45874,0.95633 -0.45874,0.95633l-0.51297,0.17803c-0.93012,0.31855 -1.93837,-0.34245 -2.9171,-0.43559c-2.57985,-0.24552 -4.41977,1.13894 -6.39717,0.49527c-0.06679,0.09472 -0.15518,0.17372 -0.25881,0.22931l0.00545,0.05841l-1.45014,0.13548c-0.97117,0.09073 -3.36993,0.4901 -5.03977,0.29815c-0.06108,0.02292 -0.12618,0.0382 -0.19427,0.04456c-0.08869,0.00829 -0.17521,0.00077 -0.25678,-0.02023l-0.17014,-0.03958c-3.58222,1.18508 -7.47158,1.09267 -11.29211,1.44721c-0.6001,0.05569 -1.21087,0.2127 -1.81821,0.36308c0.38614,0.47725 0.15985,0.92191 -1.64184,1.27669c-0.49058,0.0966 -0.99567,0.09301 -1.4935,0.13952c-1.38653,0.11525 -2.34062,0.68254 -3.75305,0.7891c-4.0199,0.30328 -7.99546,-0.21135 -12.0192,0.38929c-2.13364,0.3185 -4.05105,1.44721 -5.86915,1.2707c-0.00351,0.0034 -0.00703,0.00679 -0.01056,0.01016c-0.12771,0.12177 -0.28029,0.04854 -0.44022,-0.0823c-0.25528,-0.05775 -0.50877,-0.14522 -0.76078,-0.26839l-0.21031,0.31989l-0.66035,-0.43415c-0.7117,0.40071 -1.3831,0.72661 -1.58844,0.78916c-1.97226,0.60079 -4.90144,-0.29887 -7.12319,0.09795c-0.3943,0.07043 -1.81181,0.55593 -2.06864,0.47348c-0.08069,-0.0259 -0.15748,-0.05916 -0.23119,-0.09822l-0.01375,0.02866l-0.75332,-0.36136c-0.02689,-0.01233 -0.05297,-0.02621 -0.07811,-0.04154c-1.45574,0.62234 -2.74262,0.84418 -4.8534,0.74121c0,0 -0.74911,-0.03655 -0.71256,-0.78565c0.03654,-0.7491 0.78565,-0.71256 0.78565,-0.71256c2.07225,0.10109 3.11884,-0.11982 4.53789,-0.76995c-0.02384,-0.4557 0.42489,-0.50444 0.89311,-0.43523c0.15642,-0.07951 0.31888,-0.16321 0.48864,-0.2512l1.47916,-0.63086c-0.01279,0.0436 -0.02784,0.09163 -0.04487,0.14307c0.37989,0.00334 0.70315,0.2938 0.73926,0.68026c0.00925,0.09909 -0.0012,0.19547 -0.02817,0.28526c2.04895,-0.24728 4.93413,0.13462 5.81074,0.27526c1.31618,0.21115 3.06479,-1.56468 4.16507,-2.06781c0.44863,-0.20514 1.03393,-0.69218 1.42661,-0.39361c0.30299,0.23038 0.3409,0.63322 0.35867,1.04915c0.11209,0.11774 0.18687,0.27261 0.20316,0.44703c0.00848,0.0908 0.00041,0.17932 -0.02174,0.26258c0.84767,-0.04442 1.71272,-0.04244 2.23217,-0.21974c4.71209,-1.60838 9.37709,-0.90725 14.27497,-1.20765c0.73514,-0.04509 1.35582,-0.22983 1.98841,-0.41227c-0.02142,-0.05894 -0.03574,-0.12157 -0.04185,-0.18693c-0.03607,-0.38612 0.2273,-0.73117 0.59948,-0.80522l0.3917,-0.08359c-0.05455,-0.06461 -0.10622,-0.13377 -0.15447,-0.20778c-0.25488,-0.39097 0.05154,-0.92687 0.10062,-1.39631l-0.07528,-0.80577c-0.03853,-0.41242 0.26457,-0.77799 0.67699,-0.81651c0.41242,-0.03853 0.77799,0.26457 0.81652,0.67699l0.12532,1.34136c0.00575,0.00992 0.01183,0.01985 0.01823,0.02981c0.12268,-0.15691 0.30721,-0.26492 0.52118,-0.28491c0.41242,-0.03853 0.77798,0.26456 0.81651,0.67698c0.00852,0.09117 0.00034,0.18006 -0.02202,0.26363c3.64248,-0.86499 7.55683,-0.63425 11.23502,-1.27748c-0.0798,-0.02857 -0.15931,-0.05828 -0.2388,-0.0893c-0.05441,-0.00472 -0.1083,-0.00934 -0.16164,-0.01379l-0.019,0.10144l-1.02589,-0.19214c-0.32859,-0.05383 -0.59256,-0.32344 -0.62498,-0.67047c-0.03853,-0.41242 0.26457,-0.77799 0.67699,-0.81651c0.05012,-0.00468 0.09954,-0.00432 0.14778,0.00068l0.95322,0.08082c0.73154,0.06355 1.43315,0.07008 2.12444,0.06321c-0.0046,-0.01296 -0.00913,-0.02573 -0.01358,-0.0383l0.0291,-0.09475l-0.04322,0.00404l-0.08129,-0.87009c-0.03853,-0.41242 0.26457,-0.77798 0.67699,-0.81651c0.39015,-0.03645 0.73837,0.23283 0.80746,0.61116l0.2313,1.18464c0.19687,-0.00036 0.39415,0.00097 0.59229,0.00502l-0.01833,-0.19613l1.45014,-0.13547c0.41242,-0.03853 0.77798,0.26456 0.81651,0.67698c0.02004,0.21446 -0.05231,0.41625 -0.18437,0.56598c1.09463,-0.15291 2.1823,-0.33567 2.52153,-0.36736l0.14502,-0.01355v0l1.30512,-0.12193l0.00121,0.01292c0.00782,-0.00502 0.01572,-0.00996 0.02367,-0.01483c0.767,-0.46921 1.44244,0.1509 2.18879,-0.04866c1.39144,-0.37204 3.22293,-0.93291 4.73999,-0.72996c1.07426,0.14372 1.43842,1.06581 2.14884,0.55391l0.62004,-0.22037c0,0 0.70754,-0.2488 0.95633,0.45874z" fill="#6e6e6e" stroke="none" stroke-width="0.5" stroke-linecap="butt"/><path d="M337.79152,132.1838c0.1819,0.7276 -0.5457,0.90951 -0.5457,0.90951l-0.52732,0.12955c-0.95571,0.23064 -1.89811,-0.52128 -2.86393,-0.70506c-2.54583,-0.48443 -4.50655,0.72287 -6.4155,-0.10195c-0.07531,0.0881 -0.17067,0.15853 -0.27902,0.20424v0.05867h-1.45646c-0.97539,0 -3.40091,0.1745 -5.04566,-0.17194c-0.06295,0.01715 -0.12919,0.0263 -0.19757,0.0263c-0.08907,0 -0.17452,-0.01553 -0.25378,-0.04402l-0.16572,-0.05524c-3.67693,0.84673 -7.54082,0.39292 -11.37777,0.39055c-0.60268,-0.00038 -1.2254,0.09915 -1.84409,0.19238c0.34007,0.5111 0.0734,0.93277 -1.75349,1.11843c-0.49744,0.05055 -1,0 -1.5,0c-1.39123,-0.01423 -2.39396,0.46186 -3.81018,0.43657c-4.03068,-0.07196 -7.94113,-0.95417 -12.00329,-0.73042c-2.15402,0.11865 -4.16811,1.06411 -5.96191,0.71925c-0.00381,0.00306 -0.00763,0.0061 -0.01147,0.00914c-0.13848,0.10937 -0.28359,0.02225 -0.43066,-0.1229c-0.2488,-0.08125 -0.49305,-0.19191 -0.73252,-0.33799l-0.23915,0.29895l-0.61711,-0.49369c-0.74588,0.33277 -1.44468,0.5948 -1.65496,0.63798c-2.01959,0.41472 -4.85239,-0.75351 -7.10142,-0.56507c-0.39914,0.03344 -1.85567,0.38499 -2.10371,0.27901c-0.07793,-0.0333 -0.15129,-0.07355 -0.22105,-0.1193l-0.01635,0.02726l-0.71644,-0.42987c-0.02562,-0.01477 -0.0503,-0.03102 -0.0739,-0.04863c-1.50732,0.48424 -2.80925,0.5854 -4.90131,0.28654c0,0 -0.74246,-0.10607 -0.63639,-0.84853c0.10606,-0.74246 0.84852,-0.63639 0.84852,-0.63639c2.05386,0.29341 3.11647,0.17081 4.58984,-0.3445c0.01864,-0.45594 0.46997,-0.46273 0.92972,-0.35026c0.16314,-0.06461 0.33269,-0.13284 0.5099,-0.20466l1.53143,-0.49054c-0.0168,0.04221 -0.03625,0.08865 -0.05799,0.13828c0.37793,0.03866 0.67277,0.35793 0.67277,0.74607c0,0.09951 -0.01938,0.1945 -0.05457,0.2814c2.06307,-0.05561 4.90021,0.59301 5.75994,0.81457c1.29082,0.33267 3.19705,-1.27281 4.33936,-1.67141c0.46577,-0.16252 1.09383,-0.593 1.45704,-0.25919c0.28025,0.25756 0.28052,0.66218 0.25953,1.07796c0.10065,0.12766 0.16071,0.28881 0.16071,0.46399c0,0.09119 -0.01628,0.17858 -0.04608,0.25942c0.84812,0.03462 1.70925,0.11705 2.24294,-0.01116c4.84126,-1.16309 9.42082,-0.03105 14.32541,0.12545c0.73615,0.02349 1.37133,-0.10272 2.01814,-0.22553c-0.01585,-0.06068 -0.02427,-0.12436 -0.02427,-0.19c0,-0.3878 0.29432,-0.70686 0.67178,-0.74597l0.39778,-0.0468c-0.04831,-0.06941 -0.09332,-0.14307 -0.13447,-0.22124c-0.2174,-0.41298 0.13753,-0.91805 0.23007,-1.3809v-0.80928c0,-0.41422 0.33578,-0.75 0.75,-0.75c0.41422,0 0.75,0.33578 0.75,0.75v1.34721c0.00481,0.01041 0.00994,0.02087 0.01538,0.03138c0.13674,-0.14482 0.33052,-0.2352 0.54542,-0.2352c0.41422,0 0.75,0.33578 0.75,0.75c0,0.09157 -0.01641,0.17931 -0.04645,0.26044c3.70715,-0.52242 7.58307,0.07143 11.30514,-0.22687c-0.07679,-0.03587 -0.1532,-0.07285 -0.22947,-0.11113c-0.05373,-0.00976 -0.10696,-0.01937 -0.15965,-0.02876l-0.02836,0.09924l-1.00357,-0.28673c-0.32216,-0.08416 -0.55991,-0.37716 -0.55991,-0.7257c0,-0.41422 0.33578,-0.75 0.75,-0.75c0.05034,0 0.09951,0.00496 0.14708,0.01441l0.94158,0.16914c0.72245,0.13132 1.42042,0.20308 2.10935,0.26055c-0.00338,-0.01333 -0.0067,-0.02647 -0.00996,-0.0394l0.03779,-0.09163h-0.04341v-0.87387c0,-0.41422 0.33578,-0.75 0.75,-0.75c0.39184,0 0.71351,0.3005 0.7471,0.68363l0.1201,1.20101c0.19605,0.01796 0.39235,0.03763 0.58925,0.06009v-0.19699h1.45645c0.41422,0 0.75,0.33578 0.75,0.75c0,0.2154 -0.0908,0.40959 -0.23621,0.54638c1.10411,-0.05042 2.20406,-0.13121 2.54476,-0.13121h0.14565v0h1.31081v0.01298c0.00826,-0.00427 0.01658,-0.00845 0.02496,-0.01256c0.80731,-0.39583 1.42214,0.28441 2.18382,0.15515c1.42001,-0.241 3.29574,-0.62908 4.78734,-0.28589c1.05624,0.24302 1.33304,1.19499 2.088,0.75139l0.63785,-0.16174c0,0 0.72761,-0.1819 0.90951,0.5457z" fill="#6e6e6e" stroke="none" stroke-width="0.5" stroke-linecap="butt"/><path d="M263.79069,134.60705c0.13016,0.73862 -0.60846,0.86878 -0.60846,0.86878l-0.53514,0.09206c-0.9696,0.1627 -1.85665,-0.65378 -2.80711,-0.90518c-2.50534,-0.66268 -4.5463,0.40341 -6.39236,-0.55392c-0.08133,0.08257 -0.18143,0.1461 -0.29273,0.18406l-0.00414,0.05852l-1.45283,-0.10267c-0.97297,-0.06876 -3.40475,-0.06566 -5.02098,-0.52718c-0.064,0.01267 -0.13072,0.01712 -0.19893,0.0123c-0.08885,-0.00628 -0.17299,-0.02779 -0.25005,-0.0618l-0.16141,-0.06678c-3.72747,0.58544 -7.54976,-0.1396 -11.37699,-0.41244c-0.60116,-0.04286 -1.22935,0.01252 -1.85307,0.06191c0.3032,0.5338 0.00747,0.93563 -1.82796,0.99204c-0.49977,0.01536 -0.99751,-0.07049 -1.49627,-0.10573c-1.38677,-0.11226 -2.42056,0.29196 -3.83148,0.1669c-4.01558,-0.3559 -7.85412,-1.51157 -11.92194,-1.57471c-2.15702,-0.03349 -4.23275,0.76765 -5.99778,0.29721c-0.00401,0.00278 -0.00804,0.00555 -0.01208,0.0083c-0.14584,0.09933 -0.28445,0.00221 -0.42093,-0.15295c-0.24245,-0.09859 -0.4783,-0.22619 -0.70687,-0.38879l-0.25963,0.28134l-0.58077,-0.53596c-0.76749,0.27936 -1.48302,0.49148 -1.69581,0.51973c-2.0438,0.27133 -4.78721,-1.09368 -7.04392,-1.06424c-0.4005,0.00522 -1.87819,0.25323 -2.11814,0.13002c-0.07539,-0.03871 -0.14573,-0.08403 -0.2121,-0.13459l-0.01824,0.02604l-0.68436,-0.4793c-0.02452,-0.01654 -0.04799,-0.03449 -0.07029,-0.05371c-1.53771,0.37678 -2.84353,0.38593 -4.90932,-0.05967c0,0 -0.73314,-0.15814 -0.575,-0.89128c0.15814,-0.73314 0.89127,-0.575 0.89127,-0.575c2.02807,0.43746 3.09668,0.39007 4.60271,-0.02011c0.05074,-0.45349 0.50141,-0.42845 0.9521,-0.28385c0.16729,-0.05295 0.34122,-0.10906 0.52305,-0.16821l1.56219,-0.38137c-0.01973,0.04093 -0.0424,0.08587 -0.06759,0.13385c0.37426,0.0652 0.64587,0.40447 0.61851,0.79164c-0.00701,0.09927 -0.03304,0.19265 -0.07427,0.27685c2.06186,0.08995 4.84622,0.93695 5.68819,1.21857c1.26416,0.42283 3.27882,-1.04428 4.44638,-1.36137c0.47606,-0.12929 1.13291,-0.51443 1.47169,-0.15584c0.2614,0.27668 0.23315,0.68031 0.1829,1.09358c0.0914,0.13443 0.13995,0.29942 0.1276,0.47416c-0.00643,0.09096 -0.02882,0.17699 -0.06425,0.25553c0.84357,0.09432 1.69675,0.23725 2.23814,0.14697c4.91121,-0.81894 9.39958,0.6331 14.28093,1.13493c0.73266,0.07532 1.37515,-0.0058 2.02901,-0.08271c-0.01153,-0.06165 -0.01545,-0.12576 -0.01082,-0.19124c0.02734,-0.38684 0.34342,-0.68435 0.72269,-0.69676l0.40009,-0.01864c-0.04329,-0.07264 -0.083,-0.1493 -0.11854,-0.23017c-0.18775,-0.42728 0.2019,-0.90607 0.32684,-1.36124l0.05705,-0.80727c0.0292,-0.41318 0.38782,-0.72446 0.801,-0.69527c0.41318,0.0292 0.72446,0.38782 0.69527,0.801l-0.09496,1.34385c0.00406,0.01072 0.00844,0.02152 0.01313,0.03239c0.14661,-0.13482 0.34628,-0.21132 0.56064,-0.19617c0.41318,0.0292 0.72446,0.38782 0.69527,0.801c-0.00645,0.09134 -0.02901,0.17771 -0.06469,0.25651c3.73475,-0.25981 7.55917,0.60579 11.29301,0.5706c-0.07407,-0.04119 -0.14769,-0.08346 -0.22106,-0.12703c-0.05291,-0.01353 -0.10533,-0.02687 -0.15723,-0.03995l-0.03528,0.09699l-0.98086,-0.35676c-0.31543,-0.10666 -0.53193,-0.41569 -0.50736,-0.76336c0.0292,-0.41318 0.38782,-0.72446 0.801,-0.69527c0.05021,0.00355 0.09892,0.01196 0.14569,0.02475l0.92731,0.23509c0.7114,0.18191 1.40257,0.3027 2.08574,0.40859c-0.00243,-0.01353 -0.00482,-0.02687 -0.00716,-0.04l0.04416,-0.08874l-0.0433,-0.00306l0.0616,-0.8717c0.0292,-0.41318 0.38782,-0.72446 0.801,-0.69527c0.39087,0.02762 0.69055,0.35005 0.69706,0.73459l0.03514,1.20649c0.19429,0.03173 0.38872,0.06519 0.58355,0.10148l0.01389,-0.19649l1.45283,0.10267c0.41318,0.0292 0.72446,0.38782 0.69527,0.801c-0.01518,0.21486 -0.11945,0.40217 -0.27414,0.52837c1.10491,0.02753 2.20783,0.02448 2.54768,0.04849l0.14528,0.01027v0l1.30755,0.0924l-0.00091,0.01295c0.00854,-0.00367 0.01713,-0.00727 0.02578,-0.01077c0.83321,-0.33793 1.39856,0.38395 2.16746,0.3087c1.43347,-0.1403 3.33189,-0.39519 4.79558,0.05229c1.03648,0.31687 1.24549,1.28599 2.02984,0.89671l0.64766,-0.11638c0,0 0.73862,-0.13016 0.86878,0.60846z" fill="#6e6e6e" stroke="none" stroke-width="0.5" stroke-linecap="butt"/><path d="M411.24704,76.45967c0.47866,0.72761 -1.43598,0.90951 -1.43598,0.90951l-1.38759,0.12955c-2.51489,0.23065 -4.99474,-0.52128 -7.53622,-0.70505c-6.69914,-0.48443 -11.85865,0.72287 -16.88189,-0.10195c-0.19817,0.08809 -0.44912,0.15853 -0.73423,0.20424v0.05866h-3.83255c-2.56668,0 -8.94923,0.1745 -13.27725,-0.17194c-0.16565,0.01714 -0.33995,0.0263 -0.51989,0.0263c-0.23439,0 -0.45924,-0.01553 -0.6678,-0.04403l-0.43608,-0.05523c-9.67556,0.84673 -19.84309,0.39292 -29.93971,0.39055c-1.58592,-0.00038 -3.22456,0.09914 -4.85259,0.19238c0.89488,0.5111 0.19315,0.93277 -4.61416,1.11843c-1.30897,0.05055 -2.63142,0 -3.94713,0c-3.66093,-0.01423 -6.29952,0.46186 -10.02619,0.43657c-10.60642,-0.07196 -20.89647,-0.95417 -31.58573,-0.73042c-5.66812,0.11864 -10.96806,1.06411 -15.68831,0.71925c-0.01001,0.00306 -0.02008,0.0061 -0.03017,0.00913c-0.3644,0.10937 -0.74625,0.02226 -1.13325,-0.1229c-0.6547,-0.08125 -1.29742,-0.19191 -1.92756,-0.33799l-0.62932,0.29895l-1.62388,-0.49369c-1.96274,0.33277 -3.80158,0.59479 -4.3549,0.63797c-5.3144,0.41472 -12.76869,-0.75351 -18.68684,-0.56507c-1.05031,0.03344 -4.88304,0.38499 -5.53575,0.279c-0.20507,-0.0333 -0.39812,-0.07355 -0.58169,-0.1193l-0.04304,0.02726l-1.88526,-0.42986c-0.06743,-0.01477 -0.13236,-0.03102 -0.19446,-0.04863c-3.96641,0.48424 -7.39232,0.5854 -12.89742,0.28654c0,0 -1.95373,-0.10607 -1.67462,-0.84853c0.2791,-0.74246 2.23283,-0.63639 2.23283,-0.63639c5.40459,0.29341 8.20075,0.17082 12.07781,-0.3445c0.04906,-0.45594 1.23668,-0.46273 2.44649,-0.35026c0.42929,-0.06461 0.87543,-0.13284 1.34175,-0.20467l4.02983,-0.49054c-0.04419,0.04221 -0.09538,0.08864 -0.15258,0.13828c0.99449,0.03866 1.77034,0.35793 1.77034,0.74607c0,0.09951 -0.051,0.1945 -0.14361,0.2814c5.42881,-0.05561 12.89452,0.593 15.15684,0.81457c3.39671,0.33267 8.41279,-1.27281 11.41869,-1.67141c1.22562,-0.16252 2.87833,-0.593 3.83409,-0.25919c0.73746,0.25756 0.73817,0.66218 0.68293,1.07796c0.26485,0.12766 0.42288,0.28881 0.42288,0.46399c0,0.09119 -0.04283,0.17858 -0.12126,0.25942c2.23176,0.03462 4.49776,0.11705 5.90211,-0.01116c12.73942,-1.16309 24.79017,-0.03106 37.69621,0.12545c1.93711,0.02349 3.60854,-0.10272 5.31057,-0.22553c-0.04169,-0.06068 -0.06388,-0.12436 -0.06388,-0.19c0,-0.3878 0.77449,-0.70686 1.76774,-0.74597l1.04673,-0.04679c-0.12711,-0.0694 -0.24556,-0.14308 -0.35385,-0.22125c-0.57208,-0.41298 0.3619,-0.91805 0.60541,-1.3809v-0.80928c0,-0.41422 0.88359,-0.75 1.97357,-0.75c1.08997,0 1.97357,0.33578 1.97357,0.75v1.34721c0.01266,0.01041 0.02616,0.02087 0.04048,0.03138c0.35982,-0.14482 0.86975,-0.2352 1.43523,-0.2352c1.08997,0 1.97357,0.33578 1.97357,0.75c0,0.09157 -0.04318,0.17931 -0.12223,0.26044c9.75507,-0.52242 19.95426,0.07144 29.7486,-0.22686c-0.20207,-0.03587 -0.40315,-0.07285 -0.60382,-0.11113c-0.14139,-0.00977 -0.28146,-0.01938 -0.42011,-0.02877l-0.07461,0.09924l-2.64082,-0.28674c-0.84774,-0.08416 -1.47335,-0.37716 -1.47335,-0.72569c0,-0.41422 0.88359,-0.75 1.97357,-0.75c0.13245,0 0.26187,0.00496 0.38702,0.01441l2.47768,0.16913c1.90108,0.13132 3.73771,0.20308 5.55059,0.26055c-0.00889,-0.01333 -0.01763,-0.02646 -0.02621,-0.0394l0.09944,-0.09163h-0.11423v-0.87387c0,-0.41422 0.88359,-0.75 1.97357,-0.75c1.03111,0 1.87755,0.3005 1.96595,0.68363l0.31603,1.20101c0.51588,0.01795 1.03243,0.03763 1.55057,0.06009v-0.19699h3.83254c1.08997,0 1.97357,0.33578 1.97357,0.75c0,0.2154 -0.23893,0.40959 -0.62158,0.54638c2.90537,-0.05042 5.79981,-0.13121 6.69635,-0.13121h0.38325v0h3.4493v0.01298c0.02174,-0.00426 0.04362,-0.00845 0.06567,-0.01256c2.12439,-0.39583 3.74226,0.28442 5.74657,0.15515c3.73666,-0.241 8.67249,-0.62908 12.59752,-0.28589c2.77941,0.24302 3.50781,1.195 5.49441,0.7514l1.67845,-0.16174c0,0 1.91465,-0.1819 2.39331,0.5457z" fill="#6e6e6e" stroke="none" stroke-width="0.5" stroke-linecap="butt"/><path d="M449.00434,248.69354c0.1738,0.73675 -0.66915,0.87854 -0.66915,0.87854l-0.6108,0.10048c-1.10682,0.17796 -2.15143,-0.62479 -3.25004,-0.86133c-2.89584,-0.62351 -5.20167,0.47487 -7.35101,-0.45371c-0.09056,0.08386 -0.20327,0.14899 -0.32968,0.1887l-0.0028,0.0586l-1.66994,-0.07988c-1.11837,-0.0535 -3.90775,-0.01223 -5.77703,-0.44849c-0.073,0.01367 -0.14938,0.01918 -0.22779,0.01543c-0.10213,-0.00489 -0.19936,-0.02508 -0.28888,-0.05789l-0.18737,-0.06426c-4.25635,0.64409 -8.66493,-0.02112 -13.06418,-0.23395c-0.69101,-0.03343 -1.40976,0.03182 -2.12359,0.09102c0.3655,0.52916 0.03959,0.93574 -2.06395,1.02098c-0.57277,0.02321 -1.14658,-0.05485 -1.71987,-0.08227c-1.59448,-0.09052 -2.76693,0.33002 -4.38954,0.22709c-4.61806,-0.29295 -9.05955,-1.38864 -13.72783,-1.38794c-2.47542,0.00037 -4.82992,0.83428 -6.87017,0.39143c-0.00451,0.00285 -0.00904,0.00568 -0.01358,0.0085c-0.164,0.10164 -0.32622,0.00668 -0.48791,-0.14638c-0.28139,-0.0948 -0.55615,-0.21873 -0.82374,-0.37779l-0.28849,0.28549l-0.68398,-0.52697c-0.87112,0.29148 -1.68487,0.51488 -1.92803,0.54647c-2.33544,0.30348 -5.52765,-1.01879 -8.11535,-0.95392c-0.45924,0.01151 -2.14606,0.28277 -2.4254,0.1633c-0.08776,-0.03754 -0.16996,-0.08176 -0.24776,-0.13129l-0.02005,0.02633l-0.80092,-0.46867c-0.02868,-0.01616 -0.05619,-0.03374 -0.08241,-0.05262c-1.75141,0.40101 -3.249,0.43065 -5.63343,0.01739c0,0 -0.84622,-0.14667 -0.68913,-0.88247c0.15709,-0.73579 1.00331,-0.58913 1.00331,-0.58913c2.3409,0.40573 3.56512,0.34155 5.27908,-0.09236c0.04316,-0.4544 0.56096,-0.43642 1.08273,-0.29887c0.19014,-0.05559 0.3878,-0.11444 0.59441,-0.17646l1.77934,-0.40598c-0.02127,0.04125 -0.04579,0.08656 -0.07309,0.13494c0.43148,0.05934 0.75428,0.39443 0.73574,0.78212c-0.00475,0.0994 -0.03151,0.19321 -0.07602,0.27808c2.36813,0.0576 5.59015,0.8611 6.56531,1.12957c1.46414,0.40309 3.72649,-1.096 5.05529,-1.4315c0.5418,-0.13679 1.2825,-0.53233 1.683,-0.17898c0.30902,0.27264 0.29,0.67681 0.24606,1.09097c0.1093,0.13303 0.17046,0.29729 0.16209,0.47227c-0.00436,0.09109 -0.02719,0.17748 -0.06523,0.2566c0.97078,0.0811 1.9542,0.21067 2.57224,0.11187c5.60647,-0.89623 10.80321,0.4857 16.41923,0.91102c0.84293,0.06384 1.57724,-0.02739 2.32473,-0.11458c-0.01527,-0.06148 -0.02189,-0.12555 -0.01875,-0.19112c0.01853,-0.38736 0.37124,-0.6899 0.80589,-0.70827l0.45832,-0.02492c-0.05207,-0.07198 -0.10016,-0.14803 -0.14361,-0.22837c-0.22954,-0.42444 0.20156,-0.90946 0.32978,-1.3667l0.03867,-0.80836c0.01979,-0.41374 0.42084,-0.73073 0.89577,-0.70801c0.47493,0.02272 0.84389,0.37654 0.8241,0.79028l-0.06437,1.34567c0.00502,0.01066 0.0104,0.02139 0.01614,0.03219c0.1637,-0.13715 0.39021,-0.2168 0.63661,-0.20502c0.47493,0.02272 0.84389,0.37654 0.8241,0.79028c-0.00438,0.09147 -0.02738,0.17821 -0.0657,0.25759c4.2755,-0.3185 8.69118,0.48727 12.97309,0.39346c-0.08633,-0.04004 -0.17218,-0.08116 -0.25779,-0.12359c-0.06114,-0.0127 -0.12171,-0.02522 -0.18168,-0.03749l-0.03725,0.09757l-1.13697,-0.34145c-0.36536,-0.10173 -0.62395,-0.40744 -0.6073,-0.75558c0.01979,-0.41374 0.42084,-0.73073 0.89577,-0.70801c0.05771,0.00276 0.11386,0.01041 0.16794,0.02247l1.07151,0.22059c0.82208,0.17079 1.61892,0.28076 2.40609,0.37595c-0.00324,-0.0135 -0.00642,-0.0268 -0.00954,-0.0399l0.04771,-0.08946l-0.04977,-0.00238l0.04176,-0.87288c0.01979,-0.41374 0.42084,-0.73073 0.89577,-0.70801c0.44928,0.02149 0.80374,0.33929 0.82395,0.72382l0.08032,1.20623c0.22392,0.02869 0.44806,0.05911 0.67275,0.09234l0.00941,-0.19676l1.66994,0.07988c0.47493,0.02272 0.84389,0.37654 0.8241,0.79028c-0.01029,0.21515 -0.12368,0.40414 -0.29695,0.53279c1.26835,0.01019 2.5334,-0.01018 2.92405,0.00851l0.16699,0.00799v0l1.50295,0.0719l-0.00062,0.01297c0.00967,-0.00381 0.01941,-0.00754 0.02921,-0.01118c0.94456,-0.35109 1.61701,0.36209 2.49652,0.27475c1.63968,-0.16284 3.80889,-0.44759 5.50273,-0.02298c1.19945,0.30068 1.47134,1.26675 2.35816,0.86506l0.73907,-0.12657c0,0 0.84295,-0.14178 1.01675,0.59497z" fill="#6e6e6e" stroke="none" stroke-width="0.5" stroke-linecap="butt"/><path d="M244.7075,77.54729c-0.52383,0.13096 -0.76482,-0.20949 -0.85872,-0.41046c-0.42572,0.90595 -1.14913,1.92299 -2.12821,-0.07998c-0.47168,-0.96495 0.5514,-1.38342 1.22721,-1.90312l0.14856,-0.59425c0.07579,-0.33399 0.37449,-0.58332 0.73141,-0.58332c0.04698,0 0.09296,0.00432 0.13755,0.01259c0.12232,-0.03339 0.2706,-0.03341 0.44854,0.0259c0.71151,0.23717 0.47434,0.94868 0.47434,0.94868c-0.01388,0.03509 -0.02989,0.0722 -0.04784,0.11096l0.00715,0.01429l-0.0181,0.00905c-0.0014,0.00295 -0.00281,0.0059 -0.00423,0.00886c0.01831,0.0191 0.03661,0.03819 0.05492,0.05729l0.37311,1.47398c0,0 0.1819,0.72761 -0.54571,0.90951z" fill="#6e6e6e" stroke="none" stroke-width="0.5" stroke-linecap="butt"/><path d="M292.67632,77.91861c-0.75,0 -0.75,-0.75 -0.75,-0.75l0.21967,-0.16751c-0.51021,-0.86532 -0.72928,0.38275 -1.38177,1.04676c0,0 -0.53033,0.53033 -1.06066,0c-0.53033,-0.53033 0,-1.06066 0,-1.06066c1.3371,-1.30755 1.58144,-2.62119 3.50309,-1.04676l0.21967,1.22817c0,0 0,0.75 -0.75,0.75z" fill="#6e6e6e" stroke="none" stroke-width="0.5" stroke-linecap="butt"/><path d="M343.26949,77.22077c-0.75,0 -0.75,-0.75 -0.75,-0.75v-0.34217c-0.19087,0.27384 -0.42357,0.53007 -0.65918,0.66407c0,0 -0.67082,0.33541 -1.00623,-0.33541c-0.33541,-0.67082 0.33541,-1.00623 0.33541,-1.00623c1.41265,-0.5131 2.06004,-3.67386 2.83,-0.02702v1.04676c0,0 0,0.75 -0.75,0.75z" fill="#6e6e6e" stroke="none" stroke-width="0.5" stroke-linecap="butt"/><path d="M397.15429,76.22093c1.53021,0.30246 3.06432,0.65233 4.57914,0.99494c0.0426,-0.02755 0.08817,-0.0509 0.13613,-0.06946l0.24297,-0.10051c-1.61137,-0.4231 -3.24039,-0.83832 -4.87839,-0.93525zM406.39755,79.72463c-0.4551,-0.08031 -0.90954,-0.16457 -1.36288,-0.25579c-4.41146,-0.88819 -8.82409,-1.77082 -13.23442,-2.66459c-0.85083,-0.17242 -3.14629,0.24516 -3.70486,0.04454c-0.72742,-0.26126 -0.63245,-1.41302 -1.01299,-2.08576c-0.10518,-0.18594 0.00444,0.50387 -0.17751,0.6158c-0.43051,0.26483 -0.97499,0.2671 -1.46422,0.39411c-0.96791,0.25128 -1.94029,0.48507 -2.91043,0.72761c0,0 -0.72761,0.1819 -0.90951,-0.54571c-0.1819,-0.72761 0.54571,-0.90951 0.54571,-0.90951c1.23999,-0.31 2.83297,-0.45406 3.9994,-0.9718c0.44068,-0.1956 0.77586,-0.97177 1.21816,-0.77987c0.72252,0.31349 0.29438,2.14918 1.08052,2.10126c2.27774,-0.13887 4.67983,0.11271 7.11214,0.5328c0.05923,-0.18302 0.17005,-0.30659 0.17005,-0.30659l0.87882,-0.88145c2.43469,-0.06806 6.07038,0.35049 8.61701,1.60833c0.42973,-0.07633 0.85701,-0.05215 1.22912,0.18421c0.13236,0.08407 0.23331,0.19821 0.31622,0.3295c0.23013,0.12807 0.38582,0.37375 0.38582,0.6558c0,0.06163 -0.00743,0.12153 -0.02145,0.17884c0.03574,0.08623 0.0738,0.17013 0.11671,0.24926c0.05228,0.09643 0.09594,0.27502 0.14014,0.43136c0.10668,0.01798 0.21339,0.03583 0.32012,0.0536c0.04836,-0.10156 0.08543,-0.20767 0.11386,-0.31752c-0.63303,-0.98316 -0.42872,-2.41909 0.0004,-3.71641l0.07953,-0.06662l-0.02983,-0.01989l0.69138,-1.03708c0.13354,-0.20678 0.36603,-0.34365 0.63049,-0.34365c0.41421,0 0.75,0.33579 0.75,0.75c0,0.06861 -0.00921,0.13508 -0.02647,0.19822l-0.35972,1.4389l-0.10715,-0.02679c-0.05349,0.60662 -0.14854,1.1994 -0.30432,1.82215c0.17406,0.41901 0.45175,0.79386 0.75232,1.21522l0.26831,-0.17887l0.69215,1.03822c0.08304,0.12072 0.13165,0.26696 0.13165,0.42456c0,0.41421 -0.33579,0.75 -0.75,0.75c-0.04687,0 -0.09274,-0.0043 -0.13724,-0.01253l-1.2139,-0.20232c-0.24383,-0.04064 -0.48769,-0.08082 -0.73153,-0.121c-0.01382,0.0053 -0.02801,0.01021 -0.04257,0.0147c-1.01923,0.31466 -1.48484,0.09755 -1.73903,-0.31527z" fill="#6e6e6e" stroke="none" stroke-width="0.5" stroke-linecap="butt"/><path d="M281.14361,74.40184c0.00163,0.00081 0.00327,0.00162 0.0049,0.00244c0.67082,0.33541 0.33541,1.00623 0.33541,1.00623l-0.34165,0.6833c-0.12026,0.25368 -0.37868,0.42912 -0.67809,0.42912c-0.41421,0 -0.75,-0.33579 -0.75,-0.75v-1.04676c0,0 0,-0.75 0.75,-0.75c0.40887,0 0.59484,0.2229 0.67942,0.42566z" fill="#6e6e6e" stroke="none" stroke-width="0.5" stroke-linecap="butt"/><text transform="translate(273.17927,291.4473) rotate(3.39885) scale(0.38113,0.38113)" font-size="40" xml:space="preserve" fill="#6e6e6e" fill-rule="nonzero" stroke="#404040" stroke-width="1" stroke-linecap="butt" stroke-linejoin="miter" stroke-miterlimit="10" stroke-dasharray="" stroke-dashoffset="0" font-family="Marker" font-weight="normal" text-anchor="start" style="mix-blend-mode: normal"><tspan x="0" dy="0">Don't touch black... </tspan></text></g></g></svg>