<svg version="1.1" xmlns="http://www.w3.org/2000/svg" xmlns:xlink="http://www.w3.org/1999/xlink" width="179.0253" height="117.07363" viewBox="0,0,179.0253,117.07363"><g transform="translate(-139.8637,-148.10048)"><g data-paper-data="{&quot;isPaintingLayer&quot;:true}" fill-rule="nonzero" stroke-linecap="butt" stroke-linejoin="miter" stroke-miterlimit="10" stroke-dasharray="" stroke-dashoffset="0" style="mix-blend-mode: normal"><path d="M222.94935,192.13653c-0.94897,-1.15895 -2.02333,-2.21425 -3.17757,-3.12999c-1.35844,-1.07774 -3.51014,0.61237 -5.19773,0.21368c-2.01789,-0.47672 -3.7507,-1.43813 -5.45591,-2.41567c-0.15722,-1.39878 -0.36729,-2.64112 -0.53837,-3.5392c-0.36679,-1.92548 -2.54,-3.0147 -2.41672,-5.53195c0.00508,-0.10364 0.27604,-0.19905 0.63374,-0.28101c4.90801,1.64952 10.33419,-0.73858 12.38528,-5.58609c1.37765,-3.25592 0.89872,-6.83213 -0.9586,-9.54889c1.13512,-0.75376 2.41191,-1.37078 2.94396,-2.103c1.33,-1.8304 1.70154,-6.52372 1.63457,-11.11392c2.13443,-0.12241 5.99878,0.37403 6.66765,0.57614c2.22968,0.67373 4.44995,1.38436 6.67141,2.09292c-0.54702,1.46609 -0.72721,2.98635 -0.58325,4.45547c-0.73623,1.0699 -1.43529,2.15859 -1.63155,3.41219c-0.16076,1.02685 -0.26974,1.96053 -0.3305,2.81793c-0.49705,0.49989 -0.94562,1.05744 -1.33451,1.66814c-0.29615,0.46507 -0.5577,0.96095 -0.77972,1.48564c-0.59807,0.93602 -1.04181,1.955 -1.32642,3.01111c-0.53178,0.44171 -0.87962,0.76113 -0.91711,0.86552c-0.10957,0.30511 0.50002,8.76335 1.19511,10.00671c0.42822,0.766 3.56247,3.21142 4.19971,3.89761c0.34355,0.36993 0.68921,0.72415 1.0372,1.06251c-3.36075,3.76163 -7.78587,6.4744 -12.72069,7.68416z" fill="#ff0000" stroke="#000000" stroke-width="2"/><path d="M234.95892,173.19859c0.39049,-0.19045 0.77833,-0.39966 1.16369,-0.62783c0.02608,0.44741 0.06822,0.88586 0.12789,1.31033c-0.43678,-0.21495 -0.86749,-0.44255 -1.29158,-0.68249z" fill="#ff0000" stroke="#000000" stroke-width="2"/><path d="M221.43249,176.58347l8.51641,0.9339c0.15019,0.93892 0.31467,1.67158 0.48423,1.97489c0.42822,0.766 3.56247,3.21142 4.19971,3.89761c4.42112,4.7606 9.19204,6.91888 14.76792,6.16536c-0.77611,2.17986 -1.06523,4.30684 -0.40849,5.82032c0.61104,1.40816 1.29653,2.65042 2.06775,3.74976c-0.1472,2.0776 0.36465,4.13282 1.42046,5.88173l-0.12116,0.15108l-0.1164,0.25316l-0.17373,0.22871l0.01756,0.11095l-0.19923,0.4333l-0.29726,1.57978l-0.55756,1.50772l-0.24032,2.19152l-0.07212,0.08611l0.03138,0.28551l-0.03037,0.27697l0.31097,2.27659l0.25098,2.28398l0.09671,0.26132l0.03887,0.28457l0.09086,0.06602l0.05072,0.13705l1.72615,2.52633c-0.91564,1.06847 -1.82011,2.28962 -2.55934,3.28764c-0.22078,-0.71377 -0.46497,-1.37081 -0.70847,-1.93667c-0.21443,-0.49827 -0.7629,-0.79641 -1.37939,-1.03286c-0.54174,-2.20177 -1.53486,-4.41757 -1.82992,-6.01594c0.06226,-0.36197 0.10398,-0.72461 0.12574,-1.08643c0.08026,-0.16423 0.15652,-0.33158 0.22861,-0.50197c2.15212,-5.08628 -0.22649,-10.95416 -5.31277,-13.10628c-5.08628,-2.15212 -10.95416,0.2265 -13.10628,5.31278c-0.18497,0.43715 -0.33647,0.88008 -0.45566,1.32592c-0.89188,0.8844 -1.69942,1.91889 -2.32322,2.57556c-2.3047,2.42613 -3.03788,4.96054 -2.73238,7.41228c-0.83218,-0.2604 -1.67669,-0.43996 -2.53538,-0.51392c-1.0314,-1.41208 -2.4466,-2.57172 -4.17417,-3.30269c-0.86238,-0.36489 -1.74723,-0.59954 -2.63262,-0.71282c-0.21542,-0.15813 -0.43548,-0.28715 -0.66143,-0.37988c-1.29719,-0.53241 -2.88245,-0.24403 -4.14123,-0.81866c-0.15032,-0.31788 -0.30026,-0.63545 -0.44979,-0.95263c0.11923,-0.34914 0.35773,-0.73584 0.51058,-1.05109c0.99531,0.3392 2.01948,0.60337 3.10377,0.72818c5.76411,0.6635 16.64916,-4.70565 13.62856,-12.15729c-1.26198,-3.11322 -3.47832,-5.92656 -6.10996,-8.01442c-1.35844,-1.07774 -3.51014,0.61237 -5.19773,0.21368c-2.05162,-0.48469 -3.80856,-1.47042 -5.54141,-2.46471c-0.1235,-0.86991 -0.25786,-1.63971 -0.37418,-2.25035c-0.36679,-1.92548 -2.54,-3.0147 -2.41671,-5.53195c0.01444,-0.29495 2.18222,-0.52323 2.37458,-0.5647c0.29133,-0.0628 0.68115,-0.2203 1.11919,-0.43911c2.87467,0.06732 5.66512,-1.11648 7.61382,-3.24432c2.45491,1.05174 4.08317,1.85842 4.08317,1.85842z" fill="#ff0000" stroke="#000000" stroke-width="2"/><path d="M225.40484,166.96039c1.1318,0.32478 2.64709,1.46607 4.0066,2.31493c-0.09883,0.0983 -0.15902,0.17013 -0.17342,0.21023c-0.10957,0.30511 0.50002,8.76335 1.19511,10.00671c0.42822,0.766 3.56247,3.21142 4.19971,3.89761c0.29245,0.31491 0.58643,0.61842 0.88207,0.91047c-2.40563,-0.26121 -4.72625,-0.51599 -6.59903,-0.72135c-4.08372,-0.44781 -6.65345,-3.86993 -10.78426,-4.47958c-4.01036,-0.59187 -7.98245,-1.00756 -11.97207,-1.27285c0.00083,-0.03083 0.00201,-0.06187 0.00353,-0.09314c0.00508,-0.10364 0.27603,-0.19905 0.63374,-0.28102c4.908,1.6495 10.33416,-0.7386 12.38524,-5.5861c0.86756,-2.05038 0.99885,-4.22777 0.51331,-6.23755c1.93275,0.35813 3.84266,0.79594 5.70947,1.33164z" fill="#ff0000" stroke="none" stroke-width="0.5"/><path d="M229.29681,158.0638c1.35512,-2.10088 3.45598,-0.74576 3.45598,-0.74576l1.44248,1.31216c-0.12165,0.32509 -0.21461,0.65973 -0.26898,1.00701c-0.16076,1.02685 -0.26974,1.96053 -0.3305,2.81793c-0.49705,0.49989 -0.94562,1.05744 -1.33451,1.66814c-0.14562,0.22868 -0.28288,0.46481 -0.41119,0.70815c-0.55665,-1.24653 -1.23266,-2.41938 -1.88207,-3.82482l0.07455,0.51318c0,0 -2.10088,-1.35511 -0.74576,-3.45598z" fill="#ffced8" stroke="none" stroke-width="0.5"/><path d="M222.79388,151.94299c-0.00417,0.03797 -0.00916,0.07564 -0.01497,0.11301c0.00693,-0.213 0.01263,-0.4272 0.01716,-0.64229c0.01765,0.17266 0.01749,0.34979 -0.00219,0.52928z" fill="#ffced8" stroke="none" stroke-width="0.5"/><path d="M225.429,204.38334c-1.56937,1.78307 -3.24497,3.48318 -5.12716,4.26914c-1.03283,0.43128 -2.32189,0.06307 -3.48219,0.07212c4.02826,-1.07952 8.29306,-3.80162 9.3397,-7.44905c0.64076,-0.74486 1.26729,-1.44468 1.88581,-2.0263c3.14252,-2.95508 6.5933,-5.55149 9.65735,-8.57812l0.00442,-0.30044c0,0 0.22638,-0.71503 0.9414,-0.48865c0.71502,0.22638 0.48864,0.9414 0.48864,0.9414l-0.38034,0.91485c-3.07335,3.03584 -6.53226,5.64007 -9.6839,8.60374c-0.87079,0.81884 -1.75052,1.84578 -2.66037,2.90565c0.65648,0.78775 1.27047,1.79574 2.00881,2.49484c-0.04776,0.15006 -0.09179,0.30057 -0.13211,0.4514c-0.24271,0.24067 -0.47917,0.49246 -0.70738,0.74472c-0.79713,-0.74442 -1.42463,-1.70957 -2.15268,-2.55529z" fill="#000000" stroke="none" stroke-width="0.5"/><path d="M207.28525,207.15814c0,0 -0.71845,0.21523 -0.93367,-0.50323c-0.00075,-0.00252 -0.0015,-0.00504 -0.00223,-0.00755c-0.00009,-0.17516 0.01452,-0.36111 0.03048,-0.54134c0.0161,-0.03154 0.03442,-0.06081 0.05427,-0.08791c-0.01522,-0.01148 -0.02961,-0.02331 -0.04319,-0.03544c0.01024,-0.114 0.01976,-0.22405 0.02497,-0.32573c1.04881,-0.07546 2.09495,-0.23126 3.14218,-0.53884c0.82047,-0.24097 1.69231,-0.64597 2.56436,-1.17961c-1.51871,1.3005 -2.804,2.60538 -4.83716,3.21964z" fill="#000000" stroke="none" stroke-width="0.5"/><path d="M217.61081,180.22026c1.1061,1.3046 2.53079,2.43635 3.76324,3.62534l0.52823,0.39473c0,0 0.59722,0.45367 0.14354,1.0509c-0.45368,0.59723 -1.0509,0.14356 -1.0509,0.14356l-0.66234,-0.50967c-2.55245,-2.46246 -4.23611,-5.13304 -6.35939,-7.79068c0.45213,-0.19728 0.88993,-0.42788 1.30935,-0.69017c0.79637,1.23042 1.39587,2.67625 2.32826,3.77598z" fill="#000000" stroke="none" stroke-width="0.5"/><path d="M208.73829,178.38364c0.19849,-0.14865 0.40021,-0.29214 0.60465,-0.4312c1.37628,0.08682 2.74122,-0.11511 4.01218,-0.57231c-1.82575,0.95075 -3.61832,1.96925 -5.05007,3.49507c-0.13906,0.14819 -0.39213,0.31546 -0.66172,0.48839c-0.23883,-0.33838 -0.49054,-0.67668 -0.71752,-1.03569c0.61681,-0.47705 1.2049,-1.48924 1.81247,-1.94428z" fill="#000000" stroke="none" stroke-width="0.5"/><path d="M204.80588,184.27248c0.43138,0.61353 -0.18215,1.0449 -0.18215,1.0449l-0.64673,0.45437c-0.02788,0.02195 -0.05548,0.04385 -0.08282,0.06566c-0.80539,0.13514 -1.59936,0.18402 -2.38527,0.17919c0.55861,-0.44597 1.06098,-1.04485 1.57223,-1.44796l0.67987,-0.47836c0,0 0.61353,-0.43137 1.0449,0.18215z" fill="#000000" stroke="none" stroke-width="0.5"/><path d="M197.52559,184.99277c0.5024,0.09519 0.95474,0.17655 1.27533,0.28951c0.06992,0.02463 0.31575,0.30615 0.56795,0.61109c-0.47379,-0.04644 -0.9457,-0.10183 -1.41649,-0.15872c-0.14327,-0.2548 -0.28599,-0.50251 -0.42678,-0.74188z" fill="#000000" stroke="none" stroke-width="0.5"/><path d="" fill="#000000" stroke="none" stroke-width="0.5"/><path d="" fill="#000000" stroke="none" stroke-width="0.5"/><path d="M244.29237,185.23308l0.05941,0.09533l-0.01464,0.47669l0.15568,0.71535c-0.24831,-0.10339 -0.38546,-0.33426 -0.38546,-0.33426l-0.26998,-0.45446c-0.49665,-0.84483 -1.69894,-1.38287 -2.09174,-2.06008c-0.28339,-0.48859 -0.22441,-1.21286 0.00302,-2.00984c0.60584,1.3219 1.4914,2.4889 2.58089,3.42525z" fill="#000000" stroke="none" stroke-width="0.5"/><path d="" fill="#000000" stroke="none" stroke-width="0.5"/><path d="M243.45565,193.39584c-0.14882,0.03386 -0.31027,0.02973 -0.47463,0.01398c-0.07567,-0.57727 -0.20058,-1.13903 -0.37037,-1.68095c0.88639,-0.20138 1.89972,-0.33603 2.77148,-0.47544l0.11084,0.19827l0.07996,0.26692l0.58925,0.99193c-0.89736,0.2504 -1.79763,0.47849 -2.70652,0.68529z" fill="#000000" stroke="none" stroke-width="0.5"/><path d="M275.16989,227.51718c-1.44632,-1.20198 -2.71998,-2.53586 -3.81842,-3.97077c0.60986,-1.40343 1.51355,-2.76172 1.5654,-4.31065c0.03337,-0.9968 3.19981,-1.78317 3.84951,-3.04733c0.03934,-0.07653 0.07866,-0.15567 0.11811,-0.23696c1.83684,-0.50148 3.7261,-0.96079 5.31449,-1.94548c2.25804,-1.39981 3.40385,-3.87181 4.07247,-6.70521c0.13359,-0.22436 0.26125,-0.44994 0.38262,-0.67557c0.41714,-0.77545 3.65682,-2.02224 4.50918,-2.64689c1.49055,-1.09233 2.94088,-4.41117 3.32092,-6.03609c0.42198,-1.80424 0.33238,-3.27379 -0.07254,-4.67493c0.52839,-0.21829 1.0466,-0.46287 1.54281,-0.73227c0.40544,-0.22013 0.72753,-0.53658 1.01836,-0.89026c-0.97364,4.71674 1.58501,9.57825 6.23004,11.35204c1.60885,0.61437 3.27801,0.78577 4.87317,0.57429c0.3922,0.21389 0.80332,0.40401 1.23223,0.56779c2.39834,0.91585 4.93071,0.84732 7.15218,-0.00654c0.63769,4.88359 -0.14661,9.96856 -2.40861,14.57769c-0.97716,-0.719 -2.07949,-1.4093 -3.28076,-2.11888c-4.63442,-2.73752 -3.59203,-8.70931 -11.58517,-6.26733c-3.21092,0.98097 -6.21074,3.22677 -8.11102,6.01352c-4.73114,-0.99995 -9.61861,1.56023 -11.39818,6.22041c-0.97416,2.55104 -0.83461,5.25373 0.17914,7.5726c-0.09245,0.10388 -0.1829,0.20991 -0.27127,0.31805c-1.54392,-0.79984 -3.02459,-1.77598 -4.41466,-2.93122z" fill="#ff0000" stroke="#000000" stroke-width="2"/><path d="M286.54472,212.26552c0,0 2.75959,0.7178 6.2989,1.94054c-0.6585,0.66114 -1.25397,1.37637 -1.76875,2.13129c-4.73114,-0.99995 -9.61861,1.56023 -11.39818,6.22041c-0.97416,2.55104 -0.83461,5.25373 0.17914,7.5726c-0.52147,0.58594 -0.97937,1.24028 -1.35863,1.95628c-0.00358,-0.00253 -0.00717,-0.00505 -0.01076,-0.00756c-2.5982,-1.81499 -4.37814,-2.38159 -7.09283,-3.7641c-0.26995,-0.13748 -0.49143,-0.32142 -0.67701,-0.53994c-0.07773,-0.94498 -0.06725,-1.9262 0.22999,-3.08627c0.46931,-1.8316 1.90454,-3.48906 1.97028,-5.45301c0.03337,-0.9968 3.19981,-1.78317 3.84951,-3.04733c0.03933,-0.07653 0.07866,-0.15566 0.1181,-0.23695c1.83684,-0.50148 3.72611,-0.9608 5.3145,-1.94548c1.20683,-0.74815 2.09596,-1.80256 2.76433,-3.05474z" fill="#ff0000" stroke="#000000" stroke-width="2"/><path d="M286.65407,206.62519c0.28327,-0.5266 1.86823,-1.27058 3.12324,-1.88945c4.49174,1.72275 9.12082,3.16742 13.55783,5.0784c-1.04495,-0.15995 -2.37434,-0.03257 -4.14925,0.50968c-3.21092,0.98097 -6.21074,3.22677 -8.11102,6.01352c-2.20998,-0.46709 -4.45407,-0.15738 -6.39958,0.78032c-1.69729,-0.62101 -3.3996,-1.25038 -5.06901,-1.94821c0.91066,-0.3025 1.79009,-0.66591 2.59269,-1.16347c2.25804,-1.39982 3.40385,-3.87182 4.07247,-6.70522c0.13359,-0.22436 0.26125,-0.44994 0.38263,-0.67558z" fill="#ff0000" stroke="none" stroke-width="0.5"/><path d="M306.27355,211.1716c2.26744,1.12784 4.91075,3.37791 5.61568,6.09407c-0.3621,-0.22391 -0.73511,-0.44823 -1.11818,-0.67451c-2.70237,-1.59627 -3.47454,-4.29225 -5.23347,-5.77852c0.24614,0.11773 0.49148,0.23734 0.73598,0.35895z" fill="#ff0000" stroke="none" stroke-width="0.5"/><path d="M309.07966,206.99042c-0.53259,1.59467 -1.51074,3.28804 -2.55072,4.88028c-1.02557,-1.31249 -2.23617,-2.27146 -4.61154,-2.10122c1.4486,-2.19752 2.53036,-4.30913 2.34327,-6.43382c1.27419,0.33199 2.5674,0.40087 3.81533,0.23543c0.3922,0.21389 0.80332,0.40401 1.23223,0.56779c0.09892,0.03778 0.19807,0.07388 0.29741,0.10831c-0.03764,0.86989 -0.20529,1.78299 -0.52599,2.74322z" fill="#ffced8" stroke="none" stroke-width="0.5"/><path d="M296.91079,195.33472c-0.47387,-0.59457 -0.945,-1.62928 -0.06752,-2.90538c-0.1217,0.97955 -0.09489,1.95762 0.06752,2.90538z" fill="#ffced8" stroke="none" stroke-width="0.5"/><path d="M318.889,180.37176c0,0.43281 -0.10998,0.83992 -0.30352,1.19493c-0.42279,-1.01404 -0.85756,-2.03808 -1.31309,-2.65656c-0.28334,-0.3847 -0.5742,-0.72479 -0.86786,-1.03832c1.37356,0.00835 2.48447,1.12443 2.48447,2.49996z" fill="#ffced8" stroke="none" stroke-width="0.5"/><path d="" fill="#000000" stroke="none" stroke-width="0.5"/><path d="M292.38579,214.68558c-0.47869,0.52323 -0.91828,1.07595 -1.31092,1.65177c-0.1788,-0.03779 -0.35783,-0.0705 -0.53691,-0.0982c0.51749,-0.57629 1.15909,-1.0879 1.84784,-1.55357z" fill="#000000" stroke="none" stroke-width="0.5"/><path d="M308.97039,177.93588c0,0 -0.53396,0.52667 -1.06063,-0.00728c-0.52667,-0.53396 0.00728,-1.06063 0.00728,-1.06063c0.86338,-0.8162 1.13778,-1.65144 1.02424,-2.47159c0.48527,-0.12714 0.95615,-0.28983 1.40969,-0.48511c0.30286,1.28388 -0.02126,2.64149 -1.38058,4.02461z" fill="#000000" stroke="none" stroke-width="0.5"/><path d="M277.29347,252.63268c-0.20532,0.65565 -0.34175,1.3287 -0.40898,2.00766c-0.6359,1.47283 -0.90237,3.06993 -0.79577,4.64841c-0.47605,0.53517 -0.885,1.11001 -1.22657,1.71332c-3.19381,0.6687 -6.22099,1.33494 -9.07723,2.2462c2.97227,-3.85754 3.71176,-9.80845 1.88041,-14.05984c-0.17586,-0.40826 -0.40061,-0.77728 -0.66452,-1.11485c-0.37599,-0.62245 -0.81853,-1.2023 -1.31895,-1.72878c3.57209,1.40159 7.35101,2.34461 11.07042,2.63639c0.18813,1.2607 0.36875,2.48003 0.54118,3.6515z" fill="#ff0000" stroke="#000000" stroke-width="2"/><path d="M250.0469,247.79248c-0.82847,-0.52365 -1.74264,-0.93034 -2.72177,-1.19439c-0.02155,-0.45605 0.00436,-0.87492 0.10783,-1.22007c0.17324,-0.57785 2.22029,-1.45544 2.66657,-1.84997c1.40552,-1.24251 2.741,-2.56148 4.08833,-3.86752c1.57177,1.2978 3.32267,2.51809 5.19978,3.62257c-3.83076,-0.36671 -7.37298,1.48286 -9.34074,4.50937z" fill="#ff0000" stroke="#000000" stroke-width="2"/><path d="M269.81103,255.23422c0.0821,0.33273 0.12994,0.70746 0.15312,1.1091c0.85722,0.44388 1.52933,2.13576 1.62211,3.51054c0.12387,0.107 0.25249,0.21029 0.38781,0.30887c0.93758,0.68298 2.17868,-0.81154 3.07515,-1.15726c0,0 0.70337,-0.26033 0.9637,0.44304c0.26033,0.70337 -0.44304,0.9637 -0.44304,0.9637c-1.61926,0.56539 -2.453,2.15915 -4.32203,1.06323c-0.29934,0.34818 -0.80541,0.40453 -1.57251,-0.04657c-0.00998,0.17061 -0.01729,0.33461 -0.02106,0.49062c0,0 -0.01951,0.74974 -0.76926,0.73023c-0.74974,-0.01951 -0.73023,-0.76926 -0.73023,-0.76926c0.02618,-0.93019 0.17085,-2.11548 0.25643,-3.28466c-0.08796,-0.16317 -0.16055,-0.32552 -0.21352,-0.48479c0.4042,-1.63374 0.54628,-3.33867 0.41373,-4.97458c0.57756,0.68977 1.02664,1.39691 1.19959,2.0978z" fill="#000000" stroke="none" stroke-width="0.5"/><path d="" fill="#000000" stroke="none" stroke-width="0.5"/><path d="M250.84727,242.85472c0.36867,-0.33772 0.73341,-0.67976 1.09576,-1.02439c0.73693,0.78488 1.46651,1.57652 2.17627,2.38601c-0.46158,0.22144 -0.90451,0.47754 -1.3251,0.76529c-0.63695,-0.71986 -1.28896,-1.42612 -1.94692,-2.12691z" fill="#000000" stroke="none" stroke-width="0.5"/><path d="M169.56093,188.86987c1.50254,0.96333 2.41,1.92785 3.52454,2.86611c-0.82532,1.32342 -1.62852,2.66063 -2.4089,4.01051c-1.07282,1.85576 0.82185,5.19515 2.62737,7.97932c-5.82281,2.03443 -12.38341,1.92571 -18.37535,-0.60438c1.26048,-1.15145 2.99903,-2.60562 3.4149,-3.15863c2.30356,-3.06324 4.28762,-8.03604 4.12992,-11.72883c-0.02806,-0.65706 -0.97368,-0.96133 -1.16907,-1.58929c-0.18004,-0.57861 0.46902,-1.32646 0.10995,-1.81459c-0.68244,-0.92774 -2.03419,-1.13352 -2.86517,-1.93095c-2.62553,-2.51952 -4.13873,-4.01384 -7.29174,-3.54247c-0.07685,-0.18179 -0.15951,-0.36245 -0.24802,-0.54172c-0.38561,-0.781 -0.85956,-1.48937 -1.40381,-2.11902c0.97416,-0.78342 2.3305,-2.70823 3.38748,-4.68328c3.4994,7.62969 7.9307,11.31965 16.56789,16.85722z" fill="#ff0000" stroke="#000000" stroke-width="2"/><path d="M159.02103,202.5911c-0.76521,-0.4858 -1.26819,-1.07433 -1.55062,-1.74266c0.40554,-0.37394 0.72414,-0.68759 0.87309,-0.88565c1.95065,-2.59393 3.67218,-6.55713 4.05814,-9.95289c1.10309,-1.2405 2.28903,-2.45337 3.46052,-3.58507c1.14137,0.78535 2.37031,1.59334 3.69875,2.44505c1.50254,0.96333 2.41,1.92786 3.52454,2.86611c-0.82532,1.32342 -1.62851,2.66062 -2.40888,4.01049c-1.23757,2.14075 1.47376,6.25578 3.4418,9.21533c-7.6965,-0.50821 -13.35473,-1.26439 -15.09734,-2.37071z" fill="#ff0000" stroke="#000000" stroke-width="2"/><path d="M156.41643,202.26939c-0.05624,-0.10646 -0.1158,-0.21219 -0.17817,-0.31731c0.93548,-0.82711 1.82362,-1.61481 2.10523,-1.98929c2.30356,-3.06324 4.28762,-8.03604 4.12992,-11.72883c-0.02806,-0.65706 -0.97368,-0.96133 -1.16907,-1.58929c-0.18004,-0.57861 0.46902,-1.32646 0.10995,-1.81459c-0.43072,-0.58554 -1.12807,-0.88349 -1.79283,-1.22412c0.27417,-0.45075 0.55205,-0.90003 0.83378,-1.34734c2.42589,2.17009 5.37303,4.21813 9.10568,6.61126c0.7736,0.49597 1.38945,0.99228 1.95704,1.48514c-1.64202,2.65213 -3.19505,5.34453 -4.68164,8.09551c-0.59553,1.10204 -2.48835,4.1881 -3.7271,4.13043z" fill="#ff0000" stroke="none" stroke-width="0.5"/><path d="M140.38769,152.93938c-0.16459,0.10918 -0.34065,0.19772 -0.52399,0.26468c0.12009,-0.21045 0.23756,-0.42287 0.35155,-0.63585c0.05722,0.12476 0.1147,0.24849 0.17244,0.37117z" fill="#ffced8" stroke="none" stroke-width="0.5"/><path d="M166.54653,192.49801c-0.63238,0.70847 -1.36856,1.46894 -2.17936,2.21779c0.19996,0.16607 0.2952,0.42069 0.2645,0.66897l-0.08593,0.83939l-0.06397,-0.00654l0.02646,0.17592c-1.46781,2.42466 -3.02274,4.79865 -4.54188,7.19151c0,0 -0.40198,0.63318 -1.03516,0.2312c-0.31388,-0.19928 -0.37338,-0.45536 -0.35358,-0.66297c-0.8076,0.61173 -1.58883,0.43822 -2.35556,0.03332c-0.37973,-0.02677 -0.75742,-0.10852 -1.13252,-0.21153c1.243,-1.12546 2.85553,-2.48245 3.25395,-3.01228c0.89126,-1.18517 1.73469,-2.6562 2.42475,-4.22835c1.79253,-1.26651 3.42076,-2.85294 4.58257,-4.1421c0.53403,-0.82902 1.61606,-2.39736 2.74496,-3.67117c0.40906,0.26785 0.82823,0.53948 1.25789,0.81565c-1.13512,1.27218 -2.38898,3.09156 -2.80712,3.76119z" fill="#000000" stroke="none" stroke-width="0.5"/><path d="M170.66071,192.46071c-0.19068,-1.0112 -0.27692,-2.03315 -0.32203,-3.05632c0.61363,0.45106 1.12921,0.90127 1.62924,1.3478c0.08422,0.72272 0.20972,1.43955 0.40061,2.14598c-0.31001,0.50808 -0.61677,1.01812 -0.92024,1.53007c-0.25275,-0.655 -0.6771,-1.38164 -0.78759,-1.96753z" fill="#000000" stroke="none" stroke-width="0.5"/><path d="" fill="#000000" stroke="none" stroke-width="0.5"/><path d="" fill="#ffced8" stroke="none" stroke-width="0.5"/><path d="M232.26117,152.45466c-0.98218,-0.41558 -1.5605,-1.38541 -1.52491,-2.39131c1.53485,0.47312 3.06618,0.96025 4.59748,1.44866c-0.64674,1.00064 -1.9375,1.42292 -3.07257,0.94266z" fill="#ffced8" stroke="none" stroke-width="0.5"/><path d="M245.14833,198.50389v0.00001c0,0.00082 0,0.00165 0,0.00248c-0.22765,-0.25419 -0.44919,-0.50263 -0.65952,-0.74483c0.19948,0.02761 0.65952,0.15496 0.65953,0.74235z" fill="#000000" stroke="none" stroke-width="0.5"/></g></g></svg>