<svg version="1.1" xmlns="http://www.w3.org/2000/svg" xmlns:xlink="http://www.w3.org/1999/xlink" width="103" height="104.63248" viewBox="0,0,103,104.63248"><g transform="translate(-178.5,-132)"><g data-paper-data="{&quot;isPaintingLayer&quot;:true}" fill-rule="nonzero" stroke-linecap="butt" stroke-linejoin="miter" stroke-miterlimit="10" stroke-dasharray="" stroke-dashoffset="0" style="mix-blend-mode: normal"><path d="M229.5,158.5c0,14.08326 -11.19288,25.5 -25,25.5c-13.80712,0 -25,-11.41674 -25,-25.5c0,-14.08326 11.19288,-25.5 25,-25.5c13.80712,0 25,11.41674 25,25.5z" fill="#ff0000" stroke="#000000" stroke-width="2"/><path d="M280.5,159.5c0,14.08326 -11.19288,25.5 -25,25.5c-13.80712,0 -25,-11.41674 -25,-25.5c0,-14.08326 11.19288,-25.5 25,-25.5c13.80712,0 25,11.41674 25,25.5z" fill="#ff0000" stroke="#000000" stroke-width="2"/><path d="M182.5,166c0,-9.87924 27,0 27,0h45c0,0 25,-11.73666 25,-2c0,6.74516 -27.19523,46.29844 -41.868,67.14792c-0.60031,0.33417 -1.16263,0.72838 -1.67883,1.17451c-1.47519,0.6304 -2.76802,1.60525 -3.77744,2.82346c-0.71371,0.06039 -1.40607,0.19575 -2.06916,0.39816c-3.76262,-2.32237 -7.30022,-4.43736 -11.02898,-5.89103c-13.45828,-20.71691 -36.57758,-57.23889 -36.57758,-63.65302z" fill="#ff0000" stroke="#000000" stroke-width="2"/><path d="M181.37559,163.62867c0.97613,-1.70823 1.31136,-4.06171 2.67397,-5.38084c0.20781,-0.20118 0.43952,-0.3783 0.70103,-0.52541c0.41331,-0.23249 0.88728,-0.41158 1.40062,-0.55041c0.39644,-0.12107 0.80839,-0.20665 1.23212,-0.25299c1.89735,-0.28797 4.05947,-0.22993 5.6621,-0.33446c6.4312,-0.41945 13.1786,-0.45772 19.56762,0.6405c1.83138,0.3148 4.8339,2.54695 6.42532,2.59479c4.96089,0.14913 9.92654,0.05152 14.88941,0c3.48961,-0.03623 9.14806,0.87916 12.5489,0.02895c7.61325,-1.90331 14.78754,-5.47985 22.49718,-7.29985c3.16227,-0.74651 7.98112,-0.46776 9.81177,2.89459c2.24018,4.11455 -0.99331,9.69549 -5.28271,10.56543c-1.01306,0.20546 -3.36507,-1.04224 -4.2912,0.25206c-1.27535,1.78235 -4.46215,1.85294 -6.53915,2.46619c-5.05679,1.49308 -10.09011,3.7608 -15.34612,4.9288c-2.94711,0.65491 -9.43269,-0.36731 -12.73028,-0.33617c-4.64667,0.04387 -12.03461,0.04206 -16.68149,0.04206c-4.1082,0 -7.03565,-3.12161 -11.2083,-3.27735c-5.56499,-0.2077 -11.02194,-0.09279 -16.52198,0.29411c-1.24957,0.0879 -4.86942,0.14397 -5.48468,-0.93274z" fill="#ff0000" stroke="none" stroke-width="0.5"/><path d="M267.45704,160.084c-2.5,0 -2.5,-2.5 -2.5,-2.5l0.00864,-0.68804c-0.45315,-5.61146 -0.82378,-10.65553 -7.4817,-10.92146c-1.68693,-0.06738 -3.36304,0.30191 -5.04548,0.44211c0,0 -2.49136,0.20761 -2.69898,-2.28375c-0.20761,-2.49136 2.28375,-2.69898 2.28375,-2.69898c6.15425,-0.51285 13.71031,-0.90039 16.43632,6.10587c1.00971,2.5951 1.25247,6.17965 1.48881,8.94098l0.00864,1.10327c0,0 0,2.5 -2.5,2.5z" fill="#ffced8" stroke="none" stroke-width="0.5"/><path d="M215.51206,147.95724c1.11803,-2.23607 3.3541,-1.11803 3.3541,-1.11803l1.92135,1.39766c1.57416,2.63461 3.01587,4.4898 4.03451,7.437c0,0 0.79057,2.37171 -1.58114,3.16228c-2.37171,0.79057 -3.16228,-1.58114 -3.16228,-1.58114c-0.80963,-2.55509 -2.19575,-4.14955 -3.57856,-6.44566l0.13004,0.502c0,0 -2.23607,-1.11803 -1.11803,-3.3541z" fill="#ffced8" stroke="none" stroke-width="0.5"/><path d="M203.38068,142.58176c0,-1.38071 1.11929,-2.5 2.5,-2.5c1.38071,0 2.5,1.11929 2.5,2.5c0,1.38071 -1.11929,2.5 -2.5,2.5c-1.38071,0 -2.5,-1.11929 -2.5,-2.5z" fill="#ffced8" stroke="none" stroke-width="0.5"/><path d="M252.43125,199.03164c1.76777,1.76777 0,3.53553 0,3.53553l0.15205,-0.25761c-1.3275,2.20963 -2.79199,4.24016 -3.93812,6.54922c0,0 -1.11803,2.23607 -3.3541,1.11803c-2.23607,-1.11803 -1.11803,-3.3541 -1.11803,-3.3541c1.2194,-2.42355 2.73051,-4.56194 4.12279,-6.88563l0.59988,-0.70544c0,0 1.76777,-1.76777 3.53553,0z" fill="#ffced8" stroke="none" stroke-width="0.5"/><path d="M251.74611,192.51459c0,-1.38071 1.11929,-2.5 2.5,-2.5c1.38071,0 2.5,1.11929 2.5,2.5c0,1.38071 -1.11929,2.5 -2.5,2.5c-1.38071,0 -2.5,-1.11929 -2.5,-2.5z" fill="#ffced8" stroke="none" stroke-width="0.5"/><path d="M221.67223,197.75216c-0.53033,0.53033 -1.06066,0 -1.06066,0l-0.21966,-0.33164c-1.50586,-0.53633 -2.50057,-1.90174 -3.67557,-2.99814c-1.36565,1.94352 -2.84595,3.81614 -4.63125,4.80258c-1.24447,0.68761 -3.04061,0.13785 -4.34095,0.66254c-2.18287,0.88079 -3.93467,2.03375 -6.36506,2.03946c0,0 -0.75,0 -0.75,-0.75c0,-0.29846 0.11877,-0.47815 0.26179,-0.58633c-0.28615,-0.38947 0.01161,-0.8361 0.01161,-0.8361l0.13125,-0.1228c-0.07928,-0.11088 -0.15647,-0.23347 -0.23276,-0.36792l-0.11652,0.09321l-0.50909,-0.63636c-0.10508,-0.12907 -0.16808,-0.29377 -0.16808,-0.47319c0,-0.41421 0.33579,-0.75 0.75,-0.75c0.08907,0 0.17452,0.01553 0.25378,0.04402l0.71074,0.23691c3.04653,0.50444 5.78838,-0.47116 8.74158,-0.53418l0.05673,-0.09289c0.84667,-0.27974 1.63245,-0.40723 2.50389,-0.51958c2.18635,-2.12363 3.93366,-5.4912 5.73326,-7.59804c2.80168,-3.28002 5.94887,-6.23711 8.66474,-9.57971l-0.02835,-0.29914c0,0 0.14709,-0.73544 0.88252,-0.58835c0.73544,0.14709 0.58835,0.88252 0.58835,0.88252l-0.27835,0.95086c-2.72412,3.35276 -5.87854,6.31851 -8.68835,9.60805c-0.77634,0.90888 -1.53889,2.0256 -2.32779,3.17833c1.03521,0.99745 2.03462,2.43427 3.29622,2.81121l0.80598,0.694c0,0 0.53033,0.53033 0,1.06066z" fill="#000000" stroke="none" stroke-width="0.5"/><path d="M205.57136,179.29235c0.23717,0.71151 -0.47434,0.94868 -0.47434,0.94868l-0.74992,0.24968c-2.04154,0.80585 -3.0003,1.68264 -5.12998,0.73833c-1.18963,-2.17196 -4.07352,-2.87558 -5.08128,-5.99097c-0.48151,-1.48855 0.56776,-1.92669 1.42261,-2.58664c0.62513,-0.48261 1.13181,-1.69251 1.73255,-2.25446c1.143,-1.06919 2.43653,-1.94774 3.73277,-2.80571c-1.56355,-0.51389 -4.94974,-0.65525 -5.96937,-0.64763c-0.93706,-0.15416 -1.97363,-0.36807 -3.04041,-0.65121c-0.03302,0.25782 -0.19695,0.47469 -0.42301,0.58185l-0.7547,0.37735l-0.02876,-0.05751l-0.13434,0.11663c-2.83369,0.06038 -5.6713,0.02006 -8.50565,0.02006c0,0 -0.75,0 -0.75,-0.75c0,-0.37179 0.18431,-0.55928 0.37019,-0.65383c-0.9493,-0.35394 -1.22153,-1.10647 -1.29065,-1.97079c-0.41998,-0.77747 -0.584,-1.70443 -0.84415,-2.54912c-0.25763,-0.83651 -1.43764,-3.3335 -0.49355,-4.1572c0.11762,-0.10262 0.22913,-0.1885 0.33509,-0.2592v-0.02525c0,-0.27961 0.15301,-0.52348 0.37987,-0.65245c-0.23007,-0.31438 -0.46853,-0.62162 -0.71885,-0.91869c0,0 -0.48014,-0.57617 0.09603,-1.0563c0.57617,-0.48014 1.0563,0.09603 1.0563,0.09603c1.62292,1.96581 2.79836,4.29525 4.36606,6.29068c2.17756,2.77169 7.24804,4.1724 10.50425,4.72406c1.68555,0.01114 6.05285,0.21618 7.40169,1.26972c0.1921,-0.00336 0.41419,0.07045 0.59639,0.34375c0.09121,0.13682 0.13243,0.26364 0.14119,0.37826c1.05341,1.18892 1.84783,2.72978 2.99347,3.81503c1.24171,1.17626 2.78129,2.14597 4.13599,3.19353l0.56811,0.3348c0,0 0.64312,0.38587 0.25725,1.02899c-0.38587,0.64312 -1.02899,0.25725 -1.02899,0.25725l-0.71394,-0.43443c-2.82406,-2.18379 -4.79612,-4.67312 -7.21799,-7.09846c-1.89587,1.25441 -3.79037,2.53516 -5.17934,4.38374c-0.32797,0.43649 -1.45891,1.0995 -1.54214,1.5245c-0.46177,2.35774 2.83401,3.2854 3.93937,4.09105c0.11473,0.08362 0.57711,1.25485 0.71702,1.60121c1.201,0.4661 2.47503,-0.61638 3.58797,-1.05654l0.78855,-0.26314c0,0 0.71151,-0.23717 0.94868,0.47434zM184.59155,162.77684c-0.00194,-0.00167 -0.00388,-0.00335 -0.00581,-0.00502c-0.00132,0.00199 -0.00264,0.00399 -0.00395,0.00598c0.00325,-0.00032 0.00651,-0.00065 0.00977,-0.00096z" fill="#000000" stroke="none" stroke-width="0.5"/><path d="M246.06498,151.98465c0.75,0 0.75,0.75 0.75,0.75l-0.00579,0.47764c-0.26111,2.06423 0.11296,6.36397 -1.43462,7.93255c-0.84785,0.85936 -3.4729,0.58214 -4.30422,1.58554c-0.12747,0.15386 0.1036,1.87531 0.1036,2.18376c0,1.5075 0.05942,2.92587 -0.39305,4.37401c1.42266,1.05464 2.71068,2.21486 3.55123,3.54645c2.02429,3.20688 1.38914,6.91874 1.78595,10.45825l0.00396,0.6254c0.25977,0.43501 -0.1119,0.85313 -0.1119,0.85313c-0.9587,1.07853 -1.79949,2.12741 -2.65191,3.28378c-0.2367,0.3211 -0.98209,0.58054 -0.76846,0.91743c0.61873,0.97572 1.08451,1.28215 1.40793,2.55452l0.12821,0.51282c0,0 0.1819,0.72761 -0.54571,0.90951c-0.72761,0.1819 -0.90951,-0.54571 -0.90951,-0.54571l-0.12821,-0.51282c-0.23332,-0.95182 -1.23065,-1.81224 -1.41259,-2.57369c-0.36511,-1.52805 2.33048,-4.04272 3.49499,-5.25837c-0.00224,-0.02661 -0.00224,-0.04215 -0.00224,-0.04215l0.00459,-0.5582c-0.08071,-0.73249 -0.11084,-1.47743 -0.1294,-2.22595c-1.13184,-0.19006 -2.4014,-0.52507 -3.46337,-0.17839c-0.03438,0.20998 -0.17374,0.63562 -0.73874,0.63562c-0.75,0 -0.75,-0.75 -0.75,-0.75l0.41459,-1.05544c1.47869,-0.70377 2.959,-0.40357 4.50384,-0.16768c-0.058,-2.10356 -0.23186,-4.18794 -1.3843,-6.05632c-1.14385,-1.85445 -3.90729,-3.48085 -5.60556,-4.82242c-0.65715,-0.51912 -1.2293,-0.61449 -1.54097,-1.10611c-0.10574,0.18326 -0.22164,0.36185 -0.34764,0.53279c-0.10357,0.20866 -0.26053,0.38791 -0.4545,0.53463c-0.10062,0.10213 -0.20585,0.1992 -0.31566,0.2903c0,0 -0.35106,0.28085 -0.72702,0.13586c-0.36232,0.06016 -0.74835,0.05214 -1.11723,-0.03184c-0.63703,0.12435 -1.08596,-0.26939 -1.39021,-0.83621c-2.27236,-2.29319 -1.70634,-5.37116 -3.26985,-8.0711c0,0 -0.3721,-0.65118 0.27908,-1.02329c0.49179,-0.28102 0.8244,0.0216 0.95776,0.18659c0.14993,-0.60213 0.62452,-0.88394 1.69131,-0.45307c0.60132,0.24287 0.5238,1.85141 0.52431,2.45613c0.00016,0.18578 -0.00347,0.75626 0.00539,1.43915c0.03119,0.18297 0.06068,0.36637 0.09769,0.54784c0.4102,1.37303 1.98577,1.71314 2.97168,2.53279c0.12609,-0.23679 0.37543,-0.39798 0.66242,-0.39798c0.22957,0 0.43504,0.10314 0.57262,0.26561l0.60053,0.70061c0.88959,0.5812 1.84353,1.18007 2.78146,1.81351c0.27735,-1.91622 -0.60724,-5.09363 0.32207,-6.38444c1.00963,-1.40238 3.68978,-1.05189 4.67014,-2.00421c1.05086,-1.0208 0.69331,-5.48522 0.87308,-6.93924l-0.00579,-0.29159c0,0 0,-0.75 0.75,-0.75z" fill="#000000" stroke="none" stroke-width="0.5"/><path d="M265.40471,178.31796c-0.71151,0.23717 -0.94868,-0.47434 -0.94868,-0.47434l-0.27632,-0.8405c-0.03006,-0.23419 -0.06012,-0.46838 -0.09017,-0.70257c-1.42035,1.25645 -2.89301,2.41712 -4.41851,3.32955c-0.68978,-0.80227 -1.36666,-1.63992 -1.84097,-2.58568l-0.19282,-0.82935c0,0 -0.14709,-0.73544 0.58835,-0.88252c0.73544,-0.14709 0.88252,0.58835 0.88252,0.58835l0.06359,0.4527c0.28473,0.57134 0.54266,1.16098 0.72313,1.77329c0.55762,-1.08108 1.66542,-1.63307 2.53226,-2.45537c1.04847,-0.9946 2.07946,-1.98951 3.11612,-2.97377c-1.08231,-0.91276 -2.08665,-1.79421 -3.12202,-2.77778c-0.59908,-0.5691 -1.70669,-0.68294 -2.00923,-1.45185c-1.06181,-2.69859 0.91775,-6.31808 1.73608,-8.8055l0.11197,-0.46145c0,0 0.18014,-0.72804 0.90819,-0.5479c0.72804,0.18014 0.5479,0.90819 0.5479,0.90819l-0.14331,0.57028c-0.7081,2.14882 -2.44629,5.24857 -1.85479,7.59867c0.16685,0.66293 1.23299,0.63092 1.73208,1.09807c1.06187,0.99391 2.08061,1.89726 3.19192,2.83345c0.6984,-0.65278 1.40301,-1.29906 2.12076,-1.93554c1.24647,-1.10533 0.89108,-3.26001 1.79243,-4.58553c0.95633,-1.40635 2.43345,-1.6263 3.97623,-1.88396c0,0 0.11637,-0.01939 0.26449,0.00335c0.32552,-1.63697 1.42628,-3.81461 1.97017,-4.4815c0.08279,-0.10151 0.27128,-0.33726 0.49614,-0.60124c0.11504,-0.45487 0.2033,-0.91987 0.23368,-1.4069c0.02788,-0.44684 -0.12802,-2.13254 0.38497,-2.27605c2.05503,-0.57488 2.6784,2.14432 2.89768,3.34987c0.63172,3.47297 0.83226,7.39445 -1.81408,9.90001c-0.15679,0.00919 -0.30508,0.00649 -0.44518,-0.00726c-0.01966,0.46024 -0.03766,0.92197 -0.03766,1.38772c0,0 0,0.55759 -0.48078,0.71122c-0.12558,1.0504 -0.3464,2.0063 -0.57897,2.46112c-0.24989,0.48868 -0.47381,1.25537 -1.02149,1.29143c-1.69342,0.11151 -1.33075,-2.21693 -1.34183,-2.88685c-0.02415,-1.45998 0.16855,-2.76973 0.42263,-4.05515c-0.05931,0.01509 -0.12144,0.0231 -0.18545,0.0231c-0.41421,0 -0.75,-0.33579 -0.75,-0.75v-0.89744l0.02838,0l-0.01204,-0.02749c0.03175,-0.04268 0.06349,-0.08537 0.09524,-0.12805l-0.04694,-0.02086l0.03866,-0.08699c-4.07588,0.74261 -2.30688,3.60824 -4.8716,6.07215c-1.43593,1.37949 -2.93732,2.90983 -4.50496,4.37283c0.21723,0.19526 0.25465,0.49461 0.25465,0.49461c0.03847,0.31759 0.07694,0.63517 0.11542,0.95276l0.2365,0.69797c0,0 0.23717,0.71151 -0.47434,0.94868zM279.25144,164.79859c0.37182,-1.03105 0.46659,-2.20553 0.42389,-3.37287c-0.18266,-0.02624 -0.34405,-0.1183 -0.45938,-0.25137c0.09088,1.16256 0.04144,2.29695 0.03549,3.62424z" fill="#000000" stroke="none" stroke-width="0.5"/><path d="M234.80044,208.61458c0.53033,0.53033 0,1.06066 0,1.06066l-0.03674,-0.27392c0,1.80676 0.11311,3.19914 1.02238,4.74839c0.38907,-0.24322 0.76506,-0.48829 1.11916,-0.73907l1.01744,-0.76317c0,0 0.6,-0.45 1.05,0.15c0.45,0.6 -0.15,1.05 -0.15,1.05l-1.03384,0.7753c-2.08953,1.48037 -5.25168,2.8102 -6.85704,4.79915c0.00161,0.12837 -0.03455,0.26954 -0.14245,0.4094l0,0.33923c0,2.17691 0.69905,5.82545 -0.37519,7.71274c-0.16953,0.29784 -0.39282,0.60255 -0.65253,0.90981c0.31611,0.91211 -0.36124,2.60189 -1.24044,3.66284c0.01617,0.16288 0.03834,0.32635 0.06862,0.49101c0.20978,1.14084 2.13884,0.91137 3.02704,1.27783c0,0 0.68936,0.29544 0.39392,0.9848c-0.29544,0.68936 -0.9848,0.39392 -0.9848,0.39392c-1.56365,-0.70475 -3.26559,-0.12287 -3.86662,-2.20447c-0.45682,0.04644 -0.86264,-0.26111 -1.10842,-1.1164c-0.1247,0.11687 -0.24291,0.23078 -0.35304,0.34133c0,0 -0.53033,0.53033 -1.06066,0c-0.53033,-0.53033 0,-1.06066 0,-1.06066c0.65939,-0.65661 1.58036,-1.41665 2.44737,-2.20571c0.15988,-0.58927 0.43473,-1.05719 0.87831,-1.2413c0.03679,-0.09272 0.07068,-0.18736 0.10148,-0.28404l0.4067,-0.81763c0,0 0.29316,-0.58631 0.87947,-0.38859c0.52969,-1.63886 -0.06121,-4.90301 -0.06121,-6.45549v-0.51282c0,0 0,-0.04119 0.00965,-0.10426c-1.38506,-1.52194 -3.67884,-3.66286 -4.40545,-5.30619c-0.43037,-0.97335 0.10084,-2.94769 0.16283,-3.95124c0.12651,-2.04836 0.13041,-4.09992 0.13041,-6.15113v-0.12821c0,0 0,-0.75 0.75,-0.75c0.75,0 0.75,0.75 0.75,0.75v0.12821c0,2.0821 -0.00418,4.16469 -0.13328,6.24385c-0.01931,0.31103 -0.54652,2.74394 -0.34272,3.14097c0.72631,1.41496 2.50769,3.18761 3.84183,4.62517c1.18004,-1.26831 2.84558,-2.26556 4.45358,-3.22807c-1.04229,-1.80056 -1.24248,-3.43213 -1.24248,-5.5255l0.47608,-0.78674c0,0 0.53033,-0.53033 1.06066,0z" fill="#000000" stroke="none" stroke-width="0.5"/><path d="M245.14831,198.50388c0,0.75 -0.75,0.75 -0.75,0.75h-0.51282c-1.30897,0 -2.60639,-0.04297 -3.90801,-0.13076c-0.54796,-0.03696 -1.11149,-0.59213 -1.60826,-0.35793c-0.42152,0.19872 -1.99757,2.54396 -2.54314,3.08954c0,0 -0.53033,0.53033 -1.06066,0c-0.53033,-0.53033 0,-1.06066 0,-1.06066c0.57278,-0.57278 2.24982,-3.04997 2.84147,-3.32072c1.33828,-0.61241 4.73133,0.28054 6.2786,0.28054h0.51282c0,0 0.75,0 0.75,0.75z" fill="#000000" stroke="none" stroke-width="0.5"/><path d="M207.34635,154.65412c0.38822,-0.6417 1.02993,-0.25348 1.02993,-0.25348l0.48865,0.30115c1.58485,1.2211 5.25682,1.99309 6.21091,3.73684c0.54992,1.00507 -0.8151,4.02125 -0.24347,4.82531c0.57308,0.8061 2.03262,0.14947 2.90106,0.62278c1.46565,0.79879 2.62815,2.31603 3.36134,3.76893c0,0 0.33541,0.67082 -0.33541,1.00623c-0.67082,0.33541 -1.00623,-0.33541 -1.00623,-0.33541c-0.78959,-1.59664 -2.15224,-3.05655 -3.89025,-3.58751c-0.55938,-0.17089 -1.83398,-0.09257 -2.15504,-0.48232c-0.90487,-1.09847 0.62501,-4.37385 0.01294,-5.17469c-0.70181,-0.91826 -2.25538,-0.84512 -3.19413,-1.29332c-0.38418,-0.18342 -2.19095,-1.60105 -2.57718,-1.89857l-0.34965,-0.20601c0,0 -0.6417,-0.38822 -0.25348,-1.02993z" fill="#000000" stroke="none" stroke-width="0.5"/><path d="M194.08194,142.10756c-0.53033,-0.53033 0,-1.06066 0,-1.06066l1.03033,-0.71967c0.5,0 1,0 1.5,0c0,0 0.04007,0 0.10168,0.00926c0.20808,-0.50968 0.42305,-1.05407 0.26033,-1.36496c-0.89986,-1.71935 -4.6243,0.03358 -3,-3.7886c0.19771,-0.46522 0.86839,-0.51768 1.30258,-0.77652c0,0 0.67082,-0.33541 1.00623,0.33541c0.33541,0.67082 -0.33541,1.00623 -0.33541,1.00623c-2.47183,0.79206 1.96856,1.75388 2.30258,2.43488c0.30366,0.61909 0.22718,1.39045 0.09195,2.06661c-0.04796,0.2398 -0.83074,0.38062 -0.59195,0.43339c0.71891,0.15885 1.53386,-0.09551 2.19742,0.22348l0.41459,1.67082c0,0 0,0.75 -0.75,0.75c-0.75,0 -0.75,-0.75 -0.75,-0.75l0.41459,-0.32918c-0.70007,-0.3688 -1.71537,-0.15318 -2.39885,-0.4694c-0.14477,0.04858 -0.26574,0.04858 -0.26574,0.04858c-0.5,0 -1,0 -1.5,0l0.03033,0.28033c0,0 -0.53033,0.53033 -1.06066,0z" fill="#000000" stroke="none" stroke-width="0.5"/><path d="M260.36227,139.57722c0,-0.75 0.75,-0.75 0.75,-0.75l0.69348,0.02539c4.06311,1.08492 11.13663,3.02807 8.47734,8.56002c0,0 -0.33541,0.67082 -1.00623,0.33541c-0.67082,-0.33541 -0.33541,-1.00623 -0.33541,-1.00623c2.21467,-4.20398 -4.5854,-5.65568 -7.52266,-6.43998l-0.30652,0.02539c0,0 -0.75,0 -0.75,-0.75z" fill="#000000" stroke="none" stroke-width="0.5"/></g></g></svg>