<svg version="1.1" xmlns="http://www.w3.org/2000/svg" xmlns:xlink="http://www.w3.org/1999/xlink" width="27.47456" height="68.8759" viewBox="0,0,27.47456,68.8759"><g transform="translate(-226.26272,-146.06205)"><g data-paper-data="{&quot;isPaintingLayer&quot;:true}" fill-rule="nonzero" stroke-linecap="butt" stroke-linejoin="miter" stroke-miterlimit="10" stroke-dasharray="" stroke-dashoffset="0" style="mix-blend-mode: normal"><path d="M249.79244,181.25502c0,9.96806 -6.4449,32.68293 -10.18292,32.68293c-3.73802,0 -9.57317,-21.73925 -9.57317,-31.70731c0,-9.96806 6.4449,-8.78049 10.18292,-8.78049c3.73802,0 9.57317,-2.16319 9.57317,7.80487z" fill="#8b0000" stroke="#8b0000" stroke-width="2"/><path d="M247.18749,177.04065c-0.5609,0.09159 -0.9847,0.04653 -1.29791,-0.09764c-0.17252,0.46796 -0.41155,0.87431 -0.77983,1.14409c-3.26407,2.39101 -5.80313,0.61951 -6.62508,-2.06538c-0.13199,0.29185 -0.26121,0.5383 -0.37828,0.69791c-1.75413,2.39162 -4.64029,0.45882 -6.14126,-1.09948c-0.14677,0.33151 -0.29586,0.66334 -0.44698,0.99593c0,0 -0.31035,0.68277 -0.99312,0.37242c-0.68277,-0.31035 -0.37242,-0.99313 -0.37242,-0.99313c1.36409,-3 2.53823,-5.92587 3.37471,-9.11919c0.41729,-1.59306 0.21738,-3.23011 0.73431,-4.79384c1.18995,-2.17127 3.07247,-2.07823 3.75299,0.41833c0.7802,2.86226 0.05385,5.71061 0.82668,8.50565c1.58784,-3.21662 1.05421,-8.48575 1.05421,-11.47275c0,-1.91142 1.94791,-5.41103 3.80436,-2.464c0.72108,1.14469 0.30353,2.92083 0.35322,4.20498c0.1004,2.59446 0.66129,5.43611 1.59623,7.8632c0.19839,0.51615 0.40756,0.99277 0.63295,1.44539c0.40409,-1.25253 0.82611,-2.53866 1.74293,-2.82188c3.07782,-0.95076 2.12938,3.95587 1.6591,6.47468c0.58799,0.39851 0.20481,1.01157 0.20481,1.01157l-0.22485,0.29074l-0.18607,0.74427c-0.07579,0.33399 -0.37448,0.58332 -0.73141,0.58332c-0.25853,0 -0.48651,-0.13081 -0.62136,-0.32986c-0.26406,0.25135 -0.56637,0.444 -0.93792,0.50466zM246.70433,175.56181c0.12787,0.13485 0.43548,-0.15352 0.73227,-0.50343l-0.16156,-0.24616c-0.20736,-0.2592 -0.40507,-0.51421 -0.594,-0.76757c0.08126,0.4381 -0.48013,0.98629 0.02329,1.51716z" fill="#8b0000" stroke="none" stroke-width="0.5"/><path d="M229.86234,178.06486c4.01054,1.58626 4.86233,8.51404 0.83646,10.57962c0.73725,1.74911 1.32835,3.51103 1.32962,5.31947c0,0 0,0.75 -0.75,0.75c-0.75,0 -0.75,-0.75 -0.75,-0.75c0.00359,-4.7484 -4.1561,-9.20594 -4.17466,-13.98877c-0.24665,-1.47988 -0.16398,-7.3197 2.50013,-4.22753c0.54045,0.62729 0.74196,1.37718 0.86275,2.16173c0.06041,0.0457 0.10809,0.09932 0.1457,0.15549zM230.76459,181.44291c-0.29244,-0.48147 -0.4584,-1.01345 -0.73597,-1.42187c0.16096,0.68974 0.43921,1.34519 1.01564,1.90472c-0.08954,-0.1628 -0.18318,-0.324 -0.27966,-0.48284z" fill="#8b0000" stroke="none" stroke-width="0.5"/><path d="M240.93818,198.18427c1.2636,-4.25853 4.23866,-5.63133 7.70902,-7.94562c0,0 0.59064,-0.39376 1.00577,0.1595c0.66652,-0.57521 1.18632,-1.31035 1.81697,-1.96016l-0.18246,-0.16218l0.50384,-0.56681c0.13744,-0.15607 0.33875,-0.25453 0.56305,-0.25453c0.41421,0 0.75,0.33578 0.75,0.75v0.82278c0,1.106 0.00757,2.199 -0.07608,3.30245c-1.57263,5.18543 -3.66968,9.28999 -7.26526,13.33506c0,0 -0.49828,0.56056 -1.05883,0.06229c-0.35055,-0.3116 -0.28702,-0.64756 -0.19022,-0.85555c-3.38532,0.02575 -4.4843,-3.62542 -3.5758,-6.68722z" fill="#8b0000" stroke="none" stroke-width="0.5"/><path d="M235.63037,152.52062c0.02518,-0.00189 0.05131,-0.00287 0.07842,-0.00287c0.75,0 0.75,0.75 0.75,0.75l-0.00259,0.25417c0.11039,1.33781 -0.37422,6.04351 -2.29028,2.61375c-0.45253,-0.81002 -0.02991,-3.19128 -0.02991,-4.13375c0,0 0,-0.75 0.75,-0.75c0.75,0 0.75,0.75 0.75,0.75c0,0.1645 -0.00192,0.3389 -0.00564,0.5187z" fill="#8b0000" stroke="none" stroke-width="0.5"/><path d="M241.46829,146.06205c0.75,0 0.75,0.75 0.75,0.75v0.06329c-0.00276,1.0319 -0.08136,1.92665 -0.31114,2.80894c0.05797,0.15623 0.05797,0.29232 0.05797,0.29232v0.7595c0,0.41421 -0.33578,0.75 -0.75,0.75c-0.41422,0 -0.75,-0.33579 -0.75,-0.75v-0.7595c0,0 0,-0.17999 0.08817,-0.36361c-0.31454,-0.62432 0.16763,-1.89104 0.165,-2.73765v-0.06329c0,0 0,-0.75 0.75,-0.75z" fill="#8b0000" stroke="none" stroke-width="0.5"/><path d="M249.12652,161.46395l-0.75,0.09494c0,-0.50633 0,-1.01266 0,-1.51899c0,0 0,-0.75 0.75,-0.75c0.75,0 0.75,0.75 0.75,0.75c0,0.50633 0,1.01266 0,1.51899z" fill="#8b0000" stroke="none" stroke-width="0.5"/><path d="M228.49361,163.08737c0.75,0 0.75,0.75 0.75,0.75v0.06329c0,2.67782 0.37974,5.25996 0.37974,7.91139c0,0 0,0.75 -0.75,0.75c-0.75,0 -0.75,-0.75 -0.75,-0.75c0,-2.64721 -0.37974,-5.23531 -0.37974,-7.91139v-0.06329c0,0 0,-0.75 0.75,-0.75z" fill="#8b0000" stroke="none" stroke-width="0.5"/><path d="M252.1107,184.21711c0,-0.41422 0.33578,-0.75 0.75,-0.75c0.41422,0 0.75,0.33578 0.75,0.75c0,0.41422 -0.33578,0.75 -0.75,0.75c-0.41422,0 -0.75,-0.33578 -0.75,-0.75z" fill="#8b0000" stroke="none" stroke-width="0.5"/><path d="M252.98728,178.21395c0.75,0 0.75,0.75 0.75,0.75c0,0.29536 0,1.35021 0,1.64557c0,0 0,0.75 -0.75,0.75c-0.75,0 -0.75,-0.75 -0.75,-0.75c0,-0.29536 0,-0.59072 0,-0.88608v-0.75949c0,0 0,-0.75 0.75,-0.75z" fill="#8b0000" stroke="none" stroke-width="0.5"/><path d="M246.84804,160.15699c-0.75,0 -0.75,-0.75 -0.75,-0.75l0.01021,-0.24988c0.48298,-2.89789 0.38511,-5.76221 0.6253,-8.67316c0,0 0.06228,-0.74741 0.80969,-0.68512c0.74741,0.06229 0.68512,0.8097 0.68512,0.8097c-0.24858,2.9514 -0.15053,5.85522 -0.64052,8.79519l0.0102,0.00329c0,0 0,0.75 -0.75,0.75z" fill="#8b0000" stroke="none" stroke-width="0.5"/><path d="M247.94796,183.30563c0,9.53947 -4.91355,27.48549 -8.21889,27.48549c-3.30534,0 -7.36783,-18.69071 -7.36783,-28.23018c0,-9.53947 4.38163,-8.97485 7.68697,-8.97485c3.30534,0 7.89974,0.18007 7.89974,9.71954z" fill="#4c0000" stroke="none" stroke-width="0"/></g></g></svg>