<svg version="1.1" xmlns="http://www.w3.org/2000/svg" xmlns:xlink="http://www.w3.org/1999/xlink" width="25.68768" height="43.16509" viewBox="0,0,25.68768,43.16509"><g transform="translate(-230.26838,-154.41604)"><g data-paper-data="{&quot;isPaintingLayer&quot;:true}" fill-rule="nonzero" stroke="none" stroke-linecap="butt" stroke-linejoin="miter" stroke-miterlimit="10" stroke-dasharray="" stroke-dashoffset="0" style="mix-blend-mode: normal"><path d="M253.02591,184.83508c0,4.11296 -1.55181,6.83238 -3.64156,9.08142c-1.77116,1.90616 -3.83363,3.66463 -6.65657,3.66463c-2.60855,0 -4.13329,-2.51287 -5.99693,-3.4583c-2.53276,-1.28488 -4.97648,-1.5336 -4.97648,-5.9113c0,-3.57581 -2.64682,-9.49321 -0.87551,-12.96901c1.99286,-3.91058 8.59098,-5.17932 11.84893,-5.17932c3.55264,0 9.4744,1.209 11.27683,4.6922c1.31965,2.55022 -0.9787,6.86779 -0.9787,10.07971z" fill="#8b0000" stroke-width="0"/><path d="M236.72597,180.77155c-1.49605,-6.26622 0.12045,-6.29137 3.32837,-6.29137c3.20791,0 0.42697,-0.18641 7.1612,6.16705c3.88973,3.66979 -0.7484,11.01864 -2.99499,10.75213c-1.45794,-0.17295 -1.69636,-2.8753 -2.95885,-2.8753c-3.20791,0 -7.07902,4.19868 -7.07902,-5.05963z" data-paper-data="{&quot;index&quot;:null}" fill="#4c0000" stroke-width="0"/><path d="M234.32745,154.4647c1.21268,0.30317 0.90951,1.51585 0.90951,1.51585l-0.24912,0.98132c-0.2223,0.6669 -0.4446,1.33381 -0.6669,2.00071c0,0 -0.39528,1.18585 -1.58114,0.79057c-1.18585,-0.39528 -0.79057,-1.58114 -0.79057,-1.58114c0.2223,-0.6669 0.4446,-1.33381 0.6669,-2.00071l0.19548,-0.79709c0,0 0.30317,-1.21268 1.51585,-0.90951z" fill="#8b0000" stroke-width="0.5"/><path d="M252.30228,178.42643c-1.18585,-0.39528 -0.79057,-1.58114 -0.79057,-1.58114l0.2223,-0.6669c0.63701,-1.89254 0.94224,-3.68194 1.84623,-5.49896c0,0 0.55902,-1.11803 1.67705,-0.55902c1.11803,0.55902 0.55902,1.67705 0.55902,1.67705c-0.85541,1.70127 -1.11906,3.38172 -1.71059,5.17149l-0.2223,0.6669c0,0 -0.39528,1.18585 -1.58114,0.79057z" fill="#8b0000" stroke-width="0.5"/><path d="M253.69465,190.14056c-1.11803,-0.55902 -0.55902,-1.67705 -0.55902,-1.67705l0.09033,0.11442c0,-0.4446 0,-0.8892 0,-1.33381c0,0 0,-1.25 1.25,-1.25c1.25,0 1.25,1.25 1.25,1.25c0,0.4446 0,0.8892 0,1.33381l-0.35427,1.00362c0,0 -0.55902,1.11803 -1.67705,0.55902z" fill="#8b0000" stroke-width="0.5"/></g></g></svg>